%TF.GenerationSoftware,KiCad,Pcbnew,(5.1.9)-1*%
%TF.CreationDate,2021-11-30T23:52:57-06:00*%
%TF.ProjectId,Discrete_Channel,44697363-7265-4746-955f-4368616e6e65,rev?*%
%TF.SameCoordinates,Original*%
%TF.FileFunction,Copper,L2,Inr*%
%TF.FilePolarity,Positive*%
%FSLAX46Y46*%
G04 Gerber Fmt 4.6, Leading zero omitted, Abs format (unit mm)*
G04 Created by KiCad (PCBNEW (5.1.9)-1) date 2021-11-30 23:52:57*
%MOMM*%
%LPD*%
G01*
G04 APERTURE LIST*
%TA.AperFunction,NonConductor*%
%ADD10C,0.150000*%
%TD*%
%TA.AperFunction,ComponentPad*%
%ADD11C,2.400000*%
%TD*%
%TA.AperFunction,ComponentPad*%
%ADD12R,2.400000X2.400000*%
%TD*%
%TA.AperFunction,ComponentPad*%
%ADD13R,1.700000X1.700000*%
%TD*%
%TA.AperFunction,ComponentPad*%
%ADD14O,1.700000X1.700000*%
%TD*%
%TA.AperFunction,ComponentPad*%
%ADD15R,1.600000X2.400000*%
%TD*%
%TA.AperFunction,ComponentPad*%
%ADD16O,1.600000X2.400000*%
%TD*%
%TA.AperFunction,ComponentPad*%
%ADD17C,10.160000*%
%TD*%
%TA.AperFunction,ViaPad*%
%ADD18C,0.800000*%
%TD*%
%TA.AperFunction,Conductor*%
%ADD19C,0.250000*%
%TD*%
%TA.AperFunction,Conductor*%
%ADD20C,0.500000*%
%TD*%
%TA.AperFunction,Conductor*%
%ADD21C,0.254000*%
%TD*%
%TA.AperFunction,Conductor*%
%ADD22C,0.100000*%
%TD*%
G04 APERTURE END LIST*
D10*
X148666387Y-92710000D02*
G75*
G03*
X148666387Y-92710000I-1727387J0D01*
G01*
D11*
%TO.N,/FB_B*%
%TO.C,C21*%
X119439000Y-71628000D03*
%TO.N,Net-(C21-Pad1)*%
X146939000Y-71628000D03*
%TD*%
%TO.N,Net-(C20-Pad1)*%
%TO.C,C20*%
X146939000Y-92710000D03*
%TO.N,/FB_A*%
X119439000Y-92710000D03*
%TD*%
D12*
%TO.N,/PVDD*%
%TO.C,C1*%
X147828000Y-107569000D03*
D11*
%TO.N,GND*%
X152828000Y-107569000D03*
%TD*%
%TO.N,GND*%
%TO.C,C2*%
X166798000Y-107569000D03*
D12*
%TO.N,/PVDD*%
X161798000Y-107569000D03*
%TD*%
%TO.N,/+12V*%
%TO.C,C17*%
X118618000Y-107569000D03*
D11*
%TO.N,GND*%
X123618000Y-107569000D03*
%TD*%
D13*
%TO.N,/OSC_IOM*%
%TO.C,J1*%
X133858000Y-65151000D03*
D14*
%TO.N,/OSC_IOP*%
X136398000Y-65151000D03*
%TO.N,/~RESET*%
X138938000Y-65151000D03*
%TO.N,/~FAULT*%
X141478000Y-65151000D03*
%TO.N,/~ERROR*%
X144018000Y-65151000D03*
%TD*%
%TO.N,/IN_A*%
%TO.C,J3*%
X115189000Y-84328000D03*
%TO.N,/IN_B*%
X115189000Y-81788000D03*
%TO.N,VEE*%
X115189000Y-79248000D03*
%TO.N,GNDA*%
X115189000Y-76708000D03*
D13*
%TO.N,VCC*%
X115189000Y-74168000D03*
%TD*%
%TO.N,GND*%
%TO.C,J2*%
X128778000Y-110744000D03*
D14*
%TO.N,/+12V*%
X131318000Y-110744000D03*
X133858000Y-110744000D03*
%TO.N,/PVDD*%
X136398000Y-110744000D03*
X138938000Y-110744000D03*
%TO.N,GND*%
X141478000Y-110744000D03*
%TD*%
D15*
%TO.N,/FB_A*%
%TO.C,U2*%
X119888000Y-87122000D03*
D16*
%TO.N,GNDA*%
X127508000Y-79502000D03*
%TO.N,Net-(C19-Pad1)*%
X122428000Y-87122000D03*
%TO.N,Net-(C18-Pad1)*%
X124968000Y-79502000D03*
%TO.N,GNDA*%
X124968000Y-87122000D03*
%TO.N,/FB_B*%
X122428000Y-79502000D03*
%TO.N,VEE*%
X127508000Y-87122000D03*
%TO.N,VCC*%
X119888000Y-79502000D03*
%TD*%
D17*
%TO.N,/SPEAKER+*%
%TO.C,J4*%
X183769000Y-69723000D03*
%TO.N,/SPEAKER-*%
X183769000Y-99693000D03*
%TO.N,GND*%
X183769000Y-84713000D03*
%TD*%
D18*
%TO.N,*%
X114427000Y-96012000D03*
X115443000Y-96012000D03*
X116459000Y-96012000D03*
X117475000Y-96012000D03*
X118491000Y-96012000D03*
X119507000Y-96012000D03*
X120523000Y-96012000D03*
X121539000Y-96012000D03*
X123571000Y-96012000D03*
X124587000Y-96012000D03*
X125603000Y-96012000D03*
X126619000Y-96012000D03*
X127635000Y-96012000D03*
X128905000Y-96012000D03*
X130175000Y-96012000D03*
X130175000Y-94488000D03*
X130175000Y-93472000D03*
X130175000Y-92456000D03*
X130175000Y-90424000D03*
X130175000Y-91440000D03*
X130175000Y-89408000D03*
X130175000Y-88392000D03*
X130175000Y-87376000D03*
X130175000Y-86360000D03*
X130175000Y-85344000D03*
X130175000Y-84328000D03*
X130175000Y-83312000D03*
X130175000Y-82296000D03*
X130175000Y-81280000D03*
X130175000Y-80264000D03*
X130175000Y-79248000D03*
X130175000Y-78232000D03*
X130175000Y-76200000D03*
X130175000Y-75184000D03*
X130175000Y-74168000D03*
X130175000Y-73152000D03*
X130175000Y-72136000D03*
X130175000Y-71120000D03*
X130175000Y-69850000D03*
X129159000Y-68834000D03*
X127889000Y-68834000D03*
X126873000Y-68834000D03*
X125857000Y-68834000D03*
X124841000Y-68834000D03*
X123825000Y-68834000D03*
X122809000Y-68834000D03*
X119761000Y-68834000D03*
X118745000Y-68834000D03*
X117729000Y-68834000D03*
X116713000Y-68834000D03*
X115697000Y-68834000D03*
X114681000Y-68834000D03*
X130175000Y-68834000D03*
X120777000Y-68834000D03*
%TO.N,Net-(C6-Pad2)*%
X136908000Y-101473000D03*
X136908000Y-103505000D03*
%TO.N,/OUT_B*%
X156210000Y-78867000D03*
%TO.N,/PVDD*%
X144526000Y-80264000D03*
%TO.N,GND*%
X138938000Y-82169000D03*
%TO.N,/PVDD*%
X148209000Y-79375000D03*
X147193000Y-80391000D03*
X148209000Y-80391000D03*
X146177000Y-80391000D03*
X147193000Y-79375000D03*
X148209000Y-84836000D03*
X146177000Y-84836000D03*
X148209000Y-83820000D03*
X147193000Y-84836000D03*
X147193000Y-83820000D03*
%TO.N,GND*%
X140208000Y-77089000D03*
X141478000Y-75819000D03*
X142748000Y-74549000D03*
X140208000Y-87249000D03*
X142748000Y-77089000D03*
X142748000Y-79629000D03*
X142748000Y-82169000D03*
X142748000Y-84709000D03*
X140208000Y-84709000D03*
X140208000Y-82169000D03*
X140208000Y-79629000D03*
X141478000Y-78359000D03*
X141478000Y-80899000D03*
X141478000Y-83439000D03*
X141478000Y-85979000D03*
X138938000Y-85979000D03*
X138938000Y-83439000D03*
X138938000Y-80899000D03*
X138938000Y-78359000D03*
X167894000Y-85217000D03*
X171958000Y-83693000D03*
X169926000Y-85217000D03*
X169926000Y-83693000D03*
X171958000Y-85217000D03*
X172974000Y-84455000D03*
X173990000Y-83693000D03*
X173990000Y-85217000D03*
X168910000Y-84455000D03*
X167894000Y-83693000D03*
X170942000Y-84455000D03*
X167894000Y-75819000D03*
X169926000Y-75819000D03*
X171958000Y-75819000D03*
X173990000Y-75819000D03*
X171958000Y-77343000D03*
X169926000Y-77343000D03*
X172974000Y-76581000D03*
X170942000Y-76581000D03*
X168910000Y-76581000D03*
X167894000Y-77343000D03*
X173990000Y-77343000D03*
X140208000Y-80899000D03*
X138938000Y-79629000D03*
X141478000Y-79629000D03*
X140208000Y-78359000D03*
X142748000Y-78359000D03*
X142748000Y-80899000D03*
X141478000Y-82169000D03*
X140208000Y-83439000D03*
X142748000Y-83439000D03*
X138938000Y-84709000D03*
X141478000Y-84709000D03*
X140208000Y-85979000D03*
X132588000Y-77216000D03*
%TO.N,Net-(C6-Pad2)*%
X135763000Y-91059000D03*
X135763000Y-92329000D03*
X136908000Y-102487000D03*
%TO.N,Net-(C8-Pad2)*%
X135382000Y-74168000D03*
X135382000Y-73025000D03*
%TO.N,Net-(C9-Pad1)*%
X135572500Y-79946500D03*
X134747000Y-80518000D03*
%TO.N,VCC*%
X120269000Y-77724000D03*
X120269000Y-76581000D03*
X120269000Y-75438000D03*
X120269000Y-74295000D03*
%TO.N,Net-(C14-Pad2)*%
X141097000Y-101854000D03*
X141097000Y-100330000D03*
X141097000Y-103378000D03*
X135382000Y-88773000D03*
X134756524Y-89671524D03*
%TO.N,Net-(C15-Pad2)*%
X135483600Y-76581000D03*
X134610000Y-75565000D03*
%TO.N,Net-(C16-Pad2)*%
X135763000Y-80899000D03*
X135128000Y-81534000D03*
%TO.N,/+12V*%
X130937000Y-101092000D03*
X130937000Y-100076000D03*
X131953000Y-100076000D03*
X131953000Y-101092000D03*
X131953000Y-102108000D03*
X132524500Y-70294500D03*
X132524500Y-69278500D03*
X132524500Y-71374000D03*
X131762500Y-69786500D03*
X131762500Y-70866000D03*
X130937000Y-103124000D03*
X130937000Y-104140000D03*
X131953000Y-104140000D03*
X131953000Y-103124000D03*
X131002000Y-102173000D03*
%TO.N,/FB_A*%
X122809000Y-67077500D03*
X124857000Y-67056000D03*
X123825000Y-67056000D03*
%TO.N,/FB_B*%
X121809000Y-97790000D03*
X120777000Y-97790000D03*
X119761000Y-97768500D03*
%TO.N,Net-(C19-Pad1)*%
X121941500Y-90043000D03*
X114824000Y-90043000D03*
X114824000Y-87503000D03*
%TO.N,Net-(C20-Pad1)*%
X134874279Y-86869957D03*
%TO.N,Net-(C21-Pad1)*%
X133858000Y-85979000D03*
%TO.N,/OUT_A*%
X158877000Y-88519000D03*
X157607000Y-88519000D03*
X156337000Y-88519000D03*
X155702000Y-87757000D03*
X159512000Y-87757000D03*
X158242000Y-87757000D03*
X156972000Y-87757000D03*
X148209000Y-86868000D03*
X155702000Y-89281000D03*
X146177000Y-86868000D03*
X156972000Y-89281000D03*
X159512000Y-89281000D03*
X147193000Y-85852000D03*
X146177000Y-85852000D03*
X147193000Y-86868000D03*
X148209000Y-85852000D03*
X158242000Y-89281000D03*
%TO.N,/OUT_B*%
X150241000Y-82804000D03*
X158877000Y-78867000D03*
X156083000Y-80391000D03*
X157607000Y-80391000D03*
X159004000Y-80391000D03*
X157607000Y-78867000D03*
X159512000Y-79629000D03*
X158242000Y-79629000D03*
X156845000Y-79629000D03*
X155448000Y-79629000D03*
X147193000Y-82804000D03*
X148209000Y-82804000D03*
X149225000Y-82804000D03*
X146177000Y-82804000D03*
%TO.N,Net-(C23-Pad1)*%
X148336000Y-88138000D03*
X147193000Y-88138000D03*
X146177000Y-88138000D03*
%TO.N,Net-(C25-Pad1)*%
X145923000Y-75428500D03*
X147193000Y-75428500D03*
X148082000Y-75428500D03*
%TO.N,/OUT_D*%
X159004000Y-75565000D03*
X157734000Y-75565000D03*
X156464000Y-75565000D03*
X147193000Y-78359000D03*
X146177000Y-78359000D03*
X156972000Y-74803000D03*
X158242000Y-74803000D03*
X159512000Y-74803000D03*
X156972000Y-76327000D03*
X158242000Y-76327000D03*
X159512000Y-76327000D03*
X155702000Y-74803000D03*
X155702000Y-76327000D03*
X148209000Y-77343000D03*
X147193000Y-77343000D03*
X146177000Y-77343000D03*
%TO.N,/SPEAKER+*%
X168910000Y-65151000D03*
X172720000Y-66675000D03*
X170180000Y-65151000D03*
X171450000Y-65151000D03*
X170180000Y-66675000D03*
X172720000Y-65151000D03*
X171450000Y-66675000D03*
X168910000Y-66675000D03*
X172212000Y-65913000D03*
X169672000Y-65913000D03*
X170942000Y-65913000D03*
X159512000Y-70231000D03*
X156972000Y-68707000D03*
X158242000Y-68707000D03*
X156972000Y-70231000D03*
X159512000Y-68707000D03*
X158242000Y-70231000D03*
X155702000Y-70231000D03*
X159004000Y-69469000D03*
X156464000Y-69469000D03*
X157734000Y-69469000D03*
X126857000Y-67056000D03*
%TO.N,/SPEAKER-*%
X168910000Y-94361000D03*
X172720000Y-95885000D03*
X170180000Y-94361000D03*
X171450000Y-94361000D03*
X170180000Y-95885000D03*
X172720000Y-94361000D03*
X171450000Y-95885000D03*
X168910000Y-95885000D03*
X172212000Y-95123000D03*
X169672000Y-95123000D03*
X170942000Y-95123000D03*
X155702000Y-93853000D03*
X159512000Y-95377000D03*
X158242000Y-93853000D03*
X156972000Y-95377000D03*
X159512000Y-93853000D03*
X158242000Y-95377000D03*
X159004000Y-94615000D03*
X156464000Y-94615000D03*
X157734000Y-94615000D03*
X123809000Y-97790000D03*
X123846500Y-99822000D03*
%TO.N,/OSC_IOP*%
X135763000Y-83185000D03*
%TO.N,/OSC_IOM*%
X134747000Y-83185000D03*
%TO.N,GNDA*%
X114173000Y-69850000D03*
X115189000Y-69850000D03*
X116205000Y-69850000D03*
X117221000Y-69850000D03*
X118237000Y-69850000D03*
X120269000Y-69850000D03*
X123317000Y-69850000D03*
X124333000Y-69850000D03*
X125349000Y-69850000D03*
X126365000Y-69850000D03*
X127381000Y-69850000D03*
X128397000Y-69850000D03*
X129159000Y-70612000D03*
X129159000Y-71628000D03*
X129159000Y-72644000D03*
X129159000Y-73660000D03*
X129159000Y-74676000D03*
X129159000Y-75692000D03*
X129159000Y-78740000D03*
X129159000Y-79756000D03*
X129159000Y-80772000D03*
X129159000Y-81788000D03*
X129159000Y-82804000D03*
X129159000Y-83820000D03*
X129159000Y-84836000D03*
X129159000Y-85852000D03*
X129159000Y-86868000D03*
X129159000Y-87884000D03*
X129159000Y-88900000D03*
X129159000Y-89916000D03*
X129159000Y-90932000D03*
X129159000Y-91948000D03*
X129159000Y-92964000D03*
X129159000Y-93980000D03*
X129159000Y-94996000D03*
X128143000Y-94996000D03*
X127127000Y-94996000D03*
X126111000Y-94996000D03*
X125095000Y-94996000D03*
X124079000Y-94996000D03*
X122047000Y-94996000D03*
X121031000Y-94996000D03*
X120015000Y-94996000D03*
X118999000Y-94996000D03*
X117983000Y-94996000D03*
X116967000Y-94996000D03*
X115951000Y-94996000D03*
X114935000Y-94996000D03*
X129159000Y-76708000D03*
X115951000Y-99822000D03*
X118745000Y-65024000D03*
X118364000Y-75780500D03*
X117436500Y-76708000D03*
X125581500Y-92583000D03*
X124968000Y-90297000D03*
%TO.N,Net-(R4-Pad2)*%
X133858000Y-84836000D03*
%TO.N,Net-(JP1-Pad2)*%
X133447000Y-83723000D03*
%TD*%
D19*
%TO.N,*%
X120777000Y-68834000D02*
X114681000Y-68834000D01*
X130175000Y-68834000D02*
X130175000Y-96012000D01*
X130175000Y-96012000D02*
X123571000Y-96012000D01*
X121539000Y-96012000D02*
X114427000Y-96012000D01*
X130175000Y-68834000D02*
X122809000Y-68834000D01*
%TO.N,/OUT_A*%
X159512000Y-87757000D02*
X159512000Y-89027000D01*
X159258000Y-89281000D02*
X155702000Y-89281000D01*
X159512000Y-89027000D02*
X159258000Y-89281000D01*
X159512000Y-87757000D02*
X155702000Y-87757000D01*
X155702000Y-87757000D02*
X155702000Y-89281000D01*
%TO.N,/OUT_D*%
X159512000Y-76327000D02*
X159512000Y-74803000D01*
X159512000Y-74803000D02*
X155702000Y-74803000D01*
X155702000Y-76327000D02*
X159512000Y-76327000D01*
X155702000Y-76327000D02*
X155702000Y-74803000D01*
%TO.N,/OSC_IOP*%
X135763000Y-83185000D02*
X133985000Y-81407000D01*
X133985000Y-67564000D02*
X133985000Y-67818000D01*
X136398000Y-65151000D02*
X133985000Y-67564000D01*
X133985000Y-81407000D02*
X133985000Y-67818000D01*
%TO.N,/OSC_IOM*%
X134747000Y-83185000D02*
X133477000Y-81915000D01*
X133477000Y-65532000D02*
X133858000Y-65151000D01*
X133477000Y-81915000D02*
X133477000Y-65532000D01*
%TO.N,GNDA*%
X129159000Y-69850000D02*
X129159000Y-76708000D01*
X129159000Y-76708000D02*
X129159000Y-78740000D01*
D20*
X118364000Y-74295000D02*
X118364000Y-75780500D01*
X119214001Y-73444999D02*
X118364000Y-74295000D01*
X120064003Y-73444999D02*
X119214001Y-73444999D01*
X121920000Y-71589002D02*
X120064003Y-73444999D01*
X121920000Y-68199000D02*
X121920000Y-71589002D01*
X118745000Y-65024000D02*
X121920000Y-68199000D01*
X118364000Y-75780500D02*
X117436500Y-76708000D01*
X117436500Y-76708000D02*
X115189000Y-76708000D01*
X115951000Y-99822000D02*
X121793000Y-99822000D01*
X121793000Y-99822000D02*
X122682000Y-98933000D01*
X125233998Y-92583000D02*
X125581500Y-92583000D01*
X123228999Y-94587999D02*
X125233998Y-92583000D01*
X123228999Y-95072003D02*
X123228999Y-94587999D01*
X122682000Y-95619002D02*
X123228999Y-95072003D01*
X122682000Y-98933000D02*
X122682000Y-95619002D01*
X125581500Y-92583000D02*
X125581500Y-92561500D01*
X124968000Y-91969500D02*
X125581500Y-92583000D01*
X124968000Y-90297000D02*
X124968000Y-91969500D01*
X124968000Y-90297000D02*
X124968000Y-87122000D01*
X129159000Y-79756000D02*
X129159000Y-94996000D01*
X123317000Y-69850000D02*
X129159000Y-69850000D01*
X129159000Y-75819000D02*
X129159000Y-79756000D01*
X129159000Y-69850000D02*
X129159000Y-75819000D01*
X114173000Y-69850000D02*
X121158000Y-69850000D01*
X124079000Y-94996000D02*
X129159000Y-94996000D01*
X122047000Y-94996000D02*
X114935000Y-94996000D01*
%TD*%
D21*
%TO.N,/OUT_B*%
X159766000Y-80645000D02*
X154940000Y-80645000D01*
X154915224Y-80647440D01*
X154891399Y-80654667D01*
X154869443Y-80666403D01*
X154850197Y-80682197D01*
X152475410Y-83056984D01*
X148824953Y-82986783D01*
X148699256Y-82902795D01*
X148510898Y-82824774D01*
X148310939Y-82785000D01*
X148107061Y-82785000D01*
X147907102Y-82824774D01*
X147718744Y-82902795D01*
X147701000Y-82914651D01*
X147683256Y-82902795D01*
X147494898Y-82824774D01*
X147294939Y-82785000D01*
X147091061Y-82785000D01*
X146891102Y-82824774D01*
X146702744Y-82902795D01*
X146639934Y-82944763D01*
X146050000Y-82933418D01*
X146050000Y-82042000D01*
X149225000Y-82042000D01*
X149249776Y-82039560D01*
X149273601Y-82032333D01*
X149295557Y-82020597D01*
X149314803Y-82004803D01*
X152706606Y-78613000D01*
X159766000Y-78613000D01*
X159766000Y-80645000D01*
%TA.AperFunction,Conductor*%
D22*
G36*
X159766000Y-80645000D02*
G01*
X154940000Y-80645000D01*
X154915224Y-80647440D01*
X154891399Y-80654667D01*
X154869443Y-80666403D01*
X154850197Y-80682197D01*
X152475410Y-83056984D01*
X148824953Y-82986783D01*
X148699256Y-82902795D01*
X148510898Y-82824774D01*
X148310939Y-82785000D01*
X148107061Y-82785000D01*
X147907102Y-82824774D01*
X147718744Y-82902795D01*
X147701000Y-82914651D01*
X147683256Y-82902795D01*
X147494898Y-82824774D01*
X147294939Y-82785000D01*
X147091061Y-82785000D01*
X146891102Y-82824774D01*
X146702744Y-82902795D01*
X146639934Y-82944763D01*
X146050000Y-82933418D01*
X146050000Y-82042000D01*
X149225000Y-82042000D01*
X149249776Y-82039560D01*
X149273601Y-82032333D01*
X149295557Y-82020597D01*
X149314803Y-82004803D01*
X152706606Y-78613000D01*
X159766000Y-78613000D01*
X159766000Y-80645000D01*
G37*
%TD.AperFunction*%
%TD*%
D21*
%TO.N,/OUT_A*%
X154850197Y-87211803D02*
X154869443Y-87227597D01*
X154891399Y-87239333D01*
X154915224Y-87246560D01*
X154940000Y-87249000D01*
X160147000Y-87249000D01*
X160147000Y-89789000D01*
X154992606Y-89789000D01*
X152235803Y-87032197D01*
X152216557Y-87016403D01*
X152194601Y-87004667D01*
X152170776Y-86997440D01*
X152146000Y-86995000D01*
X146050000Y-86995000D01*
X146050000Y-85866015D01*
X146075061Y-85871000D01*
X146278939Y-85871000D01*
X146478898Y-85831226D01*
X146667256Y-85753205D01*
X146685000Y-85741349D01*
X146702744Y-85753205D01*
X146891102Y-85831226D01*
X147091061Y-85871000D01*
X147294939Y-85871000D01*
X147494898Y-85831226D01*
X147683256Y-85753205D01*
X147701000Y-85741349D01*
X147718744Y-85753205D01*
X147907102Y-85831226D01*
X148107061Y-85871000D01*
X148310939Y-85871000D01*
X148510898Y-85831226D01*
X148699256Y-85753205D01*
X148741468Y-85725000D01*
X153363394Y-85725000D01*
X154850197Y-87211803D01*
%TA.AperFunction,Conductor*%
D22*
G36*
X154850197Y-87211803D02*
G01*
X154869443Y-87227597D01*
X154891399Y-87239333D01*
X154915224Y-87246560D01*
X154940000Y-87249000D01*
X160147000Y-87249000D01*
X160147000Y-89789000D01*
X154992606Y-89789000D01*
X152235803Y-87032197D01*
X152216557Y-87016403D01*
X152194601Y-87004667D01*
X152170776Y-86997440D01*
X152146000Y-86995000D01*
X146050000Y-86995000D01*
X146050000Y-85866015D01*
X146075061Y-85871000D01*
X146278939Y-85871000D01*
X146478898Y-85831226D01*
X146667256Y-85753205D01*
X146685000Y-85741349D01*
X146702744Y-85753205D01*
X146891102Y-85831226D01*
X147091061Y-85871000D01*
X147294939Y-85871000D01*
X147494898Y-85831226D01*
X147683256Y-85753205D01*
X147701000Y-85741349D01*
X147718744Y-85753205D01*
X147907102Y-85831226D01*
X148107061Y-85871000D01*
X148310939Y-85871000D01*
X148510898Y-85831226D01*
X148699256Y-85753205D01*
X148741468Y-85725000D01*
X153363394Y-85725000D01*
X154850197Y-87211803D01*
G37*
%TD.AperFunction*%
%TD*%
D21*
%TO.N,/+12V*%
X132717000Y-76186383D02*
X132689939Y-76181000D01*
X132486061Y-76181000D01*
X132286102Y-76220774D01*
X132097744Y-76298795D01*
X131928226Y-76412063D01*
X131784063Y-76556226D01*
X131670795Y-76725744D01*
X131592774Y-76914102D01*
X131553000Y-77114061D01*
X131553000Y-77317939D01*
X131592774Y-77517898D01*
X131670795Y-77706256D01*
X131784063Y-77875774D01*
X131928226Y-78019937D01*
X132097744Y-78133205D01*
X132286102Y-78211226D01*
X132486061Y-78251000D01*
X132689939Y-78251000D01*
X132717000Y-78245617D01*
X132717000Y-81877678D01*
X132713324Y-81915000D01*
X132717000Y-81952322D01*
X132717000Y-81952332D01*
X132727997Y-82063985D01*
X132768408Y-82197205D01*
X132771454Y-82207246D01*
X132842026Y-82339276D01*
X132876320Y-82381063D01*
X132936999Y-82455001D01*
X132966003Y-82478804D01*
X133096000Y-82608801D01*
X133096000Y-82748113D01*
X132956744Y-82805795D01*
X132787226Y-82919063D01*
X132643063Y-83063226D01*
X132529795Y-83232744D01*
X132451774Y-83421102D01*
X132412000Y-83621061D01*
X132412000Y-83824939D01*
X132451774Y-84024898D01*
X132529795Y-84213256D01*
X132643063Y-84382774D01*
X132787226Y-84526937D01*
X132855169Y-84572335D01*
X132823000Y-84734061D01*
X132823000Y-84937939D01*
X132862774Y-85137898D01*
X132940795Y-85326256D01*
X132995080Y-85407500D01*
X132940795Y-85488744D01*
X132862774Y-85677102D01*
X132823000Y-85877061D01*
X132823000Y-86080939D01*
X132862774Y-86280898D01*
X132940795Y-86469256D01*
X133054063Y-86638774D01*
X133096000Y-86680711D01*
X133096000Y-96139000D01*
X133098440Y-96163776D01*
X133105667Y-96187601D01*
X133117403Y-96209557D01*
X133133197Y-96228803D01*
X134493000Y-97588606D01*
X134493000Y-111887000D01*
X130191407Y-111887000D01*
X130217502Y-111838180D01*
X130253812Y-111718482D01*
X130266072Y-111594000D01*
X130266072Y-109894000D01*
X130253812Y-109769518D01*
X130217502Y-109649820D01*
X130158537Y-109539506D01*
X130079185Y-109442815D01*
X129982494Y-109363463D01*
X129872180Y-109304498D01*
X129752482Y-109268188D01*
X129628000Y-109255928D01*
X127928000Y-109255928D01*
X127803518Y-109268188D01*
X127683820Y-109304498D01*
X127573506Y-109363463D01*
X127476815Y-109442815D01*
X127397463Y-109539506D01*
X127338498Y-109649820D01*
X127302188Y-109769518D01*
X127289928Y-109894000D01*
X127289928Y-111594000D01*
X127302188Y-111718482D01*
X127338498Y-111838180D01*
X127364593Y-111887000D01*
X114325000Y-111887000D01*
X114325000Y-107388268D01*
X121783000Y-107388268D01*
X121783000Y-107749732D01*
X121853518Y-108104250D01*
X121991844Y-108438199D01*
X122192662Y-108738744D01*
X122448256Y-108994338D01*
X122748801Y-109195156D01*
X123082750Y-109333482D01*
X123437268Y-109404000D01*
X123798732Y-109404000D01*
X124153250Y-109333482D01*
X124487199Y-109195156D01*
X124787744Y-108994338D01*
X125043338Y-108738744D01*
X125244156Y-108438199D01*
X125382482Y-108104250D01*
X125453000Y-107749732D01*
X125453000Y-107388268D01*
X125382482Y-107033750D01*
X125244156Y-106699801D01*
X125043338Y-106399256D01*
X124787744Y-106143662D01*
X124487199Y-105942844D01*
X124153250Y-105804518D01*
X123798732Y-105734000D01*
X123437268Y-105734000D01*
X123082750Y-105804518D01*
X122748801Y-105942844D01*
X122448256Y-106143662D01*
X122192662Y-106399256D01*
X121991844Y-106699801D01*
X121853518Y-107033750D01*
X121783000Y-107388268D01*
X114325000Y-107388268D01*
X114325000Y-102997000D01*
X130683000Y-102997000D01*
X130707776Y-102994560D01*
X130731601Y-102987333D01*
X130753557Y-102975597D01*
X130772803Y-102959803D01*
X130788597Y-102940557D01*
X130800333Y-102918601D01*
X130807560Y-102894776D01*
X130809999Y-102869531D01*
X130787777Y-96847339D01*
X130834774Y-96815937D01*
X130978937Y-96671774D01*
X131092205Y-96502256D01*
X131170226Y-96313898D01*
X131210000Y-96113939D01*
X131210000Y-95910061D01*
X131170226Y-95710102D01*
X131092205Y-95521744D01*
X130978937Y-95352226D01*
X130935000Y-95308289D01*
X130935000Y-95191711D01*
X130978937Y-95147774D01*
X131092205Y-94978256D01*
X131170226Y-94789898D01*
X131210000Y-94589939D01*
X131210000Y-94386061D01*
X131170226Y-94186102D01*
X131092205Y-93997744D01*
X131080349Y-93980000D01*
X131092205Y-93962256D01*
X131170226Y-93773898D01*
X131210000Y-93573939D01*
X131210000Y-93370061D01*
X131170226Y-93170102D01*
X131092205Y-92981744D01*
X131080349Y-92964000D01*
X131092205Y-92946256D01*
X131170226Y-92757898D01*
X131210000Y-92557939D01*
X131210000Y-92354061D01*
X131170226Y-92154102D01*
X131092205Y-91965744D01*
X131080349Y-91948000D01*
X131092205Y-91930256D01*
X131170226Y-91741898D01*
X131210000Y-91541939D01*
X131210000Y-91338061D01*
X131170226Y-91138102D01*
X131092205Y-90949744D01*
X131080349Y-90932000D01*
X131092205Y-90914256D01*
X131170226Y-90725898D01*
X131210000Y-90525939D01*
X131210000Y-90322061D01*
X131170226Y-90122102D01*
X131092205Y-89933744D01*
X131080349Y-89916000D01*
X131092205Y-89898256D01*
X131170226Y-89709898D01*
X131210000Y-89509939D01*
X131210000Y-89306061D01*
X131170226Y-89106102D01*
X131092205Y-88917744D01*
X131080349Y-88900000D01*
X131092205Y-88882256D01*
X131170226Y-88693898D01*
X131210000Y-88493939D01*
X131210000Y-88290061D01*
X131170226Y-88090102D01*
X131092205Y-87901744D01*
X131080349Y-87884000D01*
X131092205Y-87866256D01*
X131170226Y-87677898D01*
X131210000Y-87477939D01*
X131210000Y-87274061D01*
X131170226Y-87074102D01*
X131092205Y-86885744D01*
X131080349Y-86868000D01*
X131092205Y-86850256D01*
X131170226Y-86661898D01*
X131210000Y-86461939D01*
X131210000Y-86258061D01*
X131170226Y-86058102D01*
X131092205Y-85869744D01*
X131080349Y-85852000D01*
X131092205Y-85834256D01*
X131170226Y-85645898D01*
X131210000Y-85445939D01*
X131210000Y-85242061D01*
X131170226Y-85042102D01*
X131092205Y-84853744D01*
X131080349Y-84836000D01*
X131092205Y-84818256D01*
X131170226Y-84629898D01*
X131210000Y-84429939D01*
X131210000Y-84226061D01*
X131170226Y-84026102D01*
X131092205Y-83837744D01*
X131080349Y-83820000D01*
X131092205Y-83802256D01*
X131170226Y-83613898D01*
X131210000Y-83413939D01*
X131210000Y-83210061D01*
X131170226Y-83010102D01*
X131092205Y-82821744D01*
X131080349Y-82804000D01*
X131092205Y-82786256D01*
X131170226Y-82597898D01*
X131210000Y-82397939D01*
X131210000Y-82194061D01*
X131170226Y-81994102D01*
X131092205Y-81805744D01*
X131080349Y-81788000D01*
X131092205Y-81770256D01*
X131170226Y-81581898D01*
X131210000Y-81381939D01*
X131210000Y-81178061D01*
X131170226Y-80978102D01*
X131092205Y-80789744D01*
X131080349Y-80772000D01*
X131092205Y-80754256D01*
X131170226Y-80565898D01*
X131210000Y-80365939D01*
X131210000Y-80162061D01*
X131170226Y-79962102D01*
X131092205Y-79773744D01*
X131080349Y-79756000D01*
X131092205Y-79738256D01*
X131170226Y-79549898D01*
X131210000Y-79349939D01*
X131210000Y-79146061D01*
X131170226Y-78946102D01*
X131092205Y-78757744D01*
X131080349Y-78740000D01*
X131092205Y-78722256D01*
X131170226Y-78533898D01*
X131210000Y-78333939D01*
X131210000Y-78130061D01*
X131170226Y-77930102D01*
X131092205Y-77741744D01*
X130978937Y-77572226D01*
X130935000Y-77528289D01*
X130935000Y-76903711D01*
X130978937Y-76859774D01*
X131092205Y-76690256D01*
X131170226Y-76501898D01*
X131210000Y-76301939D01*
X131210000Y-76098061D01*
X131170226Y-75898102D01*
X131092205Y-75709744D01*
X131080349Y-75692000D01*
X131092205Y-75674256D01*
X131170226Y-75485898D01*
X131210000Y-75285939D01*
X131210000Y-75082061D01*
X131170226Y-74882102D01*
X131092205Y-74693744D01*
X131080349Y-74676000D01*
X131092205Y-74658256D01*
X131170226Y-74469898D01*
X131210000Y-74269939D01*
X131210000Y-74066061D01*
X131170226Y-73866102D01*
X131092205Y-73677744D01*
X131080349Y-73660000D01*
X131092205Y-73642256D01*
X131170226Y-73453898D01*
X131210000Y-73253939D01*
X131210000Y-73050061D01*
X131170226Y-72850102D01*
X131092205Y-72661744D01*
X131080349Y-72644000D01*
X131092205Y-72626256D01*
X131170226Y-72437898D01*
X131210000Y-72237939D01*
X131210000Y-72034061D01*
X131170226Y-71834102D01*
X131092205Y-71645744D01*
X131080349Y-71628000D01*
X131092205Y-71610256D01*
X131170226Y-71421898D01*
X131210000Y-71221939D01*
X131210000Y-71018061D01*
X131170226Y-70818102D01*
X131092205Y-70629744D01*
X130995490Y-70485000D01*
X131092205Y-70340256D01*
X131170226Y-70151898D01*
X131210000Y-69951939D01*
X131210000Y-69748061D01*
X131170226Y-69548102D01*
X131092205Y-69359744D01*
X131080349Y-69342000D01*
X131092205Y-69324256D01*
X131170226Y-69135898D01*
X131210000Y-68935939D01*
X131210000Y-68732061D01*
X131179753Y-68580000D01*
X132717001Y-68580000D01*
X132717000Y-76186383D01*
%TA.AperFunction,Conductor*%
D22*
G36*
X132717000Y-76186383D02*
G01*
X132689939Y-76181000D01*
X132486061Y-76181000D01*
X132286102Y-76220774D01*
X132097744Y-76298795D01*
X131928226Y-76412063D01*
X131784063Y-76556226D01*
X131670795Y-76725744D01*
X131592774Y-76914102D01*
X131553000Y-77114061D01*
X131553000Y-77317939D01*
X131592774Y-77517898D01*
X131670795Y-77706256D01*
X131784063Y-77875774D01*
X131928226Y-78019937D01*
X132097744Y-78133205D01*
X132286102Y-78211226D01*
X132486061Y-78251000D01*
X132689939Y-78251000D01*
X132717000Y-78245617D01*
X132717000Y-81877678D01*
X132713324Y-81915000D01*
X132717000Y-81952322D01*
X132717000Y-81952332D01*
X132727997Y-82063985D01*
X132768408Y-82197205D01*
X132771454Y-82207246D01*
X132842026Y-82339276D01*
X132876320Y-82381063D01*
X132936999Y-82455001D01*
X132966003Y-82478804D01*
X133096000Y-82608801D01*
X133096000Y-82748113D01*
X132956744Y-82805795D01*
X132787226Y-82919063D01*
X132643063Y-83063226D01*
X132529795Y-83232744D01*
X132451774Y-83421102D01*
X132412000Y-83621061D01*
X132412000Y-83824939D01*
X132451774Y-84024898D01*
X132529795Y-84213256D01*
X132643063Y-84382774D01*
X132787226Y-84526937D01*
X132855169Y-84572335D01*
X132823000Y-84734061D01*
X132823000Y-84937939D01*
X132862774Y-85137898D01*
X132940795Y-85326256D01*
X132995080Y-85407500D01*
X132940795Y-85488744D01*
X132862774Y-85677102D01*
X132823000Y-85877061D01*
X132823000Y-86080939D01*
X132862774Y-86280898D01*
X132940795Y-86469256D01*
X133054063Y-86638774D01*
X133096000Y-86680711D01*
X133096000Y-96139000D01*
X133098440Y-96163776D01*
X133105667Y-96187601D01*
X133117403Y-96209557D01*
X133133197Y-96228803D01*
X134493000Y-97588606D01*
X134493000Y-111887000D01*
X130191407Y-111887000D01*
X130217502Y-111838180D01*
X130253812Y-111718482D01*
X130266072Y-111594000D01*
X130266072Y-109894000D01*
X130253812Y-109769518D01*
X130217502Y-109649820D01*
X130158537Y-109539506D01*
X130079185Y-109442815D01*
X129982494Y-109363463D01*
X129872180Y-109304498D01*
X129752482Y-109268188D01*
X129628000Y-109255928D01*
X127928000Y-109255928D01*
X127803518Y-109268188D01*
X127683820Y-109304498D01*
X127573506Y-109363463D01*
X127476815Y-109442815D01*
X127397463Y-109539506D01*
X127338498Y-109649820D01*
X127302188Y-109769518D01*
X127289928Y-109894000D01*
X127289928Y-111594000D01*
X127302188Y-111718482D01*
X127338498Y-111838180D01*
X127364593Y-111887000D01*
X114325000Y-111887000D01*
X114325000Y-107388268D01*
X121783000Y-107388268D01*
X121783000Y-107749732D01*
X121853518Y-108104250D01*
X121991844Y-108438199D01*
X122192662Y-108738744D01*
X122448256Y-108994338D01*
X122748801Y-109195156D01*
X123082750Y-109333482D01*
X123437268Y-109404000D01*
X123798732Y-109404000D01*
X124153250Y-109333482D01*
X124487199Y-109195156D01*
X124787744Y-108994338D01*
X125043338Y-108738744D01*
X125244156Y-108438199D01*
X125382482Y-108104250D01*
X125453000Y-107749732D01*
X125453000Y-107388268D01*
X125382482Y-107033750D01*
X125244156Y-106699801D01*
X125043338Y-106399256D01*
X124787744Y-106143662D01*
X124487199Y-105942844D01*
X124153250Y-105804518D01*
X123798732Y-105734000D01*
X123437268Y-105734000D01*
X123082750Y-105804518D01*
X122748801Y-105942844D01*
X122448256Y-106143662D01*
X122192662Y-106399256D01*
X121991844Y-106699801D01*
X121853518Y-107033750D01*
X121783000Y-107388268D01*
X114325000Y-107388268D01*
X114325000Y-102997000D01*
X130683000Y-102997000D01*
X130707776Y-102994560D01*
X130731601Y-102987333D01*
X130753557Y-102975597D01*
X130772803Y-102959803D01*
X130788597Y-102940557D01*
X130800333Y-102918601D01*
X130807560Y-102894776D01*
X130809999Y-102869531D01*
X130787777Y-96847339D01*
X130834774Y-96815937D01*
X130978937Y-96671774D01*
X131092205Y-96502256D01*
X131170226Y-96313898D01*
X131210000Y-96113939D01*
X131210000Y-95910061D01*
X131170226Y-95710102D01*
X131092205Y-95521744D01*
X130978937Y-95352226D01*
X130935000Y-95308289D01*
X130935000Y-95191711D01*
X130978937Y-95147774D01*
X131092205Y-94978256D01*
X131170226Y-94789898D01*
X131210000Y-94589939D01*
X131210000Y-94386061D01*
X131170226Y-94186102D01*
X131092205Y-93997744D01*
X131080349Y-93980000D01*
X131092205Y-93962256D01*
X131170226Y-93773898D01*
X131210000Y-93573939D01*
X131210000Y-93370061D01*
X131170226Y-93170102D01*
X131092205Y-92981744D01*
X131080349Y-92964000D01*
X131092205Y-92946256D01*
X131170226Y-92757898D01*
X131210000Y-92557939D01*
X131210000Y-92354061D01*
X131170226Y-92154102D01*
X131092205Y-91965744D01*
X131080349Y-91948000D01*
X131092205Y-91930256D01*
X131170226Y-91741898D01*
X131210000Y-91541939D01*
X131210000Y-91338061D01*
X131170226Y-91138102D01*
X131092205Y-90949744D01*
X131080349Y-90932000D01*
X131092205Y-90914256D01*
X131170226Y-90725898D01*
X131210000Y-90525939D01*
X131210000Y-90322061D01*
X131170226Y-90122102D01*
X131092205Y-89933744D01*
X131080349Y-89916000D01*
X131092205Y-89898256D01*
X131170226Y-89709898D01*
X131210000Y-89509939D01*
X131210000Y-89306061D01*
X131170226Y-89106102D01*
X131092205Y-88917744D01*
X131080349Y-88900000D01*
X131092205Y-88882256D01*
X131170226Y-88693898D01*
X131210000Y-88493939D01*
X131210000Y-88290061D01*
X131170226Y-88090102D01*
X131092205Y-87901744D01*
X131080349Y-87884000D01*
X131092205Y-87866256D01*
X131170226Y-87677898D01*
X131210000Y-87477939D01*
X131210000Y-87274061D01*
X131170226Y-87074102D01*
X131092205Y-86885744D01*
X131080349Y-86868000D01*
X131092205Y-86850256D01*
X131170226Y-86661898D01*
X131210000Y-86461939D01*
X131210000Y-86258061D01*
X131170226Y-86058102D01*
X131092205Y-85869744D01*
X131080349Y-85852000D01*
X131092205Y-85834256D01*
X131170226Y-85645898D01*
X131210000Y-85445939D01*
X131210000Y-85242061D01*
X131170226Y-85042102D01*
X131092205Y-84853744D01*
X131080349Y-84836000D01*
X131092205Y-84818256D01*
X131170226Y-84629898D01*
X131210000Y-84429939D01*
X131210000Y-84226061D01*
X131170226Y-84026102D01*
X131092205Y-83837744D01*
X131080349Y-83820000D01*
X131092205Y-83802256D01*
X131170226Y-83613898D01*
X131210000Y-83413939D01*
X131210000Y-83210061D01*
X131170226Y-83010102D01*
X131092205Y-82821744D01*
X131080349Y-82804000D01*
X131092205Y-82786256D01*
X131170226Y-82597898D01*
X131210000Y-82397939D01*
X131210000Y-82194061D01*
X131170226Y-81994102D01*
X131092205Y-81805744D01*
X131080349Y-81788000D01*
X131092205Y-81770256D01*
X131170226Y-81581898D01*
X131210000Y-81381939D01*
X131210000Y-81178061D01*
X131170226Y-80978102D01*
X131092205Y-80789744D01*
X131080349Y-80772000D01*
X131092205Y-80754256D01*
X131170226Y-80565898D01*
X131210000Y-80365939D01*
X131210000Y-80162061D01*
X131170226Y-79962102D01*
X131092205Y-79773744D01*
X131080349Y-79756000D01*
X131092205Y-79738256D01*
X131170226Y-79549898D01*
X131210000Y-79349939D01*
X131210000Y-79146061D01*
X131170226Y-78946102D01*
X131092205Y-78757744D01*
X131080349Y-78740000D01*
X131092205Y-78722256D01*
X131170226Y-78533898D01*
X131210000Y-78333939D01*
X131210000Y-78130061D01*
X131170226Y-77930102D01*
X131092205Y-77741744D01*
X130978937Y-77572226D01*
X130935000Y-77528289D01*
X130935000Y-76903711D01*
X130978937Y-76859774D01*
X131092205Y-76690256D01*
X131170226Y-76501898D01*
X131210000Y-76301939D01*
X131210000Y-76098061D01*
X131170226Y-75898102D01*
X131092205Y-75709744D01*
X131080349Y-75692000D01*
X131092205Y-75674256D01*
X131170226Y-75485898D01*
X131210000Y-75285939D01*
X131210000Y-75082061D01*
X131170226Y-74882102D01*
X131092205Y-74693744D01*
X131080349Y-74676000D01*
X131092205Y-74658256D01*
X131170226Y-74469898D01*
X131210000Y-74269939D01*
X131210000Y-74066061D01*
X131170226Y-73866102D01*
X131092205Y-73677744D01*
X131080349Y-73660000D01*
X131092205Y-73642256D01*
X131170226Y-73453898D01*
X131210000Y-73253939D01*
X131210000Y-73050061D01*
X131170226Y-72850102D01*
X131092205Y-72661744D01*
X131080349Y-72644000D01*
X131092205Y-72626256D01*
X131170226Y-72437898D01*
X131210000Y-72237939D01*
X131210000Y-72034061D01*
X131170226Y-71834102D01*
X131092205Y-71645744D01*
X131080349Y-71628000D01*
X131092205Y-71610256D01*
X131170226Y-71421898D01*
X131210000Y-71221939D01*
X131210000Y-71018061D01*
X131170226Y-70818102D01*
X131092205Y-70629744D01*
X130995490Y-70485000D01*
X131092205Y-70340256D01*
X131170226Y-70151898D01*
X131210000Y-69951939D01*
X131210000Y-69748061D01*
X131170226Y-69548102D01*
X131092205Y-69359744D01*
X131080349Y-69342000D01*
X131092205Y-69324256D01*
X131170226Y-69135898D01*
X131210000Y-68935939D01*
X131210000Y-68732061D01*
X131179753Y-68580000D01*
X132717001Y-68580000D01*
X132717000Y-76186383D01*
G37*
%TD.AperFunction*%
%TD*%
D21*
%TO.N,/SPEAKER+*%
X189103000Y-74930000D02*
X178360606Y-74930000D01*
X173063803Y-69633197D01*
X173044557Y-69617403D01*
X173022601Y-69605667D01*
X172998776Y-69598440D01*
X172974000Y-69596000D01*
X161671000Y-69596000D01*
X161646224Y-69598440D01*
X161622399Y-69605667D01*
X161600443Y-69617403D01*
X161581197Y-69633197D01*
X160348394Y-70866000D01*
X154940000Y-70866000D01*
X154940000Y-64262000D01*
X189103000Y-64262000D01*
X189103000Y-74930000D01*
%TA.AperFunction,Conductor*%
D22*
G36*
X189103000Y-74930000D02*
G01*
X178360606Y-74930000D01*
X173063803Y-69633197D01*
X173044557Y-69617403D01*
X173022601Y-69605667D01*
X172998776Y-69598440D01*
X172974000Y-69596000D01*
X161671000Y-69596000D01*
X161646224Y-69598440D01*
X161622399Y-69605667D01*
X161600443Y-69617403D01*
X161581197Y-69633197D01*
X160348394Y-70866000D01*
X154940000Y-70866000D01*
X154940000Y-64262000D01*
X189103000Y-64262000D01*
X189103000Y-74930000D01*
G37*
%TD.AperFunction*%
%TD*%
D21*
%TO.N,/SPEAKER-*%
X189103000Y-104775000D02*
X178562000Y-104775000D01*
X178562000Y-99822000D01*
X178559560Y-99797224D01*
X178552333Y-99773399D01*
X178540597Y-99751443D01*
X178524803Y-99732197D01*
X178505557Y-99716403D01*
X178483601Y-99704667D01*
X178459776Y-99697440D01*
X178435000Y-99695000D01*
X154940000Y-99695000D01*
X154940000Y-93218000D01*
X189103000Y-93218000D01*
X189103000Y-104775000D01*
%TA.AperFunction,Conductor*%
D22*
G36*
X189103000Y-104775000D02*
G01*
X178562000Y-104775000D01*
X178562000Y-99822000D01*
X178559560Y-99797224D01*
X178552333Y-99773399D01*
X178540597Y-99751443D01*
X178524803Y-99732197D01*
X178505557Y-99716403D01*
X178483601Y-99704667D01*
X178459776Y-99697440D01*
X178435000Y-99695000D01*
X154940000Y-99695000D01*
X154940000Y-93218000D01*
X189103000Y-93218000D01*
X189103000Y-104775000D01*
G37*
%TD.AperFunction*%
%TD*%
D21*
%TO.N,GND*%
X177964197Y-78956803D02*
X177983443Y-78972597D01*
X178005399Y-78984333D01*
X178029224Y-78991560D01*
X178054000Y-78994000D01*
X189230000Y-78994000D01*
X189230000Y-90170000D01*
X178689000Y-90170000D01*
X178689000Y-85852000D01*
X178686560Y-85827224D01*
X178679333Y-85803399D01*
X178667597Y-85781443D01*
X178651803Y-85762197D01*
X178632557Y-85746403D01*
X178610601Y-85734667D01*
X178586776Y-85727440D01*
X178562000Y-85725000D01*
X167259000Y-85725000D01*
X167259000Y-75311000D01*
X174318394Y-75311000D01*
X177964197Y-78956803D01*
%TA.AperFunction,Conductor*%
D22*
G36*
X177964197Y-78956803D02*
G01*
X177983443Y-78972597D01*
X178005399Y-78984333D01*
X178029224Y-78991560D01*
X178054000Y-78994000D01*
X189230000Y-78994000D01*
X189230000Y-90170000D01*
X178689000Y-90170000D01*
X178689000Y-85852000D01*
X178686560Y-85827224D01*
X178679333Y-85803399D01*
X178667597Y-85781443D01*
X178651803Y-85762197D01*
X178632557Y-85746403D01*
X178610601Y-85734667D01*
X178586776Y-85727440D01*
X178562000Y-85725000D01*
X167259000Y-85725000D01*
X167259000Y-75311000D01*
X174318394Y-75311000D01*
X177964197Y-78956803D01*
G37*
%TD.AperFunction*%
%TD*%
D21*
%TO.N,/OUT_D*%
X160020000Y-76581000D02*
X151003000Y-76581000D01*
X150978224Y-76583440D01*
X150954399Y-76590667D01*
X150932443Y-76602403D01*
X150913197Y-76618197D01*
X149045394Y-78486000D01*
X148741468Y-78486000D01*
X148699256Y-78457795D01*
X148510898Y-78379774D01*
X148310939Y-78340000D01*
X148107061Y-78340000D01*
X147907102Y-78379774D01*
X147718744Y-78457795D01*
X147701000Y-78469651D01*
X147683256Y-78457795D01*
X147494898Y-78379774D01*
X147294939Y-78340000D01*
X147091061Y-78340000D01*
X146891102Y-78379774D01*
X146702744Y-78457795D01*
X146660532Y-78486000D01*
X145923000Y-78486000D01*
X145923000Y-77089000D01*
X148463000Y-77089000D01*
X148487776Y-77086560D01*
X148511601Y-77079333D01*
X148533557Y-77067597D01*
X148552803Y-77051803D01*
X151055606Y-74549000D01*
X160020000Y-74549000D01*
X160020000Y-76581000D01*
%TA.AperFunction,Conductor*%
D22*
G36*
X160020000Y-76581000D02*
G01*
X151003000Y-76581000D01*
X150978224Y-76583440D01*
X150954399Y-76590667D01*
X150932443Y-76602403D01*
X150913197Y-76618197D01*
X149045394Y-78486000D01*
X148741468Y-78486000D01*
X148699256Y-78457795D01*
X148510898Y-78379774D01*
X148310939Y-78340000D01*
X148107061Y-78340000D01*
X147907102Y-78379774D01*
X147718744Y-78457795D01*
X147701000Y-78469651D01*
X147683256Y-78457795D01*
X147494898Y-78379774D01*
X147294939Y-78340000D01*
X147091061Y-78340000D01*
X146891102Y-78379774D01*
X146702744Y-78457795D01*
X146660532Y-78486000D01*
X145923000Y-78486000D01*
X145923000Y-77089000D01*
X148463000Y-77089000D01*
X148487776Y-77086560D01*
X148511601Y-77079333D01*
X148533557Y-77067597D01*
X148552803Y-77051803D01*
X151055606Y-74549000D01*
X160020000Y-74549000D01*
X160020000Y-76581000D01*
G37*
%TD.AperFunction*%
%TD*%
D21*
%TO.N,/PVDD*%
X145686744Y-79276205D02*
X145875102Y-79354226D01*
X146075061Y-79394000D01*
X146278939Y-79394000D01*
X146478898Y-79354226D01*
X146667256Y-79276205D01*
X146685000Y-79264349D01*
X146702744Y-79276205D01*
X146891102Y-79354226D01*
X147091061Y-79394000D01*
X147294939Y-79394000D01*
X147494898Y-79354226D01*
X147683256Y-79276205D01*
X147725468Y-79248000D01*
X148336000Y-79248000D01*
X148336000Y-80518000D01*
X145288000Y-80518000D01*
X145263224Y-80520440D01*
X145239399Y-80527667D01*
X145217443Y-80539403D01*
X145198197Y-80555197D01*
X145182403Y-80574443D01*
X145170667Y-80596399D01*
X145163440Y-80620224D01*
X145161000Y-80645000D01*
X145161000Y-82606541D01*
X145142000Y-82702061D01*
X145142000Y-82905939D01*
X145161000Y-83001459D01*
X145161000Y-83566000D01*
X145163440Y-83590776D01*
X145170667Y-83614601D01*
X145182403Y-83636557D01*
X145198197Y-83655803D01*
X145217443Y-83671597D01*
X145239399Y-83683333D01*
X145263224Y-83690560D01*
X145288000Y-83693000D01*
X145644532Y-83693000D01*
X145686744Y-83721205D01*
X145875102Y-83799226D01*
X146075061Y-83839000D01*
X146278939Y-83839000D01*
X146478898Y-83799226D01*
X146667256Y-83721205D01*
X146685000Y-83709349D01*
X146702744Y-83721205D01*
X146891102Y-83799226D01*
X147091061Y-83839000D01*
X147294939Y-83839000D01*
X147494898Y-83799226D01*
X147683256Y-83721205D01*
X147701000Y-83709349D01*
X147718744Y-83721205D01*
X147907102Y-83799226D01*
X148107061Y-83839000D01*
X148310939Y-83839000D01*
X148336000Y-83834015D01*
X148336000Y-84821985D01*
X148310939Y-84817000D01*
X148107061Y-84817000D01*
X147907102Y-84856774D01*
X147718744Y-84934795D01*
X147701000Y-84946651D01*
X147683256Y-84934795D01*
X147494898Y-84856774D01*
X147294939Y-84817000D01*
X147091061Y-84817000D01*
X146891102Y-84856774D01*
X146702744Y-84934795D01*
X146685000Y-84946651D01*
X146667256Y-84934795D01*
X146478898Y-84856774D01*
X146278939Y-84817000D01*
X146075061Y-84817000D01*
X145875102Y-84856774D01*
X145686744Y-84934795D01*
X145644532Y-84963000D01*
X145415000Y-84963000D01*
X145390224Y-84965440D01*
X145366399Y-84972667D01*
X145344443Y-84984403D01*
X145325197Y-85000197D01*
X145309403Y-85019443D01*
X145297667Y-85041399D01*
X145290440Y-85065224D01*
X145288000Y-85090000D01*
X145288000Y-85319532D01*
X145259795Y-85361744D01*
X145181774Y-85550102D01*
X145142000Y-85750061D01*
X145142000Y-85953939D01*
X145181774Y-86153898D01*
X145259795Y-86342256D01*
X145271651Y-86360000D01*
X145259795Y-86377744D01*
X145181774Y-86566102D01*
X145142000Y-86766061D01*
X145142000Y-86969939D01*
X145181774Y-87169898D01*
X145259795Y-87358256D01*
X145288000Y-87400468D01*
X145288000Y-87605532D01*
X145259795Y-87647744D01*
X145181774Y-87836102D01*
X145142000Y-88036061D01*
X145142000Y-88239939D01*
X145181774Y-88439898D01*
X145259795Y-88628256D01*
X145288000Y-88670468D01*
X145288000Y-88900000D01*
X145290440Y-88924776D01*
X145297667Y-88948601D01*
X145309403Y-88970557D01*
X145325197Y-88989803D01*
X145344443Y-89005597D01*
X145366399Y-89017333D01*
X145390224Y-89024560D01*
X145415000Y-89027000D01*
X145644532Y-89027000D01*
X145686744Y-89055205D01*
X145875102Y-89133226D01*
X146075061Y-89173000D01*
X146278939Y-89173000D01*
X146478898Y-89133226D01*
X146667256Y-89055205D01*
X146685000Y-89043349D01*
X146702744Y-89055205D01*
X146891102Y-89133226D01*
X147091061Y-89173000D01*
X147294939Y-89173000D01*
X147494898Y-89133226D01*
X147683256Y-89055205D01*
X147725468Y-89027000D01*
X147803532Y-89027000D01*
X147845744Y-89055205D01*
X148034102Y-89133226D01*
X148234061Y-89173000D01*
X148437939Y-89173000D01*
X148637898Y-89133226D01*
X148826256Y-89055205D01*
X148868468Y-89027000D01*
X152146000Y-89027000D01*
X152146000Y-101600000D01*
X152148440Y-101624776D01*
X152155667Y-101648601D01*
X152167403Y-101670557D01*
X152183197Y-101689803D01*
X152202443Y-101705597D01*
X152224399Y-101717333D01*
X152248224Y-101724560D01*
X152273000Y-101727000D01*
X171196000Y-101727000D01*
X171196000Y-111887000D01*
X142435107Y-111887000D01*
X142631475Y-111690632D01*
X142793990Y-111447411D01*
X142905932Y-111177158D01*
X142963000Y-110890260D01*
X142963000Y-110597740D01*
X142905932Y-110310842D01*
X142793990Y-110040589D01*
X142631475Y-109797368D01*
X142424632Y-109590525D01*
X142181411Y-109428010D01*
X141911158Y-109316068D01*
X141624260Y-109259000D01*
X141331740Y-109259000D01*
X141044842Y-109316068D01*
X140774589Y-109428010D01*
X140531368Y-109590525D01*
X140324525Y-109797368D01*
X140162010Y-110040589D01*
X140050068Y-110310842D01*
X139993000Y-110597740D01*
X139993000Y-110890260D01*
X140050068Y-111177158D01*
X140162010Y-111447411D01*
X140324525Y-111690632D01*
X140520893Y-111887000D01*
X135890000Y-111887000D01*
X135890000Y-107388268D01*
X150993000Y-107388268D01*
X150993000Y-107749732D01*
X151063518Y-108104250D01*
X151201844Y-108438199D01*
X151402662Y-108738744D01*
X151658256Y-108994338D01*
X151958801Y-109195156D01*
X152292750Y-109333482D01*
X152647268Y-109404000D01*
X153008732Y-109404000D01*
X153363250Y-109333482D01*
X153697199Y-109195156D01*
X153997744Y-108994338D01*
X154253338Y-108738744D01*
X154454156Y-108438199D01*
X154592482Y-108104250D01*
X154663000Y-107749732D01*
X154663000Y-107388268D01*
X164963000Y-107388268D01*
X164963000Y-107749732D01*
X165033518Y-108104250D01*
X165171844Y-108438199D01*
X165372662Y-108738744D01*
X165628256Y-108994338D01*
X165928801Y-109195156D01*
X166262750Y-109333482D01*
X166617268Y-109404000D01*
X166978732Y-109404000D01*
X167333250Y-109333482D01*
X167667199Y-109195156D01*
X167967744Y-108994338D01*
X168223338Y-108738744D01*
X168424156Y-108438199D01*
X168562482Y-108104250D01*
X168633000Y-107749732D01*
X168633000Y-107388268D01*
X168562482Y-107033750D01*
X168424156Y-106699801D01*
X168223338Y-106399256D01*
X167967744Y-106143662D01*
X167667199Y-105942844D01*
X167333250Y-105804518D01*
X166978732Y-105734000D01*
X166617268Y-105734000D01*
X166262750Y-105804518D01*
X165928801Y-105942844D01*
X165628256Y-106143662D01*
X165372662Y-106399256D01*
X165171844Y-106699801D01*
X165033518Y-107033750D01*
X164963000Y-107388268D01*
X154663000Y-107388268D01*
X154592482Y-107033750D01*
X154454156Y-106699801D01*
X154253338Y-106399256D01*
X153997744Y-106143662D01*
X153697199Y-105942844D01*
X153363250Y-105804518D01*
X153008732Y-105734000D01*
X152647268Y-105734000D01*
X152292750Y-105804518D01*
X151958801Y-105942844D01*
X151658256Y-106143662D01*
X151402662Y-106399256D01*
X151201844Y-106699801D01*
X151063518Y-107033750D01*
X150993000Y-107388268D01*
X135890000Y-107388268D01*
X135890000Y-104775000D01*
X143637000Y-104775000D01*
X143661776Y-104772560D01*
X143685601Y-104765333D01*
X143707557Y-104753597D01*
X143726803Y-104737803D01*
X143742597Y-104718557D01*
X143754333Y-104696601D01*
X143761560Y-104672776D01*
X143764000Y-104648000D01*
X143764000Y-92469134D01*
X144493446Y-92469134D01*
X144493446Y-92950866D01*
X144587427Y-93423342D01*
X144771778Y-93868404D01*
X145039414Y-94268950D01*
X145380050Y-94609586D01*
X145780596Y-94877222D01*
X146225658Y-95061573D01*
X146698134Y-95155554D01*
X147179866Y-95155554D01*
X147652342Y-95061573D01*
X148097404Y-94877222D01*
X148497950Y-94609586D01*
X148838586Y-94268950D01*
X149106222Y-93868404D01*
X149290573Y-93423342D01*
X149384554Y-92950866D01*
X149384554Y-92469134D01*
X149290573Y-91996658D01*
X149106222Y-91551596D01*
X148838586Y-91151050D01*
X148497950Y-90810414D01*
X148097404Y-90542778D01*
X147652342Y-90358427D01*
X147179866Y-90264446D01*
X146698134Y-90264446D01*
X146225658Y-90358427D01*
X145780596Y-90542778D01*
X145380050Y-90810414D01*
X145039414Y-91151050D01*
X144771778Y-91551596D01*
X144587427Y-91996658D01*
X144493446Y-92469134D01*
X143764000Y-92469134D01*
X143764000Y-89662783D01*
X143889479Y-79248000D01*
X145644532Y-79248000D01*
X145686744Y-79276205D01*
%TA.AperFunction,Conductor*%
D22*
G36*
X145686744Y-79276205D02*
G01*
X145875102Y-79354226D01*
X146075061Y-79394000D01*
X146278939Y-79394000D01*
X146478898Y-79354226D01*
X146667256Y-79276205D01*
X146685000Y-79264349D01*
X146702744Y-79276205D01*
X146891102Y-79354226D01*
X147091061Y-79394000D01*
X147294939Y-79394000D01*
X147494898Y-79354226D01*
X147683256Y-79276205D01*
X147725468Y-79248000D01*
X148336000Y-79248000D01*
X148336000Y-80518000D01*
X145288000Y-80518000D01*
X145263224Y-80520440D01*
X145239399Y-80527667D01*
X145217443Y-80539403D01*
X145198197Y-80555197D01*
X145182403Y-80574443D01*
X145170667Y-80596399D01*
X145163440Y-80620224D01*
X145161000Y-80645000D01*
X145161000Y-82606541D01*
X145142000Y-82702061D01*
X145142000Y-82905939D01*
X145161000Y-83001459D01*
X145161000Y-83566000D01*
X145163440Y-83590776D01*
X145170667Y-83614601D01*
X145182403Y-83636557D01*
X145198197Y-83655803D01*
X145217443Y-83671597D01*
X145239399Y-83683333D01*
X145263224Y-83690560D01*
X145288000Y-83693000D01*
X145644532Y-83693000D01*
X145686744Y-83721205D01*
X145875102Y-83799226D01*
X146075061Y-83839000D01*
X146278939Y-83839000D01*
X146478898Y-83799226D01*
X146667256Y-83721205D01*
X146685000Y-83709349D01*
X146702744Y-83721205D01*
X146891102Y-83799226D01*
X147091061Y-83839000D01*
X147294939Y-83839000D01*
X147494898Y-83799226D01*
X147683256Y-83721205D01*
X147701000Y-83709349D01*
X147718744Y-83721205D01*
X147907102Y-83799226D01*
X148107061Y-83839000D01*
X148310939Y-83839000D01*
X148336000Y-83834015D01*
X148336000Y-84821985D01*
X148310939Y-84817000D01*
X148107061Y-84817000D01*
X147907102Y-84856774D01*
X147718744Y-84934795D01*
X147701000Y-84946651D01*
X147683256Y-84934795D01*
X147494898Y-84856774D01*
X147294939Y-84817000D01*
X147091061Y-84817000D01*
X146891102Y-84856774D01*
X146702744Y-84934795D01*
X146685000Y-84946651D01*
X146667256Y-84934795D01*
X146478898Y-84856774D01*
X146278939Y-84817000D01*
X146075061Y-84817000D01*
X145875102Y-84856774D01*
X145686744Y-84934795D01*
X145644532Y-84963000D01*
X145415000Y-84963000D01*
X145390224Y-84965440D01*
X145366399Y-84972667D01*
X145344443Y-84984403D01*
X145325197Y-85000197D01*
X145309403Y-85019443D01*
X145297667Y-85041399D01*
X145290440Y-85065224D01*
X145288000Y-85090000D01*
X145288000Y-85319532D01*
X145259795Y-85361744D01*
X145181774Y-85550102D01*
X145142000Y-85750061D01*
X145142000Y-85953939D01*
X145181774Y-86153898D01*
X145259795Y-86342256D01*
X145271651Y-86360000D01*
X145259795Y-86377744D01*
X145181774Y-86566102D01*
X145142000Y-86766061D01*
X145142000Y-86969939D01*
X145181774Y-87169898D01*
X145259795Y-87358256D01*
X145288000Y-87400468D01*
X145288000Y-87605532D01*
X145259795Y-87647744D01*
X145181774Y-87836102D01*
X145142000Y-88036061D01*
X145142000Y-88239939D01*
X145181774Y-88439898D01*
X145259795Y-88628256D01*
X145288000Y-88670468D01*
X145288000Y-88900000D01*
X145290440Y-88924776D01*
X145297667Y-88948601D01*
X145309403Y-88970557D01*
X145325197Y-88989803D01*
X145344443Y-89005597D01*
X145366399Y-89017333D01*
X145390224Y-89024560D01*
X145415000Y-89027000D01*
X145644532Y-89027000D01*
X145686744Y-89055205D01*
X145875102Y-89133226D01*
X146075061Y-89173000D01*
X146278939Y-89173000D01*
X146478898Y-89133226D01*
X146667256Y-89055205D01*
X146685000Y-89043349D01*
X146702744Y-89055205D01*
X146891102Y-89133226D01*
X147091061Y-89173000D01*
X147294939Y-89173000D01*
X147494898Y-89133226D01*
X147683256Y-89055205D01*
X147725468Y-89027000D01*
X147803532Y-89027000D01*
X147845744Y-89055205D01*
X148034102Y-89133226D01*
X148234061Y-89173000D01*
X148437939Y-89173000D01*
X148637898Y-89133226D01*
X148826256Y-89055205D01*
X148868468Y-89027000D01*
X152146000Y-89027000D01*
X152146000Y-101600000D01*
X152148440Y-101624776D01*
X152155667Y-101648601D01*
X152167403Y-101670557D01*
X152183197Y-101689803D01*
X152202443Y-101705597D01*
X152224399Y-101717333D01*
X152248224Y-101724560D01*
X152273000Y-101727000D01*
X171196000Y-101727000D01*
X171196000Y-111887000D01*
X142435107Y-111887000D01*
X142631475Y-111690632D01*
X142793990Y-111447411D01*
X142905932Y-111177158D01*
X142963000Y-110890260D01*
X142963000Y-110597740D01*
X142905932Y-110310842D01*
X142793990Y-110040589D01*
X142631475Y-109797368D01*
X142424632Y-109590525D01*
X142181411Y-109428010D01*
X141911158Y-109316068D01*
X141624260Y-109259000D01*
X141331740Y-109259000D01*
X141044842Y-109316068D01*
X140774589Y-109428010D01*
X140531368Y-109590525D01*
X140324525Y-109797368D01*
X140162010Y-110040589D01*
X140050068Y-110310842D01*
X139993000Y-110597740D01*
X139993000Y-110890260D01*
X140050068Y-111177158D01*
X140162010Y-111447411D01*
X140324525Y-111690632D01*
X140520893Y-111887000D01*
X135890000Y-111887000D01*
X135890000Y-107388268D01*
X150993000Y-107388268D01*
X150993000Y-107749732D01*
X151063518Y-108104250D01*
X151201844Y-108438199D01*
X151402662Y-108738744D01*
X151658256Y-108994338D01*
X151958801Y-109195156D01*
X152292750Y-109333482D01*
X152647268Y-109404000D01*
X153008732Y-109404000D01*
X153363250Y-109333482D01*
X153697199Y-109195156D01*
X153997744Y-108994338D01*
X154253338Y-108738744D01*
X154454156Y-108438199D01*
X154592482Y-108104250D01*
X154663000Y-107749732D01*
X154663000Y-107388268D01*
X164963000Y-107388268D01*
X164963000Y-107749732D01*
X165033518Y-108104250D01*
X165171844Y-108438199D01*
X165372662Y-108738744D01*
X165628256Y-108994338D01*
X165928801Y-109195156D01*
X166262750Y-109333482D01*
X166617268Y-109404000D01*
X166978732Y-109404000D01*
X167333250Y-109333482D01*
X167667199Y-109195156D01*
X167967744Y-108994338D01*
X168223338Y-108738744D01*
X168424156Y-108438199D01*
X168562482Y-108104250D01*
X168633000Y-107749732D01*
X168633000Y-107388268D01*
X168562482Y-107033750D01*
X168424156Y-106699801D01*
X168223338Y-106399256D01*
X167967744Y-106143662D01*
X167667199Y-105942844D01*
X167333250Y-105804518D01*
X166978732Y-105734000D01*
X166617268Y-105734000D01*
X166262750Y-105804518D01*
X165928801Y-105942844D01*
X165628256Y-106143662D01*
X165372662Y-106399256D01*
X165171844Y-106699801D01*
X165033518Y-107033750D01*
X164963000Y-107388268D01*
X154663000Y-107388268D01*
X154592482Y-107033750D01*
X154454156Y-106699801D01*
X154253338Y-106399256D01*
X153997744Y-106143662D01*
X153697199Y-105942844D01*
X153363250Y-105804518D01*
X153008732Y-105734000D01*
X152647268Y-105734000D01*
X152292750Y-105804518D01*
X151958801Y-105942844D01*
X151658256Y-106143662D01*
X151402662Y-106399256D01*
X151201844Y-106699801D01*
X151063518Y-107033750D01*
X150993000Y-107388268D01*
X135890000Y-107388268D01*
X135890000Y-104775000D01*
X143637000Y-104775000D01*
X143661776Y-104772560D01*
X143685601Y-104765333D01*
X143707557Y-104753597D01*
X143726803Y-104737803D01*
X143742597Y-104718557D01*
X143754333Y-104696601D01*
X143761560Y-104672776D01*
X143764000Y-104648000D01*
X143764000Y-92469134D01*
X144493446Y-92469134D01*
X144493446Y-92950866D01*
X144587427Y-93423342D01*
X144771778Y-93868404D01*
X145039414Y-94268950D01*
X145380050Y-94609586D01*
X145780596Y-94877222D01*
X146225658Y-95061573D01*
X146698134Y-95155554D01*
X147179866Y-95155554D01*
X147652342Y-95061573D01*
X148097404Y-94877222D01*
X148497950Y-94609586D01*
X148838586Y-94268950D01*
X149106222Y-93868404D01*
X149290573Y-93423342D01*
X149384554Y-92950866D01*
X149384554Y-92469134D01*
X149290573Y-91996658D01*
X149106222Y-91551596D01*
X148838586Y-91151050D01*
X148497950Y-90810414D01*
X148097404Y-90542778D01*
X147652342Y-90358427D01*
X147179866Y-90264446D01*
X146698134Y-90264446D01*
X146225658Y-90358427D01*
X145780596Y-90542778D01*
X145380050Y-90810414D01*
X145039414Y-91151050D01*
X144771778Y-91551596D01*
X144587427Y-91996658D01*
X144493446Y-92469134D01*
X143764000Y-92469134D01*
X143764000Y-89662783D01*
X143889479Y-79248000D01*
X145644532Y-79248000D01*
X145686744Y-79276205D01*
G37*
%TD.AperFunction*%
%TD*%
D21*
%TO.N,/PVDD*%
X143764000Y-88138000D02*
X140740468Y-88138000D01*
X140867774Y-88052937D01*
X141011937Y-87908774D01*
X141125205Y-87739256D01*
X141185207Y-87594399D01*
X141823399Y-86956207D01*
X141968256Y-86896205D01*
X142137774Y-86782937D01*
X142281937Y-86638774D01*
X142395205Y-86469256D01*
X142455207Y-86324399D01*
X143093399Y-85686207D01*
X143238256Y-85626205D01*
X143407774Y-85512937D01*
X143551937Y-85368774D01*
X143665205Y-85199256D01*
X143725207Y-85054399D01*
X143764000Y-85015606D01*
X143764000Y-88138000D01*
%TA.AperFunction,Conductor*%
D22*
G36*
X143764000Y-88138000D02*
G01*
X140740468Y-88138000D01*
X140867774Y-88052937D01*
X141011937Y-87908774D01*
X141125205Y-87739256D01*
X141185207Y-87594399D01*
X141823399Y-86956207D01*
X141968256Y-86896205D01*
X142137774Y-86782937D01*
X142281937Y-86638774D01*
X142395205Y-86469256D01*
X142455207Y-86324399D01*
X143093399Y-85686207D01*
X143238256Y-85626205D01*
X143407774Y-85512937D01*
X143551937Y-85368774D01*
X143665205Y-85199256D01*
X143725207Y-85054399D01*
X143764000Y-85015606D01*
X143764000Y-88138000D01*
G37*
%TD.AperFunction*%
%TD*%
D21*
%TO.N,/PVDD*%
X145686744Y-79276205D02*
X145875102Y-79354226D01*
X146075061Y-79394000D01*
X146278939Y-79394000D01*
X146478898Y-79354226D01*
X146667256Y-79276205D01*
X146685000Y-79264349D01*
X146702744Y-79276205D01*
X146891102Y-79354226D01*
X147091061Y-79394000D01*
X147294939Y-79394000D01*
X147494898Y-79354226D01*
X147683256Y-79276205D01*
X147725468Y-79248000D01*
X148336000Y-79248000D01*
X148336000Y-80518000D01*
X145288000Y-80518000D01*
X145263224Y-80520440D01*
X145239399Y-80527667D01*
X145217443Y-80539403D01*
X145198197Y-80555197D01*
X145182403Y-80574443D01*
X145170667Y-80596399D01*
X145163440Y-80620224D01*
X145161000Y-80645000D01*
X145161000Y-82606541D01*
X145142000Y-82702061D01*
X145142000Y-82905939D01*
X145161000Y-83001459D01*
X145161000Y-83566000D01*
X145163440Y-83590776D01*
X145170667Y-83614601D01*
X145182403Y-83636557D01*
X145198197Y-83655803D01*
X145217443Y-83671597D01*
X145239399Y-83683333D01*
X145263224Y-83690560D01*
X145288000Y-83693000D01*
X145644532Y-83693000D01*
X145686744Y-83721205D01*
X145875102Y-83799226D01*
X146075061Y-83839000D01*
X146278939Y-83839000D01*
X146478898Y-83799226D01*
X146667256Y-83721205D01*
X146685000Y-83709349D01*
X146702744Y-83721205D01*
X146891102Y-83799226D01*
X147091061Y-83839000D01*
X147294939Y-83839000D01*
X147494898Y-83799226D01*
X147683256Y-83721205D01*
X147701000Y-83709349D01*
X147718744Y-83721205D01*
X147907102Y-83799226D01*
X148107061Y-83839000D01*
X148310939Y-83839000D01*
X148336000Y-83834015D01*
X148336000Y-84821985D01*
X148310939Y-84817000D01*
X148107061Y-84817000D01*
X147907102Y-84856774D01*
X147718744Y-84934795D01*
X147701000Y-84946651D01*
X147683256Y-84934795D01*
X147494898Y-84856774D01*
X147294939Y-84817000D01*
X147091061Y-84817000D01*
X146891102Y-84856774D01*
X146702744Y-84934795D01*
X146685000Y-84946651D01*
X146667256Y-84934795D01*
X146478898Y-84856774D01*
X146278939Y-84817000D01*
X146075061Y-84817000D01*
X145875102Y-84856774D01*
X145686744Y-84934795D01*
X145644532Y-84963000D01*
X145415000Y-84963000D01*
X145390224Y-84965440D01*
X145366399Y-84972667D01*
X145344443Y-84984403D01*
X145325197Y-85000197D01*
X145309403Y-85019443D01*
X145297667Y-85041399D01*
X145290440Y-85065224D01*
X145288000Y-85090000D01*
X145288000Y-85319532D01*
X145259795Y-85361744D01*
X145181774Y-85550102D01*
X145142000Y-85750061D01*
X145142000Y-85953939D01*
X145181774Y-86153898D01*
X145259795Y-86342256D01*
X145271651Y-86360000D01*
X145259795Y-86377744D01*
X145181774Y-86566102D01*
X145142000Y-86766061D01*
X145142000Y-86969939D01*
X145181774Y-87169898D01*
X145259795Y-87358256D01*
X145288000Y-87400468D01*
X145288000Y-87605532D01*
X145259795Y-87647744D01*
X145181774Y-87836102D01*
X145142000Y-88036061D01*
X145142000Y-88239939D01*
X145181774Y-88439898D01*
X145259795Y-88628256D01*
X145288000Y-88670468D01*
X145288000Y-90902464D01*
X145039414Y-91151050D01*
X144771778Y-91551596D01*
X144587427Y-91996658D01*
X144493446Y-92469134D01*
X144493446Y-92950866D01*
X144587427Y-93423342D01*
X144771778Y-93868404D01*
X145039414Y-94268950D01*
X145288000Y-94517536D01*
X145288000Y-101600000D01*
X145290440Y-101624776D01*
X145297667Y-101648601D01*
X145309403Y-101670557D01*
X145325197Y-101689803D01*
X145344443Y-101705597D01*
X145366399Y-101717333D01*
X145390224Y-101724560D01*
X145415000Y-101727000D01*
X171196000Y-101727000D01*
X171196000Y-111887000D01*
X142435107Y-111887000D01*
X142631475Y-111690632D01*
X142793990Y-111447411D01*
X142905932Y-111177158D01*
X142963000Y-110890260D01*
X142963000Y-110597740D01*
X142905932Y-110310842D01*
X142793990Y-110040589D01*
X142631475Y-109797368D01*
X142424632Y-109590525D01*
X142181411Y-109428010D01*
X141911158Y-109316068D01*
X141624260Y-109259000D01*
X141331740Y-109259000D01*
X141044842Y-109316068D01*
X140774589Y-109428010D01*
X140531368Y-109590525D01*
X140324525Y-109797368D01*
X140162010Y-110040589D01*
X140050068Y-110310842D01*
X139993000Y-110597740D01*
X139993000Y-110890260D01*
X140050068Y-111177158D01*
X140162010Y-111447411D01*
X140324525Y-111690632D01*
X140520893Y-111887000D01*
X135890000Y-111887000D01*
X135890000Y-107388268D01*
X150993000Y-107388268D01*
X150993000Y-107749732D01*
X151063518Y-108104250D01*
X151201844Y-108438199D01*
X151402662Y-108738744D01*
X151658256Y-108994338D01*
X151958801Y-109195156D01*
X152292750Y-109333482D01*
X152647268Y-109404000D01*
X153008732Y-109404000D01*
X153363250Y-109333482D01*
X153697199Y-109195156D01*
X153997744Y-108994338D01*
X154253338Y-108738744D01*
X154454156Y-108438199D01*
X154592482Y-108104250D01*
X154663000Y-107749732D01*
X154663000Y-107388268D01*
X164963000Y-107388268D01*
X164963000Y-107749732D01*
X165033518Y-108104250D01*
X165171844Y-108438199D01*
X165372662Y-108738744D01*
X165628256Y-108994338D01*
X165928801Y-109195156D01*
X166262750Y-109333482D01*
X166617268Y-109404000D01*
X166978732Y-109404000D01*
X167333250Y-109333482D01*
X167667199Y-109195156D01*
X167967744Y-108994338D01*
X168223338Y-108738744D01*
X168424156Y-108438199D01*
X168562482Y-108104250D01*
X168633000Y-107749732D01*
X168633000Y-107388268D01*
X168562482Y-107033750D01*
X168424156Y-106699801D01*
X168223338Y-106399256D01*
X167967744Y-106143662D01*
X167667199Y-105942844D01*
X167333250Y-105804518D01*
X166978732Y-105734000D01*
X166617268Y-105734000D01*
X166262750Y-105804518D01*
X165928801Y-105942844D01*
X165628256Y-106143662D01*
X165372662Y-106399256D01*
X165171844Y-106699801D01*
X165033518Y-107033750D01*
X164963000Y-107388268D01*
X154663000Y-107388268D01*
X154592482Y-107033750D01*
X154454156Y-106699801D01*
X154253338Y-106399256D01*
X153997744Y-106143662D01*
X153697199Y-105942844D01*
X153363250Y-105804518D01*
X153008732Y-105734000D01*
X152647268Y-105734000D01*
X152292750Y-105804518D01*
X151958801Y-105942844D01*
X151658256Y-106143662D01*
X151402662Y-106399256D01*
X151201844Y-106699801D01*
X151063518Y-107033750D01*
X150993000Y-107388268D01*
X135890000Y-107388268D01*
X135890000Y-103692404D01*
X135912774Y-103806898D01*
X135990795Y-103995256D01*
X136104063Y-104164774D01*
X136248226Y-104308937D01*
X136417744Y-104422205D01*
X136606102Y-104500226D01*
X136806061Y-104540000D01*
X137009939Y-104540000D01*
X137209898Y-104500226D01*
X137398256Y-104422205D01*
X137567774Y-104308937D01*
X137711937Y-104164774D01*
X137825205Y-103995256D01*
X137903226Y-103806898D01*
X137943000Y-103606939D01*
X137943000Y-103403061D01*
X137903226Y-103203102D01*
X137825205Y-103014744D01*
X137812681Y-102996000D01*
X137825205Y-102977256D01*
X137903226Y-102788898D01*
X137943000Y-102588939D01*
X137943000Y-102385061D01*
X137903226Y-102185102D01*
X137825205Y-101996744D01*
X137814017Y-101980000D01*
X137825205Y-101963256D01*
X137903226Y-101774898D01*
X137943000Y-101574939D01*
X137943000Y-101371061D01*
X137903226Y-101171102D01*
X137825205Y-100982744D01*
X137711937Y-100813226D01*
X137567774Y-100669063D01*
X137398256Y-100555795D01*
X137209898Y-100477774D01*
X137009939Y-100438000D01*
X136806061Y-100438000D01*
X136606102Y-100477774D01*
X136417744Y-100555795D01*
X136248226Y-100669063D01*
X136104063Y-100813226D01*
X135990795Y-100982744D01*
X135912774Y-101171102D01*
X135890000Y-101285596D01*
X135890000Y-100228061D01*
X140062000Y-100228061D01*
X140062000Y-100431939D01*
X140101774Y-100631898D01*
X140179795Y-100820256D01*
X140293063Y-100989774D01*
X140395289Y-101092000D01*
X140293063Y-101194226D01*
X140179795Y-101363744D01*
X140101774Y-101552102D01*
X140062000Y-101752061D01*
X140062000Y-101955939D01*
X140101774Y-102155898D01*
X140179795Y-102344256D01*
X140293063Y-102513774D01*
X140395289Y-102616000D01*
X140293063Y-102718226D01*
X140179795Y-102887744D01*
X140101774Y-103076102D01*
X140062000Y-103276061D01*
X140062000Y-103479939D01*
X140101774Y-103679898D01*
X140179795Y-103868256D01*
X140293063Y-104037774D01*
X140437226Y-104181937D01*
X140606744Y-104295205D01*
X140795102Y-104373226D01*
X140995061Y-104413000D01*
X141198939Y-104413000D01*
X141398898Y-104373226D01*
X141587256Y-104295205D01*
X141756774Y-104181937D01*
X141900937Y-104037774D01*
X142014205Y-103868256D01*
X142092226Y-103679898D01*
X142132000Y-103479939D01*
X142132000Y-103276061D01*
X142092226Y-103076102D01*
X142014205Y-102887744D01*
X141900937Y-102718226D01*
X141798711Y-102616000D01*
X141900937Y-102513774D01*
X142014205Y-102344256D01*
X142092226Y-102155898D01*
X142132000Y-101955939D01*
X142132000Y-101752061D01*
X142092226Y-101552102D01*
X142014205Y-101363744D01*
X141900937Y-101194226D01*
X141798711Y-101092000D01*
X141900937Y-100989774D01*
X142014205Y-100820256D01*
X142092226Y-100631898D01*
X142132000Y-100431939D01*
X142132000Y-100228061D01*
X142092226Y-100028102D01*
X142014205Y-99839744D01*
X141900937Y-99670226D01*
X141756774Y-99526063D01*
X141587256Y-99412795D01*
X141398898Y-99334774D01*
X141198939Y-99295000D01*
X140995061Y-99295000D01*
X140795102Y-99334774D01*
X140606744Y-99412795D01*
X140437226Y-99526063D01*
X140293063Y-99670226D01*
X140179795Y-99839744D01*
X140101774Y-100028102D01*
X140062000Y-100228061D01*
X135890000Y-100228061D01*
X135890000Y-93359015D01*
X136064898Y-93324226D01*
X136253256Y-93246205D01*
X136422774Y-93132937D01*
X136566937Y-92988774D01*
X136680205Y-92819256D01*
X136758226Y-92630898D01*
X136798000Y-92430939D01*
X136798000Y-92227061D01*
X136758226Y-92027102D01*
X136680205Y-91838744D01*
X136583490Y-91694000D01*
X136680205Y-91549256D01*
X136758226Y-91360898D01*
X136798000Y-91160939D01*
X136798000Y-90957061D01*
X136758226Y-90757102D01*
X136680205Y-90568744D01*
X136566937Y-90399226D01*
X136422774Y-90255063D01*
X136253256Y-90141795D01*
X136064898Y-90063774D01*
X135890000Y-90028985D01*
X135890000Y-89678349D01*
X136041774Y-89576937D01*
X136185937Y-89432774D01*
X136299205Y-89263256D01*
X136377226Y-89074898D01*
X136417000Y-88874939D01*
X136417000Y-88671061D01*
X136377226Y-88471102D01*
X136299205Y-88282744D01*
X136287349Y-88265000D01*
X140010541Y-88265000D01*
X140106061Y-88284000D01*
X140309939Y-88284000D01*
X140405459Y-88265000D01*
X143637000Y-88265000D01*
X143661776Y-88262560D01*
X143685601Y-88255333D01*
X143707557Y-88243597D01*
X143726803Y-88227803D01*
X143742597Y-88208557D01*
X143754333Y-88186601D01*
X143761560Y-88162776D01*
X143763987Y-88139789D01*
X143889223Y-79248000D01*
X145644532Y-79248000D01*
X145686744Y-79276205D01*
%TA.AperFunction,Conductor*%
D22*
G36*
X145686744Y-79276205D02*
G01*
X145875102Y-79354226D01*
X146075061Y-79394000D01*
X146278939Y-79394000D01*
X146478898Y-79354226D01*
X146667256Y-79276205D01*
X146685000Y-79264349D01*
X146702744Y-79276205D01*
X146891102Y-79354226D01*
X147091061Y-79394000D01*
X147294939Y-79394000D01*
X147494898Y-79354226D01*
X147683256Y-79276205D01*
X147725468Y-79248000D01*
X148336000Y-79248000D01*
X148336000Y-80518000D01*
X145288000Y-80518000D01*
X145263224Y-80520440D01*
X145239399Y-80527667D01*
X145217443Y-80539403D01*
X145198197Y-80555197D01*
X145182403Y-80574443D01*
X145170667Y-80596399D01*
X145163440Y-80620224D01*
X145161000Y-80645000D01*
X145161000Y-82606541D01*
X145142000Y-82702061D01*
X145142000Y-82905939D01*
X145161000Y-83001459D01*
X145161000Y-83566000D01*
X145163440Y-83590776D01*
X145170667Y-83614601D01*
X145182403Y-83636557D01*
X145198197Y-83655803D01*
X145217443Y-83671597D01*
X145239399Y-83683333D01*
X145263224Y-83690560D01*
X145288000Y-83693000D01*
X145644532Y-83693000D01*
X145686744Y-83721205D01*
X145875102Y-83799226D01*
X146075061Y-83839000D01*
X146278939Y-83839000D01*
X146478898Y-83799226D01*
X146667256Y-83721205D01*
X146685000Y-83709349D01*
X146702744Y-83721205D01*
X146891102Y-83799226D01*
X147091061Y-83839000D01*
X147294939Y-83839000D01*
X147494898Y-83799226D01*
X147683256Y-83721205D01*
X147701000Y-83709349D01*
X147718744Y-83721205D01*
X147907102Y-83799226D01*
X148107061Y-83839000D01*
X148310939Y-83839000D01*
X148336000Y-83834015D01*
X148336000Y-84821985D01*
X148310939Y-84817000D01*
X148107061Y-84817000D01*
X147907102Y-84856774D01*
X147718744Y-84934795D01*
X147701000Y-84946651D01*
X147683256Y-84934795D01*
X147494898Y-84856774D01*
X147294939Y-84817000D01*
X147091061Y-84817000D01*
X146891102Y-84856774D01*
X146702744Y-84934795D01*
X146685000Y-84946651D01*
X146667256Y-84934795D01*
X146478898Y-84856774D01*
X146278939Y-84817000D01*
X146075061Y-84817000D01*
X145875102Y-84856774D01*
X145686744Y-84934795D01*
X145644532Y-84963000D01*
X145415000Y-84963000D01*
X145390224Y-84965440D01*
X145366399Y-84972667D01*
X145344443Y-84984403D01*
X145325197Y-85000197D01*
X145309403Y-85019443D01*
X145297667Y-85041399D01*
X145290440Y-85065224D01*
X145288000Y-85090000D01*
X145288000Y-85319532D01*
X145259795Y-85361744D01*
X145181774Y-85550102D01*
X145142000Y-85750061D01*
X145142000Y-85953939D01*
X145181774Y-86153898D01*
X145259795Y-86342256D01*
X145271651Y-86360000D01*
X145259795Y-86377744D01*
X145181774Y-86566102D01*
X145142000Y-86766061D01*
X145142000Y-86969939D01*
X145181774Y-87169898D01*
X145259795Y-87358256D01*
X145288000Y-87400468D01*
X145288000Y-87605532D01*
X145259795Y-87647744D01*
X145181774Y-87836102D01*
X145142000Y-88036061D01*
X145142000Y-88239939D01*
X145181774Y-88439898D01*
X145259795Y-88628256D01*
X145288000Y-88670468D01*
X145288000Y-90902464D01*
X145039414Y-91151050D01*
X144771778Y-91551596D01*
X144587427Y-91996658D01*
X144493446Y-92469134D01*
X144493446Y-92950866D01*
X144587427Y-93423342D01*
X144771778Y-93868404D01*
X145039414Y-94268950D01*
X145288000Y-94517536D01*
X145288000Y-101600000D01*
X145290440Y-101624776D01*
X145297667Y-101648601D01*
X145309403Y-101670557D01*
X145325197Y-101689803D01*
X145344443Y-101705597D01*
X145366399Y-101717333D01*
X145390224Y-101724560D01*
X145415000Y-101727000D01*
X171196000Y-101727000D01*
X171196000Y-111887000D01*
X142435107Y-111887000D01*
X142631475Y-111690632D01*
X142793990Y-111447411D01*
X142905932Y-111177158D01*
X142963000Y-110890260D01*
X142963000Y-110597740D01*
X142905932Y-110310842D01*
X142793990Y-110040589D01*
X142631475Y-109797368D01*
X142424632Y-109590525D01*
X142181411Y-109428010D01*
X141911158Y-109316068D01*
X141624260Y-109259000D01*
X141331740Y-109259000D01*
X141044842Y-109316068D01*
X140774589Y-109428010D01*
X140531368Y-109590525D01*
X140324525Y-109797368D01*
X140162010Y-110040589D01*
X140050068Y-110310842D01*
X139993000Y-110597740D01*
X139993000Y-110890260D01*
X140050068Y-111177158D01*
X140162010Y-111447411D01*
X140324525Y-111690632D01*
X140520893Y-111887000D01*
X135890000Y-111887000D01*
X135890000Y-107388268D01*
X150993000Y-107388268D01*
X150993000Y-107749732D01*
X151063518Y-108104250D01*
X151201844Y-108438199D01*
X151402662Y-108738744D01*
X151658256Y-108994338D01*
X151958801Y-109195156D01*
X152292750Y-109333482D01*
X152647268Y-109404000D01*
X153008732Y-109404000D01*
X153363250Y-109333482D01*
X153697199Y-109195156D01*
X153997744Y-108994338D01*
X154253338Y-108738744D01*
X154454156Y-108438199D01*
X154592482Y-108104250D01*
X154663000Y-107749732D01*
X154663000Y-107388268D01*
X164963000Y-107388268D01*
X164963000Y-107749732D01*
X165033518Y-108104250D01*
X165171844Y-108438199D01*
X165372662Y-108738744D01*
X165628256Y-108994338D01*
X165928801Y-109195156D01*
X166262750Y-109333482D01*
X166617268Y-109404000D01*
X166978732Y-109404000D01*
X167333250Y-109333482D01*
X167667199Y-109195156D01*
X167967744Y-108994338D01*
X168223338Y-108738744D01*
X168424156Y-108438199D01*
X168562482Y-108104250D01*
X168633000Y-107749732D01*
X168633000Y-107388268D01*
X168562482Y-107033750D01*
X168424156Y-106699801D01*
X168223338Y-106399256D01*
X167967744Y-106143662D01*
X167667199Y-105942844D01*
X167333250Y-105804518D01*
X166978732Y-105734000D01*
X166617268Y-105734000D01*
X166262750Y-105804518D01*
X165928801Y-105942844D01*
X165628256Y-106143662D01*
X165372662Y-106399256D01*
X165171844Y-106699801D01*
X165033518Y-107033750D01*
X164963000Y-107388268D01*
X154663000Y-107388268D01*
X154592482Y-107033750D01*
X154454156Y-106699801D01*
X154253338Y-106399256D01*
X153997744Y-106143662D01*
X153697199Y-105942844D01*
X153363250Y-105804518D01*
X153008732Y-105734000D01*
X152647268Y-105734000D01*
X152292750Y-105804518D01*
X151958801Y-105942844D01*
X151658256Y-106143662D01*
X151402662Y-106399256D01*
X151201844Y-106699801D01*
X151063518Y-107033750D01*
X150993000Y-107388268D01*
X135890000Y-107388268D01*
X135890000Y-103692404D01*
X135912774Y-103806898D01*
X135990795Y-103995256D01*
X136104063Y-104164774D01*
X136248226Y-104308937D01*
X136417744Y-104422205D01*
X136606102Y-104500226D01*
X136806061Y-104540000D01*
X137009939Y-104540000D01*
X137209898Y-104500226D01*
X137398256Y-104422205D01*
X137567774Y-104308937D01*
X137711937Y-104164774D01*
X137825205Y-103995256D01*
X137903226Y-103806898D01*
X137943000Y-103606939D01*
X137943000Y-103403061D01*
X137903226Y-103203102D01*
X137825205Y-103014744D01*
X137812681Y-102996000D01*
X137825205Y-102977256D01*
X137903226Y-102788898D01*
X137943000Y-102588939D01*
X137943000Y-102385061D01*
X137903226Y-102185102D01*
X137825205Y-101996744D01*
X137814017Y-101980000D01*
X137825205Y-101963256D01*
X137903226Y-101774898D01*
X137943000Y-101574939D01*
X137943000Y-101371061D01*
X137903226Y-101171102D01*
X137825205Y-100982744D01*
X137711937Y-100813226D01*
X137567774Y-100669063D01*
X137398256Y-100555795D01*
X137209898Y-100477774D01*
X137009939Y-100438000D01*
X136806061Y-100438000D01*
X136606102Y-100477774D01*
X136417744Y-100555795D01*
X136248226Y-100669063D01*
X136104063Y-100813226D01*
X135990795Y-100982744D01*
X135912774Y-101171102D01*
X135890000Y-101285596D01*
X135890000Y-100228061D01*
X140062000Y-100228061D01*
X140062000Y-100431939D01*
X140101774Y-100631898D01*
X140179795Y-100820256D01*
X140293063Y-100989774D01*
X140395289Y-101092000D01*
X140293063Y-101194226D01*
X140179795Y-101363744D01*
X140101774Y-101552102D01*
X140062000Y-101752061D01*
X140062000Y-101955939D01*
X140101774Y-102155898D01*
X140179795Y-102344256D01*
X140293063Y-102513774D01*
X140395289Y-102616000D01*
X140293063Y-102718226D01*
X140179795Y-102887744D01*
X140101774Y-103076102D01*
X140062000Y-103276061D01*
X140062000Y-103479939D01*
X140101774Y-103679898D01*
X140179795Y-103868256D01*
X140293063Y-104037774D01*
X140437226Y-104181937D01*
X140606744Y-104295205D01*
X140795102Y-104373226D01*
X140995061Y-104413000D01*
X141198939Y-104413000D01*
X141398898Y-104373226D01*
X141587256Y-104295205D01*
X141756774Y-104181937D01*
X141900937Y-104037774D01*
X142014205Y-103868256D01*
X142092226Y-103679898D01*
X142132000Y-103479939D01*
X142132000Y-103276061D01*
X142092226Y-103076102D01*
X142014205Y-102887744D01*
X141900937Y-102718226D01*
X141798711Y-102616000D01*
X141900937Y-102513774D01*
X142014205Y-102344256D01*
X142092226Y-102155898D01*
X142132000Y-101955939D01*
X142132000Y-101752061D01*
X142092226Y-101552102D01*
X142014205Y-101363744D01*
X141900937Y-101194226D01*
X141798711Y-101092000D01*
X141900937Y-100989774D01*
X142014205Y-100820256D01*
X142092226Y-100631898D01*
X142132000Y-100431939D01*
X142132000Y-100228061D01*
X142092226Y-100028102D01*
X142014205Y-99839744D01*
X141900937Y-99670226D01*
X141756774Y-99526063D01*
X141587256Y-99412795D01*
X141398898Y-99334774D01*
X141198939Y-99295000D01*
X140995061Y-99295000D01*
X140795102Y-99334774D01*
X140606744Y-99412795D01*
X140437226Y-99526063D01*
X140293063Y-99670226D01*
X140179795Y-99839744D01*
X140101774Y-100028102D01*
X140062000Y-100228061D01*
X135890000Y-100228061D01*
X135890000Y-93359015D01*
X136064898Y-93324226D01*
X136253256Y-93246205D01*
X136422774Y-93132937D01*
X136566937Y-92988774D01*
X136680205Y-92819256D01*
X136758226Y-92630898D01*
X136798000Y-92430939D01*
X136798000Y-92227061D01*
X136758226Y-92027102D01*
X136680205Y-91838744D01*
X136583490Y-91694000D01*
X136680205Y-91549256D01*
X136758226Y-91360898D01*
X136798000Y-91160939D01*
X136798000Y-90957061D01*
X136758226Y-90757102D01*
X136680205Y-90568744D01*
X136566937Y-90399226D01*
X136422774Y-90255063D01*
X136253256Y-90141795D01*
X136064898Y-90063774D01*
X135890000Y-90028985D01*
X135890000Y-89678349D01*
X136041774Y-89576937D01*
X136185937Y-89432774D01*
X136299205Y-89263256D01*
X136377226Y-89074898D01*
X136417000Y-88874939D01*
X136417000Y-88671061D01*
X136377226Y-88471102D01*
X136299205Y-88282744D01*
X136287349Y-88265000D01*
X140010541Y-88265000D01*
X140106061Y-88284000D01*
X140309939Y-88284000D01*
X140405459Y-88265000D01*
X143637000Y-88265000D01*
X143661776Y-88262560D01*
X143685601Y-88255333D01*
X143707557Y-88243597D01*
X143726803Y-88227803D01*
X143742597Y-88208557D01*
X143754333Y-88186601D01*
X143761560Y-88162776D01*
X143763987Y-88139789D01*
X143889223Y-79248000D01*
X145644532Y-79248000D01*
X145686744Y-79276205D01*
G37*
%TD.AperFunction*%
%TD*%
M02*
