%TF.GenerationSoftware,KiCad,Pcbnew,(5.1.9)-1*%
%TF.CreationDate,2021-11-30T23:52:57-06:00*%
%TF.ProjectId,Discrete_Channel,44697363-7265-4746-955f-4368616e6e65,rev?*%
%TF.SameCoordinates,Original*%
%TF.FileFunction,Copper,L3,Inr*%
%TF.FilePolarity,Positive*%
%FSLAX46Y46*%
G04 Gerber Fmt 4.6, Leading zero omitted, Abs format (unit mm)*
G04 Created by KiCad (PCBNEW (5.1.9)-1) date 2021-11-30 23:52:57*
%MOMM*%
%LPD*%
G01*
G04 APERTURE LIST*
%TA.AperFunction,NonConductor*%
%ADD10C,0.150000*%
%TD*%
%TA.AperFunction,ComponentPad*%
%ADD11C,2.400000*%
%TD*%
%TA.AperFunction,ComponentPad*%
%ADD12R,2.400000X2.400000*%
%TD*%
%TA.AperFunction,ComponentPad*%
%ADD13R,1.700000X1.700000*%
%TD*%
%TA.AperFunction,ComponentPad*%
%ADD14O,1.700000X1.700000*%
%TD*%
%TA.AperFunction,ComponentPad*%
%ADD15R,1.600000X2.400000*%
%TD*%
%TA.AperFunction,ComponentPad*%
%ADD16O,1.600000X2.400000*%
%TD*%
%TA.AperFunction,ComponentPad*%
%ADD17C,10.160000*%
%TD*%
%TA.AperFunction,ViaPad*%
%ADD18C,0.800000*%
%TD*%
%TA.AperFunction,Conductor*%
%ADD19C,0.250000*%
%TD*%
%TA.AperFunction,Conductor*%
%ADD20C,0.500000*%
%TD*%
%TA.AperFunction,Conductor*%
%ADD21C,0.254000*%
%TD*%
%TA.AperFunction,Conductor*%
%ADD22C,0.100000*%
%TD*%
G04 APERTURE END LIST*
D10*
X145287953Y-92202157D02*
G75*
G02*
X145288001Y-93217999I1651047J-507843D01*
G01*
D11*
%TO.N,/FB_B*%
%TO.C,C21*%
X119439000Y-71628000D03*
%TO.N,Net-(C21-Pad1)*%
X146939000Y-71628000D03*
%TD*%
%TO.N,Net-(C20-Pad1)*%
%TO.C,C20*%
X146939000Y-92710000D03*
%TO.N,/FB_A*%
X119439000Y-92710000D03*
%TD*%
D12*
%TO.N,/PVDD*%
%TO.C,C1*%
X147828000Y-107569000D03*
D11*
%TO.N,GND*%
X152828000Y-107569000D03*
%TD*%
%TO.N,GND*%
%TO.C,C2*%
X166798000Y-107569000D03*
D12*
%TO.N,/PVDD*%
X161798000Y-107569000D03*
%TD*%
%TO.N,/+12V*%
%TO.C,C17*%
X118618000Y-107569000D03*
D11*
%TO.N,GND*%
X123618000Y-107569000D03*
%TD*%
D13*
%TO.N,/OSC_IOM*%
%TO.C,J1*%
X133858000Y-65151000D03*
D14*
%TO.N,/OSC_IOP*%
X136398000Y-65151000D03*
%TO.N,/~RESET*%
X138938000Y-65151000D03*
%TO.N,/~FAULT*%
X141478000Y-65151000D03*
%TO.N,/~ERROR*%
X144018000Y-65151000D03*
%TD*%
%TO.N,/IN_A*%
%TO.C,J3*%
X115189000Y-84328000D03*
%TO.N,/IN_B*%
X115189000Y-81788000D03*
%TO.N,VEE*%
X115189000Y-79248000D03*
%TO.N,GNDA*%
X115189000Y-76708000D03*
D13*
%TO.N,VCC*%
X115189000Y-74168000D03*
%TD*%
%TO.N,GND*%
%TO.C,J2*%
X128778000Y-110744000D03*
D14*
%TO.N,/+12V*%
X131318000Y-110744000D03*
X133858000Y-110744000D03*
%TO.N,/PVDD*%
X136398000Y-110744000D03*
X138938000Y-110744000D03*
%TO.N,GND*%
X141478000Y-110744000D03*
%TD*%
D15*
%TO.N,/FB_A*%
%TO.C,U2*%
X119888000Y-87122000D03*
D16*
%TO.N,GNDA*%
X127508000Y-79502000D03*
%TO.N,Net-(C19-Pad1)*%
X122428000Y-87122000D03*
%TO.N,Net-(C18-Pad1)*%
X124968000Y-79502000D03*
%TO.N,GNDA*%
X124968000Y-87122000D03*
%TO.N,/FB_B*%
X122428000Y-79502000D03*
%TO.N,VEE*%
X127508000Y-87122000D03*
%TO.N,VCC*%
X119888000Y-79502000D03*
%TD*%
D17*
%TO.N,/SPEAKER+*%
%TO.C,J4*%
X183769000Y-69723000D03*
%TO.N,/SPEAKER-*%
X183769000Y-99693000D03*
%TO.N,GND*%
X183769000Y-84713000D03*
%TD*%
D18*
%TO.N,*%
X114427000Y-96012000D03*
X115443000Y-96012000D03*
X116459000Y-96012000D03*
X117475000Y-96012000D03*
X118491000Y-96012000D03*
X119507000Y-96012000D03*
X120523000Y-96012000D03*
X121539000Y-96012000D03*
X123571000Y-96012000D03*
X124587000Y-96012000D03*
X125603000Y-96012000D03*
X126619000Y-96012000D03*
X127635000Y-96012000D03*
X128905000Y-96012000D03*
X130175000Y-96012000D03*
X130175000Y-94488000D03*
X130175000Y-93472000D03*
X130175000Y-92456000D03*
X130175000Y-90424000D03*
X130175000Y-91440000D03*
X130175000Y-89408000D03*
X130175000Y-88392000D03*
X130175000Y-87376000D03*
X130175000Y-86360000D03*
X130175000Y-85344000D03*
X130175000Y-84328000D03*
X130175000Y-83312000D03*
X130175000Y-82296000D03*
X130175000Y-81280000D03*
X130175000Y-80264000D03*
X130175000Y-79248000D03*
X130175000Y-78232000D03*
X130175000Y-76200000D03*
X130175000Y-75184000D03*
X130175000Y-74168000D03*
X130175000Y-73152000D03*
X130175000Y-72136000D03*
X130175000Y-71120000D03*
X130175000Y-69850000D03*
X129159000Y-68834000D03*
X127889000Y-68834000D03*
X126873000Y-68834000D03*
X125857000Y-68834000D03*
X124841000Y-68834000D03*
X123825000Y-68834000D03*
X122809000Y-68834000D03*
X119761000Y-68834000D03*
X118745000Y-68834000D03*
X117729000Y-68834000D03*
X116713000Y-68834000D03*
X115697000Y-68834000D03*
X114681000Y-68834000D03*
X130175000Y-68834000D03*
X120777000Y-68834000D03*
%TO.N,Net-(C6-Pad2)*%
X136908000Y-101473000D03*
X136908000Y-103505000D03*
%TO.N,/OUT_B*%
X156210000Y-78867000D03*
%TO.N,/PVDD*%
X144526000Y-80264000D03*
%TO.N,GND*%
X138938000Y-82169000D03*
%TO.N,/PVDD*%
X148209000Y-79375000D03*
X147193000Y-80391000D03*
X148209000Y-80391000D03*
X146177000Y-80391000D03*
X147193000Y-79375000D03*
X148209000Y-84836000D03*
X146177000Y-84836000D03*
X148209000Y-83820000D03*
X147193000Y-84836000D03*
X147193000Y-83820000D03*
%TO.N,GND*%
X140208000Y-77089000D03*
X141478000Y-75819000D03*
X142748000Y-74549000D03*
X140208000Y-87249000D03*
X142748000Y-77089000D03*
X142748000Y-79629000D03*
X142748000Y-82169000D03*
X142748000Y-84709000D03*
X140208000Y-84709000D03*
X140208000Y-82169000D03*
X140208000Y-79629000D03*
X141478000Y-78359000D03*
X141478000Y-80899000D03*
X141478000Y-83439000D03*
X141478000Y-85979000D03*
X138938000Y-85979000D03*
X138938000Y-83439000D03*
X138938000Y-80899000D03*
X138938000Y-78359000D03*
X167894000Y-85217000D03*
X171958000Y-83693000D03*
X169926000Y-85217000D03*
X169926000Y-83693000D03*
X171958000Y-85217000D03*
X172974000Y-84455000D03*
X173990000Y-83693000D03*
X173990000Y-85217000D03*
X168910000Y-84455000D03*
X167894000Y-83693000D03*
X170942000Y-84455000D03*
X167894000Y-75819000D03*
X169926000Y-75819000D03*
X171958000Y-75819000D03*
X173990000Y-75819000D03*
X171958000Y-77343000D03*
X169926000Y-77343000D03*
X172974000Y-76581000D03*
X170942000Y-76581000D03*
X168910000Y-76581000D03*
X167894000Y-77343000D03*
X173990000Y-77343000D03*
X140208000Y-80899000D03*
X138938000Y-79629000D03*
X141478000Y-79629000D03*
X140208000Y-78359000D03*
X142748000Y-78359000D03*
X142748000Y-80899000D03*
X141478000Y-82169000D03*
X140208000Y-83439000D03*
X142748000Y-83439000D03*
X138938000Y-84709000D03*
X141478000Y-84709000D03*
X140208000Y-85979000D03*
X132588000Y-77216000D03*
%TO.N,Net-(C6-Pad2)*%
X135763000Y-91059000D03*
X135763000Y-92329000D03*
X136908000Y-102487000D03*
%TO.N,Net-(C8-Pad2)*%
X135382000Y-74168000D03*
X135382000Y-73025000D03*
%TO.N,Net-(C9-Pad1)*%
X135572500Y-79946500D03*
X134747000Y-80518000D03*
%TO.N,VCC*%
X120269000Y-77724000D03*
X120269000Y-76581000D03*
X120269000Y-75438000D03*
X120269000Y-74295000D03*
%TO.N,Net-(C14-Pad2)*%
X141097000Y-101854000D03*
X141097000Y-100330000D03*
X141097000Y-103378000D03*
X135382000Y-88773000D03*
X134756524Y-89671524D03*
%TO.N,Net-(C15-Pad2)*%
X135483600Y-76581000D03*
X134610000Y-75565000D03*
%TO.N,Net-(C16-Pad2)*%
X135763000Y-80899000D03*
X135128000Y-81534000D03*
%TO.N,/+12V*%
X130937000Y-101092000D03*
X130937000Y-100076000D03*
X131953000Y-100076000D03*
X131953000Y-101092000D03*
X131953000Y-102108000D03*
X132524500Y-70294500D03*
X132524500Y-69278500D03*
X132524500Y-71374000D03*
X131762500Y-69786500D03*
X131762500Y-70866000D03*
X130937000Y-103124000D03*
X130937000Y-104140000D03*
X131953000Y-104140000D03*
X131953000Y-103124000D03*
X131002000Y-102173000D03*
%TO.N,/FB_A*%
X122809000Y-67077500D03*
X124857000Y-67056000D03*
X123825000Y-67056000D03*
%TO.N,/FB_B*%
X121809000Y-97790000D03*
X120777000Y-97790000D03*
X119761000Y-97768500D03*
%TO.N,Net-(C19-Pad1)*%
X121941500Y-90043000D03*
X114824000Y-90043000D03*
X114824000Y-87503000D03*
%TO.N,Net-(C20-Pad1)*%
X134874279Y-86869957D03*
%TO.N,Net-(C21-Pad1)*%
X133858000Y-85979000D03*
%TO.N,/OUT_A*%
X158877000Y-88519000D03*
X157607000Y-88519000D03*
X156337000Y-88519000D03*
X155702000Y-87757000D03*
X159512000Y-87757000D03*
X158242000Y-87757000D03*
X156972000Y-87757000D03*
X148209000Y-86868000D03*
X155702000Y-89281000D03*
X146177000Y-86868000D03*
X156972000Y-89281000D03*
X159512000Y-89281000D03*
X147193000Y-85852000D03*
X146177000Y-85852000D03*
X147193000Y-86868000D03*
X148209000Y-85852000D03*
X158242000Y-89281000D03*
%TO.N,/OUT_B*%
X150241000Y-82804000D03*
X158877000Y-78867000D03*
X156083000Y-80391000D03*
X157607000Y-80391000D03*
X159004000Y-80391000D03*
X157607000Y-78867000D03*
X159512000Y-79629000D03*
X158242000Y-79629000D03*
X156845000Y-79629000D03*
X155448000Y-79629000D03*
X147193000Y-82804000D03*
X148209000Y-82804000D03*
X149225000Y-82804000D03*
X146177000Y-82804000D03*
%TO.N,Net-(C23-Pad1)*%
X148336000Y-88138000D03*
X147193000Y-88138000D03*
X146177000Y-88138000D03*
%TO.N,Net-(C25-Pad1)*%
X145923000Y-75428500D03*
X147193000Y-75428500D03*
X148082000Y-75428500D03*
%TO.N,/OUT_D*%
X159004000Y-75565000D03*
X157734000Y-75565000D03*
X156464000Y-75565000D03*
X147193000Y-78359000D03*
X146177000Y-78359000D03*
X156972000Y-74803000D03*
X158242000Y-74803000D03*
X159512000Y-74803000D03*
X156972000Y-76327000D03*
X158242000Y-76327000D03*
X159512000Y-76327000D03*
X155702000Y-74803000D03*
X155702000Y-76327000D03*
X148209000Y-77343000D03*
X147193000Y-77343000D03*
X146177000Y-77343000D03*
%TO.N,/SPEAKER+*%
X168910000Y-65151000D03*
X172720000Y-66675000D03*
X170180000Y-65151000D03*
X171450000Y-65151000D03*
X170180000Y-66675000D03*
X172720000Y-65151000D03*
X171450000Y-66675000D03*
X168910000Y-66675000D03*
X172212000Y-65913000D03*
X169672000Y-65913000D03*
X170942000Y-65913000D03*
X159512000Y-70231000D03*
X156972000Y-68707000D03*
X158242000Y-68707000D03*
X156972000Y-70231000D03*
X159512000Y-68707000D03*
X158242000Y-70231000D03*
X155702000Y-70231000D03*
X159004000Y-69469000D03*
X156464000Y-69469000D03*
X157734000Y-69469000D03*
X126857000Y-67056000D03*
%TO.N,/SPEAKER-*%
X168910000Y-94361000D03*
X172720000Y-95885000D03*
X170180000Y-94361000D03*
X171450000Y-94361000D03*
X170180000Y-95885000D03*
X172720000Y-94361000D03*
X171450000Y-95885000D03*
X168910000Y-95885000D03*
X172212000Y-95123000D03*
X169672000Y-95123000D03*
X170942000Y-95123000D03*
X155702000Y-93853000D03*
X159512000Y-95377000D03*
X158242000Y-93853000D03*
X156972000Y-95377000D03*
X159512000Y-93853000D03*
X158242000Y-95377000D03*
X159004000Y-94615000D03*
X156464000Y-94615000D03*
X157734000Y-94615000D03*
X123809000Y-97790000D03*
X123846500Y-99822000D03*
%TO.N,/OSC_IOP*%
X135763000Y-83185000D03*
%TO.N,/OSC_IOM*%
X134747000Y-83185000D03*
%TO.N,GNDA*%
X114173000Y-69850000D03*
X115189000Y-69850000D03*
X116205000Y-69850000D03*
X117221000Y-69850000D03*
X118237000Y-69850000D03*
X120269000Y-69850000D03*
X123317000Y-69850000D03*
X124333000Y-69850000D03*
X125349000Y-69850000D03*
X126365000Y-69850000D03*
X127381000Y-69850000D03*
X128397000Y-69850000D03*
X129159000Y-70612000D03*
X129159000Y-71628000D03*
X129159000Y-72644000D03*
X129159000Y-73660000D03*
X129159000Y-74676000D03*
X129159000Y-75692000D03*
X129159000Y-78740000D03*
X129159000Y-79756000D03*
X129159000Y-80772000D03*
X129159000Y-81788000D03*
X129159000Y-82804000D03*
X129159000Y-83820000D03*
X129159000Y-84836000D03*
X129159000Y-85852000D03*
X129159000Y-86868000D03*
X129159000Y-87884000D03*
X129159000Y-88900000D03*
X129159000Y-89916000D03*
X129159000Y-90932000D03*
X129159000Y-91948000D03*
X129159000Y-92964000D03*
X129159000Y-93980000D03*
X129159000Y-94996000D03*
X128143000Y-94996000D03*
X127127000Y-94996000D03*
X126111000Y-94996000D03*
X125095000Y-94996000D03*
X124079000Y-94996000D03*
X122047000Y-94996000D03*
X121031000Y-94996000D03*
X120015000Y-94996000D03*
X118999000Y-94996000D03*
X117983000Y-94996000D03*
X116967000Y-94996000D03*
X115951000Y-94996000D03*
X114935000Y-94996000D03*
X129159000Y-76708000D03*
X115951000Y-99822000D03*
X118745000Y-65024000D03*
X118364000Y-75780500D03*
X117436500Y-76708000D03*
X125581500Y-92583000D03*
X124968000Y-90297000D03*
%TO.N,Net-(R4-Pad2)*%
X133858000Y-84836000D03*
%TO.N,Net-(JP1-Pad2)*%
X133447000Y-83723000D03*
%TD*%
D19*
%TO.N,*%
X122809000Y-68834000D02*
X130175000Y-68834000D01*
X114681000Y-68834000D02*
X120777000Y-68834000D01*
X130175000Y-95053002D02*
X130175000Y-96012000D01*
X130175000Y-68834000D02*
X130175000Y-95053002D01*
X130175000Y-96012000D02*
X123571000Y-96012000D01*
X121539000Y-96012000D02*
X114427000Y-96012000D01*
D20*
%TO.N,Net-(C6-Pad2)*%
X136908000Y-102487000D02*
X136908000Y-103505000D01*
X136908000Y-101473000D02*
X136908000Y-102487000D01*
X135765000Y-100330000D02*
X135763000Y-100330000D01*
X136908000Y-101473000D02*
X135765000Y-100330000D01*
X135763000Y-91059000D02*
X135763000Y-92329000D01*
X135763000Y-92329000D02*
X135763000Y-100330000D01*
%TO.N,Net-(C14-Pad2)*%
X141097000Y-100330000D02*
X141097000Y-103378000D01*
X137025914Y-99179914D02*
X139700000Y-101854000D01*
X139700000Y-101854000D02*
X141097000Y-101854000D01*
X134756524Y-89398476D02*
X135382000Y-88773000D01*
X134756524Y-89671524D02*
X134756524Y-89398476D01*
X135382000Y-88773000D02*
X136525000Y-88773000D01*
X137025914Y-89273914D02*
X137025914Y-90558086D01*
X136525000Y-88773000D02*
X137025914Y-89273914D01*
X137025914Y-90558086D02*
X137025914Y-99179914D01*
%TO.N,/FB_A*%
X122830500Y-67056000D02*
X122809000Y-67077500D01*
X124857000Y-67056000D02*
X122830500Y-67056000D01*
X121177990Y-85832010D02*
X119888000Y-87122000D01*
X122809000Y-67077500D02*
X121958999Y-67927501D01*
X121177990Y-79267990D02*
X121177990Y-72370010D01*
X121177990Y-72370010D02*
X121958999Y-71589001D01*
X121958999Y-67927501D02*
X121958999Y-71589001D01*
X121177990Y-78466010D02*
X121177990Y-79267990D01*
X121177990Y-79267990D02*
X121177990Y-85832010D01*
%TO.N,/FB_B*%
X122428000Y-79502000D02*
X123678010Y-80752010D01*
X123678010Y-93872990D02*
X123444000Y-94107000D01*
X122720999Y-96878001D02*
X121809000Y-97790000D01*
X122720999Y-95603999D02*
X122720999Y-96878001D01*
X123162999Y-95161999D02*
X122720999Y-95603999D01*
X123162999Y-94094021D02*
X123162999Y-95161999D01*
X123678010Y-93579010D02*
X123162999Y-94094021D01*
X123678010Y-80752010D02*
X123678010Y-93579010D01*
X123678010Y-93579010D02*
X123678010Y-93872990D01*
X119782500Y-97790000D02*
X119761000Y-97768500D01*
X121809000Y-97790000D02*
X119782500Y-97790000D01*
%TO.N,Net-(C19-Pad1)*%
X121941500Y-90043000D02*
X114824000Y-90043000D01*
X122428000Y-89556500D02*
X121941500Y-90043000D01*
X122428000Y-87122000D02*
X122428000Y-89556500D01*
%TO.N,Net-(C20-Pad1)*%
X146939000Y-92710000D02*
X139319000Y-92710000D01*
X139319000Y-92710000D02*
X138176000Y-91567000D01*
X138176000Y-91567000D02*
X138176000Y-87376000D01*
X138176000Y-87376000D02*
X137033000Y-86233000D01*
X135511236Y-86233000D02*
X134874279Y-86869957D01*
X137033000Y-86233000D02*
X135511236Y-86233000D01*
%TO.N,Net-(C21-Pad1)*%
X140081000Y-71628000D02*
X146939000Y-71628000D01*
X136652000Y-75057000D02*
X140081000Y-71628000D01*
X133858000Y-85979000D02*
X134674918Y-85979000D01*
X135790459Y-84863459D02*
X136652000Y-84001918D01*
X136652000Y-83185000D02*
X136652000Y-75057000D01*
X134674918Y-85979000D02*
X135790459Y-84863459D01*
X136652000Y-84001918D02*
X136652000Y-83185000D01*
D19*
%TO.N,/OUT_A*%
X159512000Y-87757000D02*
X159512000Y-89281000D01*
X159512000Y-89281000D02*
X155702000Y-89281000D01*
D20*
%TO.N,/SPEAKER+*%
X159004000Y-69469000D02*
X156464000Y-69469000D01*
X126984000Y-67183000D02*
X126857000Y-67056000D01*
X153162000Y-67183000D02*
X155829000Y-67183000D01*
X153162000Y-67183000D02*
X126984000Y-67183000D01*
%TO.N,/SPEAKER-*%
X156972000Y-95377000D02*
X153797000Y-95377000D01*
X153797000Y-95377000D02*
X143002000Y-106172000D01*
X143002000Y-106172000D02*
X128270000Y-106172000D01*
X123809000Y-101711000D02*
X123809000Y-97790000D01*
X128270000Y-106172000D02*
X123809000Y-101711000D01*
D19*
%TO.N,GNDA*%
X114015010Y-94996000D02*
X122047000Y-94996000D01*
D20*
X114935000Y-94996000D02*
X122047000Y-94996000D01*
X124079000Y-94996000D02*
X129159000Y-94996000D01*
X129159000Y-94996000D02*
X129159000Y-69850000D01*
X129159000Y-69850000D02*
X123317000Y-69850000D01*
X121158000Y-69850000D02*
X114173000Y-69850000D01*
%TD*%
D21*
%TO.N,/SPEAKER+*%
X189103000Y-74930000D02*
X178360606Y-74930000D01*
X173063803Y-69633197D01*
X173044557Y-69617403D01*
X173022601Y-69605667D01*
X172998776Y-69598440D01*
X172974000Y-69596000D01*
X161671000Y-69596000D01*
X161646224Y-69598440D01*
X161622399Y-69605667D01*
X161600443Y-69617403D01*
X161581197Y-69633197D01*
X160348394Y-70866000D01*
X154940000Y-70866000D01*
X154940000Y-64262000D01*
X189103000Y-64262000D01*
X189103000Y-74930000D01*
%TA.AperFunction,Conductor*%
D22*
G36*
X189103000Y-74930000D02*
G01*
X178360606Y-74930000D01*
X173063803Y-69633197D01*
X173044557Y-69617403D01*
X173022601Y-69605667D01*
X172998776Y-69598440D01*
X172974000Y-69596000D01*
X161671000Y-69596000D01*
X161646224Y-69598440D01*
X161622399Y-69605667D01*
X161600443Y-69617403D01*
X161581197Y-69633197D01*
X160348394Y-70866000D01*
X154940000Y-70866000D01*
X154940000Y-64262000D01*
X189103000Y-64262000D01*
X189103000Y-74930000D01*
G37*
%TD.AperFunction*%
%TD*%
D21*
%TO.N,/SPEAKER-*%
X189103000Y-104775000D02*
X178562000Y-104775000D01*
X178562000Y-99822000D01*
X178559560Y-99797224D01*
X178552333Y-99773399D01*
X178540597Y-99751443D01*
X178524803Y-99732197D01*
X178505557Y-99716403D01*
X178483601Y-99704667D01*
X178459776Y-99697440D01*
X178435000Y-99695000D01*
X154940000Y-99695000D01*
X154940000Y-93218000D01*
X189103000Y-93218000D01*
X189103000Y-104775000D01*
%TA.AperFunction,Conductor*%
D22*
G36*
X189103000Y-104775000D02*
G01*
X178562000Y-104775000D01*
X178562000Y-99822000D01*
X178559560Y-99797224D01*
X178552333Y-99773399D01*
X178540597Y-99751443D01*
X178524803Y-99732197D01*
X178505557Y-99716403D01*
X178483601Y-99704667D01*
X178459776Y-99697440D01*
X178435000Y-99695000D01*
X154940000Y-99695000D01*
X154940000Y-93218000D01*
X189103000Y-93218000D01*
X189103000Y-104775000D01*
G37*
%TD.AperFunction*%
%TD*%
D21*
%TO.N,GND*%
X177964197Y-78956803D02*
X177983443Y-78972597D01*
X178005399Y-78984333D01*
X178029224Y-78991560D01*
X178054000Y-78994000D01*
X189230000Y-78994000D01*
X189230000Y-90170000D01*
X178689000Y-90170000D01*
X178689000Y-85852000D01*
X178686560Y-85827224D01*
X178679333Y-85803399D01*
X178667597Y-85781443D01*
X178651803Y-85762197D01*
X178632557Y-85746403D01*
X178610601Y-85734667D01*
X178586776Y-85727440D01*
X178562000Y-85725000D01*
X167259000Y-85725000D01*
X167259000Y-75311000D01*
X174318394Y-75311000D01*
X177964197Y-78956803D01*
%TA.AperFunction,Conductor*%
D22*
G36*
X177964197Y-78956803D02*
G01*
X177983443Y-78972597D01*
X178005399Y-78984333D01*
X178029224Y-78991560D01*
X178054000Y-78994000D01*
X189230000Y-78994000D01*
X189230000Y-90170000D01*
X178689000Y-90170000D01*
X178689000Y-85852000D01*
X178686560Y-85827224D01*
X178679333Y-85803399D01*
X178667597Y-85781443D01*
X178651803Y-85762197D01*
X178632557Y-85746403D01*
X178610601Y-85734667D01*
X178586776Y-85727440D01*
X178562000Y-85725000D01*
X167259000Y-85725000D01*
X167259000Y-75311000D01*
X174318394Y-75311000D01*
X177964197Y-78956803D01*
G37*
%TD.AperFunction*%
%TD*%
D21*
%TO.N,/OUT_D*%
X160020000Y-76581000D02*
X151003000Y-76581000D01*
X150978224Y-76583440D01*
X150954399Y-76590667D01*
X150932443Y-76602403D01*
X150913197Y-76618197D01*
X149045394Y-78486000D01*
X148741468Y-78486000D01*
X148699256Y-78457795D01*
X148510898Y-78379774D01*
X148310939Y-78340000D01*
X148107061Y-78340000D01*
X147907102Y-78379774D01*
X147718744Y-78457795D01*
X147701000Y-78469651D01*
X147683256Y-78457795D01*
X147494898Y-78379774D01*
X147294939Y-78340000D01*
X147091061Y-78340000D01*
X146891102Y-78379774D01*
X146702744Y-78457795D01*
X146660532Y-78486000D01*
X145923000Y-78486000D01*
X145923000Y-77089000D01*
X148463000Y-77089000D01*
X148487776Y-77086560D01*
X148511601Y-77079333D01*
X148533557Y-77067597D01*
X148552803Y-77051803D01*
X151055606Y-74549000D01*
X160020000Y-74549000D01*
X160020000Y-76581000D01*
%TA.AperFunction,Conductor*%
D22*
G36*
X160020000Y-76581000D02*
G01*
X151003000Y-76581000D01*
X150978224Y-76583440D01*
X150954399Y-76590667D01*
X150932443Y-76602403D01*
X150913197Y-76618197D01*
X149045394Y-78486000D01*
X148741468Y-78486000D01*
X148699256Y-78457795D01*
X148510898Y-78379774D01*
X148310939Y-78340000D01*
X148107061Y-78340000D01*
X147907102Y-78379774D01*
X147718744Y-78457795D01*
X147701000Y-78469651D01*
X147683256Y-78457795D01*
X147494898Y-78379774D01*
X147294939Y-78340000D01*
X147091061Y-78340000D01*
X146891102Y-78379774D01*
X146702744Y-78457795D01*
X146660532Y-78486000D01*
X145923000Y-78486000D01*
X145923000Y-77089000D01*
X148463000Y-77089000D01*
X148487776Y-77086560D01*
X148511601Y-77079333D01*
X148533557Y-77067597D01*
X148552803Y-77051803D01*
X151055606Y-74549000D01*
X160020000Y-74549000D01*
X160020000Y-76581000D01*
G37*
%TD.AperFunction*%
%TD*%
D21*
%TO.N,/OUT_B*%
X159766000Y-80645000D02*
X154940000Y-80645000D01*
X154915224Y-80647440D01*
X154891399Y-80654667D01*
X154869443Y-80666403D01*
X154850197Y-80682197D01*
X152475410Y-83056984D01*
X148824953Y-82986783D01*
X148699256Y-82902795D01*
X148510898Y-82824774D01*
X148310939Y-82785000D01*
X148107061Y-82785000D01*
X147907102Y-82824774D01*
X147718744Y-82902795D01*
X147701000Y-82914651D01*
X147683256Y-82902795D01*
X147494898Y-82824774D01*
X147294939Y-82785000D01*
X147091061Y-82785000D01*
X146891102Y-82824774D01*
X146702744Y-82902795D01*
X146639934Y-82944763D01*
X146050000Y-82933418D01*
X146050000Y-82042000D01*
X149225000Y-82042000D01*
X149249776Y-82039560D01*
X149273601Y-82032333D01*
X149295557Y-82020597D01*
X149314803Y-82004803D01*
X152706606Y-78613000D01*
X159766000Y-78613000D01*
X159766000Y-80645000D01*
%TA.AperFunction,Conductor*%
D22*
G36*
X159766000Y-80645000D02*
G01*
X154940000Y-80645000D01*
X154915224Y-80647440D01*
X154891399Y-80654667D01*
X154869443Y-80666403D01*
X154850197Y-80682197D01*
X152475410Y-83056984D01*
X148824953Y-82986783D01*
X148699256Y-82902795D01*
X148510898Y-82824774D01*
X148310939Y-82785000D01*
X148107061Y-82785000D01*
X147907102Y-82824774D01*
X147718744Y-82902795D01*
X147701000Y-82914651D01*
X147683256Y-82902795D01*
X147494898Y-82824774D01*
X147294939Y-82785000D01*
X147091061Y-82785000D01*
X146891102Y-82824774D01*
X146702744Y-82902795D01*
X146639934Y-82944763D01*
X146050000Y-82933418D01*
X146050000Y-82042000D01*
X149225000Y-82042000D01*
X149249776Y-82039560D01*
X149273601Y-82032333D01*
X149295557Y-82020597D01*
X149314803Y-82004803D01*
X152706606Y-78613000D01*
X159766000Y-78613000D01*
X159766000Y-80645000D01*
G37*
%TD.AperFunction*%
%TD*%
D21*
%TO.N,/OUT_A*%
X154850197Y-87211803D02*
X154869443Y-87227597D01*
X154891399Y-87239333D01*
X154915224Y-87246560D01*
X154940000Y-87249000D01*
X160147000Y-87249000D01*
X160147000Y-89789000D01*
X154992606Y-89789000D01*
X152235803Y-87032197D01*
X152216557Y-87016403D01*
X152194601Y-87004667D01*
X152170776Y-86997440D01*
X152146000Y-86995000D01*
X146050000Y-86995000D01*
X146050000Y-85866015D01*
X146075061Y-85871000D01*
X146278939Y-85871000D01*
X146478898Y-85831226D01*
X146667256Y-85753205D01*
X146685000Y-85741349D01*
X146702744Y-85753205D01*
X146891102Y-85831226D01*
X147091061Y-85871000D01*
X147294939Y-85871000D01*
X147494898Y-85831226D01*
X147683256Y-85753205D01*
X147701000Y-85741349D01*
X147718744Y-85753205D01*
X147907102Y-85831226D01*
X148107061Y-85871000D01*
X148310939Y-85871000D01*
X148510898Y-85831226D01*
X148699256Y-85753205D01*
X148741468Y-85725000D01*
X153363394Y-85725000D01*
X154850197Y-87211803D01*
%TA.AperFunction,Conductor*%
D22*
G36*
X154850197Y-87211803D02*
G01*
X154869443Y-87227597D01*
X154891399Y-87239333D01*
X154915224Y-87246560D01*
X154940000Y-87249000D01*
X160147000Y-87249000D01*
X160147000Y-89789000D01*
X154992606Y-89789000D01*
X152235803Y-87032197D01*
X152216557Y-87016403D01*
X152194601Y-87004667D01*
X152170776Y-86997440D01*
X152146000Y-86995000D01*
X146050000Y-86995000D01*
X146050000Y-85866015D01*
X146075061Y-85871000D01*
X146278939Y-85871000D01*
X146478898Y-85831226D01*
X146667256Y-85753205D01*
X146685000Y-85741349D01*
X146702744Y-85753205D01*
X146891102Y-85831226D01*
X147091061Y-85871000D01*
X147294939Y-85871000D01*
X147494898Y-85831226D01*
X147683256Y-85753205D01*
X147701000Y-85741349D01*
X147718744Y-85753205D01*
X147907102Y-85831226D01*
X148107061Y-85871000D01*
X148310939Y-85871000D01*
X148510898Y-85831226D01*
X148699256Y-85753205D01*
X148741468Y-85725000D01*
X153363394Y-85725000D01*
X154850197Y-87211803D01*
G37*
%TD.AperFunction*%
%TD*%
D21*
%TO.N,/+12V*%
X133096000Y-76310651D02*
X133078256Y-76298795D01*
X132889898Y-76220774D01*
X132689939Y-76181000D01*
X132486061Y-76181000D01*
X132286102Y-76220774D01*
X132097744Y-76298795D01*
X131928226Y-76412063D01*
X131784063Y-76556226D01*
X131670795Y-76725744D01*
X131592774Y-76914102D01*
X131553000Y-77114061D01*
X131553000Y-77317939D01*
X131592774Y-77517898D01*
X131670795Y-77706256D01*
X131784063Y-77875774D01*
X131928226Y-78019937D01*
X132097744Y-78133205D01*
X132286102Y-78211226D01*
X132486061Y-78251000D01*
X132689939Y-78251000D01*
X132889898Y-78211226D01*
X133078256Y-78133205D01*
X133096000Y-78121349D01*
X133096000Y-82748113D01*
X132956744Y-82805795D01*
X132787226Y-82919063D01*
X132643063Y-83063226D01*
X132529795Y-83232744D01*
X132451774Y-83421102D01*
X132412000Y-83621061D01*
X132412000Y-83824939D01*
X132451774Y-84024898D01*
X132529795Y-84213256D01*
X132643063Y-84382774D01*
X132787226Y-84526937D01*
X132855169Y-84572335D01*
X132823000Y-84734061D01*
X132823000Y-84937939D01*
X132862774Y-85137898D01*
X132940795Y-85326256D01*
X132995080Y-85407500D01*
X132940795Y-85488744D01*
X132862774Y-85677102D01*
X132823000Y-85877061D01*
X132823000Y-86080939D01*
X132862774Y-86280898D01*
X132940795Y-86469256D01*
X133054063Y-86638774D01*
X133096000Y-86680711D01*
X133096000Y-104648000D01*
X130048000Y-104648000D01*
X130048000Y-99187000D01*
X130556000Y-99187000D01*
X130580776Y-99184560D01*
X130604601Y-99177333D01*
X130626557Y-99165597D01*
X130645803Y-99149803D01*
X130661597Y-99130557D01*
X130673333Y-99108601D01*
X130680560Y-99084776D01*
X130683000Y-99060000D01*
X130683000Y-96917349D01*
X130834774Y-96815937D01*
X130978937Y-96671774D01*
X131092205Y-96502256D01*
X131170226Y-96313898D01*
X131210000Y-96113939D01*
X131210000Y-95910061D01*
X131170226Y-95710102D01*
X131092205Y-95521744D01*
X130978937Y-95352226D01*
X130935000Y-95308289D01*
X130935000Y-95191711D01*
X130978937Y-95147774D01*
X131092205Y-94978256D01*
X131170226Y-94789898D01*
X131210000Y-94589939D01*
X131210000Y-94386061D01*
X131170226Y-94186102D01*
X131092205Y-93997744D01*
X131080349Y-93980000D01*
X131092205Y-93962256D01*
X131170226Y-93773898D01*
X131210000Y-93573939D01*
X131210000Y-93370061D01*
X131170226Y-93170102D01*
X131092205Y-92981744D01*
X131080349Y-92964000D01*
X131092205Y-92946256D01*
X131170226Y-92757898D01*
X131210000Y-92557939D01*
X131210000Y-92354061D01*
X131170226Y-92154102D01*
X131092205Y-91965744D01*
X131080349Y-91948000D01*
X131092205Y-91930256D01*
X131170226Y-91741898D01*
X131210000Y-91541939D01*
X131210000Y-91338061D01*
X131170226Y-91138102D01*
X131092205Y-90949744D01*
X131080349Y-90932000D01*
X131092205Y-90914256D01*
X131170226Y-90725898D01*
X131210000Y-90525939D01*
X131210000Y-90322061D01*
X131170226Y-90122102D01*
X131092205Y-89933744D01*
X131080349Y-89916000D01*
X131092205Y-89898256D01*
X131170226Y-89709898D01*
X131210000Y-89509939D01*
X131210000Y-89306061D01*
X131170226Y-89106102D01*
X131092205Y-88917744D01*
X131080349Y-88900000D01*
X131092205Y-88882256D01*
X131170226Y-88693898D01*
X131210000Y-88493939D01*
X131210000Y-88290061D01*
X131170226Y-88090102D01*
X131092205Y-87901744D01*
X131080349Y-87884000D01*
X131092205Y-87866256D01*
X131170226Y-87677898D01*
X131210000Y-87477939D01*
X131210000Y-87274061D01*
X131170226Y-87074102D01*
X131092205Y-86885744D01*
X131080349Y-86868000D01*
X131092205Y-86850256D01*
X131170226Y-86661898D01*
X131210000Y-86461939D01*
X131210000Y-86258061D01*
X131170226Y-86058102D01*
X131092205Y-85869744D01*
X131080349Y-85852000D01*
X131092205Y-85834256D01*
X131170226Y-85645898D01*
X131210000Y-85445939D01*
X131210000Y-85242061D01*
X131170226Y-85042102D01*
X131092205Y-84853744D01*
X131080349Y-84836000D01*
X131092205Y-84818256D01*
X131170226Y-84629898D01*
X131210000Y-84429939D01*
X131210000Y-84226061D01*
X131170226Y-84026102D01*
X131092205Y-83837744D01*
X131080349Y-83820000D01*
X131092205Y-83802256D01*
X131170226Y-83613898D01*
X131210000Y-83413939D01*
X131210000Y-83210061D01*
X131170226Y-83010102D01*
X131092205Y-82821744D01*
X131080349Y-82804000D01*
X131092205Y-82786256D01*
X131170226Y-82597898D01*
X131210000Y-82397939D01*
X131210000Y-82194061D01*
X131170226Y-81994102D01*
X131092205Y-81805744D01*
X131080349Y-81788000D01*
X131092205Y-81770256D01*
X131170226Y-81581898D01*
X131210000Y-81381939D01*
X131210000Y-81178061D01*
X131170226Y-80978102D01*
X131092205Y-80789744D01*
X131080349Y-80772000D01*
X131092205Y-80754256D01*
X131170226Y-80565898D01*
X131210000Y-80365939D01*
X131210000Y-80162061D01*
X131170226Y-79962102D01*
X131092205Y-79773744D01*
X131080349Y-79756000D01*
X131092205Y-79738256D01*
X131170226Y-79549898D01*
X131210000Y-79349939D01*
X131210000Y-79146061D01*
X131170226Y-78946102D01*
X131092205Y-78757744D01*
X131080349Y-78740000D01*
X131092205Y-78722256D01*
X131170226Y-78533898D01*
X131210000Y-78333939D01*
X131210000Y-78130061D01*
X131170226Y-77930102D01*
X131092205Y-77741744D01*
X130978937Y-77572226D01*
X130935000Y-77528289D01*
X130935000Y-76903711D01*
X130978937Y-76859774D01*
X131092205Y-76690256D01*
X131170226Y-76501898D01*
X131210000Y-76301939D01*
X131210000Y-76098061D01*
X131170226Y-75898102D01*
X131092205Y-75709744D01*
X131080349Y-75692000D01*
X131092205Y-75674256D01*
X131170226Y-75485898D01*
X131210000Y-75285939D01*
X131210000Y-75082061D01*
X131170226Y-74882102D01*
X131092205Y-74693744D01*
X131080349Y-74676000D01*
X131092205Y-74658256D01*
X131170226Y-74469898D01*
X131210000Y-74269939D01*
X131210000Y-74066061D01*
X131170226Y-73866102D01*
X131092205Y-73677744D01*
X131080349Y-73660000D01*
X131092205Y-73642256D01*
X131170226Y-73453898D01*
X131210000Y-73253939D01*
X131210000Y-73050061D01*
X131170226Y-72850102D01*
X131092205Y-72661744D01*
X131080349Y-72644000D01*
X131092205Y-72626256D01*
X131170226Y-72437898D01*
X131210000Y-72237939D01*
X131210000Y-72034061D01*
X131170226Y-71834102D01*
X131092205Y-71645744D01*
X131080349Y-71628000D01*
X131092205Y-71610256D01*
X131170226Y-71421898D01*
X131210000Y-71221939D01*
X131210000Y-71018061D01*
X131170226Y-70818102D01*
X131092205Y-70629744D01*
X130995490Y-70485000D01*
X131092205Y-70340256D01*
X131170226Y-70151898D01*
X131210000Y-69951939D01*
X131210000Y-69748061D01*
X131170226Y-69548102D01*
X131092205Y-69359744D01*
X131080349Y-69342000D01*
X131092205Y-69324256D01*
X131170226Y-69135898D01*
X131210000Y-68935939D01*
X131210000Y-68732061D01*
X131179753Y-68580000D01*
X133096000Y-68580000D01*
X133096000Y-76310651D01*
%TA.AperFunction,Conductor*%
D22*
G36*
X133096000Y-76310651D02*
G01*
X133078256Y-76298795D01*
X132889898Y-76220774D01*
X132689939Y-76181000D01*
X132486061Y-76181000D01*
X132286102Y-76220774D01*
X132097744Y-76298795D01*
X131928226Y-76412063D01*
X131784063Y-76556226D01*
X131670795Y-76725744D01*
X131592774Y-76914102D01*
X131553000Y-77114061D01*
X131553000Y-77317939D01*
X131592774Y-77517898D01*
X131670795Y-77706256D01*
X131784063Y-77875774D01*
X131928226Y-78019937D01*
X132097744Y-78133205D01*
X132286102Y-78211226D01*
X132486061Y-78251000D01*
X132689939Y-78251000D01*
X132889898Y-78211226D01*
X133078256Y-78133205D01*
X133096000Y-78121349D01*
X133096000Y-82748113D01*
X132956744Y-82805795D01*
X132787226Y-82919063D01*
X132643063Y-83063226D01*
X132529795Y-83232744D01*
X132451774Y-83421102D01*
X132412000Y-83621061D01*
X132412000Y-83824939D01*
X132451774Y-84024898D01*
X132529795Y-84213256D01*
X132643063Y-84382774D01*
X132787226Y-84526937D01*
X132855169Y-84572335D01*
X132823000Y-84734061D01*
X132823000Y-84937939D01*
X132862774Y-85137898D01*
X132940795Y-85326256D01*
X132995080Y-85407500D01*
X132940795Y-85488744D01*
X132862774Y-85677102D01*
X132823000Y-85877061D01*
X132823000Y-86080939D01*
X132862774Y-86280898D01*
X132940795Y-86469256D01*
X133054063Y-86638774D01*
X133096000Y-86680711D01*
X133096000Y-104648000D01*
X130048000Y-104648000D01*
X130048000Y-99187000D01*
X130556000Y-99187000D01*
X130580776Y-99184560D01*
X130604601Y-99177333D01*
X130626557Y-99165597D01*
X130645803Y-99149803D01*
X130661597Y-99130557D01*
X130673333Y-99108601D01*
X130680560Y-99084776D01*
X130683000Y-99060000D01*
X130683000Y-96917349D01*
X130834774Y-96815937D01*
X130978937Y-96671774D01*
X131092205Y-96502256D01*
X131170226Y-96313898D01*
X131210000Y-96113939D01*
X131210000Y-95910061D01*
X131170226Y-95710102D01*
X131092205Y-95521744D01*
X130978937Y-95352226D01*
X130935000Y-95308289D01*
X130935000Y-95191711D01*
X130978937Y-95147774D01*
X131092205Y-94978256D01*
X131170226Y-94789898D01*
X131210000Y-94589939D01*
X131210000Y-94386061D01*
X131170226Y-94186102D01*
X131092205Y-93997744D01*
X131080349Y-93980000D01*
X131092205Y-93962256D01*
X131170226Y-93773898D01*
X131210000Y-93573939D01*
X131210000Y-93370061D01*
X131170226Y-93170102D01*
X131092205Y-92981744D01*
X131080349Y-92964000D01*
X131092205Y-92946256D01*
X131170226Y-92757898D01*
X131210000Y-92557939D01*
X131210000Y-92354061D01*
X131170226Y-92154102D01*
X131092205Y-91965744D01*
X131080349Y-91948000D01*
X131092205Y-91930256D01*
X131170226Y-91741898D01*
X131210000Y-91541939D01*
X131210000Y-91338061D01*
X131170226Y-91138102D01*
X131092205Y-90949744D01*
X131080349Y-90932000D01*
X131092205Y-90914256D01*
X131170226Y-90725898D01*
X131210000Y-90525939D01*
X131210000Y-90322061D01*
X131170226Y-90122102D01*
X131092205Y-89933744D01*
X131080349Y-89916000D01*
X131092205Y-89898256D01*
X131170226Y-89709898D01*
X131210000Y-89509939D01*
X131210000Y-89306061D01*
X131170226Y-89106102D01*
X131092205Y-88917744D01*
X131080349Y-88900000D01*
X131092205Y-88882256D01*
X131170226Y-88693898D01*
X131210000Y-88493939D01*
X131210000Y-88290061D01*
X131170226Y-88090102D01*
X131092205Y-87901744D01*
X131080349Y-87884000D01*
X131092205Y-87866256D01*
X131170226Y-87677898D01*
X131210000Y-87477939D01*
X131210000Y-87274061D01*
X131170226Y-87074102D01*
X131092205Y-86885744D01*
X131080349Y-86868000D01*
X131092205Y-86850256D01*
X131170226Y-86661898D01*
X131210000Y-86461939D01*
X131210000Y-86258061D01*
X131170226Y-86058102D01*
X131092205Y-85869744D01*
X131080349Y-85852000D01*
X131092205Y-85834256D01*
X131170226Y-85645898D01*
X131210000Y-85445939D01*
X131210000Y-85242061D01*
X131170226Y-85042102D01*
X131092205Y-84853744D01*
X131080349Y-84836000D01*
X131092205Y-84818256D01*
X131170226Y-84629898D01*
X131210000Y-84429939D01*
X131210000Y-84226061D01*
X131170226Y-84026102D01*
X131092205Y-83837744D01*
X131080349Y-83820000D01*
X131092205Y-83802256D01*
X131170226Y-83613898D01*
X131210000Y-83413939D01*
X131210000Y-83210061D01*
X131170226Y-83010102D01*
X131092205Y-82821744D01*
X131080349Y-82804000D01*
X131092205Y-82786256D01*
X131170226Y-82597898D01*
X131210000Y-82397939D01*
X131210000Y-82194061D01*
X131170226Y-81994102D01*
X131092205Y-81805744D01*
X131080349Y-81788000D01*
X131092205Y-81770256D01*
X131170226Y-81581898D01*
X131210000Y-81381939D01*
X131210000Y-81178061D01*
X131170226Y-80978102D01*
X131092205Y-80789744D01*
X131080349Y-80772000D01*
X131092205Y-80754256D01*
X131170226Y-80565898D01*
X131210000Y-80365939D01*
X131210000Y-80162061D01*
X131170226Y-79962102D01*
X131092205Y-79773744D01*
X131080349Y-79756000D01*
X131092205Y-79738256D01*
X131170226Y-79549898D01*
X131210000Y-79349939D01*
X131210000Y-79146061D01*
X131170226Y-78946102D01*
X131092205Y-78757744D01*
X131080349Y-78740000D01*
X131092205Y-78722256D01*
X131170226Y-78533898D01*
X131210000Y-78333939D01*
X131210000Y-78130061D01*
X131170226Y-77930102D01*
X131092205Y-77741744D01*
X130978937Y-77572226D01*
X130935000Y-77528289D01*
X130935000Y-76903711D01*
X130978937Y-76859774D01*
X131092205Y-76690256D01*
X131170226Y-76501898D01*
X131210000Y-76301939D01*
X131210000Y-76098061D01*
X131170226Y-75898102D01*
X131092205Y-75709744D01*
X131080349Y-75692000D01*
X131092205Y-75674256D01*
X131170226Y-75485898D01*
X131210000Y-75285939D01*
X131210000Y-75082061D01*
X131170226Y-74882102D01*
X131092205Y-74693744D01*
X131080349Y-74676000D01*
X131092205Y-74658256D01*
X131170226Y-74469898D01*
X131210000Y-74269939D01*
X131210000Y-74066061D01*
X131170226Y-73866102D01*
X131092205Y-73677744D01*
X131080349Y-73660000D01*
X131092205Y-73642256D01*
X131170226Y-73453898D01*
X131210000Y-73253939D01*
X131210000Y-73050061D01*
X131170226Y-72850102D01*
X131092205Y-72661744D01*
X131080349Y-72644000D01*
X131092205Y-72626256D01*
X131170226Y-72437898D01*
X131210000Y-72237939D01*
X131210000Y-72034061D01*
X131170226Y-71834102D01*
X131092205Y-71645744D01*
X131080349Y-71628000D01*
X131092205Y-71610256D01*
X131170226Y-71421898D01*
X131210000Y-71221939D01*
X131210000Y-71018061D01*
X131170226Y-70818102D01*
X131092205Y-70629744D01*
X130995490Y-70485000D01*
X131092205Y-70340256D01*
X131170226Y-70151898D01*
X131210000Y-69951939D01*
X131210000Y-69748061D01*
X131170226Y-69548102D01*
X131092205Y-69359744D01*
X131080349Y-69342000D01*
X131092205Y-69324256D01*
X131170226Y-69135898D01*
X131210000Y-68935939D01*
X131210000Y-68732061D01*
X131179753Y-68580000D01*
X133096000Y-68580000D01*
X133096000Y-76310651D01*
G37*
%TD.AperFunction*%
%TD*%
M02*
