M48
; DRILL file {KiCad (5.1.9)-1} date 11/30/21 23:53:00
; FORMAT={-:-/ absolute / inch / decimal}
; #@! TF.CreationDate,2021-11-30T23:53:00-06:00
; #@! TF.GenerationSoftware,Kicad,Pcbnew,(5.1.9)-1
; #@! TF.FileFunction,Plated,1,4,PTH
FMAT,2
INCH
T1C0.0157
T2C0.0315
T3C0.0394
T4C0.0472
T5C0.2402
%
G90
G05
T1
X4.495Y-2.75
X4.505Y-3.78
X4.515Y-2.71
X4.5206Y-3.445
X4.5206Y-3.545
X4.525Y-3.74
X4.535Y-2.75
X4.545Y-3.78
X4.555Y-2.71
X4.565Y-3.74
X4.565Y-3.93
X4.575Y-2.75
X4.585Y-3.78
X4.595Y-2.71
X4.605Y-3.74
X4.615Y-2.75
X4.6235Y-3.02
X4.625Y-3.78
X4.635Y-2.71
X4.645Y-3.74
X4.655Y-2.75
X4.66Y-2.9835
X4.665Y-3.78
X4.675Y-2.56
X4.675Y-2.71
X4.685Y-3.74
X4.705Y-3.78
X4.715Y-2.71
X4.715Y-3.8492
X4.725Y-3.74
X4.735Y-2.75
X4.735Y-2.925
X4.735Y-2.97
X4.735Y-3.015
X4.735Y-3.06
X4.745Y-3.78
X4.755Y-2.71
X4.755Y-3.85
X4.765Y-3.74
X4.785Y-3.78
X4.7956Y-3.85
X4.8008Y-3.545
X4.805Y-3.74
X4.835Y-2.6408
X4.835Y-2.71
X4.855Y-2.75
X4.865Y-3.78
X4.8744Y-3.85
X4.875Y-2.64
X4.875Y-2.71
X4.8758Y-3.93
X4.885Y-3.74
X4.895Y-2.75
X4.905Y-3.78
X4.915Y-2.71
X4.9156Y-2.64
X4.92Y-3.555
X4.925Y-3.74
X4.935Y-2.75
X4.9442Y-3.645
X4.945Y-3.78
X4.955Y-2.71
X4.965Y-3.74
X4.975Y-2.75
X4.985Y-3.78
X4.9944Y-2.64
X4.995Y-2.71
X5.005Y-3.74
X5.015Y-2.75
X5.025Y-3.78
X5.035Y-2.71
X5.045Y-3.74
X5.055Y-2.75
X5.075Y-3.78
X5.085Y-2.71
X5.085Y-2.78
X5.085Y-2.82
X5.085Y-2.86
X5.085Y-2.9
X5.085Y-2.94
X5.085Y-2.98
X5.085Y-3.02
X5.085Y-3.1
X5.085Y-3.14
X5.085Y-3.18
X5.085Y-3.22
X5.085Y-3.26
X5.085Y-3.3
X5.085Y-3.34
X5.085Y-3.38
X5.085Y-3.42
X5.085Y-3.46
X5.085Y-3.5
X5.085Y-3.54
X5.085Y-3.58
X5.085Y-3.62
X5.085Y-3.66
X5.085Y-3.7
X5.085Y-3.74
X5.125Y-2.71
X5.125Y-2.75
X5.125Y-2.8
X5.125Y-2.84
X5.125Y-2.88
X5.125Y-2.92
X5.125Y-2.96
X5.125Y-3.0
X5.125Y-3.08
X5.125Y-3.12
X5.125Y-3.16
X5.125Y-3.2
X5.125Y-3.24
X5.125Y-3.28
X5.125Y-3.32
X5.125Y-3.36
X5.125Y-3.4
X5.125Y-3.44
X5.125Y-3.48
X5.125Y-3.52
X5.125Y-3.56
X5.125Y-3.6
X5.125Y-3.64
X5.125Y-3.68
X5.125Y-3.72
X5.125Y-3.78
X5.155Y-3.94
X5.155Y-3.98
X5.155Y-4.06
X5.155Y-4.1
X5.1576Y-4.0226
X5.1875Y-2.7475
X5.1875Y-2.79
X5.195Y-3.94
X5.195Y-3.98
X5.195Y-4.02
X5.195Y-4.06
X5.195Y-4.1
X5.2175Y-2.7275
X5.2175Y-2.7675
X5.2175Y-2.81
X5.22Y-3.04
X5.2538Y-3.2962
X5.27Y-3.34
X5.27Y-3.385
X5.2996Y-2.975
X5.305Y-3.17
X5.305Y-3.275
X5.3054Y-3.5304
X5.31Y-3.4201
X5.32Y-3.21
X5.33Y-2.875
X5.33Y-2.92
X5.33Y-3.495
X5.334Y-3.015
X5.3375Y-3.1475
X5.345Y-3.185
X5.345Y-3.275
X5.345Y-3.585
X5.345Y-3.635
X5.3901Y-3.995
X5.3901Y-4.0349
X5.3901Y-4.075
X5.47Y-3.085
X5.47Y-3.135
X5.47Y-3.185
X5.47Y-3.235
X5.47Y-3.285
X5.47Y-3.335
X5.47Y-3.385
X5.52Y-3.035
X5.52Y-3.085
X5.52Y-3.135
X5.52Y-3.185
X5.52Y-3.235
X5.52Y-3.285
X5.52Y-3.335
X5.52Y-3.385
X5.52Y-3.435
X5.555Y-3.95
X5.555Y-4.01
X5.555Y-4.07
X5.57Y-2.985
X5.57Y-3.085
X5.57Y-3.135
X5.57Y-3.185
X5.57Y-3.235
X5.57Y-3.285
X5.57Y-3.335
X5.57Y-3.385
X5.62Y-2.935
X5.62Y-3.035
X5.62Y-3.085
X5.62Y-3.135
X5.62Y-3.185
X5.62Y-3.235
X5.62Y-3.285
X5.62Y-3.335
X5.69Y-3.16
X5.745Y-2.9696
X5.755Y-3.045
X5.755Y-3.085
X5.755Y-3.165
X5.755Y-3.26
X5.755Y-3.34
X5.755Y-3.38
X5.755Y-3.42
X5.755Y-3.47
X5.795Y-2.9696
X5.795Y-3.045
X5.795Y-3.085
X5.795Y-3.125
X5.795Y-3.165
X5.795Y-3.26
X5.795Y-3.3
X5.795Y-3.34
X5.795Y-3.38
X5.795Y-3.42
X5.795Y-3.47
X5.83Y-2.9696
X5.835Y-3.045
X5.835Y-3.125
X5.835Y-3.165
X5.835Y-3.26
X5.835Y-3.3
X5.835Y-3.34
X5.835Y-3.38
X5.835Y-3.42
X5.84Y-3.47
X5.875Y-3.26
X5.915Y-3.26
X6.12Y-3.135
X6.13Y-2.765
X6.13Y-2.945
X6.13Y-3.005
X6.13Y-3.455
X6.13Y-3.515
X6.13Y-3.695
X6.145Y-3.165
X6.15Y-3.105
X6.155Y-3.485
X6.16Y-2.735
X6.16Y-2.975
X6.16Y-3.725
X6.175Y-3.135
X6.18Y-2.705
X6.18Y-2.765
X6.18Y-2.945
X6.18Y-3.005
X6.18Y-3.455
X6.18Y-3.515
X6.18Y-3.755
X6.205Y-3.105
X6.205Y-3.165
X6.205Y-3.485
X6.21Y-2.735
X6.21Y-2.975
X6.21Y-3.725
X6.23Y-2.705
X6.23Y-2.765
X6.23Y-2.945
X6.23Y-3.005
X6.23Y-3.135
X6.23Y-3.455
X6.23Y-3.515
X6.23Y-3.695
X6.23Y-3.755
X6.255Y-3.105
X6.255Y-3.485
X6.26Y-2.735
X6.26Y-2.975
X6.26Y-3.165
X6.26Y-3.725
X6.28Y-2.705
X6.28Y-2.765
X6.28Y-2.945
X6.28Y-3.005
X6.28Y-3.135
X6.28Y-3.455
X6.28Y-3.515
X6.28Y-3.695
X6.28Y-3.755
X6.61Y-2.985
X6.61Y-3.045
X6.61Y-3.295
X6.61Y-3.355
X6.65Y-2.565
X6.65Y-2.625
X6.65Y-3.015
X6.65Y-3.325
X6.65Y-3.715
X6.65Y-3.775
X6.68Y-2.595
X6.68Y-3.745
X6.69Y-2.985
X6.69Y-3.045
X6.69Y-3.295
X6.69Y-3.355
X6.7Y-2.565
X6.7Y-2.625
X6.7Y-3.715
X6.7Y-3.775
X6.73Y-2.595
X6.73Y-3.015
X6.73Y-3.325
X6.73Y-3.745
X6.75Y-2.565
X6.75Y-2.625
X6.75Y-3.715
X6.75Y-3.775
X6.77Y-2.985
X6.77Y-3.045
X6.77Y-3.295
X6.77Y-3.355
X6.78Y-2.595
X6.78Y-3.745
X6.8Y-2.565
X6.8Y-2.625
X6.8Y-3.715
X6.8Y-3.775
X6.81Y-3.015
X6.81Y-3.325
X6.85Y-2.985
X6.85Y-3.045
X6.85Y-3.295
X6.85Y-3.355
T2
X4.72Y-3.13
X4.72Y-3.43
X4.82Y-3.13
X4.82Y-3.43
X4.92Y-3.13
X4.92Y-3.43
X5.02Y-3.13
X5.02Y-3.43
T3
X4.535Y-2.92
X4.535Y-3.02
X4.535Y-3.12
X4.535Y-3.22
X4.535Y-3.32
X5.07Y-4.36
X5.17Y-4.36
X5.27Y-2.565
X5.27Y-4.36
X5.37Y-2.565
X5.37Y-4.36
X5.47Y-2.565
X5.47Y-4.36
X5.57Y-2.565
X5.57Y-4.36
X5.67Y-2.565
T4
X4.67Y-4.235
X4.7023Y-2.82
X4.7023Y-3.65
X4.8669Y-4.235
X5.785Y-2.82
X5.785Y-3.65
X5.82Y-4.235
X6.0169Y-4.235
X6.37Y-4.235
X6.5669Y-4.235
T5
X7.235Y-2.745
X7.235Y-3.3352
X7.235Y-3.9249
T0
M30
