%TF.GenerationSoftware,KiCad,Pcbnew,(5.1.9)-1*%
%TF.CreationDate,2021-11-06T22:46:36-05:00*%
%TF.ProjectId,Discrete_Channel,44697363-7265-4746-955f-4368616e6e65,rev?*%
%TF.SameCoordinates,Original*%
%TF.FileFunction,Copper,L1,Top*%
%TF.FilePolarity,Positive*%
%FSLAX46Y46*%
G04 Gerber Fmt 4.6, Leading zero omitted, Abs format (unit mm)*
G04 Created by KiCad (PCBNEW (5.1.9)-1) date 2021-11-06 22:46:36*
%MOMM*%
%LPD*%
G01*
G04 APERTURE LIST*
%TA.AperFunction,NonConductor*%
%ADD10C,0.150000*%
%TD*%
%TA.AperFunction,ComponentPad*%
%ADD11R,2.400000X2.400000*%
%TD*%
%TA.AperFunction,ComponentPad*%
%ADD12C,2.400000*%
%TD*%
%TA.AperFunction,SMDPad,CuDef*%
%ADD13R,6.100000X2.000000*%
%TD*%
%TA.AperFunction,ComponentPad*%
%ADD14R,1.700000X1.700000*%
%TD*%
%TA.AperFunction,ComponentPad*%
%ADD15O,1.700000X1.700000*%
%TD*%
%TA.AperFunction,SMDPad,CuDef*%
%ADD16R,2.900000X5.400000*%
%TD*%
%TA.AperFunction,SMDPad,CuDef*%
%ADD17R,5.400000X2.900000*%
%TD*%
%TA.AperFunction,ComponentPad*%
%ADD18R,1.600000X2.400000*%
%TD*%
%TA.AperFunction,ComponentPad*%
%ADD19O,1.600000X2.400000*%
%TD*%
%TA.AperFunction,ComponentPad*%
%ADD20C,10.160000*%
%TD*%
%TA.AperFunction,SMDPad,CuDef*%
%ADD21R,1.000000X1.500000*%
%TD*%
%TA.AperFunction,ViaPad*%
%ADD22C,0.800000*%
%TD*%
%TA.AperFunction,Conductor*%
%ADD23C,0.250000*%
%TD*%
%TA.AperFunction,Conductor*%
%ADD24C,0.500000*%
%TD*%
%TA.AperFunction,Conductor*%
%ADD25C,1.000000*%
%TD*%
%TA.AperFunction,Conductor*%
%ADD26C,0.254000*%
%TD*%
%TA.AperFunction,Conductor*%
%ADD27C,0.100000*%
%TD*%
G04 APERTURE END LIST*
D10*
X157964046Y-108966000D02*
G75*
G03*
X157964046Y-108966000I-2008046J0D01*
G01*
X157964046Y-87884000D02*
G75*
G03*
X157964046Y-87884000I-2008046J0D01*
G01*
%TO.P,C9,1*%
%TO.N,Net-(C9-Pad1)*%
%TA.AperFunction,SMDPad,CuDef*%
G36*
G01*
X143103000Y-94521000D02*
X143103000Y-95471000D01*
G75*
G02*
X142853000Y-95721000I-250000J0D01*
G01*
X142178000Y-95721000D01*
G75*
G02*
X141928000Y-95471000I0J250000D01*
G01*
X141928000Y-94521000D01*
G75*
G02*
X142178000Y-94271000I250000J0D01*
G01*
X142853000Y-94271000D01*
G75*
G02*
X143103000Y-94521000I0J-250000D01*
G01*
G37*
%TD.AperFunction*%
%TO.P,C9,2*%
%TO.N,GND*%
%TA.AperFunction,SMDPad,CuDef*%
G36*
G01*
X141028000Y-94521000D02*
X141028000Y-95471000D01*
G75*
G02*
X140778000Y-95721000I-250000J0D01*
G01*
X140103000Y-95721000D01*
G75*
G02*
X139853000Y-95471000I0J250000D01*
G01*
X139853000Y-94521000D01*
G75*
G02*
X140103000Y-94271000I250000J0D01*
G01*
X140778000Y-94271000D01*
G75*
G02*
X141028000Y-94521000I0J-250000D01*
G01*
G37*
%TD.AperFunction*%
%TD*%
D11*
%TO.P,C1,1*%
%TO.N,/PVDD*%
X158496000Y-121666000D03*
D12*
%TO.P,C1,2*%
%TO.N,GND*%
X158496000Y-116666000D03*
%TD*%
D13*
%TO.P,C31,2*%
%TO.N,/SPEAKER-*%
X178970000Y-108775000D03*
%TO.P,C31,1*%
%TO.N,GND*%
X178970000Y-100775000D03*
%TD*%
%TO.P,C30,2*%
%TO.N,GND*%
X178970000Y-93027000D03*
%TO.P,C30,1*%
%TO.N,/SPEAKER+*%
X178970000Y-85027000D03*
%TD*%
D12*
%TO.P,C2,2*%
%TO.N,GND*%
X173482000Y-116920000D03*
D11*
%TO.P,C2,1*%
%TO.N,/PVDD*%
X173482000Y-121920000D03*
%TD*%
%TO.P,C3,2*%
%TO.N,GND*%
%TA.AperFunction,SMDPad,CuDef*%
G36*
G01*
X155354000Y-101944500D02*
X156304000Y-101944500D01*
G75*
G02*
X156554000Y-102194500I0J-250000D01*
G01*
X156554000Y-102869500D01*
G75*
G02*
X156304000Y-103119500I-250000J0D01*
G01*
X155354000Y-103119500D01*
G75*
G02*
X155104000Y-102869500I0J250000D01*
G01*
X155104000Y-102194500D01*
G75*
G02*
X155354000Y-101944500I250000J0D01*
G01*
G37*
%TD.AperFunction*%
%TO.P,C3,1*%
%TO.N,/PVDD*%
%TA.AperFunction,SMDPad,CuDef*%
G36*
G01*
X155354000Y-99869500D02*
X156304000Y-99869500D01*
G75*
G02*
X156554000Y-100119500I0J-250000D01*
G01*
X156554000Y-100794500D01*
G75*
G02*
X156304000Y-101044500I-250000J0D01*
G01*
X155354000Y-101044500D01*
G75*
G02*
X155104000Y-100794500I0J250000D01*
G01*
X155104000Y-100119500D01*
G75*
G02*
X155354000Y-99869500I250000J0D01*
G01*
G37*
%TD.AperFunction*%
%TD*%
%TO.P,C4,1*%
%TO.N,/PVDD*%
%TA.AperFunction,SMDPad,CuDef*%
G36*
G01*
X158590000Y-96621000D02*
X157640000Y-96621000D01*
G75*
G02*
X157390000Y-96371000I0J250000D01*
G01*
X157390000Y-95696000D01*
G75*
G02*
X157640000Y-95446000I250000J0D01*
G01*
X158590000Y-95446000D01*
G75*
G02*
X158840000Y-95696000I0J-250000D01*
G01*
X158840000Y-96371000D01*
G75*
G02*
X158590000Y-96621000I-250000J0D01*
G01*
G37*
%TD.AperFunction*%
%TO.P,C4,2*%
%TO.N,GND*%
%TA.AperFunction,SMDPad,CuDef*%
G36*
G01*
X158590000Y-94546000D02*
X157640000Y-94546000D01*
G75*
G02*
X157390000Y-94296000I0J250000D01*
G01*
X157390000Y-93621000D01*
G75*
G02*
X157640000Y-93371000I250000J0D01*
G01*
X158590000Y-93371000D01*
G75*
G02*
X158840000Y-93621000I0J-250000D01*
G01*
X158840000Y-94296000D01*
G75*
G02*
X158590000Y-94546000I-250000J0D01*
G01*
G37*
%TD.AperFunction*%
%TD*%
%TO.P,C5,2*%
%TO.N,GND*%
%TA.AperFunction,SMDPad,CuDef*%
G36*
G01*
X156685000Y-94567500D02*
X155735000Y-94567500D01*
G75*
G02*
X155485000Y-94317500I0J250000D01*
G01*
X155485000Y-93642500D01*
G75*
G02*
X155735000Y-93392500I250000J0D01*
G01*
X156685000Y-93392500D01*
G75*
G02*
X156935000Y-93642500I0J-250000D01*
G01*
X156935000Y-94317500D01*
G75*
G02*
X156685000Y-94567500I-250000J0D01*
G01*
G37*
%TD.AperFunction*%
%TO.P,C5,1*%
%TO.N,/PVDD*%
%TA.AperFunction,SMDPad,CuDef*%
G36*
G01*
X156685000Y-96642500D02*
X155735000Y-96642500D01*
G75*
G02*
X155485000Y-96392500I0J250000D01*
G01*
X155485000Y-95717500D01*
G75*
G02*
X155735000Y-95467500I250000J0D01*
G01*
X156685000Y-95467500D01*
G75*
G02*
X156935000Y-95717500I0J-250000D01*
G01*
X156935000Y-96392500D01*
G75*
G02*
X156685000Y-96642500I-250000J0D01*
G01*
G37*
%TD.AperFunction*%
%TD*%
%TO.P,C6,2*%
%TO.N,Net-(C6-Pad2)*%
%TA.AperFunction,SMDPad,CuDef*%
G36*
G01*
X149748001Y-107558000D02*
X148447999Y-107558000D01*
G75*
G02*
X148198000Y-107308001I0J249999D01*
G01*
X148198000Y-106482999D01*
G75*
G02*
X148447999Y-106233000I249999J0D01*
G01*
X149748001Y-106233000D01*
G75*
G02*
X149998000Y-106482999I0J-249999D01*
G01*
X149998000Y-107308001D01*
G75*
G02*
X149748001Y-107558000I-249999J0D01*
G01*
G37*
%TD.AperFunction*%
%TO.P,C6,1*%
%TO.N,GND*%
%TA.AperFunction,SMDPad,CuDef*%
G36*
G01*
X149748001Y-110683000D02*
X148447999Y-110683000D01*
G75*
G02*
X148198000Y-110433001I0J249999D01*
G01*
X148198000Y-109607999D01*
G75*
G02*
X148447999Y-109358000I249999J0D01*
G01*
X149748001Y-109358000D01*
G75*
G02*
X149998000Y-109607999I0J-249999D01*
G01*
X149998000Y-110433001D01*
G75*
G02*
X149748001Y-110683000I-249999J0D01*
G01*
G37*
%TD.AperFunction*%
%TD*%
%TO.P,C7,1*%
%TO.N,/PVDD*%
%TA.AperFunction,SMDPad,CuDef*%
G36*
G01*
X157259000Y-99869500D02*
X158209000Y-99869500D01*
G75*
G02*
X158459000Y-100119500I0J-250000D01*
G01*
X158459000Y-100794500D01*
G75*
G02*
X158209000Y-101044500I-250000J0D01*
G01*
X157259000Y-101044500D01*
G75*
G02*
X157009000Y-100794500I0J250000D01*
G01*
X157009000Y-100119500D01*
G75*
G02*
X157259000Y-99869500I250000J0D01*
G01*
G37*
%TD.AperFunction*%
%TO.P,C7,2*%
%TO.N,GND*%
%TA.AperFunction,SMDPad,CuDef*%
G36*
G01*
X157259000Y-101944500D02*
X158209000Y-101944500D01*
G75*
G02*
X158459000Y-102194500I0J-250000D01*
G01*
X158459000Y-102869500D01*
G75*
G02*
X158209000Y-103119500I-250000J0D01*
G01*
X157259000Y-103119500D01*
G75*
G02*
X157009000Y-102869500I0J250000D01*
G01*
X157009000Y-102194500D01*
G75*
G02*
X157259000Y-101944500I250000J0D01*
G01*
G37*
%TD.AperFunction*%
%TD*%
%TO.P,C8,1*%
%TO.N,GND*%
%TA.AperFunction,SMDPad,CuDef*%
G36*
G01*
X150307000Y-89519999D02*
X150307000Y-90820001D01*
G75*
G02*
X150057001Y-91070000I-249999J0D01*
G01*
X149231999Y-91070000D01*
G75*
G02*
X148982000Y-90820001I0J249999D01*
G01*
X148982000Y-89519999D01*
G75*
G02*
X149231999Y-89270000I249999J0D01*
G01*
X150057001Y-89270000D01*
G75*
G02*
X150307000Y-89519999I0J-249999D01*
G01*
G37*
%TD.AperFunction*%
%TO.P,C8,2*%
%TO.N,Net-(C8-Pad2)*%
%TA.AperFunction,SMDPad,CuDef*%
G36*
G01*
X147182000Y-89519999D02*
X147182000Y-90820001D01*
G75*
G02*
X146932001Y-91070000I-249999J0D01*
G01*
X146106999Y-91070000D01*
G75*
G02*
X145857000Y-90820001I0J249999D01*
G01*
X145857000Y-89519999D01*
G75*
G02*
X146106999Y-89270000I249999J0D01*
G01*
X146932001Y-89270000D01*
G75*
G02*
X147182000Y-89519999I0J-249999D01*
G01*
G37*
%TD.AperFunction*%
%TD*%
%TO.P,C10,2*%
%TO.N,GNDA*%
%TA.AperFunction,SMDPad,CuDef*%
G36*
G01*
X127968500Y-89949000D02*
X127968500Y-90899000D01*
G75*
G02*
X127718500Y-91149000I-250000J0D01*
G01*
X127043500Y-91149000D01*
G75*
G02*
X126793500Y-90899000I0J250000D01*
G01*
X126793500Y-89949000D01*
G75*
G02*
X127043500Y-89699000I250000J0D01*
G01*
X127718500Y-89699000D01*
G75*
G02*
X127968500Y-89949000I0J-250000D01*
G01*
G37*
%TD.AperFunction*%
%TO.P,C10,1*%
%TO.N,VCC*%
%TA.AperFunction,SMDPad,CuDef*%
G36*
G01*
X130043500Y-89949000D02*
X130043500Y-90899000D01*
G75*
G02*
X129793500Y-91149000I-250000J0D01*
G01*
X129118500Y-91149000D01*
G75*
G02*
X128868500Y-90899000I0J250000D01*
G01*
X128868500Y-89949000D01*
G75*
G02*
X129118500Y-89699000I250000J0D01*
G01*
X129793500Y-89699000D01*
G75*
G02*
X130043500Y-89949000I0J-250000D01*
G01*
G37*
%TD.AperFunction*%
%TD*%
%TO.P,C11,1*%
%TO.N,GNDA*%
%TA.AperFunction,SMDPad,CuDef*%
G36*
G01*
X134011000Y-109314000D02*
X134011000Y-108364000D01*
G75*
G02*
X134261000Y-108114000I250000J0D01*
G01*
X134936000Y-108114000D01*
G75*
G02*
X135186000Y-108364000I0J-250000D01*
G01*
X135186000Y-109314000D01*
G75*
G02*
X134936000Y-109564000I-250000J0D01*
G01*
X134261000Y-109564000D01*
G75*
G02*
X134011000Y-109314000I0J250000D01*
G01*
G37*
%TD.AperFunction*%
%TO.P,C11,2*%
%TO.N,VEE*%
%TA.AperFunction,SMDPad,CuDef*%
G36*
G01*
X136086000Y-109314000D02*
X136086000Y-108364000D01*
G75*
G02*
X136336000Y-108114000I250000J0D01*
G01*
X137011000Y-108114000D01*
G75*
G02*
X137261000Y-108364000I0J-250000D01*
G01*
X137261000Y-109314000D01*
G75*
G02*
X137011000Y-109564000I-250000J0D01*
G01*
X136336000Y-109564000D01*
G75*
G02*
X136086000Y-109314000I0J250000D01*
G01*
G37*
%TD.AperFunction*%
%TD*%
%TO.P,C12,1*%
%TO.N,VCC*%
%TA.AperFunction,SMDPad,CuDef*%
G36*
G01*
X130241000Y-92313999D02*
X130241000Y-93614001D01*
G75*
G02*
X129991001Y-93864000I-249999J0D01*
G01*
X129165999Y-93864000D01*
G75*
G02*
X128916000Y-93614001I0J249999D01*
G01*
X128916000Y-92313999D01*
G75*
G02*
X129165999Y-92064000I249999J0D01*
G01*
X129991001Y-92064000D01*
G75*
G02*
X130241000Y-92313999I0J-249999D01*
G01*
G37*
%TD.AperFunction*%
%TO.P,C12,2*%
%TO.N,GNDA*%
%TA.AperFunction,SMDPad,CuDef*%
G36*
G01*
X127116000Y-92313999D02*
X127116000Y-93614001D01*
G75*
G02*
X126866001Y-93864000I-249999J0D01*
G01*
X126040999Y-93864000D01*
G75*
G02*
X125791000Y-93614001I0J249999D01*
G01*
X125791000Y-92313999D01*
G75*
G02*
X126040999Y-92064000I249999J0D01*
G01*
X126866001Y-92064000D01*
G75*
G02*
X127116000Y-92313999I0J-249999D01*
G01*
G37*
%TD.AperFunction*%
%TD*%
%TO.P,C13,2*%
%TO.N,VEE*%
%TA.AperFunction,SMDPad,CuDef*%
G36*
G01*
X135901000Y-106949001D02*
X135901000Y-105648999D01*
G75*
G02*
X136150999Y-105399000I249999J0D01*
G01*
X136976001Y-105399000D01*
G75*
G02*
X137226000Y-105648999I0J-249999D01*
G01*
X137226000Y-106949001D01*
G75*
G02*
X136976001Y-107199000I-249999J0D01*
G01*
X136150999Y-107199000D01*
G75*
G02*
X135901000Y-106949001I0J249999D01*
G01*
G37*
%TD.AperFunction*%
%TO.P,C13,1*%
%TO.N,GNDA*%
%TA.AperFunction,SMDPad,CuDef*%
G36*
G01*
X132776000Y-106949001D02*
X132776000Y-105648999D01*
G75*
G02*
X133025999Y-105399000I249999J0D01*
G01*
X133851001Y-105399000D01*
G75*
G02*
X134101000Y-105648999I0J-249999D01*
G01*
X134101000Y-106949001D01*
G75*
G02*
X133851001Y-107199000I-249999J0D01*
G01*
X133025999Y-107199000D01*
G75*
G02*
X132776000Y-106949001I0J249999D01*
G01*
G37*
%TD.AperFunction*%
%TD*%
%TO.P,C14,1*%
%TO.N,GND*%
%TA.AperFunction,SMDPad,CuDef*%
G36*
G01*
X140269000Y-106060001D02*
X140269000Y-104759999D01*
G75*
G02*
X140518999Y-104510000I249999J0D01*
G01*
X141344001Y-104510000D01*
G75*
G02*
X141594000Y-104759999I0J-249999D01*
G01*
X141594000Y-106060001D01*
G75*
G02*
X141344001Y-106310000I-249999J0D01*
G01*
X140518999Y-106310000D01*
G75*
G02*
X140269000Y-106060001I0J249999D01*
G01*
G37*
%TD.AperFunction*%
%TO.P,C14,2*%
%TO.N,Net-(C14-Pad2)*%
%TA.AperFunction,SMDPad,CuDef*%
G36*
G01*
X143394000Y-106060001D02*
X143394000Y-104759999D01*
G75*
G02*
X143643999Y-104510000I249999J0D01*
G01*
X144469001Y-104510000D01*
G75*
G02*
X144719000Y-104759999I0J-249999D01*
G01*
X144719000Y-106060001D01*
G75*
G02*
X144469001Y-106310000I-249999J0D01*
G01*
X143643999Y-106310000D01*
G75*
G02*
X143394000Y-106060001I0J249999D01*
G01*
G37*
%TD.AperFunction*%
%TD*%
%TO.P,C15,2*%
%TO.N,Net-(C15-Pad2)*%
%TA.AperFunction,SMDPad,CuDef*%
G36*
G01*
X143394000Y-90820001D02*
X143394000Y-89519999D01*
G75*
G02*
X143643999Y-89270000I249999J0D01*
G01*
X144469001Y-89270000D01*
G75*
G02*
X144719000Y-89519999I0J-249999D01*
G01*
X144719000Y-90820001D01*
G75*
G02*
X144469001Y-91070000I-249999J0D01*
G01*
X143643999Y-91070000D01*
G75*
G02*
X143394000Y-90820001I0J249999D01*
G01*
G37*
%TD.AperFunction*%
%TO.P,C15,1*%
%TO.N,GND*%
%TA.AperFunction,SMDPad,CuDef*%
G36*
G01*
X140269000Y-90820001D02*
X140269000Y-89519999D01*
G75*
G02*
X140518999Y-89270000I249999J0D01*
G01*
X141344001Y-89270000D01*
G75*
G02*
X141594000Y-89519999I0J-249999D01*
G01*
X141594000Y-90820001D01*
G75*
G02*
X141344001Y-91070000I-249999J0D01*
G01*
X140518999Y-91070000D01*
G75*
G02*
X140269000Y-90820001I0J249999D01*
G01*
G37*
%TD.AperFunction*%
%TD*%
%TO.P,C16,2*%
%TO.N,Net-(C16-Pad2)*%
%TA.AperFunction,SMDPad,CuDef*%
G36*
G01*
X141928000Y-97249000D02*
X141928000Y-96299000D01*
G75*
G02*
X142178000Y-96049000I250000J0D01*
G01*
X142853000Y-96049000D01*
G75*
G02*
X143103000Y-96299000I0J-250000D01*
G01*
X143103000Y-97249000D01*
G75*
G02*
X142853000Y-97499000I-250000J0D01*
G01*
X142178000Y-97499000D01*
G75*
G02*
X141928000Y-97249000I0J250000D01*
G01*
G37*
%TD.AperFunction*%
%TO.P,C16,1*%
%TO.N,GND*%
%TA.AperFunction,SMDPad,CuDef*%
G36*
G01*
X139853000Y-97249000D02*
X139853000Y-96299000D01*
G75*
G02*
X140103000Y-96049000I250000J0D01*
G01*
X140778000Y-96049000D01*
G75*
G02*
X141028000Y-96299000I0J-250000D01*
G01*
X141028000Y-97249000D01*
G75*
G02*
X140778000Y-97499000I-250000J0D01*
G01*
X140103000Y-97499000D01*
G75*
G02*
X139853000Y-97249000I0J250000D01*
G01*
G37*
%TD.AperFunction*%
%TD*%
%TO.P,C17,1*%
%TO.N,/+12V*%
X130175000Y-126492000D03*
D12*
%TO.P,C17,2*%
%TO.N,GND*%
X130175000Y-121492000D03*
%TD*%
%TO.P,C19,1*%
%TO.N,Net-(C19-Pad1)*%
%TA.AperFunction,SMDPad,CuDef*%
G36*
G01*
X131546000Y-105824000D02*
X131546000Y-106774000D01*
G75*
G02*
X131296000Y-107024000I-250000J0D01*
G01*
X130621000Y-107024000D01*
G75*
G02*
X130371000Y-106774000I0J250000D01*
G01*
X130371000Y-105824000D01*
G75*
G02*
X130621000Y-105574000I250000J0D01*
G01*
X131296000Y-105574000D01*
G75*
G02*
X131546000Y-105824000I0J-250000D01*
G01*
G37*
%TD.AperFunction*%
%TO.P,C19,2*%
%TO.N,/FB_A*%
%TA.AperFunction,SMDPad,CuDef*%
G36*
G01*
X129471000Y-105824000D02*
X129471000Y-106774000D01*
G75*
G02*
X129221000Y-107024000I-250000J0D01*
G01*
X128546000Y-107024000D01*
G75*
G02*
X128296000Y-106774000I0J250000D01*
G01*
X128296000Y-105824000D01*
G75*
G02*
X128546000Y-105574000I250000J0D01*
G01*
X129221000Y-105574000D01*
G75*
G02*
X129471000Y-105824000I0J-250000D01*
G01*
G37*
%TD.AperFunction*%
%TD*%
%TO.P,C18,2*%
%TO.N,/FB_B*%
%TA.AperFunction,SMDPad,CuDef*%
G36*
G01*
X132011000Y-92489000D02*
X132011000Y-93439000D01*
G75*
G02*
X131761000Y-93689000I-250000J0D01*
G01*
X131086000Y-93689000D01*
G75*
G02*
X130836000Y-93439000I0J250000D01*
G01*
X130836000Y-92489000D01*
G75*
G02*
X131086000Y-92239000I250000J0D01*
G01*
X131761000Y-92239000D01*
G75*
G02*
X132011000Y-92489000I0J-250000D01*
G01*
G37*
%TD.AperFunction*%
%TO.P,C18,1*%
%TO.N,Net-(C18-Pad1)*%
%TA.AperFunction,SMDPad,CuDef*%
G36*
G01*
X134086000Y-92489000D02*
X134086000Y-93439000D01*
G75*
G02*
X133836000Y-93689000I-250000J0D01*
G01*
X133161000Y-93689000D01*
G75*
G02*
X132911000Y-93439000I0J250000D01*
G01*
X132911000Y-92489000D01*
G75*
G02*
X133161000Y-92239000I250000J0D01*
G01*
X133836000Y-92239000D01*
G75*
G02*
X134086000Y-92489000I0J-250000D01*
G01*
G37*
%TD.AperFunction*%
%TD*%
%TO.P,C22,1*%
%TO.N,Net-(C22-Pad1)*%
%TA.AperFunction,SMDPad,CuDef*%
G36*
G01*
X150902000Y-107155000D02*
X150902000Y-106205000D01*
G75*
G02*
X151152000Y-105955000I250000J0D01*
G01*
X151827000Y-105955000D01*
G75*
G02*
X152077000Y-106205000I0J-250000D01*
G01*
X152077000Y-107155000D01*
G75*
G02*
X151827000Y-107405000I-250000J0D01*
G01*
X151152000Y-107405000D01*
G75*
G02*
X150902000Y-107155000I0J250000D01*
G01*
G37*
%TD.AperFunction*%
%TO.P,C22,2*%
%TO.N,/OUT_A*%
%TA.AperFunction,SMDPad,CuDef*%
G36*
G01*
X152977000Y-107155000D02*
X152977000Y-106205000D01*
G75*
G02*
X153227000Y-105955000I250000J0D01*
G01*
X153902000Y-105955000D01*
G75*
G02*
X154152000Y-106205000I0J-250000D01*
G01*
X154152000Y-107155000D01*
G75*
G02*
X153902000Y-107405000I-250000J0D01*
G01*
X153227000Y-107405000D01*
G75*
G02*
X152977000Y-107155000I0J250000D01*
G01*
G37*
%TD.AperFunction*%
%TD*%
%TO.P,C23,2*%
%TO.N,/OUT_B*%
%TA.AperFunction,SMDPad,CuDef*%
G36*
G01*
X157168000Y-105377000D02*
X157168000Y-104427000D01*
G75*
G02*
X157418000Y-104177000I250000J0D01*
G01*
X158093000Y-104177000D01*
G75*
G02*
X158343000Y-104427000I0J-250000D01*
G01*
X158343000Y-105377000D01*
G75*
G02*
X158093000Y-105627000I-250000J0D01*
G01*
X157418000Y-105627000D01*
G75*
G02*
X157168000Y-105377000I0J250000D01*
G01*
G37*
%TD.AperFunction*%
%TO.P,C23,1*%
%TO.N,Net-(C23-Pad1)*%
%TA.AperFunction,SMDPad,CuDef*%
G36*
G01*
X155093000Y-105377000D02*
X155093000Y-104427000D01*
G75*
G02*
X155343000Y-104177000I250000J0D01*
G01*
X156018000Y-104177000D01*
G75*
G02*
X156268000Y-104427000I0J-250000D01*
G01*
X156268000Y-105377000D01*
G75*
G02*
X156018000Y-105627000I-250000J0D01*
G01*
X155343000Y-105627000D01*
G75*
G02*
X155093000Y-105377000I0J250000D01*
G01*
G37*
%TD.AperFunction*%
%TD*%
%TO.P,C24,2*%
%TO.N,/OUT_C*%
%TA.AperFunction,SMDPad,CuDef*%
G36*
G01*
X156914000Y-92169000D02*
X156914000Y-91219000D01*
G75*
G02*
X157164000Y-90969000I250000J0D01*
G01*
X157839000Y-90969000D01*
G75*
G02*
X158089000Y-91219000I0J-250000D01*
G01*
X158089000Y-92169000D01*
G75*
G02*
X157839000Y-92419000I-250000J0D01*
G01*
X157164000Y-92419000D01*
G75*
G02*
X156914000Y-92169000I0J250000D01*
G01*
G37*
%TD.AperFunction*%
%TO.P,C24,1*%
%TO.N,Net-(C24-Pad1)*%
%TA.AperFunction,SMDPad,CuDef*%
G36*
G01*
X154839000Y-92169000D02*
X154839000Y-91219000D01*
G75*
G02*
X155089000Y-90969000I250000J0D01*
G01*
X155764000Y-90969000D01*
G75*
G02*
X156014000Y-91219000I0J-250000D01*
G01*
X156014000Y-92169000D01*
G75*
G02*
X155764000Y-92419000I-250000J0D01*
G01*
X155089000Y-92419000D01*
G75*
G02*
X154839000Y-92169000I0J250000D01*
G01*
G37*
%TD.AperFunction*%
%TD*%
%TO.P,C25,1*%
%TO.N,Net-(C25-Pad1)*%
%TA.AperFunction,SMDPad,CuDef*%
G36*
G01*
X154300500Y-89695000D02*
X154300500Y-90645000D01*
G75*
G02*
X154050500Y-90895000I-250000J0D01*
G01*
X153375500Y-90895000D01*
G75*
G02*
X153125500Y-90645000I0J250000D01*
G01*
X153125500Y-89695000D01*
G75*
G02*
X153375500Y-89445000I250000J0D01*
G01*
X154050500Y-89445000D01*
G75*
G02*
X154300500Y-89695000I0J-250000D01*
G01*
G37*
%TD.AperFunction*%
%TO.P,C25,2*%
%TO.N,/OUT_D*%
%TA.AperFunction,SMDPad,CuDef*%
G36*
G01*
X152225500Y-89695000D02*
X152225500Y-90645000D01*
G75*
G02*
X151975500Y-90895000I-250000J0D01*
G01*
X151300500Y-90895000D01*
G75*
G02*
X151050500Y-90645000I0J250000D01*
G01*
X151050500Y-89695000D01*
G75*
G02*
X151300500Y-89445000I250000J0D01*
G01*
X151975500Y-89445000D01*
G75*
G02*
X152225500Y-89695000I0J-250000D01*
G01*
G37*
%TD.AperFunction*%
%TD*%
%TO.P,C26,2*%
%TO.N,Net-(C26-Pad2)*%
%TA.AperFunction,SMDPad,CuDef*%
G36*
G01*
X132301000Y-81846000D02*
X131351000Y-81846000D01*
G75*
G02*
X131101000Y-81596000I0J250000D01*
G01*
X131101000Y-80921000D01*
G75*
G02*
X131351000Y-80671000I250000J0D01*
G01*
X132301000Y-80671000D01*
G75*
G02*
X132551000Y-80921000I0J-250000D01*
G01*
X132551000Y-81596000D01*
G75*
G02*
X132301000Y-81846000I-250000J0D01*
G01*
G37*
%TD.AperFunction*%
%TO.P,C26,1*%
%TO.N,/FB_A*%
%TA.AperFunction,SMDPad,CuDef*%
G36*
G01*
X132301000Y-83921000D02*
X131351000Y-83921000D01*
G75*
G02*
X131101000Y-83671000I0J250000D01*
G01*
X131101000Y-82996000D01*
G75*
G02*
X131351000Y-82746000I250000J0D01*
G01*
X132301000Y-82746000D01*
G75*
G02*
X132551000Y-82996000I0J-250000D01*
G01*
X132551000Y-83671000D01*
G75*
G02*
X132301000Y-83921000I-250000J0D01*
G01*
G37*
%TD.AperFunction*%
%TD*%
%TO.P,C27,2*%
%TO.N,Net-(C27-Pad2)*%
%TA.AperFunction,SMDPad,CuDef*%
G36*
G01*
X128303000Y-115512000D02*
X129253000Y-115512000D01*
G75*
G02*
X129503000Y-115762000I0J-250000D01*
G01*
X129503000Y-116437000D01*
G75*
G02*
X129253000Y-116687000I-250000J0D01*
G01*
X128303000Y-116687000D01*
G75*
G02*
X128053000Y-116437000I0J250000D01*
G01*
X128053000Y-115762000D01*
G75*
G02*
X128303000Y-115512000I250000J0D01*
G01*
G37*
%TD.AperFunction*%
%TO.P,C27,1*%
%TO.N,/FB_B*%
%TA.AperFunction,SMDPad,CuDef*%
G36*
G01*
X128303000Y-113437000D02*
X129253000Y-113437000D01*
G75*
G02*
X129503000Y-113687000I0J-250000D01*
G01*
X129503000Y-114362000D01*
G75*
G02*
X129253000Y-114612000I-250000J0D01*
G01*
X128303000Y-114612000D01*
G75*
G02*
X128053000Y-114362000I0J250000D01*
G01*
X128053000Y-113687000D01*
G75*
G02*
X128303000Y-113437000I250000J0D01*
G01*
G37*
%TD.AperFunction*%
%TD*%
%TO.P,C28,1*%
%TO.N,Net-(C26-Pad2)*%
%TA.AperFunction,SMDPad,CuDef*%
G36*
G01*
X133249000Y-81755000D02*
X133249000Y-80805000D01*
G75*
G02*
X133499000Y-80555000I250000J0D01*
G01*
X134174000Y-80555000D01*
G75*
G02*
X134424000Y-80805000I0J-250000D01*
G01*
X134424000Y-81755000D01*
G75*
G02*
X134174000Y-82005000I-250000J0D01*
G01*
X133499000Y-82005000D01*
G75*
G02*
X133249000Y-81755000I0J250000D01*
G01*
G37*
%TD.AperFunction*%
%TO.P,C28,2*%
%TO.N,/SPEAKER+*%
%TA.AperFunction,SMDPad,CuDef*%
G36*
G01*
X135324000Y-81755000D02*
X135324000Y-80805000D01*
G75*
G02*
X135574000Y-80555000I250000J0D01*
G01*
X136249000Y-80555000D01*
G75*
G02*
X136499000Y-80805000I0J-250000D01*
G01*
X136499000Y-81755000D01*
G75*
G02*
X136249000Y-82005000I-250000J0D01*
G01*
X135574000Y-82005000D01*
G75*
G02*
X135324000Y-81755000I0J250000D01*
G01*
G37*
%TD.AperFunction*%
%TD*%
%TO.P,C29,2*%
%TO.N,/SPEAKER-*%
%TA.AperFunction,SMDPad,CuDef*%
G36*
G01*
X132276000Y-116553000D02*
X132276000Y-115603000D01*
G75*
G02*
X132526000Y-115353000I250000J0D01*
G01*
X133201000Y-115353000D01*
G75*
G02*
X133451000Y-115603000I0J-250000D01*
G01*
X133451000Y-116553000D01*
G75*
G02*
X133201000Y-116803000I-250000J0D01*
G01*
X132526000Y-116803000D01*
G75*
G02*
X132276000Y-116553000I0J250000D01*
G01*
G37*
%TD.AperFunction*%
%TO.P,C29,1*%
%TO.N,Net-(C27-Pad2)*%
%TA.AperFunction,SMDPad,CuDef*%
G36*
G01*
X130201000Y-116553000D02*
X130201000Y-115603000D01*
G75*
G02*
X130451000Y-115353000I250000J0D01*
G01*
X131126000Y-115353000D01*
G75*
G02*
X131376000Y-115603000I0J-250000D01*
G01*
X131376000Y-116553000D01*
G75*
G02*
X131126000Y-116803000I-250000J0D01*
G01*
X130451000Y-116803000D01*
G75*
G02*
X130201000Y-116553000I0J250000D01*
G01*
G37*
%TD.AperFunction*%
%TD*%
D14*
%TO.P,J1,1*%
%TO.N,/~FAULT*%
X141097000Y-81407000D03*
D15*
%TO.P,J1,2*%
%TO.N,/~RESET*%
X143637000Y-81407000D03*
%TO.P,J1,3*%
%TO.N,/OSC_IOM*%
X146177000Y-81407000D03*
%TO.P,J1,4*%
%TO.N,/OSC_IOP*%
X148717000Y-81407000D03*
%TO.P,J1,5*%
%TO.N,/~ERROR*%
X151257000Y-81407000D03*
%TD*%
%TO.P,J3,5*%
%TO.N,/IN_A*%
X124206000Y-100584000D03*
%TO.P,J3,4*%
%TO.N,/IN_B*%
X124206000Y-98044000D03*
%TO.P,J3,3*%
%TO.N,VEE*%
X124206000Y-95504000D03*
%TO.P,J3,2*%
%TO.N,GNDA*%
X124206000Y-92964000D03*
D14*
%TO.P,J3,1*%
%TO.N,VCC*%
X124206000Y-90424000D03*
%TD*%
D16*
%TO.P,L1,1*%
%TO.N,Net-(C14-Pad2)*%
X150238000Y-118110000D03*
%TO.P,L1,2*%
%TO.N,/+12V*%
X140338000Y-118110000D03*
%TD*%
D17*
%TO.P,L2,1*%
%TO.N,/OUT_B*%
X165735000Y-95755000D03*
%TO.P,L2,2*%
%TO.N,/SPEAKER+*%
X165735000Y-85855000D03*
%TD*%
%TO.P,L4,1*%
%TO.N,/OUT_C*%
X165735000Y-101095000D03*
%TO.P,L4,2*%
%TO.N,/SPEAKER-*%
X165735000Y-110995000D03*
%TD*%
%TO.P,R3,2*%
%TO.N,Net-(JP1-Pad2)*%
%TA.AperFunction,SMDPad,CuDef*%
G36*
G01*
X142132000Y-100780001D02*
X142132000Y-99879999D01*
G75*
G02*
X142381999Y-99630000I249999J0D01*
G01*
X143082001Y-99630000D01*
G75*
G02*
X143332000Y-99879999I0J-249999D01*
G01*
X143332000Y-100780001D01*
G75*
G02*
X143082001Y-101030000I-249999J0D01*
G01*
X142381999Y-101030000D01*
G75*
G02*
X142132000Y-100780001I0J249999D01*
G01*
G37*
%TD.AperFunction*%
%TO.P,R3,1*%
%TO.N,GND*%
%TA.AperFunction,SMDPad,CuDef*%
G36*
G01*
X140132000Y-100780001D02*
X140132000Y-99879999D01*
G75*
G02*
X140381999Y-99630000I249999J0D01*
G01*
X141082001Y-99630000D01*
G75*
G02*
X141332000Y-99879999I0J-249999D01*
G01*
X141332000Y-100780001D01*
G75*
G02*
X141082001Y-101030000I-249999J0D01*
G01*
X140381999Y-101030000D01*
G75*
G02*
X140132000Y-100780001I0J249999D01*
G01*
G37*
%TD.AperFunction*%
%TD*%
%TO.P,R4,1*%
%TO.N,GND*%
%TA.AperFunction,SMDPad,CuDef*%
G36*
G01*
X141402000Y-102558001D02*
X141402000Y-101657999D01*
G75*
G02*
X141651999Y-101408000I249999J0D01*
G01*
X142352001Y-101408000D01*
G75*
G02*
X142602000Y-101657999I0J-249999D01*
G01*
X142602000Y-102558001D01*
G75*
G02*
X142352001Y-102808000I-249999J0D01*
G01*
X141651999Y-102808000D01*
G75*
G02*
X141402000Y-102558001I0J249999D01*
G01*
G37*
%TD.AperFunction*%
%TO.P,R4,2*%
%TO.N,Net-(R4-Pad2)*%
%TA.AperFunction,SMDPad,CuDef*%
G36*
G01*
X143402000Y-102558001D02*
X143402000Y-101657999D01*
G75*
G02*
X143651999Y-101408000I249999J0D01*
G01*
X144352001Y-101408000D01*
G75*
G02*
X144602000Y-101657999I0J-249999D01*
G01*
X144602000Y-102558001D01*
G75*
G02*
X144352001Y-102808000I-249999J0D01*
G01*
X143651999Y-102808000D01*
G75*
G02*
X143402000Y-102558001I0J249999D01*
G01*
G37*
%TD.AperFunction*%
%TD*%
%TO.P,R5,2*%
%TO.N,/IN_A*%
%TA.AperFunction,SMDPad,CuDef*%
G36*
G01*
X125241000Y-104209001D02*
X125241000Y-103308999D01*
G75*
G02*
X125490999Y-103059000I249999J0D01*
G01*
X126191001Y-103059000D01*
G75*
G02*
X126441000Y-103308999I0J-249999D01*
G01*
X126441000Y-104209001D01*
G75*
G02*
X126191001Y-104459000I-249999J0D01*
G01*
X125490999Y-104459000D01*
G75*
G02*
X125241000Y-104209001I0J249999D01*
G01*
G37*
%TD.AperFunction*%
%TO.P,R5,1*%
%TO.N,Net-(C19-Pad1)*%
%TA.AperFunction,SMDPad,CuDef*%
G36*
G01*
X123241000Y-104209001D02*
X123241000Y-103308999D01*
G75*
G02*
X123490999Y-103059000I249999J0D01*
G01*
X124191001Y-103059000D01*
G75*
G02*
X124441000Y-103308999I0J-249999D01*
G01*
X124441000Y-104209001D01*
G75*
G02*
X124191001Y-104459000I-249999J0D01*
G01*
X123490999Y-104459000D01*
G75*
G02*
X123241000Y-104209001I0J249999D01*
G01*
G37*
%TD.AperFunction*%
%TD*%
%TO.P,R6,1*%
%TO.N,Net-(C18-Pad1)*%
%TA.AperFunction,SMDPad,CuDef*%
G36*
G01*
X126295999Y-96444000D02*
X127196001Y-96444000D01*
G75*
G02*
X127446000Y-96693999I0J-249999D01*
G01*
X127446000Y-97394001D01*
G75*
G02*
X127196001Y-97644000I-249999J0D01*
G01*
X126295999Y-97644000D01*
G75*
G02*
X126046000Y-97394001I0J249999D01*
G01*
X126046000Y-96693999D01*
G75*
G02*
X126295999Y-96444000I249999J0D01*
G01*
G37*
%TD.AperFunction*%
%TO.P,R6,2*%
%TO.N,/IN_B*%
%TA.AperFunction,SMDPad,CuDef*%
G36*
G01*
X126295999Y-98444000D02*
X127196001Y-98444000D01*
G75*
G02*
X127446000Y-98693999I0J-249999D01*
G01*
X127446000Y-99394001D01*
G75*
G02*
X127196001Y-99644000I-249999J0D01*
G01*
X126295999Y-99644000D01*
G75*
G02*
X126046000Y-99394001I0J249999D01*
G01*
X126046000Y-98693999D01*
G75*
G02*
X126295999Y-98444000I249999J0D01*
G01*
G37*
%TD.AperFunction*%
%TD*%
%TO.P,R8,2*%
%TO.N,Net-(C19-Pad1)*%
%TA.AperFunction,SMDPad,CuDef*%
G36*
G01*
X124441000Y-105848600D02*
X124441000Y-106749400D01*
G75*
G02*
X124191400Y-106999000I-249600J0D01*
G01*
X123490600Y-106999000D01*
G75*
G02*
X123241000Y-106749400I0J249600D01*
G01*
X123241000Y-105848600D01*
G75*
G02*
X123490600Y-105599000I249600J0D01*
G01*
X124191400Y-105599000D01*
G75*
G02*
X124441000Y-105848600I0J-249600D01*
G01*
G37*
%TD.AperFunction*%
%TO.P,R8,1*%
%TO.N,/FB_A*%
%TA.AperFunction,SMDPad,CuDef*%
G36*
G01*
X126441000Y-105848999D02*
X126441000Y-106749001D01*
G75*
G02*
X126191001Y-106999000I-249999J0D01*
G01*
X125490999Y-106999000D01*
G75*
G02*
X125241000Y-106749001I0J249999D01*
G01*
X125241000Y-105848999D01*
G75*
G02*
X125490999Y-105599000I249999J0D01*
G01*
X126191001Y-105599000D01*
G75*
G02*
X126441000Y-105848999I0J-249999D01*
G01*
G37*
%TD.AperFunction*%
%TD*%
%TO.P,R7,1*%
%TO.N,/FB_B*%
%TA.AperFunction,SMDPad,CuDef*%
G36*
G01*
X130861000Y-90874001D02*
X130861000Y-89973999D01*
G75*
G02*
X131110999Y-89724000I249999J0D01*
G01*
X131811001Y-89724000D01*
G75*
G02*
X132061000Y-89973999I0J-249999D01*
G01*
X132061000Y-90874001D01*
G75*
G02*
X131811001Y-91124000I-249999J0D01*
G01*
X131110999Y-91124000D01*
G75*
G02*
X130861000Y-90874001I0J249999D01*
G01*
G37*
%TD.AperFunction*%
%TO.P,R7,2*%
%TO.N,Net-(C18-Pad1)*%
%TA.AperFunction,SMDPad,CuDef*%
G36*
G01*
X132861000Y-90874001D02*
X132861000Y-89973999D01*
G75*
G02*
X133110999Y-89724000I249999J0D01*
G01*
X133811001Y-89724000D01*
G75*
G02*
X134061000Y-89973999I0J-249999D01*
G01*
X134061000Y-90874001D01*
G75*
G02*
X133811001Y-91124000I-249999J0D01*
G01*
X133110999Y-91124000D01*
G75*
G02*
X132861000Y-90874001I0J249999D01*
G01*
G37*
%TD.AperFunction*%
%TD*%
%TO.P,R9,1*%
%TO.N,/FB_A*%
%TA.AperFunction,SMDPad,CuDef*%
G36*
G01*
X133274000Y-83762001D02*
X133274000Y-82861999D01*
G75*
G02*
X133523999Y-82612000I249999J0D01*
G01*
X134224001Y-82612000D01*
G75*
G02*
X134474000Y-82861999I0J-249999D01*
G01*
X134474000Y-83762001D01*
G75*
G02*
X134224001Y-84012000I-249999J0D01*
G01*
X133523999Y-84012000D01*
G75*
G02*
X133274000Y-83762001I0J249999D01*
G01*
G37*
%TD.AperFunction*%
%TO.P,R9,2*%
%TO.N,/SPEAKER+*%
%TA.AperFunction,SMDPad,CuDef*%
G36*
G01*
X135274000Y-83762001D02*
X135274000Y-82861999D01*
G75*
G02*
X135523999Y-82612000I249999J0D01*
G01*
X136224001Y-82612000D01*
G75*
G02*
X136474000Y-82861999I0J-249999D01*
G01*
X136474000Y-83762001D01*
G75*
G02*
X136224001Y-84012000I-249999J0D01*
G01*
X135523999Y-84012000D01*
G75*
G02*
X135274000Y-83762001I0J249999D01*
G01*
G37*
%TD.AperFunction*%
%TD*%
%TO.P,R10,1*%
%TO.N,/SPEAKER-*%
%TA.AperFunction,SMDPad,CuDef*%
G36*
G01*
X133426000Y-113595999D02*
X133426000Y-114496001D01*
G75*
G02*
X133176001Y-114746000I-249999J0D01*
G01*
X132475999Y-114746000D01*
G75*
G02*
X132226000Y-114496001I0J249999D01*
G01*
X132226000Y-113595999D01*
G75*
G02*
X132475999Y-113346000I249999J0D01*
G01*
X133176001Y-113346000D01*
G75*
G02*
X133426000Y-113595999I0J-249999D01*
G01*
G37*
%TD.AperFunction*%
%TO.P,R10,2*%
%TO.N,/FB_B*%
%TA.AperFunction,SMDPad,CuDef*%
G36*
G01*
X131426000Y-113595999D02*
X131426000Y-114496001D01*
G75*
G02*
X131176001Y-114746000I-249999J0D01*
G01*
X130475999Y-114746000D01*
G75*
G02*
X130226000Y-114496001I0J249999D01*
G01*
X130226000Y-113595999D01*
G75*
G02*
X130475999Y-113346000I249999J0D01*
G01*
X131176001Y-113346000D01*
G75*
G02*
X131426000Y-113595999I0J-249999D01*
G01*
G37*
%TD.AperFunction*%
%TD*%
%TO.P,R11,2*%
%TO.N,GNDA*%
%TA.AperFunction,SMDPad,CuDef*%
G36*
G01*
X128378000Y-80829999D02*
X128378000Y-81730001D01*
G75*
G02*
X128128001Y-81980000I-249999J0D01*
G01*
X127427999Y-81980000D01*
G75*
G02*
X127178000Y-81730001I0J249999D01*
G01*
X127178000Y-80829999D01*
G75*
G02*
X127427999Y-80580000I249999J0D01*
G01*
X128128001Y-80580000D01*
G75*
G02*
X128378000Y-80829999I0J-249999D01*
G01*
G37*
%TD.AperFunction*%
%TO.P,R11,1*%
%TO.N,Net-(C26-Pad2)*%
%TA.AperFunction,SMDPad,CuDef*%
G36*
G01*
X130378000Y-80829999D02*
X130378000Y-81730001D01*
G75*
G02*
X130128001Y-81980000I-249999J0D01*
G01*
X129427999Y-81980000D01*
G75*
G02*
X129178000Y-81730001I0J249999D01*
G01*
X129178000Y-80829999D01*
G75*
G02*
X129427999Y-80580000I249999J0D01*
G01*
X130128001Y-80580000D01*
G75*
G02*
X130378000Y-80829999I0J-249999D01*
G01*
G37*
%TD.AperFunction*%
%TD*%
%TO.P,R12,2*%
%TO.N,GNDA*%
%TA.AperFunction,SMDPad,CuDef*%
G36*
G01*
X125584000Y-115627999D02*
X125584000Y-116528001D01*
G75*
G02*
X125334001Y-116778000I-249999J0D01*
G01*
X124633999Y-116778000D01*
G75*
G02*
X124384000Y-116528001I0J249999D01*
G01*
X124384000Y-115627999D01*
G75*
G02*
X124633999Y-115378000I249999J0D01*
G01*
X125334001Y-115378000D01*
G75*
G02*
X125584000Y-115627999I0J-249999D01*
G01*
G37*
%TD.AperFunction*%
%TO.P,R12,1*%
%TO.N,Net-(C27-Pad2)*%
%TA.AperFunction,SMDPad,CuDef*%
G36*
G01*
X127584000Y-115627999D02*
X127584000Y-116528001D01*
G75*
G02*
X127334001Y-116778000I-249999J0D01*
G01*
X126633999Y-116778000D01*
G75*
G02*
X126384000Y-116528001I0J249999D01*
G01*
X126384000Y-115627999D01*
G75*
G02*
X126633999Y-115378000I249999J0D01*
G01*
X127334001Y-115378000D01*
G75*
G02*
X127584000Y-115627999I0J-249999D01*
G01*
G37*
%TD.AperFunction*%
%TD*%
%TO.P,U1,1*%
%TO.N,Net-(C8-Pad2)*%
%TA.AperFunction,SMDPad,CuDef*%
G36*
G01*
X145360000Y-91857500D02*
X145360000Y-91657500D01*
G75*
G02*
X145460000Y-91557500I100000J0D01*
G01*
X146835000Y-91557500D01*
G75*
G02*
X146935000Y-91657500I0J-100000D01*
G01*
X146935000Y-91857500D01*
G75*
G02*
X146835000Y-91957500I-100000J0D01*
G01*
X145460000Y-91957500D01*
G75*
G02*
X145360000Y-91857500I0J100000D01*
G01*
G37*
%TD.AperFunction*%
%TO.P,U1,2*%
%TO.N,/~ERROR*%
%TA.AperFunction,SMDPad,CuDef*%
G36*
G01*
X145360000Y-92492500D02*
X145360000Y-92292500D01*
G75*
G02*
X145460000Y-92192500I100000J0D01*
G01*
X146835000Y-92192500D01*
G75*
G02*
X146935000Y-92292500I0J-100000D01*
G01*
X146935000Y-92492500D01*
G75*
G02*
X146835000Y-92592500I-100000J0D01*
G01*
X145460000Y-92592500D01*
G75*
G02*
X145360000Y-92492500I0J100000D01*
G01*
G37*
%TD.AperFunction*%
%TO.P,U1,3*%
%TO.N,Net-(C15-Pad2)*%
%TA.AperFunction,SMDPad,CuDef*%
G36*
G01*
X145360000Y-93127500D02*
X145360000Y-92927500D01*
G75*
G02*
X145460000Y-92827500I100000J0D01*
G01*
X146835000Y-92827500D01*
G75*
G02*
X146935000Y-92927500I0J-100000D01*
G01*
X146935000Y-93127500D01*
G75*
G02*
X146835000Y-93227500I-100000J0D01*
G01*
X145460000Y-93227500D01*
G75*
G02*
X145360000Y-93127500I0J100000D01*
G01*
G37*
%TD.AperFunction*%
%TO.P,U1,4*%
%TO.N,/~FAULT*%
%TA.AperFunction,SMDPad,CuDef*%
G36*
G01*
X145360000Y-93762500D02*
X145360000Y-93562500D01*
G75*
G02*
X145460000Y-93462500I100000J0D01*
G01*
X146835000Y-93462500D01*
G75*
G02*
X146935000Y-93562500I0J-100000D01*
G01*
X146935000Y-93762500D01*
G75*
G02*
X146835000Y-93862500I-100000J0D01*
G01*
X145460000Y-93862500D01*
G75*
G02*
X145360000Y-93762500I0J100000D01*
G01*
G37*
%TD.AperFunction*%
%TO.P,U1,5*%
%TO.N,/~RESET*%
%TA.AperFunction,SMDPad,CuDef*%
G36*
G01*
X145360000Y-94397500D02*
X145360000Y-94197500D01*
G75*
G02*
X145460000Y-94097500I100000J0D01*
G01*
X146835000Y-94097500D01*
G75*
G02*
X146935000Y-94197500I0J-100000D01*
G01*
X146935000Y-94397500D01*
G75*
G02*
X146835000Y-94497500I-100000J0D01*
G01*
X145460000Y-94497500D01*
G75*
G02*
X145360000Y-94397500I0J100000D01*
G01*
G37*
%TD.AperFunction*%
%TO.P,U1,6*%
%TO.N,GNDA*%
%TA.AperFunction,SMDPad,CuDef*%
G36*
G01*
X145360000Y-95032500D02*
X145360000Y-94832500D01*
G75*
G02*
X145460000Y-94732500I100000J0D01*
G01*
X146835000Y-94732500D01*
G75*
G02*
X146935000Y-94832500I0J-100000D01*
G01*
X146935000Y-95032500D01*
G75*
G02*
X146835000Y-95132500I-100000J0D01*
G01*
X145460000Y-95132500D01*
G75*
G02*
X145360000Y-95032500I0J100000D01*
G01*
G37*
%TD.AperFunction*%
%TO.P,U1,7*%
%TA.AperFunction,SMDPad,CuDef*%
G36*
G01*
X145360000Y-95667500D02*
X145360000Y-95467500D01*
G75*
G02*
X145460000Y-95367500I100000J0D01*
G01*
X146835000Y-95367500D01*
G75*
G02*
X146935000Y-95467500I0J-100000D01*
G01*
X146935000Y-95667500D01*
G75*
G02*
X146835000Y-95767500I-100000J0D01*
G01*
X145460000Y-95767500D01*
G75*
G02*
X145360000Y-95667500I0J100000D01*
G01*
G37*
%TD.AperFunction*%
%TO.P,U1,8*%
%TO.N,Net-(C9-Pad1)*%
%TA.AperFunction,SMDPad,CuDef*%
G36*
G01*
X145360000Y-96302500D02*
X145360000Y-96102500D01*
G75*
G02*
X145460000Y-96002500I100000J0D01*
G01*
X146835000Y-96002500D01*
G75*
G02*
X146935000Y-96102500I0J-100000D01*
G01*
X146935000Y-96302500D01*
G75*
G02*
X146835000Y-96402500I-100000J0D01*
G01*
X145460000Y-96402500D01*
G75*
G02*
X145360000Y-96302500I0J100000D01*
G01*
G37*
%TD.AperFunction*%
%TO.P,U1,9*%
%TO.N,Net-(C16-Pad2)*%
%TA.AperFunction,SMDPad,CuDef*%
G36*
G01*
X145360000Y-96937500D02*
X145360000Y-96737500D01*
G75*
G02*
X145460000Y-96637500I100000J0D01*
G01*
X146835000Y-96637500D01*
G75*
G02*
X146935000Y-96737500I0J-100000D01*
G01*
X146935000Y-96937500D01*
G75*
G02*
X146835000Y-97037500I-100000J0D01*
G01*
X145460000Y-97037500D01*
G75*
G02*
X145360000Y-96937500I0J100000D01*
G01*
G37*
%TD.AperFunction*%
%TO.P,U1,10*%
%TO.N,GND*%
%TA.AperFunction,SMDPad,CuDef*%
G36*
G01*
X145360000Y-97572500D02*
X145360000Y-97372500D01*
G75*
G02*
X145460000Y-97272500I100000J0D01*
G01*
X146835000Y-97272500D01*
G75*
G02*
X146935000Y-97372500I0J-100000D01*
G01*
X146935000Y-97572500D01*
G75*
G02*
X146835000Y-97672500I-100000J0D01*
G01*
X145460000Y-97672500D01*
G75*
G02*
X145360000Y-97572500I0J100000D01*
G01*
G37*
%TD.AperFunction*%
%TO.P,U1,11*%
%TA.AperFunction,SMDPad,CuDef*%
G36*
G01*
X145360000Y-98207500D02*
X145360000Y-98007500D01*
G75*
G02*
X145460000Y-97907500I100000J0D01*
G01*
X146835000Y-97907500D01*
G75*
G02*
X146935000Y-98007500I0J-100000D01*
G01*
X146935000Y-98207500D01*
G75*
G02*
X146835000Y-98307500I-100000J0D01*
G01*
X145460000Y-98307500D01*
G75*
G02*
X145360000Y-98207500I0J100000D01*
G01*
G37*
%TD.AperFunction*%
%TO.P,U1,12*%
%TO.N,/DVDD*%
%TA.AperFunction,SMDPad,CuDef*%
G36*
G01*
X145360000Y-98842500D02*
X145360000Y-98642500D01*
G75*
G02*
X145460000Y-98542500I100000J0D01*
G01*
X146835000Y-98542500D01*
G75*
G02*
X146935000Y-98642500I0J-100000D01*
G01*
X146935000Y-98842500D01*
G75*
G02*
X146835000Y-98942500I-100000J0D01*
G01*
X145460000Y-98942500D01*
G75*
G02*
X145360000Y-98842500I0J100000D01*
G01*
G37*
%TD.AperFunction*%
%TO.P,U1,13*%
%TO.N,/OSC_IOP*%
%TA.AperFunction,SMDPad,CuDef*%
G36*
G01*
X145360000Y-99477500D02*
X145360000Y-99277500D01*
G75*
G02*
X145460000Y-99177500I100000J0D01*
G01*
X146835000Y-99177500D01*
G75*
G02*
X146935000Y-99277500I0J-100000D01*
G01*
X146935000Y-99477500D01*
G75*
G02*
X146835000Y-99577500I-100000J0D01*
G01*
X145460000Y-99577500D01*
G75*
G02*
X145360000Y-99477500I0J100000D01*
G01*
G37*
%TD.AperFunction*%
%TO.P,U1,14*%
%TO.N,/OSC_IOM*%
%TA.AperFunction,SMDPad,CuDef*%
G36*
G01*
X145360000Y-100112500D02*
X145360000Y-99912500D01*
G75*
G02*
X145460000Y-99812500I100000J0D01*
G01*
X146835000Y-99812500D01*
G75*
G02*
X146935000Y-99912500I0J-100000D01*
G01*
X146935000Y-100112500D01*
G75*
G02*
X146835000Y-100212500I-100000J0D01*
G01*
X145460000Y-100212500D01*
G75*
G02*
X145360000Y-100112500I0J100000D01*
G01*
G37*
%TD.AperFunction*%
%TO.P,U1,15*%
%TO.N,Net-(JP1-Pad2)*%
%TA.AperFunction,SMDPad,CuDef*%
G36*
G01*
X145360000Y-100747500D02*
X145360000Y-100547500D01*
G75*
G02*
X145460000Y-100447500I100000J0D01*
G01*
X146835000Y-100447500D01*
G75*
G02*
X146935000Y-100547500I0J-100000D01*
G01*
X146935000Y-100747500D01*
G75*
G02*
X146835000Y-100847500I-100000J0D01*
G01*
X145460000Y-100847500D01*
G75*
G02*
X145360000Y-100747500I0J100000D01*
G01*
G37*
%TD.AperFunction*%
%TO.P,U1,16*%
%TO.N,Net-(R4-Pad2)*%
%TA.AperFunction,SMDPad,CuDef*%
G36*
G01*
X145360000Y-101382500D02*
X145360000Y-101182500D01*
G75*
G02*
X145460000Y-101082500I100000J0D01*
G01*
X146835000Y-101082500D01*
G75*
G02*
X146935000Y-101182500I0J-100000D01*
G01*
X146935000Y-101382500D01*
G75*
G02*
X146835000Y-101482500I-100000J0D01*
G01*
X145460000Y-101482500D01*
G75*
G02*
X145360000Y-101382500I0J100000D01*
G01*
G37*
%TD.AperFunction*%
%TO.P,U1,17*%
%TO.N,Net-(C21-Pad1)*%
%TA.AperFunction,SMDPad,CuDef*%
G36*
G01*
X145360000Y-102017500D02*
X145360000Y-101817500D01*
G75*
G02*
X145460000Y-101717500I100000J0D01*
G01*
X146835000Y-101717500D01*
G75*
G02*
X146935000Y-101817500I0J-100000D01*
G01*
X146935000Y-102017500D01*
G75*
G02*
X146835000Y-102117500I-100000J0D01*
G01*
X145460000Y-102117500D01*
G75*
G02*
X145360000Y-102017500I0J100000D01*
G01*
G37*
%TD.AperFunction*%
%TO.P,U1,18*%
%TO.N,Net-(C20-Pad1)*%
%TA.AperFunction,SMDPad,CuDef*%
G36*
G01*
X145360000Y-102652500D02*
X145360000Y-102452500D01*
G75*
G02*
X145460000Y-102352500I100000J0D01*
G01*
X146835000Y-102352500D01*
G75*
G02*
X146935000Y-102452500I0J-100000D01*
G01*
X146935000Y-102652500D01*
G75*
G02*
X146835000Y-102752500I-100000J0D01*
G01*
X145460000Y-102752500D01*
G75*
G02*
X145360000Y-102652500I0J100000D01*
G01*
G37*
%TD.AperFunction*%
%TO.P,U1,19*%
%TO.N,/DVDD*%
%TA.AperFunction,SMDPad,CuDef*%
G36*
G01*
X145360000Y-103287500D02*
X145360000Y-103087500D01*
G75*
G02*
X145460000Y-102987500I100000J0D01*
G01*
X146835000Y-102987500D01*
G75*
G02*
X146935000Y-103087500I0J-100000D01*
G01*
X146935000Y-103287500D01*
G75*
G02*
X146835000Y-103387500I-100000J0D01*
G01*
X145460000Y-103387500D01*
G75*
G02*
X145360000Y-103287500I0J100000D01*
G01*
G37*
%TD.AperFunction*%
%TO.P,U1,20*%
%TO.N,GND*%
%TA.AperFunction,SMDPad,CuDef*%
G36*
G01*
X145360000Y-103922500D02*
X145360000Y-103722500D01*
G75*
G02*
X145460000Y-103622500I100000J0D01*
G01*
X146835000Y-103622500D01*
G75*
G02*
X146935000Y-103722500I0J-100000D01*
G01*
X146935000Y-103922500D01*
G75*
G02*
X146835000Y-104022500I-100000J0D01*
G01*
X145460000Y-104022500D01*
G75*
G02*
X145360000Y-103922500I0J100000D01*
G01*
G37*
%TD.AperFunction*%
%TO.P,U1,21*%
%TO.N,Net-(C14-Pad2)*%
%TA.AperFunction,SMDPad,CuDef*%
G36*
G01*
X145360000Y-104557500D02*
X145360000Y-104357500D01*
G75*
G02*
X145460000Y-104257500I100000J0D01*
G01*
X146835000Y-104257500D01*
G75*
G02*
X146935000Y-104357500I0J-100000D01*
G01*
X146935000Y-104557500D01*
G75*
G02*
X146835000Y-104657500I-100000J0D01*
G01*
X145460000Y-104657500D01*
G75*
G02*
X145360000Y-104557500I0J100000D01*
G01*
G37*
%TD.AperFunction*%
%TO.P,U1,22*%
%TO.N,Net-(C6-Pad2)*%
%TA.AperFunction,SMDPad,CuDef*%
G36*
G01*
X145360000Y-105192500D02*
X145360000Y-104992500D01*
G75*
G02*
X145460000Y-104892500I100000J0D01*
G01*
X146835000Y-104892500D01*
G75*
G02*
X146935000Y-104992500I0J-100000D01*
G01*
X146935000Y-105192500D01*
G75*
G02*
X146835000Y-105292500I-100000J0D01*
G01*
X145460000Y-105292500D01*
G75*
G02*
X145360000Y-105192500I0J100000D01*
G01*
G37*
%TD.AperFunction*%
%TO.P,U1,23*%
%TO.N,Net-(C22-Pad1)*%
%TA.AperFunction,SMDPad,CuDef*%
G36*
G01*
X152785000Y-105192500D02*
X152785000Y-104992500D01*
G75*
G02*
X152885000Y-104892500I100000J0D01*
G01*
X154260000Y-104892500D01*
G75*
G02*
X154360000Y-104992500I0J-100000D01*
G01*
X154360000Y-105192500D01*
G75*
G02*
X154260000Y-105292500I-100000J0D01*
G01*
X152885000Y-105292500D01*
G75*
G02*
X152785000Y-105192500I0J100000D01*
G01*
G37*
%TD.AperFunction*%
%TO.P,U1,24*%
%TO.N,Net-(C23-Pad1)*%
%TA.AperFunction,SMDPad,CuDef*%
G36*
G01*
X152785000Y-104557500D02*
X152785000Y-104357500D01*
G75*
G02*
X152885000Y-104257500I100000J0D01*
G01*
X154260000Y-104257500D01*
G75*
G02*
X154360000Y-104357500I0J-100000D01*
G01*
X154360000Y-104557500D01*
G75*
G02*
X154260000Y-104657500I-100000J0D01*
G01*
X152885000Y-104657500D01*
G75*
G02*
X152785000Y-104557500I0J100000D01*
G01*
G37*
%TD.AperFunction*%
%TO.P,U1,25*%
%TO.N,GND*%
%TA.AperFunction,SMDPad,CuDef*%
G36*
G01*
X152785000Y-103922500D02*
X152785000Y-103722500D01*
G75*
G02*
X152885000Y-103622500I100000J0D01*
G01*
X154260000Y-103622500D01*
G75*
G02*
X154360000Y-103722500I0J-100000D01*
G01*
X154360000Y-103922500D01*
G75*
G02*
X154260000Y-104022500I-100000J0D01*
G01*
X152885000Y-104022500D01*
G75*
G02*
X152785000Y-103922500I0J100000D01*
G01*
G37*
%TD.AperFunction*%
%TO.P,U1,26*%
%TA.AperFunction,SMDPad,CuDef*%
G36*
G01*
X152785000Y-103287500D02*
X152785000Y-103087500D01*
G75*
G02*
X152885000Y-102987500I100000J0D01*
G01*
X154260000Y-102987500D01*
G75*
G02*
X154360000Y-103087500I0J-100000D01*
G01*
X154360000Y-103287500D01*
G75*
G02*
X154260000Y-103387500I-100000J0D01*
G01*
X152885000Y-103387500D01*
G75*
G02*
X152785000Y-103287500I0J100000D01*
G01*
G37*
%TD.AperFunction*%
%TO.P,U1,27*%
%TO.N,/OUT_A*%
%TA.AperFunction,SMDPad,CuDef*%
G36*
G01*
X152785000Y-102652500D02*
X152785000Y-102452500D01*
G75*
G02*
X152885000Y-102352500I100000J0D01*
G01*
X154260000Y-102352500D01*
G75*
G02*
X154360000Y-102452500I0J-100000D01*
G01*
X154360000Y-102652500D01*
G75*
G02*
X154260000Y-102752500I-100000J0D01*
G01*
X152885000Y-102752500D01*
G75*
G02*
X152785000Y-102652500I0J100000D01*
G01*
G37*
%TD.AperFunction*%
%TO.P,U1,28*%
%TA.AperFunction,SMDPad,CuDef*%
G36*
G01*
X152785000Y-102017500D02*
X152785000Y-101817500D01*
G75*
G02*
X152885000Y-101717500I100000J0D01*
G01*
X154260000Y-101717500D01*
G75*
G02*
X154360000Y-101817500I0J-100000D01*
G01*
X154360000Y-102017500D01*
G75*
G02*
X154260000Y-102117500I-100000J0D01*
G01*
X152885000Y-102117500D01*
G75*
G02*
X152785000Y-102017500I0J100000D01*
G01*
G37*
%TD.AperFunction*%
%TO.P,U1,29*%
%TO.N,/PVDD*%
%TA.AperFunction,SMDPad,CuDef*%
G36*
G01*
X152785000Y-101382500D02*
X152785000Y-101182500D01*
G75*
G02*
X152885000Y-101082500I100000J0D01*
G01*
X154260000Y-101082500D01*
G75*
G02*
X154360000Y-101182500I0J-100000D01*
G01*
X154360000Y-101382500D01*
G75*
G02*
X154260000Y-101482500I-100000J0D01*
G01*
X152885000Y-101482500D01*
G75*
G02*
X152785000Y-101382500I0J100000D01*
G01*
G37*
%TD.AperFunction*%
%TO.P,U1,30*%
%TA.AperFunction,SMDPad,CuDef*%
G36*
G01*
X152785000Y-100747500D02*
X152785000Y-100547500D01*
G75*
G02*
X152885000Y-100447500I100000J0D01*
G01*
X154260000Y-100447500D01*
G75*
G02*
X154360000Y-100547500I0J-100000D01*
G01*
X154360000Y-100747500D01*
G75*
G02*
X154260000Y-100847500I-100000J0D01*
G01*
X152885000Y-100847500D01*
G75*
G02*
X152785000Y-100747500I0J100000D01*
G01*
G37*
%TD.AperFunction*%
%TO.P,U1,31*%
%TA.AperFunction,SMDPad,CuDef*%
G36*
G01*
X152785000Y-100112500D02*
X152785000Y-99912500D01*
G75*
G02*
X152885000Y-99812500I100000J0D01*
G01*
X154260000Y-99812500D01*
G75*
G02*
X154360000Y-99912500I0J-100000D01*
G01*
X154360000Y-100112500D01*
G75*
G02*
X154260000Y-100212500I-100000J0D01*
G01*
X152885000Y-100212500D01*
G75*
G02*
X152785000Y-100112500I0J100000D01*
G01*
G37*
%TD.AperFunction*%
%TO.P,U1,32*%
%TO.N,/OUT_B*%
%TA.AperFunction,SMDPad,CuDef*%
G36*
G01*
X152785000Y-99477500D02*
X152785000Y-99277500D01*
G75*
G02*
X152885000Y-99177500I100000J0D01*
G01*
X154260000Y-99177500D01*
G75*
G02*
X154360000Y-99277500I0J-100000D01*
G01*
X154360000Y-99477500D01*
G75*
G02*
X154260000Y-99577500I-100000J0D01*
G01*
X152885000Y-99577500D01*
G75*
G02*
X152785000Y-99477500I0J100000D01*
G01*
G37*
%TD.AperFunction*%
%TO.P,U1,33*%
%TO.N,GND*%
%TA.AperFunction,SMDPad,CuDef*%
G36*
G01*
X152785000Y-98842500D02*
X152785000Y-98642500D01*
G75*
G02*
X152885000Y-98542500I100000J0D01*
G01*
X154260000Y-98542500D01*
G75*
G02*
X154360000Y-98642500I0J-100000D01*
G01*
X154360000Y-98842500D01*
G75*
G02*
X154260000Y-98942500I-100000J0D01*
G01*
X152885000Y-98942500D01*
G75*
G02*
X152785000Y-98842500I0J100000D01*
G01*
G37*
%TD.AperFunction*%
%TO.P,U1,34*%
%TA.AperFunction,SMDPad,CuDef*%
G36*
G01*
X152785000Y-98207500D02*
X152785000Y-98007500D01*
G75*
G02*
X152885000Y-97907500I100000J0D01*
G01*
X154260000Y-97907500D01*
G75*
G02*
X154360000Y-98007500I0J-100000D01*
G01*
X154360000Y-98207500D01*
G75*
G02*
X154260000Y-98307500I-100000J0D01*
G01*
X152885000Y-98307500D01*
G75*
G02*
X152785000Y-98207500I0J100000D01*
G01*
G37*
%TD.AperFunction*%
%TO.P,U1,35*%
%TO.N,/OUT_C*%
%TA.AperFunction,SMDPad,CuDef*%
G36*
G01*
X152785000Y-97572500D02*
X152785000Y-97372500D01*
G75*
G02*
X152885000Y-97272500I100000J0D01*
G01*
X154260000Y-97272500D01*
G75*
G02*
X154360000Y-97372500I0J-100000D01*
G01*
X154360000Y-97572500D01*
G75*
G02*
X154260000Y-97672500I-100000J0D01*
G01*
X152885000Y-97672500D01*
G75*
G02*
X152785000Y-97572500I0J100000D01*
G01*
G37*
%TD.AperFunction*%
%TO.P,U1,36*%
%TO.N,/PVDD*%
%TA.AperFunction,SMDPad,CuDef*%
G36*
G01*
X152785000Y-96937500D02*
X152785000Y-96737500D01*
G75*
G02*
X152885000Y-96637500I100000J0D01*
G01*
X154260000Y-96637500D01*
G75*
G02*
X154360000Y-96737500I0J-100000D01*
G01*
X154360000Y-96937500D01*
G75*
G02*
X154260000Y-97037500I-100000J0D01*
G01*
X152885000Y-97037500D01*
G75*
G02*
X152785000Y-96937500I0J100000D01*
G01*
G37*
%TD.AperFunction*%
%TO.P,U1,37*%
%TA.AperFunction,SMDPad,CuDef*%
G36*
G01*
X152785000Y-96302500D02*
X152785000Y-96102500D01*
G75*
G02*
X152885000Y-96002500I100000J0D01*
G01*
X154260000Y-96002500D01*
G75*
G02*
X154360000Y-96102500I0J-100000D01*
G01*
X154360000Y-96302500D01*
G75*
G02*
X154260000Y-96402500I-100000J0D01*
G01*
X152885000Y-96402500D01*
G75*
G02*
X152785000Y-96302500I0J100000D01*
G01*
G37*
%TD.AperFunction*%
%TO.P,U1,38*%
%TA.AperFunction,SMDPad,CuDef*%
G36*
G01*
X152785000Y-95667500D02*
X152785000Y-95467500D01*
G75*
G02*
X152885000Y-95367500I100000J0D01*
G01*
X154260000Y-95367500D01*
G75*
G02*
X154360000Y-95467500I0J-100000D01*
G01*
X154360000Y-95667500D01*
G75*
G02*
X154260000Y-95767500I-100000J0D01*
G01*
X152885000Y-95767500D01*
G75*
G02*
X152785000Y-95667500I0J100000D01*
G01*
G37*
%TD.AperFunction*%
%TO.P,U1,39*%
%TO.N,/OUT_D*%
%TA.AperFunction,SMDPad,CuDef*%
G36*
G01*
X152785000Y-95032500D02*
X152785000Y-94832500D01*
G75*
G02*
X152885000Y-94732500I100000J0D01*
G01*
X154260000Y-94732500D01*
G75*
G02*
X154360000Y-94832500I0J-100000D01*
G01*
X154360000Y-95032500D01*
G75*
G02*
X154260000Y-95132500I-100000J0D01*
G01*
X152885000Y-95132500D01*
G75*
G02*
X152785000Y-95032500I0J100000D01*
G01*
G37*
%TD.AperFunction*%
%TO.P,U1,40*%
%TA.AperFunction,SMDPad,CuDef*%
G36*
G01*
X152785000Y-94397500D02*
X152785000Y-94197500D01*
G75*
G02*
X152885000Y-94097500I100000J0D01*
G01*
X154260000Y-94097500D01*
G75*
G02*
X154360000Y-94197500I0J-100000D01*
G01*
X154360000Y-94397500D01*
G75*
G02*
X154260000Y-94497500I-100000J0D01*
G01*
X152885000Y-94497500D01*
G75*
G02*
X152785000Y-94397500I0J100000D01*
G01*
G37*
%TD.AperFunction*%
%TO.P,U1,41*%
%TO.N,GND*%
%TA.AperFunction,SMDPad,CuDef*%
G36*
G01*
X152785000Y-93762500D02*
X152785000Y-93562500D01*
G75*
G02*
X152885000Y-93462500I100000J0D01*
G01*
X154260000Y-93462500D01*
G75*
G02*
X154360000Y-93562500I0J-100000D01*
G01*
X154360000Y-93762500D01*
G75*
G02*
X154260000Y-93862500I-100000J0D01*
G01*
X152885000Y-93862500D01*
G75*
G02*
X152785000Y-93762500I0J100000D01*
G01*
G37*
%TD.AperFunction*%
%TO.P,U1,42*%
%TA.AperFunction,SMDPad,CuDef*%
G36*
G01*
X152785000Y-93127500D02*
X152785000Y-92927500D01*
G75*
G02*
X152885000Y-92827500I100000J0D01*
G01*
X154260000Y-92827500D01*
G75*
G02*
X154360000Y-92927500I0J-100000D01*
G01*
X154360000Y-93127500D01*
G75*
G02*
X154260000Y-93227500I-100000J0D01*
G01*
X152885000Y-93227500D01*
G75*
G02*
X152785000Y-93127500I0J100000D01*
G01*
G37*
%TD.AperFunction*%
%TO.P,U1,43*%
%TO.N,Net-(C24-Pad1)*%
%TA.AperFunction,SMDPad,CuDef*%
G36*
G01*
X152785000Y-92492500D02*
X152785000Y-92292500D01*
G75*
G02*
X152885000Y-92192500I100000J0D01*
G01*
X154260000Y-92192500D01*
G75*
G02*
X154360000Y-92292500I0J-100000D01*
G01*
X154360000Y-92492500D01*
G75*
G02*
X154260000Y-92592500I-100000J0D01*
G01*
X152885000Y-92592500D01*
G75*
G02*
X152785000Y-92492500I0J100000D01*
G01*
G37*
%TD.AperFunction*%
%TO.P,U1,44*%
%TO.N,Net-(C25-Pad1)*%
%TA.AperFunction,SMDPad,CuDef*%
G36*
G01*
X152785000Y-91857500D02*
X152785000Y-91657500D01*
G75*
G02*
X152885000Y-91557500I100000J0D01*
G01*
X154260000Y-91557500D01*
G75*
G02*
X154360000Y-91657500I0J-100000D01*
G01*
X154360000Y-91857500D01*
G75*
G02*
X154260000Y-91957500I-100000J0D01*
G01*
X152885000Y-91957500D01*
G75*
G02*
X152785000Y-91857500I0J100000D01*
G01*
G37*
%TD.AperFunction*%
%TD*%
D14*
%TO.P,J2,1*%
%TO.N,GND*%
X154940000Y-127000000D03*
D15*
%TO.P,J2,2*%
%TO.N,/+12V*%
X157480000Y-127000000D03*
%TO.P,J2,3*%
X160020000Y-127000000D03*
%TO.P,J2,4*%
%TO.N,/PVDD*%
X162560000Y-127000000D03*
%TO.P,J2,5*%
X165100000Y-127000000D03*
%TO.P,J2,6*%
%TO.N,GND*%
X167640000Y-127000000D03*
%TD*%
D12*
%TO.P,C20,1*%
%TO.N,Net-(C20-Pad1)*%
X155956000Y-108966000D03*
%TO.P,C20,2*%
%TO.N,/FB_A*%
X128456000Y-108966000D03*
%TD*%
%TO.P,C21,2*%
%TO.N,/FB_B*%
X128456000Y-87884000D03*
%TO.P,C21,1*%
%TO.N,Net-(C21-Pad1)*%
X155956000Y-87884000D03*
%TD*%
%TO.P,R1,2*%
%TO.N,/+12V*%
%TA.AperFunction,SMDPad,CuDef*%
G36*
G01*
X141668000Y-107286999D02*
X141668000Y-110137001D01*
G75*
G02*
X141418001Y-110387000I-249999J0D01*
G01*
X140517999Y-110387000D01*
G75*
G02*
X140268000Y-110137001I0J249999D01*
G01*
X140268000Y-107286999D01*
G75*
G02*
X140517999Y-107037000I249999J0D01*
G01*
X141418001Y-107037000D01*
G75*
G02*
X141668000Y-107286999I0J-249999D01*
G01*
G37*
%TD.AperFunction*%
%TO.P,R1,1*%
%TO.N,Net-(C6-Pad2)*%
%TA.AperFunction,SMDPad,CuDef*%
G36*
G01*
X147768000Y-107286999D02*
X147768000Y-110137001D01*
G75*
G02*
X147518001Y-110387000I-249999J0D01*
G01*
X146617999Y-110387000D01*
G75*
G02*
X146368000Y-110137001I0J249999D01*
G01*
X146368000Y-107286999D01*
G75*
G02*
X146617999Y-107037000I249999J0D01*
G01*
X147518001Y-107037000D01*
G75*
G02*
X147768000Y-107286999I0J-249999D01*
G01*
G37*
%TD.AperFunction*%
%TD*%
%TO.P,R2,1*%
%TO.N,Net-(C8-Pad2)*%
%TA.AperFunction,SMDPad,CuDef*%
G36*
G01*
X147768000Y-85442999D02*
X147768000Y-88293001D01*
G75*
G02*
X147518001Y-88543000I-249999J0D01*
G01*
X146617999Y-88543000D01*
G75*
G02*
X146368000Y-88293001I0J249999D01*
G01*
X146368000Y-85442999D01*
G75*
G02*
X146617999Y-85193000I249999J0D01*
G01*
X147518001Y-85193000D01*
G75*
G02*
X147768000Y-85442999I0J-249999D01*
G01*
G37*
%TD.AperFunction*%
%TO.P,R2,2*%
%TO.N,/+12V*%
%TA.AperFunction,SMDPad,CuDef*%
G36*
G01*
X141668000Y-85442999D02*
X141668000Y-88293001D01*
G75*
G02*
X141418001Y-88543000I-249999J0D01*
G01*
X140517999Y-88543000D01*
G75*
G02*
X140268000Y-88293001I0J249999D01*
G01*
X140268000Y-85442999D01*
G75*
G02*
X140517999Y-85193000I249999J0D01*
G01*
X141418001Y-85193000D01*
G75*
G02*
X141668000Y-85442999I0J-249999D01*
G01*
G37*
%TD.AperFunction*%
%TD*%
D18*
%TO.P,U2,1*%
%TO.N,/FB_A*%
X128905000Y-103378000D03*
D19*
%TO.P,U2,5*%
%TO.N,GNDA*%
X136525000Y-95758000D03*
%TO.P,U2,2*%
%TO.N,Net-(C19-Pad1)*%
X131445000Y-103378000D03*
%TO.P,U2,6*%
%TO.N,Net-(C18-Pad1)*%
X133985000Y-95758000D03*
%TO.P,U2,3*%
%TO.N,GNDA*%
X133985000Y-103378000D03*
%TO.P,U2,7*%
%TO.N,/FB_B*%
X131445000Y-95758000D03*
%TO.P,U2,4*%
%TO.N,VEE*%
X136525000Y-103378000D03*
%TO.P,U2,8*%
%TO.N,VCC*%
X128905000Y-95758000D03*
%TD*%
D20*
%TO.P,J4,1*%
%TO.N,/SPEAKER+*%
X191897000Y-86106000D03*
%TO.P,J4,3*%
%TO.N,/SPEAKER-*%
X191897000Y-116076000D03*
%TO.P,J4,2*%
%TO.N,GND*%
X191897000Y-101096000D03*
%TD*%
D21*
%TO.P,J,2*%
%TO.N,Net-(JP1-Pad2)*%
X141209000Y-98552000D03*
%TO.P,J,1*%
%TO.N,/DVDD*%
X142509000Y-98552000D03*
%TD*%
D22*
%TO.N,GNDA*%
X123190000Y-86106000D03*
X124206000Y-86106000D03*
X125222000Y-86106000D03*
X126238000Y-86106000D03*
X127254000Y-86106000D03*
X129286000Y-86106000D03*
X132334000Y-86106000D03*
X133350000Y-86106000D03*
X134366000Y-86106000D03*
X135382000Y-86106000D03*
X136398000Y-86106000D03*
X137414000Y-86106000D03*
X138176000Y-86868000D03*
X138176000Y-87884000D03*
X138176000Y-88900000D03*
X138176000Y-89916000D03*
X138176000Y-90932000D03*
X138176000Y-91948000D03*
X138176000Y-94996000D03*
X138176000Y-96012000D03*
X138176000Y-97028000D03*
X138176000Y-98044000D03*
X138176000Y-99060000D03*
X138176000Y-100076000D03*
X138176000Y-101092000D03*
X138176000Y-102108000D03*
X138176000Y-103124000D03*
X138176000Y-104140000D03*
X138176000Y-105156000D03*
X138176000Y-106172000D03*
X138176000Y-107188000D03*
X138176000Y-108204000D03*
X138176000Y-109220000D03*
X138176000Y-110236000D03*
X138176000Y-111252000D03*
X137160000Y-111252000D03*
X136144000Y-111252000D03*
X135128000Y-111252000D03*
X134112000Y-111252000D03*
X133096000Y-111252000D03*
X131064000Y-111252000D03*
X130048000Y-111252000D03*
X129032000Y-111252000D03*
X128016000Y-111252000D03*
X127000000Y-111252000D03*
X125984000Y-111252000D03*
X124968000Y-111252000D03*
X123952000Y-111252000D03*
%TO.N,*%
X123444000Y-112268000D03*
X124460000Y-112268000D03*
X125476000Y-112268000D03*
X126492000Y-112268000D03*
X127508000Y-112268000D03*
X128524000Y-112268000D03*
X129540000Y-112268000D03*
X130556000Y-112268000D03*
X132588000Y-112268000D03*
X133604000Y-112268000D03*
X134620000Y-112268000D03*
X135636000Y-112268000D03*
X136652000Y-112268000D03*
X137922000Y-112268000D03*
X139192000Y-112268000D03*
X139192000Y-110744000D03*
X139192000Y-109728000D03*
X139192000Y-108712000D03*
X139192000Y-106680000D03*
X139192000Y-107696000D03*
X139192000Y-105664000D03*
X139192000Y-104648000D03*
X139192000Y-103632000D03*
X139192000Y-102616000D03*
X139192000Y-101600000D03*
X139192000Y-100584000D03*
X139192000Y-99568000D03*
X139192000Y-98552000D03*
X139192000Y-97536000D03*
X139192000Y-96520000D03*
X139192000Y-95504000D03*
X139192000Y-94488000D03*
X139192000Y-92456000D03*
X139192000Y-91440000D03*
X139192000Y-90424000D03*
X139192000Y-89408000D03*
X139192000Y-88392000D03*
X139192000Y-87376000D03*
X139192000Y-86106000D03*
X138176000Y-85090000D03*
X136906000Y-85090000D03*
X135890000Y-85090000D03*
X134874000Y-85090000D03*
X133858000Y-85090000D03*
X132842000Y-85090000D03*
X131826000Y-85090000D03*
X128778000Y-85090000D03*
X127762000Y-85090000D03*
X126746000Y-85090000D03*
X125730000Y-85090000D03*
X124714000Y-85090000D03*
X123698000Y-85090000D03*
X139192000Y-85090000D03*
X129794000Y-85090000D03*
%TO.N,GNDA*%
X138176000Y-92964000D03*
X124968000Y-116078000D03*
X127762000Y-81280000D03*
%TO.N,/+12V*%
X139954000Y-117348000D03*
X139954000Y-116332000D03*
X140970000Y-116332000D03*
X140970000Y-117348000D03*
X140970000Y-118364000D03*
%TO.N,/OUT_D*%
X152019000Y-90551000D03*
X151130000Y-90551000D03*
%TO.N,/OUT_A*%
X154051000Y-106299000D03*
X153162000Y-106807000D03*
%TO.N,/OUT_B*%
X160274000Y-99060000D03*
X159258000Y-99060000D03*
X167005000Y-95250000D03*
X164211000Y-96774000D03*
X165735000Y-96774000D03*
X167132000Y-96774000D03*
X167640000Y-94488000D03*
X167640000Y-96012000D03*
X166370000Y-96012000D03*
X164973000Y-96012000D03*
X163576000Y-96012000D03*
%TO.N,/OUT_A*%
X167005000Y-104902000D03*
X165735000Y-104902000D03*
X164465000Y-104902000D03*
%TO.N,/SPEAKER+*%
X177038000Y-81534000D03*
X180848000Y-83058000D03*
X178308000Y-81534000D03*
X179578000Y-81534000D03*
X178308000Y-83058000D03*
X180848000Y-81534000D03*
X179578000Y-83058000D03*
X177038000Y-83058000D03*
X180340000Y-82296000D03*
X177800000Y-82296000D03*
X179070000Y-82296000D03*
%TO.N,/SPEAKER-*%
X177038000Y-110744000D03*
X180848000Y-112268000D03*
X178308000Y-110744000D03*
X179578000Y-110744000D03*
X178308000Y-112268000D03*
X180848000Y-110744000D03*
X179578000Y-112268000D03*
X177038000Y-112268000D03*
X180340000Y-111506000D03*
X177800000Y-111506000D03*
X179070000Y-111506000D03*
X163830000Y-110236000D03*
X167640000Y-111760000D03*
X165100000Y-110236000D03*
X166370000Y-110236000D03*
X165100000Y-111760000D03*
X167640000Y-110236000D03*
X166370000Y-111760000D03*
X163830000Y-111760000D03*
X167132000Y-110998000D03*
X164592000Y-110998000D03*
X165862000Y-110998000D03*
%TO.N,/SPEAKER+*%
X167640000Y-86614000D03*
X165100000Y-85090000D03*
X166370000Y-85090000D03*
X165100000Y-86614000D03*
X167640000Y-85090000D03*
X166370000Y-86614000D03*
X163830000Y-86614000D03*
X167132000Y-85852000D03*
X164592000Y-85852000D03*
X165862000Y-85852000D03*
%TO.N,/OUT_D*%
X167132000Y-91948000D03*
X165862000Y-91948000D03*
X164592000Y-91948000D03*
%TO.N,GND*%
X176022000Y-101600000D03*
X180086000Y-100076000D03*
X178054000Y-101600000D03*
X178054000Y-100076000D03*
X180086000Y-101600000D03*
X181102000Y-100838000D03*
X182118000Y-100076000D03*
X182118000Y-101600000D03*
X177038000Y-100838000D03*
X176022000Y-100076000D03*
X179070000Y-100838000D03*
X176022000Y-92202000D03*
X178054000Y-92202000D03*
X180086000Y-92202000D03*
X182118000Y-92202000D03*
X180086000Y-93726000D03*
X178054000Y-93726000D03*
X181102000Y-92964000D03*
X179070000Y-92964000D03*
X177038000Y-92964000D03*
X176022000Y-93726000D03*
X141224000Y-105918000D03*
X141224000Y-104902000D03*
X141732000Y-102616000D03*
X142240000Y-101854000D03*
X140970000Y-100711000D03*
X140462000Y-99949000D03*
X140208000Y-97155000D03*
X140843000Y-96393000D03*
X140335000Y-95250000D03*
X140716000Y-94488000D03*
X140716000Y-89662000D03*
X141224000Y-90678000D03*
%TO.N,/+12V*%
X141224000Y-86614000D03*
X141224000Y-85598000D03*
X141224000Y-87884000D03*
X140462000Y-86106000D03*
X140462000Y-87376000D03*
X141224000Y-107442000D03*
X141224000Y-109728000D03*
X141224000Y-108458000D03*
X139954000Y-119380000D03*
X139954000Y-120396000D03*
X140970000Y-120396000D03*
X140970000Y-119380000D03*
%TO.N,/PVDD*%
X152146000Y-96012000D03*
X151130000Y-97028000D03*
X152146000Y-97028000D03*
X150114000Y-97028000D03*
X150114000Y-96012000D03*
X151130000Y-96012000D03*
X152146000Y-101092000D03*
X150114000Y-101092000D03*
X152146000Y-100076000D03*
X151130000Y-101092000D03*
X151130000Y-100076000D03*
X150114000Y-100076000D03*
%TO.N,GND*%
X151130000Y-105156000D03*
X150114000Y-105156000D03*
X152146000Y-98044000D03*
X151130000Y-98044000D03*
X150114000Y-98044000D03*
X150114000Y-99060000D03*
X151130000Y-99060000D03*
X152146000Y-99060000D03*
X151130000Y-91948000D03*
X150114000Y-91948000D03*
X151130000Y-104140000D03*
X152146000Y-105156000D03*
X151130000Y-92964000D03*
X152146000Y-92964000D03*
X150114000Y-92964000D03*
X152146000Y-91948000D03*
X152146000Y-104140000D03*
X182118000Y-93726000D03*
X142875000Y-120015000D03*
X144145000Y-120015000D03*
X144145000Y-121285000D03*
X142875000Y-121285000D03*
X142875000Y-122555000D03*
X144145000Y-122555000D03*
X142875000Y-123825000D03*
X144145000Y-123825000D03*
X144145000Y-125095000D03*
X142875000Y-125095000D03*
X141605000Y-123825000D03*
X141605000Y-125095000D03*
X141605000Y-122555000D03*
X140335000Y-122555000D03*
X140335000Y-123825000D03*
X140335000Y-125095000D03*
X154305000Y-118745000D03*
X155575000Y-118745000D03*
X156845000Y-118745000D03*
X158115000Y-118745000D03*
X159385000Y-118745000D03*
X160655000Y-118745000D03*
X161925000Y-118745000D03*
X163195000Y-118745000D03*
X164465000Y-118745000D03*
X165735000Y-118745000D03*
X167005000Y-118745000D03*
X168275000Y-118745000D03*
X169545000Y-118745000D03*
X170815000Y-118745000D03*
X172085000Y-118745000D03*
X173355000Y-118745000D03*
X174625000Y-118745000D03*
X170815000Y-117475000D03*
X169545000Y-117475000D03*
X168275000Y-117475000D03*
X167005000Y-117475000D03*
X165735000Y-117475000D03*
X164465000Y-117475000D03*
X163195000Y-117475000D03*
X161925000Y-117475000D03*
X160655000Y-117475000D03*
X160655000Y-116205000D03*
X161925000Y-116205000D03*
X156845000Y-116205000D03*
X156845000Y-117475000D03*
X155575000Y-117475000D03*
X155575000Y-116205000D03*
X170815000Y-116205000D03*
X150495000Y-111760000D03*
X151765000Y-111760000D03*
%TO.N,VCC*%
X129286000Y-93980000D03*
X129286000Y-92837000D03*
X129286000Y-91694000D03*
X129286000Y-90551000D03*
%TO.N,Net-(C14-Pad2)*%
X144780000Y-104902000D03*
X144780000Y-105918000D03*
X150238000Y-118110000D03*
%TO.N,/+12V*%
X140019000Y-118429000D03*
%TO.N,Net-(C19-Pad1)*%
X130958500Y-106299000D03*
X123841000Y-106299000D03*
X123841000Y-103759000D03*
%TO.N,/FB_A*%
X131826000Y-83333500D03*
X133874000Y-83312000D03*
X132842000Y-83312000D03*
%TO.N,/FB_B*%
X130826000Y-114046000D03*
X129794000Y-114046000D03*
X128778000Y-114024500D03*
%TO.N,Net-(C20-Pad1)*%
X147828000Y-102616000D03*
%TO.N,Net-(C21-Pad1)*%
X147828000Y-100330000D03*
%TO.N,/OUT_A*%
X163830000Y-104140000D03*
X167640000Y-104140000D03*
X166370000Y-104140000D03*
X165100000Y-104140000D03*
X152146000Y-103124000D03*
X163830000Y-105664000D03*
X150114000Y-103124000D03*
X165100000Y-105664000D03*
X167640000Y-105664000D03*
X151130000Y-102108000D03*
X150114000Y-102108000D03*
X151130000Y-103124000D03*
X152146000Y-102108000D03*
X166370000Y-105664000D03*
%TO.N,/OUT_B*%
X155194000Y-99060000D03*
X156210000Y-99060000D03*
X157226000Y-99060000D03*
X158242000Y-99060000D03*
%TO.N,/OUT_D*%
X152146000Y-93980000D03*
X152146000Y-94996000D03*
X151130000Y-94996000D03*
X151130000Y-93980000D03*
X150114000Y-94996000D03*
X150114000Y-93980000D03*
X165100000Y-91186000D03*
X166370000Y-91186000D03*
X167640000Y-91186000D03*
X165100000Y-92710000D03*
X166370000Y-92710000D03*
X167640000Y-92710000D03*
X163830000Y-91186000D03*
X163830000Y-92710000D03*
%TO.N,/OSC_IOP*%
X144145000Y-99060000D03*
%TO.N,/OSC_IOM*%
X144907000Y-99949000D03*
%TO.N,/~ERROR*%
X144526000Y-91694000D03*
%TO.N,/~FAULT*%
X140970000Y-91694000D03*
%TO.N,/~RESET*%
X140970000Y-92710000D03*
%TO.N,GNDA*%
X127381000Y-92036500D03*
X126453500Y-92964000D03*
X134598500Y-108839000D03*
X133985000Y-106553000D03*
%TO.N,/DVDD*%
X144780000Y-98298000D03*
X144840942Y-103819942D03*
%TD*%
D23*
%TO.N,GNDA*%
X138176000Y-88392000D02*
X138176000Y-86106000D01*
X123952000Y-86106000D02*
X123032010Y-86106000D01*
%TO.N,*%
X138938000Y-112268000D02*
X123032010Y-112268000D01*
X138684000Y-85090000D02*
X139192000Y-85090000D01*
X138938000Y-85090000D02*
X138684000Y-85090000D01*
X139349990Y-85090000D02*
X123698000Y-85090000D01*
X139192000Y-85090000D02*
X139192000Y-85344000D01*
%TO.N,GNDA*%
X138176000Y-86106000D02*
X129921000Y-86106000D01*
X129921000Y-86106000D02*
X130087000Y-86106000D01*
X129921000Y-86106000D02*
X123952000Y-86106000D01*
%TO.N,*%
X128778000Y-85090000D02*
X129794000Y-85090000D01*
%TO.N,GNDA*%
X138176000Y-88900000D02*
X138176000Y-91948000D01*
X138176000Y-91948000D02*
X138176000Y-92964000D01*
%TO.N,*%
X139192000Y-85090000D02*
X139192000Y-92456000D01*
X139192000Y-94488000D02*
X139192000Y-112268000D01*
%TO.N,GNDA*%
X138176000Y-94996000D02*
X138176000Y-111252000D01*
%TO.N,/PVDD*%
X153572500Y-101282500D02*
X153572500Y-100012500D01*
X157289500Y-100012500D02*
X157734000Y-100457000D01*
X153572500Y-100012500D02*
X155003500Y-100012500D01*
X156908500Y-101282500D02*
X156908500Y-101282500D01*
X153572500Y-101282500D02*
X155003500Y-101282500D01*
X157649000Y-95567500D02*
X158115000Y-96033500D01*
X153572500Y-95567500D02*
X157649000Y-95567500D01*
X153572500Y-96837500D02*
X153572500Y-95567500D01*
X154495500Y-96202500D02*
X154940000Y-95758000D01*
X153572500Y-96202500D02*
X154495500Y-96202500D01*
X155722500Y-95567500D02*
X156210000Y-96055000D01*
X153572500Y-95567500D02*
X155722500Y-95567500D01*
X157543500Y-100647500D02*
X157734000Y-100457000D01*
X153572500Y-100647500D02*
X157543500Y-100647500D01*
X155003500Y-100012500D02*
X156019500Y-100012500D01*
X156019500Y-100012500D02*
X157035500Y-100012500D01*
X157035500Y-100012500D02*
X157289500Y-100012500D01*
X157734000Y-100457000D02*
X157734000Y-100457000D01*
X155003500Y-101282500D02*
X156019500Y-101282500D01*
X156019500Y-101282500D02*
X156908500Y-101282500D01*
X156908500Y-101282500D02*
X157734000Y-100457000D01*
X150114000Y-100076000D02*
X150114000Y-101092000D01*
X150177500Y-101155500D02*
X150114000Y-101092000D01*
X153572500Y-100647500D02*
X150177500Y-100647500D01*
X150114000Y-100076000D02*
X152146000Y-100076000D01*
X152590500Y-100012500D02*
X153572500Y-100012500D01*
%TO.N,GND*%
X153572500Y-103187500D02*
X153572500Y-103822500D01*
X155892500Y-93662500D02*
X156210000Y-93980000D01*
X156231500Y-93958500D02*
X156210000Y-93980000D01*
X156210000Y-93980000D02*
X156210000Y-93980000D01*
X158115000Y-93958500D02*
X158115000Y-93958500D01*
X149796500Y-103822500D02*
X150114000Y-104140000D01*
X152146000Y-105156000D02*
X150114000Y-105156000D01*
X150114000Y-105156000D02*
X150114000Y-104140000D01*
X152082500Y-98107500D02*
X152146000Y-98044000D01*
X147256500Y-97472500D02*
X147891500Y-98107500D01*
X146147500Y-97472500D02*
X147256500Y-97472500D01*
X147891500Y-98107500D02*
X152082500Y-98107500D01*
X146147500Y-98107500D02*
X147891500Y-98107500D01*
X150114000Y-90639500D02*
X149644500Y-90170000D01*
X150114000Y-92964000D02*
X150114000Y-90639500D01*
X153572500Y-93027500D02*
X152717500Y-93027500D01*
X152717500Y-93027500D02*
X152146000Y-92456000D01*
X152844500Y-93662500D02*
X152146000Y-92964000D01*
X153572500Y-93662500D02*
X152844500Y-93662500D01*
X153572500Y-93374500D02*
X152810500Y-93374500D01*
X153572500Y-93027500D02*
X153572500Y-93374500D01*
X153572500Y-93374500D02*
X153572500Y-93662500D01*
X152810500Y-93374500D02*
X151892000Y-92456000D01*
X151892000Y-92456000D02*
X151638000Y-92456000D01*
X152785000Y-93027500D02*
X152400000Y-92642500D01*
X153572500Y-93027500D02*
X152785000Y-93027500D01*
X152400000Y-92202000D02*
X152146000Y-91948000D01*
X151892000Y-92456000D02*
X152400000Y-92456000D01*
X152400000Y-92456000D02*
X152400000Y-92202000D01*
X152400000Y-92642500D02*
X152400000Y-92456000D01*
X157184000Y-93027500D02*
X158115000Y-93958500D01*
X153572500Y-93027500D02*
X157184000Y-93027500D01*
X153572500Y-93662500D02*
X154622500Y-93662500D01*
X154940000Y-93980000D02*
X156210000Y-93980000D01*
X154622500Y-93662500D02*
X154940000Y-93980000D01*
X150431500Y-103822500D02*
X150114000Y-104140000D01*
X150114000Y-104140000D02*
X150368000Y-104140000D01*
X151638000Y-104013000D02*
X151828500Y-103822500D01*
X151638000Y-104140000D02*
X151638000Y-104013000D01*
X151828500Y-103822500D02*
X150431500Y-103822500D01*
X153572500Y-103822500D02*
X151828500Y-103822500D01*
X152146000Y-104140000D02*
X151638000Y-104140000D01*
X151638000Y-104140000D02*
X150114000Y-104140000D01*
X151130000Y-104140000D02*
X151384000Y-104140000D01*
X151384000Y-104140000D02*
X151638000Y-103886000D01*
X150368000Y-104140000D02*
X150622000Y-103886000D01*
X150876000Y-104140000D02*
X150622000Y-103886000D01*
X151130000Y-104140000D02*
X150876000Y-104140000D01*
X149542500Y-103822500D02*
X150431500Y-103822500D01*
X149542500Y-103822500D02*
X149796500Y-103822500D01*
X154940000Y-103632000D02*
X154940000Y-103378000D01*
X155130500Y-103187500D02*
X153572500Y-103187500D01*
X156633000Y-103209000D02*
X156210000Y-103632000D01*
X156210000Y-103632000D02*
X154940000Y-103632000D01*
X154940000Y-103378000D02*
X155130500Y-103187500D01*
X157057000Y-103209000D02*
X157734000Y-102532000D01*
X157057000Y-103209000D02*
X156633000Y-103209000D01*
X156443500Y-103822500D02*
X157057000Y-103209000D01*
X153572500Y-103822500D02*
X156443500Y-103822500D01*
D24*
X150177500Y-98107500D02*
X150114000Y-98044000D01*
X153572500Y-98107500D02*
X150177500Y-98107500D01*
X150431500Y-98742500D02*
X150114000Y-99060000D01*
X153572500Y-98742500D02*
X150431500Y-98742500D01*
X153572500Y-98107500D02*
X153572500Y-98742500D01*
X151066500Y-98107500D02*
X151130000Y-98044000D01*
X147129500Y-97472500D02*
X147764500Y-98107500D01*
X146147500Y-97472500D02*
X147129500Y-97472500D01*
X147764500Y-98107500D02*
X151066500Y-98107500D01*
X146147500Y-98107500D02*
X147764500Y-98107500D01*
X149098000Y-110363000D02*
X150495000Y-111760000D01*
X149098000Y-110020500D02*
X149098000Y-110363000D01*
X150495000Y-111760000D02*
X151765000Y-111760000D01*
X147955000Y-104140000D02*
X147637500Y-103822500D01*
X151130000Y-104140000D02*
X147955000Y-104140000D01*
D23*
X146147500Y-103822500D02*
X147637500Y-103822500D01*
D24*
X147637500Y-103822500D02*
X147002500Y-103822500D01*
X140732000Y-100838000D02*
X142002000Y-102108000D01*
X140732000Y-100330000D02*
X140732000Y-100838000D01*
X140440500Y-94996000D02*
X140440500Y-96774000D01*
%TO.N,Net-(C6-Pad2)*%
X147281500Y-108712000D02*
X149098000Y-106895500D01*
X147068000Y-108712000D02*
X147281500Y-108712000D01*
X147935490Y-106895500D02*
X146147500Y-105107510D01*
X149098000Y-106895500D02*
X147935490Y-106895500D01*
D23*
%TO.N,Net-(C8-Pad2)*%
X146147500Y-89653000D02*
X146265500Y-89535000D01*
X146147500Y-91757500D02*
X146147500Y-89653000D01*
X147068000Y-89621500D02*
X146519500Y-90170000D01*
X147068000Y-86868000D02*
X147068000Y-89621500D01*
X146147500Y-90542000D02*
X146519500Y-90170000D01*
X146147500Y-91757500D02*
X146147500Y-90542000D01*
D24*
%TO.N,Net-(C9-Pad1)*%
X146147500Y-96202500D02*
X144462500Y-96202500D01*
X143256000Y-94996000D02*
X142515500Y-94996000D01*
X144462500Y-96202500D02*
X143256000Y-94996000D01*
D25*
%TO.N,VCC*%
X129456000Y-94404000D02*
X129456000Y-95207000D01*
X129578500Y-93011500D02*
X129456000Y-93134000D01*
X129578500Y-92964000D02*
X129578500Y-93011500D01*
X129456000Y-93134000D02*
X129456000Y-94404000D01*
X129456000Y-91864000D02*
X129456000Y-93134000D01*
X129456000Y-90424000D02*
X129456000Y-91864000D01*
X129456000Y-95207000D02*
X128905000Y-95758000D01*
%TO.N,VEE*%
X136525000Y-108690500D02*
X136673500Y-108839000D01*
X136525000Y-103378000D02*
X136525000Y-108690500D01*
D23*
%TO.N,Net-(C14-Pad2)*%
X145009000Y-104457500D02*
X144056500Y-105410000D01*
X146147500Y-104457500D02*
X145009000Y-104457500D01*
X144272000Y-105410000D02*
X144780000Y-104902000D01*
X144056500Y-105410000D02*
X144272000Y-105410000D01*
X144272000Y-105410000D02*
X144780000Y-105918000D01*
%TO.N,Net-(C15-Pad2)*%
X143256000Y-90970500D02*
X144056500Y-90170000D01*
X144589500Y-93027500D02*
X143256000Y-91694000D01*
X143256000Y-91694000D02*
X143256000Y-90970500D01*
X146147500Y-93027500D02*
X144589500Y-93027500D01*
D24*
%TO.N,Net-(C16-Pad2)*%
X142579000Y-96837500D02*
X142515500Y-96774000D01*
X146147500Y-96837500D02*
X142579000Y-96837500D01*
D23*
%TO.N,/+12V*%
X140019000Y-118429000D02*
X140338000Y-118110000D01*
D24*
%TO.N,/FB_A*%
X128905000Y-106277500D02*
X128651000Y-106531500D01*
X128905000Y-103378000D02*
X128905000Y-106277500D01*
X125841000Y-106299000D02*
X128883500Y-106299000D01*
X128883500Y-106299000D02*
X128905000Y-106277500D01*
X128883500Y-109046500D02*
X128456000Y-109474000D01*
X128883500Y-106299000D02*
X128883500Y-109046500D01*
X133874000Y-83312000D02*
X133874000Y-83312000D01*
%TO.N,/FB_B*%
X131461000Y-92926500D02*
X131423500Y-92964000D01*
X131461000Y-90424000D02*
X131461000Y-92926500D01*
X131423500Y-95736500D02*
X131445000Y-95758000D01*
X131423500Y-92964000D02*
X131423500Y-95736500D01*
X131461000Y-90424000D02*
X131461000Y-88789000D01*
X130556000Y-87884000D02*
X128456000Y-87884000D01*
X131461000Y-88789000D02*
X130556000Y-87884000D01*
X130804500Y-114024500D02*
X130826000Y-114046000D01*
%TO.N,Net-(C18-Pad1)*%
X133461000Y-92926500D02*
X133498500Y-92964000D01*
X133461000Y-90424000D02*
X133461000Y-92926500D01*
X133498500Y-95271500D02*
X133985000Y-95758000D01*
X133498500Y-92964000D02*
X133498500Y-95271500D01*
X126746000Y-97044000D02*
X127016000Y-97044000D01*
X127016000Y-97044000D02*
X128016000Y-98044000D01*
X128016000Y-98044000D02*
X133096000Y-98044000D01*
X133985000Y-97155000D02*
X133985000Y-95758000D01*
X133096000Y-98044000D02*
X133985000Y-97155000D01*
%TO.N,/FB_A*%
X133874000Y-83312000D02*
X132842000Y-83312000D01*
X132842000Y-83312000D02*
X131847500Y-83312000D01*
%TO.N,/FB_B*%
X129815500Y-114024500D02*
X129794000Y-114046000D01*
X128778000Y-114024500D02*
X129815500Y-114024500D01*
X129815500Y-114024500D02*
X130804500Y-114024500D01*
%TO.N,Net-(C19-Pad1)*%
X123841000Y-103759000D02*
X123841000Y-106299000D01*
D23*
%TO.N,Net-(C20-Pad1)*%
X147764500Y-102552500D02*
X147828000Y-102616000D01*
X146147500Y-102552500D02*
X147764500Y-102552500D01*
%TO.N,Net-(C21-Pad1)*%
X146147500Y-101917500D02*
X147256500Y-101917500D01*
X147828000Y-101346000D02*
X147828000Y-100330000D01*
X147256500Y-101917500D02*
X147828000Y-101346000D01*
D24*
%TO.N,Net-(C22-Pad1)*%
X153490954Y-105092500D02*
X153572500Y-105092500D01*
X151903454Y-106680000D02*
X153490954Y-105092500D01*
X151489500Y-106680000D02*
X151903454Y-106680000D01*
D23*
%TO.N,/OUT_A*%
X152463500Y-102552500D02*
X152146000Y-102870000D01*
X153572500Y-102552500D02*
X152463500Y-102552500D01*
X152209500Y-102171500D02*
X152146000Y-102108000D01*
X153572500Y-101917500D02*
X152209500Y-101917500D01*
%TO.N,/OUT_B*%
X154876500Y-99377500D02*
X155194000Y-99060000D01*
X153572500Y-99377500D02*
X154876500Y-99377500D01*
X155194000Y-99060000D02*
X156210000Y-99060000D01*
X156210000Y-99060000D02*
X157226000Y-99060000D01*
X157226000Y-99060000D02*
X158242000Y-99060000D01*
X156210000Y-99060000D02*
X156210000Y-98806000D01*
X157226000Y-99060000D02*
X157226000Y-98806000D01*
D24*
X157755500Y-104902000D02*
X159258000Y-103399500D01*
X159258000Y-99060000D02*
X159258000Y-103399500D01*
D23*
%TO.N,Net-(C23-Pad1)*%
X155236000Y-104457500D02*
X155680500Y-104902000D01*
X153572500Y-104457500D02*
X155236000Y-104457500D01*
%TO.N,/OUT_C*%
X165735000Y-101095000D02*
X164595000Y-101095000D01*
D24*
X158089000Y-91694000D02*
X159448500Y-93053500D01*
X159448500Y-93053500D02*
X159448500Y-97472500D01*
X157501500Y-91694000D02*
X158089000Y-91694000D01*
D23*
X153572500Y-97472500D02*
X159448500Y-97472500D01*
%TO.N,Net-(C24-Pad1)*%
X154728000Y-92392500D02*
X155426500Y-91694000D01*
X153572500Y-92392500D02*
X154728000Y-92392500D01*
%TO.N,Net-(C25-Pad1)*%
X153572500Y-90310500D02*
X153713000Y-90170000D01*
X153572500Y-91757500D02*
X153572500Y-90310500D01*
%TO.N,/OUT_D*%
X152463500Y-94297500D02*
X152146000Y-93980000D01*
X153572500Y-94297500D02*
X152463500Y-94297500D01*
X152209500Y-94932500D02*
X152146000Y-94996000D01*
X153572500Y-94932500D02*
X152209500Y-94932500D01*
X151193500Y-94932500D02*
X151130000Y-94996000D01*
X153572500Y-94932500D02*
X151193500Y-94932500D01*
X151447500Y-94297500D02*
X151130000Y-93980000D01*
X153572500Y-94297500D02*
X151447500Y-94297500D01*
%TO.N,Net-(C26-Pad2)*%
X131826000Y-81301500D02*
X133815000Y-81301500D01*
X131826000Y-81301500D02*
X129799500Y-81301500D01*
D24*
X131847500Y-81280000D02*
X131826000Y-81258500D01*
X133836500Y-81280000D02*
X131847500Y-81280000D01*
X129799500Y-81258500D02*
X129778000Y-81280000D01*
X131826000Y-81258500D02*
X129799500Y-81258500D01*
%TO.N,Net-(C27-Pad2)*%
X128799500Y-116078000D02*
X128778000Y-116099500D01*
X130788500Y-116078000D02*
X128799500Y-116078000D01*
X127005500Y-116099500D02*
X126984000Y-116078000D01*
X128778000Y-116099500D02*
X127005500Y-116099500D01*
D23*
%TO.N,/SPEAKER+*%
X135911500Y-82444500D02*
X135911500Y-83274500D01*
X135911500Y-81280000D02*
X135911500Y-82444500D01*
D24*
X135911500Y-83274500D02*
X135874000Y-83312000D01*
X135911500Y-81280000D02*
X135911500Y-83274500D01*
X165862000Y-85852000D02*
X164592000Y-85852000D01*
X164592000Y-85852000D02*
X162052000Y-83312000D01*
X162052000Y-83312000D02*
X135874000Y-83312000D01*
%TO.N,/SPEAKER-*%
X162814000Y-114046000D02*
X165862000Y-110998000D01*
X132826000Y-114046000D02*
X162814000Y-114046000D01*
X132826000Y-116040500D02*
X132863500Y-116078000D01*
X132826000Y-114046000D02*
X132826000Y-116040500D01*
D23*
%TO.N,/OSC_IOP*%
X144262500Y-99177500D02*
X144145000Y-99060000D01*
X146147500Y-99377500D02*
X145947500Y-99177500D01*
X145947500Y-99177500D02*
X144262500Y-99177500D01*
%TO.N,/OSC_IOM*%
X144970500Y-100012500D02*
X144907000Y-99949000D01*
X146147500Y-100012500D02*
X144970500Y-100012500D01*
%TO.N,/~ERROR*%
X146147500Y-92392500D02*
X146875500Y-92392500D01*
X145224500Y-92392500D02*
X144526000Y-91694000D01*
X146147500Y-92392500D02*
X145224500Y-92392500D01*
%TO.N,/~FAULT*%
X146147500Y-93662500D02*
X144462500Y-93662500D01*
X142494000Y-91694000D02*
X140970000Y-91694000D01*
X144462500Y-93662500D02*
X142494000Y-91694000D01*
%TO.N,/~RESET*%
X146147500Y-94297500D02*
X144335500Y-94297500D01*
X142748000Y-92710000D02*
X140970000Y-92710000D01*
X144335500Y-94297500D02*
X142748000Y-92710000D01*
D24*
%TO.N,/IN_A*%
X124206000Y-100584000D02*
X125476000Y-100584000D01*
X125841000Y-100949000D02*
X125841000Y-103759000D01*
X125476000Y-100584000D02*
X125841000Y-100949000D01*
%TO.N,/IN_B*%
X124206000Y-98044000D02*
X124841000Y-98044000D01*
X125841000Y-99044000D02*
X126746000Y-99044000D01*
X124841000Y-98044000D02*
X125841000Y-99044000D01*
D25*
%TO.N,GNDA*%
X133731000Y-106299000D02*
X133985000Y-106045000D01*
X133985000Y-103378000D02*
X133985000Y-106045000D01*
X127381000Y-90424000D02*
X127381000Y-92036500D01*
X126453500Y-92964000D02*
X126111000Y-92964000D01*
X133985000Y-101473000D02*
X134112000Y-101473000D01*
X133985000Y-101473000D02*
X133985000Y-103378000D01*
X134112000Y-101473000D02*
X136525000Y-99060000D01*
X136525000Y-99060000D02*
X136525000Y-95758000D01*
D24*
X133438500Y-106299000D02*
X133731000Y-106299000D01*
X133731000Y-106299000D02*
X133985000Y-106553000D01*
D25*
X133985000Y-106045000D02*
X133985000Y-106553000D01*
D24*
X133985000Y-108225500D02*
X134598500Y-108839000D01*
X133985000Y-103378000D02*
X133985000Y-108225500D01*
X138275999Y-93637999D02*
X142786999Y-93637999D01*
X136525000Y-95388998D02*
X138275999Y-93637999D01*
X136525000Y-95758000D02*
X136525000Y-95388998D01*
X146147500Y-95220500D02*
X144877500Y-95220500D01*
X146147500Y-95567500D02*
X146147500Y-95220500D01*
X146147500Y-95220500D02*
X146147500Y-94947510D01*
X144445314Y-95220500D02*
X144877500Y-95220500D01*
X142862813Y-93637999D02*
X144445314Y-95220500D01*
X142786999Y-93637999D02*
X142862813Y-93637999D01*
X138176000Y-87884000D02*
X138176000Y-88900000D01*
X138176000Y-92964000D02*
X138176000Y-94996000D01*
D23*
X138176000Y-111252000D02*
X123952000Y-111252000D01*
%TO.N,Net-(R4-Pad2)*%
X144827500Y-101282500D02*
X143748000Y-102362000D01*
X146147500Y-101282500D02*
X144827500Y-101282500D01*
%TO.N,/DVDD*%
X145224500Y-98742500D02*
X144780000Y-98298000D01*
X146147500Y-98742500D02*
X145224500Y-98742500D01*
X145473384Y-103187500D02*
X146147500Y-103187500D01*
X144840942Y-103819942D02*
X145473384Y-103187500D01*
D24*
X142851001Y-98209999D02*
X142509000Y-98552000D01*
X144553001Y-98209999D02*
X142851001Y-98209999D01*
X144641002Y-98298000D02*
X144553001Y-98209999D01*
X144780000Y-98298000D02*
X144641002Y-98298000D01*
D23*
%TO.N,Net-(JP1-Pad2)*%
X141209000Y-99087002D02*
X141209000Y-98552000D01*
X142451998Y-100330000D02*
X141209000Y-99087002D01*
X142732000Y-100330000D02*
X142451998Y-100330000D01*
X145255001Y-100674001D02*
X143076001Y-100674001D01*
X143076001Y-100674001D02*
X142732000Y-100330000D01*
X145281502Y-100647500D02*
X145255001Y-100674001D01*
X146147500Y-100647500D02*
X145281502Y-100647500D01*
%TD*%
D26*
%TO.N,/PVDD*%
X158563501Y-96501124D02*
X158281667Y-96712500D01*
X154583401Y-96712500D01*
X154542448Y-96690610D01*
X154403991Y-96648610D01*
X154260000Y-96634428D01*
X152885000Y-96634428D01*
X152741009Y-96648610D01*
X152602552Y-96690610D01*
X152474949Y-96758816D01*
X152363104Y-96850604D01*
X152271316Y-96962449D01*
X152246434Y-97009000D01*
X152044061Y-97009000D01*
X151844102Y-97048774D01*
X151655744Y-97126795D01*
X151638000Y-97138651D01*
X151620256Y-97126795D01*
X151431898Y-97048774D01*
X151231939Y-97009000D01*
X151028061Y-97009000D01*
X150828102Y-97048774D01*
X150639744Y-97126795D01*
X150622000Y-97138651D01*
X150604256Y-97126795D01*
X150415898Y-97048774D01*
X150215939Y-97009000D01*
X150012061Y-97009000D01*
X149987000Y-97013985D01*
X149987000Y-96026015D01*
X150012061Y-96031000D01*
X150215939Y-96031000D01*
X150415898Y-95991226D01*
X150604256Y-95913205D01*
X150622000Y-95901349D01*
X150639744Y-95913205D01*
X150828102Y-95991226D01*
X151028061Y-96031000D01*
X151231939Y-96031000D01*
X151431898Y-95991226D01*
X151620256Y-95913205D01*
X151638000Y-95901349D01*
X151655744Y-95913205D01*
X151844102Y-95991226D01*
X152044061Y-96031000D01*
X152247939Y-96031000D01*
X152447898Y-95991226D01*
X152636256Y-95913205D01*
X152805774Y-95799937D01*
X152839610Y-95766101D01*
X152885000Y-95770572D01*
X154260000Y-95770572D01*
X154403991Y-95756390D01*
X154542448Y-95714390D01*
X154670051Y-95646184D01*
X154688553Y-95631000D01*
X158563501Y-95631000D01*
X158563501Y-96501124D01*
%TA.AperFunction,Conductor*%
D27*
G36*
X158563501Y-96501124D02*
G01*
X158281667Y-96712500D01*
X154583401Y-96712500D01*
X154542448Y-96690610D01*
X154403991Y-96648610D01*
X154260000Y-96634428D01*
X152885000Y-96634428D01*
X152741009Y-96648610D01*
X152602552Y-96690610D01*
X152474949Y-96758816D01*
X152363104Y-96850604D01*
X152271316Y-96962449D01*
X152246434Y-97009000D01*
X152044061Y-97009000D01*
X151844102Y-97048774D01*
X151655744Y-97126795D01*
X151638000Y-97138651D01*
X151620256Y-97126795D01*
X151431898Y-97048774D01*
X151231939Y-97009000D01*
X151028061Y-97009000D01*
X150828102Y-97048774D01*
X150639744Y-97126795D01*
X150622000Y-97138651D01*
X150604256Y-97126795D01*
X150415898Y-97048774D01*
X150215939Y-97009000D01*
X150012061Y-97009000D01*
X149987000Y-97013985D01*
X149987000Y-96026015D01*
X150012061Y-96031000D01*
X150215939Y-96031000D01*
X150415898Y-95991226D01*
X150604256Y-95913205D01*
X150622000Y-95901349D01*
X150639744Y-95913205D01*
X150828102Y-95991226D01*
X151028061Y-96031000D01*
X151231939Y-96031000D01*
X151431898Y-95991226D01*
X151620256Y-95913205D01*
X151638000Y-95901349D01*
X151655744Y-95913205D01*
X151844102Y-95991226D01*
X152044061Y-96031000D01*
X152247939Y-96031000D01*
X152447898Y-95991226D01*
X152636256Y-95913205D01*
X152805774Y-95799937D01*
X152839610Y-95766101D01*
X152885000Y-95770572D01*
X154260000Y-95770572D01*
X154403991Y-95756390D01*
X154542448Y-95714390D01*
X154670051Y-95646184D01*
X154688553Y-95631000D01*
X158563501Y-95631000D01*
X158563501Y-96501124D01*
G37*
%TD.AperFunction*%
%TD*%
D26*
%TO.N,/OUT_D*%
X151655744Y-93881205D02*
X151844102Y-93959226D01*
X152044061Y-93999000D01*
X152106198Y-93999000D01*
X152261632Y-94154434D01*
X152271316Y-94172551D01*
X152363104Y-94284396D01*
X152474949Y-94376184D01*
X152602552Y-94444390D01*
X152741009Y-94486390D01*
X152885000Y-94500572D01*
X154260000Y-94500572D01*
X154305000Y-94496140D01*
X154305000Y-94733860D01*
X154260000Y-94729428D01*
X152885000Y-94729428D01*
X152741009Y-94743610D01*
X152602552Y-94785610D01*
X152474949Y-94853816D01*
X152363104Y-94945604D01*
X152324793Y-94992287D01*
X152247939Y-94977000D01*
X152044061Y-94977000D01*
X151844102Y-95016774D01*
X151655744Y-95094795D01*
X151638000Y-95106651D01*
X151620256Y-95094795D01*
X151431898Y-95016774D01*
X151231939Y-94977000D01*
X151028061Y-94977000D01*
X150828102Y-95016774D01*
X150639744Y-95094795D01*
X150622000Y-95106651D01*
X150604256Y-95094795D01*
X150415898Y-95016774D01*
X150215939Y-94977000D01*
X150012061Y-94977000D01*
X149987000Y-94981985D01*
X149987000Y-93994015D01*
X150012061Y-93999000D01*
X150215939Y-93999000D01*
X150415898Y-93959226D01*
X150604256Y-93881205D01*
X150622000Y-93869349D01*
X150639744Y-93881205D01*
X150828102Y-93959226D01*
X151028061Y-93999000D01*
X151231939Y-93999000D01*
X151431898Y-93959226D01*
X151620256Y-93881205D01*
X151638000Y-93869349D01*
X151655744Y-93881205D01*
%TA.AperFunction,Conductor*%
D27*
G36*
X151655744Y-93881205D02*
G01*
X151844102Y-93959226D01*
X152044061Y-93999000D01*
X152106198Y-93999000D01*
X152261632Y-94154434D01*
X152271316Y-94172551D01*
X152363104Y-94284396D01*
X152474949Y-94376184D01*
X152602552Y-94444390D01*
X152741009Y-94486390D01*
X152885000Y-94500572D01*
X154260000Y-94500572D01*
X154305000Y-94496140D01*
X154305000Y-94733860D01*
X154260000Y-94729428D01*
X152885000Y-94729428D01*
X152741009Y-94743610D01*
X152602552Y-94785610D01*
X152474949Y-94853816D01*
X152363104Y-94945604D01*
X152324793Y-94992287D01*
X152247939Y-94977000D01*
X152044061Y-94977000D01*
X151844102Y-95016774D01*
X151655744Y-95094795D01*
X151638000Y-95106651D01*
X151620256Y-95094795D01*
X151431898Y-95016774D01*
X151231939Y-94977000D01*
X151028061Y-94977000D01*
X150828102Y-95016774D01*
X150639744Y-95094795D01*
X150622000Y-95106651D01*
X150604256Y-95094795D01*
X150415898Y-95016774D01*
X150215939Y-94977000D01*
X150012061Y-94977000D01*
X149987000Y-94981985D01*
X149987000Y-93994015D01*
X150012061Y-93999000D01*
X150215939Y-93999000D01*
X150415898Y-93959226D01*
X150604256Y-93881205D01*
X150622000Y-93869349D01*
X150639744Y-93881205D01*
X150828102Y-93959226D01*
X151028061Y-93999000D01*
X151231939Y-93999000D01*
X151431898Y-93959226D01*
X151620256Y-93881205D01*
X151638000Y-93869349D01*
X151655744Y-93881205D01*
G37*
%TD.AperFunction*%
%TD*%
D26*
%TO.N,/OUT_A*%
X151655744Y-102009205D02*
X151844102Y-102087226D01*
X152044061Y-102127000D01*
X152247939Y-102127000D01*
X152447898Y-102087226D01*
X152559100Y-102041164D01*
X152602552Y-102064390D01*
X152741009Y-102106390D01*
X152885000Y-102120572D01*
X154260000Y-102120572D01*
X154305000Y-102116140D01*
X154305000Y-102353860D01*
X154260000Y-102349428D01*
X152885000Y-102349428D01*
X152741009Y-102363610D01*
X152602552Y-102405610D01*
X152474949Y-102473816D01*
X152363104Y-102565604D01*
X152271316Y-102677449D01*
X152203110Y-102805052D01*
X152161110Y-102943509D01*
X152149390Y-103062500D01*
X151865825Y-103062500D01*
X151828500Y-103058824D01*
X151791175Y-103062500D01*
X150468823Y-103062500D01*
X150431500Y-103058824D01*
X150394177Y-103062500D01*
X149987000Y-103062500D01*
X149987000Y-102122015D01*
X150012061Y-102127000D01*
X150215939Y-102127000D01*
X150415898Y-102087226D01*
X150604256Y-102009205D01*
X150622000Y-101997349D01*
X150639744Y-102009205D01*
X150828102Y-102087226D01*
X151028061Y-102127000D01*
X151231939Y-102127000D01*
X151431898Y-102087226D01*
X151620256Y-102009205D01*
X151638000Y-101997349D01*
X151655744Y-102009205D01*
%TA.AperFunction,Conductor*%
D27*
G36*
X151655744Y-102009205D02*
G01*
X151844102Y-102087226D01*
X152044061Y-102127000D01*
X152247939Y-102127000D01*
X152447898Y-102087226D01*
X152559100Y-102041164D01*
X152602552Y-102064390D01*
X152741009Y-102106390D01*
X152885000Y-102120572D01*
X154260000Y-102120572D01*
X154305000Y-102116140D01*
X154305000Y-102353860D01*
X154260000Y-102349428D01*
X152885000Y-102349428D01*
X152741009Y-102363610D01*
X152602552Y-102405610D01*
X152474949Y-102473816D01*
X152363104Y-102565604D01*
X152271316Y-102677449D01*
X152203110Y-102805052D01*
X152161110Y-102943509D01*
X152149390Y-103062500D01*
X151865825Y-103062500D01*
X151828500Y-103058824D01*
X151791175Y-103062500D01*
X150468823Y-103062500D01*
X150431500Y-103058824D01*
X150394177Y-103062500D01*
X149987000Y-103062500D01*
X149987000Y-102122015D01*
X150012061Y-102127000D01*
X150215939Y-102127000D01*
X150415898Y-102087226D01*
X150604256Y-102009205D01*
X150622000Y-101997349D01*
X150639744Y-102009205D01*
X150828102Y-102087226D01*
X151028061Y-102127000D01*
X151231939Y-102127000D01*
X151431898Y-102087226D01*
X151620256Y-102009205D01*
X151638000Y-101997349D01*
X151655744Y-102009205D01*
G37*
%TD.AperFunction*%
%TD*%
D26*
%TO.N,/PVDD*%
X157751744Y-99977205D02*
X157940102Y-100055226D01*
X158140061Y-100095000D01*
X158343939Y-100095000D01*
X158369000Y-100090015D01*
X158369000Y-101219000D01*
X154688553Y-101219000D01*
X154670051Y-101203816D01*
X154542448Y-101135610D01*
X154403991Y-101093610D01*
X154260000Y-101079428D01*
X152885000Y-101079428D01*
X152741009Y-101093610D01*
X152602552Y-101135610D01*
X152561599Y-101157500D01*
X152555875Y-101157500D01*
X152447898Y-101112774D01*
X152247939Y-101073000D01*
X152044061Y-101073000D01*
X151844102Y-101112774D01*
X151655744Y-101190795D01*
X151638000Y-101202651D01*
X151620256Y-101190795D01*
X151431898Y-101112774D01*
X151231939Y-101073000D01*
X151028061Y-101073000D01*
X150828102Y-101112774D01*
X150639744Y-101190795D01*
X150622000Y-101202651D01*
X150604256Y-101190795D01*
X150415898Y-101112774D01*
X150215939Y-101073000D01*
X150012061Y-101073000D01*
X149987000Y-101077985D01*
X149987000Y-100090015D01*
X150012061Y-100095000D01*
X150215939Y-100095000D01*
X150415898Y-100055226D01*
X150604256Y-99977205D01*
X150622000Y-99965349D01*
X150639744Y-99977205D01*
X150828102Y-100055226D01*
X151028061Y-100095000D01*
X151231939Y-100095000D01*
X151431898Y-100055226D01*
X151620256Y-99977205D01*
X151638000Y-99965349D01*
X151655744Y-99977205D01*
X151844102Y-100055226D01*
X152044061Y-100095000D01*
X152247939Y-100095000D01*
X152434404Y-100057910D01*
X152474949Y-100091184D01*
X152602552Y-100159390D01*
X152741009Y-100201390D01*
X152885000Y-100215572D01*
X154260000Y-100215572D01*
X154403991Y-100201390D01*
X154542448Y-100159390D01*
X154583401Y-100137500D01*
X154839178Y-100137500D01*
X154876500Y-100141176D01*
X154913822Y-100137500D01*
X154913833Y-100137500D01*
X155025486Y-100126503D01*
X155129339Y-100095000D01*
X155295939Y-100095000D01*
X155495898Y-100055226D01*
X155684256Y-99977205D01*
X155702000Y-99965349D01*
X155719744Y-99977205D01*
X155908102Y-100055226D01*
X156108061Y-100095000D01*
X156311939Y-100095000D01*
X156511898Y-100055226D01*
X156700256Y-99977205D01*
X156718000Y-99965349D01*
X156735744Y-99977205D01*
X156924102Y-100055226D01*
X157124061Y-100095000D01*
X157327939Y-100095000D01*
X157527898Y-100055226D01*
X157716256Y-99977205D01*
X157734000Y-99965349D01*
X157751744Y-99977205D01*
%TA.AperFunction,Conductor*%
D27*
G36*
X157751744Y-99977205D02*
G01*
X157940102Y-100055226D01*
X158140061Y-100095000D01*
X158343939Y-100095000D01*
X158369000Y-100090015D01*
X158369000Y-101219000D01*
X154688553Y-101219000D01*
X154670051Y-101203816D01*
X154542448Y-101135610D01*
X154403991Y-101093610D01*
X154260000Y-101079428D01*
X152885000Y-101079428D01*
X152741009Y-101093610D01*
X152602552Y-101135610D01*
X152561599Y-101157500D01*
X152555875Y-101157500D01*
X152447898Y-101112774D01*
X152247939Y-101073000D01*
X152044061Y-101073000D01*
X151844102Y-101112774D01*
X151655744Y-101190795D01*
X151638000Y-101202651D01*
X151620256Y-101190795D01*
X151431898Y-101112774D01*
X151231939Y-101073000D01*
X151028061Y-101073000D01*
X150828102Y-101112774D01*
X150639744Y-101190795D01*
X150622000Y-101202651D01*
X150604256Y-101190795D01*
X150415898Y-101112774D01*
X150215939Y-101073000D01*
X150012061Y-101073000D01*
X149987000Y-101077985D01*
X149987000Y-100090015D01*
X150012061Y-100095000D01*
X150215939Y-100095000D01*
X150415898Y-100055226D01*
X150604256Y-99977205D01*
X150622000Y-99965349D01*
X150639744Y-99977205D01*
X150828102Y-100055226D01*
X151028061Y-100095000D01*
X151231939Y-100095000D01*
X151431898Y-100055226D01*
X151620256Y-99977205D01*
X151638000Y-99965349D01*
X151655744Y-99977205D01*
X151844102Y-100055226D01*
X152044061Y-100095000D01*
X152247939Y-100095000D01*
X152434404Y-100057910D01*
X152474949Y-100091184D01*
X152602552Y-100159390D01*
X152741009Y-100201390D01*
X152885000Y-100215572D01*
X154260000Y-100215572D01*
X154403991Y-100201390D01*
X154542448Y-100159390D01*
X154583401Y-100137500D01*
X154839178Y-100137500D01*
X154876500Y-100141176D01*
X154913822Y-100137500D01*
X154913833Y-100137500D01*
X155025486Y-100126503D01*
X155129339Y-100095000D01*
X155295939Y-100095000D01*
X155495898Y-100055226D01*
X155684256Y-99977205D01*
X155702000Y-99965349D01*
X155719744Y-99977205D01*
X155908102Y-100055226D01*
X156108061Y-100095000D01*
X156311939Y-100095000D01*
X156511898Y-100055226D01*
X156700256Y-99977205D01*
X156718000Y-99965349D01*
X156735744Y-99977205D01*
X156924102Y-100055226D01*
X157124061Y-100095000D01*
X157327939Y-100095000D01*
X157527898Y-100055226D01*
X157716256Y-99977205D01*
X157734000Y-99965349D01*
X157751744Y-99977205D01*
G37*
%TD.AperFunction*%
%TD*%
D26*
%TO.N,/SPEAKER-*%
X181102000Y-112522000D02*
X176784000Y-112522000D01*
X176784000Y-107950000D01*
X181102000Y-107950000D01*
X181102000Y-112522000D01*
%TA.AperFunction,Conductor*%
D27*
G36*
X181102000Y-112522000D02*
G01*
X176784000Y-112522000D01*
X176784000Y-107950000D01*
X181102000Y-107950000D01*
X181102000Y-112522000D01*
G37*
%TD.AperFunction*%
%TD*%
D26*
%TO.N,/SPEAKER+*%
X181102000Y-85852000D02*
X176784000Y-85852000D01*
X176784000Y-81280000D01*
X181102000Y-81280000D01*
X181102000Y-85852000D01*
%TA.AperFunction,Conductor*%
D27*
G36*
X181102000Y-85852000D02*
G01*
X176784000Y-85852000D01*
X176784000Y-81280000D01*
X181102000Y-81280000D01*
X181102000Y-85852000D01*
G37*
%TD.AperFunction*%
%TD*%
D26*
%TO.N,/OUT_C*%
X163994197Y-99784803D02*
X164013443Y-99800597D01*
X164035399Y-99812333D01*
X164059224Y-99819560D01*
X164084000Y-99822000D01*
X168275000Y-99822000D01*
X168275000Y-102362000D01*
X163195000Y-102362000D01*
X163195000Y-100711000D01*
X163192560Y-100686224D01*
X163185333Y-100662399D01*
X163173597Y-100640443D01*
X163157803Y-100621197D01*
X161251207Y-98714601D01*
X161191205Y-98569744D01*
X161077937Y-98400226D01*
X160933774Y-98256063D01*
X160764256Y-98142795D01*
X160575898Y-98064774D01*
X160375939Y-98025000D01*
X160172061Y-98025000D01*
X159972102Y-98064774D01*
X159783744Y-98142795D01*
X159766000Y-98154651D01*
X159748256Y-98142795D01*
X159559898Y-98064774D01*
X159359939Y-98025000D01*
X159156061Y-98025000D01*
X158956102Y-98064774D01*
X158767744Y-98142795D01*
X158750000Y-98154651D01*
X158732256Y-98142795D01*
X158543898Y-98064774D01*
X158343939Y-98025000D01*
X158140061Y-98025000D01*
X157940102Y-98064774D01*
X157751744Y-98142795D01*
X157734000Y-98154651D01*
X157716256Y-98142795D01*
X157527898Y-98064774D01*
X157327939Y-98025000D01*
X157124061Y-98025000D01*
X156924102Y-98064774D01*
X156735744Y-98142795D01*
X156718000Y-98154651D01*
X156700256Y-98142795D01*
X156511898Y-98064774D01*
X156311939Y-98025000D01*
X156108061Y-98025000D01*
X155908102Y-98064774D01*
X155719744Y-98142795D01*
X155702000Y-98154651D01*
X155684256Y-98142795D01*
X155495898Y-98064774D01*
X155295939Y-98025000D01*
X155092061Y-98025000D01*
X154998072Y-98043695D01*
X154998072Y-98007500D01*
X154983890Y-97863509D01*
X154941890Y-97725052D01*
X154873684Y-97597449D01*
X154813000Y-97523505D01*
X154813000Y-97421495D01*
X154873684Y-97347551D01*
X154908722Y-97282000D01*
X161491394Y-97282000D01*
X163994197Y-99784803D01*
%TA.AperFunction,Conductor*%
D27*
G36*
X163994197Y-99784803D02*
G01*
X164013443Y-99800597D01*
X164035399Y-99812333D01*
X164059224Y-99819560D01*
X164084000Y-99822000D01*
X168275000Y-99822000D01*
X168275000Y-102362000D01*
X163195000Y-102362000D01*
X163195000Y-100711000D01*
X163192560Y-100686224D01*
X163185333Y-100662399D01*
X163173597Y-100640443D01*
X163157803Y-100621197D01*
X161251207Y-98714601D01*
X161191205Y-98569744D01*
X161077937Y-98400226D01*
X160933774Y-98256063D01*
X160764256Y-98142795D01*
X160575898Y-98064774D01*
X160375939Y-98025000D01*
X160172061Y-98025000D01*
X159972102Y-98064774D01*
X159783744Y-98142795D01*
X159766000Y-98154651D01*
X159748256Y-98142795D01*
X159559898Y-98064774D01*
X159359939Y-98025000D01*
X159156061Y-98025000D01*
X158956102Y-98064774D01*
X158767744Y-98142795D01*
X158750000Y-98154651D01*
X158732256Y-98142795D01*
X158543898Y-98064774D01*
X158343939Y-98025000D01*
X158140061Y-98025000D01*
X157940102Y-98064774D01*
X157751744Y-98142795D01*
X157734000Y-98154651D01*
X157716256Y-98142795D01*
X157527898Y-98064774D01*
X157327939Y-98025000D01*
X157124061Y-98025000D01*
X156924102Y-98064774D01*
X156735744Y-98142795D01*
X156718000Y-98154651D01*
X156700256Y-98142795D01*
X156511898Y-98064774D01*
X156311939Y-98025000D01*
X156108061Y-98025000D01*
X155908102Y-98064774D01*
X155719744Y-98142795D01*
X155702000Y-98154651D01*
X155684256Y-98142795D01*
X155495898Y-98064774D01*
X155295939Y-98025000D01*
X155092061Y-98025000D01*
X154998072Y-98043695D01*
X154998072Y-98007500D01*
X154983890Y-97863509D01*
X154941890Y-97725052D01*
X154873684Y-97597449D01*
X154813000Y-97523505D01*
X154813000Y-97421495D01*
X154873684Y-97347551D01*
X154908722Y-97282000D01*
X161491394Y-97282000D01*
X163994197Y-99784803D01*
G37*
%TD.AperFunction*%
%TD*%
D26*
%TO.N,/OUT_B*%
X160903331Y-99568000D02*
X158899712Y-99568000D01*
X158836962Y-99491538D01*
X158702386Y-99381095D01*
X158548850Y-99299028D01*
X158382254Y-99248492D01*
X158209000Y-99231428D01*
X157259000Y-99231428D01*
X157085746Y-99248492D01*
X157072533Y-99252500D01*
X156490467Y-99252500D01*
X156477254Y-99248492D01*
X156304000Y-99231428D01*
X155354000Y-99231428D01*
X155180746Y-99248492D01*
X155167533Y-99252500D01*
X154873711Y-99252500D01*
X154941890Y-99124948D01*
X154983890Y-98986491D01*
X154998072Y-98842500D01*
X154998072Y-98679000D01*
X160211886Y-98679000D01*
X160903331Y-99568000D01*
%TA.AperFunction,Conductor*%
D27*
G36*
X160903331Y-99568000D02*
G01*
X158899712Y-99568000D01*
X158836962Y-99491538D01*
X158702386Y-99381095D01*
X158548850Y-99299028D01*
X158382254Y-99248492D01*
X158209000Y-99231428D01*
X157259000Y-99231428D01*
X157085746Y-99248492D01*
X157072533Y-99252500D01*
X156490467Y-99252500D01*
X156477254Y-99248492D01*
X156304000Y-99231428D01*
X155354000Y-99231428D01*
X155180746Y-99248492D01*
X155167533Y-99252500D01*
X154873711Y-99252500D01*
X154941890Y-99124948D01*
X154983890Y-98986491D01*
X154998072Y-98842500D01*
X154998072Y-98679000D01*
X160211886Y-98679000D01*
X160903331Y-99568000D01*
G37*
%TD.AperFunction*%
%TD*%
D26*
%TO.N,GND*%
X151655744Y-104041205D02*
X151844102Y-104119226D01*
X152044061Y-104159000D01*
X152177645Y-104159000D01*
X152161110Y-104213509D01*
X152146928Y-104357500D01*
X152146928Y-104557500D01*
X152161110Y-104701491D01*
X152183408Y-104775000D01*
X152161110Y-104848509D01*
X152146928Y-104992500D01*
X152146928Y-105184947D01*
X152048875Y-105283000D01*
X149987000Y-105283000D01*
X149987000Y-104154015D01*
X150012061Y-104159000D01*
X150215939Y-104159000D01*
X150415898Y-104119226D01*
X150604256Y-104041205D01*
X150622000Y-104029349D01*
X150639744Y-104041205D01*
X150828102Y-104119226D01*
X151028061Y-104159000D01*
X151231939Y-104159000D01*
X151431898Y-104119226D01*
X151620256Y-104041205D01*
X151638000Y-104029349D01*
X151655744Y-104041205D01*
%TA.AperFunction,Conductor*%
D27*
G36*
X151655744Y-104041205D02*
G01*
X151844102Y-104119226D01*
X152044061Y-104159000D01*
X152177645Y-104159000D01*
X152161110Y-104213509D01*
X152146928Y-104357500D01*
X152146928Y-104557500D01*
X152161110Y-104701491D01*
X152183408Y-104775000D01*
X152161110Y-104848509D01*
X152146928Y-104992500D01*
X152146928Y-105184947D01*
X152048875Y-105283000D01*
X149987000Y-105283000D01*
X149987000Y-104154015D01*
X150012061Y-104159000D01*
X150215939Y-104159000D01*
X150415898Y-104119226D01*
X150604256Y-104041205D01*
X150622000Y-104029349D01*
X150639744Y-104041205D01*
X150828102Y-104119226D01*
X151028061Y-104159000D01*
X151231939Y-104159000D01*
X151431898Y-104119226D01*
X151620256Y-104041205D01*
X151638000Y-104029349D01*
X151655744Y-104041205D01*
G37*
%TD.AperFunction*%
%TD*%
D26*
%TO.N,GND*%
X151655744Y-97945205D02*
X151844102Y-98023226D01*
X152044061Y-98063000D01*
X152247939Y-98063000D01*
X152273000Y-98058015D01*
X152273000Y-98865397D01*
X152271316Y-98867449D01*
X152203110Y-98995052D01*
X152189172Y-99041000D01*
X152044061Y-99041000D01*
X151844102Y-99080774D01*
X151655744Y-99158795D01*
X151638000Y-99170651D01*
X151620256Y-99158795D01*
X151431898Y-99080774D01*
X151231939Y-99041000D01*
X151028061Y-99041000D01*
X150828102Y-99080774D01*
X150639744Y-99158795D01*
X150622000Y-99170651D01*
X150604256Y-99158795D01*
X150415898Y-99080774D01*
X150215939Y-99041000D01*
X150012061Y-99041000D01*
X149860000Y-99071247D01*
X149860000Y-98032753D01*
X150012061Y-98063000D01*
X150215939Y-98063000D01*
X150415898Y-98023226D01*
X150604256Y-97945205D01*
X150622000Y-97933349D01*
X150639744Y-97945205D01*
X150828102Y-98023226D01*
X151028061Y-98063000D01*
X151231939Y-98063000D01*
X151431898Y-98023226D01*
X151620256Y-97945205D01*
X151638000Y-97933349D01*
X151655744Y-97945205D01*
%TA.AperFunction,Conductor*%
D27*
G36*
X151655744Y-97945205D02*
G01*
X151844102Y-98023226D01*
X152044061Y-98063000D01*
X152247939Y-98063000D01*
X152273000Y-98058015D01*
X152273000Y-98865397D01*
X152271316Y-98867449D01*
X152203110Y-98995052D01*
X152189172Y-99041000D01*
X152044061Y-99041000D01*
X151844102Y-99080774D01*
X151655744Y-99158795D01*
X151638000Y-99170651D01*
X151620256Y-99158795D01*
X151431898Y-99080774D01*
X151231939Y-99041000D01*
X151028061Y-99041000D01*
X150828102Y-99080774D01*
X150639744Y-99158795D01*
X150622000Y-99170651D01*
X150604256Y-99158795D01*
X150415898Y-99080774D01*
X150215939Y-99041000D01*
X150012061Y-99041000D01*
X149860000Y-99071247D01*
X149860000Y-98032753D01*
X150012061Y-98063000D01*
X150215939Y-98063000D01*
X150415898Y-98023226D01*
X150604256Y-97945205D01*
X150622000Y-97933349D01*
X150639744Y-97945205D01*
X150828102Y-98023226D01*
X151028061Y-98063000D01*
X151231939Y-98063000D01*
X151431898Y-98023226D01*
X151620256Y-97945205D01*
X151638000Y-97933349D01*
X151655744Y-97945205D01*
G37*
%TD.AperFunction*%
%TD*%
D26*
%TO.N,GND*%
X152885000Y-93230572D02*
X154178000Y-93230572D01*
X154178000Y-93459428D01*
X153042949Y-93459428D01*
X152949937Y-93320226D01*
X152857583Y-93227872D01*
X152885000Y-93230572D01*
%TA.AperFunction,Conductor*%
D27*
G36*
X152885000Y-93230572D02*
G01*
X154178000Y-93230572D01*
X154178000Y-93459428D01*
X153042949Y-93459428D01*
X152949937Y-93320226D01*
X152857583Y-93227872D01*
X152885000Y-93230572D01*
G37*
%TD.AperFunction*%
D26*
X152146928Y-91857500D02*
X152161110Y-92001491D01*
X152183408Y-92075000D01*
X152161110Y-92148509D01*
X152146928Y-92292500D01*
X152146928Y-92492500D01*
X152161110Y-92636491D01*
X152203110Y-92774948D01*
X152271316Y-92902551D01*
X152317509Y-92958838D01*
X152247939Y-92945000D01*
X152044061Y-92945000D01*
X151844102Y-92984774D01*
X151655744Y-93062795D01*
X151638000Y-93074651D01*
X151620256Y-93062795D01*
X151431898Y-92984774D01*
X151231939Y-92945000D01*
X151028061Y-92945000D01*
X150828102Y-92984774D01*
X150639744Y-93062795D01*
X150622000Y-93074651D01*
X150604256Y-93062795D01*
X150415898Y-92984774D01*
X150215939Y-92945000D01*
X150012061Y-92945000D01*
X149987000Y-92949985D01*
X149987000Y-91694000D01*
X152146928Y-91694000D01*
X152146928Y-91857500D01*
%TA.AperFunction,Conductor*%
D27*
G36*
X152146928Y-91857500D02*
G01*
X152161110Y-92001491D01*
X152183408Y-92075000D01*
X152161110Y-92148509D01*
X152146928Y-92292500D01*
X152146928Y-92492500D01*
X152161110Y-92636491D01*
X152203110Y-92774948D01*
X152271316Y-92902551D01*
X152317509Y-92958838D01*
X152247939Y-92945000D01*
X152044061Y-92945000D01*
X151844102Y-92984774D01*
X151655744Y-93062795D01*
X151638000Y-93074651D01*
X151620256Y-93062795D01*
X151431898Y-92984774D01*
X151231939Y-92945000D01*
X151028061Y-92945000D01*
X150828102Y-92984774D01*
X150639744Y-93062795D01*
X150622000Y-93074651D01*
X150604256Y-93062795D01*
X150415898Y-92984774D01*
X150215939Y-92945000D01*
X150012061Y-92945000D01*
X149987000Y-92949985D01*
X149987000Y-91694000D01*
X152146928Y-91694000D01*
X152146928Y-91857500D01*
G37*
%TD.AperFunction*%
%TD*%
D26*
%TO.N,GND*%
X158369000Y-102997000D02*
X157353000Y-102997000D01*
X157328224Y-102999440D01*
X157304399Y-103006667D01*
X157282443Y-103018403D01*
X157256574Y-103041349D01*
X156623163Y-103780328D01*
X156511386Y-103688595D01*
X156357850Y-103606528D01*
X156191254Y-103555992D01*
X156018000Y-103538928D01*
X155343000Y-103538928D01*
X155169746Y-103555992D01*
X155003150Y-103606528D01*
X154849614Y-103688595D01*
X154838763Y-103697500D01*
X154583401Y-103697500D01*
X154542448Y-103675610D01*
X154403991Y-103633610D01*
X154260000Y-103619428D01*
X153059749Y-103619428D01*
X153063205Y-103614256D01*
X153141226Y-103425898D01*
X153148253Y-103390572D01*
X154260000Y-103390572D01*
X154403991Y-103376390D01*
X154542448Y-103334390D01*
X154670051Y-103266184D01*
X154781896Y-103174396D01*
X154823255Y-103124000D01*
X155067000Y-103124000D01*
X155091776Y-103121560D01*
X155115601Y-103114333D01*
X155137557Y-103102597D01*
X155156803Y-103086803D01*
X155172597Y-103067557D01*
X155184333Y-103045601D01*
X155191560Y-103021776D01*
X155194000Y-102997000D01*
X155194000Y-102042500D01*
X156871178Y-102042500D01*
X156908500Y-102046176D01*
X156945822Y-102042500D01*
X156945833Y-102042500D01*
X157057486Y-102031503D01*
X157200747Y-101988046D01*
X157213929Y-101981000D01*
X158369000Y-101981000D01*
X158369000Y-102997000D01*
%TA.AperFunction,Conductor*%
D27*
G36*
X158369000Y-102997000D02*
G01*
X157353000Y-102997000D01*
X157328224Y-102999440D01*
X157304399Y-103006667D01*
X157282443Y-103018403D01*
X157256574Y-103041349D01*
X156623163Y-103780328D01*
X156511386Y-103688595D01*
X156357850Y-103606528D01*
X156191254Y-103555992D01*
X156018000Y-103538928D01*
X155343000Y-103538928D01*
X155169746Y-103555992D01*
X155003150Y-103606528D01*
X154849614Y-103688595D01*
X154838763Y-103697500D01*
X154583401Y-103697500D01*
X154542448Y-103675610D01*
X154403991Y-103633610D01*
X154260000Y-103619428D01*
X153059749Y-103619428D01*
X153063205Y-103614256D01*
X153141226Y-103425898D01*
X153148253Y-103390572D01*
X154260000Y-103390572D01*
X154403991Y-103376390D01*
X154542448Y-103334390D01*
X154670051Y-103266184D01*
X154781896Y-103174396D01*
X154823255Y-103124000D01*
X155067000Y-103124000D01*
X155091776Y-103121560D01*
X155115601Y-103114333D01*
X155137557Y-103102597D01*
X155156803Y-103086803D01*
X155172597Y-103067557D01*
X155184333Y-103045601D01*
X155191560Y-103021776D01*
X155194000Y-102997000D01*
X155194000Y-102042500D01*
X156871178Y-102042500D01*
X156908500Y-102046176D01*
X156945822Y-102042500D01*
X156945833Y-102042500D01*
X157057486Y-102031503D01*
X157200747Y-101988046D01*
X157213929Y-101981000D01*
X158369000Y-101981000D01*
X158369000Y-102997000D01*
G37*
%TD.AperFunction*%
%TD*%
M02*
