M48
; DRILL file {KiCad (5.1.9)-1} date 11/06/21 22:46:38
; FORMAT={-:-/ absolute / inch / decimal}
; #@! TF.CreationDate,2021-11-06T22:46:38-05:00
; #@! TF.GenerationSoftware,Kicad,Pcbnew,(5.1.9)-1
; #@! TF.FileFunction,Plated,1,4,PTH
FMAT,2
INCH
T1C0.0157
T2C0.0315
T3C0.0394
T4C0.0472
T5C0.2402
%
G90
G05
T1
X4.85Y-3.39
X4.86Y-4.42
X4.87Y-3.35
X4.8756Y-4.085
X4.8756Y-4.185
X4.88Y-4.38
X4.89Y-3.39
X4.9Y-4.42
X4.91Y-3.35
X4.92Y-4.38
X4.92Y-4.57
X4.93Y-3.39
X4.94Y-4.42
X4.95Y-3.35
X4.96Y-4.38
X4.97Y-3.39
X4.9785Y-3.66
X4.98Y-4.42
X4.99Y-3.35
X5.0Y-4.38
X5.01Y-3.39
X5.015Y-3.6235
X5.02Y-4.42
X5.03Y-3.2
X5.03Y-3.35
X5.04Y-4.38
X5.06Y-4.42
X5.07Y-3.35
X5.07Y-4.4892
X5.08Y-4.38
X5.09Y-3.39
X5.09Y-3.565
X5.09Y-3.61
X5.09Y-3.655
X5.09Y-3.7
X5.1Y-4.42
X5.11Y-3.35
X5.11Y-4.49
X5.12Y-4.38
X5.14Y-4.42
X5.1506Y-4.49
X5.1558Y-4.185
X5.16Y-4.38
X5.19Y-3.2808
X5.19Y-3.35
X5.21Y-3.39
X5.22Y-4.42
X5.23Y-3.28
X5.23Y-3.35
X5.24Y-4.38
X5.25Y-3.39
X5.26Y-4.42
X5.27Y-3.35
X5.2706Y-3.28
X5.275Y-4.195
X5.28Y-4.38
X5.29Y-3.39
X5.2992Y-4.285
X5.3Y-4.42
X5.31Y-3.35
X5.32Y-4.38
X5.33Y-3.39
X5.34Y-4.42
X5.35Y-3.35
X5.36Y-4.38
X5.37Y-3.39
X5.38Y-4.42
X5.39Y-3.35
X5.4Y-4.38
X5.41Y-3.39
X5.43Y-4.42
X5.44Y-3.35
X5.44Y-3.42
X5.44Y-3.46
X5.44Y-3.5
X5.44Y-3.54
X5.44Y-3.58
X5.44Y-3.62
X5.44Y-3.66
X5.44Y-3.74
X5.44Y-3.78
X5.44Y-3.82
X5.44Y-3.86
X5.44Y-3.9
X5.44Y-3.94
X5.44Y-3.98
X5.44Y-4.02
X5.44Y-4.06
X5.44Y-4.1
X5.44Y-4.14
X5.44Y-4.18
X5.44Y-4.22
X5.44Y-4.26
X5.44Y-4.3
X5.44Y-4.34
X5.44Y-4.38
X5.48Y-3.35
X5.48Y-3.39
X5.48Y-3.44
X5.48Y-3.48
X5.48Y-3.52
X5.48Y-3.56
X5.48Y-3.6
X5.48Y-3.64
X5.48Y-3.72
X5.48Y-3.76
X5.48Y-3.8
X5.48Y-3.84
X5.48Y-3.88
X5.48Y-3.92
X5.48Y-3.96
X5.48Y-4.0
X5.48Y-4.04
X5.48Y-4.08
X5.48Y-4.12
X5.48Y-4.16
X5.48Y-4.2
X5.48Y-4.24
X5.48Y-4.28
X5.48Y-4.32
X5.48Y-4.36
X5.48Y-4.42
X5.51Y-4.58
X5.51Y-4.62
X5.51Y-4.7
X5.51Y-4.74
X5.5126Y-4.6626
X5.52Y-3.825
X5.525Y-3.75
X5.525Y-4.825
X5.525Y-4.875
X5.525Y-4.925
X5.53Y-3.39
X5.53Y-3.44
X5.53Y-3.935
X5.54Y-3.53
X5.54Y-3.72
X5.545Y-3.795
X5.55Y-3.61
X5.55Y-3.65
X5.55Y-3.965
X5.55Y-4.58
X5.55Y-4.62
X5.55Y-4.66
X5.55Y-4.7
X5.55Y-4.74
X5.56Y-3.37
X5.56Y-3.41
X5.56Y-3.46
X5.56Y-3.57
X5.56Y-4.13
X5.56Y-4.17
X5.56Y-4.23
X5.56Y-4.27
X5.56Y-4.32
X5.575Y-4.825
X5.575Y-4.875
X5.575Y-4.925
X5.58Y-4.04
X5.6Y-4.01
X5.625Y-4.725
X5.625Y-4.775
X5.625Y-4.825
X5.625Y-4.875
X5.625Y-4.925
X5.675Y-3.9
X5.675Y-4.725
X5.675Y-4.775
X5.675Y-4.825
X5.675Y-4.875
X5.675Y-4.925
X5.69Y-3.61
X5.7Y-3.87
X5.7Y-4.13
X5.7Y-4.17
X5.7024Y-4.0874
X5.705Y-3.935
X5.82Y-3.95
X5.82Y-4.04
X5.91Y-3.62
X5.91Y-3.66
X5.91Y-3.7
X5.91Y-3.74
X5.91Y-3.78
X5.91Y-3.82
X5.91Y-3.86
X5.91Y-3.9
X5.91Y-3.94
X5.91Y-3.98
X5.91Y-4.02
X5.91Y-4.06
X5.91Y-4.14
X5.9149Y-4.65
X5.925Y-4.4
X5.95Y-3.565
X5.95Y-3.62
X5.95Y-3.66
X5.95Y-3.7
X5.95Y-3.74
X5.95Y-3.78
X5.95Y-3.82
X5.95Y-3.86
X5.95Y-3.9
X5.95Y-3.94
X5.95Y-3.98
X5.95Y-4.02
X5.95Y-4.06
X5.95Y-4.1
X5.95Y-4.14
X5.975Y-4.4
X5.985Y-3.565
X5.99Y-3.62
X5.99Y-3.66
X5.99Y-3.7
X5.99Y-3.74
X5.99Y-3.78
X5.99Y-3.82
X5.99Y-3.86
X5.99Y-3.9
X5.99Y-3.94
X5.99Y-3.98
X5.99Y-4.02
X5.99Y-4.06
X5.99Y-4.1
X5.99Y-4.14
X6.03Y-4.205
X6.065Y-4.185
X6.075Y-4.675
X6.11Y-3.9
X6.125Y-4.575
X6.125Y-4.625
X6.125Y-4.675
X6.15Y-3.9
X6.175Y-4.575
X6.175Y-4.625
X6.175Y-4.675
X6.19Y-3.9
X6.225Y-4.675
X6.23Y-3.9
X6.27Y-3.9
X6.275Y-4.675
X6.31Y-3.9
X6.325Y-4.575
X6.325Y-4.625
X6.325Y-4.675
X6.375Y-4.575
X6.375Y-4.625
X6.375Y-4.675
X6.425Y-4.625
X6.425Y-4.675
X6.44Y-3.78
X6.45Y-3.41
X6.45Y-3.59
X6.45Y-3.65
X6.45Y-4.1
X6.45Y-4.16
X6.45Y-4.34
X6.45Y-4.4
X6.465Y-3.81
X6.475Y-4.13
X6.475Y-4.625
X6.475Y-4.675
X6.48Y-3.38
X6.48Y-3.62
X6.48Y-4.37
X6.495Y-3.78
X6.5Y-3.35
X6.5Y-3.41
X6.5Y-3.59
X6.5Y-3.65
X6.5Y-4.1
X6.5Y-4.16
X6.5Y-4.34
X6.5Y-4.4
X6.525Y-3.81
X6.525Y-4.13
X6.525Y-4.625
X6.525Y-4.675
X6.53Y-3.38
X6.53Y-3.62
X6.53Y-4.37
X6.55Y-3.35
X6.55Y-3.41
X6.55Y-3.59
X6.55Y-3.65
X6.55Y-3.78
X6.55Y-4.1
X6.55Y-4.16
X6.55Y-4.34
X6.55Y-4.4
X6.575Y-3.75
X6.575Y-4.13
X6.575Y-4.625
X6.575Y-4.675
X6.58Y-3.38
X6.58Y-3.62
X6.58Y-3.81
X6.58Y-4.37
X6.6Y-3.35
X6.6Y-3.41
X6.6Y-3.59
X6.6Y-3.65
X6.6Y-3.72
X6.6Y-3.78
X6.6Y-4.1
X6.6Y-4.16
X6.6Y-4.34
X6.6Y-4.4
X6.625Y-4.625
X6.625Y-4.675
X6.675Y-4.625
X6.675Y-4.675
X6.725Y-4.575
X6.725Y-4.625
X6.725Y-4.675
X6.775Y-4.675
X6.825Y-4.675
X6.875Y-4.675
X6.93Y-3.63
X6.93Y-3.69
X6.93Y-3.94
X6.93Y-4.0
X6.97Y-3.21
X6.97Y-3.27
X6.97Y-3.66
X6.97Y-3.97
X6.97Y-4.36
X6.97Y-4.42
X7.0Y-3.24
X7.0Y-4.39
X7.01Y-3.63
X7.01Y-3.69
X7.01Y-3.94
X7.01Y-4.0
X7.02Y-3.21
X7.02Y-3.27
X7.02Y-4.36
X7.02Y-4.42
X7.05Y-3.24
X7.05Y-3.66
X7.05Y-3.97
X7.05Y-4.39
X7.07Y-3.21
X7.07Y-3.27
X7.07Y-4.36
X7.07Y-4.42
X7.09Y-3.63
X7.09Y-3.69
X7.09Y-3.94
X7.09Y-4.0
X7.1Y-3.24
X7.1Y-4.39
X7.12Y-3.21
X7.12Y-3.27
X7.12Y-4.36
X7.12Y-4.42
X7.13Y-3.66
X7.13Y-3.97
X7.17Y-3.63
X7.17Y-3.69
X7.17Y-3.94
X7.17Y-4.0
T2
X5.075Y-3.77
X5.075Y-4.07
X5.175Y-3.77
X5.175Y-4.07
X5.275Y-3.77
X5.275Y-4.07
X5.375Y-3.77
X5.375Y-4.07
T3
X4.89Y-3.56
X4.89Y-3.66
X4.89Y-3.76
X4.89Y-3.86
X4.89Y-3.96
X5.555Y-3.205
X5.655Y-3.205
X5.755Y-3.205
X5.855Y-3.205
X5.955Y-3.205
X6.1Y-5.0
X6.2Y-5.0
X6.3Y-5.0
X6.4Y-5.0
X6.5Y-5.0
X6.6Y-5.0
T4
X5.0573Y-3.46
X5.0573Y-4.29
X5.125Y-4.7831
X5.125Y-4.98
X6.14Y-3.46
X6.14Y-4.29
X6.24Y-4.5931
X6.24Y-4.79
X6.83Y-4.6031
X6.83Y-4.8
T5
X7.555Y-3.39
X7.555Y-3.9802
X7.555Y-4.5699
T0
M30
