%TF.GenerationSoftware,KiCad,Pcbnew,(5.1.9)-1*%
%TF.CreationDate,2021-11-06T22:46:36-05:00*%
%TF.ProjectId,Discrete_Channel,44697363-7265-4746-955f-4368616e6e65,rev?*%
%TF.SameCoordinates,Original*%
%TF.FileFunction,Copper,L2,Inr*%
%TF.FilePolarity,Positive*%
%FSLAX46Y46*%
G04 Gerber Fmt 4.6, Leading zero omitted, Abs format (unit mm)*
G04 Created by KiCad (PCBNEW (5.1.9)-1) date 2021-11-06 22:46:36*
%MOMM*%
%LPD*%
G01*
G04 APERTURE LIST*
%TA.AperFunction,ComponentPad*%
%ADD10R,2.400000X2.400000*%
%TD*%
%TA.AperFunction,ComponentPad*%
%ADD11C,2.400000*%
%TD*%
%TA.AperFunction,ComponentPad*%
%ADD12R,1.700000X1.700000*%
%TD*%
%TA.AperFunction,ComponentPad*%
%ADD13O,1.700000X1.700000*%
%TD*%
%TA.AperFunction,ComponentPad*%
%ADD14R,1.600000X2.400000*%
%TD*%
%TA.AperFunction,ComponentPad*%
%ADD15O,1.600000X2.400000*%
%TD*%
%TA.AperFunction,ComponentPad*%
%ADD16C,10.160000*%
%TD*%
%TA.AperFunction,ViaPad*%
%ADD17C,0.800000*%
%TD*%
%TA.AperFunction,Conductor*%
%ADD18C,0.250000*%
%TD*%
%TA.AperFunction,Conductor*%
%ADD19C,0.500000*%
%TD*%
%TA.AperFunction,Conductor*%
%ADD20C,0.254000*%
%TD*%
%TA.AperFunction,Conductor*%
%ADD21C,0.100000*%
%TD*%
%TA.AperFunction,NonConductor*%
%ADD22C,0.254000*%
%TD*%
%TA.AperFunction,NonConductor*%
%ADD23C,0.100000*%
%TD*%
G04 APERTURE END LIST*
D10*
%TO.N,/PVDD*%
%TO.C,C1*%
X158496000Y-121666000D03*
D11*
%TO.N,GND*%
X158496000Y-116666000D03*
%TD*%
%TO.N,GND*%
%TO.C,C2*%
X173482000Y-116920000D03*
D10*
%TO.N,/PVDD*%
X173482000Y-121920000D03*
%TD*%
%TO.N,/+12V*%
%TO.C,C17*%
X130175000Y-126492000D03*
D11*
%TO.N,GND*%
X130175000Y-121492000D03*
%TD*%
D12*
%TO.N,/~FAULT*%
%TO.C,J1*%
X141097000Y-81407000D03*
D13*
%TO.N,/~RESET*%
X143637000Y-81407000D03*
%TO.N,/OSC_IOM*%
X146177000Y-81407000D03*
%TO.N,/OSC_IOP*%
X148717000Y-81407000D03*
%TO.N,/~ERROR*%
X151257000Y-81407000D03*
%TD*%
%TO.N,/IN_A*%
%TO.C,J3*%
X124206000Y-100584000D03*
%TO.N,/IN_B*%
X124206000Y-98044000D03*
%TO.N,VEE*%
X124206000Y-95504000D03*
%TO.N,GNDA*%
X124206000Y-92964000D03*
D12*
%TO.N,VCC*%
X124206000Y-90424000D03*
%TD*%
%TO.N,GND*%
%TO.C,J2*%
X154940000Y-127000000D03*
D13*
%TO.N,/+12V*%
X157480000Y-127000000D03*
X160020000Y-127000000D03*
%TO.N,/PVDD*%
X162560000Y-127000000D03*
X165100000Y-127000000D03*
%TO.N,GND*%
X167640000Y-127000000D03*
%TD*%
D11*
%TO.N,Net-(C20-Pad1)*%
%TO.C,C20*%
X155956000Y-108966000D03*
%TO.N,/FB_A*%
X128456000Y-108966000D03*
%TD*%
%TO.N,/FB_B*%
%TO.C,C21*%
X128456000Y-87884000D03*
%TO.N,Net-(C21-Pad1)*%
X155956000Y-87884000D03*
%TD*%
D14*
%TO.N,/FB_A*%
%TO.C,U2*%
X128905000Y-103378000D03*
D15*
%TO.N,GNDA*%
X136525000Y-95758000D03*
%TO.N,Net-(C19-Pad1)*%
X131445000Y-103378000D03*
%TO.N,Net-(C18-Pad1)*%
X133985000Y-95758000D03*
%TO.N,GNDA*%
X133985000Y-103378000D03*
%TO.N,/FB_B*%
X131445000Y-95758000D03*
%TO.N,VEE*%
X136525000Y-103378000D03*
%TO.N,VCC*%
X128905000Y-95758000D03*
%TD*%
D16*
%TO.N,/SPEAKER+*%
%TO.C,J4*%
X191897000Y-86106000D03*
%TO.N,/SPEAKER-*%
X191897000Y-116076000D03*
%TO.N,GND*%
X191897000Y-101096000D03*
%TD*%
D17*
%TO.N,GNDA*%
X123190000Y-86106000D03*
X124206000Y-86106000D03*
X125222000Y-86106000D03*
X126238000Y-86106000D03*
X127254000Y-86106000D03*
X129286000Y-86106000D03*
X132334000Y-86106000D03*
X133350000Y-86106000D03*
X134366000Y-86106000D03*
X135382000Y-86106000D03*
X136398000Y-86106000D03*
X137414000Y-86106000D03*
X138176000Y-86868000D03*
X138176000Y-87884000D03*
X138176000Y-88900000D03*
X138176000Y-89916000D03*
X138176000Y-90932000D03*
X138176000Y-91948000D03*
X138176000Y-94996000D03*
X138176000Y-96012000D03*
X138176000Y-97028000D03*
X138176000Y-98044000D03*
X138176000Y-99060000D03*
X138176000Y-100076000D03*
X138176000Y-101092000D03*
X138176000Y-102108000D03*
X138176000Y-103124000D03*
X138176000Y-104140000D03*
X138176000Y-105156000D03*
X138176000Y-106172000D03*
X138176000Y-107188000D03*
X138176000Y-108204000D03*
X138176000Y-109220000D03*
X138176000Y-110236000D03*
X138176000Y-111252000D03*
X137160000Y-111252000D03*
X136144000Y-111252000D03*
X135128000Y-111252000D03*
X134112000Y-111252000D03*
X133096000Y-111252000D03*
X131064000Y-111252000D03*
X130048000Y-111252000D03*
X129032000Y-111252000D03*
X128016000Y-111252000D03*
X127000000Y-111252000D03*
X125984000Y-111252000D03*
X124968000Y-111252000D03*
X123952000Y-111252000D03*
%TO.N,*%
X123444000Y-112268000D03*
X124460000Y-112268000D03*
X125476000Y-112268000D03*
X126492000Y-112268000D03*
X127508000Y-112268000D03*
X128524000Y-112268000D03*
X129540000Y-112268000D03*
X130556000Y-112268000D03*
X132588000Y-112268000D03*
X133604000Y-112268000D03*
X134620000Y-112268000D03*
X135636000Y-112268000D03*
X136652000Y-112268000D03*
X137922000Y-112268000D03*
X139192000Y-112268000D03*
X139192000Y-110744000D03*
X139192000Y-109728000D03*
X139192000Y-108712000D03*
X139192000Y-106680000D03*
X139192000Y-107696000D03*
X139192000Y-105664000D03*
X139192000Y-104648000D03*
X139192000Y-103632000D03*
X139192000Y-102616000D03*
X139192000Y-101600000D03*
X139192000Y-100584000D03*
X139192000Y-99568000D03*
X139192000Y-98552000D03*
X139192000Y-97536000D03*
X139192000Y-96520000D03*
X139192000Y-95504000D03*
X139192000Y-94488000D03*
X139192000Y-92456000D03*
X139192000Y-91440000D03*
X139192000Y-90424000D03*
X139192000Y-89408000D03*
X139192000Y-88392000D03*
X139192000Y-87376000D03*
X139192000Y-86106000D03*
X138176000Y-85090000D03*
X136906000Y-85090000D03*
X135890000Y-85090000D03*
X134874000Y-85090000D03*
X133858000Y-85090000D03*
X132842000Y-85090000D03*
X131826000Y-85090000D03*
X128778000Y-85090000D03*
X127762000Y-85090000D03*
X126746000Y-85090000D03*
X125730000Y-85090000D03*
X124714000Y-85090000D03*
X123698000Y-85090000D03*
X139192000Y-85090000D03*
X129794000Y-85090000D03*
%TO.N,GNDA*%
X138176000Y-92964000D03*
X124968000Y-116078000D03*
X127762000Y-81280000D03*
%TO.N,/+12V*%
X139954000Y-117348000D03*
X139954000Y-116332000D03*
X140970000Y-116332000D03*
X140970000Y-117348000D03*
X140970000Y-118364000D03*
%TO.N,/OUT_D*%
X152019000Y-90551000D03*
X151130000Y-90551000D03*
%TO.N,/OUT_A*%
X154051000Y-106299000D03*
X153162000Y-106807000D03*
%TO.N,/OUT_B*%
X160274000Y-99060000D03*
X159258000Y-99060000D03*
X167005000Y-95250000D03*
X164211000Y-96774000D03*
X165735000Y-96774000D03*
X167132000Y-96774000D03*
X167640000Y-94488000D03*
X167640000Y-96012000D03*
X166370000Y-96012000D03*
X164973000Y-96012000D03*
X163576000Y-96012000D03*
%TO.N,/OUT_A*%
X167005000Y-104902000D03*
X165735000Y-104902000D03*
X164465000Y-104902000D03*
%TO.N,/SPEAKER+*%
X177038000Y-81534000D03*
X180848000Y-83058000D03*
X178308000Y-81534000D03*
X179578000Y-81534000D03*
X178308000Y-83058000D03*
X180848000Y-81534000D03*
X179578000Y-83058000D03*
X177038000Y-83058000D03*
X180340000Y-82296000D03*
X177800000Y-82296000D03*
X179070000Y-82296000D03*
%TO.N,/SPEAKER-*%
X177038000Y-110744000D03*
X180848000Y-112268000D03*
X178308000Y-110744000D03*
X179578000Y-110744000D03*
X178308000Y-112268000D03*
X180848000Y-110744000D03*
X179578000Y-112268000D03*
X177038000Y-112268000D03*
X180340000Y-111506000D03*
X177800000Y-111506000D03*
X179070000Y-111506000D03*
X163830000Y-110236000D03*
X167640000Y-111760000D03*
X165100000Y-110236000D03*
X166370000Y-110236000D03*
X165100000Y-111760000D03*
X167640000Y-110236000D03*
X166370000Y-111760000D03*
X163830000Y-111760000D03*
X167132000Y-110998000D03*
X164592000Y-110998000D03*
X165862000Y-110998000D03*
%TO.N,/SPEAKER+*%
X167640000Y-86614000D03*
X165100000Y-85090000D03*
X166370000Y-85090000D03*
X165100000Y-86614000D03*
X167640000Y-85090000D03*
X166370000Y-86614000D03*
X163830000Y-86614000D03*
X167132000Y-85852000D03*
X164592000Y-85852000D03*
X165862000Y-85852000D03*
%TO.N,/OUT_D*%
X167132000Y-91948000D03*
X165862000Y-91948000D03*
X164592000Y-91948000D03*
%TO.N,GND*%
X176022000Y-101600000D03*
X180086000Y-100076000D03*
X178054000Y-101600000D03*
X178054000Y-100076000D03*
X180086000Y-101600000D03*
X181102000Y-100838000D03*
X182118000Y-100076000D03*
X182118000Y-101600000D03*
X177038000Y-100838000D03*
X176022000Y-100076000D03*
X179070000Y-100838000D03*
X176022000Y-92202000D03*
X178054000Y-92202000D03*
X180086000Y-92202000D03*
X182118000Y-92202000D03*
X180086000Y-93726000D03*
X178054000Y-93726000D03*
X181102000Y-92964000D03*
X179070000Y-92964000D03*
X177038000Y-92964000D03*
X176022000Y-93726000D03*
X141224000Y-105918000D03*
X141224000Y-104902000D03*
X141732000Y-102616000D03*
X142240000Y-101854000D03*
X140970000Y-100711000D03*
X140462000Y-99949000D03*
X140208000Y-97155000D03*
X140843000Y-96393000D03*
X140335000Y-95250000D03*
X140716000Y-94488000D03*
X140716000Y-89662000D03*
X141224000Y-90678000D03*
%TO.N,/+12V*%
X141224000Y-86614000D03*
X141224000Y-85598000D03*
X141224000Y-87884000D03*
X140462000Y-86106000D03*
X140462000Y-87376000D03*
X141224000Y-107442000D03*
X141224000Y-109728000D03*
X141224000Y-108458000D03*
X139954000Y-119380000D03*
X139954000Y-120396000D03*
X140970000Y-120396000D03*
X140970000Y-119380000D03*
%TO.N,/PVDD*%
X152146000Y-96012000D03*
X151130000Y-97028000D03*
X152146000Y-97028000D03*
X150114000Y-97028000D03*
X150114000Y-96012000D03*
X151130000Y-96012000D03*
X152146000Y-101092000D03*
X150114000Y-101092000D03*
X152146000Y-100076000D03*
X151130000Y-101092000D03*
X151130000Y-100076000D03*
X150114000Y-100076000D03*
%TO.N,GND*%
X151130000Y-105156000D03*
X150114000Y-105156000D03*
X152146000Y-98044000D03*
X151130000Y-98044000D03*
X150114000Y-98044000D03*
X150114000Y-99060000D03*
X151130000Y-99060000D03*
X152146000Y-99060000D03*
X151130000Y-91948000D03*
X150114000Y-91948000D03*
X151130000Y-104140000D03*
X152146000Y-105156000D03*
X151130000Y-92964000D03*
X152146000Y-92964000D03*
X150114000Y-92964000D03*
X152146000Y-91948000D03*
X152146000Y-104140000D03*
X182118000Y-93726000D03*
X142875000Y-120015000D03*
X144145000Y-120015000D03*
X144145000Y-121285000D03*
X142875000Y-121285000D03*
X142875000Y-122555000D03*
X144145000Y-122555000D03*
X142875000Y-123825000D03*
X144145000Y-123825000D03*
X144145000Y-125095000D03*
X142875000Y-125095000D03*
X141605000Y-123825000D03*
X141605000Y-125095000D03*
X141605000Y-122555000D03*
X140335000Y-122555000D03*
X140335000Y-123825000D03*
X140335000Y-125095000D03*
X154305000Y-118745000D03*
X155575000Y-118745000D03*
X156845000Y-118745000D03*
X158115000Y-118745000D03*
X159385000Y-118745000D03*
X160655000Y-118745000D03*
X161925000Y-118745000D03*
X163195000Y-118745000D03*
X164465000Y-118745000D03*
X165735000Y-118745000D03*
X167005000Y-118745000D03*
X168275000Y-118745000D03*
X169545000Y-118745000D03*
X170815000Y-118745000D03*
X172085000Y-118745000D03*
X173355000Y-118745000D03*
X174625000Y-118745000D03*
X170815000Y-117475000D03*
X169545000Y-117475000D03*
X168275000Y-117475000D03*
X167005000Y-117475000D03*
X165735000Y-117475000D03*
X164465000Y-117475000D03*
X163195000Y-117475000D03*
X161925000Y-117475000D03*
X160655000Y-117475000D03*
X160655000Y-116205000D03*
X161925000Y-116205000D03*
X156845000Y-116205000D03*
X156845000Y-117475000D03*
X155575000Y-117475000D03*
X155575000Y-116205000D03*
X170815000Y-116205000D03*
X150495000Y-111760000D03*
X151765000Y-111760000D03*
%TO.N,VCC*%
X129286000Y-93980000D03*
X129286000Y-92837000D03*
X129286000Y-91694000D03*
X129286000Y-90551000D03*
%TO.N,Net-(C14-Pad2)*%
X144780000Y-104902000D03*
X144780000Y-105918000D03*
X150238000Y-118110000D03*
%TO.N,/+12V*%
X140019000Y-118429000D03*
%TO.N,Net-(C19-Pad1)*%
X130958500Y-106299000D03*
X123841000Y-106299000D03*
X123841000Y-103759000D03*
%TO.N,/FB_A*%
X131826000Y-83333500D03*
X133874000Y-83312000D03*
X132842000Y-83312000D03*
%TO.N,/FB_B*%
X130826000Y-114046000D03*
X129794000Y-114046000D03*
X128778000Y-114024500D03*
%TO.N,Net-(C20-Pad1)*%
X147828000Y-102616000D03*
%TO.N,Net-(C21-Pad1)*%
X147828000Y-100330000D03*
%TO.N,/OUT_A*%
X163830000Y-104140000D03*
X167640000Y-104140000D03*
X166370000Y-104140000D03*
X165100000Y-104140000D03*
X152146000Y-103124000D03*
X163830000Y-105664000D03*
X150114000Y-103124000D03*
X165100000Y-105664000D03*
X167640000Y-105664000D03*
X151130000Y-102108000D03*
X150114000Y-102108000D03*
X151130000Y-103124000D03*
X152146000Y-102108000D03*
X166370000Y-105664000D03*
%TO.N,/OUT_B*%
X155194000Y-99060000D03*
X156210000Y-99060000D03*
X157226000Y-99060000D03*
X158242000Y-99060000D03*
%TO.N,/OUT_D*%
X152146000Y-93980000D03*
X152146000Y-94996000D03*
X151130000Y-94996000D03*
X151130000Y-93980000D03*
X150114000Y-94996000D03*
X150114000Y-93980000D03*
X165100000Y-91186000D03*
X166370000Y-91186000D03*
X167640000Y-91186000D03*
X165100000Y-92710000D03*
X166370000Y-92710000D03*
X167640000Y-92710000D03*
X163830000Y-91186000D03*
X163830000Y-92710000D03*
%TO.N,/OSC_IOP*%
X144145000Y-99060000D03*
%TO.N,/OSC_IOM*%
X144907000Y-99949000D03*
%TO.N,/~ERROR*%
X144526000Y-91694000D03*
%TO.N,/~FAULT*%
X140970000Y-91694000D03*
%TO.N,/~RESET*%
X140970000Y-92710000D03*
%TO.N,GNDA*%
X127381000Y-92036500D03*
X126453500Y-92964000D03*
X134598500Y-108839000D03*
X133985000Y-106553000D03*
%TO.N,/DVDD*%
X144780000Y-98298000D03*
X144840942Y-103819942D03*
%TD*%
D18*
%TO.N,GNDA*%
X138176000Y-86106000D02*
X138176000Y-92964000D01*
X138176000Y-92964000D02*
X138176000Y-94996000D01*
%TO.N,*%
X129794000Y-85090000D02*
X123698000Y-85090000D01*
X139192000Y-85090000D02*
X139192000Y-112268000D01*
X139192000Y-112268000D02*
X132588000Y-112268000D01*
X130556000Y-112268000D02*
X123444000Y-112268000D01*
X139192000Y-85090000D02*
X131826000Y-85090000D01*
D19*
%TO.N,Net-(C14-Pad2)*%
X144780000Y-105918000D02*
X144780000Y-104902000D01*
X145415000Y-118110000D02*
X150238000Y-118110000D01*
X144780000Y-117475000D02*
X145415000Y-118110000D01*
X144780000Y-105918000D02*
X144780000Y-117475000D01*
D18*
%TO.N,Net-(C20-Pad1)*%
X155956000Y-108966000D02*
X150114000Y-108966000D01*
X147828000Y-106680000D02*
X147828000Y-102616000D01*
X150114000Y-108966000D02*
X147828000Y-106680000D01*
%TO.N,Net-(C21-Pad1)*%
X155956000Y-87884000D02*
X151130000Y-87884000D01*
X147828000Y-91186000D02*
X147828000Y-100330000D01*
X151130000Y-87884000D02*
X147828000Y-91186000D01*
%TO.N,/OUT_A*%
X167640000Y-104140000D02*
X167640000Y-105410000D01*
X167386000Y-105664000D02*
X163830000Y-105664000D01*
X167640000Y-105410000D02*
X167386000Y-105664000D01*
X167640000Y-104140000D02*
X163830000Y-104140000D01*
X163830000Y-104140000D02*
X163830000Y-105664000D01*
X154051000Y-104013000D02*
X154051000Y-106299000D01*
X152146000Y-102108000D02*
X154051000Y-104013000D01*
X151130000Y-103124000D02*
X151130000Y-102108000D01*
X150114000Y-102108000D02*
X150114000Y-103124000D01*
%TO.N,/OUT_D*%
X167640000Y-92710000D02*
X167640000Y-91186000D01*
X167640000Y-91186000D02*
X163830000Y-91186000D01*
X163830000Y-92710000D02*
X167640000Y-92710000D01*
X163830000Y-92710000D02*
X163830000Y-91186000D01*
%TO.N,/OSC_IOP*%
X144145000Y-98933000D02*
X143891000Y-98679000D01*
X143900999Y-86223001D02*
X148717000Y-81407000D01*
X143900999Y-91938001D02*
X143900999Y-86223001D01*
X143891000Y-98679000D02*
X143891000Y-91948000D01*
%TO.N,/OSC_IOM*%
X144907000Y-99949000D02*
X143764000Y-99949000D01*
X143764000Y-99949000D02*
X143256000Y-99441000D01*
X143256000Y-84328000D02*
X146177000Y-81407000D01*
X143256000Y-85979000D02*
X143256000Y-84328000D01*
X143256000Y-99441000D02*
X143256000Y-85979000D01*
%TO.N,/~ERROR*%
X144526000Y-91694000D02*
X144526000Y-86487000D01*
X144526000Y-86487000D02*
X148336000Y-82677000D01*
X149987000Y-82677000D02*
X148336000Y-82677000D01*
X151257000Y-81407000D02*
X149987000Y-82677000D01*
%TO.N,/~FAULT*%
X141535685Y-91694000D02*
X141986000Y-91243685D01*
X140970000Y-91694000D02*
X141535685Y-91694000D01*
X141986000Y-82296000D02*
X141097000Y-81407000D01*
X141986000Y-91243685D02*
X141986000Y-82296000D01*
%TO.N,/~RESET*%
X140970000Y-92710000D02*
X141224000Y-92710000D01*
X142621000Y-91313000D02*
X142621000Y-82423000D01*
X141224000Y-92710000D02*
X142621000Y-91313000D01*
X142621000Y-82423000D02*
X143637000Y-81407000D01*
D19*
%TO.N,GNDA*%
X127381000Y-90551000D02*
X127381000Y-92036500D01*
X128231001Y-89700999D02*
X127381000Y-90551000D01*
X129081003Y-89700999D02*
X128231001Y-89700999D01*
X130937000Y-87845002D02*
X129081003Y-89700999D01*
X130937000Y-84455000D02*
X130937000Y-87845002D01*
X127762000Y-81280000D02*
X130937000Y-84455000D01*
X127381000Y-92036500D02*
X126453500Y-92964000D01*
X126453500Y-92964000D02*
X124206000Y-92964000D01*
X124968000Y-116078000D02*
X130810000Y-116078000D01*
X130810000Y-116078000D02*
X131699000Y-115189000D01*
X134250998Y-108839000D02*
X134598500Y-108839000D01*
X132245999Y-110843999D02*
X134250998Y-108839000D01*
X132245999Y-111328003D02*
X132245999Y-110843999D01*
X131699000Y-111875002D02*
X132245999Y-111328003D01*
X131699000Y-115189000D02*
X131699000Y-111875002D01*
X134598500Y-108839000D02*
X134598500Y-108817500D01*
X133985000Y-108225500D02*
X134598500Y-108839000D01*
X133985000Y-106553000D02*
X133985000Y-108225500D01*
X133985000Y-106553000D02*
X133985000Y-103378000D01*
X138176000Y-96012000D02*
X138176000Y-111252000D01*
X132334000Y-86106000D02*
X138176000Y-86106000D01*
X138176000Y-92075000D02*
X138176000Y-96012000D01*
X138176000Y-86106000D02*
X138176000Y-92075000D01*
X123190000Y-86106000D02*
X130175000Y-86106000D01*
X133096000Y-111252000D02*
X138176000Y-111252000D01*
X131064000Y-111252000D02*
X123952000Y-111252000D01*
%TD*%
D20*
%TO.N,/OUT_D*%
X168021000Y-92909373D02*
X167423017Y-93475884D01*
X167338102Y-93492774D01*
X167149744Y-93570795D01*
X166980226Y-93684063D01*
X166836063Y-93828226D01*
X166722795Y-93997744D01*
X166644774Y-94186102D01*
X166638141Y-94219450D01*
X166521417Y-94330031D01*
X166514744Y-94332795D01*
X166345226Y-94446063D01*
X166201063Y-94590226D01*
X166122231Y-94708207D01*
X165684394Y-95123000D01*
X165505468Y-95123000D01*
X165463256Y-95094795D01*
X165274898Y-95016774D01*
X165074939Y-94977000D01*
X164871061Y-94977000D01*
X164671102Y-95016774D01*
X164482744Y-95094795D01*
X164440532Y-95123000D01*
X164108468Y-95123000D01*
X164066256Y-95094795D01*
X163877898Y-95016774D01*
X163677939Y-94977000D01*
X163474061Y-94977000D01*
X163274102Y-95016774D01*
X163085744Y-95094795D01*
X163043532Y-95123000D01*
X152678468Y-95123000D01*
X152636256Y-95094795D01*
X152447898Y-95016774D01*
X152247939Y-94977000D01*
X152044061Y-94977000D01*
X151844102Y-95016774D01*
X151655744Y-95094795D01*
X151638000Y-95106651D01*
X151620256Y-95094795D01*
X151431898Y-95016774D01*
X151231939Y-94977000D01*
X151028061Y-94977000D01*
X150828102Y-95016774D01*
X150639744Y-95094795D01*
X150622000Y-95106651D01*
X150604256Y-95094795D01*
X150415898Y-95016774D01*
X150215939Y-94977000D01*
X150012061Y-94977000D01*
X149987000Y-94981985D01*
X149987000Y-93994015D01*
X150012061Y-93999000D01*
X150215939Y-93999000D01*
X150415898Y-93959226D01*
X150604256Y-93881205D01*
X150622000Y-93869349D01*
X150639744Y-93881205D01*
X150828102Y-93959226D01*
X151028061Y-93999000D01*
X151231939Y-93999000D01*
X151431898Y-93959226D01*
X151620256Y-93881205D01*
X151638000Y-93869349D01*
X151655744Y-93881205D01*
X151844102Y-93959226D01*
X152044061Y-93999000D01*
X152247939Y-93999000D01*
X152447898Y-93959226D01*
X152451944Y-93957550D01*
X152564197Y-94069803D01*
X152583443Y-94085597D01*
X152605399Y-94097333D01*
X152629224Y-94104560D01*
X152654000Y-94107000D01*
X160274000Y-94107000D01*
X160298776Y-94104560D01*
X160322601Y-94097333D01*
X160344557Y-94085597D01*
X160363803Y-94069803D01*
X163628606Y-90805000D01*
X168021000Y-90805000D01*
X168021000Y-92909373D01*
%TA.AperFunction,Conductor*%
D21*
G36*
X168021000Y-92909373D02*
G01*
X167423017Y-93475884D01*
X167338102Y-93492774D01*
X167149744Y-93570795D01*
X166980226Y-93684063D01*
X166836063Y-93828226D01*
X166722795Y-93997744D01*
X166644774Y-94186102D01*
X166638141Y-94219450D01*
X166521417Y-94330031D01*
X166514744Y-94332795D01*
X166345226Y-94446063D01*
X166201063Y-94590226D01*
X166122231Y-94708207D01*
X165684394Y-95123000D01*
X165505468Y-95123000D01*
X165463256Y-95094795D01*
X165274898Y-95016774D01*
X165074939Y-94977000D01*
X164871061Y-94977000D01*
X164671102Y-95016774D01*
X164482744Y-95094795D01*
X164440532Y-95123000D01*
X164108468Y-95123000D01*
X164066256Y-95094795D01*
X163877898Y-95016774D01*
X163677939Y-94977000D01*
X163474061Y-94977000D01*
X163274102Y-95016774D01*
X163085744Y-95094795D01*
X163043532Y-95123000D01*
X152678468Y-95123000D01*
X152636256Y-95094795D01*
X152447898Y-95016774D01*
X152247939Y-94977000D01*
X152044061Y-94977000D01*
X151844102Y-95016774D01*
X151655744Y-95094795D01*
X151638000Y-95106651D01*
X151620256Y-95094795D01*
X151431898Y-95016774D01*
X151231939Y-94977000D01*
X151028061Y-94977000D01*
X150828102Y-95016774D01*
X150639744Y-95094795D01*
X150622000Y-95106651D01*
X150604256Y-95094795D01*
X150415898Y-95016774D01*
X150215939Y-94977000D01*
X150012061Y-94977000D01*
X149987000Y-94981985D01*
X149987000Y-93994015D01*
X150012061Y-93999000D01*
X150215939Y-93999000D01*
X150415898Y-93959226D01*
X150604256Y-93881205D01*
X150622000Y-93869349D01*
X150639744Y-93881205D01*
X150828102Y-93959226D01*
X151028061Y-93999000D01*
X151231939Y-93999000D01*
X151431898Y-93959226D01*
X151620256Y-93881205D01*
X151638000Y-93869349D01*
X151655744Y-93881205D01*
X151844102Y-93959226D01*
X152044061Y-93999000D01*
X152247939Y-93999000D01*
X152447898Y-93959226D01*
X152451944Y-93957550D01*
X152564197Y-94069803D01*
X152583443Y-94085597D01*
X152605399Y-94097333D01*
X152629224Y-94104560D01*
X152654000Y-94107000D01*
X160274000Y-94107000D01*
X160298776Y-94104560D01*
X160322601Y-94097333D01*
X160344557Y-94085597D01*
X160363803Y-94069803D01*
X163628606Y-90805000D01*
X168021000Y-90805000D01*
X168021000Y-92909373D01*
G37*
%TD.AperFunction*%
%TD*%
D22*
X147337744Y-101247205D02*
X147526102Y-101325226D01*
X147726061Y-101365000D01*
X147929939Y-101365000D01*
X148129898Y-101325226D01*
X148318256Y-101247205D01*
X148360468Y-101219000D01*
X149083985Y-101219000D01*
X149118774Y-101393898D01*
X149196795Y-101582256D01*
X149208651Y-101600000D01*
X149196795Y-101617744D01*
X149118774Y-101806102D01*
X149079000Y-102006061D01*
X149079000Y-102209939D01*
X149118774Y-102409898D01*
X149196795Y-102598256D01*
X149208651Y-102616000D01*
X149196795Y-102633744D01*
X149118774Y-102822102D01*
X149079000Y-103022061D01*
X149079000Y-103225939D01*
X149118774Y-103425898D01*
X149196795Y-103614256D01*
X149225000Y-103656468D01*
X149225000Y-104623532D01*
X149196795Y-104665744D01*
X149118774Y-104854102D01*
X149079000Y-105054061D01*
X149079000Y-105257939D01*
X149118774Y-105457898D01*
X149196795Y-105646256D01*
X149225000Y-105688468D01*
X149225000Y-105918000D01*
X149227440Y-105942776D01*
X149234667Y-105966601D01*
X149246403Y-105988557D01*
X149262197Y-106007803D01*
X150278197Y-107023803D01*
X150297443Y-107039597D01*
X150319399Y-107051333D01*
X150343224Y-107058560D01*
X150368000Y-107061000D01*
X152157247Y-107061000D01*
X152166774Y-107108898D01*
X152244795Y-107297256D01*
X152358063Y-107466774D01*
X152502226Y-107610937D01*
X152671744Y-107724205D01*
X152860102Y-107802226D01*
X153060061Y-107842000D01*
X153263939Y-107842000D01*
X153463898Y-107802226D01*
X153652256Y-107724205D01*
X153821774Y-107610937D01*
X153965937Y-107466774D01*
X154054654Y-107334000D01*
X154152939Y-107334000D01*
X154352898Y-107294226D01*
X154541256Y-107216205D01*
X154710774Y-107102937D01*
X154752711Y-107061000D01*
X157861000Y-107061000D01*
X157861000Y-110871000D01*
X152297468Y-110871000D01*
X152255256Y-110842795D01*
X152066898Y-110764774D01*
X151866939Y-110725000D01*
X151663061Y-110725000D01*
X151463102Y-110764774D01*
X151274744Y-110842795D01*
X151232532Y-110871000D01*
X151027468Y-110871000D01*
X150985256Y-110842795D01*
X150796898Y-110764774D01*
X150596939Y-110725000D01*
X150393061Y-110725000D01*
X150193102Y-110764774D01*
X150104025Y-110801671D01*
X146431000Y-106883778D01*
X146431000Y-102514061D01*
X146793000Y-102514061D01*
X146793000Y-102717939D01*
X146832774Y-102917898D01*
X146910795Y-103106256D01*
X147024063Y-103275774D01*
X147068001Y-103319712D01*
X147068000Y-106642677D01*
X147064324Y-106680000D01*
X147068000Y-106717322D01*
X147068000Y-106717332D01*
X147078997Y-106828985D01*
X147110845Y-106933974D01*
X147122454Y-106972246D01*
X147193026Y-107104276D01*
X147214958Y-107131000D01*
X147287999Y-107220001D01*
X147317003Y-107243804D01*
X149550201Y-109477003D01*
X149573999Y-109506001D01*
X149689724Y-109600974D01*
X149821753Y-109671546D01*
X149965014Y-109715003D01*
X150076667Y-109726000D01*
X150076676Y-109726000D01*
X150113999Y-109729676D01*
X150151322Y-109726000D01*
X154284612Y-109726000D01*
X154329844Y-109835199D01*
X154530662Y-110135744D01*
X154786256Y-110391338D01*
X155086801Y-110592156D01*
X155420750Y-110730482D01*
X155775268Y-110801000D01*
X156136732Y-110801000D01*
X156491250Y-110730482D01*
X156825199Y-110592156D01*
X157125744Y-110391338D01*
X157381338Y-110135744D01*
X157582156Y-109835199D01*
X157720482Y-109501250D01*
X157791000Y-109146732D01*
X157791000Y-108785268D01*
X157720482Y-108430750D01*
X157582156Y-108096801D01*
X157381338Y-107796256D01*
X157125744Y-107540662D01*
X156825199Y-107339844D01*
X156491250Y-107201518D01*
X156136732Y-107131000D01*
X155775268Y-107131000D01*
X155420750Y-107201518D01*
X155086801Y-107339844D01*
X154786256Y-107540662D01*
X154530662Y-107796256D01*
X154329844Y-108096801D01*
X154284612Y-108206000D01*
X150428802Y-108206000D01*
X148588000Y-106365199D01*
X148588000Y-103319711D01*
X148631937Y-103275774D01*
X148745205Y-103106256D01*
X148823226Y-102917898D01*
X148863000Y-102717939D01*
X148863000Y-102514061D01*
X148823226Y-102314102D01*
X148745205Y-102125744D01*
X148631937Y-101956226D01*
X148487774Y-101812063D01*
X148318256Y-101698795D01*
X148129898Y-101620774D01*
X147929939Y-101581000D01*
X147726061Y-101581000D01*
X147526102Y-101620774D01*
X147337744Y-101698795D01*
X147168226Y-101812063D01*
X147024063Y-101956226D01*
X146910795Y-102125744D01*
X146832774Y-102314102D01*
X146793000Y-102514061D01*
X146431000Y-102514061D01*
X146431000Y-101219000D01*
X147295532Y-101219000D01*
X147337744Y-101247205D01*
%TA.AperFunction,NonConductor*%
D23*
G36*
X147337744Y-101247205D02*
G01*
X147526102Y-101325226D01*
X147726061Y-101365000D01*
X147929939Y-101365000D01*
X148129898Y-101325226D01*
X148318256Y-101247205D01*
X148360468Y-101219000D01*
X149083985Y-101219000D01*
X149118774Y-101393898D01*
X149196795Y-101582256D01*
X149208651Y-101600000D01*
X149196795Y-101617744D01*
X149118774Y-101806102D01*
X149079000Y-102006061D01*
X149079000Y-102209939D01*
X149118774Y-102409898D01*
X149196795Y-102598256D01*
X149208651Y-102616000D01*
X149196795Y-102633744D01*
X149118774Y-102822102D01*
X149079000Y-103022061D01*
X149079000Y-103225939D01*
X149118774Y-103425898D01*
X149196795Y-103614256D01*
X149225000Y-103656468D01*
X149225000Y-104623532D01*
X149196795Y-104665744D01*
X149118774Y-104854102D01*
X149079000Y-105054061D01*
X149079000Y-105257939D01*
X149118774Y-105457898D01*
X149196795Y-105646256D01*
X149225000Y-105688468D01*
X149225000Y-105918000D01*
X149227440Y-105942776D01*
X149234667Y-105966601D01*
X149246403Y-105988557D01*
X149262197Y-106007803D01*
X150278197Y-107023803D01*
X150297443Y-107039597D01*
X150319399Y-107051333D01*
X150343224Y-107058560D01*
X150368000Y-107061000D01*
X152157247Y-107061000D01*
X152166774Y-107108898D01*
X152244795Y-107297256D01*
X152358063Y-107466774D01*
X152502226Y-107610937D01*
X152671744Y-107724205D01*
X152860102Y-107802226D01*
X153060061Y-107842000D01*
X153263939Y-107842000D01*
X153463898Y-107802226D01*
X153652256Y-107724205D01*
X153821774Y-107610937D01*
X153965937Y-107466774D01*
X154054654Y-107334000D01*
X154152939Y-107334000D01*
X154352898Y-107294226D01*
X154541256Y-107216205D01*
X154710774Y-107102937D01*
X154752711Y-107061000D01*
X157861000Y-107061000D01*
X157861000Y-110871000D01*
X152297468Y-110871000D01*
X152255256Y-110842795D01*
X152066898Y-110764774D01*
X151866939Y-110725000D01*
X151663061Y-110725000D01*
X151463102Y-110764774D01*
X151274744Y-110842795D01*
X151232532Y-110871000D01*
X151027468Y-110871000D01*
X150985256Y-110842795D01*
X150796898Y-110764774D01*
X150596939Y-110725000D01*
X150393061Y-110725000D01*
X150193102Y-110764774D01*
X150104025Y-110801671D01*
X146431000Y-106883778D01*
X146431000Y-102514061D01*
X146793000Y-102514061D01*
X146793000Y-102717939D01*
X146832774Y-102917898D01*
X146910795Y-103106256D01*
X147024063Y-103275774D01*
X147068001Y-103319712D01*
X147068000Y-106642677D01*
X147064324Y-106680000D01*
X147068000Y-106717322D01*
X147068000Y-106717332D01*
X147078997Y-106828985D01*
X147110845Y-106933974D01*
X147122454Y-106972246D01*
X147193026Y-107104276D01*
X147214958Y-107131000D01*
X147287999Y-107220001D01*
X147317003Y-107243804D01*
X149550201Y-109477003D01*
X149573999Y-109506001D01*
X149689724Y-109600974D01*
X149821753Y-109671546D01*
X149965014Y-109715003D01*
X150076667Y-109726000D01*
X150076676Y-109726000D01*
X150113999Y-109729676D01*
X150151322Y-109726000D01*
X154284612Y-109726000D01*
X154329844Y-109835199D01*
X154530662Y-110135744D01*
X154786256Y-110391338D01*
X155086801Y-110592156D01*
X155420750Y-110730482D01*
X155775268Y-110801000D01*
X156136732Y-110801000D01*
X156491250Y-110730482D01*
X156825199Y-110592156D01*
X157125744Y-110391338D01*
X157381338Y-110135744D01*
X157582156Y-109835199D01*
X157720482Y-109501250D01*
X157791000Y-109146732D01*
X157791000Y-108785268D01*
X157720482Y-108430750D01*
X157582156Y-108096801D01*
X157381338Y-107796256D01*
X157125744Y-107540662D01*
X156825199Y-107339844D01*
X156491250Y-107201518D01*
X156136732Y-107131000D01*
X155775268Y-107131000D01*
X155420750Y-107201518D01*
X155086801Y-107339844D01*
X154786256Y-107540662D01*
X154530662Y-107796256D01*
X154329844Y-108096801D01*
X154284612Y-108206000D01*
X150428802Y-108206000D01*
X148588000Y-106365199D01*
X148588000Y-103319711D01*
X148631937Y-103275774D01*
X148745205Y-103106256D01*
X148823226Y-102917898D01*
X148863000Y-102717939D01*
X148863000Y-102514061D01*
X148823226Y-102314102D01*
X148745205Y-102125744D01*
X148631937Y-101956226D01*
X148487774Y-101812063D01*
X148318256Y-101698795D01*
X148129898Y-101620774D01*
X147929939Y-101581000D01*
X147726061Y-101581000D01*
X147526102Y-101620774D01*
X147337744Y-101698795D01*
X147168226Y-101812063D01*
X147024063Y-101956226D01*
X146910795Y-102125744D01*
X146832774Y-102314102D01*
X146793000Y-102514061D01*
X146431000Y-102514061D01*
X146431000Y-101219000D01*
X147295532Y-101219000D01*
X147337744Y-101247205D01*
G37*
%TD.AperFunction*%
D22*
X157861000Y-89789000D02*
X152720711Y-89789000D01*
X152678774Y-89747063D01*
X152509256Y-89633795D01*
X152320898Y-89555774D01*
X152120939Y-89516000D01*
X151917061Y-89516000D01*
X151717102Y-89555774D01*
X151574500Y-89614842D01*
X151431898Y-89555774D01*
X151231939Y-89516000D01*
X151028061Y-89516000D01*
X150828102Y-89555774D01*
X150639744Y-89633795D01*
X150470226Y-89747063D01*
X150326063Y-89891226D01*
X150212795Y-90060744D01*
X150134774Y-90249102D01*
X150095000Y-90449061D01*
X150095000Y-90652939D01*
X150114653Y-90751741D01*
X149938827Y-90927567D01*
X149812102Y-90952774D01*
X149623744Y-91030795D01*
X149454226Y-91144063D01*
X149310063Y-91288226D01*
X149196795Y-91457744D01*
X149118774Y-91646102D01*
X149079000Y-91846061D01*
X149079000Y-92049939D01*
X149118774Y-92249898D01*
X149196795Y-92438256D01*
X149208651Y-92456000D01*
X149196795Y-92473744D01*
X149118774Y-92662102D01*
X149079000Y-92862061D01*
X149079000Y-93065939D01*
X149118774Y-93265898D01*
X149196795Y-93454256D01*
X149208651Y-93472000D01*
X149196795Y-93489744D01*
X149118774Y-93678102D01*
X149079000Y-93878061D01*
X149079000Y-94081939D01*
X149118774Y-94281898D01*
X149196795Y-94470256D01*
X149208651Y-94488000D01*
X149196795Y-94505744D01*
X149118774Y-94694102D01*
X149079000Y-94894061D01*
X149079000Y-95097939D01*
X149118774Y-95297898D01*
X149196795Y-95486256D01*
X149208651Y-95504000D01*
X149196795Y-95521744D01*
X149118774Y-95710102D01*
X149079000Y-95910061D01*
X149079000Y-96113939D01*
X149118774Y-96313898D01*
X149196795Y-96502256D01*
X149208651Y-96520000D01*
X149196795Y-96537744D01*
X149118774Y-96726102D01*
X149079000Y-96926061D01*
X149079000Y-97129939D01*
X149118774Y-97329898D01*
X149196795Y-97518256D01*
X149208651Y-97536000D01*
X149196795Y-97553744D01*
X149118774Y-97742102D01*
X149079000Y-97942061D01*
X149079000Y-98145939D01*
X149118774Y-98345898D01*
X149196795Y-98534256D01*
X149208651Y-98552000D01*
X149196795Y-98569744D01*
X149118774Y-98758102D01*
X149079000Y-98958061D01*
X149079000Y-99161939D01*
X149118774Y-99361898D01*
X149196795Y-99550256D01*
X149208651Y-99568000D01*
X149196795Y-99585744D01*
X149118774Y-99774102D01*
X149079000Y-99974061D01*
X149079000Y-100177939D01*
X149118774Y-100377898D01*
X149196795Y-100566256D01*
X149208651Y-100584000D01*
X149196795Y-100601744D01*
X149118774Y-100790102D01*
X149079000Y-100990061D01*
X149079000Y-101193939D01*
X149118774Y-101393898D01*
X149151539Y-101473000D01*
X146431000Y-101473000D01*
X146431000Y-100228061D01*
X146793000Y-100228061D01*
X146793000Y-100431939D01*
X146832774Y-100631898D01*
X146910795Y-100820256D01*
X147024063Y-100989774D01*
X147168226Y-101133937D01*
X147337744Y-101247205D01*
X147526102Y-101325226D01*
X147726061Y-101365000D01*
X147929939Y-101365000D01*
X148129898Y-101325226D01*
X148318256Y-101247205D01*
X148487774Y-101133937D01*
X148631937Y-100989774D01*
X148745205Y-100820256D01*
X148823226Y-100631898D01*
X148863000Y-100431939D01*
X148863000Y-100228061D01*
X148823226Y-100028102D01*
X148745205Y-99839744D01*
X148631937Y-99670226D01*
X148588000Y-99626289D01*
X148588000Y-91500801D01*
X151444802Y-88644000D01*
X154284612Y-88644000D01*
X154329844Y-88753199D01*
X154530662Y-89053744D01*
X154786256Y-89309338D01*
X155086801Y-89510156D01*
X155420750Y-89648482D01*
X155775268Y-89719000D01*
X156136732Y-89719000D01*
X156491250Y-89648482D01*
X156825199Y-89510156D01*
X157125744Y-89309338D01*
X157381338Y-89053744D01*
X157582156Y-88753199D01*
X157720482Y-88419250D01*
X157791000Y-88064732D01*
X157791000Y-87703268D01*
X157720482Y-87348750D01*
X157582156Y-87014801D01*
X157381338Y-86714256D01*
X157125744Y-86458662D01*
X156825199Y-86257844D01*
X156491250Y-86119518D01*
X156136732Y-86049000D01*
X155775268Y-86049000D01*
X155420750Y-86119518D01*
X155086801Y-86257844D01*
X154786256Y-86458662D01*
X154530662Y-86714256D01*
X154329844Y-87014801D01*
X154284612Y-87124000D01*
X151167322Y-87124000D01*
X151129999Y-87120324D01*
X151092676Y-87124000D01*
X151092667Y-87124000D01*
X150981014Y-87134997D01*
X150837753Y-87178454D01*
X150705724Y-87249026D01*
X150589999Y-87343999D01*
X150566201Y-87372997D01*
X147317003Y-90622196D01*
X147287999Y-90645999D01*
X147232871Y-90713174D01*
X147193026Y-90761724D01*
X147144292Y-90852898D01*
X147122454Y-90893754D01*
X147078997Y-91037015D01*
X147068000Y-91148668D01*
X147068000Y-91148678D01*
X147064324Y-91186000D01*
X147068000Y-91223322D01*
X147068001Y-99626288D01*
X147024063Y-99670226D01*
X146910795Y-99839744D01*
X146832774Y-100028102D01*
X146793000Y-100228061D01*
X146431000Y-100228061D01*
X146431000Y-90476606D01*
X150928606Y-85979000D01*
X157861000Y-85979000D01*
X157861000Y-89789000D01*
%TA.AperFunction,NonConductor*%
D23*
G36*
X157861000Y-89789000D02*
G01*
X152720711Y-89789000D01*
X152678774Y-89747063D01*
X152509256Y-89633795D01*
X152320898Y-89555774D01*
X152120939Y-89516000D01*
X151917061Y-89516000D01*
X151717102Y-89555774D01*
X151574500Y-89614842D01*
X151431898Y-89555774D01*
X151231939Y-89516000D01*
X151028061Y-89516000D01*
X150828102Y-89555774D01*
X150639744Y-89633795D01*
X150470226Y-89747063D01*
X150326063Y-89891226D01*
X150212795Y-90060744D01*
X150134774Y-90249102D01*
X150095000Y-90449061D01*
X150095000Y-90652939D01*
X150114653Y-90751741D01*
X149938827Y-90927567D01*
X149812102Y-90952774D01*
X149623744Y-91030795D01*
X149454226Y-91144063D01*
X149310063Y-91288226D01*
X149196795Y-91457744D01*
X149118774Y-91646102D01*
X149079000Y-91846061D01*
X149079000Y-92049939D01*
X149118774Y-92249898D01*
X149196795Y-92438256D01*
X149208651Y-92456000D01*
X149196795Y-92473744D01*
X149118774Y-92662102D01*
X149079000Y-92862061D01*
X149079000Y-93065939D01*
X149118774Y-93265898D01*
X149196795Y-93454256D01*
X149208651Y-93472000D01*
X149196795Y-93489744D01*
X149118774Y-93678102D01*
X149079000Y-93878061D01*
X149079000Y-94081939D01*
X149118774Y-94281898D01*
X149196795Y-94470256D01*
X149208651Y-94488000D01*
X149196795Y-94505744D01*
X149118774Y-94694102D01*
X149079000Y-94894061D01*
X149079000Y-95097939D01*
X149118774Y-95297898D01*
X149196795Y-95486256D01*
X149208651Y-95504000D01*
X149196795Y-95521744D01*
X149118774Y-95710102D01*
X149079000Y-95910061D01*
X149079000Y-96113939D01*
X149118774Y-96313898D01*
X149196795Y-96502256D01*
X149208651Y-96520000D01*
X149196795Y-96537744D01*
X149118774Y-96726102D01*
X149079000Y-96926061D01*
X149079000Y-97129939D01*
X149118774Y-97329898D01*
X149196795Y-97518256D01*
X149208651Y-97536000D01*
X149196795Y-97553744D01*
X149118774Y-97742102D01*
X149079000Y-97942061D01*
X149079000Y-98145939D01*
X149118774Y-98345898D01*
X149196795Y-98534256D01*
X149208651Y-98552000D01*
X149196795Y-98569744D01*
X149118774Y-98758102D01*
X149079000Y-98958061D01*
X149079000Y-99161939D01*
X149118774Y-99361898D01*
X149196795Y-99550256D01*
X149208651Y-99568000D01*
X149196795Y-99585744D01*
X149118774Y-99774102D01*
X149079000Y-99974061D01*
X149079000Y-100177939D01*
X149118774Y-100377898D01*
X149196795Y-100566256D01*
X149208651Y-100584000D01*
X149196795Y-100601744D01*
X149118774Y-100790102D01*
X149079000Y-100990061D01*
X149079000Y-101193939D01*
X149118774Y-101393898D01*
X149151539Y-101473000D01*
X146431000Y-101473000D01*
X146431000Y-100228061D01*
X146793000Y-100228061D01*
X146793000Y-100431939D01*
X146832774Y-100631898D01*
X146910795Y-100820256D01*
X147024063Y-100989774D01*
X147168226Y-101133937D01*
X147337744Y-101247205D01*
X147526102Y-101325226D01*
X147726061Y-101365000D01*
X147929939Y-101365000D01*
X148129898Y-101325226D01*
X148318256Y-101247205D01*
X148487774Y-101133937D01*
X148631937Y-100989774D01*
X148745205Y-100820256D01*
X148823226Y-100631898D01*
X148863000Y-100431939D01*
X148863000Y-100228061D01*
X148823226Y-100028102D01*
X148745205Y-99839744D01*
X148631937Y-99670226D01*
X148588000Y-99626289D01*
X148588000Y-91500801D01*
X151444802Y-88644000D01*
X154284612Y-88644000D01*
X154329844Y-88753199D01*
X154530662Y-89053744D01*
X154786256Y-89309338D01*
X155086801Y-89510156D01*
X155420750Y-89648482D01*
X155775268Y-89719000D01*
X156136732Y-89719000D01*
X156491250Y-89648482D01*
X156825199Y-89510156D01*
X157125744Y-89309338D01*
X157381338Y-89053744D01*
X157582156Y-88753199D01*
X157720482Y-88419250D01*
X157791000Y-88064732D01*
X157791000Y-87703268D01*
X157720482Y-87348750D01*
X157582156Y-87014801D01*
X157381338Y-86714256D01*
X157125744Y-86458662D01*
X156825199Y-86257844D01*
X156491250Y-86119518D01*
X156136732Y-86049000D01*
X155775268Y-86049000D01*
X155420750Y-86119518D01*
X155086801Y-86257844D01*
X154786256Y-86458662D01*
X154530662Y-86714256D01*
X154329844Y-87014801D01*
X154284612Y-87124000D01*
X151167322Y-87124000D01*
X151129999Y-87120324D01*
X151092676Y-87124000D01*
X151092667Y-87124000D01*
X150981014Y-87134997D01*
X150837753Y-87178454D01*
X150705724Y-87249026D01*
X150589999Y-87343999D01*
X150566201Y-87372997D01*
X147317003Y-90622196D01*
X147287999Y-90645999D01*
X147232871Y-90713174D01*
X147193026Y-90761724D01*
X147144292Y-90852898D01*
X147122454Y-90893754D01*
X147078997Y-91037015D01*
X147068000Y-91148668D01*
X147068000Y-91148678D01*
X147064324Y-91186000D01*
X147068000Y-91223322D01*
X147068001Y-99626288D01*
X147024063Y-99670226D01*
X146910795Y-99839744D01*
X146832774Y-100028102D01*
X146793000Y-100228061D01*
X146431000Y-100228061D01*
X146431000Y-90476606D01*
X150928606Y-85979000D01*
X157861000Y-85979000D01*
X157861000Y-89789000D01*
G37*
%TD.AperFunction*%
D20*
%TO.N,/OUT_B*%
X168021000Y-97031577D02*
X163699373Y-97155052D01*
X163674676Y-97158199D01*
X163651068Y-97166103D01*
X163629456Y-97178462D01*
X163615529Y-97189925D01*
X161112292Y-99568000D01*
X154813000Y-99568000D01*
X154813000Y-98679000D01*
X160274000Y-98679000D01*
X160298776Y-98676560D01*
X160322601Y-98669333D01*
X160344557Y-98657597D01*
X160359986Y-98645463D01*
X163498533Y-95758000D01*
X165989000Y-95758000D01*
X166013776Y-95755560D01*
X166037601Y-95748333D01*
X166059557Y-95736597D01*
X166078803Y-95720803D01*
X167438606Y-94361000D01*
X168021000Y-94361000D01*
X168021000Y-97031577D01*
%TA.AperFunction,Conductor*%
D21*
G36*
X168021000Y-97031577D02*
G01*
X163699373Y-97155052D01*
X163674676Y-97158199D01*
X163651068Y-97166103D01*
X163629456Y-97178462D01*
X163615529Y-97189925D01*
X161112292Y-99568000D01*
X154813000Y-99568000D01*
X154813000Y-98679000D01*
X160274000Y-98679000D01*
X160298776Y-98676560D01*
X160322601Y-98669333D01*
X160344557Y-98657597D01*
X160359986Y-98645463D01*
X163498533Y-95758000D01*
X165989000Y-95758000D01*
X166013776Y-95755560D01*
X166037601Y-95748333D01*
X166059557Y-95736597D01*
X166078803Y-95720803D01*
X167438606Y-94361000D01*
X168021000Y-94361000D01*
X168021000Y-97031577D01*
G37*
%TD.AperFunction*%
%TD*%
D20*
%TO.N,/OUT_A*%
X168021000Y-103811606D02*
X168021000Y-106045000D01*
X163628606Y-106045000D01*
X160617803Y-103034197D01*
X160598557Y-103018403D01*
X160576601Y-103006667D01*
X160552776Y-102999440D01*
X160528000Y-102997000D01*
X149987000Y-102997000D01*
X149987000Y-102122015D01*
X150012061Y-102127000D01*
X150215939Y-102127000D01*
X150415898Y-102087226D01*
X150604256Y-102009205D01*
X150622000Y-101997349D01*
X150639744Y-102009205D01*
X150828102Y-102087226D01*
X151028061Y-102127000D01*
X151231939Y-102127000D01*
X151431898Y-102087226D01*
X151620256Y-102009205D01*
X151638000Y-101997349D01*
X151655744Y-102009205D01*
X151844102Y-102087226D01*
X152044061Y-102127000D01*
X152247939Y-102127000D01*
X152447898Y-102087226D01*
X152636256Y-102009205D01*
X152805774Y-101895937D01*
X152949937Y-101751774D01*
X152966490Y-101727000D01*
X165936394Y-101727000D01*
X168021000Y-103811606D01*
%TA.AperFunction,Conductor*%
D21*
G36*
X168021000Y-103811606D02*
G01*
X168021000Y-106045000D01*
X163628606Y-106045000D01*
X160617803Y-103034197D01*
X160598557Y-103018403D01*
X160576601Y-103006667D01*
X160552776Y-102999440D01*
X160528000Y-102997000D01*
X149987000Y-102997000D01*
X149987000Y-102122015D01*
X150012061Y-102127000D01*
X150215939Y-102127000D01*
X150415898Y-102087226D01*
X150604256Y-102009205D01*
X150622000Y-101997349D01*
X150639744Y-102009205D01*
X150828102Y-102087226D01*
X151028061Y-102127000D01*
X151231939Y-102127000D01*
X151431898Y-102087226D01*
X151620256Y-102009205D01*
X151638000Y-101997349D01*
X151655744Y-102009205D01*
X151844102Y-102087226D01*
X152044061Y-102127000D01*
X152247939Y-102127000D01*
X152447898Y-102087226D01*
X152636256Y-102009205D01*
X152805774Y-101895937D01*
X152949937Y-101751774D01*
X152966490Y-101727000D01*
X165936394Y-101727000D01*
X168021000Y-103811606D01*
G37*
%TD.AperFunction*%
%TD*%
D20*
%TO.N,/OUT_A*%
X154305000Y-106586201D02*
X152908000Y-107016047D01*
X152908000Y-105857711D01*
X152949937Y-105815774D01*
X153063205Y-105646256D01*
X153141226Y-105457898D01*
X153181000Y-105257939D01*
X153181000Y-105054061D01*
X153141226Y-104854102D01*
X153063205Y-104665744D01*
X153051349Y-104648000D01*
X153063205Y-104630256D01*
X153141226Y-104441898D01*
X153181000Y-104241939D01*
X153181000Y-104038061D01*
X153141226Y-103838102D01*
X153063205Y-103649744D01*
X152949937Y-103480226D01*
X152908000Y-103438289D01*
X152908000Y-103025896D01*
X154305000Y-102999429D01*
X154305000Y-106586201D01*
%TA.AperFunction,Conductor*%
D21*
G36*
X154305000Y-106586201D02*
G01*
X152908000Y-107016047D01*
X152908000Y-105857711D01*
X152949937Y-105815774D01*
X153063205Y-105646256D01*
X153141226Y-105457898D01*
X153181000Y-105257939D01*
X153181000Y-105054061D01*
X153141226Y-104854102D01*
X153063205Y-104665744D01*
X153051349Y-104648000D01*
X153063205Y-104630256D01*
X153141226Y-104441898D01*
X153181000Y-104241939D01*
X153181000Y-104038061D01*
X153141226Y-103838102D01*
X153063205Y-103649744D01*
X152949937Y-103480226D01*
X152908000Y-103438289D01*
X152908000Y-103025896D01*
X154305000Y-102999429D01*
X154305000Y-106586201D01*
G37*
%TD.AperFunction*%
%TD*%
D20*
%TO.N,/OUT_D*%
X153797000Y-94107000D02*
X152908000Y-94107000D01*
X152908000Y-93665711D01*
X152949937Y-93623774D01*
X153063205Y-93454256D01*
X153141226Y-93265898D01*
X153181000Y-93065939D01*
X153181000Y-92862061D01*
X153141226Y-92662102D01*
X153063205Y-92473744D01*
X153051349Y-92456000D01*
X153063205Y-92438256D01*
X153141226Y-92249898D01*
X153181000Y-92049939D01*
X153181000Y-91846061D01*
X153141226Y-91646102D01*
X153063205Y-91457744D01*
X152949937Y-91288226D01*
X152908000Y-91246289D01*
X152908000Y-91059000D01*
X152905560Y-91034224D01*
X152898333Y-91010399D01*
X152886597Y-90988443D01*
X152870803Y-90969197D01*
X152851557Y-90953403D01*
X152829601Y-90941667D01*
X152805776Y-90934440D01*
X152781000Y-90932000D01*
X152343459Y-90932000D01*
X152247939Y-90913000D01*
X152044061Y-90913000D01*
X151948541Y-90932000D01*
X151327459Y-90932000D01*
X151231939Y-90913000D01*
X151028061Y-90913000D01*
X150932541Y-90932000D01*
X150876000Y-90932000D01*
X150876000Y-90297000D01*
X153797000Y-90297000D01*
X153797000Y-94107000D01*
%TA.AperFunction,Conductor*%
D21*
G36*
X153797000Y-94107000D02*
G01*
X152908000Y-94107000D01*
X152908000Y-93665711D01*
X152949937Y-93623774D01*
X153063205Y-93454256D01*
X153141226Y-93265898D01*
X153181000Y-93065939D01*
X153181000Y-92862061D01*
X153141226Y-92662102D01*
X153063205Y-92473744D01*
X153051349Y-92456000D01*
X153063205Y-92438256D01*
X153141226Y-92249898D01*
X153181000Y-92049939D01*
X153181000Y-91846061D01*
X153141226Y-91646102D01*
X153063205Y-91457744D01*
X152949937Y-91288226D01*
X152908000Y-91246289D01*
X152908000Y-91059000D01*
X152905560Y-91034224D01*
X152898333Y-91010399D01*
X152886597Y-90988443D01*
X152870803Y-90969197D01*
X152851557Y-90953403D01*
X152829601Y-90941667D01*
X152805776Y-90934440D01*
X152781000Y-90932000D01*
X152343459Y-90932000D01*
X152247939Y-90913000D01*
X152044061Y-90913000D01*
X151948541Y-90932000D01*
X151327459Y-90932000D01*
X151231939Y-90913000D01*
X151028061Y-90913000D01*
X150932541Y-90932000D01*
X150876000Y-90932000D01*
X150876000Y-90297000D01*
X153797000Y-90297000D01*
X153797000Y-94107000D01*
G37*
%TD.AperFunction*%
%TD*%
D20*
%TO.N,GND*%
X175133000Y-120268663D02*
X175036494Y-120189463D01*
X174926180Y-120130498D01*
X174806482Y-120094188D01*
X174682000Y-120081928D01*
X172282000Y-120081928D01*
X172157518Y-120094188D01*
X172037820Y-120130498D01*
X171927506Y-120189463D01*
X171830815Y-120268815D01*
X171751463Y-120365506D01*
X171692498Y-120475820D01*
X171656188Y-120595518D01*
X171643928Y-120720000D01*
X171643928Y-123120000D01*
X171656188Y-123244482D01*
X171692498Y-123364180D01*
X171751463Y-123474494D01*
X171830815Y-123571185D01*
X171927506Y-123650537D01*
X172037820Y-123709502D01*
X172157518Y-123745812D01*
X172282000Y-123758072D01*
X174682000Y-123758072D01*
X174806482Y-123745812D01*
X174926180Y-123709502D01*
X175036494Y-123650537D01*
X175133000Y-123571337D01*
X175133000Y-128118000D01*
X166082107Y-128118000D01*
X166253475Y-127946632D01*
X166415990Y-127703411D01*
X166527932Y-127433158D01*
X166585000Y-127146260D01*
X166585000Y-126853740D01*
X166527932Y-126566842D01*
X166415990Y-126296589D01*
X166253475Y-126053368D01*
X166046632Y-125846525D01*
X165803411Y-125684010D01*
X165533158Y-125572068D01*
X165246260Y-125515000D01*
X164953740Y-125515000D01*
X164666842Y-125572068D01*
X164396589Y-125684010D01*
X164153368Y-125846525D01*
X163946525Y-126053368D01*
X163830000Y-126227760D01*
X163713475Y-126053368D01*
X163506632Y-125846525D01*
X163263411Y-125684010D01*
X162993158Y-125572068D01*
X162706260Y-125515000D01*
X162413740Y-125515000D01*
X162126842Y-125572068D01*
X161856589Y-125684010D01*
X161613368Y-125846525D01*
X161406525Y-126053368D01*
X161290000Y-126227760D01*
X161173475Y-126053368D01*
X160966632Y-125846525D01*
X160723411Y-125684010D01*
X160453158Y-125572068D01*
X160166260Y-125515000D01*
X159873740Y-125515000D01*
X159586842Y-125572068D01*
X159316589Y-125684010D01*
X159073368Y-125846525D01*
X158866525Y-126053368D01*
X158750000Y-126227760D01*
X158633475Y-126053368D01*
X158426632Y-125846525D01*
X158183411Y-125684010D01*
X157913158Y-125572068D01*
X157626260Y-125515000D01*
X157333740Y-125515000D01*
X157046842Y-125572068D01*
X156776589Y-125684010D01*
X156533368Y-125846525D01*
X156326525Y-126053368D01*
X156164010Y-126296589D01*
X156052068Y-126566842D01*
X155995000Y-126853740D01*
X155995000Y-127146260D01*
X156052068Y-127433158D01*
X156164010Y-127703411D01*
X156326525Y-127946632D01*
X156497893Y-128118000D01*
X131846854Y-128118000D01*
X131905537Y-128046494D01*
X131964502Y-127936180D01*
X132000812Y-127816482D01*
X132013072Y-127692000D01*
X132013072Y-125292000D01*
X132000812Y-125167518D01*
X131964502Y-125047820D01*
X131905537Y-124937506D01*
X131826185Y-124840815D01*
X131729494Y-124761463D01*
X131619180Y-124702498D01*
X131499482Y-124666188D01*
X131375000Y-124653928D01*
X128975000Y-124653928D01*
X128850518Y-124666188D01*
X128730820Y-124702498D01*
X128620506Y-124761463D01*
X128523815Y-124840815D01*
X128444463Y-124937506D01*
X128385498Y-125047820D01*
X128349188Y-125167518D01*
X128336928Y-125292000D01*
X128336928Y-127692000D01*
X128349188Y-127816482D01*
X128385498Y-127936180D01*
X128444463Y-128046494D01*
X128503146Y-128118000D01*
X123342000Y-128118000D01*
X123342000Y-118872000D01*
X139048651Y-118872000D01*
X139036795Y-118889744D01*
X138958774Y-119078102D01*
X138919000Y-119278061D01*
X138919000Y-119481939D01*
X138958774Y-119681898D01*
X139036795Y-119870256D01*
X139048651Y-119888000D01*
X139036795Y-119905744D01*
X138958774Y-120094102D01*
X138919000Y-120294061D01*
X138919000Y-120497939D01*
X138958774Y-120697898D01*
X139036795Y-120886256D01*
X139150063Y-121055774D01*
X139294226Y-121199937D01*
X139463744Y-121313205D01*
X139652102Y-121391226D01*
X139852061Y-121431000D01*
X140055939Y-121431000D01*
X140255898Y-121391226D01*
X140444256Y-121313205D01*
X140462000Y-121301349D01*
X140479744Y-121313205D01*
X140668102Y-121391226D01*
X140868061Y-121431000D01*
X141071939Y-121431000D01*
X141271898Y-121391226D01*
X141460256Y-121313205D01*
X141629774Y-121199937D01*
X141773937Y-121055774D01*
X141887205Y-120886256D01*
X141965226Y-120697898D01*
X142005000Y-120497939D01*
X142005000Y-120294061D01*
X141965226Y-120094102D01*
X141887205Y-119905744D01*
X141875349Y-119888000D01*
X141887205Y-119870256D01*
X141965226Y-119681898D01*
X142005000Y-119481939D01*
X142005000Y-119278061D01*
X141965226Y-119078102D01*
X141887205Y-118889744D01*
X141875349Y-118872000D01*
X142113000Y-118872000D01*
X142113000Y-119380000D01*
X142115440Y-119404776D01*
X142122667Y-119428601D01*
X142134403Y-119450557D01*
X142150197Y-119469803D01*
X142169443Y-119485597D01*
X142191399Y-119497333D01*
X142215224Y-119504560D01*
X142240000Y-119507000D01*
X147828000Y-119507000D01*
X147828000Y-121920000D01*
X147830440Y-121944776D01*
X147837667Y-121968601D01*
X147849403Y-121990557D01*
X147865197Y-122009803D01*
X147884443Y-122025597D01*
X147906399Y-122037333D01*
X147930224Y-122044560D01*
X147955000Y-122047000D01*
X152400000Y-122047000D01*
X152424776Y-122044560D01*
X152448601Y-122037333D01*
X152470557Y-122025597D01*
X152489803Y-122009803D01*
X152505597Y-121990557D01*
X152517333Y-121968601D01*
X152524560Y-121944776D01*
X152527000Y-121920000D01*
X152527000Y-120466000D01*
X156657928Y-120466000D01*
X156657928Y-122866000D01*
X156670188Y-122990482D01*
X156706498Y-123110180D01*
X156765463Y-123220494D01*
X156844815Y-123317185D01*
X156941506Y-123396537D01*
X157051820Y-123455502D01*
X157171518Y-123491812D01*
X157296000Y-123504072D01*
X159696000Y-123504072D01*
X159820482Y-123491812D01*
X159940180Y-123455502D01*
X160050494Y-123396537D01*
X160147185Y-123317185D01*
X160226537Y-123220494D01*
X160285502Y-123110180D01*
X160321812Y-122990482D01*
X160334072Y-122866000D01*
X160334072Y-120466000D01*
X160321812Y-120341518D01*
X160285502Y-120221820D01*
X160226537Y-120111506D01*
X160147185Y-120014815D01*
X160050494Y-119935463D01*
X159940180Y-119876498D01*
X159820482Y-119840188D01*
X159696000Y-119827928D01*
X157296000Y-119827928D01*
X157171518Y-119840188D01*
X157051820Y-119876498D01*
X156941506Y-119935463D01*
X156844815Y-120014815D01*
X156765463Y-120111506D01*
X156706498Y-120221820D01*
X156670188Y-120341518D01*
X156657928Y-120466000D01*
X152527000Y-120466000D01*
X152527000Y-120057333D01*
X156273500Y-115062000D01*
X175133000Y-115062000D01*
X175133000Y-120268663D01*
%TA.AperFunction,Conductor*%
D21*
G36*
X175133000Y-120268663D02*
G01*
X175036494Y-120189463D01*
X174926180Y-120130498D01*
X174806482Y-120094188D01*
X174682000Y-120081928D01*
X172282000Y-120081928D01*
X172157518Y-120094188D01*
X172037820Y-120130498D01*
X171927506Y-120189463D01*
X171830815Y-120268815D01*
X171751463Y-120365506D01*
X171692498Y-120475820D01*
X171656188Y-120595518D01*
X171643928Y-120720000D01*
X171643928Y-123120000D01*
X171656188Y-123244482D01*
X171692498Y-123364180D01*
X171751463Y-123474494D01*
X171830815Y-123571185D01*
X171927506Y-123650537D01*
X172037820Y-123709502D01*
X172157518Y-123745812D01*
X172282000Y-123758072D01*
X174682000Y-123758072D01*
X174806482Y-123745812D01*
X174926180Y-123709502D01*
X175036494Y-123650537D01*
X175133000Y-123571337D01*
X175133000Y-128118000D01*
X166082107Y-128118000D01*
X166253475Y-127946632D01*
X166415990Y-127703411D01*
X166527932Y-127433158D01*
X166585000Y-127146260D01*
X166585000Y-126853740D01*
X166527932Y-126566842D01*
X166415990Y-126296589D01*
X166253475Y-126053368D01*
X166046632Y-125846525D01*
X165803411Y-125684010D01*
X165533158Y-125572068D01*
X165246260Y-125515000D01*
X164953740Y-125515000D01*
X164666842Y-125572068D01*
X164396589Y-125684010D01*
X164153368Y-125846525D01*
X163946525Y-126053368D01*
X163830000Y-126227760D01*
X163713475Y-126053368D01*
X163506632Y-125846525D01*
X163263411Y-125684010D01*
X162993158Y-125572068D01*
X162706260Y-125515000D01*
X162413740Y-125515000D01*
X162126842Y-125572068D01*
X161856589Y-125684010D01*
X161613368Y-125846525D01*
X161406525Y-126053368D01*
X161290000Y-126227760D01*
X161173475Y-126053368D01*
X160966632Y-125846525D01*
X160723411Y-125684010D01*
X160453158Y-125572068D01*
X160166260Y-125515000D01*
X159873740Y-125515000D01*
X159586842Y-125572068D01*
X159316589Y-125684010D01*
X159073368Y-125846525D01*
X158866525Y-126053368D01*
X158750000Y-126227760D01*
X158633475Y-126053368D01*
X158426632Y-125846525D01*
X158183411Y-125684010D01*
X157913158Y-125572068D01*
X157626260Y-125515000D01*
X157333740Y-125515000D01*
X157046842Y-125572068D01*
X156776589Y-125684010D01*
X156533368Y-125846525D01*
X156326525Y-126053368D01*
X156164010Y-126296589D01*
X156052068Y-126566842D01*
X155995000Y-126853740D01*
X155995000Y-127146260D01*
X156052068Y-127433158D01*
X156164010Y-127703411D01*
X156326525Y-127946632D01*
X156497893Y-128118000D01*
X131846854Y-128118000D01*
X131905537Y-128046494D01*
X131964502Y-127936180D01*
X132000812Y-127816482D01*
X132013072Y-127692000D01*
X132013072Y-125292000D01*
X132000812Y-125167518D01*
X131964502Y-125047820D01*
X131905537Y-124937506D01*
X131826185Y-124840815D01*
X131729494Y-124761463D01*
X131619180Y-124702498D01*
X131499482Y-124666188D01*
X131375000Y-124653928D01*
X128975000Y-124653928D01*
X128850518Y-124666188D01*
X128730820Y-124702498D01*
X128620506Y-124761463D01*
X128523815Y-124840815D01*
X128444463Y-124937506D01*
X128385498Y-125047820D01*
X128349188Y-125167518D01*
X128336928Y-125292000D01*
X128336928Y-127692000D01*
X128349188Y-127816482D01*
X128385498Y-127936180D01*
X128444463Y-128046494D01*
X128503146Y-128118000D01*
X123342000Y-128118000D01*
X123342000Y-118872000D01*
X139048651Y-118872000D01*
X139036795Y-118889744D01*
X138958774Y-119078102D01*
X138919000Y-119278061D01*
X138919000Y-119481939D01*
X138958774Y-119681898D01*
X139036795Y-119870256D01*
X139048651Y-119888000D01*
X139036795Y-119905744D01*
X138958774Y-120094102D01*
X138919000Y-120294061D01*
X138919000Y-120497939D01*
X138958774Y-120697898D01*
X139036795Y-120886256D01*
X139150063Y-121055774D01*
X139294226Y-121199937D01*
X139463744Y-121313205D01*
X139652102Y-121391226D01*
X139852061Y-121431000D01*
X140055939Y-121431000D01*
X140255898Y-121391226D01*
X140444256Y-121313205D01*
X140462000Y-121301349D01*
X140479744Y-121313205D01*
X140668102Y-121391226D01*
X140868061Y-121431000D01*
X141071939Y-121431000D01*
X141271898Y-121391226D01*
X141460256Y-121313205D01*
X141629774Y-121199937D01*
X141773937Y-121055774D01*
X141887205Y-120886256D01*
X141965226Y-120697898D01*
X142005000Y-120497939D01*
X142005000Y-120294061D01*
X141965226Y-120094102D01*
X141887205Y-119905744D01*
X141875349Y-119888000D01*
X141887205Y-119870256D01*
X141965226Y-119681898D01*
X142005000Y-119481939D01*
X142005000Y-119278061D01*
X141965226Y-119078102D01*
X141887205Y-118889744D01*
X141875349Y-118872000D01*
X142113000Y-118872000D01*
X142113000Y-119380000D01*
X142115440Y-119404776D01*
X142122667Y-119428601D01*
X142134403Y-119450557D01*
X142150197Y-119469803D01*
X142169443Y-119485597D01*
X142191399Y-119497333D01*
X142215224Y-119504560D01*
X142240000Y-119507000D01*
X147828000Y-119507000D01*
X147828000Y-121920000D01*
X147830440Y-121944776D01*
X147837667Y-121968601D01*
X147849403Y-121990557D01*
X147865197Y-122009803D01*
X147884443Y-122025597D01*
X147906399Y-122037333D01*
X147930224Y-122044560D01*
X147955000Y-122047000D01*
X152400000Y-122047000D01*
X152424776Y-122044560D01*
X152448601Y-122037333D01*
X152470557Y-122025597D01*
X152489803Y-122009803D01*
X152505597Y-121990557D01*
X152517333Y-121968601D01*
X152524560Y-121944776D01*
X152527000Y-121920000D01*
X152527000Y-120466000D01*
X156657928Y-120466000D01*
X156657928Y-122866000D01*
X156670188Y-122990482D01*
X156706498Y-123110180D01*
X156765463Y-123220494D01*
X156844815Y-123317185D01*
X156941506Y-123396537D01*
X157051820Y-123455502D01*
X157171518Y-123491812D01*
X157296000Y-123504072D01*
X159696000Y-123504072D01*
X159820482Y-123491812D01*
X159940180Y-123455502D01*
X160050494Y-123396537D01*
X160147185Y-123317185D01*
X160226537Y-123220494D01*
X160285502Y-123110180D01*
X160321812Y-122990482D01*
X160334072Y-122866000D01*
X160334072Y-120466000D01*
X160321812Y-120341518D01*
X160285502Y-120221820D01*
X160226537Y-120111506D01*
X160147185Y-120014815D01*
X160050494Y-119935463D01*
X159940180Y-119876498D01*
X159820482Y-119840188D01*
X159696000Y-119827928D01*
X157296000Y-119827928D01*
X157171518Y-119840188D01*
X157051820Y-119876498D01*
X156941506Y-119935463D01*
X156844815Y-120014815D01*
X156765463Y-120111506D01*
X156706498Y-120221820D01*
X156670188Y-120341518D01*
X156657928Y-120466000D01*
X152527000Y-120466000D01*
X152527000Y-120057333D01*
X156273500Y-115062000D01*
X175133000Y-115062000D01*
X175133000Y-120268663D01*
G37*
%TD.AperFunction*%
%TD*%
M02*
