%TF.GenerationSoftware,KiCad,Pcbnew,(5.1.9)-1*%
%TF.CreationDate,2021-11-06T22:46:36-05:00*%
%TF.ProjectId,Discrete_Channel,44697363-7265-4746-955f-4368616e6e65,rev?*%
%TF.SameCoordinates,Original*%
%TF.FileFunction,Copper,L3,Inr*%
%TF.FilePolarity,Positive*%
%FSLAX46Y46*%
G04 Gerber Fmt 4.6, Leading zero omitted, Abs format (unit mm)*
G04 Created by KiCad (PCBNEW (5.1.9)-1) date 2021-11-06 22:46:36*
%MOMM*%
%LPD*%
G01*
G04 APERTURE LIST*
%TA.AperFunction,ComponentPad*%
%ADD10R,2.400000X2.400000*%
%TD*%
%TA.AperFunction,ComponentPad*%
%ADD11C,2.400000*%
%TD*%
%TA.AperFunction,ComponentPad*%
%ADD12R,1.700000X1.700000*%
%TD*%
%TA.AperFunction,ComponentPad*%
%ADD13O,1.700000X1.700000*%
%TD*%
%TA.AperFunction,ComponentPad*%
%ADD14R,1.600000X2.400000*%
%TD*%
%TA.AperFunction,ComponentPad*%
%ADD15O,1.600000X2.400000*%
%TD*%
%TA.AperFunction,ComponentPad*%
%ADD16C,10.160000*%
%TD*%
%TA.AperFunction,ViaPad*%
%ADD17C,0.800000*%
%TD*%
%TA.AperFunction,Conductor*%
%ADD18C,0.250000*%
%TD*%
%TA.AperFunction,Conductor*%
%ADD19C,0.500000*%
%TD*%
%TA.AperFunction,NonConductor*%
%ADD20C,0.254000*%
%TD*%
%TA.AperFunction,NonConductor*%
%ADD21C,0.100000*%
%TD*%
%TA.AperFunction,Conductor*%
%ADD22C,0.254000*%
%TD*%
%TA.AperFunction,Conductor*%
%ADD23C,0.100000*%
%TD*%
G04 APERTURE END LIST*
D10*
%TO.N,/PVDD*%
%TO.C,C1*%
X158496000Y-121666000D03*
D11*
%TO.N,GND*%
X158496000Y-116666000D03*
%TD*%
%TO.N,GND*%
%TO.C,C2*%
X173482000Y-116920000D03*
D10*
%TO.N,/PVDD*%
X173482000Y-121920000D03*
%TD*%
%TO.N,/+12V*%
%TO.C,C17*%
X130175000Y-126492000D03*
D11*
%TO.N,GND*%
X130175000Y-121492000D03*
%TD*%
D12*
%TO.N,/~FAULT*%
%TO.C,J1*%
X141097000Y-81407000D03*
D13*
%TO.N,/~RESET*%
X143637000Y-81407000D03*
%TO.N,/OSC_IOM*%
X146177000Y-81407000D03*
%TO.N,/OSC_IOP*%
X148717000Y-81407000D03*
%TO.N,/~ERROR*%
X151257000Y-81407000D03*
%TD*%
%TO.N,/IN_A*%
%TO.C,J3*%
X124206000Y-100584000D03*
%TO.N,/IN_B*%
X124206000Y-98044000D03*
%TO.N,VEE*%
X124206000Y-95504000D03*
%TO.N,GNDA*%
X124206000Y-92964000D03*
D12*
%TO.N,VCC*%
X124206000Y-90424000D03*
%TD*%
%TO.N,GND*%
%TO.C,J2*%
X154940000Y-127000000D03*
D13*
%TO.N,/+12V*%
X157480000Y-127000000D03*
X160020000Y-127000000D03*
%TO.N,/PVDD*%
X162560000Y-127000000D03*
X165100000Y-127000000D03*
%TO.N,GND*%
X167640000Y-127000000D03*
%TD*%
D11*
%TO.N,Net-(C20-Pad1)*%
%TO.C,C20*%
X155956000Y-108966000D03*
%TO.N,/FB_A*%
X128456000Y-108966000D03*
%TD*%
%TO.N,/FB_B*%
%TO.C,C21*%
X128456000Y-87884000D03*
%TO.N,Net-(C21-Pad1)*%
X155956000Y-87884000D03*
%TD*%
D14*
%TO.N,/FB_A*%
%TO.C,U2*%
X128905000Y-103378000D03*
D15*
%TO.N,GNDA*%
X136525000Y-95758000D03*
%TO.N,Net-(C19-Pad1)*%
X131445000Y-103378000D03*
%TO.N,Net-(C18-Pad1)*%
X133985000Y-95758000D03*
%TO.N,GNDA*%
X133985000Y-103378000D03*
%TO.N,/FB_B*%
X131445000Y-95758000D03*
%TO.N,VEE*%
X136525000Y-103378000D03*
%TO.N,VCC*%
X128905000Y-95758000D03*
%TD*%
D16*
%TO.N,/SPEAKER+*%
%TO.C,J4*%
X191897000Y-86106000D03*
%TO.N,/SPEAKER-*%
X191897000Y-116076000D03*
%TO.N,GND*%
X191897000Y-101096000D03*
%TD*%
D17*
%TO.N,GNDA*%
X123190000Y-86106000D03*
X124206000Y-86106000D03*
X125222000Y-86106000D03*
X126238000Y-86106000D03*
X127254000Y-86106000D03*
X129286000Y-86106000D03*
X132334000Y-86106000D03*
X133350000Y-86106000D03*
X134366000Y-86106000D03*
X135382000Y-86106000D03*
X136398000Y-86106000D03*
X137414000Y-86106000D03*
X138176000Y-86868000D03*
X138176000Y-87884000D03*
X138176000Y-88900000D03*
X138176000Y-89916000D03*
X138176000Y-90932000D03*
X138176000Y-91948000D03*
X138176000Y-94996000D03*
X138176000Y-96012000D03*
X138176000Y-97028000D03*
X138176000Y-98044000D03*
X138176000Y-99060000D03*
X138176000Y-100076000D03*
X138176000Y-101092000D03*
X138176000Y-102108000D03*
X138176000Y-103124000D03*
X138176000Y-104140000D03*
X138176000Y-105156000D03*
X138176000Y-106172000D03*
X138176000Y-107188000D03*
X138176000Y-108204000D03*
X138176000Y-109220000D03*
X138176000Y-110236000D03*
X138176000Y-111252000D03*
X137160000Y-111252000D03*
X136144000Y-111252000D03*
X135128000Y-111252000D03*
X134112000Y-111252000D03*
X133096000Y-111252000D03*
X131064000Y-111252000D03*
X130048000Y-111252000D03*
X129032000Y-111252000D03*
X128016000Y-111252000D03*
X127000000Y-111252000D03*
X125984000Y-111252000D03*
X124968000Y-111252000D03*
X123952000Y-111252000D03*
%TO.N,*%
X123444000Y-112268000D03*
X124460000Y-112268000D03*
X125476000Y-112268000D03*
X126492000Y-112268000D03*
X127508000Y-112268000D03*
X128524000Y-112268000D03*
X129540000Y-112268000D03*
X130556000Y-112268000D03*
X132588000Y-112268000D03*
X133604000Y-112268000D03*
X134620000Y-112268000D03*
X135636000Y-112268000D03*
X136652000Y-112268000D03*
X137922000Y-112268000D03*
X139192000Y-112268000D03*
X139192000Y-110744000D03*
X139192000Y-109728000D03*
X139192000Y-108712000D03*
X139192000Y-106680000D03*
X139192000Y-107696000D03*
X139192000Y-105664000D03*
X139192000Y-104648000D03*
X139192000Y-103632000D03*
X139192000Y-102616000D03*
X139192000Y-101600000D03*
X139192000Y-100584000D03*
X139192000Y-99568000D03*
X139192000Y-98552000D03*
X139192000Y-97536000D03*
X139192000Y-96520000D03*
X139192000Y-95504000D03*
X139192000Y-94488000D03*
X139192000Y-92456000D03*
X139192000Y-91440000D03*
X139192000Y-90424000D03*
X139192000Y-89408000D03*
X139192000Y-88392000D03*
X139192000Y-87376000D03*
X139192000Y-86106000D03*
X138176000Y-85090000D03*
X136906000Y-85090000D03*
X135890000Y-85090000D03*
X134874000Y-85090000D03*
X133858000Y-85090000D03*
X132842000Y-85090000D03*
X131826000Y-85090000D03*
X128778000Y-85090000D03*
X127762000Y-85090000D03*
X126746000Y-85090000D03*
X125730000Y-85090000D03*
X124714000Y-85090000D03*
X123698000Y-85090000D03*
X139192000Y-85090000D03*
X129794000Y-85090000D03*
%TO.N,GNDA*%
X138176000Y-92964000D03*
X124968000Y-116078000D03*
X127762000Y-81280000D03*
%TO.N,/+12V*%
X139954000Y-117348000D03*
X139954000Y-116332000D03*
X140970000Y-116332000D03*
X140970000Y-117348000D03*
X140970000Y-118364000D03*
%TO.N,/OUT_D*%
X152019000Y-90551000D03*
X151130000Y-90551000D03*
%TO.N,/OUT_A*%
X154051000Y-106299000D03*
X153162000Y-106807000D03*
%TO.N,/OUT_B*%
X160274000Y-99060000D03*
X159258000Y-99060000D03*
X167005000Y-95250000D03*
X164211000Y-96774000D03*
X165735000Y-96774000D03*
X167132000Y-96774000D03*
X167640000Y-94488000D03*
X167640000Y-96012000D03*
X166370000Y-96012000D03*
X164973000Y-96012000D03*
X163576000Y-96012000D03*
%TO.N,/OUT_A*%
X167005000Y-104902000D03*
X165735000Y-104902000D03*
X164465000Y-104902000D03*
%TO.N,/SPEAKER+*%
X177038000Y-81534000D03*
X180848000Y-83058000D03*
X178308000Y-81534000D03*
X179578000Y-81534000D03*
X178308000Y-83058000D03*
X180848000Y-81534000D03*
X179578000Y-83058000D03*
X177038000Y-83058000D03*
X180340000Y-82296000D03*
X177800000Y-82296000D03*
X179070000Y-82296000D03*
%TO.N,/SPEAKER-*%
X177038000Y-110744000D03*
X180848000Y-112268000D03*
X178308000Y-110744000D03*
X179578000Y-110744000D03*
X178308000Y-112268000D03*
X180848000Y-110744000D03*
X179578000Y-112268000D03*
X177038000Y-112268000D03*
X180340000Y-111506000D03*
X177800000Y-111506000D03*
X179070000Y-111506000D03*
X163830000Y-110236000D03*
X167640000Y-111760000D03*
X165100000Y-110236000D03*
X166370000Y-110236000D03*
X165100000Y-111760000D03*
X167640000Y-110236000D03*
X166370000Y-111760000D03*
X163830000Y-111760000D03*
X167132000Y-110998000D03*
X164592000Y-110998000D03*
X165862000Y-110998000D03*
%TO.N,/SPEAKER+*%
X167640000Y-86614000D03*
X165100000Y-85090000D03*
X166370000Y-85090000D03*
X165100000Y-86614000D03*
X167640000Y-85090000D03*
X166370000Y-86614000D03*
X163830000Y-86614000D03*
X167132000Y-85852000D03*
X164592000Y-85852000D03*
X165862000Y-85852000D03*
%TO.N,/OUT_D*%
X167132000Y-91948000D03*
X165862000Y-91948000D03*
X164592000Y-91948000D03*
%TO.N,GND*%
X176022000Y-101600000D03*
X180086000Y-100076000D03*
X178054000Y-101600000D03*
X178054000Y-100076000D03*
X180086000Y-101600000D03*
X181102000Y-100838000D03*
X182118000Y-100076000D03*
X182118000Y-101600000D03*
X177038000Y-100838000D03*
X176022000Y-100076000D03*
X179070000Y-100838000D03*
X176022000Y-92202000D03*
X178054000Y-92202000D03*
X180086000Y-92202000D03*
X182118000Y-92202000D03*
X180086000Y-93726000D03*
X178054000Y-93726000D03*
X181102000Y-92964000D03*
X179070000Y-92964000D03*
X177038000Y-92964000D03*
X176022000Y-93726000D03*
X141224000Y-105918000D03*
X141224000Y-104902000D03*
X141732000Y-102616000D03*
X142240000Y-101854000D03*
X140970000Y-100711000D03*
X140462000Y-99949000D03*
X140208000Y-97155000D03*
X140843000Y-96393000D03*
X140335000Y-95250000D03*
X140716000Y-94488000D03*
X140716000Y-89662000D03*
X141224000Y-90678000D03*
%TO.N,/+12V*%
X141224000Y-86614000D03*
X141224000Y-85598000D03*
X141224000Y-87884000D03*
X140462000Y-86106000D03*
X140462000Y-87376000D03*
X141224000Y-107442000D03*
X141224000Y-109728000D03*
X141224000Y-108458000D03*
X139954000Y-119380000D03*
X139954000Y-120396000D03*
X140970000Y-120396000D03*
X140970000Y-119380000D03*
%TO.N,/PVDD*%
X152146000Y-96012000D03*
X151130000Y-97028000D03*
X152146000Y-97028000D03*
X150114000Y-97028000D03*
X150114000Y-96012000D03*
X151130000Y-96012000D03*
X152146000Y-101092000D03*
X150114000Y-101092000D03*
X152146000Y-100076000D03*
X151130000Y-101092000D03*
X151130000Y-100076000D03*
X150114000Y-100076000D03*
%TO.N,GND*%
X151130000Y-105156000D03*
X150114000Y-105156000D03*
X152146000Y-98044000D03*
X151130000Y-98044000D03*
X150114000Y-98044000D03*
X150114000Y-99060000D03*
X151130000Y-99060000D03*
X152146000Y-99060000D03*
X151130000Y-91948000D03*
X150114000Y-91948000D03*
X151130000Y-104140000D03*
X152146000Y-105156000D03*
X151130000Y-92964000D03*
X152146000Y-92964000D03*
X150114000Y-92964000D03*
X152146000Y-91948000D03*
X152146000Y-104140000D03*
X182118000Y-93726000D03*
X142875000Y-120015000D03*
X144145000Y-120015000D03*
X144145000Y-121285000D03*
X142875000Y-121285000D03*
X142875000Y-122555000D03*
X144145000Y-122555000D03*
X142875000Y-123825000D03*
X144145000Y-123825000D03*
X144145000Y-125095000D03*
X142875000Y-125095000D03*
X141605000Y-123825000D03*
X141605000Y-125095000D03*
X141605000Y-122555000D03*
X140335000Y-122555000D03*
X140335000Y-123825000D03*
X140335000Y-125095000D03*
X154305000Y-118745000D03*
X155575000Y-118745000D03*
X156845000Y-118745000D03*
X158115000Y-118745000D03*
X159385000Y-118745000D03*
X160655000Y-118745000D03*
X161925000Y-118745000D03*
X163195000Y-118745000D03*
X164465000Y-118745000D03*
X165735000Y-118745000D03*
X167005000Y-118745000D03*
X168275000Y-118745000D03*
X169545000Y-118745000D03*
X170815000Y-118745000D03*
X172085000Y-118745000D03*
X173355000Y-118745000D03*
X174625000Y-118745000D03*
X170815000Y-117475000D03*
X169545000Y-117475000D03*
X168275000Y-117475000D03*
X167005000Y-117475000D03*
X165735000Y-117475000D03*
X164465000Y-117475000D03*
X163195000Y-117475000D03*
X161925000Y-117475000D03*
X160655000Y-117475000D03*
X160655000Y-116205000D03*
X161925000Y-116205000D03*
X156845000Y-116205000D03*
X156845000Y-117475000D03*
X155575000Y-117475000D03*
X155575000Y-116205000D03*
X170815000Y-116205000D03*
X150495000Y-111760000D03*
X151765000Y-111760000D03*
%TO.N,VCC*%
X129286000Y-93980000D03*
X129286000Y-92837000D03*
X129286000Y-91694000D03*
X129286000Y-90551000D03*
%TO.N,Net-(C14-Pad2)*%
X144780000Y-104902000D03*
X144780000Y-105918000D03*
X150238000Y-118110000D03*
%TO.N,/+12V*%
X140019000Y-118429000D03*
%TO.N,Net-(C19-Pad1)*%
X130958500Y-106299000D03*
X123841000Y-106299000D03*
X123841000Y-103759000D03*
%TO.N,/FB_A*%
X131826000Y-83333500D03*
X133874000Y-83312000D03*
X132842000Y-83312000D03*
%TO.N,/FB_B*%
X130826000Y-114046000D03*
X129794000Y-114046000D03*
X128778000Y-114024500D03*
%TO.N,Net-(C20-Pad1)*%
X147828000Y-102616000D03*
%TO.N,Net-(C21-Pad1)*%
X147828000Y-100330000D03*
%TO.N,/OUT_A*%
X163830000Y-104140000D03*
X167640000Y-104140000D03*
X166370000Y-104140000D03*
X165100000Y-104140000D03*
X152146000Y-103124000D03*
X163830000Y-105664000D03*
X150114000Y-103124000D03*
X165100000Y-105664000D03*
X167640000Y-105664000D03*
X151130000Y-102108000D03*
X150114000Y-102108000D03*
X151130000Y-103124000D03*
X152146000Y-102108000D03*
X166370000Y-105664000D03*
%TO.N,/OUT_B*%
X155194000Y-99060000D03*
X156210000Y-99060000D03*
X157226000Y-99060000D03*
X158242000Y-99060000D03*
%TO.N,/OUT_D*%
X152146000Y-93980000D03*
X152146000Y-94996000D03*
X151130000Y-94996000D03*
X151130000Y-93980000D03*
X150114000Y-94996000D03*
X150114000Y-93980000D03*
X165100000Y-91186000D03*
X166370000Y-91186000D03*
X167640000Y-91186000D03*
X165100000Y-92710000D03*
X166370000Y-92710000D03*
X167640000Y-92710000D03*
X163830000Y-91186000D03*
X163830000Y-92710000D03*
%TO.N,/OSC_IOP*%
X144145000Y-99060000D03*
%TO.N,/OSC_IOM*%
X144907000Y-99949000D03*
%TO.N,/~ERROR*%
X144526000Y-91694000D03*
%TO.N,/~FAULT*%
X140970000Y-91694000D03*
%TO.N,/~RESET*%
X140970000Y-92710000D03*
%TO.N,GNDA*%
X127381000Y-92036500D03*
X126453500Y-92964000D03*
X134598500Y-108839000D03*
X133985000Y-106553000D03*
%TO.N,/DVDD*%
X144780000Y-98298000D03*
X144840942Y-103819942D03*
%TD*%
D18*
%TO.N,GNDA*%
X123032010Y-111252000D02*
X131064000Y-111252000D01*
%TO.N,*%
X131826000Y-85090000D02*
X139192000Y-85090000D01*
X123698000Y-85090000D02*
X129794000Y-85090000D01*
X139192000Y-111309002D02*
X139192000Y-112268000D01*
X139192000Y-85090000D02*
X139192000Y-111309002D01*
X139192000Y-112268000D02*
X132588000Y-112268000D01*
X130556000Y-112268000D02*
X123444000Y-112268000D01*
D19*
%TO.N,Net-(C19-Pad1)*%
X130958500Y-106299000D02*
X123841000Y-106299000D01*
X131445000Y-105812500D02*
X130958500Y-106299000D01*
X131445000Y-103378000D02*
X131445000Y-105812500D01*
%TO.N,/FB_A*%
X131847500Y-83312000D02*
X131826000Y-83333500D01*
X133874000Y-83312000D02*
X131847500Y-83312000D01*
X130194990Y-102088010D02*
X128905000Y-103378000D01*
X130194990Y-94722010D02*
X130194990Y-102088010D01*
X130975999Y-93941001D02*
X130194990Y-94722010D01*
X130975999Y-84183501D02*
X130975999Y-93941001D01*
X131826000Y-83333500D02*
X130975999Y-84183501D01*
%TO.N,/FB_B*%
X131445000Y-95758000D02*
X132695010Y-97008010D01*
X132695010Y-110128990D02*
X132461000Y-110363000D01*
X131737999Y-113134001D02*
X130826000Y-114046000D01*
X131737999Y-111859999D02*
X131737999Y-113134001D01*
X132179999Y-111417999D02*
X131737999Y-111859999D01*
X132179999Y-110350021D02*
X132179999Y-111417999D01*
X132695010Y-109835010D02*
X132179999Y-110350021D01*
X132695010Y-97008010D02*
X132695010Y-109835010D01*
X132695010Y-109835010D02*
X132695010Y-110128990D01*
X128799500Y-114046000D02*
X128778000Y-114024500D01*
X130826000Y-114046000D02*
X128799500Y-114046000D01*
D18*
%TO.N,/OUT_A*%
X167640000Y-104140000D02*
X167640000Y-105664000D01*
X167640000Y-105664000D02*
X163830000Y-105664000D01*
%TO.N,/OSC_IOP*%
X144145000Y-99060000D02*
X144145000Y-98933000D01*
D19*
%TO.N,GNDA*%
X123952000Y-111252000D02*
X131064000Y-111252000D01*
X133096000Y-111252000D02*
X138176000Y-111252000D01*
X138176000Y-111252000D02*
X138176000Y-86106000D01*
X138176000Y-86106000D02*
X132334000Y-86106000D01*
X130175000Y-86106000D02*
X123190000Y-86106000D01*
D18*
%TO.N,/DVDD*%
X144780000Y-98298000D02*
X145669000Y-99187000D01*
X145669000Y-102991884D02*
X144840942Y-103819942D01*
X145669000Y-99187000D02*
X145669000Y-102991884D01*
%TD*%
D20*
X147337744Y-101247205D02*
X147526102Y-101325226D01*
X147726061Y-101365000D01*
X147929939Y-101365000D01*
X148129898Y-101325226D01*
X148318256Y-101247205D01*
X148360468Y-101219000D01*
X149083985Y-101219000D01*
X149118774Y-101393898D01*
X149196795Y-101582256D01*
X149208651Y-101600000D01*
X149196795Y-101617744D01*
X149118774Y-101806102D01*
X149079000Y-102006061D01*
X149079000Y-102209939D01*
X149118774Y-102409898D01*
X149196795Y-102598256D01*
X149208651Y-102616000D01*
X149196795Y-102633744D01*
X149118774Y-102822102D01*
X149079000Y-103022061D01*
X149079000Y-103225939D01*
X149118774Y-103425898D01*
X149196795Y-103614256D01*
X149225000Y-103656468D01*
X149225000Y-104623532D01*
X149196795Y-104665744D01*
X149118774Y-104854102D01*
X149079000Y-105054061D01*
X149079000Y-105257939D01*
X149118774Y-105457898D01*
X149196795Y-105646256D01*
X149225000Y-105688468D01*
X149225000Y-105918000D01*
X149227440Y-105942776D01*
X149234667Y-105966601D01*
X149246403Y-105988557D01*
X149262197Y-106007803D01*
X150278197Y-107023803D01*
X150297443Y-107039597D01*
X150319399Y-107051333D01*
X150343224Y-107058560D01*
X150368000Y-107061000D01*
X152157247Y-107061000D01*
X152166774Y-107108898D01*
X152244795Y-107297256D01*
X152358063Y-107466774D01*
X152502226Y-107610937D01*
X152671744Y-107724205D01*
X152860102Y-107802226D01*
X153060061Y-107842000D01*
X153263939Y-107842000D01*
X153463898Y-107802226D01*
X153652256Y-107724205D01*
X153821774Y-107610937D01*
X153965937Y-107466774D01*
X154054654Y-107334000D01*
X154152939Y-107334000D01*
X154352898Y-107294226D01*
X154541256Y-107216205D01*
X154710774Y-107102937D01*
X154752711Y-107061000D01*
X157861000Y-107061000D01*
X157861000Y-110871000D01*
X152297468Y-110871000D01*
X152255256Y-110842795D01*
X152066898Y-110764774D01*
X151866939Y-110725000D01*
X151663061Y-110725000D01*
X151463102Y-110764774D01*
X151274744Y-110842795D01*
X151232532Y-110871000D01*
X151027468Y-110871000D01*
X150985256Y-110842795D01*
X150796898Y-110764774D01*
X150596939Y-110725000D01*
X150393061Y-110725000D01*
X150193102Y-110764774D01*
X150104025Y-110801671D01*
X148213648Y-108785268D01*
X154121000Y-108785268D01*
X154121000Y-109146732D01*
X154191518Y-109501250D01*
X154329844Y-109835199D01*
X154530662Y-110135744D01*
X154786256Y-110391338D01*
X155086801Y-110592156D01*
X155420750Y-110730482D01*
X155775268Y-110801000D01*
X156136732Y-110801000D01*
X156491250Y-110730482D01*
X156825199Y-110592156D01*
X157125744Y-110391338D01*
X157381338Y-110135744D01*
X157582156Y-109835199D01*
X157720482Y-109501250D01*
X157791000Y-109146732D01*
X157791000Y-108785268D01*
X157720482Y-108430750D01*
X157582156Y-108096801D01*
X157381338Y-107796256D01*
X157125744Y-107540662D01*
X156825199Y-107339844D01*
X156491250Y-107201518D01*
X156136732Y-107131000D01*
X155775268Y-107131000D01*
X155420750Y-107201518D01*
X155086801Y-107339844D01*
X154786256Y-107540662D01*
X154530662Y-107796256D01*
X154329844Y-108096801D01*
X154191518Y-108430750D01*
X154121000Y-108785268D01*
X148213648Y-108785268D01*
X146431000Y-106883778D01*
X146431000Y-103008901D01*
X146432676Y-102991884D01*
X146431000Y-102974867D01*
X146431000Y-102514061D01*
X146793000Y-102514061D01*
X146793000Y-102717939D01*
X146832774Y-102917898D01*
X146910795Y-103106256D01*
X147024063Y-103275774D01*
X147168226Y-103419937D01*
X147337744Y-103533205D01*
X147526102Y-103611226D01*
X147726061Y-103651000D01*
X147929939Y-103651000D01*
X148129898Y-103611226D01*
X148318256Y-103533205D01*
X148487774Y-103419937D01*
X148631937Y-103275774D01*
X148745205Y-103106256D01*
X148823226Y-102917898D01*
X148863000Y-102717939D01*
X148863000Y-102514061D01*
X148823226Y-102314102D01*
X148745205Y-102125744D01*
X148631937Y-101956226D01*
X148487774Y-101812063D01*
X148318256Y-101698795D01*
X148129898Y-101620774D01*
X147929939Y-101581000D01*
X147726061Y-101581000D01*
X147526102Y-101620774D01*
X147337744Y-101698795D01*
X147168226Y-101812063D01*
X147024063Y-101956226D01*
X146910795Y-102125744D01*
X146832774Y-102314102D01*
X146793000Y-102514061D01*
X146431000Y-102514061D01*
X146431000Y-101219000D01*
X147295532Y-101219000D01*
X147337744Y-101247205D01*
%TA.AperFunction,NonConductor*%
D21*
G36*
X147337744Y-101247205D02*
G01*
X147526102Y-101325226D01*
X147726061Y-101365000D01*
X147929939Y-101365000D01*
X148129898Y-101325226D01*
X148318256Y-101247205D01*
X148360468Y-101219000D01*
X149083985Y-101219000D01*
X149118774Y-101393898D01*
X149196795Y-101582256D01*
X149208651Y-101600000D01*
X149196795Y-101617744D01*
X149118774Y-101806102D01*
X149079000Y-102006061D01*
X149079000Y-102209939D01*
X149118774Y-102409898D01*
X149196795Y-102598256D01*
X149208651Y-102616000D01*
X149196795Y-102633744D01*
X149118774Y-102822102D01*
X149079000Y-103022061D01*
X149079000Y-103225939D01*
X149118774Y-103425898D01*
X149196795Y-103614256D01*
X149225000Y-103656468D01*
X149225000Y-104623532D01*
X149196795Y-104665744D01*
X149118774Y-104854102D01*
X149079000Y-105054061D01*
X149079000Y-105257939D01*
X149118774Y-105457898D01*
X149196795Y-105646256D01*
X149225000Y-105688468D01*
X149225000Y-105918000D01*
X149227440Y-105942776D01*
X149234667Y-105966601D01*
X149246403Y-105988557D01*
X149262197Y-106007803D01*
X150278197Y-107023803D01*
X150297443Y-107039597D01*
X150319399Y-107051333D01*
X150343224Y-107058560D01*
X150368000Y-107061000D01*
X152157247Y-107061000D01*
X152166774Y-107108898D01*
X152244795Y-107297256D01*
X152358063Y-107466774D01*
X152502226Y-107610937D01*
X152671744Y-107724205D01*
X152860102Y-107802226D01*
X153060061Y-107842000D01*
X153263939Y-107842000D01*
X153463898Y-107802226D01*
X153652256Y-107724205D01*
X153821774Y-107610937D01*
X153965937Y-107466774D01*
X154054654Y-107334000D01*
X154152939Y-107334000D01*
X154352898Y-107294226D01*
X154541256Y-107216205D01*
X154710774Y-107102937D01*
X154752711Y-107061000D01*
X157861000Y-107061000D01*
X157861000Y-110871000D01*
X152297468Y-110871000D01*
X152255256Y-110842795D01*
X152066898Y-110764774D01*
X151866939Y-110725000D01*
X151663061Y-110725000D01*
X151463102Y-110764774D01*
X151274744Y-110842795D01*
X151232532Y-110871000D01*
X151027468Y-110871000D01*
X150985256Y-110842795D01*
X150796898Y-110764774D01*
X150596939Y-110725000D01*
X150393061Y-110725000D01*
X150193102Y-110764774D01*
X150104025Y-110801671D01*
X148213648Y-108785268D01*
X154121000Y-108785268D01*
X154121000Y-109146732D01*
X154191518Y-109501250D01*
X154329844Y-109835199D01*
X154530662Y-110135744D01*
X154786256Y-110391338D01*
X155086801Y-110592156D01*
X155420750Y-110730482D01*
X155775268Y-110801000D01*
X156136732Y-110801000D01*
X156491250Y-110730482D01*
X156825199Y-110592156D01*
X157125744Y-110391338D01*
X157381338Y-110135744D01*
X157582156Y-109835199D01*
X157720482Y-109501250D01*
X157791000Y-109146732D01*
X157791000Y-108785268D01*
X157720482Y-108430750D01*
X157582156Y-108096801D01*
X157381338Y-107796256D01*
X157125744Y-107540662D01*
X156825199Y-107339844D01*
X156491250Y-107201518D01*
X156136732Y-107131000D01*
X155775268Y-107131000D01*
X155420750Y-107201518D01*
X155086801Y-107339844D01*
X154786256Y-107540662D01*
X154530662Y-107796256D01*
X154329844Y-108096801D01*
X154191518Y-108430750D01*
X154121000Y-108785268D01*
X148213648Y-108785268D01*
X146431000Y-106883778D01*
X146431000Y-103008901D01*
X146432676Y-102991884D01*
X146431000Y-102974867D01*
X146431000Y-102514061D01*
X146793000Y-102514061D01*
X146793000Y-102717939D01*
X146832774Y-102917898D01*
X146910795Y-103106256D01*
X147024063Y-103275774D01*
X147168226Y-103419937D01*
X147337744Y-103533205D01*
X147526102Y-103611226D01*
X147726061Y-103651000D01*
X147929939Y-103651000D01*
X148129898Y-103611226D01*
X148318256Y-103533205D01*
X148487774Y-103419937D01*
X148631937Y-103275774D01*
X148745205Y-103106256D01*
X148823226Y-102917898D01*
X148863000Y-102717939D01*
X148863000Y-102514061D01*
X148823226Y-102314102D01*
X148745205Y-102125744D01*
X148631937Y-101956226D01*
X148487774Y-101812063D01*
X148318256Y-101698795D01*
X148129898Y-101620774D01*
X147929939Y-101581000D01*
X147726061Y-101581000D01*
X147526102Y-101620774D01*
X147337744Y-101698795D01*
X147168226Y-101812063D01*
X147024063Y-101956226D01*
X146910795Y-102125744D01*
X146832774Y-102314102D01*
X146793000Y-102514061D01*
X146431000Y-102514061D01*
X146431000Y-101219000D01*
X147295532Y-101219000D01*
X147337744Y-101247205D01*
G37*
%TD.AperFunction*%
D20*
X157861000Y-89789000D02*
X152720711Y-89789000D01*
X152678774Y-89747063D01*
X152509256Y-89633795D01*
X152320898Y-89555774D01*
X152120939Y-89516000D01*
X151917061Y-89516000D01*
X151717102Y-89555774D01*
X151574500Y-89614842D01*
X151431898Y-89555774D01*
X151231939Y-89516000D01*
X151028061Y-89516000D01*
X150828102Y-89555774D01*
X150639744Y-89633795D01*
X150470226Y-89747063D01*
X150326063Y-89891226D01*
X150212795Y-90060744D01*
X150134774Y-90249102D01*
X150095000Y-90449061D01*
X150095000Y-90652939D01*
X150114653Y-90751741D01*
X149938827Y-90927567D01*
X149812102Y-90952774D01*
X149623744Y-91030795D01*
X149454226Y-91144063D01*
X149310063Y-91288226D01*
X149196795Y-91457744D01*
X149118774Y-91646102D01*
X149079000Y-91846061D01*
X149079000Y-92049939D01*
X149118774Y-92249898D01*
X149196795Y-92438256D01*
X149208651Y-92456000D01*
X149196795Y-92473744D01*
X149118774Y-92662102D01*
X149079000Y-92862061D01*
X149079000Y-93065939D01*
X149118774Y-93265898D01*
X149196795Y-93454256D01*
X149208651Y-93472000D01*
X149196795Y-93489744D01*
X149118774Y-93678102D01*
X149079000Y-93878061D01*
X149079000Y-94081939D01*
X149118774Y-94281898D01*
X149196795Y-94470256D01*
X149208651Y-94488000D01*
X149196795Y-94505744D01*
X149118774Y-94694102D01*
X149079000Y-94894061D01*
X149079000Y-95097939D01*
X149118774Y-95297898D01*
X149196795Y-95486256D01*
X149208651Y-95504000D01*
X149196795Y-95521744D01*
X149118774Y-95710102D01*
X149079000Y-95910061D01*
X149079000Y-96113939D01*
X149118774Y-96313898D01*
X149196795Y-96502256D01*
X149208651Y-96520000D01*
X149196795Y-96537744D01*
X149118774Y-96726102D01*
X149079000Y-96926061D01*
X149079000Y-97129939D01*
X149118774Y-97329898D01*
X149196795Y-97518256D01*
X149208651Y-97536000D01*
X149196795Y-97553744D01*
X149118774Y-97742102D01*
X149079000Y-97942061D01*
X149079000Y-98145939D01*
X149118774Y-98345898D01*
X149196795Y-98534256D01*
X149208651Y-98552000D01*
X149196795Y-98569744D01*
X149118774Y-98758102D01*
X149079000Y-98958061D01*
X149079000Y-99161939D01*
X149118774Y-99361898D01*
X149196795Y-99550256D01*
X149208651Y-99568000D01*
X149196795Y-99585744D01*
X149118774Y-99774102D01*
X149079000Y-99974061D01*
X149079000Y-100177939D01*
X149118774Y-100377898D01*
X149196795Y-100566256D01*
X149208651Y-100584000D01*
X149196795Y-100601744D01*
X149118774Y-100790102D01*
X149079000Y-100990061D01*
X149079000Y-101193939D01*
X149118774Y-101393898D01*
X149151539Y-101473000D01*
X146431000Y-101473000D01*
X146431000Y-100228061D01*
X146793000Y-100228061D01*
X146793000Y-100431939D01*
X146832774Y-100631898D01*
X146910795Y-100820256D01*
X147024063Y-100989774D01*
X147168226Y-101133937D01*
X147337744Y-101247205D01*
X147526102Y-101325226D01*
X147726061Y-101365000D01*
X147929939Y-101365000D01*
X148129898Y-101325226D01*
X148318256Y-101247205D01*
X148487774Y-101133937D01*
X148631937Y-100989774D01*
X148745205Y-100820256D01*
X148823226Y-100631898D01*
X148863000Y-100431939D01*
X148863000Y-100228061D01*
X148823226Y-100028102D01*
X148745205Y-99839744D01*
X148631937Y-99670226D01*
X148487774Y-99526063D01*
X148318256Y-99412795D01*
X148129898Y-99334774D01*
X147929939Y-99295000D01*
X147726061Y-99295000D01*
X147526102Y-99334774D01*
X147337744Y-99412795D01*
X147168226Y-99526063D01*
X147024063Y-99670226D01*
X146910795Y-99839744D01*
X146832774Y-100028102D01*
X146793000Y-100228061D01*
X146431000Y-100228061D01*
X146431000Y-99204017D01*
X146432676Y-99187000D01*
X146431000Y-99169983D01*
X146431000Y-90476606D01*
X149204338Y-87703268D01*
X154121000Y-87703268D01*
X154121000Y-88064732D01*
X154191518Y-88419250D01*
X154329844Y-88753199D01*
X154530662Y-89053744D01*
X154786256Y-89309338D01*
X155086801Y-89510156D01*
X155420750Y-89648482D01*
X155775268Y-89719000D01*
X156136732Y-89719000D01*
X156491250Y-89648482D01*
X156825199Y-89510156D01*
X157125744Y-89309338D01*
X157381338Y-89053744D01*
X157582156Y-88753199D01*
X157720482Y-88419250D01*
X157791000Y-88064732D01*
X157791000Y-87703268D01*
X157720482Y-87348750D01*
X157582156Y-87014801D01*
X157381338Y-86714256D01*
X157125744Y-86458662D01*
X156825199Y-86257844D01*
X156491250Y-86119518D01*
X156136732Y-86049000D01*
X155775268Y-86049000D01*
X155420750Y-86119518D01*
X155086801Y-86257844D01*
X154786256Y-86458662D01*
X154530662Y-86714256D01*
X154329844Y-87014801D01*
X154191518Y-87348750D01*
X154121000Y-87703268D01*
X149204338Y-87703268D01*
X150928606Y-85979000D01*
X157861000Y-85979000D01*
X157861000Y-89789000D01*
%TA.AperFunction,NonConductor*%
D21*
G36*
X157861000Y-89789000D02*
G01*
X152720711Y-89789000D01*
X152678774Y-89747063D01*
X152509256Y-89633795D01*
X152320898Y-89555774D01*
X152120939Y-89516000D01*
X151917061Y-89516000D01*
X151717102Y-89555774D01*
X151574500Y-89614842D01*
X151431898Y-89555774D01*
X151231939Y-89516000D01*
X151028061Y-89516000D01*
X150828102Y-89555774D01*
X150639744Y-89633795D01*
X150470226Y-89747063D01*
X150326063Y-89891226D01*
X150212795Y-90060744D01*
X150134774Y-90249102D01*
X150095000Y-90449061D01*
X150095000Y-90652939D01*
X150114653Y-90751741D01*
X149938827Y-90927567D01*
X149812102Y-90952774D01*
X149623744Y-91030795D01*
X149454226Y-91144063D01*
X149310063Y-91288226D01*
X149196795Y-91457744D01*
X149118774Y-91646102D01*
X149079000Y-91846061D01*
X149079000Y-92049939D01*
X149118774Y-92249898D01*
X149196795Y-92438256D01*
X149208651Y-92456000D01*
X149196795Y-92473744D01*
X149118774Y-92662102D01*
X149079000Y-92862061D01*
X149079000Y-93065939D01*
X149118774Y-93265898D01*
X149196795Y-93454256D01*
X149208651Y-93472000D01*
X149196795Y-93489744D01*
X149118774Y-93678102D01*
X149079000Y-93878061D01*
X149079000Y-94081939D01*
X149118774Y-94281898D01*
X149196795Y-94470256D01*
X149208651Y-94488000D01*
X149196795Y-94505744D01*
X149118774Y-94694102D01*
X149079000Y-94894061D01*
X149079000Y-95097939D01*
X149118774Y-95297898D01*
X149196795Y-95486256D01*
X149208651Y-95504000D01*
X149196795Y-95521744D01*
X149118774Y-95710102D01*
X149079000Y-95910061D01*
X149079000Y-96113939D01*
X149118774Y-96313898D01*
X149196795Y-96502256D01*
X149208651Y-96520000D01*
X149196795Y-96537744D01*
X149118774Y-96726102D01*
X149079000Y-96926061D01*
X149079000Y-97129939D01*
X149118774Y-97329898D01*
X149196795Y-97518256D01*
X149208651Y-97536000D01*
X149196795Y-97553744D01*
X149118774Y-97742102D01*
X149079000Y-97942061D01*
X149079000Y-98145939D01*
X149118774Y-98345898D01*
X149196795Y-98534256D01*
X149208651Y-98552000D01*
X149196795Y-98569744D01*
X149118774Y-98758102D01*
X149079000Y-98958061D01*
X149079000Y-99161939D01*
X149118774Y-99361898D01*
X149196795Y-99550256D01*
X149208651Y-99568000D01*
X149196795Y-99585744D01*
X149118774Y-99774102D01*
X149079000Y-99974061D01*
X149079000Y-100177939D01*
X149118774Y-100377898D01*
X149196795Y-100566256D01*
X149208651Y-100584000D01*
X149196795Y-100601744D01*
X149118774Y-100790102D01*
X149079000Y-100990061D01*
X149079000Y-101193939D01*
X149118774Y-101393898D01*
X149151539Y-101473000D01*
X146431000Y-101473000D01*
X146431000Y-100228061D01*
X146793000Y-100228061D01*
X146793000Y-100431939D01*
X146832774Y-100631898D01*
X146910795Y-100820256D01*
X147024063Y-100989774D01*
X147168226Y-101133937D01*
X147337744Y-101247205D01*
X147526102Y-101325226D01*
X147726061Y-101365000D01*
X147929939Y-101365000D01*
X148129898Y-101325226D01*
X148318256Y-101247205D01*
X148487774Y-101133937D01*
X148631937Y-100989774D01*
X148745205Y-100820256D01*
X148823226Y-100631898D01*
X148863000Y-100431939D01*
X148863000Y-100228061D01*
X148823226Y-100028102D01*
X148745205Y-99839744D01*
X148631937Y-99670226D01*
X148487774Y-99526063D01*
X148318256Y-99412795D01*
X148129898Y-99334774D01*
X147929939Y-99295000D01*
X147726061Y-99295000D01*
X147526102Y-99334774D01*
X147337744Y-99412795D01*
X147168226Y-99526063D01*
X147024063Y-99670226D01*
X146910795Y-99839744D01*
X146832774Y-100028102D01*
X146793000Y-100228061D01*
X146431000Y-100228061D01*
X146431000Y-99204017D01*
X146432676Y-99187000D01*
X146431000Y-99169983D01*
X146431000Y-90476606D01*
X149204338Y-87703268D01*
X154121000Y-87703268D01*
X154121000Y-88064732D01*
X154191518Y-88419250D01*
X154329844Y-88753199D01*
X154530662Y-89053744D01*
X154786256Y-89309338D01*
X155086801Y-89510156D01*
X155420750Y-89648482D01*
X155775268Y-89719000D01*
X156136732Y-89719000D01*
X156491250Y-89648482D01*
X156825199Y-89510156D01*
X157125744Y-89309338D01*
X157381338Y-89053744D01*
X157582156Y-88753199D01*
X157720482Y-88419250D01*
X157791000Y-88064732D01*
X157791000Y-87703268D01*
X157720482Y-87348750D01*
X157582156Y-87014801D01*
X157381338Y-86714256D01*
X157125744Y-86458662D01*
X156825199Y-86257844D01*
X156491250Y-86119518D01*
X156136732Y-86049000D01*
X155775268Y-86049000D01*
X155420750Y-86119518D01*
X155086801Y-86257844D01*
X154786256Y-86458662D01*
X154530662Y-86714256D01*
X154329844Y-87014801D01*
X154191518Y-87348750D01*
X154121000Y-87703268D01*
X149204338Y-87703268D01*
X150928606Y-85979000D01*
X157861000Y-85979000D01*
X157861000Y-89789000D01*
G37*
%TD.AperFunction*%
D22*
%TO.N,/+12V*%
X144653000Y-90663985D02*
X144627939Y-90659000D01*
X144424061Y-90659000D01*
X144224102Y-90698774D01*
X144035744Y-90776795D01*
X143866226Y-90890063D01*
X143722063Y-91034226D01*
X143608795Y-91203744D01*
X143530774Y-91392102D01*
X143491000Y-91592061D01*
X143491000Y-91795939D01*
X143530774Y-91995898D01*
X143608795Y-92184256D01*
X143722063Y-92353774D01*
X143866226Y-92497937D01*
X144035744Y-92611205D01*
X144224102Y-92689226D01*
X144424061Y-92729000D01*
X144627939Y-92729000D01*
X144653000Y-92724015D01*
X144653000Y-97267985D01*
X144478102Y-97302774D01*
X144289744Y-97380795D01*
X144120226Y-97494063D01*
X143976063Y-97638226D01*
X143862795Y-97807744D01*
X143784774Y-97996102D01*
X143764651Y-98097270D01*
X143654744Y-98142795D01*
X143485226Y-98256063D01*
X143341063Y-98400226D01*
X143227795Y-98569744D01*
X143149774Y-98758102D01*
X143110000Y-98958061D01*
X143110000Y-99161939D01*
X143149774Y-99361898D01*
X143227795Y-99550256D01*
X143341063Y-99719774D01*
X143485226Y-99863937D01*
X143654744Y-99977205D01*
X143843102Y-100055226D01*
X143874078Y-100061388D01*
X143911774Y-100250898D01*
X143989795Y-100439256D01*
X144103063Y-100608774D01*
X144247226Y-100752937D01*
X144416744Y-100866205D01*
X144605102Y-100944226D01*
X144653000Y-100953753D01*
X144653000Y-102802049D01*
X144539044Y-102824716D01*
X144350686Y-102902737D01*
X144181168Y-103016005D01*
X144037005Y-103160168D01*
X143923737Y-103329686D01*
X143845716Y-103518044D01*
X143805942Y-103718003D01*
X143805942Y-103921881D01*
X143845716Y-104121840D01*
X143923737Y-104310198D01*
X143927191Y-104315368D01*
X143862795Y-104411744D01*
X143784774Y-104600102D01*
X143745000Y-104800061D01*
X143745000Y-105003939D01*
X143784774Y-105203898D01*
X143862795Y-105392256D01*
X143874651Y-105410000D01*
X143862795Y-105427744D01*
X143784774Y-105616102D01*
X143745000Y-105816061D01*
X143745000Y-106019939D01*
X143784774Y-106219898D01*
X143862795Y-106408256D01*
X143976063Y-106577774D01*
X144120226Y-106721937D01*
X144289744Y-106835205D01*
X144478102Y-106913226D01*
X144653000Y-106948015D01*
X144653000Y-115443000D01*
X144655440Y-115467776D01*
X144662667Y-115491601D01*
X144674403Y-115513557D01*
X144697749Y-115539766D01*
X149777749Y-119857766D01*
X149777965Y-119857950D01*
X154730965Y-124048950D01*
X154751456Y-124063091D01*
X154774311Y-124072963D01*
X154809153Y-124078942D01*
X159000153Y-124205942D01*
X159004000Y-124206000D01*
X161036000Y-124206000D01*
X161036000Y-128118000D01*
X156366770Y-128118000D01*
X156379502Y-128094180D01*
X156415812Y-127974482D01*
X156428072Y-127850000D01*
X156428072Y-126150000D01*
X156415812Y-126025518D01*
X156379502Y-125905820D01*
X156320537Y-125795506D01*
X156241185Y-125698815D01*
X156144494Y-125619463D01*
X156034180Y-125560498D01*
X155914482Y-125524188D01*
X155790000Y-125511928D01*
X154090000Y-125511928D01*
X153965518Y-125524188D01*
X153845820Y-125560498D01*
X153735506Y-125619463D01*
X153638815Y-125698815D01*
X153559463Y-125795506D01*
X153500498Y-125905820D01*
X153464188Y-126025518D01*
X153451928Y-126150000D01*
X153451928Y-127850000D01*
X153464188Y-127974482D01*
X153500498Y-128094180D01*
X153513230Y-128118000D01*
X128524000Y-128118000D01*
X128524000Y-122301220D01*
X128548844Y-122361199D01*
X128749662Y-122661744D01*
X129005256Y-122917338D01*
X129305801Y-123118156D01*
X129639750Y-123256482D01*
X129994268Y-123327000D01*
X130355732Y-123327000D01*
X130710250Y-123256482D01*
X131044199Y-123118156D01*
X131344744Y-122917338D01*
X131600338Y-122661744D01*
X131739775Y-122453061D01*
X139300000Y-122453061D01*
X139300000Y-122656939D01*
X139339774Y-122856898D01*
X139417795Y-123045256D01*
X139514510Y-123190000D01*
X139417795Y-123334744D01*
X139339774Y-123523102D01*
X139300000Y-123723061D01*
X139300000Y-123926939D01*
X139339774Y-124126898D01*
X139417795Y-124315256D01*
X139514510Y-124460000D01*
X139417795Y-124604744D01*
X139339774Y-124793102D01*
X139300000Y-124993061D01*
X139300000Y-125196939D01*
X139339774Y-125396898D01*
X139417795Y-125585256D01*
X139531063Y-125754774D01*
X139675226Y-125898937D01*
X139844744Y-126012205D01*
X140033102Y-126090226D01*
X140233061Y-126130000D01*
X140436939Y-126130000D01*
X140636898Y-126090226D01*
X140825256Y-126012205D01*
X140970000Y-125915490D01*
X141114744Y-126012205D01*
X141303102Y-126090226D01*
X141503061Y-126130000D01*
X141706939Y-126130000D01*
X141906898Y-126090226D01*
X142095256Y-126012205D01*
X142240000Y-125915490D01*
X142384744Y-126012205D01*
X142573102Y-126090226D01*
X142773061Y-126130000D01*
X142976939Y-126130000D01*
X143176898Y-126090226D01*
X143365256Y-126012205D01*
X143510000Y-125915490D01*
X143654744Y-126012205D01*
X143843102Y-126090226D01*
X144043061Y-126130000D01*
X144246939Y-126130000D01*
X144446898Y-126090226D01*
X144635256Y-126012205D01*
X144804774Y-125898937D01*
X144948937Y-125754774D01*
X145062205Y-125585256D01*
X145140226Y-125396898D01*
X145180000Y-125196939D01*
X145180000Y-124993061D01*
X145140226Y-124793102D01*
X145062205Y-124604744D01*
X144965490Y-124460000D01*
X145062205Y-124315256D01*
X145140226Y-124126898D01*
X145180000Y-123926939D01*
X145180000Y-123723061D01*
X145140226Y-123523102D01*
X145062205Y-123334744D01*
X144965490Y-123190000D01*
X145062205Y-123045256D01*
X145140226Y-122856898D01*
X145180000Y-122656939D01*
X145180000Y-122453061D01*
X145140226Y-122253102D01*
X145062205Y-122064744D01*
X144965490Y-121920000D01*
X145062205Y-121775256D01*
X145140226Y-121586898D01*
X145180000Y-121386939D01*
X145180000Y-121183061D01*
X145140226Y-120983102D01*
X145062205Y-120794744D01*
X144965490Y-120650000D01*
X145062205Y-120505256D01*
X145140226Y-120316898D01*
X145180000Y-120116939D01*
X145180000Y-119913061D01*
X145140226Y-119713102D01*
X145062205Y-119524744D01*
X144948937Y-119355226D01*
X144804774Y-119211063D01*
X144635256Y-119097795D01*
X144446898Y-119019774D01*
X144246939Y-118980000D01*
X144043061Y-118980000D01*
X143843102Y-119019774D01*
X143654744Y-119097795D01*
X143510000Y-119194510D01*
X143365256Y-119097795D01*
X143176898Y-119019774D01*
X142976939Y-118980000D01*
X142773061Y-118980000D01*
X142573102Y-119019774D01*
X142384744Y-119097795D01*
X142215226Y-119211063D01*
X142071063Y-119355226D01*
X141957795Y-119524744D01*
X141879774Y-119713102D01*
X141840000Y-119913061D01*
X141840000Y-120116939D01*
X141879774Y-120316898D01*
X141957795Y-120505256D01*
X142054510Y-120650000D01*
X141957795Y-120794744D01*
X141879774Y-120983102D01*
X141840000Y-121183061D01*
X141840000Y-121386939D01*
X141873039Y-121553039D01*
X141706939Y-121520000D01*
X141503061Y-121520000D01*
X141303102Y-121559774D01*
X141114744Y-121637795D01*
X140970000Y-121734510D01*
X140825256Y-121637795D01*
X140636898Y-121559774D01*
X140436939Y-121520000D01*
X140233061Y-121520000D01*
X140033102Y-121559774D01*
X139844744Y-121637795D01*
X139675226Y-121751063D01*
X139531063Y-121895226D01*
X139417795Y-122064744D01*
X139339774Y-122253102D01*
X139300000Y-122453061D01*
X131739775Y-122453061D01*
X131801156Y-122361199D01*
X131939482Y-122027250D01*
X132010000Y-121672732D01*
X132010000Y-121311268D01*
X131939482Y-120956750D01*
X131801156Y-120622801D01*
X131600338Y-120322256D01*
X131344744Y-120066662D01*
X131077358Y-119888000D01*
X133350000Y-119888000D01*
X133374776Y-119885560D01*
X133398601Y-119878333D01*
X133420557Y-119866597D01*
X133432809Y-119857290D01*
X139747134Y-114426971D01*
X139771613Y-114424560D01*
X139795438Y-114417333D01*
X139817394Y-114405597D01*
X139836640Y-114389803D01*
X139852434Y-114370557D01*
X139864170Y-114348601D01*
X139871397Y-114324776D01*
X139873834Y-114300901D01*
X139882770Y-113040941D01*
X139995937Y-112927774D01*
X140109205Y-112758256D01*
X140187226Y-112569898D01*
X140227000Y-112369939D01*
X140227000Y-112166061D01*
X140187226Y-111966102D01*
X140109205Y-111777744D01*
X139995937Y-111608226D01*
X139952000Y-111564289D01*
X139952000Y-111447711D01*
X139995937Y-111403774D01*
X140109205Y-111234256D01*
X140187226Y-111045898D01*
X140227000Y-110845939D01*
X140227000Y-110642061D01*
X140187226Y-110442102D01*
X140109205Y-110253744D01*
X140097349Y-110236000D01*
X140109205Y-110218256D01*
X140187226Y-110029898D01*
X140227000Y-109829939D01*
X140227000Y-109626061D01*
X140187226Y-109426102D01*
X140109205Y-109237744D01*
X140097349Y-109220000D01*
X140109205Y-109202256D01*
X140187226Y-109013898D01*
X140227000Y-108813939D01*
X140227000Y-108610061D01*
X140187226Y-108410102D01*
X140109205Y-108221744D01*
X140097349Y-108204000D01*
X140109205Y-108186256D01*
X140187226Y-107997898D01*
X140227000Y-107797939D01*
X140227000Y-107594061D01*
X140187226Y-107394102D01*
X140109205Y-107205744D01*
X140097349Y-107188000D01*
X140109205Y-107170256D01*
X140187226Y-106981898D01*
X140227000Y-106781939D01*
X140227000Y-106578061D01*
X140187226Y-106378102D01*
X140109205Y-106189744D01*
X140097349Y-106172000D01*
X140109205Y-106154256D01*
X140187226Y-105965898D01*
X140189000Y-105956979D01*
X140189000Y-106019939D01*
X140228774Y-106219898D01*
X140306795Y-106408256D01*
X140420063Y-106577774D01*
X140564226Y-106721937D01*
X140733744Y-106835205D01*
X140922102Y-106913226D01*
X141122061Y-106953000D01*
X141325939Y-106953000D01*
X141525898Y-106913226D01*
X141714256Y-106835205D01*
X141883774Y-106721937D01*
X142027937Y-106577774D01*
X142141205Y-106408256D01*
X142219226Y-106219898D01*
X142259000Y-106019939D01*
X142259000Y-105816061D01*
X142219226Y-105616102D01*
X142141205Y-105427744D01*
X142129349Y-105410000D01*
X142141205Y-105392256D01*
X142219226Y-105203898D01*
X142259000Y-105003939D01*
X142259000Y-104800061D01*
X142219226Y-104600102D01*
X142141205Y-104411744D01*
X142027937Y-104242226D01*
X141883774Y-104098063D01*
X141714256Y-103984795D01*
X141525898Y-103906774D01*
X141325939Y-103867000D01*
X141122061Y-103867000D01*
X140922102Y-103906774D01*
X140733744Y-103984795D01*
X140564226Y-104098063D01*
X140420063Y-104242226D01*
X140306795Y-104411744D01*
X140228774Y-104600102D01*
X140227000Y-104609021D01*
X140227000Y-104546061D01*
X140187226Y-104346102D01*
X140109205Y-104157744D01*
X140097349Y-104140000D01*
X140109205Y-104122256D01*
X140187226Y-103933898D01*
X140227000Y-103733939D01*
X140227000Y-103530061D01*
X140187226Y-103330102D01*
X140109205Y-103141744D01*
X140097349Y-103124000D01*
X140109205Y-103106256D01*
X140187226Y-102917898D01*
X140227000Y-102717939D01*
X140227000Y-102514061D01*
X140187226Y-102314102D01*
X140109205Y-102125744D01*
X140097349Y-102108000D01*
X140109205Y-102090256D01*
X140187226Y-101901898D01*
X140227000Y-101701939D01*
X140227000Y-101498061D01*
X140210525Y-101415236D01*
X140310226Y-101514937D01*
X140479744Y-101628205D01*
X140668102Y-101706226D01*
X140868061Y-101746000D01*
X141071939Y-101746000D01*
X141211737Y-101718193D01*
X141211587Y-101718945D01*
X141072226Y-101812063D01*
X140928063Y-101956226D01*
X140814795Y-102125744D01*
X140736774Y-102314102D01*
X140697000Y-102514061D01*
X140697000Y-102717939D01*
X140736774Y-102917898D01*
X140814795Y-103106256D01*
X140928063Y-103275774D01*
X141072226Y-103419937D01*
X141241744Y-103533205D01*
X141430102Y-103611226D01*
X141630061Y-103651000D01*
X141833939Y-103651000D01*
X142033898Y-103611226D01*
X142222256Y-103533205D01*
X142391774Y-103419937D01*
X142535937Y-103275774D01*
X142649205Y-103106256D01*
X142727226Y-102917898D01*
X142760413Y-102751055D01*
X142899774Y-102657937D01*
X143043937Y-102513774D01*
X143157205Y-102344256D01*
X143235226Y-102155898D01*
X143275000Y-101955939D01*
X143275000Y-101752061D01*
X143235226Y-101552102D01*
X143157205Y-101363744D01*
X143043937Y-101194226D01*
X142899774Y-101050063D01*
X142730256Y-100936795D01*
X142541898Y-100858774D01*
X142341939Y-100819000D01*
X142138061Y-100819000D01*
X141998263Y-100846807D01*
X142005000Y-100812939D01*
X142005000Y-100609061D01*
X141965226Y-100409102D01*
X141887205Y-100220744D01*
X141773937Y-100051226D01*
X141629774Y-99907063D01*
X141490413Y-99813945D01*
X141457226Y-99647102D01*
X141379205Y-99458744D01*
X141265937Y-99289226D01*
X141121774Y-99145063D01*
X140952256Y-99031795D01*
X140763898Y-98953774D01*
X140563939Y-98914000D01*
X140360061Y-98914000D01*
X140160102Y-98953774D01*
X140142905Y-98960897D01*
X140187226Y-98853898D01*
X140227000Y-98653939D01*
X140227000Y-98450061D01*
X140187226Y-98250102D01*
X140162331Y-98190000D01*
X140309939Y-98190000D01*
X140509898Y-98150226D01*
X140698256Y-98072205D01*
X140867774Y-97958937D01*
X141011937Y-97814774D01*
X141125205Y-97645256D01*
X141203226Y-97456898D01*
X141223349Y-97355730D01*
X141333256Y-97310205D01*
X141502774Y-97196937D01*
X141646937Y-97052774D01*
X141760205Y-96883256D01*
X141838226Y-96694898D01*
X141878000Y-96494939D01*
X141878000Y-96291061D01*
X141838226Y-96091102D01*
X141760205Y-95902744D01*
X141646937Y-95733226D01*
X141502774Y-95589063D01*
X141343943Y-95482936D01*
X141370000Y-95351939D01*
X141370000Y-95295795D01*
X141375774Y-95291937D01*
X141519937Y-95147774D01*
X141633205Y-94978256D01*
X141711226Y-94789898D01*
X141751000Y-94589939D01*
X141751000Y-94386061D01*
X141711226Y-94186102D01*
X141633205Y-93997744D01*
X141519937Y-93828226D01*
X141375774Y-93684063D01*
X141355574Y-93670566D01*
X141460256Y-93627205D01*
X141629774Y-93513937D01*
X141773937Y-93369774D01*
X141887205Y-93200256D01*
X141965226Y-93011898D01*
X142005000Y-92811939D01*
X142005000Y-92608061D01*
X141965226Y-92408102D01*
X141887205Y-92219744D01*
X141875349Y-92202000D01*
X141887205Y-92184256D01*
X141965226Y-91995898D01*
X142005000Y-91795939D01*
X142005000Y-91592061D01*
X141966617Y-91399094D01*
X142027937Y-91337774D01*
X142141205Y-91168256D01*
X142219226Y-90979898D01*
X142259000Y-90779939D01*
X142259000Y-90576061D01*
X142219226Y-90376102D01*
X142141205Y-90187744D01*
X142027937Y-90018226D01*
X141883774Y-89874063D01*
X141747241Y-89782835D01*
X141751000Y-89763939D01*
X141751000Y-89560061D01*
X141711226Y-89360102D01*
X141633205Y-89171744D01*
X141519937Y-89002226D01*
X141375774Y-88858063D01*
X141206256Y-88744795D01*
X141017898Y-88666774D01*
X140817939Y-88627000D01*
X140614061Y-88627000D01*
X140414102Y-88666774D01*
X140225744Y-88744795D01*
X140143335Y-88799859D01*
X140187226Y-88693898D01*
X140227000Y-88493939D01*
X140227000Y-88290061D01*
X140187226Y-88090102D01*
X140109205Y-87901744D01*
X140097349Y-87884000D01*
X140109205Y-87866256D01*
X140187226Y-87677898D01*
X140227000Y-87477939D01*
X140227000Y-87274061D01*
X140187226Y-87074102D01*
X140109205Y-86885744D01*
X140068698Y-86825121D01*
X140069904Y-86655074D01*
X140109205Y-86596256D01*
X140187226Y-86407898D01*
X140227000Y-86207939D01*
X140227000Y-86004061D01*
X140187226Y-85804102D01*
X140109205Y-85615744D01*
X140097349Y-85598000D01*
X140109205Y-85580256D01*
X140187226Y-85391898D01*
X140222015Y-85217000D01*
X144653000Y-85217000D01*
X144653000Y-90663985D01*
%TA.AperFunction,Conductor*%
D23*
G36*
X144653000Y-90663985D02*
G01*
X144627939Y-90659000D01*
X144424061Y-90659000D01*
X144224102Y-90698774D01*
X144035744Y-90776795D01*
X143866226Y-90890063D01*
X143722063Y-91034226D01*
X143608795Y-91203744D01*
X143530774Y-91392102D01*
X143491000Y-91592061D01*
X143491000Y-91795939D01*
X143530774Y-91995898D01*
X143608795Y-92184256D01*
X143722063Y-92353774D01*
X143866226Y-92497937D01*
X144035744Y-92611205D01*
X144224102Y-92689226D01*
X144424061Y-92729000D01*
X144627939Y-92729000D01*
X144653000Y-92724015D01*
X144653000Y-97267985D01*
X144478102Y-97302774D01*
X144289744Y-97380795D01*
X144120226Y-97494063D01*
X143976063Y-97638226D01*
X143862795Y-97807744D01*
X143784774Y-97996102D01*
X143764651Y-98097270D01*
X143654744Y-98142795D01*
X143485226Y-98256063D01*
X143341063Y-98400226D01*
X143227795Y-98569744D01*
X143149774Y-98758102D01*
X143110000Y-98958061D01*
X143110000Y-99161939D01*
X143149774Y-99361898D01*
X143227795Y-99550256D01*
X143341063Y-99719774D01*
X143485226Y-99863937D01*
X143654744Y-99977205D01*
X143843102Y-100055226D01*
X143874078Y-100061388D01*
X143911774Y-100250898D01*
X143989795Y-100439256D01*
X144103063Y-100608774D01*
X144247226Y-100752937D01*
X144416744Y-100866205D01*
X144605102Y-100944226D01*
X144653000Y-100953753D01*
X144653000Y-102802049D01*
X144539044Y-102824716D01*
X144350686Y-102902737D01*
X144181168Y-103016005D01*
X144037005Y-103160168D01*
X143923737Y-103329686D01*
X143845716Y-103518044D01*
X143805942Y-103718003D01*
X143805942Y-103921881D01*
X143845716Y-104121840D01*
X143923737Y-104310198D01*
X143927191Y-104315368D01*
X143862795Y-104411744D01*
X143784774Y-104600102D01*
X143745000Y-104800061D01*
X143745000Y-105003939D01*
X143784774Y-105203898D01*
X143862795Y-105392256D01*
X143874651Y-105410000D01*
X143862795Y-105427744D01*
X143784774Y-105616102D01*
X143745000Y-105816061D01*
X143745000Y-106019939D01*
X143784774Y-106219898D01*
X143862795Y-106408256D01*
X143976063Y-106577774D01*
X144120226Y-106721937D01*
X144289744Y-106835205D01*
X144478102Y-106913226D01*
X144653000Y-106948015D01*
X144653000Y-115443000D01*
X144655440Y-115467776D01*
X144662667Y-115491601D01*
X144674403Y-115513557D01*
X144697749Y-115539766D01*
X149777749Y-119857766D01*
X149777965Y-119857950D01*
X154730965Y-124048950D01*
X154751456Y-124063091D01*
X154774311Y-124072963D01*
X154809153Y-124078942D01*
X159000153Y-124205942D01*
X159004000Y-124206000D01*
X161036000Y-124206000D01*
X161036000Y-128118000D01*
X156366770Y-128118000D01*
X156379502Y-128094180D01*
X156415812Y-127974482D01*
X156428072Y-127850000D01*
X156428072Y-126150000D01*
X156415812Y-126025518D01*
X156379502Y-125905820D01*
X156320537Y-125795506D01*
X156241185Y-125698815D01*
X156144494Y-125619463D01*
X156034180Y-125560498D01*
X155914482Y-125524188D01*
X155790000Y-125511928D01*
X154090000Y-125511928D01*
X153965518Y-125524188D01*
X153845820Y-125560498D01*
X153735506Y-125619463D01*
X153638815Y-125698815D01*
X153559463Y-125795506D01*
X153500498Y-125905820D01*
X153464188Y-126025518D01*
X153451928Y-126150000D01*
X153451928Y-127850000D01*
X153464188Y-127974482D01*
X153500498Y-128094180D01*
X153513230Y-128118000D01*
X128524000Y-128118000D01*
X128524000Y-122301220D01*
X128548844Y-122361199D01*
X128749662Y-122661744D01*
X129005256Y-122917338D01*
X129305801Y-123118156D01*
X129639750Y-123256482D01*
X129994268Y-123327000D01*
X130355732Y-123327000D01*
X130710250Y-123256482D01*
X131044199Y-123118156D01*
X131344744Y-122917338D01*
X131600338Y-122661744D01*
X131739775Y-122453061D01*
X139300000Y-122453061D01*
X139300000Y-122656939D01*
X139339774Y-122856898D01*
X139417795Y-123045256D01*
X139514510Y-123190000D01*
X139417795Y-123334744D01*
X139339774Y-123523102D01*
X139300000Y-123723061D01*
X139300000Y-123926939D01*
X139339774Y-124126898D01*
X139417795Y-124315256D01*
X139514510Y-124460000D01*
X139417795Y-124604744D01*
X139339774Y-124793102D01*
X139300000Y-124993061D01*
X139300000Y-125196939D01*
X139339774Y-125396898D01*
X139417795Y-125585256D01*
X139531063Y-125754774D01*
X139675226Y-125898937D01*
X139844744Y-126012205D01*
X140033102Y-126090226D01*
X140233061Y-126130000D01*
X140436939Y-126130000D01*
X140636898Y-126090226D01*
X140825256Y-126012205D01*
X140970000Y-125915490D01*
X141114744Y-126012205D01*
X141303102Y-126090226D01*
X141503061Y-126130000D01*
X141706939Y-126130000D01*
X141906898Y-126090226D01*
X142095256Y-126012205D01*
X142240000Y-125915490D01*
X142384744Y-126012205D01*
X142573102Y-126090226D01*
X142773061Y-126130000D01*
X142976939Y-126130000D01*
X143176898Y-126090226D01*
X143365256Y-126012205D01*
X143510000Y-125915490D01*
X143654744Y-126012205D01*
X143843102Y-126090226D01*
X144043061Y-126130000D01*
X144246939Y-126130000D01*
X144446898Y-126090226D01*
X144635256Y-126012205D01*
X144804774Y-125898937D01*
X144948937Y-125754774D01*
X145062205Y-125585256D01*
X145140226Y-125396898D01*
X145180000Y-125196939D01*
X145180000Y-124993061D01*
X145140226Y-124793102D01*
X145062205Y-124604744D01*
X144965490Y-124460000D01*
X145062205Y-124315256D01*
X145140226Y-124126898D01*
X145180000Y-123926939D01*
X145180000Y-123723061D01*
X145140226Y-123523102D01*
X145062205Y-123334744D01*
X144965490Y-123190000D01*
X145062205Y-123045256D01*
X145140226Y-122856898D01*
X145180000Y-122656939D01*
X145180000Y-122453061D01*
X145140226Y-122253102D01*
X145062205Y-122064744D01*
X144965490Y-121920000D01*
X145062205Y-121775256D01*
X145140226Y-121586898D01*
X145180000Y-121386939D01*
X145180000Y-121183061D01*
X145140226Y-120983102D01*
X145062205Y-120794744D01*
X144965490Y-120650000D01*
X145062205Y-120505256D01*
X145140226Y-120316898D01*
X145180000Y-120116939D01*
X145180000Y-119913061D01*
X145140226Y-119713102D01*
X145062205Y-119524744D01*
X144948937Y-119355226D01*
X144804774Y-119211063D01*
X144635256Y-119097795D01*
X144446898Y-119019774D01*
X144246939Y-118980000D01*
X144043061Y-118980000D01*
X143843102Y-119019774D01*
X143654744Y-119097795D01*
X143510000Y-119194510D01*
X143365256Y-119097795D01*
X143176898Y-119019774D01*
X142976939Y-118980000D01*
X142773061Y-118980000D01*
X142573102Y-119019774D01*
X142384744Y-119097795D01*
X142215226Y-119211063D01*
X142071063Y-119355226D01*
X141957795Y-119524744D01*
X141879774Y-119713102D01*
X141840000Y-119913061D01*
X141840000Y-120116939D01*
X141879774Y-120316898D01*
X141957795Y-120505256D01*
X142054510Y-120650000D01*
X141957795Y-120794744D01*
X141879774Y-120983102D01*
X141840000Y-121183061D01*
X141840000Y-121386939D01*
X141873039Y-121553039D01*
X141706939Y-121520000D01*
X141503061Y-121520000D01*
X141303102Y-121559774D01*
X141114744Y-121637795D01*
X140970000Y-121734510D01*
X140825256Y-121637795D01*
X140636898Y-121559774D01*
X140436939Y-121520000D01*
X140233061Y-121520000D01*
X140033102Y-121559774D01*
X139844744Y-121637795D01*
X139675226Y-121751063D01*
X139531063Y-121895226D01*
X139417795Y-122064744D01*
X139339774Y-122253102D01*
X139300000Y-122453061D01*
X131739775Y-122453061D01*
X131801156Y-122361199D01*
X131939482Y-122027250D01*
X132010000Y-121672732D01*
X132010000Y-121311268D01*
X131939482Y-120956750D01*
X131801156Y-120622801D01*
X131600338Y-120322256D01*
X131344744Y-120066662D01*
X131077358Y-119888000D01*
X133350000Y-119888000D01*
X133374776Y-119885560D01*
X133398601Y-119878333D01*
X133420557Y-119866597D01*
X133432809Y-119857290D01*
X139747134Y-114426971D01*
X139771613Y-114424560D01*
X139795438Y-114417333D01*
X139817394Y-114405597D01*
X139836640Y-114389803D01*
X139852434Y-114370557D01*
X139864170Y-114348601D01*
X139871397Y-114324776D01*
X139873834Y-114300901D01*
X139882770Y-113040941D01*
X139995937Y-112927774D01*
X140109205Y-112758256D01*
X140187226Y-112569898D01*
X140227000Y-112369939D01*
X140227000Y-112166061D01*
X140187226Y-111966102D01*
X140109205Y-111777744D01*
X139995937Y-111608226D01*
X139952000Y-111564289D01*
X139952000Y-111447711D01*
X139995937Y-111403774D01*
X140109205Y-111234256D01*
X140187226Y-111045898D01*
X140227000Y-110845939D01*
X140227000Y-110642061D01*
X140187226Y-110442102D01*
X140109205Y-110253744D01*
X140097349Y-110236000D01*
X140109205Y-110218256D01*
X140187226Y-110029898D01*
X140227000Y-109829939D01*
X140227000Y-109626061D01*
X140187226Y-109426102D01*
X140109205Y-109237744D01*
X140097349Y-109220000D01*
X140109205Y-109202256D01*
X140187226Y-109013898D01*
X140227000Y-108813939D01*
X140227000Y-108610061D01*
X140187226Y-108410102D01*
X140109205Y-108221744D01*
X140097349Y-108204000D01*
X140109205Y-108186256D01*
X140187226Y-107997898D01*
X140227000Y-107797939D01*
X140227000Y-107594061D01*
X140187226Y-107394102D01*
X140109205Y-107205744D01*
X140097349Y-107188000D01*
X140109205Y-107170256D01*
X140187226Y-106981898D01*
X140227000Y-106781939D01*
X140227000Y-106578061D01*
X140187226Y-106378102D01*
X140109205Y-106189744D01*
X140097349Y-106172000D01*
X140109205Y-106154256D01*
X140187226Y-105965898D01*
X140189000Y-105956979D01*
X140189000Y-106019939D01*
X140228774Y-106219898D01*
X140306795Y-106408256D01*
X140420063Y-106577774D01*
X140564226Y-106721937D01*
X140733744Y-106835205D01*
X140922102Y-106913226D01*
X141122061Y-106953000D01*
X141325939Y-106953000D01*
X141525898Y-106913226D01*
X141714256Y-106835205D01*
X141883774Y-106721937D01*
X142027937Y-106577774D01*
X142141205Y-106408256D01*
X142219226Y-106219898D01*
X142259000Y-106019939D01*
X142259000Y-105816061D01*
X142219226Y-105616102D01*
X142141205Y-105427744D01*
X142129349Y-105410000D01*
X142141205Y-105392256D01*
X142219226Y-105203898D01*
X142259000Y-105003939D01*
X142259000Y-104800061D01*
X142219226Y-104600102D01*
X142141205Y-104411744D01*
X142027937Y-104242226D01*
X141883774Y-104098063D01*
X141714256Y-103984795D01*
X141525898Y-103906774D01*
X141325939Y-103867000D01*
X141122061Y-103867000D01*
X140922102Y-103906774D01*
X140733744Y-103984795D01*
X140564226Y-104098063D01*
X140420063Y-104242226D01*
X140306795Y-104411744D01*
X140228774Y-104600102D01*
X140227000Y-104609021D01*
X140227000Y-104546061D01*
X140187226Y-104346102D01*
X140109205Y-104157744D01*
X140097349Y-104140000D01*
X140109205Y-104122256D01*
X140187226Y-103933898D01*
X140227000Y-103733939D01*
X140227000Y-103530061D01*
X140187226Y-103330102D01*
X140109205Y-103141744D01*
X140097349Y-103124000D01*
X140109205Y-103106256D01*
X140187226Y-102917898D01*
X140227000Y-102717939D01*
X140227000Y-102514061D01*
X140187226Y-102314102D01*
X140109205Y-102125744D01*
X140097349Y-102108000D01*
X140109205Y-102090256D01*
X140187226Y-101901898D01*
X140227000Y-101701939D01*
X140227000Y-101498061D01*
X140210525Y-101415236D01*
X140310226Y-101514937D01*
X140479744Y-101628205D01*
X140668102Y-101706226D01*
X140868061Y-101746000D01*
X141071939Y-101746000D01*
X141211737Y-101718193D01*
X141211587Y-101718945D01*
X141072226Y-101812063D01*
X140928063Y-101956226D01*
X140814795Y-102125744D01*
X140736774Y-102314102D01*
X140697000Y-102514061D01*
X140697000Y-102717939D01*
X140736774Y-102917898D01*
X140814795Y-103106256D01*
X140928063Y-103275774D01*
X141072226Y-103419937D01*
X141241744Y-103533205D01*
X141430102Y-103611226D01*
X141630061Y-103651000D01*
X141833939Y-103651000D01*
X142033898Y-103611226D01*
X142222256Y-103533205D01*
X142391774Y-103419937D01*
X142535937Y-103275774D01*
X142649205Y-103106256D01*
X142727226Y-102917898D01*
X142760413Y-102751055D01*
X142899774Y-102657937D01*
X143043937Y-102513774D01*
X143157205Y-102344256D01*
X143235226Y-102155898D01*
X143275000Y-101955939D01*
X143275000Y-101752061D01*
X143235226Y-101552102D01*
X143157205Y-101363744D01*
X143043937Y-101194226D01*
X142899774Y-101050063D01*
X142730256Y-100936795D01*
X142541898Y-100858774D01*
X142341939Y-100819000D01*
X142138061Y-100819000D01*
X141998263Y-100846807D01*
X142005000Y-100812939D01*
X142005000Y-100609061D01*
X141965226Y-100409102D01*
X141887205Y-100220744D01*
X141773937Y-100051226D01*
X141629774Y-99907063D01*
X141490413Y-99813945D01*
X141457226Y-99647102D01*
X141379205Y-99458744D01*
X141265937Y-99289226D01*
X141121774Y-99145063D01*
X140952256Y-99031795D01*
X140763898Y-98953774D01*
X140563939Y-98914000D01*
X140360061Y-98914000D01*
X140160102Y-98953774D01*
X140142905Y-98960897D01*
X140187226Y-98853898D01*
X140227000Y-98653939D01*
X140227000Y-98450061D01*
X140187226Y-98250102D01*
X140162331Y-98190000D01*
X140309939Y-98190000D01*
X140509898Y-98150226D01*
X140698256Y-98072205D01*
X140867774Y-97958937D01*
X141011937Y-97814774D01*
X141125205Y-97645256D01*
X141203226Y-97456898D01*
X141223349Y-97355730D01*
X141333256Y-97310205D01*
X141502774Y-97196937D01*
X141646937Y-97052774D01*
X141760205Y-96883256D01*
X141838226Y-96694898D01*
X141878000Y-96494939D01*
X141878000Y-96291061D01*
X141838226Y-96091102D01*
X141760205Y-95902744D01*
X141646937Y-95733226D01*
X141502774Y-95589063D01*
X141343943Y-95482936D01*
X141370000Y-95351939D01*
X141370000Y-95295795D01*
X141375774Y-95291937D01*
X141519937Y-95147774D01*
X141633205Y-94978256D01*
X141711226Y-94789898D01*
X141751000Y-94589939D01*
X141751000Y-94386061D01*
X141711226Y-94186102D01*
X141633205Y-93997744D01*
X141519937Y-93828226D01*
X141375774Y-93684063D01*
X141355574Y-93670566D01*
X141460256Y-93627205D01*
X141629774Y-93513937D01*
X141773937Y-93369774D01*
X141887205Y-93200256D01*
X141965226Y-93011898D01*
X142005000Y-92811939D01*
X142005000Y-92608061D01*
X141965226Y-92408102D01*
X141887205Y-92219744D01*
X141875349Y-92202000D01*
X141887205Y-92184256D01*
X141965226Y-91995898D01*
X142005000Y-91795939D01*
X142005000Y-91592061D01*
X141966617Y-91399094D01*
X142027937Y-91337774D01*
X142141205Y-91168256D01*
X142219226Y-90979898D01*
X142259000Y-90779939D01*
X142259000Y-90576061D01*
X142219226Y-90376102D01*
X142141205Y-90187744D01*
X142027937Y-90018226D01*
X141883774Y-89874063D01*
X141747241Y-89782835D01*
X141751000Y-89763939D01*
X141751000Y-89560061D01*
X141711226Y-89360102D01*
X141633205Y-89171744D01*
X141519937Y-89002226D01*
X141375774Y-88858063D01*
X141206256Y-88744795D01*
X141017898Y-88666774D01*
X140817939Y-88627000D01*
X140614061Y-88627000D01*
X140414102Y-88666774D01*
X140225744Y-88744795D01*
X140143335Y-88799859D01*
X140187226Y-88693898D01*
X140227000Y-88493939D01*
X140227000Y-88290061D01*
X140187226Y-88090102D01*
X140109205Y-87901744D01*
X140097349Y-87884000D01*
X140109205Y-87866256D01*
X140187226Y-87677898D01*
X140227000Y-87477939D01*
X140227000Y-87274061D01*
X140187226Y-87074102D01*
X140109205Y-86885744D01*
X140068698Y-86825121D01*
X140069904Y-86655074D01*
X140109205Y-86596256D01*
X140187226Y-86407898D01*
X140227000Y-86207939D01*
X140227000Y-86004061D01*
X140187226Y-85804102D01*
X140109205Y-85615744D01*
X140097349Y-85598000D01*
X140109205Y-85580256D01*
X140187226Y-85391898D01*
X140222015Y-85217000D01*
X144653000Y-85217000D01*
X144653000Y-90663985D01*
G37*
%TD.AperFunction*%
%TD*%
M02*
