%TF.GenerationSoftware,KiCad,Pcbnew,(5.1.9)-1*%
%TF.CreationDate,2021-11-06T22:46:36-05:00*%
%TF.ProjectId,Discrete_Channel,44697363-7265-4746-955f-4368616e6e65,rev?*%
%TF.SameCoordinates,Original*%
%TF.FileFunction,Legend,Top*%
%TF.FilePolarity,Positive*%
%FSLAX46Y46*%
G04 Gerber Fmt 4.6, Leading zero omitted, Abs format (unit mm)*
G04 Created by KiCad (PCBNEW (5.1.9)-1) date 2021-11-06 22:46:36*
%MOMM*%
%LPD*%
G01*
G04 APERTURE LIST*
%ADD10C,0.100000*%
%ADD11C,0.120000*%
%ADD12C,0.150000*%
G04 APERTURE END LIST*
D10*
G36*
X184785000Y-119380000D02*
G01*
X183515000Y-119380000D01*
X183515000Y-114300000D01*
X184785000Y-114300000D01*
X184785000Y-119380000D01*
G37*
X184785000Y-119380000D02*
X183515000Y-119380000D01*
X183515000Y-114300000D01*
X184785000Y-114300000D01*
X184785000Y-119380000D01*
G36*
X186690000Y-83820000D02*
G01*
X181610000Y-83820000D01*
X181610000Y-82550000D01*
X186690000Y-82550000D01*
X186690000Y-83820000D01*
G37*
X186690000Y-83820000D02*
X181610000Y-83820000D01*
X181610000Y-82550000D01*
X186690000Y-82550000D01*
X186690000Y-83820000D01*
G36*
X184785000Y-85725000D02*
G01*
X183515000Y-85725000D01*
X183515000Y-80645000D01*
X184785000Y-80645000D01*
X184785000Y-85725000D01*
G37*
X184785000Y-85725000D02*
X183515000Y-85725000D01*
X183515000Y-80645000D01*
X184785000Y-80645000D01*
X184785000Y-85725000D01*
D11*
X126111000Y-107442000D02*
X126619000Y-107950000D01*
X126111000Y-107950000D02*
X126619000Y-108458000D01*
X129921000Y-89281000D02*
X130429000Y-88773000D01*
X129921000Y-89281000D02*
X129921000Y-87249000D01*
X130429000Y-88265000D02*
X129921000Y-88773000D01*
X126111000Y-107442000D02*
X126111000Y-109474000D01*
%TO.C,C9*%
X141739252Y-95731000D02*
X141216748Y-95731000D01*
X141739252Y-94261000D02*
X141216748Y-94261000D01*
%TO.C,C1*%
X164866000Y-119166000D02*
G75*
G03*
X164866000Y-119166000I-6370000J0D01*
G01*
X152166000Y-119166000D02*
X164826000Y-119166000D01*
X152166000Y-119126000D02*
X164826000Y-119126000D01*
X152166000Y-119086000D02*
X164826000Y-119086000D01*
X152167000Y-119046000D02*
X164825000Y-119046000D01*
X152168000Y-119006000D02*
X164824000Y-119006000D01*
X152169000Y-118966000D02*
X164823000Y-118966000D01*
X152170000Y-118926000D02*
X164822000Y-118926000D01*
X152172000Y-118886000D02*
X164820000Y-118886000D01*
X152174000Y-118846000D02*
X164818000Y-118846000D01*
X152176000Y-118806000D02*
X164816000Y-118806000D01*
X152178000Y-118766000D02*
X164814000Y-118766000D01*
X152181000Y-118726000D02*
X164811000Y-118726000D01*
X152184000Y-118686000D02*
X164808000Y-118686000D01*
X152187000Y-118646000D02*
X164805000Y-118646000D01*
X152190000Y-118606000D02*
X164802000Y-118606000D01*
X152194000Y-118566000D02*
X164798000Y-118566000D01*
X152198000Y-118526000D02*
X164794000Y-118526000D01*
X152202000Y-118486000D02*
X164790000Y-118486000D01*
X152206000Y-118445000D02*
X164786000Y-118445000D01*
X152211000Y-118405000D02*
X164781000Y-118405000D01*
X152216000Y-118365000D02*
X164776000Y-118365000D01*
X152221000Y-118325000D02*
X164771000Y-118325000D01*
X152227000Y-118285000D02*
X164765000Y-118285000D01*
X152232000Y-118245000D02*
X164760000Y-118245000D01*
X152238000Y-118205000D02*
X164754000Y-118205000D01*
X152244000Y-118165000D02*
X164748000Y-118165000D01*
X152251000Y-118125000D02*
X164741000Y-118125000D01*
X152258000Y-118085000D02*
X157056000Y-118085000D01*
X159936000Y-118085000D02*
X164734000Y-118085000D01*
X152265000Y-118045000D02*
X157056000Y-118045000D01*
X159936000Y-118045000D02*
X164727000Y-118045000D01*
X152272000Y-118005000D02*
X157056000Y-118005000D01*
X159936000Y-118005000D02*
X164720000Y-118005000D01*
X152280000Y-117965000D02*
X157056000Y-117965000D01*
X159936000Y-117965000D02*
X164712000Y-117965000D01*
X152287000Y-117925000D02*
X157056000Y-117925000D01*
X159936000Y-117925000D02*
X164705000Y-117925000D01*
X152295000Y-117885000D02*
X157056000Y-117885000D01*
X159936000Y-117885000D02*
X164697000Y-117885000D01*
X152304000Y-117845000D02*
X157056000Y-117845000D01*
X159936000Y-117845000D02*
X164688000Y-117845000D01*
X152312000Y-117805000D02*
X157056000Y-117805000D01*
X159936000Y-117805000D02*
X164680000Y-117805000D01*
X152321000Y-117765000D02*
X157056000Y-117765000D01*
X159936000Y-117765000D02*
X164671000Y-117765000D01*
X152330000Y-117725000D02*
X157056000Y-117725000D01*
X159936000Y-117725000D02*
X164662000Y-117725000D01*
X152340000Y-117685000D02*
X157056000Y-117685000D01*
X159936000Y-117685000D02*
X164652000Y-117685000D01*
X152350000Y-117645000D02*
X157056000Y-117645000D01*
X159936000Y-117645000D02*
X164642000Y-117645000D01*
X152359000Y-117605000D02*
X157056000Y-117605000D01*
X159936000Y-117605000D02*
X164633000Y-117605000D01*
X152370000Y-117565000D02*
X157056000Y-117565000D01*
X159936000Y-117565000D02*
X164622000Y-117565000D01*
X152380000Y-117525000D02*
X157056000Y-117525000D01*
X159936000Y-117525000D02*
X164612000Y-117525000D01*
X152391000Y-117485000D02*
X157056000Y-117485000D01*
X159936000Y-117485000D02*
X164601000Y-117485000D01*
X152402000Y-117445000D02*
X157056000Y-117445000D01*
X159936000Y-117445000D02*
X164590000Y-117445000D01*
X152413000Y-117405000D02*
X157056000Y-117405000D01*
X159936000Y-117405000D02*
X164579000Y-117405000D01*
X152425000Y-117365000D02*
X157056000Y-117365000D01*
X159936000Y-117365000D02*
X164567000Y-117365000D01*
X152437000Y-117325000D02*
X157056000Y-117325000D01*
X159936000Y-117325000D02*
X164555000Y-117325000D01*
X152449000Y-117285000D02*
X157056000Y-117285000D01*
X159936000Y-117285000D02*
X164543000Y-117285000D01*
X152462000Y-117245000D02*
X157056000Y-117245000D01*
X159936000Y-117245000D02*
X164530000Y-117245000D01*
X152475000Y-117205000D02*
X157056000Y-117205000D01*
X159936000Y-117205000D02*
X164517000Y-117205000D01*
X152488000Y-117165000D02*
X157056000Y-117165000D01*
X159936000Y-117165000D02*
X164504000Y-117165000D01*
X152501000Y-117125000D02*
X157056000Y-117125000D01*
X159936000Y-117125000D02*
X164491000Y-117125000D01*
X152515000Y-117085000D02*
X157056000Y-117085000D01*
X159936000Y-117085000D02*
X164477000Y-117085000D01*
X152529000Y-117045000D02*
X157056000Y-117045000D01*
X159936000Y-117045000D02*
X164463000Y-117045000D01*
X152543000Y-117005000D02*
X157056000Y-117005000D01*
X159936000Y-117005000D02*
X164449000Y-117005000D01*
X152557000Y-116965000D02*
X157056000Y-116965000D01*
X159936000Y-116965000D02*
X164435000Y-116965000D01*
X152572000Y-116925000D02*
X157056000Y-116925000D01*
X159936000Y-116925000D02*
X164420000Y-116925000D01*
X152588000Y-116885000D02*
X157056000Y-116885000D01*
X159936000Y-116885000D02*
X164404000Y-116885000D01*
X152603000Y-116845000D02*
X157056000Y-116845000D01*
X159936000Y-116845000D02*
X164389000Y-116845000D01*
X152619000Y-116805000D02*
X157056000Y-116805000D01*
X159936000Y-116805000D02*
X164373000Y-116805000D01*
X152635000Y-116765000D02*
X157056000Y-116765000D01*
X159936000Y-116765000D02*
X164357000Y-116765000D01*
X152651000Y-116725000D02*
X157056000Y-116725000D01*
X159936000Y-116725000D02*
X164341000Y-116725000D01*
X152668000Y-116685000D02*
X157056000Y-116685000D01*
X159936000Y-116685000D02*
X164324000Y-116685000D01*
X152685000Y-116645000D02*
X157056000Y-116645000D01*
X159936000Y-116645000D02*
X164307000Y-116645000D01*
X152703000Y-116605000D02*
X157056000Y-116605000D01*
X159936000Y-116605000D02*
X164289000Y-116605000D01*
X152720000Y-116565000D02*
X157056000Y-116565000D01*
X159936000Y-116565000D02*
X164272000Y-116565000D01*
X152738000Y-116525000D02*
X157056000Y-116525000D01*
X159936000Y-116525000D02*
X164254000Y-116525000D01*
X152757000Y-116485000D02*
X157056000Y-116485000D01*
X159936000Y-116485000D02*
X164235000Y-116485000D01*
X152775000Y-116445000D02*
X157056000Y-116445000D01*
X159936000Y-116445000D02*
X164217000Y-116445000D01*
X152794000Y-116405000D02*
X157056000Y-116405000D01*
X159936000Y-116405000D02*
X164198000Y-116405000D01*
X152814000Y-116365000D02*
X157056000Y-116365000D01*
X159936000Y-116365000D02*
X164178000Y-116365000D01*
X152834000Y-116325000D02*
X157056000Y-116325000D01*
X159936000Y-116325000D02*
X164158000Y-116325000D01*
X152854000Y-116285000D02*
X157056000Y-116285000D01*
X159936000Y-116285000D02*
X164138000Y-116285000D01*
X152874000Y-116245000D02*
X157056000Y-116245000D01*
X159936000Y-116245000D02*
X164118000Y-116245000D01*
X152895000Y-116205000D02*
X157056000Y-116205000D01*
X159936000Y-116205000D02*
X164097000Y-116205000D01*
X152916000Y-116165000D02*
X157056000Y-116165000D01*
X159936000Y-116165000D02*
X164076000Y-116165000D01*
X152938000Y-116125000D02*
X157056000Y-116125000D01*
X159936000Y-116125000D02*
X164054000Y-116125000D01*
X152960000Y-116085000D02*
X157056000Y-116085000D01*
X159936000Y-116085000D02*
X164032000Y-116085000D01*
X152982000Y-116045000D02*
X157056000Y-116045000D01*
X159936000Y-116045000D02*
X164010000Y-116045000D01*
X153005000Y-116005000D02*
X157056000Y-116005000D01*
X159936000Y-116005000D02*
X163987000Y-116005000D01*
X153028000Y-115965000D02*
X157056000Y-115965000D01*
X159936000Y-115965000D02*
X163964000Y-115965000D01*
X153051000Y-115925000D02*
X157056000Y-115925000D01*
X159936000Y-115925000D02*
X163941000Y-115925000D01*
X153075000Y-115885000D02*
X157056000Y-115885000D01*
X159936000Y-115885000D02*
X163917000Y-115885000D01*
X153099000Y-115845000D02*
X157056000Y-115845000D01*
X159936000Y-115845000D02*
X163893000Y-115845000D01*
X153124000Y-115805000D02*
X157056000Y-115805000D01*
X159936000Y-115805000D02*
X163868000Y-115805000D01*
X153149000Y-115765000D02*
X157056000Y-115765000D01*
X159936000Y-115765000D02*
X163843000Y-115765000D01*
X153174000Y-115725000D02*
X157056000Y-115725000D01*
X159936000Y-115725000D02*
X163818000Y-115725000D01*
X153200000Y-115685000D02*
X157056000Y-115685000D01*
X159936000Y-115685000D02*
X163792000Y-115685000D01*
X153226000Y-115645000D02*
X157056000Y-115645000D01*
X159936000Y-115645000D02*
X163766000Y-115645000D01*
X153253000Y-115605000D02*
X157056000Y-115605000D01*
X159936000Y-115605000D02*
X163739000Y-115605000D01*
X153280000Y-115565000D02*
X157056000Y-115565000D01*
X159936000Y-115565000D02*
X163712000Y-115565000D01*
X153308000Y-115525000D02*
X157056000Y-115525000D01*
X159936000Y-115525000D02*
X163684000Y-115525000D01*
X153336000Y-115485000D02*
X157056000Y-115485000D01*
X159936000Y-115485000D02*
X163656000Y-115485000D01*
X153365000Y-115445000D02*
X157056000Y-115445000D01*
X159936000Y-115445000D02*
X163627000Y-115445000D01*
X153394000Y-115405000D02*
X157056000Y-115405000D01*
X159936000Y-115405000D02*
X163598000Y-115405000D01*
X153423000Y-115365000D02*
X157056000Y-115365000D01*
X159936000Y-115365000D02*
X163569000Y-115365000D01*
X153453000Y-115325000D02*
X157056000Y-115325000D01*
X159936000Y-115325000D02*
X163539000Y-115325000D01*
X153484000Y-115285000D02*
X157056000Y-115285000D01*
X159936000Y-115285000D02*
X163508000Y-115285000D01*
X153514000Y-115245000D02*
X157056000Y-115245000D01*
X159936000Y-115245000D02*
X163478000Y-115245000D01*
X153546000Y-115205000D02*
X163446000Y-115205000D01*
X153578000Y-115165000D02*
X163414000Y-115165000D01*
X153611000Y-115125000D02*
X163381000Y-115125000D01*
X153644000Y-115085000D02*
X163348000Y-115085000D01*
X153677000Y-115045000D02*
X163315000Y-115045000D01*
X153711000Y-115005000D02*
X163281000Y-115005000D01*
X153746000Y-114965000D02*
X163246000Y-114965000D01*
X153782000Y-114925000D02*
X163210000Y-114925000D01*
X153818000Y-114885000D02*
X163174000Y-114885000D01*
X153854000Y-114845000D02*
X163138000Y-114845000D01*
X153891000Y-114805000D02*
X163101000Y-114805000D01*
X153929000Y-114765000D02*
X163063000Y-114765000D01*
X153968000Y-114725000D02*
X163024000Y-114725000D01*
X154007000Y-114685000D02*
X162985000Y-114685000D01*
X154047000Y-114645000D02*
X162945000Y-114645000D01*
X154088000Y-114605000D02*
X162904000Y-114605000D01*
X154129000Y-114565000D02*
X162863000Y-114565000D01*
X154171000Y-114525000D02*
X162821000Y-114525000D01*
X154214000Y-114485000D02*
X162778000Y-114485000D01*
X154258000Y-114445000D02*
X162734000Y-114445000D01*
X154302000Y-114405000D02*
X162690000Y-114405000D01*
X154348000Y-114365000D02*
X162644000Y-114365000D01*
X154394000Y-114325000D02*
X162598000Y-114325000D01*
X154441000Y-114285000D02*
X162551000Y-114285000D01*
X154489000Y-114245000D02*
X162503000Y-114245000D01*
X154539000Y-114205000D02*
X162453000Y-114205000D01*
X154589000Y-114165000D02*
X162403000Y-114165000D01*
X154640000Y-114125000D02*
X162352000Y-114125000D01*
X154692000Y-114085000D02*
X162300000Y-114085000D01*
X154746000Y-114045000D02*
X162246000Y-114045000D01*
X154800000Y-114005000D02*
X162192000Y-114005000D01*
X154856000Y-113965000D02*
X162136000Y-113965000D01*
X154913000Y-113925000D02*
X162079000Y-113925000D01*
X154972000Y-113885000D02*
X162020000Y-113885000D01*
X155032000Y-113845000D02*
X161960000Y-113845000D01*
X155094000Y-113805000D02*
X161898000Y-113805000D01*
X155157000Y-113765000D02*
X161835000Y-113765000D01*
X155221000Y-113725000D02*
X161771000Y-113725000D01*
X155288000Y-113685000D02*
X161704000Y-113685000D01*
X155356000Y-113645000D02*
X161636000Y-113645000D01*
X155427000Y-113605000D02*
X161565000Y-113605000D01*
X155500000Y-113565000D02*
X161492000Y-113565000D01*
X155575000Y-113525000D02*
X161417000Y-113525000D01*
X155652000Y-113485000D02*
X161340000Y-113485000D01*
X155732000Y-113445000D02*
X161260000Y-113445000D01*
X155815000Y-113405000D02*
X161177000Y-113405000D01*
X155902000Y-113365000D02*
X161090000Y-113365000D01*
X155992000Y-113325000D02*
X161000000Y-113325000D01*
X156086000Y-113285000D02*
X160906000Y-113285000D01*
X156184000Y-113245000D02*
X160808000Y-113245000D01*
X156287000Y-113205000D02*
X160705000Y-113205000D01*
X156396000Y-113165000D02*
X160596000Y-113165000D01*
X156512000Y-113125000D02*
X160480000Y-113125000D01*
X156635000Y-113085000D02*
X160357000Y-113085000D01*
X156768000Y-113045000D02*
X160224000Y-113045000D01*
X156913000Y-113005000D02*
X160079000Y-113005000D01*
X157074000Y-112965000D02*
X159918000Y-112965000D01*
X157255000Y-112925000D02*
X159737000Y-112925000D01*
X157468000Y-112885000D02*
X159524000Y-112885000D01*
X157739000Y-112845000D02*
X159253000Y-112845000D01*
X158179000Y-112805000D02*
X158813000Y-112805000D01*
X154921000Y-125983082D02*
X154921000Y-124733082D01*
X154296000Y-125358082D02*
X155546000Y-125358082D01*
%TO.C,C31*%
X175716000Y-99758000D02*
X175716000Y-109791000D01*
X182193000Y-109791000D02*
X182193000Y-99758000D01*
%TO.C,C30*%
X175716000Y-84010000D02*
X175716000Y-94043000D01*
X182193000Y-94043000D02*
X182193000Y-84010000D01*
%TO.C,C2*%
X169282000Y-125612082D02*
X170532000Y-125612082D01*
X169907000Y-126237082D02*
X169907000Y-124987082D01*
X173165000Y-113059000D02*
X173799000Y-113059000D01*
X172725000Y-113099000D02*
X174239000Y-113099000D01*
X172454000Y-113139000D02*
X174510000Y-113139000D01*
X172241000Y-113179000D02*
X174723000Y-113179000D01*
X172060000Y-113219000D02*
X174904000Y-113219000D01*
X171899000Y-113259000D02*
X175065000Y-113259000D01*
X171754000Y-113299000D02*
X175210000Y-113299000D01*
X171621000Y-113339000D02*
X175343000Y-113339000D01*
X171498000Y-113379000D02*
X175466000Y-113379000D01*
X171382000Y-113419000D02*
X175582000Y-113419000D01*
X171273000Y-113459000D02*
X175691000Y-113459000D01*
X171170000Y-113499000D02*
X175794000Y-113499000D01*
X171072000Y-113539000D02*
X175892000Y-113539000D01*
X170978000Y-113579000D02*
X175986000Y-113579000D01*
X170888000Y-113619000D02*
X176076000Y-113619000D01*
X170801000Y-113659000D02*
X176163000Y-113659000D01*
X170718000Y-113699000D02*
X176246000Y-113699000D01*
X170638000Y-113739000D02*
X176326000Y-113739000D01*
X170561000Y-113779000D02*
X176403000Y-113779000D01*
X170486000Y-113819000D02*
X176478000Y-113819000D01*
X170413000Y-113859000D02*
X176551000Y-113859000D01*
X170342000Y-113899000D02*
X176622000Y-113899000D01*
X170274000Y-113939000D02*
X176690000Y-113939000D01*
X170207000Y-113979000D02*
X176757000Y-113979000D01*
X170143000Y-114019000D02*
X176821000Y-114019000D01*
X170080000Y-114059000D02*
X176884000Y-114059000D01*
X170018000Y-114099000D02*
X176946000Y-114099000D01*
X169958000Y-114139000D02*
X177006000Y-114139000D01*
X169899000Y-114179000D02*
X177065000Y-114179000D01*
X169842000Y-114219000D02*
X177122000Y-114219000D01*
X169786000Y-114259000D02*
X177178000Y-114259000D01*
X169732000Y-114299000D02*
X177232000Y-114299000D01*
X169678000Y-114339000D02*
X177286000Y-114339000D01*
X169626000Y-114379000D02*
X177338000Y-114379000D01*
X169575000Y-114419000D02*
X177389000Y-114419000D01*
X169525000Y-114459000D02*
X177439000Y-114459000D01*
X169475000Y-114499000D02*
X177489000Y-114499000D01*
X169427000Y-114539000D02*
X177537000Y-114539000D01*
X169380000Y-114579000D02*
X177584000Y-114579000D01*
X169334000Y-114619000D02*
X177630000Y-114619000D01*
X169288000Y-114659000D02*
X177676000Y-114659000D01*
X169244000Y-114699000D02*
X177720000Y-114699000D01*
X169200000Y-114739000D02*
X177764000Y-114739000D01*
X169157000Y-114779000D02*
X177807000Y-114779000D01*
X169115000Y-114819000D02*
X177849000Y-114819000D01*
X169074000Y-114859000D02*
X177890000Y-114859000D01*
X169033000Y-114899000D02*
X177931000Y-114899000D01*
X168993000Y-114939000D02*
X177971000Y-114939000D01*
X168954000Y-114979000D02*
X178010000Y-114979000D01*
X168915000Y-115019000D02*
X178049000Y-115019000D01*
X168877000Y-115059000D02*
X178087000Y-115059000D01*
X168840000Y-115099000D02*
X178124000Y-115099000D01*
X168804000Y-115139000D02*
X178160000Y-115139000D01*
X168768000Y-115179000D02*
X178196000Y-115179000D01*
X168732000Y-115219000D02*
X178232000Y-115219000D01*
X168697000Y-115259000D02*
X178267000Y-115259000D01*
X168663000Y-115299000D02*
X178301000Y-115299000D01*
X168630000Y-115339000D02*
X178334000Y-115339000D01*
X168597000Y-115379000D02*
X178367000Y-115379000D01*
X168564000Y-115419000D02*
X178400000Y-115419000D01*
X168532000Y-115459000D02*
X178432000Y-115459000D01*
X174922000Y-115499000D02*
X178464000Y-115499000D01*
X168500000Y-115499000D02*
X172042000Y-115499000D01*
X174922000Y-115539000D02*
X178494000Y-115539000D01*
X168470000Y-115539000D02*
X172042000Y-115539000D01*
X174922000Y-115579000D02*
X178525000Y-115579000D01*
X168439000Y-115579000D02*
X172042000Y-115579000D01*
X174922000Y-115619000D02*
X178555000Y-115619000D01*
X168409000Y-115619000D02*
X172042000Y-115619000D01*
X174922000Y-115659000D02*
X178584000Y-115659000D01*
X168380000Y-115659000D02*
X172042000Y-115659000D01*
X174922000Y-115699000D02*
X178613000Y-115699000D01*
X168351000Y-115699000D02*
X172042000Y-115699000D01*
X174922000Y-115739000D02*
X178642000Y-115739000D01*
X168322000Y-115739000D02*
X172042000Y-115739000D01*
X174922000Y-115779000D02*
X178670000Y-115779000D01*
X168294000Y-115779000D02*
X172042000Y-115779000D01*
X174922000Y-115819000D02*
X178698000Y-115819000D01*
X168266000Y-115819000D02*
X172042000Y-115819000D01*
X174922000Y-115859000D02*
X178725000Y-115859000D01*
X168239000Y-115859000D02*
X172042000Y-115859000D01*
X174922000Y-115899000D02*
X178752000Y-115899000D01*
X168212000Y-115899000D02*
X172042000Y-115899000D01*
X174922000Y-115939000D02*
X178778000Y-115939000D01*
X168186000Y-115939000D02*
X172042000Y-115939000D01*
X174922000Y-115979000D02*
X178804000Y-115979000D01*
X168160000Y-115979000D02*
X172042000Y-115979000D01*
X174922000Y-116019000D02*
X178829000Y-116019000D01*
X168135000Y-116019000D02*
X172042000Y-116019000D01*
X174922000Y-116059000D02*
X178854000Y-116059000D01*
X168110000Y-116059000D02*
X172042000Y-116059000D01*
X174922000Y-116099000D02*
X178879000Y-116099000D01*
X168085000Y-116099000D02*
X172042000Y-116099000D01*
X174922000Y-116139000D02*
X178903000Y-116139000D01*
X168061000Y-116139000D02*
X172042000Y-116139000D01*
X174922000Y-116179000D02*
X178927000Y-116179000D01*
X168037000Y-116179000D02*
X172042000Y-116179000D01*
X174922000Y-116219000D02*
X178950000Y-116219000D01*
X168014000Y-116219000D02*
X172042000Y-116219000D01*
X174922000Y-116259000D02*
X178973000Y-116259000D01*
X167991000Y-116259000D02*
X172042000Y-116259000D01*
X174922000Y-116299000D02*
X178996000Y-116299000D01*
X167968000Y-116299000D02*
X172042000Y-116299000D01*
X174922000Y-116339000D02*
X179018000Y-116339000D01*
X167946000Y-116339000D02*
X172042000Y-116339000D01*
X174922000Y-116379000D02*
X179040000Y-116379000D01*
X167924000Y-116379000D02*
X172042000Y-116379000D01*
X174922000Y-116419000D02*
X179062000Y-116419000D01*
X167902000Y-116419000D02*
X172042000Y-116419000D01*
X174922000Y-116459000D02*
X179083000Y-116459000D01*
X167881000Y-116459000D02*
X172042000Y-116459000D01*
X174922000Y-116499000D02*
X179104000Y-116499000D01*
X167860000Y-116499000D02*
X172042000Y-116499000D01*
X174922000Y-116539000D02*
X179124000Y-116539000D01*
X167840000Y-116539000D02*
X172042000Y-116539000D01*
X174922000Y-116579000D02*
X179144000Y-116579000D01*
X167820000Y-116579000D02*
X172042000Y-116579000D01*
X174922000Y-116619000D02*
X179164000Y-116619000D01*
X167800000Y-116619000D02*
X172042000Y-116619000D01*
X174922000Y-116659000D02*
X179184000Y-116659000D01*
X167780000Y-116659000D02*
X172042000Y-116659000D01*
X174922000Y-116699000D02*
X179203000Y-116699000D01*
X167761000Y-116699000D02*
X172042000Y-116699000D01*
X174922000Y-116739000D02*
X179221000Y-116739000D01*
X167743000Y-116739000D02*
X172042000Y-116739000D01*
X174922000Y-116779000D02*
X179240000Y-116779000D01*
X167724000Y-116779000D02*
X172042000Y-116779000D01*
X174922000Y-116819000D02*
X179258000Y-116819000D01*
X167706000Y-116819000D02*
X172042000Y-116819000D01*
X174922000Y-116859000D02*
X179275000Y-116859000D01*
X167689000Y-116859000D02*
X172042000Y-116859000D01*
X174922000Y-116899000D02*
X179293000Y-116899000D01*
X167671000Y-116899000D02*
X172042000Y-116899000D01*
X174922000Y-116939000D02*
X179310000Y-116939000D01*
X167654000Y-116939000D02*
X172042000Y-116939000D01*
X174922000Y-116979000D02*
X179327000Y-116979000D01*
X167637000Y-116979000D02*
X172042000Y-116979000D01*
X174922000Y-117019000D02*
X179343000Y-117019000D01*
X167621000Y-117019000D02*
X172042000Y-117019000D01*
X174922000Y-117059000D02*
X179359000Y-117059000D01*
X167605000Y-117059000D02*
X172042000Y-117059000D01*
X174922000Y-117099000D02*
X179375000Y-117099000D01*
X167589000Y-117099000D02*
X172042000Y-117099000D01*
X174922000Y-117139000D02*
X179390000Y-117139000D01*
X167574000Y-117139000D02*
X172042000Y-117139000D01*
X174922000Y-117179000D02*
X179406000Y-117179000D01*
X167558000Y-117179000D02*
X172042000Y-117179000D01*
X174922000Y-117219000D02*
X179421000Y-117219000D01*
X167543000Y-117219000D02*
X172042000Y-117219000D01*
X174922000Y-117259000D02*
X179435000Y-117259000D01*
X167529000Y-117259000D02*
X172042000Y-117259000D01*
X174922000Y-117299000D02*
X179449000Y-117299000D01*
X167515000Y-117299000D02*
X172042000Y-117299000D01*
X174922000Y-117339000D02*
X179463000Y-117339000D01*
X167501000Y-117339000D02*
X172042000Y-117339000D01*
X174922000Y-117379000D02*
X179477000Y-117379000D01*
X167487000Y-117379000D02*
X172042000Y-117379000D01*
X174922000Y-117419000D02*
X179490000Y-117419000D01*
X167474000Y-117419000D02*
X172042000Y-117419000D01*
X174922000Y-117459000D02*
X179503000Y-117459000D01*
X167461000Y-117459000D02*
X172042000Y-117459000D01*
X174922000Y-117499000D02*
X179516000Y-117499000D01*
X167448000Y-117499000D02*
X172042000Y-117499000D01*
X174922000Y-117539000D02*
X179529000Y-117539000D01*
X167435000Y-117539000D02*
X172042000Y-117539000D01*
X174922000Y-117579000D02*
X179541000Y-117579000D01*
X167423000Y-117579000D02*
X172042000Y-117579000D01*
X174922000Y-117619000D02*
X179553000Y-117619000D01*
X167411000Y-117619000D02*
X172042000Y-117619000D01*
X174922000Y-117659000D02*
X179565000Y-117659000D01*
X167399000Y-117659000D02*
X172042000Y-117659000D01*
X174922000Y-117699000D02*
X179576000Y-117699000D01*
X167388000Y-117699000D02*
X172042000Y-117699000D01*
X174922000Y-117739000D02*
X179587000Y-117739000D01*
X167377000Y-117739000D02*
X172042000Y-117739000D01*
X174922000Y-117779000D02*
X179598000Y-117779000D01*
X167366000Y-117779000D02*
X172042000Y-117779000D01*
X174922000Y-117819000D02*
X179608000Y-117819000D01*
X167356000Y-117819000D02*
X172042000Y-117819000D01*
X174922000Y-117859000D02*
X179619000Y-117859000D01*
X167345000Y-117859000D02*
X172042000Y-117859000D01*
X174922000Y-117899000D02*
X179628000Y-117899000D01*
X167336000Y-117899000D02*
X172042000Y-117899000D01*
X174922000Y-117939000D02*
X179638000Y-117939000D01*
X167326000Y-117939000D02*
X172042000Y-117939000D01*
X174922000Y-117979000D02*
X179648000Y-117979000D01*
X167316000Y-117979000D02*
X172042000Y-117979000D01*
X174922000Y-118019000D02*
X179657000Y-118019000D01*
X167307000Y-118019000D02*
X172042000Y-118019000D01*
X174922000Y-118059000D02*
X179666000Y-118059000D01*
X167298000Y-118059000D02*
X172042000Y-118059000D01*
X174922000Y-118099000D02*
X179674000Y-118099000D01*
X167290000Y-118099000D02*
X172042000Y-118099000D01*
X174922000Y-118139000D02*
X179683000Y-118139000D01*
X167281000Y-118139000D02*
X172042000Y-118139000D01*
X174922000Y-118179000D02*
X179691000Y-118179000D01*
X167273000Y-118179000D02*
X172042000Y-118179000D01*
X174922000Y-118219000D02*
X179698000Y-118219000D01*
X167266000Y-118219000D02*
X172042000Y-118219000D01*
X174922000Y-118259000D02*
X179706000Y-118259000D01*
X167258000Y-118259000D02*
X172042000Y-118259000D01*
X174922000Y-118299000D02*
X179713000Y-118299000D01*
X167251000Y-118299000D02*
X172042000Y-118299000D01*
X174922000Y-118339000D02*
X179720000Y-118339000D01*
X167244000Y-118339000D02*
X172042000Y-118339000D01*
X167237000Y-118379000D02*
X179727000Y-118379000D01*
X167230000Y-118419000D02*
X179734000Y-118419000D01*
X167224000Y-118459000D02*
X179740000Y-118459000D01*
X167218000Y-118499000D02*
X179746000Y-118499000D01*
X167213000Y-118539000D02*
X179751000Y-118539000D01*
X167207000Y-118579000D02*
X179757000Y-118579000D01*
X167202000Y-118619000D02*
X179762000Y-118619000D01*
X167197000Y-118659000D02*
X179767000Y-118659000D01*
X167192000Y-118699000D02*
X179772000Y-118699000D01*
X167188000Y-118740000D02*
X179776000Y-118740000D01*
X167184000Y-118780000D02*
X179780000Y-118780000D01*
X167180000Y-118820000D02*
X179784000Y-118820000D01*
X167176000Y-118860000D02*
X179788000Y-118860000D01*
X167173000Y-118900000D02*
X179791000Y-118900000D01*
X167170000Y-118940000D02*
X179794000Y-118940000D01*
X167167000Y-118980000D02*
X179797000Y-118980000D01*
X167164000Y-119020000D02*
X179800000Y-119020000D01*
X167162000Y-119060000D02*
X179802000Y-119060000D01*
X167160000Y-119100000D02*
X179804000Y-119100000D01*
X167158000Y-119140000D02*
X179806000Y-119140000D01*
X167156000Y-119180000D02*
X179808000Y-119180000D01*
X167155000Y-119220000D02*
X179809000Y-119220000D01*
X167154000Y-119260000D02*
X179810000Y-119260000D01*
X167153000Y-119300000D02*
X179811000Y-119300000D01*
X167152000Y-119340000D02*
X179812000Y-119340000D01*
X167152000Y-119380000D02*
X179812000Y-119380000D01*
X167152000Y-119420000D02*
X179812000Y-119420000D01*
X179852000Y-119420000D02*
G75*
G03*
X179852000Y-119420000I-6370000J0D01*
G01*
%TO.C,C3*%
X155094000Y-101233248D02*
X155094000Y-101755752D01*
X156564000Y-101233248D02*
X156564000Y-101755752D01*
%TO.C,C4*%
X157380000Y-95257252D02*
X157380000Y-94734748D01*
X158850000Y-95257252D02*
X158850000Y-94734748D01*
%TO.C,C5*%
X156945000Y-95278752D02*
X156945000Y-94756248D01*
X155475000Y-95278752D02*
X155475000Y-94756248D01*
%TO.C,C6*%
X150008000Y-109169252D02*
X150008000Y-107746748D01*
X148188000Y-109169252D02*
X148188000Y-107746748D01*
%TO.C,C7*%
X158469000Y-101233248D02*
X158469000Y-101755752D01*
X156999000Y-101233248D02*
X156999000Y-101755752D01*
%TO.C,C8*%
X148793252Y-91080000D02*
X147370748Y-91080000D01*
X148793252Y-89260000D02*
X147370748Y-89260000D01*
%TO.C,C10*%
X128679752Y-89689000D02*
X128157248Y-89689000D01*
X128679752Y-91159000D02*
X128157248Y-91159000D01*
%TO.C,C11*%
X135374748Y-108104000D02*
X135897252Y-108104000D01*
X135374748Y-109574000D02*
X135897252Y-109574000D01*
%TO.C,C12*%
X128727252Y-93874000D02*
X127304748Y-93874000D01*
X128727252Y-92054000D02*
X127304748Y-92054000D01*
%TO.C,C13*%
X134289748Y-107209000D02*
X135712252Y-107209000D01*
X134289748Y-105389000D02*
X135712252Y-105389000D01*
%TO.C,C14*%
X141782748Y-104500000D02*
X143205252Y-104500000D01*
X141782748Y-106320000D02*
X143205252Y-106320000D01*
%TO.C,C15*%
X141782748Y-91080000D02*
X143205252Y-91080000D01*
X141782748Y-89260000D02*
X143205252Y-89260000D01*
%TO.C,C16*%
X141216748Y-97509000D02*
X141739252Y-97509000D01*
X141216748Y-96039000D02*
X141739252Y-96039000D01*
%TO.C,C17*%
X136545000Y-123992000D02*
G75*
G03*
X136545000Y-123992000I-6370000J0D01*
G01*
X123845000Y-123992000D02*
X136505000Y-123992000D01*
X123845000Y-123952000D02*
X136505000Y-123952000D01*
X123845000Y-123912000D02*
X136505000Y-123912000D01*
X123846000Y-123872000D02*
X136504000Y-123872000D01*
X123847000Y-123832000D02*
X136503000Y-123832000D01*
X123848000Y-123792000D02*
X136502000Y-123792000D01*
X123849000Y-123752000D02*
X136501000Y-123752000D01*
X123851000Y-123712000D02*
X136499000Y-123712000D01*
X123853000Y-123672000D02*
X136497000Y-123672000D01*
X123855000Y-123632000D02*
X136495000Y-123632000D01*
X123857000Y-123592000D02*
X136493000Y-123592000D01*
X123860000Y-123552000D02*
X136490000Y-123552000D01*
X123863000Y-123512000D02*
X136487000Y-123512000D01*
X123866000Y-123472000D02*
X136484000Y-123472000D01*
X123869000Y-123432000D02*
X136481000Y-123432000D01*
X123873000Y-123392000D02*
X136477000Y-123392000D01*
X123877000Y-123352000D02*
X136473000Y-123352000D01*
X123881000Y-123312000D02*
X136469000Y-123312000D01*
X123885000Y-123271000D02*
X136465000Y-123271000D01*
X123890000Y-123231000D02*
X136460000Y-123231000D01*
X123895000Y-123191000D02*
X136455000Y-123191000D01*
X123900000Y-123151000D02*
X136450000Y-123151000D01*
X123906000Y-123111000D02*
X136444000Y-123111000D01*
X123911000Y-123071000D02*
X136439000Y-123071000D01*
X123917000Y-123031000D02*
X136433000Y-123031000D01*
X123923000Y-122991000D02*
X136427000Y-122991000D01*
X123930000Y-122951000D02*
X136420000Y-122951000D01*
X123937000Y-122911000D02*
X128735000Y-122911000D01*
X131615000Y-122911000D02*
X136413000Y-122911000D01*
X123944000Y-122871000D02*
X128735000Y-122871000D01*
X131615000Y-122871000D02*
X136406000Y-122871000D01*
X123951000Y-122831000D02*
X128735000Y-122831000D01*
X131615000Y-122831000D02*
X136399000Y-122831000D01*
X123959000Y-122791000D02*
X128735000Y-122791000D01*
X131615000Y-122791000D02*
X136391000Y-122791000D01*
X123966000Y-122751000D02*
X128735000Y-122751000D01*
X131615000Y-122751000D02*
X136384000Y-122751000D01*
X123974000Y-122711000D02*
X128735000Y-122711000D01*
X131615000Y-122711000D02*
X136376000Y-122711000D01*
X123983000Y-122671000D02*
X128735000Y-122671000D01*
X131615000Y-122671000D02*
X136367000Y-122671000D01*
X123991000Y-122631000D02*
X128735000Y-122631000D01*
X131615000Y-122631000D02*
X136359000Y-122631000D01*
X124000000Y-122591000D02*
X128735000Y-122591000D01*
X131615000Y-122591000D02*
X136350000Y-122591000D01*
X124009000Y-122551000D02*
X128735000Y-122551000D01*
X131615000Y-122551000D02*
X136341000Y-122551000D01*
X124019000Y-122511000D02*
X128735000Y-122511000D01*
X131615000Y-122511000D02*
X136331000Y-122511000D01*
X124029000Y-122471000D02*
X128735000Y-122471000D01*
X131615000Y-122471000D02*
X136321000Y-122471000D01*
X124038000Y-122431000D02*
X128735000Y-122431000D01*
X131615000Y-122431000D02*
X136312000Y-122431000D01*
X124049000Y-122391000D02*
X128735000Y-122391000D01*
X131615000Y-122391000D02*
X136301000Y-122391000D01*
X124059000Y-122351000D02*
X128735000Y-122351000D01*
X131615000Y-122351000D02*
X136291000Y-122351000D01*
X124070000Y-122311000D02*
X128735000Y-122311000D01*
X131615000Y-122311000D02*
X136280000Y-122311000D01*
X124081000Y-122271000D02*
X128735000Y-122271000D01*
X131615000Y-122271000D02*
X136269000Y-122271000D01*
X124092000Y-122231000D02*
X128735000Y-122231000D01*
X131615000Y-122231000D02*
X136258000Y-122231000D01*
X124104000Y-122191000D02*
X128735000Y-122191000D01*
X131615000Y-122191000D02*
X136246000Y-122191000D01*
X124116000Y-122151000D02*
X128735000Y-122151000D01*
X131615000Y-122151000D02*
X136234000Y-122151000D01*
X124128000Y-122111000D02*
X128735000Y-122111000D01*
X131615000Y-122111000D02*
X136222000Y-122111000D01*
X124141000Y-122071000D02*
X128735000Y-122071000D01*
X131615000Y-122071000D02*
X136209000Y-122071000D01*
X124154000Y-122031000D02*
X128735000Y-122031000D01*
X131615000Y-122031000D02*
X136196000Y-122031000D01*
X124167000Y-121991000D02*
X128735000Y-121991000D01*
X131615000Y-121991000D02*
X136183000Y-121991000D01*
X124180000Y-121951000D02*
X128735000Y-121951000D01*
X131615000Y-121951000D02*
X136170000Y-121951000D01*
X124194000Y-121911000D02*
X128735000Y-121911000D01*
X131615000Y-121911000D02*
X136156000Y-121911000D01*
X124208000Y-121871000D02*
X128735000Y-121871000D01*
X131615000Y-121871000D02*
X136142000Y-121871000D01*
X124222000Y-121831000D02*
X128735000Y-121831000D01*
X131615000Y-121831000D02*
X136128000Y-121831000D01*
X124236000Y-121791000D02*
X128735000Y-121791000D01*
X131615000Y-121791000D02*
X136114000Y-121791000D01*
X124251000Y-121751000D02*
X128735000Y-121751000D01*
X131615000Y-121751000D02*
X136099000Y-121751000D01*
X124267000Y-121711000D02*
X128735000Y-121711000D01*
X131615000Y-121711000D02*
X136083000Y-121711000D01*
X124282000Y-121671000D02*
X128735000Y-121671000D01*
X131615000Y-121671000D02*
X136068000Y-121671000D01*
X124298000Y-121631000D02*
X128735000Y-121631000D01*
X131615000Y-121631000D02*
X136052000Y-121631000D01*
X124314000Y-121591000D02*
X128735000Y-121591000D01*
X131615000Y-121591000D02*
X136036000Y-121591000D01*
X124330000Y-121551000D02*
X128735000Y-121551000D01*
X131615000Y-121551000D02*
X136020000Y-121551000D01*
X124347000Y-121511000D02*
X128735000Y-121511000D01*
X131615000Y-121511000D02*
X136003000Y-121511000D01*
X124364000Y-121471000D02*
X128735000Y-121471000D01*
X131615000Y-121471000D02*
X135986000Y-121471000D01*
X124382000Y-121431000D02*
X128735000Y-121431000D01*
X131615000Y-121431000D02*
X135968000Y-121431000D01*
X124399000Y-121391000D02*
X128735000Y-121391000D01*
X131615000Y-121391000D02*
X135951000Y-121391000D01*
X124417000Y-121351000D02*
X128735000Y-121351000D01*
X131615000Y-121351000D02*
X135933000Y-121351000D01*
X124436000Y-121311000D02*
X128735000Y-121311000D01*
X131615000Y-121311000D02*
X135914000Y-121311000D01*
X124454000Y-121271000D02*
X128735000Y-121271000D01*
X131615000Y-121271000D02*
X135896000Y-121271000D01*
X124473000Y-121231000D02*
X128735000Y-121231000D01*
X131615000Y-121231000D02*
X135877000Y-121231000D01*
X124493000Y-121191000D02*
X128735000Y-121191000D01*
X131615000Y-121191000D02*
X135857000Y-121191000D01*
X124513000Y-121151000D02*
X128735000Y-121151000D01*
X131615000Y-121151000D02*
X135837000Y-121151000D01*
X124533000Y-121111000D02*
X128735000Y-121111000D01*
X131615000Y-121111000D02*
X135817000Y-121111000D01*
X124553000Y-121071000D02*
X128735000Y-121071000D01*
X131615000Y-121071000D02*
X135797000Y-121071000D01*
X124574000Y-121031000D02*
X128735000Y-121031000D01*
X131615000Y-121031000D02*
X135776000Y-121031000D01*
X124595000Y-120991000D02*
X128735000Y-120991000D01*
X131615000Y-120991000D02*
X135755000Y-120991000D01*
X124617000Y-120951000D02*
X128735000Y-120951000D01*
X131615000Y-120951000D02*
X135733000Y-120951000D01*
X124639000Y-120911000D02*
X128735000Y-120911000D01*
X131615000Y-120911000D02*
X135711000Y-120911000D01*
X124661000Y-120871000D02*
X128735000Y-120871000D01*
X131615000Y-120871000D02*
X135689000Y-120871000D01*
X124684000Y-120831000D02*
X128735000Y-120831000D01*
X131615000Y-120831000D02*
X135666000Y-120831000D01*
X124707000Y-120791000D02*
X128735000Y-120791000D01*
X131615000Y-120791000D02*
X135643000Y-120791000D01*
X124730000Y-120751000D02*
X128735000Y-120751000D01*
X131615000Y-120751000D02*
X135620000Y-120751000D01*
X124754000Y-120711000D02*
X128735000Y-120711000D01*
X131615000Y-120711000D02*
X135596000Y-120711000D01*
X124778000Y-120671000D02*
X128735000Y-120671000D01*
X131615000Y-120671000D02*
X135572000Y-120671000D01*
X124803000Y-120631000D02*
X128735000Y-120631000D01*
X131615000Y-120631000D02*
X135547000Y-120631000D01*
X124828000Y-120591000D02*
X128735000Y-120591000D01*
X131615000Y-120591000D02*
X135522000Y-120591000D01*
X124853000Y-120551000D02*
X128735000Y-120551000D01*
X131615000Y-120551000D02*
X135497000Y-120551000D01*
X124879000Y-120511000D02*
X128735000Y-120511000D01*
X131615000Y-120511000D02*
X135471000Y-120511000D01*
X124905000Y-120471000D02*
X128735000Y-120471000D01*
X131615000Y-120471000D02*
X135445000Y-120471000D01*
X124932000Y-120431000D02*
X128735000Y-120431000D01*
X131615000Y-120431000D02*
X135418000Y-120431000D01*
X124959000Y-120391000D02*
X128735000Y-120391000D01*
X131615000Y-120391000D02*
X135391000Y-120391000D01*
X124987000Y-120351000D02*
X128735000Y-120351000D01*
X131615000Y-120351000D02*
X135363000Y-120351000D01*
X125015000Y-120311000D02*
X128735000Y-120311000D01*
X131615000Y-120311000D02*
X135335000Y-120311000D01*
X125044000Y-120271000D02*
X128735000Y-120271000D01*
X131615000Y-120271000D02*
X135306000Y-120271000D01*
X125073000Y-120231000D02*
X128735000Y-120231000D01*
X131615000Y-120231000D02*
X135277000Y-120231000D01*
X125102000Y-120191000D02*
X128735000Y-120191000D01*
X131615000Y-120191000D02*
X135248000Y-120191000D01*
X125132000Y-120151000D02*
X128735000Y-120151000D01*
X131615000Y-120151000D02*
X135218000Y-120151000D01*
X125163000Y-120111000D02*
X128735000Y-120111000D01*
X131615000Y-120111000D02*
X135187000Y-120111000D01*
X125193000Y-120071000D02*
X128735000Y-120071000D01*
X131615000Y-120071000D02*
X135157000Y-120071000D01*
X125225000Y-120031000D02*
X135125000Y-120031000D01*
X125257000Y-119991000D02*
X135093000Y-119991000D01*
X125290000Y-119951000D02*
X135060000Y-119951000D01*
X125323000Y-119911000D02*
X135027000Y-119911000D01*
X125356000Y-119871000D02*
X134994000Y-119871000D01*
X125390000Y-119831000D02*
X134960000Y-119831000D01*
X125425000Y-119791000D02*
X134925000Y-119791000D01*
X125461000Y-119751000D02*
X134889000Y-119751000D01*
X125497000Y-119711000D02*
X134853000Y-119711000D01*
X125533000Y-119671000D02*
X134817000Y-119671000D01*
X125570000Y-119631000D02*
X134780000Y-119631000D01*
X125608000Y-119591000D02*
X134742000Y-119591000D01*
X125647000Y-119551000D02*
X134703000Y-119551000D01*
X125686000Y-119511000D02*
X134664000Y-119511000D01*
X125726000Y-119471000D02*
X134624000Y-119471000D01*
X125767000Y-119431000D02*
X134583000Y-119431000D01*
X125808000Y-119391000D02*
X134542000Y-119391000D01*
X125850000Y-119351000D02*
X134500000Y-119351000D01*
X125893000Y-119311000D02*
X134457000Y-119311000D01*
X125937000Y-119271000D02*
X134413000Y-119271000D01*
X125981000Y-119231000D02*
X134369000Y-119231000D01*
X126027000Y-119191000D02*
X134323000Y-119191000D01*
X126073000Y-119151000D02*
X134277000Y-119151000D01*
X126120000Y-119111000D02*
X134230000Y-119111000D01*
X126168000Y-119071000D02*
X134182000Y-119071000D01*
X126218000Y-119031000D02*
X134132000Y-119031000D01*
X126268000Y-118991000D02*
X134082000Y-118991000D01*
X126319000Y-118951000D02*
X134031000Y-118951000D01*
X126371000Y-118911000D02*
X133979000Y-118911000D01*
X126425000Y-118871000D02*
X133925000Y-118871000D01*
X126479000Y-118831000D02*
X133871000Y-118831000D01*
X126535000Y-118791000D02*
X133815000Y-118791000D01*
X126592000Y-118751000D02*
X133758000Y-118751000D01*
X126651000Y-118711000D02*
X133699000Y-118711000D01*
X126711000Y-118671000D02*
X133639000Y-118671000D01*
X126773000Y-118631000D02*
X133577000Y-118631000D01*
X126836000Y-118591000D02*
X133514000Y-118591000D01*
X126900000Y-118551000D02*
X133450000Y-118551000D01*
X126967000Y-118511000D02*
X133383000Y-118511000D01*
X127035000Y-118471000D02*
X133315000Y-118471000D01*
X127106000Y-118431000D02*
X133244000Y-118431000D01*
X127179000Y-118391000D02*
X133171000Y-118391000D01*
X127254000Y-118351000D02*
X133096000Y-118351000D01*
X127331000Y-118311000D02*
X133019000Y-118311000D01*
X127411000Y-118271000D02*
X132939000Y-118271000D01*
X127494000Y-118231000D02*
X132856000Y-118231000D01*
X127581000Y-118191000D02*
X132769000Y-118191000D01*
X127671000Y-118151000D02*
X132679000Y-118151000D01*
X127765000Y-118111000D02*
X132585000Y-118111000D01*
X127863000Y-118071000D02*
X132487000Y-118071000D01*
X127966000Y-118031000D02*
X132384000Y-118031000D01*
X128075000Y-117991000D02*
X132275000Y-117991000D01*
X128191000Y-117951000D02*
X132159000Y-117951000D01*
X128314000Y-117911000D02*
X132036000Y-117911000D01*
X128447000Y-117871000D02*
X131903000Y-117871000D01*
X128592000Y-117831000D02*
X131758000Y-117831000D01*
X128753000Y-117791000D02*
X131597000Y-117791000D01*
X128934000Y-117751000D02*
X131416000Y-117751000D01*
X129147000Y-117711000D02*
X131203000Y-117711000D01*
X129418000Y-117671000D02*
X130932000Y-117671000D01*
X129858000Y-117631000D02*
X130492000Y-117631000D01*
X126600000Y-130809082D02*
X126600000Y-129559082D01*
X125975000Y-130184082D02*
X127225000Y-130184082D01*
%TO.C,C19*%
X130182252Y-107034000D02*
X129659748Y-107034000D01*
X130182252Y-105564000D02*
X129659748Y-105564000D01*
%TO.C,C18*%
X132722252Y-92229000D02*
X132199748Y-92229000D01*
X132722252Y-93699000D02*
X132199748Y-93699000D01*
%TO.C,C22*%
X152265748Y-105945000D02*
X152788252Y-105945000D01*
X152265748Y-107415000D02*
X152788252Y-107415000D01*
%TO.C,C23*%
X156456748Y-105637000D02*
X156979252Y-105637000D01*
X156456748Y-104167000D02*
X156979252Y-104167000D01*
%TO.C,C24*%
X156202748Y-92429000D02*
X156725252Y-92429000D01*
X156202748Y-90959000D02*
X156725252Y-90959000D01*
%TO.C,C25*%
X152936752Y-90905000D02*
X152414248Y-90905000D01*
X152936752Y-89435000D02*
X152414248Y-89435000D01*
%TO.C,C26*%
X132561000Y-82557252D02*
X132561000Y-82034748D01*
X131091000Y-82557252D02*
X131091000Y-82034748D01*
%TO.C,C27*%
X128043000Y-114800748D02*
X128043000Y-115323252D01*
X129513000Y-114800748D02*
X129513000Y-115323252D01*
%TO.C,C28*%
X134612748Y-80545000D02*
X135135252Y-80545000D01*
X134612748Y-82015000D02*
X135135252Y-82015000D01*
%TO.C,C29*%
X131564748Y-116813000D02*
X132087252Y-116813000D01*
X131564748Y-115343000D02*
X132087252Y-115343000D01*
%TO.C,J1*%
X152587000Y-82737000D02*
X152587000Y-80077000D01*
X142367000Y-82737000D02*
X152587000Y-82737000D01*
X142367000Y-80077000D02*
X152587000Y-80077000D01*
X142367000Y-82737000D02*
X142367000Y-80077000D01*
X141097000Y-82737000D02*
X139767000Y-82737000D01*
X139767000Y-82737000D02*
X139767000Y-81407000D01*
%TO.C,J3*%
X122876000Y-89094000D02*
X124206000Y-89094000D01*
X122876000Y-90424000D02*
X122876000Y-89094000D01*
X122876000Y-91694000D02*
X125536000Y-91694000D01*
X125536000Y-91694000D02*
X125536000Y-101914000D01*
X122876000Y-91694000D02*
X122876000Y-101914000D01*
X122876000Y-101914000D02*
X125536000Y-101914000D01*
%TO.C,L1*%
X138988000Y-114810000D02*
X138988000Y-111810000D01*
X138988000Y-111810000D02*
X151588000Y-111810000D01*
X151588000Y-111810000D02*
X151588000Y-114810000D01*
X151588000Y-121410000D02*
X151588000Y-124410000D01*
X151588000Y-124410000D02*
X138988000Y-124410000D01*
X138988000Y-124410000D02*
X138988000Y-121410000D01*
%TO.C,L2*%
X169035000Y-84505000D02*
X172035000Y-84505000D01*
X172035000Y-84505000D02*
X172035000Y-97105000D01*
X172035000Y-97105000D02*
X169035000Y-97105000D01*
X162435000Y-97105000D02*
X159435000Y-97105000D01*
X159435000Y-97105000D02*
X159435000Y-84505000D01*
X159435000Y-84505000D02*
X162435000Y-84505000D01*
%TO.C,L4*%
X162435000Y-112345000D02*
X159435000Y-112345000D01*
X159435000Y-112345000D02*
X159435000Y-99745000D01*
X159435000Y-99745000D02*
X162435000Y-99745000D01*
X169035000Y-99745000D02*
X172035000Y-99745000D01*
X172035000Y-99745000D02*
X172035000Y-112345000D01*
X172035000Y-112345000D02*
X169035000Y-112345000D01*
%TO.C,R3*%
X141504936Y-101065000D02*
X141959064Y-101065000D01*
X141504936Y-99595000D02*
X141959064Y-99595000D01*
%TO.C,R4*%
X142774936Y-101373000D02*
X143229064Y-101373000D01*
X142774936Y-102843000D02*
X143229064Y-102843000D01*
%TO.C,R5*%
X124613936Y-104494000D02*
X125068064Y-104494000D01*
X124613936Y-103024000D02*
X125068064Y-103024000D01*
%TO.C,R6*%
X127481000Y-97816936D02*
X127481000Y-98271064D01*
X126011000Y-97816936D02*
X126011000Y-98271064D01*
%TO.C,R8*%
X125068064Y-105564000D02*
X124613936Y-105564000D01*
X125068064Y-107034000D02*
X124613936Y-107034000D01*
%TO.C,R7*%
X132233936Y-89689000D02*
X132688064Y-89689000D01*
X132233936Y-91159000D02*
X132688064Y-91159000D01*
%TO.C,R9*%
X134646936Y-82577000D02*
X135101064Y-82577000D01*
X134646936Y-84047000D02*
X135101064Y-84047000D01*
%TO.C,R10*%
X132053064Y-114781000D02*
X131598936Y-114781000D01*
X132053064Y-113311000D02*
X131598936Y-113311000D01*
%TO.C,R11*%
X129005064Y-80545000D02*
X128550936Y-80545000D01*
X129005064Y-82015000D02*
X128550936Y-82015000D01*
%TO.C,R12*%
X126211064Y-115343000D02*
X125756936Y-115343000D01*
X126211064Y-116813000D02*
X125756936Y-116813000D01*
%TO.C,U1*%
X149860000Y-105552500D02*
X152910000Y-105552500D01*
X149860000Y-105552500D02*
X146810000Y-105552500D01*
X149860000Y-91297500D02*
X152910000Y-91297500D01*
X149860000Y-91297500D02*
X145360000Y-91297500D01*
%TO.C,J2*%
X168970000Y-128330000D02*
X168970000Y-125670000D01*
X156210000Y-128330000D02*
X168970000Y-128330000D01*
X156210000Y-125670000D02*
X168970000Y-125670000D01*
X156210000Y-128330000D02*
X156210000Y-125670000D01*
X154940000Y-128330000D02*
X153610000Y-128330000D01*
X153610000Y-128330000D02*
X153610000Y-127000000D01*
%TO.C,R1*%
X146195064Y-107002000D02*
X141840936Y-107002000D01*
X146195064Y-110422000D02*
X141840936Y-110422000D01*
%TO.C,R2*%
X146195064Y-88578000D02*
X141840936Y-88578000D01*
X146195064Y-85158000D02*
X141840936Y-85158000D01*
%TO.C,U2*%
X127575000Y-100568000D02*
X127575000Y-101818000D01*
X127575000Y-101818000D02*
X137855000Y-101818000D01*
X137855000Y-101818000D02*
X137855000Y-97318000D01*
X137855000Y-97318000D02*
X127575000Y-97318000D01*
X127575000Y-97318000D02*
X127575000Y-98568000D01*
X127575000Y-98568000D02*
G75*
G02*
X127575000Y-100568000I0J-1000000D01*
G01*
%TO.C,J4*%
X197147000Y-116106000D02*
X197147000Y-86106000D01*
X186647000Y-86106000D02*
X186647000Y-116106000D01*
X186647000Y-116106000D02*
G75*
G03*
X197147000Y-116106000I5250000J0D01*
G01*
X197147000Y-86106000D02*
G75*
G03*
X186647000Y-86106000I-5250000J0D01*
G01*
%TO.C,J*%
X143259000Y-99552000D02*
X140459000Y-99552000D01*
X140459000Y-99552000D02*
X140459000Y-97552000D01*
X140459000Y-97552000D02*
X143259000Y-97552000D01*
X143259000Y-97552000D02*
X143259000Y-99552000D01*
%TO.C,C9*%
D12*
X141946333Y-93956142D02*
X141898714Y-94003761D01*
X141755857Y-94051380D01*
X141660619Y-94051380D01*
X141517761Y-94003761D01*
X141422523Y-93908523D01*
X141374904Y-93813285D01*
X141327285Y-93622809D01*
X141327285Y-93479952D01*
X141374904Y-93289476D01*
X141422523Y-93194238D01*
X141517761Y-93099000D01*
X141660619Y-93051380D01*
X141755857Y-93051380D01*
X141898714Y-93099000D01*
X141946333Y-93146619D01*
X142422523Y-94051380D02*
X142613000Y-94051380D01*
X142708238Y-94003761D01*
X142755857Y-93956142D01*
X142851095Y-93813285D01*
X142898714Y-93622809D01*
X142898714Y-93241857D01*
X142851095Y-93146619D01*
X142803476Y-93099000D01*
X142708238Y-93051380D01*
X142517761Y-93051380D01*
X142422523Y-93099000D01*
X142374904Y-93146619D01*
X142327285Y-93241857D01*
X142327285Y-93479952D01*
X142374904Y-93575190D01*
X142422523Y-93622809D01*
X142517761Y-93670428D01*
X142708238Y-93670428D01*
X142803476Y-93622809D01*
X142851095Y-93575190D01*
X142898714Y-93479952D01*
%TO.C,C1*%
X153122333Y-113895142D02*
X153074714Y-113942761D01*
X152931857Y-113990380D01*
X152836619Y-113990380D01*
X152693761Y-113942761D01*
X152598523Y-113847523D01*
X152550904Y-113752285D01*
X152503285Y-113561809D01*
X152503285Y-113418952D01*
X152550904Y-113228476D01*
X152598523Y-113133238D01*
X152693761Y-113038000D01*
X152836619Y-112990380D01*
X152931857Y-112990380D01*
X153074714Y-113038000D01*
X153122333Y-113085619D01*
X154074714Y-113990380D02*
X153503285Y-113990380D01*
X153789000Y-113990380D02*
X153789000Y-112990380D01*
X153693761Y-113133238D01*
X153598523Y-113228476D01*
X153503285Y-113276095D01*
%TO.C,C31*%
X178427142Y-99163142D02*
X178379523Y-99210761D01*
X178236666Y-99258380D01*
X178141428Y-99258380D01*
X177998571Y-99210761D01*
X177903333Y-99115523D01*
X177855714Y-99020285D01*
X177808095Y-98829809D01*
X177808095Y-98686952D01*
X177855714Y-98496476D01*
X177903333Y-98401238D01*
X177998571Y-98306000D01*
X178141428Y-98258380D01*
X178236666Y-98258380D01*
X178379523Y-98306000D01*
X178427142Y-98353619D01*
X178760476Y-98258380D02*
X179379523Y-98258380D01*
X179046190Y-98639333D01*
X179189047Y-98639333D01*
X179284285Y-98686952D01*
X179331904Y-98734571D01*
X179379523Y-98829809D01*
X179379523Y-99067904D01*
X179331904Y-99163142D01*
X179284285Y-99210761D01*
X179189047Y-99258380D01*
X178903333Y-99258380D01*
X178808095Y-99210761D01*
X178760476Y-99163142D01*
X180331904Y-99258380D02*
X179760476Y-99258380D01*
X180046190Y-99258380D02*
X180046190Y-98258380D01*
X179950952Y-98401238D01*
X179855714Y-98496476D01*
X179760476Y-98544095D01*
%TO.C,C30*%
X178427142Y-95607142D02*
X178379523Y-95654761D01*
X178236666Y-95702380D01*
X178141428Y-95702380D01*
X177998571Y-95654761D01*
X177903333Y-95559523D01*
X177855714Y-95464285D01*
X177808095Y-95273809D01*
X177808095Y-95130952D01*
X177855714Y-94940476D01*
X177903333Y-94845238D01*
X177998571Y-94750000D01*
X178141428Y-94702380D01*
X178236666Y-94702380D01*
X178379523Y-94750000D01*
X178427142Y-94797619D01*
X178760476Y-94702380D02*
X179379523Y-94702380D01*
X179046190Y-95083333D01*
X179189047Y-95083333D01*
X179284285Y-95130952D01*
X179331904Y-95178571D01*
X179379523Y-95273809D01*
X179379523Y-95511904D01*
X179331904Y-95607142D01*
X179284285Y-95654761D01*
X179189047Y-95702380D01*
X178903333Y-95702380D01*
X178808095Y-95654761D01*
X178760476Y-95607142D01*
X179998571Y-94702380D02*
X180093809Y-94702380D01*
X180189047Y-94750000D01*
X180236666Y-94797619D01*
X180284285Y-94892857D01*
X180331904Y-95083333D01*
X180331904Y-95321428D01*
X180284285Y-95511904D01*
X180236666Y-95607142D01*
X180189047Y-95654761D01*
X180093809Y-95702380D01*
X179998571Y-95702380D01*
X179903333Y-95654761D01*
X179855714Y-95607142D01*
X179808095Y-95511904D01*
X179760476Y-95321428D01*
X179760476Y-95083333D01*
X179808095Y-94892857D01*
X179855714Y-94797619D01*
X179903333Y-94750000D01*
X179998571Y-94702380D01*
%TO.C,C2*%
X168108333Y-114276142D02*
X168060714Y-114323761D01*
X167917857Y-114371380D01*
X167822619Y-114371380D01*
X167679761Y-114323761D01*
X167584523Y-114228523D01*
X167536904Y-114133285D01*
X167489285Y-113942809D01*
X167489285Y-113799952D01*
X167536904Y-113609476D01*
X167584523Y-113514238D01*
X167679761Y-113419000D01*
X167822619Y-113371380D01*
X167917857Y-113371380D01*
X168060714Y-113419000D01*
X168108333Y-113466619D01*
X168489285Y-113466619D02*
X168536904Y-113419000D01*
X168632142Y-113371380D01*
X168870238Y-113371380D01*
X168965476Y-113419000D01*
X169013095Y-113466619D01*
X169060714Y-113561857D01*
X169060714Y-113657095D01*
X169013095Y-113799952D01*
X168441666Y-114371380D01*
X169060714Y-114371380D01*
%TO.C,C3*%
X155535333Y-99417142D02*
X155487714Y-99464761D01*
X155344857Y-99512380D01*
X155249619Y-99512380D01*
X155106761Y-99464761D01*
X155011523Y-99369523D01*
X154963904Y-99274285D01*
X154916285Y-99083809D01*
X154916285Y-98940952D01*
X154963904Y-98750476D01*
X155011523Y-98655238D01*
X155106761Y-98560000D01*
X155249619Y-98512380D01*
X155344857Y-98512380D01*
X155487714Y-98560000D01*
X155535333Y-98607619D01*
X155868666Y-98512380D02*
X156487714Y-98512380D01*
X156154380Y-98893333D01*
X156297238Y-98893333D01*
X156392476Y-98940952D01*
X156440095Y-98988571D01*
X156487714Y-99083809D01*
X156487714Y-99321904D01*
X156440095Y-99417142D01*
X156392476Y-99464761D01*
X156297238Y-99512380D01*
X156011523Y-99512380D01*
X155916285Y-99464761D01*
X155868666Y-99417142D01*
%TO.C,C4*%
X157821333Y-97893142D02*
X157773714Y-97940761D01*
X157630857Y-97988380D01*
X157535619Y-97988380D01*
X157392761Y-97940761D01*
X157297523Y-97845523D01*
X157249904Y-97750285D01*
X157202285Y-97559809D01*
X157202285Y-97416952D01*
X157249904Y-97226476D01*
X157297523Y-97131238D01*
X157392761Y-97036000D01*
X157535619Y-96988380D01*
X157630857Y-96988380D01*
X157773714Y-97036000D01*
X157821333Y-97083619D01*
X158678476Y-97321714D02*
X158678476Y-97988380D01*
X158440380Y-96940761D02*
X158202285Y-97655047D01*
X158821333Y-97655047D01*
%TO.C,C5*%
X155535333Y-97893142D02*
X155487714Y-97940761D01*
X155344857Y-97988380D01*
X155249619Y-97988380D01*
X155106761Y-97940761D01*
X155011523Y-97845523D01*
X154963904Y-97750285D01*
X154916285Y-97559809D01*
X154916285Y-97416952D01*
X154963904Y-97226476D01*
X155011523Y-97131238D01*
X155106761Y-97036000D01*
X155249619Y-96988380D01*
X155344857Y-96988380D01*
X155487714Y-97036000D01*
X155535333Y-97083619D01*
X156440095Y-96988380D02*
X155963904Y-96988380D01*
X155916285Y-97464571D01*
X155963904Y-97416952D01*
X156059142Y-97369333D01*
X156297238Y-97369333D01*
X156392476Y-97416952D01*
X156440095Y-97464571D01*
X156487714Y-97559809D01*
X156487714Y-97797904D01*
X156440095Y-97893142D01*
X156392476Y-97940761D01*
X156297238Y-97988380D01*
X156059142Y-97988380D01*
X155963904Y-97940761D01*
X155916285Y-97893142D01*
%TO.C,C6*%
X150963333Y-110593142D02*
X150915714Y-110640761D01*
X150772857Y-110688380D01*
X150677619Y-110688380D01*
X150534761Y-110640761D01*
X150439523Y-110545523D01*
X150391904Y-110450285D01*
X150344285Y-110259809D01*
X150344285Y-110116952D01*
X150391904Y-109926476D01*
X150439523Y-109831238D01*
X150534761Y-109736000D01*
X150677619Y-109688380D01*
X150772857Y-109688380D01*
X150915714Y-109736000D01*
X150963333Y-109783619D01*
X151820476Y-109688380D02*
X151630000Y-109688380D01*
X151534761Y-109736000D01*
X151487142Y-109783619D01*
X151391904Y-109926476D01*
X151344285Y-110116952D01*
X151344285Y-110497904D01*
X151391904Y-110593142D01*
X151439523Y-110640761D01*
X151534761Y-110688380D01*
X151725238Y-110688380D01*
X151820476Y-110640761D01*
X151868095Y-110593142D01*
X151915714Y-110497904D01*
X151915714Y-110259809D01*
X151868095Y-110164571D01*
X151820476Y-110116952D01*
X151725238Y-110069333D01*
X151534761Y-110069333D01*
X151439523Y-110116952D01*
X151391904Y-110164571D01*
X151344285Y-110259809D01*
%TO.C,C7*%
X157821333Y-99417142D02*
X157773714Y-99464761D01*
X157630857Y-99512380D01*
X157535619Y-99512380D01*
X157392761Y-99464761D01*
X157297523Y-99369523D01*
X157249904Y-99274285D01*
X157202285Y-99083809D01*
X157202285Y-98940952D01*
X157249904Y-98750476D01*
X157297523Y-98655238D01*
X157392761Y-98560000D01*
X157535619Y-98512380D01*
X157630857Y-98512380D01*
X157773714Y-98560000D01*
X157821333Y-98607619D01*
X158154666Y-98512380D02*
X158821333Y-98512380D01*
X158392761Y-99512380D01*
%TO.C,C8*%
X148931333Y-88749142D02*
X148883714Y-88796761D01*
X148740857Y-88844380D01*
X148645619Y-88844380D01*
X148502761Y-88796761D01*
X148407523Y-88701523D01*
X148359904Y-88606285D01*
X148312285Y-88415809D01*
X148312285Y-88272952D01*
X148359904Y-88082476D01*
X148407523Y-87987238D01*
X148502761Y-87892000D01*
X148645619Y-87844380D01*
X148740857Y-87844380D01*
X148883714Y-87892000D01*
X148931333Y-87939619D01*
X149502761Y-88272952D02*
X149407523Y-88225333D01*
X149359904Y-88177714D01*
X149312285Y-88082476D01*
X149312285Y-88034857D01*
X149359904Y-87939619D01*
X149407523Y-87892000D01*
X149502761Y-87844380D01*
X149693238Y-87844380D01*
X149788476Y-87892000D01*
X149836095Y-87939619D01*
X149883714Y-88034857D01*
X149883714Y-88082476D01*
X149836095Y-88177714D01*
X149788476Y-88225333D01*
X149693238Y-88272952D01*
X149502761Y-88272952D01*
X149407523Y-88320571D01*
X149359904Y-88368190D01*
X149312285Y-88463428D01*
X149312285Y-88653904D01*
X149359904Y-88749142D01*
X149407523Y-88796761D01*
X149502761Y-88844380D01*
X149693238Y-88844380D01*
X149788476Y-88796761D01*
X149836095Y-88749142D01*
X149883714Y-88653904D01*
X149883714Y-88463428D01*
X149836095Y-88368190D01*
X149788476Y-88320571D01*
X149693238Y-88272952D01*
%TO.C,C10*%
X126341142Y-90812857D02*
X126388761Y-90860476D01*
X126436380Y-91003333D01*
X126436380Y-91098571D01*
X126388761Y-91241428D01*
X126293523Y-91336666D01*
X126198285Y-91384285D01*
X126007809Y-91431904D01*
X125864952Y-91431904D01*
X125674476Y-91384285D01*
X125579238Y-91336666D01*
X125484000Y-91241428D01*
X125436380Y-91098571D01*
X125436380Y-91003333D01*
X125484000Y-90860476D01*
X125531619Y-90812857D01*
X126436380Y-89860476D02*
X126436380Y-90431904D01*
X126436380Y-90146190D02*
X125436380Y-90146190D01*
X125579238Y-90241428D01*
X125674476Y-90336666D01*
X125722095Y-90431904D01*
X125436380Y-89241428D02*
X125436380Y-89146190D01*
X125484000Y-89050952D01*
X125531619Y-89003333D01*
X125626857Y-88955714D01*
X125817333Y-88908095D01*
X126055428Y-88908095D01*
X126245904Y-88955714D01*
X126341142Y-89003333D01*
X126388761Y-89050952D01*
X126436380Y-89146190D01*
X126436380Y-89241428D01*
X126388761Y-89336666D01*
X126341142Y-89384285D01*
X126245904Y-89431904D01*
X126055428Y-89479523D01*
X125817333Y-89479523D01*
X125626857Y-89431904D01*
X125531619Y-89384285D01*
X125484000Y-89336666D01*
X125436380Y-89241428D01*
%TO.C,C11*%
X131564142Y-109958142D02*
X131516523Y-110005761D01*
X131373666Y-110053380D01*
X131278428Y-110053380D01*
X131135571Y-110005761D01*
X131040333Y-109910523D01*
X130992714Y-109815285D01*
X130945095Y-109624809D01*
X130945095Y-109481952D01*
X130992714Y-109291476D01*
X131040333Y-109196238D01*
X131135571Y-109101000D01*
X131278428Y-109053380D01*
X131373666Y-109053380D01*
X131516523Y-109101000D01*
X131564142Y-109148619D01*
X132516523Y-110053380D02*
X131945095Y-110053380D01*
X132230809Y-110053380D02*
X132230809Y-109053380D01*
X132135571Y-109196238D01*
X132040333Y-109291476D01*
X131945095Y-109339095D01*
X133468904Y-110053380D02*
X132897476Y-110053380D01*
X133183190Y-110053380D02*
X133183190Y-109053380D01*
X133087952Y-109196238D01*
X132992714Y-109291476D01*
X132897476Y-109339095D01*
%TO.C,C12*%
X130929142Y-87987142D02*
X130881523Y-88034761D01*
X130738666Y-88082380D01*
X130643428Y-88082380D01*
X130500571Y-88034761D01*
X130405333Y-87939523D01*
X130357714Y-87844285D01*
X130310095Y-87653809D01*
X130310095Y-87510952D01*
X130357714Y-87320476D01*
X130405333Y-87225238D01*
X130500571Y-87130000D01*
X130643428Y-87082380D01*
X130738666Y-87082380D01*
X130881523Y-87130000D01*
X130929142Y-87177619D01*
X131881523Y-88082380D02*
X131310095Y-88082380D01*
X131595809Y-88082380D02*
X131595809Y-87082380D01*
X131500571Y-87225238D01*
X131405333Y-87320476D01*
X131310095Y-87368095D01*
X132262476Y-87177619D02*
X132310095Y-87130000D01*
X132405333Y-87082380D01*
X132643428Y-87082380D01*
X132738666Y-87130000D01*
X132786285Y-87177619D01*
X132833904Y-87272857D01*
X132833904Y-87368095D01*
X132786285Y-87510952D01*
X132214857Y-88082380D01*
X132833904Y-88082380D01*
%TO.C,C13*%
X131564142Y-108561142D02*
X131516523Y-108608761D01*
X131373666Y-108656380D01*
X131278428Y-108656380D01*
X131135571Y-108608761D01*
X131040333Y-108513523D01*
X130992714Y-108418285D01*
X130945095Y-108227809D01*
X130945095Y-108084952D01*
X130992714Y-107894476D01*
X131040333Y-107799238D01*
X131135571Y-107704000D01*
X131278428Y-107656380D01*
X131373666Y-107656380D01*
X131516523Y-107704000D01*
X131564142Y-107751619D01*
X132516523Y-108656380D02*
X131945095Y-108656380D01*
X132230809Y-108656380D02*
X132230809Y-107656380D01*
X132135571Y-107799238D01*
X132040333Y-107894476D01*
X131945095Y-107942095D01*
X132849857Y-107656380D02*
X133468904Y-107656380D01*
X133135571Y-108037333D01*
X133278428Y-108037333D01*
X133373666Y-108084952D01*
X133421285Y-108132571D01*
X133468904Y-108227809D01*
X133468904Y-108465904D01*
X133421285Y-108561142D01*
X133373666Y-108608761D01*
X133278428Y-108656380D01*
X132992714Y-108656380D01*
X132897476Y-108608761D01*
X132849857Y-108561142D01*
%TO.C,C14*%
X142232142Y-104116142D02*
X142184523Y-104163761D01*
X142041666Y-104211380D01*
X141946428Y-104211380D01*
X141803571Y-104163761D01*
X141708333Y-104068523D01*
X141660714Y-103973285D01*
X141613095Y-103782809D01*
X141613095Y-103639952D01*
X141660714Y-103449476D01*
X141708333Y-103354238D01*
X141803571Y-103259000D01*
X141946428Y-103211380D01*
X142041666Y-103211380D01*
X142184523Y-103259000D01*
X142232142Y-103306619D01*
X143184523Y-104211380D02*
X142613095Y-104211380D01*
X142898809Y-104211380D02*
X142898809Y-103211380D01*
X142803571Y-103354238D01*
X142708333Y-103449476D01*
X142613095Y-103497095D01*
X144041666Y-103544714D02*
X144041666Y-104211380D01*
X143803571Y-103163761D02*
X143565476Y-103878047D01*
X144184523Y-103878047D01*
%TO.C,C15*%
X142105142Y-92178142D02*
X142057523Y-92225761D01*
X141914666Y-92273380D01*
X141819428Y-92273380D01*
X141676571Y-92225761D01*
X141581333Y-92130523D01*
X141533714Y-92035285D01*
X141486095Y-91844809D01*
X141486095Y-91701952D01*
X141533714Y-91511476D01*
X141581333Y-91416238D01*
X141676571Y-91321000D01*
X141819428Y-91273380D01*
X141914666Y-91273380D01*
X142057523Y-91321000D01*
X142105142Y-91368619D01*
X143057523Y-92273380D02*
X142486095Y-92273380D01*
X142771809Y-92273380D02*
X142771809Y-91273380D01*
X142676571Y-91416238D01*
X142581333Y-91511476D01*
X142486095Y-91559095D01*
X143962285Y-91273380D02*
X143486095Y-91273380D01*
X143438476Y-91749571D01*
X143486095Y-91701952D01*
X143581333Y-91654333D01*
X143819428Y-91654333D01*
X143914666Y-91701952D01*
X143962285Y-91749571D01*
X144009904Y-91844809D01*
X144009904Y-92082904D01*
X143962285Y-92178142D01*
X143914666Y-92225761D01*
X143819428Y-92273380D01*
X143581333Y-92273380D01*
X143486095Y-92225761D01*
X143438476Y-92178142D01*
%TO.C,C16*%
X144375142Y-97416857D02*
X144422761Y-97464476D01*
X144470380Y-97607333D01*
X144470380Y-97702571D01*
X144422761Y-97845428D01*
X144327523Y-97940666D01*
X144232285Y-97988285D01*
X144041809Y-98035904D01*
X143898952Y-98035904D01*
X143708476Y-97988285D01*
X143613238Y-97940666D01*
X143518000Y-97845428D01*
X143470380Y-97702571D01*
X143470380Y-97607333D01*
X143518000Y-97464476D01*
X143565619Y-97416857D01*
X144470380Y-96464476D02*
X144470380Y-97035904D01*
X144470380Y-96750190D02*
X143470380Y-96750190D01*
X143613238Y-96845428D01*
X143708476Y-96940666D01*
X143756095Y-97035904D01*
X143470380Y-95607333D02*
X143470380Y-95797809D01*
X143518000Y-95893047D01*
X143565619Y-95940666D01*
X143708476Y-96035904D01*
X143898952Y-96083523D01*
X144279904Y-96083523D01*
X144375142Y-96035904D01*
X144422761Y-95988285D01*
X144470380Y-95893047D01*
X144470380Y-95702571D01*
X144422761Y-95607333D01*
X144375142Y-95559714D01*
X144279904Y-95512095D01*
X144041809Y-95512095D01*
X143946571Y-95559714D01*
X143898952Y-95607333D01*
X143851333Y-95702571D01*
X143851333Y-95893047D01*
X143898952Y-95988285D01*
X143946571Y-96035904D01*
X144041809Y-96083523D01*
%TO.C,C17*%
X134485142Y-118340142D02*
X134437523Y-118387761D01*
X134294666Y-118435380D01*
X134199428Y-118435380D01*
X134056571Y-118387761D01*
X133961333Y-118292523D01*
X133913714Y-118197285D01*
X133866095Y-118006809D01*
X133866095Y-117863952D01*
X133913714Y-117673476D01*
X133961333Y-117578238D01*
X134056571Y-117483000D01*
X134199428Y-117435380D01*
X134294666Y-117435380D01*
X134437523Y-117483000D01*
X134485142Y-117530619D01*
X135437523Y-118435380D02*
X134866095Y-118435380D01*
X135151809Y-118435380D02*
X135151809Y-117435380D01*
X135056571Y-117578238D01*
X134961333Y-117673476D01*
X134866095Y-117721095D01*
X135770857Y-117435380D02*
X136437523Y-117435380D01*
X136008952Y-118435380D01*
%TO.C,C19*%
X127738142Y-106941857D02*
X127785761Y-106989476D01*
X127833380Y-107132333D01*
X127833380Y-107227571D01*
X127785761Y-107370428D01*
X127690523Y-107465666D01*
X127595285Y-107513285D01*
X127404809Y-107560904D01*
X127261952Y-107560904D01*
X127071476Y-107513285D01*
X126976238Y-107465666D01*
X126881000Y-107370428D01*
X126833380Y-107227571D01*
X126833380Y-107132333D01*
X126881000Y-106989476D01*
X126928619Y-106941857D01*
X127833380Y-105989476D02*
X127833380Y-106560904D01*
X127833380Y-106275190D02*
X126833380Y-106275190D01*
X126976238Y-106370428D01*
X127071476Y-106465666D01*
X127119095Y-106560904D01*
X127833380Y-105513285D02*
X127833380Y-105322809D01*
X127785761Y-105227571D01*
X127738142Y-105179952D01*
X127595285Y-105084714D01*
X127404809Y-105037095D01*
X127023857Y-105037095D01*
X126928619Y-105084714D01*
X126881000Y-105132333D01*
X126833380Y-105227571D01*
X126833380Y-105418047D01*
X126881000Y-105513285D01*
X126928619Y-105560904D01*
X127023857Y-105608523D01*
X127261952Y-105608523D01*
X127357190Y-105560904D01*
X127404809Y-105513285D01*
X127452428Y-105418047D01*
X127452428Y-105227571D01*
X127404809Y-105132333D01*
X127357190Y-105084714D01*
X127261952Y-105037095D01*
%TO.C,C18*%
X135247142Y-93321142D02*
X135199523Y-93368761D01*
X135056666Y-93416380D01*
X134961428Y-93416380D01*
X134818571Y-93368761D01*
X134723333Y-93273523D01*
X134675714Y-93178285D01*
X134628095Y-92987809D01*
X134628095Y-92844952D01*
X134675714Y-92654476D01*
X134723333Y-92559238D01*
X134818571Y-92464000D01*
X134961428Y-92416380D01*
X135056666Y-92416380D01*
X135199523Y-92464000D01*
X135247142Y-92511619D01*
X136199523Y-93416380D02*
X135628095Y-93416380D01*
X135913809Y-93416380D02*
X135913809Y-92416380D01*
X135818571Y-92559238D01*
X135723333Y-92654476D01*
X135628095Y-92702095D01*
X136770952Y-92844952D02*
X136675714Y-92797333D01*
X136628095Y-92749714D01*
X136580476Y-92654476D01*
X136580476Y-92606857D01*
X136628095Y-92511619D01*
X136675714Y-92464000D01*
X136770952Y-92416380D01*
X136961428Y-92416380D01*
X137056666Y-92464000D01*
X137104285Y-92511619D01*
X137151904Y-92606857D01*
X137151904Y-92654476D01*
X137104285Y-92749714D01*
X137056666Y-92797333D01*
X136961428Y-92844952D01*
X136770952Y-92844952D01*
X136675714Y-92892571D01*
X136628095Y-92940190D01*
X136580476Y-93035428D01*
X136580476Y-93225904D01*
X136628095Y-93321142D01*
X136675714Y-93368761D01*
X136770952Y-93416380D01*
X136961428Y-93416380D01*
X137056666Y-93368761D01*
X137104285Y-93321142D01*
X137151904Y-93225904D01*
X137151904Y-93035428D01*
X137104285Y-92940190D01*
X137056666Y-92892571D01*
X136961428Y-92844952D01*
%TO.C,C22*%
X151884142Y-108561142D02*
X151836523Y-108608761D01*
X151693666Y-108656380D01*
X151598428Y-108656380D01*
X151455571Y-108608761D01*
X151360333Y-108513523D01*
X151312714Y-108418285D01*
X151265095Y-108227809D01*
X151265095Y-108084952D01*
X151312714Y-107894476D01*
X151360333Y-107799238D01*
X151455571Y-107704000D01*
X151598428Y-107656380D01*
X151693666Y-107656380D01*
X151836523Y-107704000D01*
X151884142Y-107751619D01*
X152265095Y-107751619D02*
X152312714Y-107704000D01*
X152407952Y-107656380D01*
X152646047Y-107656380D01*
X152741285Y-107704000D01*
X152788904Y-107751619D01*
X152836523Y-107846857D01*
X152836523Y-107942095D01*
X152788904Y-108084952D01*
X152217476Y-108656380D01*
X152836523Y-108656380D01*
X153217476Y-107751619D02*
X153265095Y-107704000D01*
X153360333Y-107656380D01*
X153598428Y-107656380D01*
X153693666Y-107704000D01*
X153741285Y-107751619D01*
X153788904Y-107846857D01*
X153788904Y-107942095D01*
X153741285Y-108084952D01*
X153169857Y-108656380D01*
X153788904Y-108656380D01*
%TO.C,C23*%
X156075142Y-106910142D02*
X156027523Y-106957761D01*
X155884666Y-107005380D01*
X155789428Y-107005380D01*
X155646571Y-106957761D01*
X155551333Y-106862523D01*
X155503714Y-106767285D01*
X155456095Y-106576809D01*
X155456095Y-106433952D01*
X155503714Y-106243476D01*
X155551333Y-106148238D01*
X155646571Y-106053000D01*
X155789428Y-106005380D01*
X155884666Y-106005380D01*
X156027523Y-106053000D01*
X156075142Y-106100619D01*
X156456095Y-106100619D02*
X156503714Y-106053000D01*
X156598952Y-106005380D01*
X156837047Y-106005380D01*
X156932285Y-106053000D01*
X156979904Y-106100619D01*
X157027523Y-106195857D01*
X157027523Y-106291095D01*
X156979904Y-106433952D01*
X156408476Y-107005380D01*
X157027523Y-107005380D01*
X157360857Y-106005380D02*
X157979904Y-106005380D01*
X157646571Y-106386333D01*
X157789428Y-106386333D01*
X157884666Y-106433952D01*
X157932285Y-106481571D01*
X157979904Y-106576809D01*
X157979904Y-106814904D01*
X157932285Y-106910142D01*
X157884666Y-106957761D01*
X157789428Y-107005380D01*
X157503714Y-107005380D01*
X157408476Y-106957761D01*
X157360857Y-106910142D01*
%TO.C,C24*%
X155821142Y-90527142D02*
X155773523Y-90574761D01*
X155630666Y-90622380D01*
X155535428Y-90622380D01*
X155392571Y-90574761D01*
X155297333Y-90479523D01*
X155249714Y-90384285D01*
X155202095Y-90193809D01*
X155202095Y-90050952D01*
X155249714Y-89860476D01*
X155297333Y-89765238D01*
X155392571Y-89670000D01*
X155535428Y-89622380D01*
X155630666Y-89622380D01*
X155773523Y-89670000D01*
X155821142Y-89717619D01*
X156202095Y-89717619D02*
X156249714Y-89670000D01*
X156344952Y-89622380D01*
X156583047Y-89622380D01*
X156678285Y-89670000D01*
X156725904Y-89717619D01*
X156773523Y-89812857D01*
X156773523Y-89908095D01*
X156725904Y-90050952D01*
X156154476Y-90622380D01*
X156773523Y-90622380D01*
X157630666Y-89955714D02*
X157630666Y-90622380D01*
X157392571Y-89574761D02*
X157154476Y-90289047D01*
X157773523Y-90289047D01*
%TO.C,C25*%
X152011142Y-89003142D02*
X151963523Y-89050761D01*
X151820666Y-89098380D01*
X151725428Y-89098380D01*
X151582571Y-89050761D01*
X151487333Y-88955523D01*
X151439714Y-88860285D01*
X151392095Y-88669809D01*
X151392095Y-88526952D01*
X151439714Y-88336476D01*
X151487333Y-88241238D01*
X151582571Y-88146000D01*
X151725428Y-88098380D01*
X151820666Y-88098380D01*
X151963523Y-88146000D01*
X152011142Y-88193619D01*
X152392095Y-88193619D02*
X152439714Y-88146000D01*
X152534952Y-88098380D01*
X152773047Y-88098380D01*
X152868285Y-88146000D01*
X152915904Y-88193619D01*
X152963523Y-88288857D01*
X152963523Y-88384095D01*
X152915904Y-88526952D01*
X152344476Y-89098380D01*
X152963523Y-89098380D01*
X153868285Y-88098380D02*
X153392095Y-88098380D01*
X153344476Y-88574571D01*
X153392095Y-88526952D01*
X153487333Y-88479333D01*
X153725428Y-88479333D01*
X153820666Y-88526952D01*
X153868285Y-88574571D01*
X153915904Y-88669809D01*
X153915904Y-88907904D01*
X153868285Y-89003142D01*
X153820666Y-89050761D01*
X153725428Y-89098380D01*
X153487333Y-89098380D01*
X153392095Y-89050761D01*
X153344476Y-89003142D01*
%TO.C,C26*%
X128643142Y-83669142D02*
X128595523Y-83716761D01*
X128452666Y-83764380D01*
X128357428Y-83764380D01*
X128214571Y-83716761D01*
X128119333Y-83621523D01*
X128071714Y-83526285D01*
X128024095Y-83335809D01*
X128024095Y-83192952D01*
X128071714Y-83002476D01*
X128119333Y-82907238D01*
X128214571Y-82812000D01*
X128357428Y-82764380D01*
X128452666Y-82764380D01*
X128595523Y-82812000D01*
X128643142Y-82859619D01*
X129024095Y-82859619D02*
X129071714Y-82812000D01*
X129166952Y-82764380D01*
X129405047Y-82764380D01*
X129500285Y-82812000D01*
X129547904Y-82859619D01*
X129595523Y-82954857D01*
X129595523Y-83050095D01*
X129547904Y-83192952D01*
X128976476Y-83764380D01*
X129595523Y-83764380D01*
X130452666Y-82764380D02*
X130262190Y-82764380D01*
X130166952Y-82812000D01*
X130119333Y-82859619D01*
X130024095Y-83002476D01*
X129976476Y-83192952D01*
X129976476Y-83573904D01*
X130024095Y-83669142D01*
X130071714Y-83716761D01*
X130166952Y-83764380D01*
X130357428Y-83764380D01*
X130452666Y-83716761D01*
X130500285Y-83669142D01*
X130547904Y-83573904D01*
X130547904Y-83335809D01*
X130500285Y-83240571D01*
X130452666Y-83192952D01*
X130357428Y-83145333D01*
X130166952Y-83145333D01*
X130071714Y-83192952D01*
X130024095Y-83240571D01*
X129976476Y-83335809D01*
%TO.C,C27*%
X125595142Y-114403142D02*
X125547523Y-114450761D01*
X125404666Y-114498380D01*
X125309428Y-114498380D01*
X125166571Y-114450761D01*
X125071333Y-114355523D01*
X125023714Y-114260285D01*
X124976095Y-114069809D01*
X124976095Y-113926952D01*
X125023714Y-113736476D01*
X125071333Y-113641238D01*
X125166571Y-113546000D01*
X125309428Y-113498380D01*
X125404666Y-113498380D01*
X125547523Y-113546000D01*
X125595142Y-113593619D01*
X125976095Y-113593619D02*
X126023714Y-113546000D01*
X126118952Y-113498380D01*
X126357047Y-113498380D01*
X126452285Y-113546000D01*
X126499904Y-113593619D01*
X126547523Y-113688857D01*
X126547523Y-113784095D01*
X126499904Y-113926952D01*
X125928476Y-114498380D01*
X126547523Y-114498380D01*
X126880857Y-113498380D02*
X127547523Y-113498380D01*
X127118952Y-114498380D01*
%TO.C,C28*%
X137533142Y-81637142D02*
X137485523Y-81684761D01*
X137342666Y-81732380D01*
X137247428Y-81732380D01*
X137104571Y-81684761D01*
X137009333Y-81589523D01*
X136961714Y-81494285D01*
X136914095Y-81303809D01*
X136914095Y-81160952D01*
X136961714Y-80970476D01*
X137009333Y-80875238D01*
X137104571Y-80780000D01*
X137247428Y-80732380D01*
X137342666Y-80732380D01*
X137485523Y-80780000D01*
X137533142Y-80827619D01*
X137914095Y-80827619D02*
X137961714Y-80780000D01*
X138056952Y-80732380D01*
X138295047Y-80732380D01*
X138390285Y-80780000D01*
X138437904Y-80827619D01*
X138485523Y-80922857D01*
X138485523Y-81018095D01*
X138437904Y-81160952D01*
X137866476Y-81732380D01*
X138485523Y-81732380D01*
X139056952Y-81160952D02*
X138961714Y-81113333D01*
X138914095Y-81065714D01*
X138866476Y-80970476D01*
X138866476Y-80922857D01*
X138914095Y-80827619D01*
X138961714Y-80780000D01*
X139056952Y-80732380D01*
X139247428Y-80732380D01*
X139342666Y-80780000D01*
X139390285Y-80827619D01*
X139437904Y-80922857D01*
X139437904Y-80970476D01*
X139390285Y-81065714D01*
X139342666Y-81113333D01*
X139247428Y-81160952D01*
X139056952Y-81160952D01*
X138961714Y-81208571D01*
X138914095Y-81256190D01*
X138866476Y-81351428D01*
X138866476Y-81541904D01*
X138914095Y-81637142D01*
X138961714Y-81684761D01*
X139056952Y-81732380D01*
X139247428Y-81732380D01*
X139342666Y-81684761D01*
X139390285Y-81637142D01*
X139437904Y-81541904D01*
X139437904Y-81351428D01*
X139390285Y-81256190D01*
X139342666Y-81208571D01*
X139247428Y-81160952D01*
%TO.C,C29*%
X134485142Y-116435142D02*
X134437523Y-116482761D01*
X134294666Y-116530380D01*
X134199428Y-116530380D01*
X134056571Y-116482761D01*
X133961333Y-116387523D01*
X133913714Y-116292285D01*
X133866095Y-116101809D01*
X133866095Y-115958952D01*
X133913714Y-115768476D01*
X133961333Y-115673238D01*
X134056571Y-115578000D01*
X134199428Y-115530380D01*
X134294666Y-115530380D01*
X134437523Y-115578000D01*
X134485142Y-115625619D01*
X134866095Y-115625619D02*
X134913714Y-115578000D01*
X135008952Y-115530380D01*
X135247047Y-115530380D01*
X135342285Y-115578000D01*
X135389904Y-115625619D01*
X135437523Y-115720857D01*
X135437523Y-115816095D01*
X135389904Y-115958952D01*
X134818476Y-116530380D01*
X135437523Y-116530380D01*
X135913714Y-116530380D02*
X136104190Y-116530380D01*
X136199428Y-116482761D01*
X136247047Y-116435142D01*
X136342285Y-116292285D01*
X136389904Y-116101809D01*
X136389904Y-115720857D01*
X136342285Y-115625619D01*
X136294666Y-115578000D01*
X136199428Y-115530380D01*
X136008952Y-115530380D01*
X135913714Y-115578000D01*
X135866095Y-115625619D01*
X135818476Y-115720857D01*
X135818476Y-115958952D01*
X135866095Y-116054190D01*
X135913714Y-116101809D01*
X136008952Y-116149428D01*
X136199428Y-116149428D01*
X136294666Y-116101809D01*
X136342285Y-116054190D01*
X136389904Y-115958952D01*
%TO.C,J1*%
X153463666Y-80859380D02*
X153463666Y-81573666D01*
X153416047Y-81716523D01*
X153320809Y-81811761D01*
X153177952Y-81859380D01*
X153082714Y-81859380D01*
X154463666Y-81859380D02*
X153892238Y-81859380D01*
X154177952Y-81859380D02*
X154177952Y-80859380D01*
X154082714Y-81002238D01*
X153987476Y-81097476D01*
X153892238Y-81145095D01*
%TO.C,J3*%
X123872666Y-87336380D02*
X123872666Y-88050666D01*
X123825047Y-88193523D01*
X123729809Y-88288761D01*
X123586952Y-88336380D01*
X123491714Y-88336380D01*
X124253619Y-87336380D02*
X124872666Y-87336380D01*
X124539333Y-87717333D01*
X124682190Y-87717333D01*
X124777428Y-87764952D01*
X124825047Y-87812571D01*
X124872666Y-87907809D01*
X124872666Y-88145904D01*
X124825047Y-88241142D01*
X124777428Y-88288761D01*
X124682190Y-88336380D01*
X124396476Y-88336380D01*
X124301238Y-88288761D01*
X124253619Y-88241142D01*
%TO.C,L1*%
X137755333Y-114498380D02*
X137279142Y-114498380D01*
X137279142Y-113498380D01*
X138612476Y-114498380D02*
X138041047Y-114498380D01*
X138326761Y-114498380D02*
X138326761Y-113498380D01*
X138231523Y-113641238D01*
X138136285Y-113736476D01*
X138041047Y-113784095D01*
%TO.C,L2*%
X172934333Y-85542380D02*
X172458142Y-85542380D01*
X172458142Y-84542380D01*
X173220047Y-84637619D02*
X173267666Y-84590000D01*
X173362904Y-84542380D01*
X173601000Y-84542380D01*
X173696238Y-84590000D01*
X173743857Y-84637619D01*
X173791476Y-84732857D01*
X173791476Y-84828095D01*
X173743857Y-84970952D01*
X173172428Y-85542380D01*
X173791476Y-85542380D01*
%TO.C,L4*%
X173061333Y-100782380D02*
X172585142Y-100782380D01*
X172585142Y-99782380D01*
X173823238Y-100115714D02*
X173823238Y-100782380D01*
X173585142Y-99734761D02*
X173347047Y-100449047D01*
X173966095Y-100449047D01*
%TO.C,R3*%
X144470380Y-100496666D02*
X143994190Y-100830000D01*
X144470380Y-101068095D02*
X143470380Y-101068095D01*
X143470380Y-100687142D01*
X143518000Y-100591904D01*
X143565619Y-100544285D01*
X143660857Y-100496666D01*
X143803714Y-100496666D01*
X143898952Y-100544285D01*
X143946571Y-100591904D01*
X143994190Y-100687142D01*
X143994190Y-101068095D01*
X143470380Y-100163333D02*
X143470380Y-99544285D01*
X143851333Y-99877619D01*
X143851333Y-99734761D01*
X143898952Y-99639523D01*
X143946571Y-99591904D01*
X144041809Y-99544285D01*
X144279904Y-99544285D01*
X144375142Y-99591904D01*
X144422761Y-99639523D01*
X144470380Y-99734761D01*
X144470380Y-100020476D01*
X144422761Y-100115714D01*
X144375142Y-100163333D01*
%TO.C,R4*%
X141168380Y-102782666D02*
X140692190Y-103116000D01*
X141168380Y-103354095D02*
X140168380Y-103354095D01*
X140168380Y-102973142D01*
X140216000Y-102877904D01*
X140263619Y-102830285D01*
X140358857Y-102782666D01*
X140501714Y-102782666D01*
X140596952Y-102830285D01*
X140644571Y-102877904D01*
X140692190Y-102973142D01*
X140692190Y-103354095D01*
X140501714Y-101925523D02*
X141168380Y-101925523D01*
X140120761Y-102163619D02*
X140835047Y-102401714D01*
X140835047Y-101782666D01*
%TO.C,R5*%
X125801380Y-108370666D02*
X125325190Y-108704000D01*
X125801380Y-108942095D02*
X124801380Y-108942095D01*
X124801380Y-108561142D01*
X124849000Y-108465904D01*
X124896619Y-108418285D01*
X124991857Y-108370666D01*
X125134714Y-108370666D01*
X125229952Y-108418285D01*
X125277571Y-108465904D01*
X125325190Y-108561142D01*
X125325190Y-108942095D01*
X124801380Y-107465904D02*
X124801380Y-107942095D01*
X125277571Y-107989714D01*
X125229952Y-107942095D01*
X125182333Y-107846857D01*
X125182333Y-107608761D01*
X125229952Y-107513523D01*
X125277571Y-107465904D01*
X125372809Y-107418285D01*
X125610904Y-107418285D01*
X125706142Y-107465904D01*
X125753761Y-107513523D01*
X125801380Y-107608761D01*
X125801380Y-107846857D01*
X125753761Y-107942095D01*
X125706142Y-107989714D01*
%TO.C,R6*%
X126706333Y-95956380D02*
X126373000Y-95480190D01*
X126134904Y-95956380D02*
X126134904Y-94956380D01*
X126515857Y-94956380D01*
X126611095Y-95004000D01*
X126658714Y-95051619D01*
X126706333Y-95146857D01*
X126706333Y-95289714D01*
X126658714Y-95384952D01*
X126611095Y-95432571D01*
X126515857Y-95480190D01*
X126134904Y-95480190D01*
X127563476Y-94956380D02*
X127373000Y-94956380D01*
X127277761Y-95004000D01*
X127230142Y-95051619D01*
X127134904Y-95194476D01*
X127087285Y-95384952D01*
X127087285Y-95765904D01*
X127134904Y-95861142D01*
X127182523Y-95908761D01*
X127277761Y-95956380D01*
X127468238Y-95956380D01*
X127563476Y-95908761D01*
X127611095Y-95861142D01*
X127658714Y-95765904D01*
X127658714Y-95527809D01*
X127611095Y-95432571D01*
X127563476Y-95384952D01*
X127468238Y-95337333D01*
X127277761Y-95337333D01*
X127182523Y-95384952D01*
X127134904Y-95432571D01*
X127087285Y-95527809D01*
%TO.C,R8*%
X124277380Y-108370666D02*
X123801190Y-108704000D01*
X124277380Y-108942095D02*
X123277380Y-108942095D01*
X123277380Y-108561142D01*
X123325000Y-108465904D01*
X123372619Y-108418285D01*
X123467857Y-108370666D01*
X123610714Y-108370666D01*
X123705952Y-108418285D01*
X123753571Y-108465904D01*
X123801190Y-108561142D01*
X123801190Y-108942095D01*
X123705952Y-107799238D02*
X123658333Y-107894476D01*
X123610714Y-107942095D01*
X123515476Y-107989714D01*
X123467857Y-107989714D01*
X123372619Y-107942095D01*
X123325000Y-107894476D01*
X123277380Y-107799238D01*
X123277380Y-107608761D01*
X123325000Y-107513523D01*
X123372619Y-107465904D01*
X123467857Y-107418285D01*
X123515476Y-107418285D01*
X123610714Y-107465904D01*
X123658333Y-107513523D01*
X123705952Y-107608761D01*
X123705952Y-107799238D01*
X123753571Y-107894476D01*
X123801190Y-107942095D01*
X123896428Y-107989714D01*
X124086904Y-107989714D01*
X124182142Y-107942095D01*
X124229761Y-107894476D01*
X124277380Y-107799238D01*
X124277380Y-107608761D01*
X124229761Y-107513523D01*
X124182142Y-107465904D01*
X124086904Y-107418285D01*
X123896428Y-107418285D01*
X123801190Y-107465904D01*
X123753571Y-107513523D01*
X123705952Y-107608761D01*
%TO.C,R7*%
X135215333Y-90876380D02*
X134882000Y-90400190D01*
X134643904Y-90876380D02*
X134643904Y-89876380D01*
X135024857Y-89876380D01*
X135120095Y-89924000D01*
X135167714Y-89971619D01*
X135215333Y-90066857D01*
X135215333Y-90209714D01*
X135167714Y-90304952D01*
X135120095Y-90352571D01*
X135024857Y-90400190D01*
X134643904Y-90400190D01*
X135548666Y-89876380D02*
X136215333Y-89876380D01*
X135786761Y-90876380D01*
%TO.C,R9*%
X137501333Y-83764380D02*
X137168000Y-83288190D01*
X136929904Y-83764380D02*
X136929904Y-82764380D01*
X137310857Y-82764380D01*
X137406095Y-82812000D01*
X137453714Y-82859619D01*
X137501333Y-82954857D01*
X137501333Y-83097714D01*
X137453714Y-83192952D01*
X137406095Y-83240571D01*
X137310857Y-83288190D01*
X136929904Y-83288190D01*
X137977523Y-83764380D02*
X138168000Y-83764380D01*
X138263238Y-83716761D01*
X138310857Y-83669142D01*
X138406095Y-83526285D01*
X138453714Y-83335809D01*
X138453714Y-82954857D01*
X138406095Y-82859619D01*
X138358476Y-82812000D01*
X138263238Y-82764380D01*
X138072761Y-82764380D01*
X137977523Y-82812000D01*
X137929904Y-82859619D01*
X137882285Y-82954857D01*
X137882285Y-83192952D01*
X137929904Y-83288190D01*
X137977523Y-83335809D01*
X138072761Y-83383428D01*
X138263238Y-83383428D01*
X138358476Y-83335809D01*
X138406095Y-83288190D01*
X138453714Y-83192952D01*
%TO.C,R10*%
X134485142Y-114498380D02*
X134151809Y-114022190D01*
X133913714Y-114498380D02*
X133913714Y-113498380D01*
X134294666Y-113498380D01*
X134389904Y-113546000D01*
X134437523Y-113593619D01*
X134485142Y-113688857D01*
X134485142Y-113831714D01*
X134437523Y-113926952D01*
X134389904Y-113974571D01*
X134294666Y-114022190D01*
X133913714Y-114022190D01*
X135437523Y-114498380D02*
X134866095Y-114498380D01*
X135151809Y-114498380D02*
X135151809Y-113498380D01*
X135056571Y-113641238D01*
X134961333Y-113736476D01*
X134866095Y-113784095D01*
X136056571Y-113498380D02*
X136151809Y-113498380D01*
X136247047Y-113546000D01*
X136294666Y-113593619D01*
X136342285Y-113688857D01*
X136389904Y-113879333D01*
X136389904Y-114117428D01*
X136342285Y-114307904D01*
X136294666Y-114403142D01*
X136247047Y-114450761D01*
X136151809Y-114498380D01*
X136056571Y-114498380D01*
X135961333Y-114450761D01*
X135913714Y-114403142D01*
X135866095Y-114307904D01*
X135818476Y-114117428D01*
X135818476Y-113879333D01*
X135866095Y-113688857D01*
X135913714Y-113593619D01*
X135961333Y-113546000D01*
X136056571Y-113498380D01*
%TO.C,R11*%
X124833142Y-81732380D02*
X124499809Y-81256190D01*
X124261714Y-81732380D02*
X124261714Y-80732380D01*
X124642666Y-80732380D01*
X124737904Y-80780000D01*
X124785523Y-80827619D01*
X124833142Y-80922857D01*
X124833142Y-81065714D01*
X124785523Y-81160952D01*
X124737904Y-81208571D01*
X124642666Y-81256190D01*
X124261714Y-81256190D01*
X125785523Y-81732380D02*
X125214095Y-81732380D01*
X125499809Y-81732380D02*
X125499809Y-80732380D01*
X125404571Y-80875238D01*
X125309333Y-80970476D01*
X125214095Y-81018095D01*
X126737904Y-81732380D02*
X126166476Y-81732380D01*
X126452190Y-81732380D02*
X126452190Y-80732380D01*
X126356952Y-80875238D01*
X126261714Y-80970476D01*
X126166476Y-81018095D01*
%TO.C,R12*%
X123817142Y-118308380D02*
X123483809Y-117832190D01*
X123245714Y-118308380D02*
X123245714Y-117308380D01*
X123626666Y-117308380D01*
X123721904Y-117356000D01*
X123769523Y-117403619D01*
X123817142Y-117498857D01*
X123817142Y-117641714D01*
X123769523Y-117736952D01*
X123721904Y-117784571D01*
X123626666Y-117832190D01*
X123245714Y-117832190D01*
X124769523Y-118308380D02*
X124198095Y-118308380D01*
X124483809Y-118308380D02*
X124483809Y-117308380D01*
X124388571Y-117451238D01*
X124293333Y-117546476D01*
X124198095Y-117594095D01*
X125150476Y-117403619D02*
X125198095Y-117356000D01*
X125293333Y-117308380D01*
X125531428Y-117308380D01*
X125626666Y-117356000D01*
X125674285Y-117403619D01*
X125721904Y-117498857D01*
X125721904Y-117594095D01*
X125674285Y-117736952D01*
X125102857Y-118308380D01*
X125721904Y-118308380D01*
%TO.C,U1*%
X147828095Y-92162380D02*
X147828095Y-92971904D01*
X147875714Y-93067142D01*
X147923333Y-93114761D01*
X148018571Y-93162380D01*
X148209047Y-93162380D01*
X148304285Y-93114761D01*
X148351904Y-93067142D01*
X148399523Y-92971904D01*
X148399523Y-92162380D01*
X149399523Y-93162380D02*
X148828095Y-93162380D01*
X149113809Y-93162380D02*
X149113809Y-92162380D01*
X149018571Y-92305238D01*
X148923333Y-92400476D01*
X148828095Y-92448095D01*
%TO.C,J2*%
X152066666Y-126452380D02*
X152066666Y-127166666D01*
X152019047Y-127309523D01*
X151923809Y-127404761D01*
X151780952Y-127452380D01*
X151685714Y-127452380D01*
X152495238Y-126547619D02*
X152542857Y-126500000D01*
X152638095Y-126452380D01*
X152876190Y-126452380D01*
X152971428Y-126500000D01*
X153019047Y-126547619D01*
X153066666Y-126642857D01*
X153066666Y-126738095D01*
X153019047Y-126880952D01*
X152447619Y-127452380D01*
X153066666Y-127452380D01*
%TO.C,R1*%
X146137333Y-106751380D02*
X145804000Y-106275190D01*
X145565904Y-106751380D02*
X145565904Y-105751380D01*
X145946857Y-105751380D01*
X146042095Y-105799000D01*
X146089714Y-105846619D01*
X146137333Y-105941857D01*
X146137333Y-106084714D01*
X146089714Y-106179952D01*
X146042095Y-106227571D01*
X145946857Y-106275190D01*
X145565904Y-106275190D01*
X147089714Y-106751380D02*
X146518285Y-106751380D01*
X146804000Y-106751380D02*
X146804000Y-105751380D01*
X146708761Y-105894238D01*
X146613523Y-105989476D01*
X146518285Y-106037095D01*
%TO.C,R2*%
X143851333Y-84780380D02*
X143518000Y-84304190D01*
X143279904Y-84780380D02*
X143279904Y-83780380D01*
X143660857Y-83780380D01*
X143756095Y-83828000D01*
X143803714Y-83875619D01*
X143851333Y-83970857D01*
X143851333Y-84113714D01*
X143803714Y-84208952D01*
X143756095Y-84256571D01*
X143660857Y-84304190D01*
X143279904Y-84304190D01*
X144232285Y-83875619D02*
X144279904Y-83828000D01*
X144375142Y-83780380D01*
X144613238Y-83780380D01*
X144708476Y-83828000D01*
X144756095Y-83875619D01*
X144803714Y-83970857D01*
X144803714Y-84066095D01*
X144756095Y-84208952D01*
X144184666Y-84780380D01*
X144803714Y-84780380D01*
%TO.C,U2*%
X126198380Y-101980904D02*
X127007904Y-101980904D01*
X127103142Y-101933285D01*
X127150761Y-101885666D01*
X127198380Y-101790428D01*
X127198380Y-101599952D01*
X127150761Y-101504714D01*
X127103142Y-101457095D01*
X127007904Y-101409476D01*
X126198380Y-101409476D01*
X126293619Y-100980904D02*
X126246000Y-100933285D01*
X126198380Y-100838047D01*
X126198380Y-100599952D01*
X126246000Y-100504714D01*
X126293619Y-100457095D01*
X126388857Y-100409476D01*
X126484095Y-100409476D01*
X126626952Y-100457095D01*
X127198380Y-101028523D01*
X127198380Y-100409476D01*
%TO.C,J4*%
X186991666Y-80732380D02*
X186991666Y-81446666D01*
X186944047Y-81589523D01*
X186848809Y-81684761D01*
X186705952Y-81732380D01*
X186610714Y-81732380D01*
X187896428Y-81065714D02*
X187896428Y-81732380D01*
X187658333Y-80684761D02*
X187420238Y-81399047D01*
X188039285Y-81399047D01*
%TO.C,J*%
X140096857Y-98004380D02*
X140096857Y-98718666D01*
X140049238Y-98861523D01*
X139954000Y-98956761D01*
X139811142Y-99004380D01*
X139715904Y-99004380D01*
%TD*%
M02*
