%TF.GenerationSoftware,KiCad,Pcbnew,(5.1.9)-1*%
%TF.CreationDate,2022-01-14T16:31:07-06:00*%
%TF.ProjectId,Power_12V_DualSupply,506f7765-725f-4313-9256-5f4475616c53,rev?*%
%TF.SameCoordinates,Original*%
%TF.FileFunction,Copper,L2,Bot*%
%TF.FilePolarity,Positive*%
%FSLAX46Y46*%
G04 Gerber Fmt 4.6, Leading zero omitted, Abs format (unit mm)*
G04 Created by KiCad (PCBNEW (5.1.9)-1) date 2022-01-14 16:31:07*
%MOMM*%
%LPD*%
G01*
G04 APERTURE LIST*
%TA.AperFunction,SMDPad,CuDef*%
%ADD10R,1.050000X13.700000*%
%TD*%
%TA.AperFunction,SMDPad,CuDef*%
%ADD11R,2.500000X13.700000*%
%TD*%
%TA.AperFunction,SMDPad,CuDef*%
%ADD12R,13.700000X1.050000*%
%TD*%
%TA.AperFunction,SMDPad,CuDef*%
%ADD13R,13.700000X2.500000*%
%TD*%
%TA.AperFunction,ComponentPad*%
%ADD14R,2.000000X2.000000*%
%TD*%
%TA.AperFunction,ComponentPad*%
%ADD15C,2.000000*%
%TD*%
%TA.AperFunction,SMDPad,CuDef*%
%ADD16R,4.300000X1.950000*%
%TD*%
%TA.AperFunction,SMDPad,CuDef*%
%ADD17R,2.400000X2.600000*%
%TD*%
%TA.AperFunction,ConnectorPad*%
%ADD18C,6.400000*%
%TD*%
%TA.AperFunction,ComponentPad*%
%ADD19C,3.600000*%
%TD*%
%TA.AperFunction,ComponentPad*%
%ADD20R,1.700000X1.700000*%
%TD*%
%TA.AperFunction,ComponentPad*%
%ADD21O,1.700000X1.700000*%
%TD*%
%TA.AperFunction,ComponentPad*%
%ADD22O,1.600000X1.600000*%
%TD*%
%TA.AperFunction,ComponentPad*%
%ADD23C,1.600000*%
%TD*%
%TA.AperFunction,ComponentPad*%
%ADD24R,1.905000X2.000000*%
%TD*%
%TA.AperFunction,ComponentPad*%
%ADD25O,1.905000X2.000000*%
%TD*%
%TA.AperFunction,ViaPad*%
%ADD26C,0.800000*%
%TD*%
%TA.AperFunction,Conductor*%
%ADD27C,1.000000*%
%TD*%
%TA.AperFunction,Conductor*%
%ADD28C,0.250000*%
%TD*%
G04 APERTURE END LIST*
D10*
%TO.P,C18,1*%
%TO.N,Net-(C16-Pad1)*%
X200086000Y-108204000D03*
%TO.P,C18,2*%
%TO.N,Net-(C18-Pad2)*%
X185486000Y-108204000D03*
D11*
X184536000Y-108204000D03*
%TO.P,C18,1*%
%TO.N,Net-(C16-Pad1)*%
X201036000Y-108204000D03*
%TD*%
D10*
%TO.P,C10,1*%
%TO.N,Net-(C10-Pad1)*%
X169098000Y-108204000D03*
%TO.P,C10,2*%
%TO.N,Net-(C10-Pad2)*%
X154498000Y-108204000D03*
D11*
X153548000Y-108204000D03*
%TO.P,C10,1*%
%TO.N,Net-(C10-Pad1)*%
X170048000Y-108204000D03*
%TD*%
D10*
%TO.P,C19,1*%
%TO.N,Net-(C19-Pad1)*%
X185486000Y-91440000D03*
%TO.P,C19,2*%
%TO.N,Net-(C17-Pad2)*%
X200086000Y-91440000D03*
D11*
X201036000Y-91440000D03*
%TO.P,C19,1*%
%TO.N,Net-(C19-Pad1)*%
X184536000Y-91440000D03*
%TD*%
D10*
%TO.P,C11,1*%
%TO.N,Net-(C11-Pad1)*%
X154498000Y-91440000D03*
%TO.P,C11,2*%
%TO.N,Net-(C11-Pad2)*%
X169098000Y-91440000D03*
D11*
X170048000Y-91440000D03*
%TO.P,C11,1*%
%TO.N,Net-(C11-Pad1)*%
X153548000Y-91440000D03*
%TD*%
D12*
%TO.P,C1,1*%
%TO.N,+28V*%
X109601000Y-105725000D03*
%TO.P,C1,2*%
%TO.N,GND*%
X109601000Y-91125000D03*
D13*
X109601000Y-90175000D03*
%TO.P,C1,1*%
%TO.N,+28V*%
X109601000Y-106675000D03*
%TD*%
%TO.P,C8,1*%
%TO.N,Net-(C10-Pad1)*%
%TA.AperFunction,SMDPad,CuDef*%
G36*
G01*
X177710001Y-109797000D02*
X172809999Y-109797000D01*
G75*
G02*
X172560000Y-109547001I0J249999D01*
G01*
X172560000Y-108071999D01*
G75*
G02*
X172809999Y-107822000I249999J0D01*
G01*
X177710001Y-107822000D01*
G75*
G02*
X177960000Y-108071999I0J-249999D01*
G01*
X177960000Y-109547001D01*
G75*
G02*
X177710001Y-109797000I-249999J0D01*
G01*
G37*
%TD.AperFunction*%
%TO.P,C8,2*%
%TO.N,GNDA*%
%TA.AperFunction,SMDPad,CuDef*%
G36*
G01*
X177710001Y-104522000D02*
X172809999Y-104522000D01*
G75*
G02*
X172560000Y-104272001I0J249999D01*
G01*
X172560000Y-102796999D01*
G75*
G02*
X172809999Y-102547000I249999J0D01*
G01*
X177710001Y-102547000D01*
G75*
G02*
X177960000Y-102796999I0J-249999D01*
G01*
X177960000Y-104272001D01*
G75*
G02*
X177710001Y-104522000I-249999J0D01*
G01*
G37*
%TD.AperFunction*%
%TD*%
D14*
%TO.P,C4,1*%
%TO.N,Net-(C2-Pad1)*%
X149860000Y-107569000D03*
D15*
%TO.P,C4,2*%
%TO.N,GNDA*%
X149860000Y-102569000D03*
%TD*%
%TO.P,R8,2*%
%TO.N,GNDA*%
%TA.AperFunction,SMDPad,CuDef*%
G36*
G01*
X182050001Y-103964000D02*
X179899999Y-103964000D01*
G75*
G02*
X179650000Y-103714001I0J249999D01*
G01*
X179650000Y-102813999D01*
G75*
G02*
X179899999Y-102564000I249999J0D01*
G01*
X182050001Y-102564000D01*
G75*
G02*
X182300000Y-102813999I0J-249999D01*
G01*
X182300000Y-103714001D01*
G75*
G02*
X182050001Y-103964000I-249999J0D01*
G01*
G37*
%TD.AperFunction*%
%TO.P,R8,1*%
%TO.N,Net-(C18-Pad2)*%
%TA.AperFunction,SMDPad,CuDef*%
G36*
G01*
X182050001Y-108764000D02*
X179899999Y-108764000D01*
G75*
G02*
X179650000Y-108514001I0J249999D01*
G01*
X179650000Y-107613999D01*
G75*
G02*
X179899999Y-107364000I249999J0D01*
G01*
X182050001Y-107364000D01*
G75*
G02*
X182300000Y-107613999I0J-249999D01*
G01*
X182300000Y-108514001D01*
G75*
G02*
X182050001Y-108764000I-249999J0D01*
G01*
G37*
%TD.AperFunction*%
%TD*%
%TO.P,C16,2*%
%TO.N,GNDA*%
%TA.AperFunction,SMDPad,CuDef*%
G36*
G01*
X208952001Y-104522000D02*
X204051999Y-104522000D01*
G75*
G02*
X203802000Y-104272001I0J249999D01*
G01*
X203802000Y-102796999D01*
G75*
G02*
X204051999Y-102547000I249999J0D01*
G01*
X208952001Y-102547000D01*
G75*
G02*
X209202000Y-102796999I0J-249999D01*
G01*
X209202000Y-104272001D01*
G75*
G02*
X208952001Y-104522000I-249999J0D01*
G01*
G37*
%TD.AperFunction*%
%TO.P,C16,1*%
%TO.N,Net-(C16-Pad1)*%
%TA.AperFunction,SMDPad,CuDef*%
G36*
G01*
X208952001Y-109797000D02*
X204051999Y-109797000D01*
G75*
G02*
X203802000Y-109547001I0J249999D01*
G01*
X203802000Y-108071999D01*
G75*
G02*
X204051999Y-107822000I249999J0D01*
G01*
X208952001Y-107822000D01*
G75*
G02*
X209202000Y-108071999I0J-249999D01*
G01*
X209202000Y-109547001D01*
G75*
G02*
X208952001Y-109797000I-249999J0D01*
G01*
G37*
%TD.AperFunction*%
%TD*%
%TO.P,U1,1*%
%TO.N,Net-(C2-Pad2)*%
X120650000Y-101981000D03*
%TO.P,U1,2*%
%TO.N,GND*%
X120650000Y-96901000D03*
%TO.P,U1,6*%
%TO.N,Net-(U1-Pad6)*%
X120650000Y-89281000D03*
%TO.P,U1,5*%
%TO.N,Net-(C3-Pad1)*%
X140970000Y-89281000D03*
%TO.P,U1,4*%
%TO.N,GNDA*%
X140970000Y-99441000D03*
%TO.P,U1,3*%
%TO.N,Net-(C2-Pad1)*%
X140970000Y-109601000D03*
%TD*%
%TO.P,C2,2*%
%TO.N,Net-(C2-Pad2)*%
%TA.AperFunction,SMDPad,CuDef*%
G36*
G01*
X124068000Y-101457999D02*
X124068000Y-102758001D01*
G75*
G02*
X123818001Y-103008000I-249999J0D01*
G01*
X122992999Y-103008000D01*
G75*
G02*
X122743000Y-102758001I0J249999D01*
G01*
X122743000Y-101457999D01*
G75*
G02*
X122992999Y-101208000I249999J0D01*
G01*
X123818001Y-101208000D01*
G75*
G02*
X124068000Y-101457999I0J-249999D01*
G01*
G37*
%TD.AperFunction*%
%TO.P,C2,1*%
%TO.N,Net-(C2-Pad1)*%
%TA.AperFunction,SMDPad,CuDef*%
G36*
G01*
X127193000Y-101457999D02*
X127193000Y-102758001D01*
G75*
G02*
X126943001Y-103008000I-249999J0D01*
G01*
X126117999Y-103008000D01*
G75*
G02*
X125868000Y-102758001I0J249999D01*
G01*
X125868000Y-101457999D01*
G75*
G02*
X126117999Y-101208000I249999J0D01*
G01*
X126943001Y-101208000D01*
G75*
G02*
X127193000Y-101457999I0J-249999D01*
G01*
G37*
%TD.AperFunction*%
%TD*%
%TO.P,C3,1*%
%TO.N,Net-(C3-Pad1)*%
%TA.AperFunction,SMDPad,CuDef*%
G36*
G01*
X127193000Y-96377999D02*
X127193000Y-97678001D01*
G75*
G02*
X126943001Y-97928000I-249999J0D01*
G01*
X126117999Y-97928000D01*
G75*
G02*
X125868000Y-97678001I0J249999D01*
G01*
X125868000Y-96377999D01*
G75*
G02*
X126117999Y-96128000I249999J0D01*
G01*
X126943001Y-96128000D01*
G75*
G02*
X127193000Y-96377999I0J-249999D01*
G01*
G37*
%TD.AperFunction*%
%TO.P,C3,2*%
%TO.N,GND*%
%TA.AperFunction,SMDPad,CuDef*%
G36*
G01*
X124068000Y-96377999D02*
X124068000Y-97678001D01*
G75*
G02*
X123818001Y-97928000I-249999J0D01*
G01*
X122992999Y-97928000D01*
G75*
G02*
X122743000Y-97678001I0J249999D01*
G01*
X122743000Y-96377999D01*
G75*
G02*
X122992999Y-96128000I249999J0D01*
G01*
X123818001Y-96128000D01*
G75*
G02*
X124068000Y-96377999I0J-249999D01*
G01*
G37*
%TD.AperFunction*%
%TD*%
%TO.P,C5,2*%
%TO.N,Net-(C3-Pad1)*%
X149860000Y-89361000D03*
D14*
%TO.P,C5,1*%
%TO.N,GNDA*%
X149860000Y-94361000D03*
%TD*%
D16*
%TO.P,C6,1*%
%TO.N,Net-(C2-Pad1)*%
X136652000Y-108156000D03*
%TO.P,C6,2*%
%TO.N,GNDA*%
X136652000Y-102156000D03*
D17*
X136652000Y-101656000D03*
%TO.P,C6,1*%
%TO.N,Net-(C2-Pad1)*%
X136652000Y-108656000D03*
%TD*%
%TO.P,C7,1*%
%TO.N,GNDA*%
X136652000Y-97480000D03*
%TO.P,C7,2*%
%TO.N,Net-(C3-Pad1)*%
X136652000Y-90480000D03*
D16*
X136652000Y-90980000D03*
%TO.P,C7,1*%
%TO.N,GNDA*%
X136652000Y-96980000D03*
%TD*%
%TO.P,C9,2*%
%TO.N,Net-(C11-Pad2)*%
%TA.AperFunction,SMDPad,CuDef*%
G36*
G01*
X177710001Y-92330000D02*
X172809999Y-92330000D01*
G75*
G02*
X172560000Y-92080001I0J249999D01*
G01*
X172560000Y-90604999D01*
G75*
G02*
X172809999Y-90355000I249999J0D01*
G01*
X177710001Y-90355000D01*
G75*
G02*
X177960000Y-90604999I0J-249999D01*
G01*
X177960000Y-92080001D01*
G75*
G02*
X177710001Y-92330000I-249999J0D01*
G01*
G37*
%TD.AperFunction*%
%TO.P,C9,1*%
%TO.N,GNDA*%
%TA.AperFunction,SMDPad,CuDef*%
G36*
G01*
X177710001Y-97605000D02*
X172809999Y-97605000D01*
G75*
G02*
X172560000Y-97355001I0J249999D01*
G01*
X172560000Y-95879999D01*
G75*
G02*
X172809999Y-95630000I249999J0D01*
G01*
X177710001Y-95630000D01*
G75*
G02*
X177960000Y-95879999I0J-249999D01*
G01*
X177960000Y-97355001D01*
G75*
G02*
X177710001Y-97605000I-249999J0D01*
G01*
G37*
%TD.AperFunction*%
%TD*%
%TO.P,C17,2*%
%TO.N,Net-(C17-Pad2)*%
%TA.AperFunction,SMDPad,CuDef*%
G36*
G01*
X208952001Y-92330000D02*
X204051999Y-92330000D01*
G75*
G02*
X203802000Y-92080001I0J249999D01*
G01*
X203802000Y-90604999D01*
G75*
G02*
X204051999Y-90355000I249999J0D01*
G01*
X208952001Y-90355000D01*
G75*
G02*
X209202000Y-90604999I0J-249999D01*
G01*
X209202000Y-92080001D01*
G75*
G02*
X208952001Y-92330000I-249999J0D01*
G01*
G37*
%TD.AperFunction*%
%TO.P,C17,1*%
%TO.N,GNDA*%
%TA.AperFunction,SMDPad,CuDef*%
G36*
G01*
X208952001Y-97605000D02*
X204051999Y-97605000D01*
G75*
G02*
X203802000Y-97355001I0J249999D01*
G01*
X203802000Y-95879999D01*
G75*
G02*
X204051999Y-95630000I249999J0D01*
G01*
X208952001Y-95630000D01*
G75*
G02*
X209202000Y-95879999I0J-249999D01*
G01*
X209202000Y-97355001D01*
G75*
G02*
X208952001Y-97605000I-249999J0D01*
G01*
G37*
%TD.AperFunction*%
%TD*%
%TO.P,R1,1*%
%TO.N,GNDA*%
%TA.AperFunction,SMDPad,CuDef*%
G36*
G01*
X147887001Y-97588000D02*
X145736999Y-97588000D01*
G75*
G02*
X145487000Y-97338001I0J249999D01*
G01*
X145487000Y-96437999D01*
G75*
G02*
X145736999Y-96188000I249999J0D01*
G01*
X147887001Y-96188000D01*
G75*
G02*
X148137000Y-96437999I0J-249999D01*
G01*
X148137000Y-97338001D01*
G75*
G02*
X147887001Y-97588000I-249999J0D01*
G01*
G37*
%TD.AperFunction*%
%TO.P,R1,2*%
%TO.N,Net-(C11-Pad1)*%
%TA.AperFunction,SMDPad,CuDef*%
G36*
G01*
X147887001Y-92788000D02*
X145736999Y-92788000D01*
G75*
G02*
X145487000Y-92538001I0J249999D01*
G01*
X145487000Y-91637999D01*
G75*
G02*
X145736999Y-91388000I249999J0D01*
G01*
X147887001Y-91388000D01*
G75*
G02*
X148137000Y-91637999I0J-249999D01*
G01*
X148137000Y-92538001D01*
G75*
G02*
X147887001Y-92788000I-249999J0D01*
G01*
G37*
%TD.AperFunction*%
%TD*%
%TO.P,R2,2*%
%TO.N,GNDA*%
%TA.AperFunction,SMDPad,CuDef*%
G36*
G01*
X147887001Y-105488000D02*
X145736999Y-105488000D01*
G75*
G02*
X145487000Y-105238001I0J249999D01*
G01*
X145487000Y-104337999D01*
G75*
G02*
X145736999Y-104088000I249999J0D01*
G01*
X147887001Y-104088000D01*
G75*
G02*
X148137000Y-104337999I0J-249999D01*
G01*
X148137000Y-105238001D01*
G75*
G02*
X147887001Y-105488000I-249999J0D01*
G01*
G37*
%TD.AperFunction*%
%TO.P,R2,1*%
%TO.N,Net-(C10-Pad2)*%
%TA.AperFunction,SMDPad,CuDef*%
G36*
G01*
X147887001Y-110288000D02*
X145736999Y-110288000D01*
G75*
G02*
X145487000Y-110038001I0J249999D01*
G01*
X145487000Y-109137999D01*
G75*
G02*
X145736999Y-108888000I249999J0D01*
G01*
X147887001Y-108888000D01*
G75*
G02*
X148137000Y-109137999I0J-249999D01*
G01*
X148137000Y-110038001D01*
G75*
G02*
X147887001Y-110288000I-249999J0D01*
G01*
G37*
%TD.AperFunction*%
%TD*%
%TO.P,R7,2*%
%TO.N,Net-(C19-Pad1)*%
%TA.AperFunction,SMDPad,CuDef*%
G36*
G01*
X182050001Y-91772000D02*
X179899999Y-91772000D01*
G75*
G02*
X179650000Y-91522001I0J249999D01*
G01*
X179650000Y-90621999D01*
G75*
G02*
X179899999Y-90372000I249999J0D01*
G01*
X182050001Y-90372000D01*
G75*
G02*
X182300000Y-90621999I0J-249999D01*
G01*
X182300000Y-91522001D01*
G75*
G02*
X182050001Y-91772000I-249999J0D01*
G01*
G37*
%TD.AperFunction*%
%TO.P,R7,1*%
%TO.N,GNDA*%
%TA.AperFunction,SMDPad,CuDef*%
G36*
G01*
X182050001Y-96572000D02*
X179899999Y-96572000D01*
G75*
G02*
X179650000Y-96322001I0J249999D01*
G01*
X179650000Y-95421999D01*
G75*
G02*
X179899999Y-95172000I249999J0D01*
G01*
X182050001Y-95172000D01*
G75*
G02*
X182300000Y-95421999I0J-249999D01*
G01*
X182300000Y-96322001D01*
G75*
G02*
X182050001Y-96572000I-249999J0D01*
G01*
G37*
%TD.AperFunction*%
%TD*%
D18*
%TO.P,H1,1*%
%TO.N,N/C*%
X109220000Y-84455000D03*
D19*
X109220000Y-84455000D03*
%TD*%
%TO.P,H2,1*%
%TO.N,N/C*%
X210185000Y-84455000D03*
D18*
X210185000Y-84455000D03*
%TD*%
%TO.P,H3,1*%
%TO.N,N/C*%
X210820000Y-114935000D03*
D19*
X210820000Y-114935000D03*
%TD*%
%TO.P,H4,1*%
%TO.N,N/C*%
X109855000Y-114935000D03*
D18*
X109855000Y-114935000D03*
%TD*%
D20*
%TO.P,J1,1*%
%TO.N,+28V*%
X99060000Y-104140000D03*
D21*
%TO.P,J1,2*%
X99060000Y-101600000D03*
%TO.P,J1,3*%
%TO.N,GND*%
X99060000Y-99060000D03*
%TO.P,J1,4*%
X99060000Y-96520000D03*
%TD*%
D20*
%TO.P,J2,1*%
%TO.N,Net-(C16-Pad1)*%
X213360000Y-106680000D03*
D21*
%TO.P,J2,2*%
X213360000Y-104140000D03*
%TO.P,J2,3*%
%TO.N,GNDA*%
X213360000Y-101600000D03*
%TO.P,J2,4*%
X213360000Y-99060000D03*
%TO.P,J2,5*%
%TO.N,Net-(C17-Pad2)*%
X213360000Y-96520000D03*
%TO.P,J2,6*%
X213360000Y-93980000D03*
%TD*%
D22*
%TO.P,R9,2*%
%TO.N,Net-(R11-Pad1)*%
X168275000Y-116840000D03*
D23*
%TO.P,R9,1*%
%TO.N,GNDA*%
X155575000Y-116840000D03*
%TD*%
%TO.P,R10,1*%
%TO.N,GNDA*%
X155575000Y-82550000D03*
D22*
%TO.P,R10,2*%
%TO.N,Net-(R10-Pad2)*%
X168275000Y-82550000D03*
%TD*%
%TO.P,R11,2*%
%TO.N,Net-(C14-Pad1)*%
X183515000Y-116840000D03*
D23*
%TO.P,R11,1*%
%TO.N,Net-(R11-Pad1)*%
X170815000Y-116840000D03*
%TD*%
%TO.P,R12,1*%
%TO.N,Net-(C15-Pad2)*%
X183515000Y-82550000D03*
D22*
%TO.P,R12,2*%
%TO.N,Net-(R10-Pad2)*%
X170815000Y-82550000D03*
%TD*%
D24*
%TO.P,U4,1*%
%TO.N,Net-(R11-Pad1)*%
X175260000Y-117475000D03*
D25*
%TO.P,U4,2*%
%TO.N,Net-(C14-Pad1)*%
X177800000Y-117475000D03*
%TO.P,U4,3*%
%TO.N,Net-(C10-Pad1)*%
X180340000Y-117475000D03*
%TD*%
%TO.P,U5,3*%
%TO.N,Net-(C15-Pad2)*%
X179705000Y-83820000D03*
%TO.P,U5,2*%
%TO.N,Net-(C11-Pad2)*%
X177165000Y-83820000D03*
D24*
%TO.P,U5,1*%
%TO.N,Net-(R10-Pad2)*%
X174625000Y-83820000D03*
%TD*%
D26*
%TO.N,Net-(C16-Pad1)*%
X201168000Y-107696000D03*
X201168000Y-108712000D03*
X201168000Y-110744000D03*
X201168000Y-111760000D03*
X201168000Y-104648000D03*
X201168000Y-109728000D03*
X201168000Y-112776000D03*
X201168000Y-113792000D03*
X201168000Y-102616000D03*
X201168000Y-103632000D03*
X201168000Y-105664000D03*
X201168000Y-106680000D03*
%TO.N,Net-(C17-Pad2)*%
X201168000Y-90932000D03*
X201168000Y-91948000D03*
X201168000Y-93980000D03*
X201168000Y-94996000D03*
X201168000Y-87884000D03*
X201168000Y-92964000D03*
X201168000Y-96012000D03*
X201168000Y-97028000D03*
X201168000Y-85852000D03*
X201168000Y-86868000D03*
X201168000Y-88900000D03*
X201168000Y-89916000D03*
%TO.N,Net-(C11-Pad2)*%
X169926000Y-91186000D03*
X169926000Y-92202000D03*
X169926000Y-94234000D03*
X169926000Y-95250000D03*
X169926000Y-88138000D03*
X169926000Y-93218000D03*
X169926000Y-96266000D03*
X169926000Y-97282000D03*
X169926000Y-86106000D03*
X169926000Y-87122000D03*
X169926000Y-89154000D03*
X169926000Y-90170000D03*
%TO.N,+28V*%
X107950000Y-107315000D03*
X111760000Y-107315000D03*
X111760000Y-105410000D03*
X109855000Y-105410000D03*
X107950000Y-105410000D03*
X109728000Y-107188000D03*
X106997500Y-104457500D03*
X105727500Y-103187500D03*
X104457500Y-101917500D03*
%TO.N,GNDA*%
X175514000Y-99568000D03*
X183642000Y-99568000D03*
X185604000Y-99638000D03*
X187579000Y-99441000D03*
X190119000Y-99441000D03*
X192659000Y-99441000D03*
X195199000Y-99441000D03*
X197739000Y-99441000D03*
X200279000Y-99441000D03*
X202819000Y-99441000D03*
X205359000Y-99441000D03*
X180594000Y-99314000D03*
X177546000Y-99314000D03*
X172339000Y-99441000D03*
X169799000Y-99441000D03*
X167259000Y-99441000D03*
X164719000Y-99441000D03*
X159639000Y-99441000D03*
X162179000Y-99441000D03*
X157099000Y-99441000D03*
X154559000Y-99441000D03*
X152019000Y-99441000D03*
X149860000Y-99060000D03*
X146939000Y-99441000D03*
X144399000Y-99441000D03*
%TO.N,Net-(C10-Pad1)*%
X170180000Y-113792000D03*
X170180000Y-112776000D03*
X170180000Y-111760000D03*
X170180000Y-110744000D03*
X170180000Y-109728000D03*
X170180000Y-108712000D03*
X170180000Y-107696000D03*
X170180000Y-106680000D03*
X170180000Y-105664000D03*
X170180000Y-104648000D03*
X170180000Y-103632000D03*
X170180000Y-102616000D03*
%TD*%
D27*
%TO.N,+28V*%
X109601000Y-106675000D02*
X109215000Y-106675000D01*
X109215000Y-106675000D02*
X104140000Y-101600000D01*
X104140000Y-101600000D02*
X99060000Y-101600000D01*
X99060000Y-104140000D02*
X99060000Y-101600000D01*
D28*
%TO.N,GND*%
X120777000Y-97028000D02*
X120650000Y-96901000D01*
D27*
X123405500Y-97028000D02*
X120777000Y-97028000D01*
X99060000Y-99060000D02*
X99060000Y-96520000D01*
X120269000Y-96520000D02*
X120650000Y-96901000D01*
X109601000Y-96139000D02*
X109220000Y-96520000D01*
X109601000Y-90175000D02*
X109601000Y-96139000D01*
X109220000Y-96520000D02*
X120269000Y-96520000D01*
X99060000Y-96520000D02*
X109220000Y-96520000D01*
D28*
%TO.N,Net-(C2-Pad2)*%
X120777000Y-102108000D02*
X120650000Y-101981000D01*
D27*
X123405500Y-102108000D02*
X120777000Y-102108000D01*
%TO.N,Net-(C2-Pad1)*%
X139525000Y-108156000D02*
X140970000Y-109601000D01*
X136652000Y-108156000D02*
X139525000Y-108156000D01*
X130604000Y-102108000D02*
X136652000Y-108156000D01*
X126530500Y-102108000D02*
X130604000Y-102108000D01*
D28*
%TO.N,Net-(C3-Pad1)*%
X140970000Y-89281000D02*
X140970000Y-90170000D01*
D27*
X140160000Y-90980000D02*
X136652000Y-90980000D01*
X140970000Y-90170000D02*
X140160000Y-90980000D01*
D28*
X149780000Y-89281000D02*
X149860000Y-89361000D01*
D27*
X130604000Y-97028000D02*
X136652000Y-90980000D01*
X126530500Y-97028000D02*
X130604000Y-97028000D01*
%TO.N,GNDA*%
X138613000Y-99441000D02*
X136652000Y-97480000D01*
X140970000Y-99441000D02*
X138613000Y-99441000D01*
X138867000Y-99441000D02*
X136652000Y-101656000D01*
D28*
X140970000Y-99441000D02*
X138867000Y-99441000D01*
D27*
X149860000Y-99314000D02*
X149733000Y-99441000D01*
X149860000Y-94361000D02*
X149860000Y-99060000D01*
X149860000Y-99568000D02*
X149733000Y-99441000D01*
X140970000Y-99441000D02*
X148717000Y-99441000D01*
X148717000Y-99441000D02*
X149733000Y-99441000D01*
X185407000Y-99441000D02*
X184277000Y-99441000D01*
X183515000Y-99441000D02*
X184277000Y-99441000D01*
D28*
X180340000Y-99314000D02*
X180467000Y-99441000D01*
D27*
X180467000Y-99441000D02*
X183007000Y-99441000D01*
D28*
X177546000Y-99314000D02*
X177546000Y-99314000D01*
X177546000Y-99568000D02*
X177546000Y-99568000D01*
X177419000Y-99441000D02*
X177673000Y-99441000D01*
X180086000Y-99568000D02*
X180086000Y-99568000D01*
X180213000Y-99441000D02*
X180467000Y-99441000D01*
X177165000Y-99441000D02*
X180213000Y-99441000D01*
D27*
X149860000Y-102569000D02*
X149860000Y-99568000D01*
D28*
X177546000Y-99568000D02*
X177419000Y-99441000D01*
X180086000Y-99568000D02*
X180213000Y-99441000D01*
X185604000Y-99638000D02*
X185407000Y-99441000D01*
X147641000Y-104788000D02*
X146812000Y-104788000D01*
D27*
X149860000Y-102569000D02*
X147641000Y-104788000D01*
X146812000Y-99314000D02*
X146685000Y-99441000D01*
X146812000Y-96888000D02*
X146812000Y-99314000D01*
D28*
X140970000Y-99441000D02*
X146685000Y-99441000D01*
D27*
X146812000Y-104788000D02*
X146812000Y-99568000D01*
D28*
X175514000Y-99568000D02*
X177546000Y-99568000D01*
X177546000Y-99568000D02*
X180086000Y-99568000D01*
X185534000Y-99568000D02*
X185604000Y-99638000D01*
X183642000Y-99568000D02*
X185534000Y-99568000D01*
X185293000Y-99441000D02*
X186563000Y-99441000D01*
X186563000Y-99441000D02*
X186817000Y-99441000D01*
X186817000Y-99441000D02*
X187579000Y-99441000D01*
X187579000Y-99441000D02*
X187833000Y-99441000D01*
X187833000Y-99441000D02*
X188201000Y-99441000D01*
X204089000Y-99441000D02*
X204186500Y-99441000D01*
X180594000Y-99314000D02*
X180721000Y-99441000D01*
D27*
X181229000Y-99441000D02*
X188201000Y-99441000D01*
D28*
X180086000Y-99568000D02*
X180594000Y-99568000D01*
D27*
X212979000Y-99441000D02*
X213360000Y-99060000D01*
X187833000Y-99441000D02*
X201041000Y-99441000D01*
X201041000Y-99441000D02*
X204089000Y-99441000D01*
X213360000Y-99060000D02*
X213360000Y-101600000D01*
X180594000Y-99314000D02*
X180594000Y-99314000D01*
D28*
X177546000Y-99314000D02*
X177673000Y-99441000D01*
D27*
X149860000Y-99060000D02*
X149860000Y-99314000D01*
X206502000Y-99060000D02*
X206121000Y-99441000D01*
X206502000Y-96617500D02*
X206502000Y-99060000D01*
X206121000Y-99441000D02*
X212979000Y-99441000D01*
X201041000Y-99441000D02*
X206121000Y-99441000D01*
X206502000Y-99822000D02*
X206121000Y-99441000D01*
X206502000Y-103534500D02*
X206502000Y-99822000D01*
X180975000Y-98933000D02*
X180594000Y-99314000D01*
X180975000Y-95872000D02*
X180975000Y-98933000D01*
X175006000Y-99441000D02*
X178181000Y-99441000D01*
X174371000Y-99441000D02*
X175006000Y-99441000D01*
X180975000Y-99949000D02*
X180467000Y-99441000D01*
X180975000Y-103264000D02*
X180975000Y-99949000D01*
X178689000Y-99441000D02*
X180721000Y-99441000D01*
X178181000Y-99441000D02*
X178689000Y-99441000D01*
X155575000Y-116840000D02*
X158750000Y-116840000D01*
X158750000Y-116840000D02*
X163576000Y-112014000D01*
X163576000Y-112014000D02*
X163576000Y-99441000D01*
X163576000Y-99441000D02*
X174371000Y-99441000D01*
X148971000Y-99441000D02*
X163576000Y-99441000D01*
X163576000Y-99441000D02*
X163576000Y-88011000D01*
X158115000Y-82550000D02*
X155575000Y-82550000D01*
X163576000Y-88011000D02*
X158115000Y-82550000D01*
X175260000Y-99187000D02*
X175006000Y-99441000D01*
X175260000Y-96617500D02*
X175260000Y-99187000D01*
X175260000Y-99695000D02*
X175006000Y-99441000D01*
X175260000Y-103534500D02*
X175260000Y-99695000D01*
D28*
%TO.N,Net-(C10-Pad1)*%
X170653500Y-108809500D02*
X170048000Y-108204000D01*
D27*
X175514000Y-108809500D02*
X171161500Y-108809500D01*
X180340000Y-115570000D02*
X180340000Y-117475000D01*
X175260000Y-110490000D02*
X180340000Y-115570000D01*
X175260000Y-108809500D02*
X175260000Y-110490000D01*
D28*
%TO.N,Net-(C11-Pad2)*%
X170145500Y-91342500D02*
X170048000Y-91440000D01*
X175514000Y-91342500D02*
X170653500Y-91342500D01*
D27*
X175514000Y-91342500D02*
X170145500Y-91342500D01*
%TO.N,Net-(C10-Pad2)*%
X152164000Y-109588000D02*
X153548000Y-108204000D01*
X147574000Y-109588000D02*
X152164000Y-109588000D01*
D28*
%TO.N,Net-(C11-Pad1)*%
X153408000Y-91580000D02*
X153548000Y-91440000D01*
D27*
X152900000Y-92088000D02*
X153548000Y-91440000D01*
X146812000Y-92088000D02*
X152900000Y-92088000D01*
%TO.N,Net-(C15-Pad2)*%
X182245000Y-83820000D02*
X183515000Y-82550000D01*
X179705000Y-83820000D02*
X182245000Y-83820000D01*
D28*
%TO.N,Net-(C16-Pad1)*%
X201641500Y-108809500D02*
X201036000Y-108204000D01*
D27*
X206502000Y-108809500D02*
X201641500Y-108809500D01*
X213360000Y-104140000D02*
X213360000Y-106680000D01*
X208631500Y-106680000D02*
X206502000Y-108809500D01*
X213360000Y-106680000D02*
X208631500Y-106680000D01*
D28*
%TO.N,Net-(C17-Pad2)*%
X201133500Y-91342500D02*
X201036000Y-91440000D01*
D27*
X206502000Y-91342500D02*
X201133500Y-91342500D01*
X213360000Y-96520000D02*
X213360000Y-93980000D01*
X209139500Y-93980000D02*
X206502000Y-91342500D01*
X213360000Y-93980000D02*
X209139500Y-93980000D01*
D28*
%TO.N,Net-(C18-Pad2)*%
X184396000Y-108064000D02*
X184536000Y-108204000D01*
D27*
X181102000Y-108064000D02*
X184396000Y-108064000D01*
D28*
%TO.N,Net-(C19-Pad1)*%
X184168000Y-91072000D02*
X184536000Y-91440000D01*
X181102000Y-91072000D02*
X184168000Y-91072000D01*
D27*
X180594000Y-91072000D02*
X184168000Y-91072000D01*
%TO.N,Net-(R11-Pad1)*%
X168275000Y-116840000D02*
X170815000Y-116840000D01*
X174625000Y-116840000D02*
X175260000Y-117475000D01*
X170815000Y-116840000D02*
X174625000Y-116840000D01*
%TO.N,Net-(R10-Pad2)*%
X168275000Y-82550000D02*
X170815000Y-82550000D01*
X173355000Y-82550000D02*
X174625000Y-83820000D01*
X170815000Y-82550000D02*
X173355000Y-82550000D01*
%TD*%
M02*
