%TF.GenerationSoftware,KiCad,Pcbnew,(5.1.9)-1*%
%TF.CreationDate,2022-01-14T16:31:07-06:00*%
%TF.ProjectId,Power_12V_DualSupply,506f7765-725f-4313-9256-5f4475616c53,rev?*%
%TF.SameCoordinates,Original*%
%TF.FileFunction,Legend,Bot*%
%TF.FilePolarity,Positive*%
%FSLAX46Y46*%
G04 Gerber Fmt 4.6, Leading zero omitted, Abs format (unit mm)*
G04 Created by KiCad (PCBNEW (5.1.9)-1) date 2022-01-14 16:31:07*
%MOMM*%
%LPD*%
G01*
G04 APERTURE LIST*
%ADD10C,0.150000*%
%ADD11C,0.100000*%
%ADD12C,0.120000*%
G04 APERTURE END LIST*
D10*
X210740476Y-98560000D02*
X210835714Y-98512380D01*
X210978571Y-98512380D01*
X211121428Y-98560000D01*
X211216666Y-98655238D01*
X211264285Y-98750476D01*
X211311904Y-98940952D01*
X211311904Y-99083809D01*
X211264285Y-99274285D01*
X211216666Y-99369523D01*
X211121428Y-99464761D01*
X210978571Y-99512380D01*
X210883333Y-99512380D01*
X210740476Y-99464761D01*
X210692857Y-99417142D01*
X210692857Y-99083809D01*
X210883333Y-99083809D01*
X210264285Y-99512380D02*
X210264285Y-98512380D01*
X209692857Y-99512380D01*
X209692857Y-98512380D01*
X209216666Y-99512380D02*
X209216666Y-98512380D01*
X208978571Y-98512380D01*
X208835714Y-98560000D01*
X208740476Y-98655238D01*
X208692857Y-98750476D01*
X208645238Y-98940952D01*
X208645238Y-99083809D01*
X208692857Y-99274285D01*
X208740476Y-99369523D01*
X208835714Y-99464761D01*
X208978571Y-99512380D01*
X209216666Y-99512380D01*
X208264285Y-99226666D02*
X207788095Y-99226666D01*
X208359523Y-99512380D02*
X208026190Y-98512380D01*
X207692857Y-99512380D01*
X211772380Y-103592380D02*
X211439047Y-104592380D01*
X211105714Y-103592380D01*
X210772380Y-104211428D02*
X210010476Y-104211428D01*
X210391428Y-104592380D02*
X210391428Y-103830476D01*
X210740476Y-101100000D02*
X210835714Y-101052380D01*
X210978571Y-101052380D01*
X211121428Y-101100000D01*
X211216666Y-101195238D01*
X211264285Y-101290476D01*
X211311904Y-101480952D01*
X211311904Y-101623809D01*
X211264285Y-101814285D01*
X211216666Y-101909523D01*
X211121428Y-102004761D01*
X210978571Y-102052380D01*
X210883333Y-102052380D01*
X210740476Y-102004761D01*
X210692857Y-101957142D01*
X210692857Y-101623809D01*
X210883333Y-101623809D01*
X210264285Y-102052380D02*
X210264285Y-101052380D01*
X209692857Y-102052380D01*
X209692857Y-101052380D01*
X209216666Y-102052380D02*
X209216666Y-101052380D01*
X208978571Y-101052380D01*
X208835714Y-101100000D01*
X208740476Y-101195238D01*
X208692857Y-101290476D01*
X208645238Y-101480952D01*
X208645238Y-101623809D01*
X208692857Y-101814285D01*
X208740476Y-101909523D01*
X208835714Y-102004761D01*
X208978571Y-102052380D01*
X209216666Y-102052380D01*
X208264285Y-101766666D02*
X207788095Y-101766666D01*
X208359523Y-102052380D02*
X208026190Y-101052380D01*
X207692857Y-102052380D01*
X211772380Y-95972380D02*
X211439047Y-96972380D01*
X211105714Y-95972380D01*
X210772380Y-96591428D02*
X210010476Y-96591428D01*
X211772380Y-93432380D02*
X211439047Y-94432380D01*
X211105714Y-93432380D01*
X210772380Y-94051428D02*
X210010476Y-94051428D01*
X211772380Y-106132380D02*
X211439047Y-107132380D01*
X211105714Y-106132380D01*
X210772380Y-106751428D02*
X210010476Y-106751428D01*
X210391428Y-107132380D02*
X210391428Y-106370476D01*
D11*
X101283333Y-102533333D02*
X101983333Y-102533333D01*
X101983333Y-102266666D01*
X101950000Y-102200000D01*
X101916666Y-102166666D01*
X101850000Y-102133333D01*
X101750000Y-102133333D01*
X101683333Y-102166666D01*
X101650000Y-102200000D01*
X101616666Y-102266666D01*
X101616666Y-102533333D01*
X101983333Y-101900000D02*
X101283333Y-101733333D01*
X101783333Y-101600000D01*
X101283333Y-101466666D01*
X101983333Y-101300000D01*
X101283333Y-100633333D02*
X101616666Y-100866666D01*
X101283333Y-101033333D02*
X101983333Y-101033333D01*
X101983333Y-100766666D01*
X101950000Y-100700000D01*
X101916666Y-100666666D01*
X101850000Y-100633333D01*
X101750000Y-100633333D01*
X101683333Y-100666666D01*
X101650000Y-100700000D01*
X101616666Y-100766666D01*
X101616666Y-101033333D01*
X101950000Y-97053333D02*
X101983333Y-97120000D01*
X101983333Y-97220000D01*
X101950000Y-97320000D01*
X101883333Y-97386666D01*
X101816666Y-97420000D01*
X101683333Y-97453333D01*
X101583333Y-97453333D01*
X101450000Y-97420000D01*
X101383333Y-97386666D01*
X101316666Y-97320000D01*
X101283333Y-97220000D01*
X101283333Y-97153333D01*
X101316666Y-97053333D01*
X101350000Y-97020000D01*
X101583333Y-97020000D01*
X101583333Y-97153333D01*
X101283333Y-96720000D02*
X101983333Y-96720000D01*
X101283333Y-96320000D01*
X101983333Y-96320000D01*
X101283333Y-95986666D02*
X101983333Y-95986666D01*
X101983333Y-95820000D01*
X101950000Y-95720000D01*
X101883333Y-95653333D01*
X101816666Y-95620000D01*
X101683333Y-95586666D01*
X101583333Y-95586666D01*
X101450000Y-95620000D01*
X101383333Y-95653333D01*
X101316666Y-95720000D01*
X101283333Y-95820000D01*
X101283333Y-95986666D01*
X101283333Y-105073333D02*
X101983333Y-105073333D01*
X101983333Y-104806666D01*
X101950000Y-104740000D01*
X101916666Y-104706666D01*
X101850000Y-104673333D01*
X101750000Y-104673333D01*
X101683333Y-104706666D01*
X101650000Y-104740000D01*
X101616666Y-104806666D01*
X101616666Y-105073333D01*
X101983333Y-104440000D02*
X101283333Y-104273333D01*
X101783333Y-104140000D01*
X101283333Y-104006666D01*
X101983333Y-103840000D01*
X101283333Y-103173333D02*
X101616666Y-103406666D01*
X101283333Y-103573333D02*
X101983333Y-103573333D01*
X101983333Y-103306666D01*
X101950000Y-103240000D01*
X101916666Y-103206666D01*
X101850000Y-103173333D01*
X101750000Y-103173333D01*
X101683333Y-103206666D01*
X101650000Y-103240000D01*
X101616666Y-103306666D01*
X101616666Y-103573333D01*
X101950000Y-99593333D02*
X101983333Y-99660000D01*
X101983333Y-99760000D01*
X101950000Y-99860000D01*
X101883333Y-99926666D01*
X101816666Y-99960000D01*
X101683333Y-99993333D01*
X101583333Y-99993333D01*
X101450000Y-99960000D01*
X101383333Y-99926666D01*
X101316666Y-99860000D01*
X101283333Y-99760000D01*
X101283333Y-99693333D01*
X101316666Y-99593333D01*
X101350000Y-99560000D01*
X101583333Y-99560000D01*
X101583333Y-99693333D01*
X101283333Y-99260000D02*
X101983333Y-99260000D01*
X101283333Y-98860000D01*
X101983333Y-98860000D01*
X101283333Y-98526666D02*
X101983333Y-98526666D01*
X101983333Y-98360000D01*
X101950000Y-98260000D01*
X101883333Y-98193333D01*
X101816666Y-98160000D01*
X101683333Y-98126666D01*
X101583333Y-98126666D01*
X101450000Y-98160000D01*
X101383333Y-98193333D01*
X101316666Y-98260000D01*
X101283333Y-98360000D01*
X101283333Y-98526666D01*
D12*
X141224000Y-87376000D02*
X141224000Y-87884000D01*
X120396000Y-87376000D02*
X141224000Y-87376000D01*
X120396000Y-87884000D02*
X120396000Y-87376000D01*
X120396000Y-95504000D02*
X120396000Y-90932000D01*
X120396000Y-100584000D02*
X120396000Y-98552000D01*
X120396000Y-111760000D02*
X120396000Y-103632000D01*
X141224000Y-111760000D02*
X120396000Y-111760000D01*
X141224000Y-111252000D02*
X141224000Y-111760000D01*
X141224000Y-101092000D02*
X141224000Y-107696000D01*
X141224000Y-90932000D02*
X141224000Y-98044000D01*
D10*
X119697333Y-100036380D02*
X119364000Y-101036380D01*
X119030666Y-100036380D01*
X118125904Y-100941142D02*
X118173523Y-100988761D01*
X118316380Y-101036380D01*
X118411619Y-101036380D01*
X118554476Y-100988761D01*
X118649714Y-100893523D01*
X118697333Y-100798285D01*
X118744952Y-100607809D01*
X118744952Y-100464952D01*
X118697333Y-100274476D01*
X118649714Y-100179238D01*
X118554476Y-100084000D01*
X118411619Y-100036380D01*
X118316380Y-100036380D01*
X118173523Y-100084000D01*
X118125904Y-100131619D01*
X117125904Y-100941142D02*
X117173523Y-100988761D01*
X117316380Y-101036380D01*
X117411619Y-101036380D01*
X117554476Y-100988761D01*
X117649714Y-100893523D01*
X117697333Y-100798285D01*
X117744952Y-100607809D01*
X117744952Y-100464952D01*
X117697333Y-100274476D01*
X117649714Y-100179238D01*
X117554476Y-100084000D01*
X117411619Y-100036380D01*
X117316380Y-100036380D01*
X117173523Y-100084000D01*
X117125904Y-100131619D01*
X119125904Y-95004000D02*
X119221142Y-94956380D01*
X119364000Y-94956380D01*
X119506857Y-95004000D01*
X119602095Y-95099238D01*
X119649714Y-95194476D01*
X119697333Y-95384952D01*
X119697333Y-95527809D01*
X119649714Y-95718285D01*
X119602095Y-95813523D01*
X119506857Y-95908761D01*
X119364000Y-95956380D01*
X119268761Y-95956380D01*
X119125904Y-95908761D01*
X119078285Y-95861142D01*
X119078285Y-95527809D01*
X119268761Y-95527809D01*
X118649714Y-95956380D02*
X118649714Y-94956380D01*
X118078285Y-95956380D01*
X118078285Y-94956380D01*
X117602095Y-95956380D02*
X117602095Y-94956380D01*
X117364000Y-94956380D01*
X117221142Y-95004000D01*
X117125904Y-95099238D01*
X117078285Y-95194476D01*
X117030666Y-95384952D01*
X117030666Y-95527809D01*
X117078285Y-95718285D01*
X117125904Y-95813523D01*
X117221142Y-95908761D01*
X117364000Y-95956380D01*
X117602095Y-95956380D01*
X144208380Y-109180380D02*
X143875047Y-110180380D01*
X143541714Y-109180380D01*
X143208380Y-109799428D02*
X142446476Y-109799428D01*
X142827428Y-110180380D02*
X142827428Y-109418476D01*
X144208380Y-88860380D02*
X143875047Y-89860380D01*
X143541714Y-88860380D01*
X143208380Y-89479428D02*
X142446476Y-89479428D01*
X144549714Y-99925142D02*
X144597333Y-99972761D01*
X144740190Y-100020380D01*
X144835428Y-100020380D01*
X144978285Y-99972761D01*
X145073523Y-99877523D01*
X145121142Y-99782285D01*
X145168761Y-99591809D01*
X145168761Y-99448952D01*
X145121142Y-99258476D01*
X145073523Y-99163238D01*
X144978285Y-99068000D01*
X144835428Y-99020380D01*
X144740190Y-99020380D01*
X144597333Y-99068000D01*
X144549714Y-99115619D01*
X143930666Y-99020380D02*
X143740190Y-99020380D01*
X143644952Y-99068000D01*
X143549714Y-99163238D01*
X143502095Y-99353714D01*
X143502095Y-99687047D01*
X143549714Y-99877523D01*
X143644952Y-99972761D01*
X143740190Y-100020380D01*
X143930666Y-100020380D01*
X144025904Y-99972761D01*
X144121142Y-99877523D01*
X144168761Y-99687047D01*
X144168761Y-99353714D01*
X144121142Y-99163238D01*
X144025904Y-99068000D01*
X143930666Y-99020380D01*
X143073523Y-100020380D02*
X143073523Y-99020380D01*
X142740190Y-99734666D01*
X142406857Y-99020380D01*
X142406857Y-100020380D01*
D12*
%TO.C,C18*%
X183134000Y-113792000D02*
X183134000Y-115316000D01*
X184658000Y-115316000D02*
X200914000Y-115316000D01*
X202438000Y-115316000D02*
X202438000Y-113792000D01*
X183134000Y-101092000D02*
X183134000Y-102616000D01*
X184658000Y-101092000D02*
X200914000Y-101092000D01*
X202438000Y-101092000D02*
X202438000Y-102616000D01*
%TO.C,C10*%
X152146000Y-113792000D02*
X152146000Y-115316000D01*
X153670000Y-115316000D02*
X169926000Y-115316000D01*
X171450000Y-115316000D02*
X171450000Y-113792000D01*
X152146000Y-101092000D02*
X152146000Y-102616000D01*
X153670000Y-101092000D02*
X169926000Y-101092000D01*
X171450000Y-101092000D02*
X171450000Y-102616000D01*
%TO.C,C19*%
X202438000Y-85852000D02*
X202438000Y-84328000D01*
X200914000Y-84328000D02*
X184658000Y-84328000D01*
X183134000Y-84328000D02*
X183134000Y-85852000D01*
X202438000Y-98552000D02*
X202438000Y-97028000D01*
X200914000Y-98552000D02*
X184658000Y-98552000D01*
X183134000Y-98552000D02*
X183134000Y-97028000D01*
%TO.C,C11*%
X171450000Y-85852000D02*
X171450000Y-84328000D01*
X169926000Y-84328000D02*
X153670000Y-84328000D01*
X152146000Y-84328000D02*
X152146000Y-85852000D01*
X171450000Y-98552000D02*
X171450000Y-97028000D01*
X169926000Y-98552000D02*
X153670000Y-98552000D01*
X152146000Y-98552000D02*
X152146000Y-97028000D01*
%TO.C,C1*%
X104013000Y-88773000D02*
X102489000Y-88773000D01*
X102489000Y-90297000D02*
X102489000Y-106553000D01*
X102489000Y-108077000D02*
X104013000Y-108077000D01*
X116713000Y-88773000D02*
X115189000Y-88773000D01*
X116713000Y-90297000D02*
X116713000Y-106553000D01*
X116713000Y-108077000D02*
X115189000Y-108077000D01*
%TO.C,C8*%
X177870000Y-107587748D02*
X177870000Y-104756252D01*
X172650000Y-107587748D02*
X172650000Y-104756252D01*
%TO.C,R8*%
X179615000Y-107191064D02*
X179615000Y-104136936D01*
X182335000Y-107191064D02*
X182335000Y-104136936D01*
%TO.C,C16*%
X203892000Y-107587748D02*
X203892000Y-104756252D01*
X209112000Y-107587748D02*
X209112000Y-104756252D01*
%TO.C,C2*%
X125679252Y-103018000D02*
X124256748Y-103018000D01*
X125679252Y-101198000D02*
X124256748Y-101198000D01*
%TO.C,C3*%
X125679252Y-96118000D02*
X124256748Y-96118000D01*
X125679252Y-97938000D02*
X124256748Y-97938000D01*
%TO.C,C6*%
X135128000Y-101092000D02*
X134366000Y-101092000D01*
X134366000Y-101092000D02*
X134366000Y-109220000D01*
X134366000Y-109220000D02*
X135128000Y-109220000D01*
X138176000Y-109220000D02*
X138938000Y-109220000D01*
X138938000Y-109220000D02*
X138938000Y-101092000D01*
X138938000Y-101092000D02*
X138176000Y-101092000D01*
%TO.C,C7*%
X138938000Y-89916000D02*
X138176000Y-89916000D01*
X138938000Y-98044000D02*
X138938000Y-89916000D01*
X138176000Y-98044000D02*
X138938000Y-98044000D01*
X134366000Y-98044000D02*
X135128000Y-98044000D01*
X134366000Y-89916000D02*
X134366000Y-98044000D01*
X135128000Y-89916000D02*
X134366000Y-89916000D01*
%TO.C,C9*%
X172650000Y-95395748D02*
X172650000Y-92564252D01*
X177870000Y-95395748D02*
X177870000Y-92564252D01*
%TO.C,C17*%
X203892000Y-95395748D02*
X203892000Y-92564252D01*
X209112000Y-95395748D02*
X209112000Y-92564252D01*
%TO.C,R1*%
X148172000Y-96015064D02*
X148172000Y-92960936D01*
X145452000Y-96015064D02*
X145452000Y-92960936D01*
%TO.C,R2*%
X145452000Y-108715064D02*
X145452000Y-105660936D01*
X148172000Y-108715064D02*
X148172000Y-105660936D01*
%TO.C,R7*%
X179615000Y-94999064D02*
X179615000Y-91944936D01*
X182335000Y-94999064D02*
X182335000Y-91944936D01*
%TO.C,R9*%
X167235000Y-116840000D02*
X166545000Y-116840000D01*
X156615000Y-116840000D02*
X157305000Y-116840000D01*
X166545000Y-118560000D02*
X157305000Y-118560000D01*
X166545000Y-115120000D02*
X166545000Y-118560000D01*
X157305000Y-115120000D02*
X166545000Y-115120000D01*
X157305000Y-118560000D02*
X157305000Y-115120000D01*
%TO.C,R10*%
X157305000Y-84270000D02*
X157305000Y-80830000D01*
X157305000Y-80830000D02*
X166545000Y-80830000D01*
X166545000Y-80830000D02*
X166545000Y-84270000D01*
X166545000Y-84270000D02*
X157305000Y-84270000D01*
X156615000Y-82550000D02*
X157305000Y-82550000D01*
X167235000Y-82550000D02*
X166545000Y-82550000D01*
%TO.C,R11*%
X182475000Y-116840000D02*
X181785000Y-116840000D01*
X171855000Y-116840000D02*
X172545000Y-116840000D01*
X181785000Y-118560000D02*
X172545000Y-118560000D01*
X181785000Y-115120000D02*
X181785000Y-118560000D01*
X172545000Y-115120000D02*
X181785000Y-115120000D01*
X172545000Y-118560000D02*
X172545000Y-115120000D01*
%TO.C,R12*%
X181785000Y-80830000D02*
X181785000Y-84270000D01*
X181785000Y-84270000D02*
X172545000Y-84270000D01*
X172545000Y-84270000D02*
X172545000Y-80830000D01*
X172545000Y-80830000D02*
X181785000Y-80830000D01*
X182475000Y-82550000D02*
X181785000Y-82550000D01*
X171855000Y-82550000D02*
X172545000Y-82550000D01*
%TO.C,C18*%
D10*
X181998857Y-113133142D02*
X182046476Y-113180761D01*
X182189333Y-113228380D01*
X182284571Y-113228380D01*
X182427428Y-113180761D01*
X182522666Y-113085523D01*
X182570285Y-112990285D01*
X182617904Y-112799809D01*
X182617904Y-112656952D01*
X182570285Y-112466476D01*
X182522666Y-112371238D01*
X182427428Y-112276000D01*
X182284571Y-112228380D01*
X182189333Y-112228380D01*
X182046476Y-112276000D01*
X181998857Y-112323619D01*
X181046476Y-113228380D02*
X181617904Y-113228380D01*
X181332190Y-113228380D02*
X181332190Y-112228380D01*
X181427428Y-112371238D01*
X181522666Y-112466476D01*
X181617904Y-112514095D01*
X180475047Y-112656952D02*
X180570285Y-112609333D01*
X180617904Y-112561714D01*
X180665523Y-112466476D01*
X180665523Y-112418857D01*
X180617904Y-112323619D01*
X180570285Y-112276000D01*
X180475047Y-112228380D01*
X180284571Y-112228380D01*
X180189333Y-112276000D01*
X180141714Y-112323619D01*
X180094095Y-112418857D01*
X180094095Y-112466476D01*
X180141714Y-112561714D01*
X180189333Y-112609333D01*
X180284571Y-112656952D01*
X180475047Y-112656952D01*
X180570285Y-112704571D01*
X180617904Y-112752190D01*
X180665523Y-112847428D01*
X180665523Y-113037904D01*
X180617904Y-113133142D01*
X180570285Y-113180761D01*
X180475047Y-113228380D01*
X180284571Y-113228380D01*
X180189333Y-113180761D01*
X180141714Y-113133142D01*
X180094095Y-113037904D01*
X180094095Y-112847428D01*
X180141714Y-112752190D01*
X180189333Y-112704571D01*
X180284571Y-112656952D01*
X182601904Y-113847619D02*
X182554285Y-113800000D01*
X182459047Y-113752380D01*
X182220952Y-113752380D01*
X182125714Y-113800000D01*
X182078095Y-113847619D01*
X182030476Y-113942857D01*
X182030476Y-114038095D01*
X182078095Y-114180952D01*
X182649523Y-114752380D01*
X182030476Y-114752380D01*
X181601904Y-114657142D02*
X181554285Y-114704761D01*
X181601904Y-114752380D01*
X181649523Y-114704761D01*
X181601904Y-114657142D01*
X181601904Y-114752380D01*
X181173333Y-113847619D02*
X181125714Y-113800000D01*
X181030476Y-113752380D01*
X180792380Y-113752380D01*
X180697142Y-113800000D01*
X180649523Y-113847619D01*
X180601904Y-113942857D01*
X180601904Y-114038095D01*
X180649523Y-114180952D01*
X181220952Y-114752380D01*
X180601904Y-114752380D01*
X178982857Y-114085714D02*
X178982857Y-114752380D01*
X179411428Y-114085714D02*
X179411428Y-114609523D01*
X179363809Y-114704761D01*
X179268571Y-114752380D01*
X179125714Y-114752380D01*
X179030476Y-114704761D01*
X178982857Y-114657142D01*
X178173333Y-114228571D02*
X178506666Y-114228571D01*
X178506666Y-114752380D02*
X178506666Y-113752380D01*
X178030476Y-113752380D01*
%TO.C,C10*%
X151010857Y-113387142D02*
X151058476Y-113434761D01*
X151201333Y-113482380D01*
X151296571Y-113482380D01*
X151439428Y-113434761D01*
X151534666Y-113339523D01*
X151582285Y-113244285D01*
X151629904Y-113053809D01*
X151629904Y-112910952D01*
X151582285Y-112720476D01*
X151534666Y-112625238D01*
X151439428Y-112530000D01*
X151296571Y-112482380D01*
X151201333Y-112482380D01*
X151058476Y-112530000D01*
X151010857Y-112577619D01*
X150058476Y-113482380D02*
X150629904Y-113482380D01*
X150344190Y-113482380D02*
X150344190Y-112482380D01*
X150439428Y-112625238D01*
X150534666Y-112720476D01*
X150629904Y-112768095D01*
X149439428Y-112482380D02*
X149344190Y-112482380D01*
X149248952Y-112530000D01*
X149201333Y-112577619D01*
X149153714Y-112672857D01*
X149106095Y-112863333D01*
X149106095Y-113101428D01*
X149153714Y-113291904D01*
X149201333Y-113387142D01*
X149248952Y-113434761D01*
X149344190Y-113482380D01*
X149439428Y-113482380D01*
X149534666Y-113434761D01*
X149582285Y-113387142D01*
X149629904Y-113291904D01*
X149677523Y-113101428D01*
X149677523Y-112863333D01*
X149629904Y-112672857D01*
X149582285Y-112577619D01*
X149534666Y-112530000D01*
X149439428Y-112482380D01*
X151613904Y-114101619D02*
X151566285Y-114054000D01*
X151471047Y-114006380D01*
X151232952Y-114006380D01*
X151137714Y-114054000D01*
X151090095Y-114101619D01*
X151042476Y-114196857D01*
X151042476Y-114292095D01*
X151090095Y-114434952D01*
X151661523Y-115006380D01*
X151042476Y-115006380D01*
X150613904Y-114911142D02*
X150566285Y-114958761D01*
X150613904Y-115006380D01*
X150661523Y-114958761D01*
X150613904Y-114911142D01*
X150613904Y-115006380D01*
X150185333Y-114101619D02*
X150137714Y-114054000D01*
X150042476Y-114006380D01*
X149804380Y-114006380D01*
X149709142Y-114054000D01*
X149661523Y-114101619D01*
X149613904Y-114196857D01*
X149613904Y-114292095D01*
X149661523Y-114434952D01*
X150232952Y-115006380D01*
X149613904Y-115006380D01*
X147994857Y-114339714D02*
X147994857Y-115006380D01*
X148423428Y-114339714D02*
X148423428Y-114863523D01*
X148375809Y-114958761D01*
X148280571Y-115006380D01*
X148137714Y-115006380D01*
X148042476Y-114958761D01*
X147994857Y-114911142D01*
X147185333Y-114482571D02*
X147518666Y-114482571D01*
X147518666Y-115006380D02*
X147518666Y-114006380D01*
X147042476Y-114006380D01*
%TO.C,C19*%
X181998857Y-85701142D02*
X182046476Y-85748761D01*
X182189333Y-85796380D01*
X182284571Y-85796380D01*
X182427428Y-85748761D01*
X182522666Y-85653523D01*
X182570285Y-85558285D01*
X182617904Y-85367809D01*
X182617904Y-85224952D01*
X182570285Y-85034476D01*
X182522666Y-84939238D01*
X182427428Y-84844000D01*
X182284571Y-84796380D01*
X182189333Y-84796380D01*
X182046476Y-84844000D01*
X181998857Y-84891619D01*
X181046476Y-85796380D02*
X181617904Y-85796380D01*
X181332190Y-85796380D02*
X181332190Y-84796380D01*
X181427428Y-84939238D01*
X181522666Y-85034476D01*
X181617904Y-85082095D01*
X180570285Y-85796380D02*
X180379809Y-85796380D01*
X180284571Y-85748761D01*
X180236952Y-85701142D01*
X180141714Y-85558285D01*
X180094095Y-85367809D01*
X180094095Y-84986857D01*
X180141714Y-84891619D01*
X180189333Y-84844000D01*
X180284571Y-84796380D01*
X180475047Y-84796380D01*
X180570285Y-84844000D01*
X180617904Y-84891619D01*
X180665523Y-84986857D01*
X180665523Y-85224952D01*
X180617904Y-85320190D01*
X180570285Y-85367809D01*
X180475047Y-85415428D01*
X180284571Y-85415428D01*
X180189333Y-85367809D01*
X180141714Y-85320190D01*
X180094095Y-85224952D01*
X182601904Y-86415619D02*
X182554285Y-86368000D01*
X182459047Y-86320380D01*
X182220952Y-86320380D01*
X182125714Y-86368000D01*
X182078095Y-86415619D01*
X182030476Y-86510857D01*
X182030476Y-86606095D01*
X182078095Y-86748952D01*
X182649523Y-87320380D01*
X182030476Y-87320380D01*
X181601904Y-87225142D02*
X181554285Y-87272761D01*
X181601904Y-87320380D01*
X181649523Y-87272761D01*
X181601904Y-87225142D01*
X181601904Y-87320380D01*
X181173333Y-86415619D02*
X181125714Y-86368000D01*
X181030476Y-86320380D01*
X180792380Y-86320380D01*
X180697142Y-86368000D01*
X180649523Y-86415619D01*
X180601904Y-86510857D01*
X180601904Y-86606095D01*
X180649523Y-86748952D01*
X181220952Y-87320380D01*
X180601904Y-87320380D01*
X178982857Y-86653714D02*
X178982857Y-87320380D01*
X179411428Y-86653714D02*
X179411428Y-87177523D01*
X179363809Y-87272761D01*
X179268571Y-87320380D01*
X179125714Y-87320380D01*
X179030476Y-87272761D01*
X178982857Y-87225142D01*
X178173333Y-86796571D02*
X178506666Y-86796571D01*
X178506666Y-87320380D02*
X178506666Y-86320380D01*
X178030476Y-86320380D01*
%TO.C,C11*%
X151010857Y-85701142D02*
X151058476Y-85748761D01*
X151201333Y-85796380D01*
X151296571Y-85796380D01*
X151439428Y-85748761D01*
X151534666Y-85653523D01*
X151582285Y-85558285D01*
X151629904Y-85367809D01*
X151629904Y-85224952D01*
X151582285Y-85034476D01*
X151534666Y-84939238D01*
X151439428Y-84844000D01*
X151296571Y-84796380D01*
X151201333Y-84796380D01*
X151058476Y-84844000D01*
X151010857Y-84891619D01*
X150058476Y-85796380D02*
X150629904Y-85796380D01*
X150344190Y-85796380D02*
X150344190Y-84796380D01*
X150439428Y-84939238D01*
X150534666Y-85034476D01*
X150629904Y-85082095D01*
X149106095Y-85796380D02*
X149677523Y-85796380D01*
X149391809Y-85796380D02*
X149391809Y-84796380D01*
X149487047Y-84939238D01*
X149582285Y-85034476D01*
X149677523Y-85082095D01*
X151613904Y-86415619D02*
X151566285Y-86368000D01*
X151471047Y-86320380D01*
X151232952Y-86320380D01*
X151137714Y-86368000D01*
X151090095Y-86415619D01*
X151042476Y-86510857D01*
X151042476Y-86606095D01*
X151090095Y-86748952D01*
X151661523Y-87320380D01*
X151042476Y-87320380D01*
X150613904Y-87225142D02*
X150566285Y-87272761D01*
X150613904Y-87320380D01*
X150661523Y-87272761D01*
X150613904Y-87225142D01*
X150613904Y-87320380D01*
X150185333Y-86415619D02*
X150137714Y-86368000D01*
X150042476Y-86320380D01*
X149804380Y-86320380D01*
X149709142Y-86368000D01*
X149661523Y-86415619D01*
X149613904Y-86510857D01*
X149613904Y-86606095D01*
X149661523Y-86748952D01*
X150232952Y-87320380D01*
X149613904Y-87320380D01*
X147994857Y-86653714D02*
X147994857Y-87320380D01*
X148423428Y-86653714D02*
X148423428Y-87177523D01*
X148375809Y-87272761D01*
X148280571Y-87320380D01*
X148137714Y-87320380D01*
X148042476Y-87272761D01*
X147994857Y-87225142D01*
X147185333Y-86796571D02*
X147518666Y-86796571D01*
X147518666Y-87320380D02*
X147518666Y-86320380D01*
X147042476Y-86320380D01*
%TO.C,C1*%
X116371666Y-86590142D02*
X116419285Y-86637761D01*
X116562142Y-86685380D01*
X116657380Y-86685380D01*
X116800238Y-86637761D01*
X116895476Y-86542523D01*
X116943095Y-86447285D01*
X116990714Y-86256809D01*
X116990714Y-86113952D01*
X116943095Y-85923476D01*
X116895476Y-85828238D01*
X116800238Y-85733000D01*
X116657380Y-85685380D01*
X116562142Y-85685380D01*
X116419285Y-85733000D01*
X116371666Y-85780619D01*
X115419285Y-86685380D02*
X115990714Y-86685380D01*
X115705000Y-86685380D02*
X115705000Y-85685380D01*
X115800238Y-85828238D01*
X115895476Y-85923476D01*
X115990714Y-85971095D01*
X116942904Y-87304619D02*
X116895285Y-87257000D01*
X116800047Y-87209380D01*
X116561952Y-87209380D01*
X116466714Y-87257000D01*
X116419095Y-87304619D01*
X116371476Y-87399857D01*
X116371476Y-87495095D01*
X116419095Y-87637952D01*
X116990523Y-88209380D01*
X116371476Y-88209380D01*
X115942904Y-88114142D02*
X115895285Y-88161761D01*
X115942904Y-88209380D01*
X115990523Y-88161761D01*
X115942904Y-88114142D01*
X115942904Y-88209380D01*
X115514333Y-87304619D02*
X115466714Y-87257000D01*
X115371476Y-87209380D01*
X115133380Y-87209380D01*
X115038142Y-87257000D01*
X114990523Y-87304619D01*
X114942904Y-87399857D01*
X114942904Y-87495095D01*
X114990523Y-87637952D01*
X115561952Y-88209380D01*
X114942904Y-88209380D01*
X113323857Y-87542714D02*
X113323857Y-88209380D01*
X113752428Y-87542714D02*
X113752428Y-88066523D01*
X113704809Y-88161761D01*
X113609571Y-88209380D01*
X113466714Y-88209380D01*
X113371476Y-88161761D01*
X113323857Y-88114142D01*
X112514333Y-87685571D02*
X112847666Y-87685571D01*
X112847666Y-88209380D02*
X112847666Y-87209380D01*
X112371476Y-87209380D01*
%TO.C,C8*%
X175426666Y-111609142D02*
X175474285Y-111656761D01*
X175617142Y-111704380D01*
X175712380Y-111704380D01*
X175855238Y-111656761D01*
X175950476Y-111561523D01*
X175998095Y-111466285D01*
X176045714Y-111275809D01*
X176045714Y-111132952D01*
X175998095Y-110942476D01*
X175950476Y-110847238D01*
X175855238Y-110752000D01*
X175712380Y-110704380D01*
X175617142Y-110704380D01*
X175474285Y-110752000D01*
X175426666Y-110799619D01*
X174855238Y-111132952D02*
X174950476Y-111085333D01*
X174998095Y-111037714D01*
X175045714Y-110942476D01*
X175045714Y-110894857D01*
X174998095Y-110799619D01*
X174950476Y-110752000D01*
X174855238Y-110704380D01*
X174664761Y-110704380D01*
X174569523Y-110752000D01*
X174521904Y-110799619D01*
X174474285Y-110894857D01*
X174474285Y-110942476D01*
X174521904Y-111037714D01*
X174569523Y-111085333D01*
X174664761Y-111132952D01*
X174855238Y-111132952D01*
X174950476Y-111180571D01*
X174998095Y-111228190D01*
X175045714Y-111323428D01*
X175045714Y-111513904D01*
X174998095Y-111609142D01*
X174950476Y-111656761D01*
X174855238Y-111704380D01*
X174664761Y-111704380D01*
X174569523Y-111656761D01*
X174521904Y-111609142D01*
X174474285Y-111513904D01*
X174474285Y-111323428D01*
X174521904Y-111228190D01*
X174569523Y-111180571D01*
X174664761Y-111132952D01*
X178268000Y-112323619D02*
X178220380Y-112276000D01*
X178125142Y-112228380D01*
X177887047Y-112228380D01*
X177791809Y-112276000D01*
X177744190Y-112323619D01*
X177696571Y-112418857D01*
X177696571Y-112514095D01*
X177744190Y-112656952D01*
X178315619Y-113228380D01*
X177696571Y-113228380D01*
X177315619Y-112323619D02*
X177268000Y-112276000D01*
X177172761Y-112228380D01*
X176934666Y-112228380D01*
X176839428Y-112276000D01*
X176791809Y-112323619D01*
X176744190Y-112418857D01*
X176744190Y-112514095D01*
X176791809Y-112656952D01*
X177363238Y-113228380D01*
X176744190Y-113228380D01*
X176125142Y-112228380D02*
X176029904Y-112228380D01*
X175934666Y-112276000D01*
X175887047Y-112323619D01*
X175839428Y-112418857D01*
X175791809Y-112609333D01*
X175791809Y-112847428D01*
X175839428Y-113037904D01*
X175887047Y-113133142D01*
X175934666Y-113180761D01*
X176029904Y-113228380D01*
X176125142Y-113228380D01*
X176220380Y-113180761D01*
X176268000Y-113133142D01*
X176315619Y-113037904D01*
X176363238Y-112847428D01*
X176363238Y-112609333D01*
X176315619Y-112418857D01*
X176268000Y-112323619D01*
X176220380Y-112276000D01*
X176125142Y-112228380D01*
X174601333Y-112561714D02*
X174601333Y-113228380D01*
X174601333Y-112656952D02*
X174553714Y-112609333D01*
X174458476Y-112561714D01*
X174315619Y-112561714D01*
X174220380Y-112609333D01*
X174172761Y-112704571D01*
X174172761Y-113228380D01*
X173363238Y-112704571D02*
X173696571Y-112704571D01*
X173696571Y-113228380D02*
X173696571Y-112228380D01*
X173220380Y-112228380D01*
%TO.C,R8*%
X181141666Y-102052380D02*
X181475000Y-101576190D01*
X181713095Y-102052380D02*
X181713095Y-101052380D01*
X181332142Y-101052380D01*
X181236904Y-101100000D01*
X181189285Y-101147619D01*
X181141666Y-101242857D01*
X181141666Y-101385714D01*
X181189285Y-101480952D01*
X181236904Y-101528571D01*
X181332142Y-101576190D01*
X181713095Y-101576190D01*
X180570238Y-101480952D02*
X180665476Y-101433333D01*
X180713095Y-101385714D01*
X180760714Y-101290476D01*
X180760714Y-101242857D01*
X180713095Y-101147619D01*
X180665476Y-101100000D01*
X180570238Y-101052380D01*
X180379761Y-101052380D01*
X180284523Y-101100000D01*
X180236904Y-101147619D01*
X180189285Y-101242857D01*
X180189285Y-101290476D01*
X180236904Y-101385714D01*
X180284523Y-101433333D01*
X180379761Y-101480952D01*
X180570238Y-101480952D01*
X180665476Y-101528571D01*
X180713095Y-101576190D01*
X180760714Y-101671428D01*
X180760714Y-101861904D01*
X180713095Y-101957142D01*
X180665476Y-102004761D01*
X180570238Y-102052380D01*
X180379761Y-102052380D01*
X180284523Y-102004761D01*
X180236904Y-101957142D01*
X180189285Y-101861904D01*
X180189285Y-101671428D01*
X180236904Y-101576190D01*
X180284523Y-101528571D01*
X180379761Y-101480952D01*
X181975000Y-109275619D02*
X181927380Y-109228000D01*
X181832142Y-109180380D01*
X181594047Y-109180380D01*
X181498809Y-109228000D01*
X181451190Y-109275619D01*
X181403571Y-109370857D01*
X181403571Y-109466095D01*
X181451190Y-109608952D01*
X182022619Y-110180380D01*
X181403571Y-110180380D01*
X180975000Y-110085142D02*
X180927380Y-110132761D01*
X180975000Y-110180380D01*
X181022619Y-110132761D01*
X180975000Y-110085142D01*
X180975000Y-110180380D01*
X180070238Y-109513714D02*
X180070238Y-110180380D01*
X180308333Y-109132761D02*
X180546428Y-109847047D01*
X179927380Y-109847047D01*
%TO.C,C16*%
X207144857Y-111609142D02*
X207192476Y-111656761D01*
X207335333Y-111704380D01*
X207430571Y-111704380D01*
X207573428Y-111656761D01*
X207668666Y-111561523D01*
X207716285Y-111466285D01*
X207763904Y-111275809D01*
X207763904Y-111132952D01*
X207716285Y-110942476D01*
X207668666Y-110847238D01*
X207573428Y-110752000D01*
X207430571Y-110704380D01*
X207335333Y-110704380D01*
X207192476Y-110752000D01*
X207144857Y-110799619D01*
X206192476Y-111704380D02*
X206763904Y-111704380D01*
X206478190Y-111704380D02*
X206478190Y-110704380D01*
X206573428Y-110847238D01*
X206668666Y-110942476D01*
X206763904Y-110990095D01*
X205335333Y-110704380D02*
X205525809Y-110704380D01*
X205621047Y-110752000D01*
X205668666Y-110799619D01*
X205763904Y-110942476D01*
X205811523Y-111132952D01*
X205811523Y-111513904D01*
X205763904Y-111609142D01*
X205716285Y-111656761D01*
X205621047Y-111704380D01*
X205430571Y-111704380D01*
X205335333Y-111656761D01*
X205287714Y-111609142D01*
X205240095Y-111513904D01*
X205240095Y-111275809D01*
X205287714Y-111180571D01*
X205335333Y-111132952D01*
X205430571Y-111085333D01*
X205621047Y-111085333D01*
X205716285Y-111132952D01*
X205763904Y-111180571D01*
X205811523Y-111275809D01*
X209002000Y-112323619D02*
X208954380Y-112276000D01*
X208859142Y-112228380D01*
X208621047Y-112228380D01*
X208525809Y-112276000D01*
X208478190Y-112323619D01*
X208430571Y-112418857D01*
X208430571Y-112514095D01*
X208478190Y-112656952D01*
X209049619Y-113228380D01*
X208430571Y-113228380D01*
X208049619Y-112323619D02*
X208002000Y-112276000D01*
X207906761Y-112228380D01*
X207668666Y-112228380D01*
X207573428Y-112276000D01*
X207525809Y-112323619D01*
X207478190Y-112418857D01*
X207478190Y-112514095D01*
X207525809Y-112656952D01*
X208097238Y-113228380D01*
X207478190Y-113228380D01*
X206859142Y-112228380D02*
X206763904Y-112228380D01*
X206668666Y-112276000D01*
X206621047Y-112323619D01*
X206573428Y-112418857D01*
X206525809Y-112609333D01*
X206525809Y-112847428D01*
X206573428Y-113037904D01*
X206621047Y-113133142D01*
X206668666Y-113180761D01*
X206763904Y-113228380D01*
X206859142Y-113228380D01*
X206954380Y-113180761D01*
X207002000Y-113133142D01*
X207049619Y-113037904D01*
X207097238Y-112847428D01*
X207097238Y-112609333D01*
X207049619Y-112418857D01*
X207002000Y-112323619D01*
X206954380Y-112276000D01*
X206859142Y-112228380D01*
X205335333Y-112561714D02*
X205335333Y-113228380D01*
X205335333Y-112656952D02*
X205287714Y-112609333D01*
X205192476Y-112561714D01*
X205049619Y-112561714D01*
X204954380Y-112609333D01*
X204906761Y-112704571D01*
X204906761Y-113228380D01*
X204097238Y-112704571D02*
X204430571Y-112704571D01*
X204430571Y-113228380D02*
X204430571Y-112228380D01*
X203954380Y-112228380D01*
%TO.C,C2*%
X128690666Y-102465142D02*
X128738285Y-102512761D01*
X128881142Y-102560380D01*
X128976380Y-102560380D01*
X129119238Y-102512761D01*
X129214476Y-102417523D01*
X129262095Y-102322285D01*
X129309714Y-102131809D01*
X129309714Y-101988952D01*
X129262095Y-101798476D01*
X129214476Y-101703238D01*
X129119238Y-101608000D01*
X128976380Y-101560380D01*
X128881142Y-101560380D01*
X128738285Y-101608000D01*
X128690666Y-101655619D01*
X128309714Y-101655619D02*
X128262095Y-101608000D01*
X128166857Y-101560380D01*
X127928761Y-101560380D01*
X127833523Y-101608000D01*
X127785904Y-101655619D01*
X127738285Y-101750857D01*
X127738285Y-101846095D01*
X127785904Y-101988952D01*
X128357333Y-102560380D01*
X127738285Y-102560380D01*
X126658476Y-104592380D02*
X127229904Y-104592380D01*
X126944190Y-104592380D02*
X126944190Y-103592380D01*
X127039428Y-103735238D01*
X127134666Y-103830476D01*
X127229904Y-103878095D01*
X126229904Y-104497142D02*
X126182285Y-104544761D01*
X126229904Y-104592380D01*
X126277523Y-104544761D01*
X126229904Y-104497142D01*
X126229904Y-104592380D01*
X125277523Y-103592380D02*
X125753714Y-103592380D01*
X125801333Y-104068571D01*
X125753714Y-104020952D01*
X125658476Y-103973333D01*
X125420380Y-103973333D01*
X125325142Y-104020952D01*
X125277523Y-104068571D01*
X125229904Y-104163809D01*
X125229904Y-104401904D01*
X125277523Y-104497142D01*
X125325142Y-104544761D01*
X125420380Y-104592380D01*
X125658476Y-104592380D01*
X125753714Y-104544761D01*
X125801333Y-104497142D01*
X124039428Y-103925714D02*
X124039428Y-104592380D01*
X124039428Y-104020952D02*
X123991809Y-103973333D01*
X123896571Y-103925714D01*
X123753714Y-103925714D01*
X123658476Y-103973333D01*
X123610857Y-104068571D01*
X123610857Y-104592380D01*
X122801333Y-104068571D02*
X123134666Y-104068571D01*
X123134666Y-104592380D02*
X123134666Y-103592380D01*
X122658476Y-103592380D01*
%TO.C,C3*%
X128690666Y-97385142D02*
X128738285Y-97432761D01*
X128881142Y-97480380D01*
X128976380Y-97480380D01*
X129119238Y-97432761D01*
X129214476Y-97337523D01*
X129262095Y-97242285D01*
X129309714Y-97051809D01*
X129309714Y-96908952D01*
X129262095Y-96718476D01*
X129214476Y-96623238D01*
X129119238Y-96528000D01*
X128976380Y-96480380D01*
X128881142Y-96480380D01*
X128738285Y-96528000D01*
X128690666Y-96575619D01*
X128357333Y-96480380D02*
X127738285Y-96480380D01*
X128071619Y-96861333D01*
X127928761Y-96861333D01*
X127833523Y-96908952D01*
X127785904Y-96956571D01*
X127738285Y-97051809D01*
X127738285Y-97289904D01*
X127785904Y-97385142D01*
X127833523Y-97432761D01*
X127928761Y-97480380D01*
X128214476Y-97480380D01*
X128309714Y-97432761D01*
X128357333Y-97385142D01*
X126658476Y-95448380D02*
X127229904Y-95448380D01*
X126944190Y-95448380D02*
X126944190Y-94448380D01*
X127039428Y-94591238D01*
X127134666Y-94686476D01*
X127229904Y-94734095D01*
X126229904Y-95353142D02*
X126182285Y-95400761D01*
X126229904Y-95448380D01*
X126277523Y-95400761D01*
X126229904Y-95353142D01*
X126229904Y-95448380D01*
X125277523Y-94448380D02*
X125753714Y-94448380D01*
X125801333Y-94924571D01*
X125753714Y-94876952D01*
X125658476Y-94829333D01*
X125420380Y-94829333D01*
X125325142Y-94876952D01*
X125277523Y-94924571D01*
X125229904Y-95019809D01*
X125229904Y-95257904D01*
X125277523Y-95353142D01*
X125325142Y-95400761D01*
X125420380Y-95448380D01*
X125658476Y-95448380D01*
X125753714Y-95400761D01*
X125801333Y-95353142D01*
X124039428Y-94781714D02*
X124039428Y-95448380D01*
X124039428Y-94876952D02*
X123991809Y-94829333D01*
X123896571Y-94781714D01*
X123753714Y-94781714D01*
X123658476Y-94829333D01*
X123610857Y-94924571D01*
X123610857Y-95448380D01*
X122801333Y-94924571D02*
X123134666Y-94924571D01*
X123134666Y-95448380D02*
X123134666Y-94448380D01*
X122658476Y-94448380D01*
%TO.C,C6*%
X132754666Y-107545142D02*
X132802285Y-107592761D01*
X132945142Y-107640380D01*
X133040380Y-107640380D01*
X133183238Y-107592761D01*
X133278476Y-107497523D01*
X133326095Y-107402285D01*
X133373714Y-107211809D01*
X133373714Y-107068952D01*
X133326095Y-106878476D01*
X133278476Y-106783238D01*
X133183238Y-106688000D01*
X133040380Y-106640380D01*
X132945142Y-106640380D01*
X132802285Y-106688000D01*
X132754666Y-106735619D01*
X131897523Y-106640380D02*
X132088000Y-106640380D01*
X132183238Y-106688000D01*
X132230857Y-106735619D01*
X132326095Y-106878476D01*
X132373714Y-107068952D01*
X132373714Y-107449904D01*
X132326095Y-107545142D01*
X132278476Y-107592761D01*
X132183238Y-107640380D01*
X131992761Y-107640380D01*
X131897523Y-107592761D01*
X131849904Y-107545142D01*
X131802285Y-107449904D01*
X131802285Y-107211809D01*
X131849904Y-107116571D01*
X131897523Y-107068952D01*
X131992761Y-107021333D01*
X132183238Y-107021333D01*
X132278476Y-107068952D01*
X132326095Y-107116571D01*
X132373714Y-107211809D01*
X133024380Y-109164380D02*
X133595809Y-109164380D01*
X133310095Y-109164380D02*
X133310095Y-108164380D01*
X133405333Y-108307238D01*
X133500571Y-108402476D01*
X133595809Y-108450095D01*
X132405333Y-108164380D02*
X132310095Y-108164380D01*
X132214857Y-108212000D01*
X132167238Y-108259619D01*
X132119619Y-108354857D01*
X132072000Y-108545333D01*
X132072000Y-108783428D01*
X132119619Y-108973904D01*
X132167238Y-109069142D01*
X132214857Y-109116761D01*
X132310095Y-109164380D01*
X132405333Y-109164380D01*
X132500571Y-109116761D01*
X132548190Y-109069142D01*
X132595809Y-108973904D01*
X132643428Y-108783428D01*
X132643428Y-108545333D01*
X132595809Y-108354857D01*
X132548190Y-108259619D01*
X132500571Y-108212000D01*
X132405333Y-108164380D01*
X130452952Y-108497714D02*
X130452952Y-109164380D01*
X130881523Y-108497714D02*
X130881523Y-109021523D01*
X130833904Y-109116761D01*
X130738666Y-109164380D01*
X130595809Y-109164380D01*
X130500571Y-109116761D01*
X130452952Y-109069142D01*
X129643428Y-108640571D02*
X129976761Y-108640571D01*
X129976761Y-109164380D02*
X129976761Y-108164380D01*
X129500571Y-108164380D01*
%TO.C,C7*%
X132754666Y-90781142D02*
X132802285Y-90828761D01*
X132945142Y-90876380D01*
X133040380Y-90876380D01*
X133183238Y-90828761D01*
X133278476Y-90733523D01*
X133326095Y-90638285D01*
X133373714Y-90447809D01*
X133373714Y-90304952D01*
X133326095Y-90114476D01*
X133278476Y-90019238D01*
X133183238Y-89924000D01*
X133040380Y-89876380D01*
X132945142Y-89876380D01*
X132802285Y-89924000D01*
X132754666Y-89971619D01*
X132421333Y-89876380D02*
X131754666Y-89876380D01*
X132183238Y-90876380D01*
X133024380Y-92400380D02*
X133595809Y-92400380D01*
X133310095Y-92400380D02*
X133310095Y-91400380D01*
X133405333Y-91543238D01*
X133500571Y-91638476D01*
X133595809Y-91686095D01*
X132405333Y-91400380D02*
X132310095Y-91400380D01*
X132214857Y-91448000D01*
X132167238Y-91495619D01*
X132119619Y-91590857D01*
X132072000Y-91781333D01*
X132072000Y-92019428D01*
X132119619Y-92209904D01*
X132167238Y-92305142D01*
X132214857Y-92352761D01*
X132310095Y-92400380D01*
X132405333Y-92400380D01*
X132500571Y-92352761D01*
X132548190Y-92305142D01*
X132595809Y-92209904D01*
X132643428Y-92019428D01*
X132643428Y-91781333D01*
X132595809Y-91590857D01*
X132548190Y-91495619D01*
X132500571Y-91448000D01*
X132405333Y-91400380D01*
X130452952Y-91733714D02*
X130452952Y-92400380D01*
X130881523Y-91733714D02*
X130881523Y-92257523D01*
X130833904Y-92352761D01*
X130738666Y-92400380D01*
X130595809Y-92400380D01*
X130500571Y-92352761D01*
X130452952Y-92305142D01*
X129643428Y-91876571D02*
X129976761Y-91876571D01*
X129976761Y-92400380D02*
X129976761Y-91400380D01*
X129500571Y-91400380D01*
%TO.C,C9*%
X175426666Y-88241142D02*
X175474285Y-88288761D01*
X175617142Y-88336380D01*
X175712380Y-88336380D01*
X175855238Y-88288761D01*
X175950476Y-88193523D01*
X175998095Y-88098285D01*
X176045714Y-87907809D01*
X176045714Y-87764952D01*
X175998095Y-87574476D01*
X175950476Y-87479238D01*
X175855238Y-87384000D01*
X175712380Y-87336380D01*
X175617142Y-87336380D01*
X175474285Y-87384000D01*
X175426666Y-87431619D01*
X174950476Y-88336380D02*
X174760000Y-88336380D01*
X174664761Y-88288761D01*
X174617142Y-88241142D01*
X174521904Y-88098285D01*
X174474285Y-87907809D01*
X174474285Y-87526857D01*
X174521904Y-87431619D01*
X174569523Y-87384000D01*
X174664761Y-87336380D01*
X174855238Y-87336380D01*
X174950476Y-87384000D01*
X174998095Y-87431619D01*
X175045714Y-87526857D01*
X175045714Y-87764952D01*
X174998095Y-87860190D01*
X174950476Y-87907809D01*
X174855238Y-87955428D01*
X174664761Y-87955428D01*
X174569523Y-87907809D01*
X174521904Y-87860190D01*
X174474285Y-87764952D01*
X177760000Y-88955619D02*
X177712380Y-88908000D01*
X177617142Y-88860380D01*
X177379047Y-88860380D01*
X177283809Y-88908000D01*
X177236190Y-88955619D01*
X177188571Y-89050857D01*
X177188571Y-89146095D01*
X177236190Y-89288952D01*
X177807619Y-89860380D01*
X177188571Y-89860380D01*
X176807619Y-88955619D02*
X176760000Y-88908000D01*
X176664761Y-88860380D01*
X176426666Y-88860380D01*
X176331428Y-88908000D01*
X176283809Y-88955619D01*
X176236190Y-89050857D01*
X176236190Y-89146095D01*
X176283809Y-89288952D01*
X176855238Y-89860380D01*
X176236190Y-89860380D01*
X175617142Y-88860380D02*
X175521904Y-88860380D01*
X175426666Y-88908000D01*
X175379047Y-88955619D01*
X175331428Y-89050857D01*
X175283809Y-89241333D01*
X175283809Y-89479428D01*
X175331428Y-89669904D01*
X175379047Y-89765142D01*
X175426666Y-89812761D01*
X175521904Y-89860380D01*
X175617142Y-89860380D01*
X175712380Y-89812761D01*
X175760000Y-89765142D01*
X175807619Y-89669904D01*
X175855238Y-89479428D01*
X175855238Y-89241333D01*
X175807619Y-89050857D01*
X175760000Y-88955619D01*
X175712380Y-88908000D01*
X175617142Y-88860380D01*
X174093333Y-89193714D02*
X174093333Y-89860380D01*
X174093333Y-89288952D02*
X174045714Y-89241333D01*
X173950476Y-89193714D01*
X173807619Y-89193714D01*
X173712380Y-89241333D01*
X173664761Y-89336571D01*
X173664761Y-89860380D01*
X172855238Y-89336571D02*
X173188571Y-89336571D01*
X173188571Y-89860380D02*
X173188571Y-88860380D01*
X172712380Y-88860380D01*
%TO.C,C17*%
X207144857Y-88622142D02*
X207192476Y-88669761D01*
X207335333Y-88717380D01*
X207430571Y-88717380D01*
X207573428Y-88669761D01*
X207668666Y-88574523D01*
X207716285Y-88479285D01*
X207763904Y-88288809D01*
X207763904Y-88145952D01*
X207716285Y-87955476D01*
X207668666Y-87860238D01*
X207573428Y-87765000D01*
X207430571Y-87717380D01*
X207335333Y-87717380D01*
X207192476Y-87765000D01*
X207144857Y-87812619D01*
X206192476Y-88717380D02*
X206763904Y-88717380D01*
X206478190Y-88717380D02*
X206478190Y-87717380D01*
X206573428Y-87860238D01*
X206668666Y-87955476D01*
X206763904Y-88003095D01*
X205859142Y-87717380D02*
X205192476Y-87717380D01*
X205621047Y-88717380D01*
X209002000Y-89082619D02*
X208954380Y-89035000D01*
X208859142Y-88987380D01*
X208621047Y-88987380D01*
X208525809Y-89035000D01*
X208478190Y-89082619D01*
X208430571Y-89177857D01*
X208430571Y-89273095D01*
X208478190Y-89415952D01*
X209049619Y-89987380D01*
X208430571Y-89987380D01*
X208049619Y-89082619D02*
X208002000Y-89035000D01*
X207906761Y-88987380D01*
X207668666Y-88987380D01*
X207573428Y-89035000D01*
X207525809Y-89082619D01*
X207478190Y-89177857D01*
X207478190Y-89273095D01*
X207525809Y-89415952D01*
X208097238Y-89987380D01*
X207478190Y-89987380D01*
X206859142Y-88987380D02*
X206763904Y-88987380D01*
X206668666Y-89035000D01*
X206621047Y-89082619D01*
X206573428Y-89177857D01*
X206525809Y-89368333D01*
X206525809Y-89606428D01*
X206573428Y-89796904D01*
X206621047Y-89892142D01*
X206668666Y-89939761D01*
X206763904Y-89987380D01*
X206859142Y-89987380D01*
X206954380Y-89939761D01*
X207002000Y-89892142D01*
X207049619Y-89796904D01*
X207097238Y-89606428D01*
X207097238Y-89368333D01*
X207049619Y-89177857D01*
X207002000Y-89082619D01*
X206954380Y-89035000D01*
X206859142Y-88987380D01*
X205335333Y-89320714D02*
X205335333Y-89987380D01*
X205335333Y-89415952D02*
X205287714Y-89368333D01*
X205192476Y-89320714D01*
X205049619Y-89320714D01*
X204954380Y-89368333D01*
X204906761Y-89463571D01*
X204906761Y-89987380D01*
X204097238Y-89463571D02*
X204430571Y-89463571D01*
X204430571Y-89987380D02*
X204430571Y-88987380D01*
X203954380Y-88987380D01*
%TO.C,R1*%
X144438666Y-92400380D02*
X144772000Y-91924190D01*
X145010095Y-92400380D02*
X145010095Y-91400380D01*
X144629142Y-91400380D01*
X144533904Y-91448000D01*
X144486285Y-91495619D01*
X144438666Y-91590857D01*
X144438666Y-91733714D01*
X144486285Y-91828952D01*
X144533904Y-91876571D01*
X144629142Y-91924190D01*
X145010095Y-91924190D01*
X143486285Y-92400380D02*
X144057714Y-92400380D01*
X143772000Y-92400380D02*
X143772000Y-91400380D01*
X143867238Y-91543238D01*
X143962476Y-91638476D01*
X144057714Y-91686095D01*
X144764000Y-93019619D02*
X144716380Y-92972000D01*
X144621142Y-92924380D01*
X144383047Y-92924380D01*
X144287809Y-92972000D01*
X144240190Y-93019619D01*
X144192571Y-93114857D01*
X144192571Y-93210095D01*
X144240190Y-93352952D01*
X144811619Y-93924380D01*
X144192571Y-93924380D01*
X143764000Y-93829142D02*
X143716380Y-93876761D01*
X143764000Y-93924380D01*
X143811619Y-93876761D01*
X143764000Y-93829142D01*
X143764000Y-93924380D01*
X142859238Y-93257714D02*
X142859238Y-93924380D01*
X143097333Y-92876761D02*
X143335428Y-93591047D01*
X142716380Y-93591047D01*
%TO.C,R2*%
X144438666Y-105100380D02*
X144772000Y-104624190D01*
X145010095Y-105100380D02*
X145010095Y-104100380D01*
X144629142Y-104100380D01*
X144533904Y-104148000D01*
X144486285Y-104195619D01*
X144438666Y-104290857D01*
X144438666Y-104433714D01*
X144486285Y-104528952D01*
X144533904Y-104576571D01*
X144629142Y-104624190D01*
X145010095Y-104624190D01*
X144057714Y-104195619D02*
X144010095Y-104148000D01*
X143914857Y-104100380D01*
X143676761Y-104100380D01*
X143581523Y-104148000D01*
X143533904Y-104195619D01*
X143486285Y-104290857D01*
X143486285Y-104386095D01*
X143533904Y-104528952D01*
X144105333Y-105100380D01*
X143486285Y-105100380D01*
X144764000Y-105719619D02*
X144716380Y-105672000D01*
X144621142Y-105624380D01*
X144383047Y-105624380D01*
X144287809Y-105672000D01*
X144240190Y-105719619D01*
X144192571Y-105814857D01*
X144192571Y-105910095D01*
X144240190Y-106052952D01*
X144811619Y-106624380D01*
X144192571Y-106624380D01*
X143764000Y-106529142D02*
X143716380Y-106576761D01*
X143764000Y-106624380D01*
X143811619Y-106576761D01*
X143764000Y-106529142D01*
X143764000Y-106624380D01*
X142859238Y-105957714D02*
X142859238Y-106624380D01*
X143097333Y-105576761D02*
X143335428Y-106291047D01*
X142716380Y-106291047D01*
%TO.C,R7*%
X181141666Y-89860380D02*
X181475000Y-89384190D01*
X181713095Y-89860380D02*
X181713095Y-88860380D01*
X181332142Y-88860380D01*
X181236904Y-88908000D01*
X181189285Y-88955619D01*
X181141666Y-89050857D01*
X181141666Y-89193714D01*
X181189285Y-89288952D01*
X181236904Y-89336571D01*
X181332142Y-89384190D01*
X181713095Y-89384190D01*
X180808333Y-88860380D02*
X180141666Y-88860380D01*
X180570238Y-89860380D01*
X181975000Y-97083619D02*
X181927380Y-97036000D01*
X181832142Y-96988380D01*
X181594047Y-96988380D01*
X181498809Y-97036000D01*
X181451190Y-97083619D01*
X181403571Y-97178857D01*
X181403571Y-97274095D01*
X181451190Y-97416952D01*
X182022619Y-97988380D01*
X181403571Y-97988380D01*
X180975000Y-97893142D02*
X180927380Y-97940761D01*
X180975000Y-97988380D01*
X181022619Y-97940761D01*
X180975000Y-97893142D01*
X180975000Y-97988380D01*
X180070238Y-97321714D02*
X180070238Y-97988380D01*
X180308333Y-96940761D02*
X180546428Y-97655047D01*
X179927380Y-97655047D01*
%TO.C,R9*%
X154042857Y-116387619D02*
X153995238Y-116340000D01*
X153900000Y-116292380D01*
X153661904Y-116292380D01*
X153566666Y-116340000D01*
X153519047Y-116387619D01*
X153471428Y-116482857D01*
X153471428Y-116578095D01*
X153519047Y-116720952D01*
X154090476Y-117292380D01*
X153471428Y-117292380D01*
X153090476Y-116387619D02*
X153042857Y-116340000D01*
X152947619Y-116292380D01*
X152709523Y-116292380D01*
X152614285Y-116340000D01*
X152566666Y-116387619D01*
X152519047Y-116482857D01*
X152519047Y-116578095D01*
X152566666Y-116720952D01*
X153138095Y-117292380D01*
X152519047Y-117292380D01*
X151900000Y-116292380D02*
X151804761Y-116292380D01*
X151709523Y-116340000D01*
X151661904Y-116387619D01*
X151614285Y-116482857D01*
X151566666Y-116673333D01*
X151566666Y-116911428D01*
X151614285Y-117101904D01*
X151661904Y-117197142D01*
X151709523Y-117244761D01*
X151804761Y-117292380D01*
X151900000Y-117292380D01*
X151995238Y-117244761D01*
X152042857Y-117197142D01*
X152090476Y-117101904D01*
X152138095Y-116911428D01*
X152138095Y-116673333D01*
X152090476Y-116482857D01*
X152042857Y-116387619D01*
X151995238Y-116340000D01*
X151900000Y-116292380D01*
X151138095Y-117292380D02*
X151138095Y-116292380D01*
X151042857Y-116911428D02*
X150757142Y-117292380D01*
X150757142Y-116625714D02*
X151138095Y-117006666D01*
%TO.C,R10*%
X154042857Y-82097619D02*
X153995238Y-82050000D01*
X153900000Y-82002380D01*
X153661904Y-82002380D01*
X153566666Y-82050000D01*
X153519047Y-82097619D01*
X153471428Y-82192857D01*
X153471428Y-82288095D01*
X153519047Y-82430952D01*
X154090476Y-83002380D01*
X153471428Y-83002380D01*
X153090476Y-82097619D02*
X153042857Y-82050000D01*
X152947619Y-82002380D01*
X152709523Y-82002380D01*
X152614285Y-82050000D01*
X152566666Y-82097619D01*
X152519047Y-82192857D01*
X152519047Y-82288095D01*
X152566666Y-82430952D01*
X153138095Y-83002380D01*
X152519047Y-83002380D01*
X151900000Y-82002380D02*
X151804761Y-82002380D01*
X151709523Y-82050000D01*
X151661904Y-82097619D01*
X151614285Y-82192857D01*
X151566666Y-82383333D01*
X151566666Y-82621428D01*
X151614285Y-82811904D01*
X151661904Y-82907142D01*
X151709523Y-82954761D01*
X151804761Y-83002380D01*
X151900000Y-83002380D01*
X151995238Y-82954761D01*
X152042857Y-82907142D01*
X152090476Y-82811904D01*
X152138095Y-82621428D01*
X152138095Y-82383333D01*
X152090476Y-82192857D01*
X152042857Y-82097619D01*
X151995238Y-82050000D01*
X151900000Y-82002380D01*
X151138095Y-83002380D02*
X151138095Y-82002380D01*
X151042857Y-82621428D02*
X150757142Y-83002380D01*
X150757142Y-82335714D02*
X151138095Y-82716666D01*
%TO.C,R11*%
X178442857Y-117292380D02*
X178776190Y-116816190D01*
X179014285Y-117292380D02*
X179014285Y-116292380D01*
X178633333Y-116292380D01*
X178538095Y-116340000D01*
X178490476Y-116387619D01*
X178442857Y-116482857D01*
X178442857Y-116625714D01*
X178490476Y-116720952D01*
X178538095Y-116768571D01*
X178633333Y-116816190D01*
X179014285Y-116816190D01*
X177490476Y-117292380D02*
X178061904Y-117292380D01*
X177776190Y-117292380D02*
X177776190Y-116292380D01*
X177871428Y-116435238D01*
X177966666Y-116530476D01*
X178061904Y-116578095D01*
X176538095Y-117292380D02*
X177109523Y-117292380D01*
X176823809Y-117292380D02*
X176823809Y-116292380D01*
X176919047Y-116435238D01*
X177014285Y-116530476D01*
X177109523Y-116578095D01*
X187221666Y-116387619D02*
X187174047Y-116340000D01*
X187078809Y-116292380D01*
X186840714Y-116292380D01*
X186745476Y-116340000D01*
X186697857Y-116387619D01*
X186650238Y-116482857D01*
X186650238Y-116578095D01*
X186697857Y-116720952D01*
X187269285Y-117292380D01*
X186650238Y-117292380D01*
X185793095Y-116625714D02*
X185793095Y-117292380D01*
X186031190Y-116244761D02*
X186269285Y-116959047D01*
X185650238Y-116959047D01*
X185269285Y-117292380D02*
X185269285Y-116292380D01*
X185174047Y-116911428D02*
X184888333Y-117292380D01*
X184888333Y-116625714D02*
X185269285Y-117006666D01*
%TO.C,R12*%
X187221666Y-82097619D02*
X187174047Y-82050000D01*
X187078809Y-82002380D01*
X186840714Y-82002380D01*
X186745476Y-82050000D01*
X186697857Y-82097619D01*
X186650238Y-82192857D01*
X186650238Y-82288095D01*
X186697857Y-82430952D01*
X187269285Y-83002380D01*
X186650238Y-83002380D01*
X185793095Y-82335714D02*
X185793095Y-83002380D01*
X186031190Y-81954761D02*
X186269285Y-82669047D01*
X185650238Y-82669047D01*
X185269285Y-83002380D02*
X185269285Y-82002380D01*
X185174047Y-82621428D02*
X184888333Y-83002380D01*
X184888333Y-82335714D02*
X185269285Y-82716666D01*
%TD*%
M02*
