%TF.GenerationSoftware,KiCad,Pcbnew,(5.1.9)-1*%
%TF.CreationDate,2022-01-14T16:31:07-06:00*%
%TF.ProjectId,Power_12V_DualSupply,506f7765-725f-4313-9256-5f4475616c53,rev?*%
%TF.SameCoordinates,Original*%
%TF.FileFunction,Copper,L1,Top*%
%TF.FilePolarity,Positive*%
%FSLAX46Y46*%
G04 Gerber Fmt 4.6, Leading zero omitted, Abs format (unit mm)*
G04 Created by KiCad (PCBNEW (5.1.9)-1) date 2022-01-14 16:31:07*
%MOMM*%
%LPD*%
G01*
G04 APERTURE LIST*
%TA.AperFunction,ComponentPad*%
%ADD10R,2.000000X2.000000*%
%TD*%
%TA.AperFunction,ComponentPad*%
%ADD11C,2.000000*%
%TD*%
%TA.AperFunction,SMDPad,CuDef*%
%ADD12R,2.400000X2.600000*%
%TD*%
%TA.AperFunction,SMDPad,CuDef*%
%ADD13R,4.300000X1.950000*%
%TD*%
%TA.AperFunction,SMDPad,CuDef*%
%ADD14R,2.500000X5.000000*%
%TD*%
%TA.AperFunction,SMDPad,CuDef*%
%ADD15R,5.400000X4.900000*%
%TD*%
%TA.AperFunction,SMDPad,CuDef*%
%ADD16R,1.650000X2.850000*%
%TD*%
%TA.AperFunction,ConnectorPad*%
%ADD17C,6.400000*%
%TD*%
%TA.AperFunction,ComponentPad*%
%ADD18C,3.600000*%
%TD*%
%TA.AperFunction,ComponentPad*%
%ADD19R,1.700000X1.700000*%
%TD*%
%TA.AperFunction,ComponentPad*%
%ADD20O,1.700000X1.700000*%
%TD*%
%TA.AperFunction,ComponentPad*%
%ADD21O,1.600000X1.600000*%
%TD*%
%TA.AperFunction,ComponentPad*%
%ADD22C,1.600000*%
%TD*%
%TA.AperFunction,ComponentPad*%
%ADD23R,1.905000X2.000000*%
%TD*%
%TA.AperFunction,ComponentPad*%
%ADD24O,1.905000X2.000000*%
%TD*%
%TA.AperFunction,ViaPad*%
%ADD25C,0.800000*%
%TD*%
%TA.AperFunction,Conductor*%
%ADD26C,1.000000*%
%TD*%
%TA.AperFunction,Conductor*%
%ADD27C,0.250000*%
%TD*%
%TA.AperFunction,Conductor*%
%ADD28C,0.500000*%
%TD*%
%TA.AperFunction,Conductor*%
%ADD29C,0.400000*%
%TD*%
G04 APERTURE END LIST*
D10*
%TO.P,C4,1*%
%TO.N,Net-(C2-Pad1)*%
X149860000Y-107569000D03*
D11*
%TO.P,C4,2*%
%TO.N,GNDA*%
X149860000Y-102569000D03*
%TD*%
D12*
%TO.P,C14,1*%
%TO.N,Net-(C14-Pad1)*%
X185674000Y-109164000D03*
%TO.P,C14,2*%
%TO.N,GNDA*%
X185674000Y-102164000D03*
D13*
X185674000Y-102664000D03*
%TO.P,C14,1*%
%TO.N,Net-(C14-Pad1)*%
X185674000Y-108664000D03*
%TD*%
D14*
%TO.P,L4,2*%
%TO.N,Net-(C16-Pad1)*%
X202592000Y-108204000D03*
%TO.P,L4,1*%
%TO.N,Net-(C14-Pad1)*%
X190092000Y-108204000D03*
%TD*%
D11*
%TO.P,U1,1*%
%TO.N,Net-(C2-Pad2)*%
X120650000Y-101981000D03*
%TO.P,U1,2*%
%TO.N,GND*%
X120650000Y-96901000D03*
%TO.P,U1,6*%
%TO.N,Net-(U1-Pad6)*%
X120650000Y-89281000D03*
%TO.P,U1,5*%
%TO.N,Net-(C3-Pad1)*%
X140970000Y-89281000D03*
%TO.P,U1,4*%
%TO.N,GNDA*%
X140970000Y-99441000D03*
%TO.P,U1,3*%
%TO.N,Net-(C2-Pad1)*%
X140970000Y-109601000D03*
%TD*%
%TO.P,C5,2*%
%TO.N,Net-(C3-Pad1)*%
X149860000Y-89361000D03*
D10*
%TO.P,C5,1*%
%TO.N,GNDA*%
X149860000Y-94361000D03*
%TD*%
%TO.P,C12,2*%
%TO.N,GNDA*%
%TA.AperFunction,SMDPad,CuDef*%
G36*
G01*
X179186000Y-108569999D02*
X179186000Y-109870001D01*
G75*
G02*
X178936001Y-110120000I-249999J0D01*
G01*
X178110999Y-110120000D01*
G75*
G02*
X177861000Y-109870001I0J249999D01*
G01*
X177861000Y-108569999D01*
G75*
G02*
X178110999Y-108320000I249999J0D01*
G01*
X178936001Y-108320000D01*
G75*
G02*
X179186000Y-108569999I0J-249999D01*
G01*
G37*
%TD.AperFunction*%
%TO.P,C12,1*%
%TO.N,Net-(C12-Pad1)*%
%TA.AperFunction,SMDPad,CuDef*%
G36*
G01*
X182311000Y-108569999D02*
X182311000Y-109870001D01*
G75*
G02*
X182061001Y-110120000I-249999J0D01*
G01*
X181235999Y-110120000D01*
G75*
G02*
X180986000Y-109870001I0J249999D01*
G01*
X180986000Y-108569999D01*
G75*
G02*
X181235999Y-108320000I249999J0D01*
G01*
X182061001Y-108320000D01*
G75*
G02*
X182311000Y-108569999I0J-249999D01*
G01*
G37*
%TD.AperFunction*%
%TD*%
%TO.P,C13,2*%
%TO.N,Net-(C13-Pad2)*%
%TA.AperFunction,SMDPad,CuDef*%
G36*
G01*
X179720001Y-94642500D02*
X178419999Y-94642500D01*
G75*
G02*
X178170000Y-94392501I0J249999D01*
G01*
X178170000Y-93567499D01*
G75*
G02*
X178419999Y-93317500I249999J0D01*
G01*
X179720001Y-93317500D01*
G75*
G02*
X179970000Y-93567499I0J-249999D01*
G01*
X179970000Y-94392501D01*
G75*
G02*
X179720001Y-94642500I-249999J0D01*
G01*
G37*
%TD.AperFunction*%
%TO.P,C13,1*%
%TO.N,GNDA*%
%TA.AperFunction,SMDPad,CuDef*%
G36*
G01*
X179720001Y-97767500D02*
X178419999Y-97767500D01*
G75*
G02*
X178170000Y-97517501I0J249999D01*
G01*
X178170000Y-96692499D01*
G75*
G02*
X178419999Y-96442500I249999J0D01*
G01*
X179720001Y-96442500D01*
G75*
G02*
X179970000Y-96692499I0J-249999D01*
G01*
X179970000Y-97517501D01*
G75*
G02*
X179720001Y-97767500I-249999J0D01*
G01*
G37*
%TD.AperFunction*%
%TD*%
D12*
%TO.P,C15,1*%
%TO.N,GNDA*%
X185674000Y-97988000D03*
%TO.P,C15,2*%
%TO.N,Net-(C15-Pad2)*%
X185674000Y-90988000D03*
D13*
X185674000Y-91488000D03*
%TO.P,C15,1*%
%TO.N,GNDA*%
X185674000Y-97488000D03*
%TD*%
D15*
%TO.P,L1,1*%
%TO.N,+28V*%
X109728000Y-107500000D03*
%TO.P,L1,2*%
%TO.N,Net-(C2-Pad2)*%
X109728000Y-95700000D03*
%TD*%
D14*
%TO.P,L2,2*%
%TO.N,Net-(C10-Pad1)*%
X170080000Y-108204000D03*
%TO.P,L2,1*%
%TO.N,Net-(C2-Pad1)*%
X157580000Y-108204000D03*
%TD*%
%TO.P,L3,2*%
%TO.N,Net-(C3-Pad1)*%
X157580000Y-91440000D03*
%TO.P,L3,1*%
%TO.N,Net-(C11-Pad2)*%
X170080000Y-91440000D03*
%TD*%
%TO.P,L5,1*%
%TO.N,Net-(C17-Pad2)*%
X202592000Y-91313000D03*
%TO.P,L5,2*%
%TO.N,Net-(C15-Pad2)*%
X190092000Y-91313000D03*
%TD*%
%TO.P,R3,2*%
%TO.N,GNDA*%
%TA.AperFunction,SMDPad,CuDef*%
G36*
G01*
X175625999Y-96531000D02*
X176926001Y-96531000D01*
G75*
G02*
X177176000Y-96780999I0J-249999D01*
G01*
X177176000Y-97606001D01*
G75*
G02*
X176926001Y-97856000I-249999J0D01*
G01*
X175625999Y-97856000D01*
G75*
G02*
X175376000Y-97606001I0J249999D01*
G01*
X175376000Y-96780999D01*
G75*
G02*
X175625999Y-96531000I249999J0D01*
G01*
G37*
%TD.AperFunction*%
%TO.P,R3,1*%
%TO.N,Net-(C13-Pad2)*%
%TA.AperFunction,SMDPad,CuDef*%
G36*
G01*
X175625999Y-93406000D02*
X176926001Y-93406000D01*
G75*
G02*
X177176000Y-93655999I0J-249999D01*
G01*
X177176000Y-94481001D01*
G75*
G02*
X176926001Y-94731000I-249999J0D01*
G01*
X175625999Y-94731000D01*
G75*
G02*
X175376000Y-94481001I0J249999D01*
G01*
X175376000Y-93655999D01*
G75*
G02*
X175625999Y-93406000I249999J0D01*
G01*
G37*
%TD.AperFunction*%
%TD*%
%TO.P,R4,1*%
%TO.N,GNDA*%
%TA.AperFunction,SMDPad,CuDef*%
G36*
G01*
X177861000Y-113934001D02*
X177861000Y-112633999D01*
G75*
G02*
X178110999Y-112384000I249999J0D01*
G01*
X178936001Y-112384000D01*
G75*
G02*
X179186000Y-112633999I0J-249999D01*
G01*
X179186000Y-113934001D01*
G75*
G02*
X178936001Y-114184000I-249999J0D01*
G01*
X178110999Y-114184000D01*
G75*
G02*
X177861000Y-113934001I0J249999D01*
G01*
G37*
%TD.AperFunction*%
%TO.P,R4,2*%
%TO.N,Net-(C12-Pad1)*%
%TA.AperFunction,SMDPad,CuDef*%
G36*
G01*
X180986000Y-113934001D02*
X180986000Y-112633999D01*
G75*
G02*
X181235999Y-112384000I249999J0D01*
G01*
X182061001Y-112384000D01*
G75*
G02*
X182311000Y-112633999I0J-249999D01*
G01*
X182311000Y-113934001D01*
G75*
G02*
X182061001Y-114184000I-249999J0D01*
G01*
X181235999Y-114184000D01*
G75*
G02*
X180986000Y-113934001I0J249999D01*
G01*
G37*
%TD.AperFunction*%
%TD*%
%TO.P,R5,1*%
%TO.N,GNDA*%
%TA.AperFunction,SMDPad,CuDef*%
G36*
G01*
X174132001Y-96205000D02*
X172831999Y-96205000D01*
G75*
G02*
X172582000Y-95955001I0J249999D01*
G01*
X172582000Y-95129999D01*
G75*
G02*
X172831999Y-94880000I249999J0D01*
G01*
X174132001Y-94880000D01*
G75*
G02*
X174382000Y-95129999I0J-249999D01*
G01*
X174382000Y-95955001D01*
G75*
G02*
X174132001Y-96205000I-249999J0D01*
G01*
G37*
%TD.AperFunction*%
%TO.P,R5,2*%
%TO.N,Net-(R5-Pad2)*%
%TA.AperFunction,SMDPad,CuDef*%
G36*
G01*
X174132001Y-93080000D02*
X172831999Y-93080000D01*
G75*
G02*
X172582000Y-92830001I0J249999D01*
G01*
X172582000Y-92004999D01*
G75*
G02*
X172831999Y-91755000I249999J0D01*
G01*
X174132001Y-91755000D01*
G75*
G02*
X174382000Y-92004999I0J-249999D01*
G01*
X174382000Y-92830001D01*
G75*
G02*
X174132001Y-93080000I-249999J0D01*
G01*
G37*
%TD.AperFunction*%
%TD*%
%TO.P,R6,1*%
%TO.N,GNDA*%
%TA.AperFunction,SMDPad,CuDef*%
G36*
G01*
X177231000Y-108569999D02*
X177231000Y-109870001D01*
G75*
G02*
X176981001Y-110120000I-249999J0D01*
G01*
X176155999Y-110120000D01*
G75*
G02*
X175906000Y-109870001I0J249999D01*
G01*
X175906000Y-108569999D01*
G75*
G02*
X176155999Y-108320000I249999J0D01*
G01*
X176981001Y-108320000D01*
G75*
G02*
X177231000Y-108569999I0J-249999D01*
G01*
G37*
%TD.AperFunction*%
%TO.P,R6,2*%
%TO.N,Net-(R6-Pad2)*%
%TA.AperFunction,SMDPad,CuDef*%
G36*
G01*
X174106000Y-108569999D02*
X174106000Y-109870001D01*
G75*
G02*
X173856001Y-110120000I-249999J0D01*
G01*
X173030999Y-110120000D01*
G75*
G02*
X172781000Y-109870001I0J249999D01*
G01*
X172781000Y-108569999D01*
G75*
G02*
X173030999Y-108320000I249999J0D01*
G01*
X173856001Y-108320000D01*
G75*
G02*
X174106000Y-108569999I0J-249999D01*
G01*
G37*
%TD.AperFunction*%
%TD*%
%TO.P,U2,1*%
%TO.N,Net-(C10-Pad1)*%
%TA.AperFunction,SMDPad,CuDef*%
G36*
G01*
X175179000Y-104139000D02*
X175179000Y-103939000D01*
G75*
G02*
X175279000Y-103839000I100000J0D01*
G01*
X176529000Y-103839000D01*
G75*
G02*
X176629000Y-103939000I0J-100000D01*
G01*
X176629000Y-104139000D01*
G75*
G02*
X176529000Y-104239000I-100000J0D01*
G01*
X175279000Y-104239000D01*
G75*
G02*
X175179000Y-104139000I0J100000D01*
G01*
G37*
%TD.AperFunction*%
%TO.P,U2,2*%
%TA.AperFunction,SMDPad,CuDef*%
G36*
G01*
X175179000Y-104789000D02*
X175179000Y-104589000D01*
G75*
G02*
X175279000Y-104489000I100000J0D01*
G01*
X176529000Y-104489000D01*
G75*
G02*
X176629000Y-104589000I0J-100000D01*
G01*
X176629000Y-104789000D01*
G75*
G02*
X176529000Y-104889000I-100000J0D01*
G01*
X175279000Y-104889000D01*
G75*
G02*
X175179000Y-104789000I0J100000D01*
G01*
G37*
%TD.AperFunction*%
%TO.P,U2,3*%
%TA.AperFunction,SMDPad,CuDef*%
G36*
G01*
X175179000Y-105439000D02*
X175179000Y-105239000D01*
G75*
G02*
X175279000Y-105139000I100000J0D01*
G01*
X176529000Y-105139000D01*
G75*
G02*
X176629000Y-105239000I0J-100000D01*
G01*
X176629000Y-105439000D01*
G75*
G02*
X176529000Y-105539000I-100000J0D01*
G01*
X175279000Y-105539000D01*
G75*
G02*
X175179000Y-105439000I0J100000D01*
G01*
G37*
%TD.AperFunction*%
%TO.P,U2,4*%
%TA.AperFunction,SMDPad,CuDef*%
G36*
G01*
X175179000Y-106089000D02*
X175179000Y-105889000D01*
G75*
G02*
X175279000Y-105789000I100000J0D01*
G01*
X176529000Y-105789000D01*
G75*
G02*
X176629000Y-105889000I0J-100000D01*
G01*
X176629000Y-106089000D01*
G75*
G02*
X176529000Y-106189000I-100000J0D01*
G01*
X175279000Y-106189000D01*
G75*
G02*
X175179000Y-106089000I0J100000D01*
G01*
G37*
%TD.AperFunction*%
%TO.P,U2,5*%
%TO.N,Net-(U2-Pad5)*%
%TA.AperFunction,SMDPad,CuDef*%
G36*
G01*
X175179000Y-106739000D02*
X175179000Y-106539000D01*
G75*
G02*
X175279000Y-106439000I100000J0D01*
G01*
X176529000Y-106439000D01*
G75*
G02*
X176629000Y-106539000I0J-100000D01*
G01*
X176629000Y-106739000D01*
G75*
G02*
X176529000Y-106839000I-100000J0D01*
G01*
X175279000Y-106839000D01*
G75*
G02*
X175179000Y-106739000I0J100000D01*
G01*
G37*
%TD.AperFunction*%
%TO.P,U2,6*%
%TO.N,Net-(R6-Pad2)*%
%TA.AperFunction,SMDPad,CuDef*%
G36*
G01*
X175179000Y-107389000D02*
X175179000Y-107189000D01*
G75*
G02*
X175279000Y-107089000I100000J0D01*
G01*
X176529000Y-107089000D01*
G75*
G02*
X176629000Y-107189000I0J-100000D01*
G01*
X176629000Y-107389000D01*
G75*
G02*
X176529000Y-107489000I-100000J0D01*
G01*
X175279000Y-107489000D01*
G75*
G02*
X175179000Y-107389000I0J100000D01*
G01*
G37*
%TD.AperFunction*%
%TO.P,U2,7*%
%TO.N,Net-(U2-Pad7)*%
%TA.AperFunction,SMDPad,CuDef*%
G36*
G01*
X179479000Y-107389000D02*
X179479000Y-107189000D01*
G75*
G02*
X179579000Y-107089000I100000J0D01*
G01*
X180829000Y-107089000D01*
G75*
G02*
X180929000Y-107189000I0J-100000D01*
G01*
X180929000Y-107389000D01*
G75*
G02*
X180829000Y-107489000I-100000J0D01*
G01*
X179579000Y-107489000D01*
G75*
G02*
X179479000Y-107389000I0J100000D01*
G01*
G37*
%TD.AperFunction*%
%TO.P,U2,8*%
%TO.N,Net-(C12-Pad1)*%
%TA.AperFunction,SMDPad,CuDef*%
G36*
G01*
X179479000Y-106739000D02*
X179479000Y-106539000D01*
G75*
G02*
X179579000Y-106439000I100000J0D01*
G01*
X180829000Y-106439000D01*
G75*
G02*
X180929000Y-106539000I0J-100000D01*
G01*
X180929000Y-106739000D01*
G75*
G02*
X180829000Y-106839000I-100000J0D01*
G01*
X179579000Y-106839000D01*
G75*
G02*
X179479000Y-106739000I0J100000D01*
G01*
G37*
%TD.AperFunction*%
%TO.P,U2,9*%
%TO.N,GNDA*%
%TA.AperFunction,SMDPad,CuDef*%
G36*
G01*
X179479000Y-106089000D02*
X179479000Y-105889000D01*
G75*
G02*
X179579000Y-105789000I100000J0D01*
G01*
X180829000Y-105789000D01*
G75*
G02*
X180929000Y-105889000I0J-100000D01*
G01*
X180929000Y-106089000D01*
G75*
G02*
X180829000Y-106189000I-100000J0D01*
G01*
X179579000Y-106189000D01*
G75*
G02*
X179479000Y-106089000I0J100000D01*
G01*
G37*
%TD.AperFunction*%
%TO.P,U2,10*%
%TO.N,Net-(C14-Pad1)*%
%TA.AperFunction,SMDPad,CuDef*%
G36*
G01*
X179479000Y-105439000D02*
X179479000Y-105239000D01*
G75*
G02*
X179579000Y-105139000I100000J0D01*
G01*
X180829000Y-105139000D01*
G75*
G02*
X180929000Y-105239000I0J-100000D01*
G01*
X180929000Y-105439000D01*
G75*
G02*
X180829000Y-105539000I-100000J0D01*
G01*
X179579000Y-105539000D01*
G75*
G02*
X179479000Y-105439000I0J100000D01*
G01*
G37*
%TD.AperFunction*%
%TO.P,U2,11*%
%TA.AperFunction,SMDPad,CuDef*%
G36*
G01*
X179479000Y-104789000D02*
X179479000Y-104589000D01*
G75*
G02*
X179579000Y-104489000I100000J0D01*
G01*
X180829000Y-104489000D01*
G75*
G02*
X180929000Y-104589000I0J-100000D01*
G01*
X180929000Y-104789000D01*
G75*
G02*
X180829000Y-104889000I-100000J0D01*
G01*
X179579000Y-104889000D01*
G75*
G02*
X179479000Y-104789000I0J100000D01*
G01*
G37*
%TD.AperFunction*%
%TO.P,U2,12*%
%TA.AperFunction,SMDPad,CuDef*%
G36*
G01*
X179479000Y-104139000D02*
X179479000Y-103939000D01*
G75*
G02*
X179579000Y-103839000I100000J0D01*
G01*
X180829000Y-103839000D01*
G75*
G02*
X180929000Y-103939000I0J-100000D01*
G01*
X180929000Y-104139000D01*
G75*
G02*
X180829000Y-104239000I-100000J0D01*
G01*
X179579000Y-104239000D01*
G75*
G02*
X179479000Y-104139000I0J100000D01*
G01*
G37*
%TD.AperFunction*%
D16*
%TO.P,U2,13*%
%TO.N,GNDA*%
X178054000Y-105664000D03*
%TD*%
%TO.P,U3,13*%
%TO.N,Net-(C11-Pad2)*%
X178054000Y-90424000D03*
%TO.P,U3,12*%
%TO.N,Net-(C15-Pad2)*%
%TA.AperFunction,SMDPad,CuDef*%
G36*
G01*
X179479000Y-88899000D02*
X179479000Y-88699000D01*
G75*
G02*
X179579000Y-88599000I100000J0D01*
G01*
X180829000Y-88599000D01*
G75*
G02*
X180929000Y-88699000I0J-100000D01*
G01*
X180929000Y-88899000D01*
G75*
G02*
X180829000Y-88999000I-100000J0D01*
G01*
X179579000Y-88999000D01*
G75*
G02*
X179479000Y-88899000I0J100000D01*
G01*
G37*
%TD.AperFunction*%
%TO.P,U3,11*%
%TA.AperFunction,SMDPad,CuDef*%
G36*
G01*
X179479000Y-89549000D02*
X179479000Y-89349000D01*
G75*
G02*
X179579000Y-89249000I100000J0D01*
G01*
X180829000Y-89249000D01*
G75*
G02*
X180929000Y-89349000I0J-100000D01*
G01*
X180929000Y-89549000D01*
G75*
G02*
X180829000Y-89649000I-100000J0D01*
G01*
X179579000Y-89649000D01*
G75*
G02*
X179479000Y-89549000I0J100000D01*
G01*
G37*
%TD.AperFunction*%
%TO.P,U3,10*%
%TA.AperFunction,SMDPad,CuDef*%
G36*
G01*
X179479000Y-90199000D02*
X179479000Y-89999000D01*
G75*
G02*
X179579000Y-89899000I100000J0D01*
G01*
X180829000Y-89899000D01*
G75*
G02*
X180929000Y-89999000I0J-100000D01*
G01*
X180929000Y-90199000D01*
G75*
G02*
X180829000Y-90299000I-100000J0D01*
G01*
X179579000Y-90299000D01*
G75*
G02*
X179479000Y-90199000I0J100000D01*
G01*
G37*
%TD.AperFunction*%
%TO.P,U3,9*%
%TO.N,GNDA*%
%TA.AperFunction,SMDPad,CuDef*%
G36*
G01*
X179479000Y-90849000D02*
X179479000Y-90649000D01*
G75*
G02*
X179579000Y-90549000I100000J0D01*
G01*
X180829000Y-90549000D01*
G75*
G02*
X180929000Y-90649000I0J-100000D01*
G01*
X180929000Y-90849000D01*
G75*
G02*
X180829000Y-90949000I-100000J0D01*
G01*
X179579000Y-90949000D01*
G75*
G02*
X179479000Y-90849000I0J100000D01*
G01*
G37*
%TD.AperFunction*%
%TO.P,U3,8*%
%TO.N,Net-(C13-Pad2)*%
%TA.AperFunction,SMDPad,CuDef*%
G36*
G01*
X179479000Y-91499000D02*
X179479000Y-91299000D01*
G75*
G02*
X179579000Y-91199000I100000J0D01*
G01*
X180829000Y-91199000D01*
G75*
G02*
X180929000Y-91299000I0J-100000D01*
G01*
X180929000Y-91499000D01*
G75*
G02*
X180829000Y-91599000I-100000J0D01*
G01*
X179579000Y-91599000D01*
G75*
G02*
X179479000Y-91499000I0J100000D01*
G01*
G37*
%TD.AperFunction*%
%TO.P,U3,7*%
%TO.N,Net-(U3-Pad7)*%
%TA.AperFunction,SMDPad,CuDef*%
G36*
G01*
X179479000Y-92149000D02*
X179479000Y-91949000D01*
G75*
G02*
X179579000Y-91849000I100000J0D01*
G01*
X180829000Y-91849000D01*
G75*
G02*
X180929000Y-91949000I0J-100000D01*
G01*
X180929000Y-92149000D01*
G75*
G02*
X180829000Y-92249000I-100000J0D01*
G01*
X179579000Y-92249000D01*
G75*
G02*
X179479000Y-92149000I0J100000D01*
G01*
G37*
%TD.AperFunction*%
%TO.P,U3,6*%
%TO.N,Net-(R5-Pad2)*%
%TA.AperFunction,SMDPad,CuDef*%
G36*
G01*
X175179000Y-92149000D02*
X175179000Y-91949000D01*
G75*
G02*
X175279000Y-91849000I100000J0D01*
G01*
X176529000Y-91849000D01*
G75*
G02*
X176629000Y-91949000I0J-100000D01*
G01*
X176629000Y-92149000D01*
G75*
G02*
X176529000Y-92249000I-100000J0D01*
G01*
X175279000Y-92249000D01*
G75*
G02*
X175179000Y-92149000I0J100000D01*
G01*
G37*
%TD.AperFunction*%
%TO.P,U3,5*%
%TO.N,Net-(U3-Pad5)*%
%TA.AperFunction,SMDPad,CuDef*%
G36*
G01*
X175179000Y-91499000D02*
X175179000Y-91299000D01*
G75*
G02*
X175279000Y-91199000I100000J0D01*
G01*
X176529000Y-91199000D01*
G75*
G02*
X176629000Y-91299000I0J-100000D01*
G01*
X176629000Y-91499000D01*
G75*
G02*
X176529000Y-91599000I-100000J0D01*
G01*
X175279000Y-91599000D01*
G75*
G02*
X175179000Y-91499000I0J100000D01*
G01*
G37*
%TD.AperFunction*%
%TO.P,U3,4*%
%TO.N,Net-(U3-Pad4)*%
%TA.AperFunction,SMDPad,CuDef*%
G36*
G01*
X175179000Y-90849000D02*
X175179000Y-90649000D01*
G75*
G02*
X175279000Y-90549000I100000J0D01*
G01*
X176529000Y-90549000D01*
G75*
G02*
X176629000Y-90649000I0J-100000D01*
G01*
X176629000Y-90849000D01*
G75*
G02*
X176529000Y-90949000I-100000J0D01*
G01*
X175279000Y-90949000D01*
G75*
G02*
X175179000Y-90849000I0J100000D01*
G01*
G37*
%TD.AperFunction*%
%TO.P,U3,3*%
%TO.N,Net-(C11-Pad2)*%
%TA.AperFunction,SMDPad,CuDef*%
G36*
G01*
X175179000Y-90199000D02*
X175179000Y-89999000D01*
G75*
G02*
X175279000Y-89899000I100000J0D01*
G01*
X176529000Y-89899000D01*
G75*
G02*
X176629000Y-89999000I0J-100000D01*
G01*
X176629000Y-90199000D01*
G75*
G02*
X176529000Y-90299000I-100000J0D01*
G01*
X175279000Y-90299000D01*
G75*
G02*
X175179000Y-90199000I0J100000D01*
G01*
G37*
%TD.AperFunction*%
%TO.P,U3,2*%
%TA.AperFunction,SMDPad,CuDef*%
G36*
G01*
X175179000Y-89549000D02*
X175179000Y-89349000D01*
G75*
G02*
X175279000Y-89249000I100000J0D01*
G01*
X176529000Y-89249000D01*
G75*
G02*
X176629000Y-89349000I0J-100000D01*
G01*
X176629000Y-89549000D01*
G75*
G02*
X176529000Y-89649000I-100000J0D01*
G01*
X175279000Y-89649000D01*
G75*
G02*
X175179000Y-89549000I0J100000D01*
G01*
G37*
%TD.AperFunction*%
%TO.P,U3,1*%
%TA.AperFunction,SMDPad,CuDef*%
G36*
G01*
X175179000Y-88899000D02*
X175179000Y-88699000D01*
G75*
G02*
X175279000Y-88599000I100000J0D01*
G01*
X176529000Y-88599000D01*
G75*
G02*
X176629000Y-88699000I0J-100000D01*
G01*
X176629000Y-88899000D01*
G75*
G02*
X176529000Y-88999000I-100000J0D01*
G01*
X175279000Y-88999000D01*
G75*
G02*
X175179000Y-88899000I0J100000D01*
G01*
G37*
%TD.AperFunction*%
%TD*%
D17*
%TO.P,H1,1*%
%TO.N,N/C*%
X109220000Y-84455000D03*
D18*
X109220000Y-84455000D03*
%TD*%
%TO.P,H2,1*%
%TO.N,N/C*%
X210185000Y-84455000D03*
D17*
X210185000Y-84455000D03*
%TD*%
%TO.P,H3,1*%
%TO.N,N/C*%
X210820000Y-114935000D03*
D18*
X210820000Y-114935000D03*
%TD*%
%TO.P,H4,1*%
%TO.N,N/C*%
X109855000Y-114935000D03*
D17*
X109855000Y-114935000D03*
%TD*%
D19*
%TO.P,J1,1*%
%TO.N,+28V*%
X99060000Y-104140000D03*
D20*
%TO.P,J1,2*%
X99060000Y-101600000D03*
%TO.P,J1,3*%
%TO.N,GND*%
X99060000Y-99060000D03*
%TO.P,J1,4*%
X99060000Y-96520000D03*
%TD*%
D19*
%TO.P,J2,1*%
%TO.N,Net-(C16-Pad1)*%
X213360000Y-106680000D03*
D20*
%TO.P,J2,2*%
X213360000Y-104140000D03*
%TO.P,J2,3*%
%TO.N,GNDA*%
X213360000Y-101600000D03*
%TO.P,J2,4*%
X213360000Y-99060000D03*
%TO.P,J2,5*%
%TO.N,Net-(C17-Pad2)*%
X213360000Y-96520000D03*
%TO.P,J2,6*%
X213360000Y-93980000D03*
%TD*%
D21*
%TO.P,R9,2*%
%TO.N,Net-(R11-Pad1)*%
X168275000Y-116840000D03*
D22*
%TO.P,R9,1*%
%TO.N,GNDA*%
X155575000Y-116840000D03*
%TD*%
%TO.P,R10,1*%
%TO.N,GNDA*%
X155575000Y-82550000D03*
D21*
%TO.P,R10,2*%
%TO.N,Net-(R10-Pad2)*%
X168275000Y-82550000D03*
%TD*%
%TO.P,R11,2*%
%TO.N,Net-(C14-Pad1)*%
X183515000Y-116840000D03*
D22*
%TO.P,R11,1*%
%TO.N,Net-(R11-Pad1)*%
X170815000Y-116840000D03*
%TD*%
%TO.P,R12,1*%
%TO.N,Net-(C15-Pad2)*%
X183515000Y-82550000D03*
D21*
%TO.P,R12,2*%
%TO.N,Net-(R10-Pad2)*%
X170815000Y-82550000D03*
%TD*%
D23*
%TO.P,U4,1*%
%TO.N,Net-(R11-Pad1)*%
X175260000Y-117475000D03*
D24*
%TO.P,U4,2*%
%TO.N,Net-(C14-Pad1)*%
X177800000Y-117475000D03*
%TO.P,U4,3*%
%TO.N,Net-(C10-Pad1)*%
X180340000Y-117475000D03*
%TD*%
%TO.P,U5,3*%
%TO.N,Net-(C15-Pad2)*%
X179705000Y-83820000D03*
%TO.P,U5,2*%
%TO.N,Net-(C11-Pad2)*%
X177165000Y-83820000D03*
D23*
%TO.P,U5,1*%
%TO.N,Net-(R10-Pad2)*%
X174625000Y-83820000D03*
%TD*%
D25*
%TO.N,Net-(C16-Pad1)*%
X201168000Y-107696000D03*
X201168000Y-108712000D03*
X201168000Y-110744000D03*
X201168000Y-111760000D03*
X201168000Y-104648000D03*
X201168000Y-109728000D03*
X201168000Y-112776000D03*
X201168000Y-113792000D03*
X201168000Y-102616000D03*
X201168000Y-103632000D03*
X201168000Y-105664000D03*
X201168000Y-106680000D03*
%TO.N,Net-(C17-Pad2)*%
X201168000Y-90932000D03*
X201168000Y-91948000D03*
X201168000Y-93980000D03*
X201168000Y-94996000D03*
X201168000Y-87884000D03*
X201168000Y-92964000D03*
X201168000Y-96012000D03*
X201168000Y-97028000D03*
X201168000Y-85852000D03*
X201168000Y-86868000D03*
X201168000Y-88900000D03*
X201168000Y-89916000D03*
%TO.N,Net-(C11-Pad2)*%
X169926000Y-91186000D03*
X169926000Y-92202000D03*
X169926000Y-94234000D03*
X169926000Y-95250000D03*
X169926000Y-88138000D03*
X169926000Y-93218000D03*
X169926000Y-96266000D03*
X169926000Y-97282000D03*
X169926000Y-86106000D03*
X169926000Y-87122000D03*
X169926000Y-89154000D03*
X169926000Y-90170000D03*
%TO.N,+28V*%
X107950000Y-107315000D03*
X111760000Y-107315000D03*
X111760000Y-105410000D03*
X109855000Y-105410000D03*
X107950000Y-105410000D03*
X109728000Y-107188000D03*
X106997500Y-104457500D03*
X105727500Y-103187500D03*
X104457500Y-101917500D03*
%TO.N,GNDA*%
X175514000Y-99568000D03*
X183642000Y-99568000D03*
X185604000Y-99638000D03*
X187579000Y-99441000D03*
X190119000Y-99441000D03*
X192659000Y-99441000D03*
X195199000Y-99441000D03*
X197739000Y-99441000D03*
X200279000Y-99441000D03*
X202819000Y-99441000D03*
X205359000Y-99441000D03*
X180594000Y-99314000D03*
X177546000Y-99314000D03*
X172339000Y-99441000D03*
X169799000Y-99441000D03*
X167259000Y-99441000D03*
X164719000Y-99441000D03*
X159639000Y-99441000D03*
X162179000Y-99441000D03*
X157099000Y-99441000D03*
X154559000Y-99441000D03*
X152019000Y-99441000D03*
X149860000Y-99060000D03*
X146939000Y-99441000D03*
X144399000Y-99441000D03*
%TO.N,Net-(C10-Pad1)*%
X170180000Y-113792000D03*
X170180000Y-112776000D03*
X170180000Y-111760000D03*
X170180000Y-110744000D03*
X170180000Y-109728000D03*
X170180000Y-108712000D03*
X170180000Y-107696000D03*
X170180000Y-106680000D03*
X170180000Y-105664000D03*
X170180000Y-104648000D03*
X170180000Y-103632000D03*
X170180000Y-102616000D03*
%TD*%
D26*
%TO.N,Net-(C16-Pad1)*%
X201168000Y-110744000D02*
X201168000Y-111760000D01*
X201168000Y-109728000D02*
X201168000Y-110744000D01*
X201168000Y-112776000D02*
X201168000Y-113792000D01*
X201168000Y-111760000D02*
X201168000Y-112776000D01*
X201168000Y-108712000D02*
X201168000Y-109728000D01*
X201168000Y-105664000D02*
X201168000Y-106680000D01*
X201168000Y-102616000D02*
X201168000Y-103632000D01*
X201168000Y-107696000D02*
X201168000Y-108712000D01*
X201168000Y-106680000D02*
X201168000Y-107696000D01*
X201168000Y-104648000D02*
X201168000Y-105664000D01*
X201168000Y-103632000D02*
X201168000Y-104648000D01*
%TO.N,Net-(C17-Pad2)*%
X201168000Y-93980000D02*
X201168000Y-94996000D01*
X201168000Y-92964000D02*
X201168000Y-93980000D01*
X201168000Y-96012000D02*
X201168000Y-97028000D01*
X201168000Y-94996000D02*
X201168000Y-96012000D01*
X201168000Y-91948000D02*
X201168000Y-92964000D01*
X201168000Y-88900000D02*
X201168000Y-89916000D01*
X201168000Y-85852000D02*
X201168000Y-86868000D01*
X201168000Y-90932000D02*
X201168000Y-91948000D01*
X201168000Y-89916000D02*
X201168000Y-90932000D01*
X201168000Y-87884000D02*
X201168000Y-88900000D01*
X201168000Y-86868000D02*
X201168000Y-87884000D01*
%TO.N,Net-(C11-Pad2)*%
X169926000Y-94234000D02*
X169926000Y-95250000D01*
X169926000Y-93218000D02*
X169926000Y-94234000D01*
X169926000Y-96266000D02*
X169926000Y-97282000D01*
X169926000Y-95250000D02*
X169926000Y-96266000D01*
X169926000Y-92202000D02*
X169926000Y-93218000D01*
X169926000Y-89154000D02*
X169926000Y-90170000D01*
X169926000Y-86106000D02*
X169926000Y-87122000D01*
X169926000Y-91186000D02*
X169926000Y-92202000D01*
X169926000Y-90170000D02*
X169926000Y-91186000D01*
X169926000Y-88138000D02*
X169926000Y-89154000D01*
X169926000Y-87122000D02*
X169926000Y-88138000D01*
%TO.N,+28V*%
X99060000Y-104140000D02*
X99060000Y-101600000D01*
X109728000Y-107188000D02*
X109728000Y-107188000D01*
X104140000Y-101600000D02*
X104457500Y-101917500D01*
X99060000Y-101600000D02*
X100965000Y-101600000D01*
X107950000Y-105410000D02*
X109728000Y-107188000D01*
X109728000Y-107188000D02*
X109728000Y-107500000D01*
X106997500Y-104457500D02*
X107950000Y-105410000D01*
X105727500Y-103187500D02*
X106997500Y-104457500D01*
X104457500Y-101917500D02*
X105727500Y-103187500D01*
X102235000Y-101600000D02*
X104140000Y-101600000D01*
X100965000Y-101600000D02*
X102235000Y-101600000D01*
%TO.N,Net-(C2-Pad2)*%
X116009000Y-101981000D02*
X109728000Y-95700000D01*
X120650000Y-101981000D02*
X116009000Y-101981000D01*
D27*
%TO.N,Net-(C2-Pad1)*%
X156945000Y-107569000D02*
X157580000Y-108204000D01*
D26*
X150622000Y-107569000D02*
X156945000Y-107569000D01*
X143002000Y-107569000D02*
X140970000Y-109601000D01*
X149860000Y-107569000D02*
X143002000Y-107569000D01*
D27*
%TO.N,Net-(C3-Pad1)*%
X149780000Y-89281000D02*
X149860000Y-89361000D01*
D26*
X140970000Y-89281000D02*
X149780000Y-89281000D01*
X152447000Y-91948000D02*
X149860000Y-89361000D01*
X157580000Y-91948000D02*
X152447000Y-91948000D01*
D27*
%TO.N,GNDA*%
X185407000Y-99441000D02*
X185604000Y-99638000D01*
X182118000Y-99314000D02*
X182245000Y-99441000D01*
X173482000Y-99314000D02*
X173355000Y-99441000D01*
D26*
X173482000Y-96050500D02*
X173482000Y-99314000D01*
D27*
X142240000Y-99441000D02*
X144399000Y-99441000D01*
X176276000Y-99314000D02*
X176403000Y-99441000D01*
D26*
X176276000Y-97701500D02*
X176276000Y-99314000D01*
D27*
X173355000Y-99441000D02*
X176403000Y-99441000D01*
X179070000Y-99314000D02*
X179197000Y-99441000D01*
D26*
X179070000Y-97613000D02*
X179070000Y-99314000D01*
D27*
X179197000Y-99441000D02*
X182245000Y-99441000D01*
D26*
X176568500Y-109220000D02*
X178523500Y-109220000D01*
D27*
X178054000Y-108750500D02*
X178523500Y-109220000D01*
D28*
X178054000Y-105664000D02*
X178054000Y-108750500D01*
D27*
X178379000Y-105989000D02*
X178054000Y-105664000D01*
X180204000Y-105989000D02*
X178379000Y-105989000D01*
X178054000Y-99568000D02*
X177927000Y-99441000D01*
D26*
X178054000Y-105664000D02*
X178054000Y-99568000D01*
D27*
X177927000Y-99441000D02*
X179197000Y-99441000D01*
X176403000Y-99441000D02*
X177927000Y-99441000D01*
X185674000Y-102664000D02*
X185674000Y-98496000D01*
D26*
X178523500Y-109220000D02*
X178523500Y-113284000D01*
X185674000Y-98496000D02*
X185674000Y-102164000D01*
X185674000Y-98806000D02*
X185039000Y-99441000D01*
X185674000Y-98496000D02*
X185674000Y-98806000D01*
D27*
X185039000Y-99441000D02*
X185407000Y-99441000D01*
X182753000Y-99441000D02*
X185039000Y-99441000D01*
D26*
X184729000Y-99441000D02*
X185674000Y-98496000D01*
X142748000Y-99441000D02*
X146939000Y-99441000D01*
D29*
X182118000Y-91440000D02*
X182118000Y-99314000D01*
X181427000Y-90749000D02*
X182118000Y-91440000D01*
X180204000Y-90749000D02*
X181427000Y-90749000D01*
D26*
X142748000Y-99441000D02*
X141859000Y-99441000D01*
X212979000Y-99441000D02*
X213360000Y-99060000D01*
X180721000Y-99441000D02*
X187579000Y-99441000D01*
X213360000Y-99060000D02*
X213360000Y-101600000D01*
X187579000Y-99441000D02*
X190119000Y-99441000D01*
X190119000Y-99441000D02*
X192659000Y-99441000D01*
X192659000Y-99441000D02*
X195199000Y-99441000D01*
X195199000Y-99441000D02*
X197739000Y-99441000D01*
X197739000Y-99441000D02*
X200279000Y-99441000D01*
X200279000Y-99441000D02*
X202819000Y-99441000D01*
X202819000Y-99441000D02*
X205359000Y-99441000D01*
X205359000Y-99441000D02*
X207899000Y-99441000D01*
X207899000Y-99441000D02*
X210439000Y-99441000D01*
X210439000Y-99441000D02*
X212979000Y-99441000D01*
D27*
X172339000Y-99441000D02*
X173355000Y-99441000D01*
D26*
X169799000Y-99441000D02*
X184729000Y-99441000D01*
D27*
X167259000Y-99441000D02*
X172339000Y-99441000D01*
D26*
X164719000Y-99441000D02*
X169799000Y-99441000D01*
D27*
X159639000Y-99441000D02*
X167259000Y-99441000D01*
D26*
X162179000Y-99441000D02*
X164719000Y-99441000D01*
D27*
X157099000Y-99441000D02*
X159639000Y-99441000D01*
D26*
X154559000Y-99441000D02*
X162179000Y-99441000D01*
D27*
X152019000Y-99441000D02*
X157099000Y-99441000D01*
D26*
X146939000Y-99441000D02*
X154559000Y-99441000D01*
D27*
X144399000Y-99441000D02*
X152019000Y-99441000D01*
D26*
X141859000Y-99441000D02*
X140970000Y-99441000D01*
D29*
%TO.N,Net-(C10-Pad1)*%
X170080000Y-108204000D02*
X170080000Y-106780000D01*
X173595000Y-104689000D02*
X170080000Y-108204000D01*
X175904000Y-104689000D02*
X173595000Y-104689000D01*
X175904000Y-105989000D02*
X174427000Y-105989000D01*
X172212000Y-108204000D02*
X170080000Y-108204000D01*
X174427000Y-105989000D02*
X172212000Y-108204000D01*
X175904000Y-105339000D02*
X174061000Y-105339000D01*
X174061000Y-105339000D02*
X171958000Y-107442000D01*
X170842000Y-107442000D02*
X170080000Y-108204000D01*
X171958000Y-107442000D02*
X170842000Y-107442000D01*
X175904000Y-104039000D02*
X173075000Y-104039000D01*
X170080000Y-107034000D02*
X170080000Y-108204000D01*
X173075000Y-104039000D02*
X170080000Y-107034000D01*
D26*
X170180000Y-102562000D02*
X170180000Y-102616000D01*
X170180000Y-113792000D02*
X170180000Y-113792000D01*
X170180000Y-112776000D02*
X170180000Y-113792000D01*
X170180000Y-111760000D02*
X170180000Y-112776000D01*
X170180000Y-110744000D02*
X170180000Y-111760000D01*
X170180000Y-109728000D02*
X170180000Y-110744000D01*
X170180000Y-108712000D02*
X170180000Y-109728000D01*
X170180000Y-107696000D02*
X170180000Y-108712000D01*
X170180000Y-106680000D02*
X170180000Y-107696000D01*
X170180000Y-105664000D02*
X170180000Y-106680000D01*
X170180000Y-104648000D02*
X170180000Y-105664000D01*
X170180000Y-103632000D02*
X170180000Y-104648000D01*
X170180000Y-102616000D02*
X170180000Y-103632000D01*
D27*
%TO.N,Net-(C11-Pad2)*%
X175904000Y-90099000D02*
X175839000Y-90099000D01*
D29*
X175904000Y-88799000D02*
X173229000Y-88799000D01*
D27*
X177729000Y-90099000D02*
X178054000Y-90424000D01*
D29*
X175904000Y-90099000D02*
X177729000Y-90099000D01*
X177079000Y-89449000D02*
X178054000Y-90424000D01*
X175904000Y-89449000D02*
X177079000Y-89449000D01*
X175904000Y-88799000D02*
X177445000Y-88799000D01*
D27*
X178054000Y-89408000D02*
X178054000Y-90424000D01*
D29*
X177445000Y-88799000D02*
X178054000Y-89408000D01*
X170080000Y-91440000D02*
X170080000Y-90270000D01*
X171551000Y-88799000D02*
X173229000Y-88799000D01*
X170080000Y-90270000D02*
X171551000Y-88799000D01*
X172071000Y-89449000D02*
X170080000Y-91440000D01*
X175904000Y-89449000D02*
X172071000Y-89449000D01*
X173411000Y-90099000D02*
X172537000Y-90099000D01*
X175904000Y-90099000D02*
X173411000Y-90099000D01*
X173411000Y-90099000D02*
X172791000Y-90099000D01*
X171196000Y-91440000D02*
X170080000Y-91440000D01*
X172537000Y-90099000D02*
X171196000Y-91440000D01*
D26*
X177165000Y-85820000D02*
X175990000Y-86995000D01*
X177165000Y-83820000D02*
X177165000Y-85820000D01*
X171069000Y-86995000D02*
X169926000Y-88138000D01*
X175990000Y-86995000D02*
X173863000Y-86995000D01*
X170053000Y-86995000D02*
X169926000Y-87122000D01*
X172085000Y-86995000D02*
X170053000Y-86995000D01*
X173863000Y-86995000D02*
X172085000Y-86995000D01*
X172085000Y-86995000D02*
X171069000Y-86995000D01*
D27*
%TO.N,Net-(C12-Pad1)*%
X181648500Y-107358500D02*
X181648500Y-109220000D01*
X180929000Y-106639000D02*
X181648500Y-107358500D01*
X180204000Y-106639000D02*
X180929000Y-106639000D01*
D26*
X181648500Y-109220000D02*
X181648500Y-113284000D01*
D27*
%TO.N,Net-(C13-Pad2)*%
X180929000Y-91399000D02*
X180970000Y-91440000D01*
X180204000Y-91399000D02*
X180929000Y-91399000D01*
X180970000Y-91440000D02*
X181102000Y-91440000D01*
X179599058Y-93980000D02*
X179070000Y-93980000D01*
X178981500Y-94068500D02*
X179070000Y-93980000D01*
D29*
X176276000Y-94068500D02*
X178981500Y-94068500D01*
D28*
X179775834Y-93980000D02*
X179070000Y-93980000D01*
D29*
X181379010Y-92376824D02*
X179775834Y-93980000D01*
X181056834Y-91399000D02*
X180204000Y-91399000D01*
X181379010Y-91721176D02*
X181056834Y-91399000D01*
X181379010Y-92376824D02*
X181379010Y-91721176D01*
D27*
%TO.N,Net-(C14-Pad1)*%
X189632000Y-108664000D02*
X190092000Y-108204000D01*
D26*
X185674000Y-108664000D02*
X189632000Y-108664000D01*
D27*
X180204000Y-104039000D02*
X180493000Y-104039000D01*
X185626000Y-108664000D02*
X185674000Y-108664000D01*
D29*
X185674000Y-109164000D02*
X185674000Y-106934000D01*
X182779000Y-104039000D02*
X180204000Y-104039000D01*
X185674000Y-106934000D02*
X182779000Y-104039000D01*
X185674000Y-109164000D02*
X185674000Y-108204000D01*
X182159000Y-104689000D02*
X180204000Y-104689000D01*
X185674000Y-108204000D02*
X182159000Y-104689000D01*
X185674000Y-108664000D02*
X184864000Y-108664000D01*
X181539000Y-105339000D02*
X180204000Y-105339000D01*
X184864000Y-108664000D02*
X181539000Y-105339000D01*
D26*
X179500010Y-115774990D02*
X177800000Y-117475000D01*
X182449990Y-115774990D02*
X179500010Y-115774990D01*
X183515000Y-116840000D02*
X182449990Y-115774990D01*
X182449990Y-115774990D02*
X183945010Y-115774990D01*
X185674000Y-114046000D02*
X185674000Y-109164000D01*
X183945010Y-115774990D02*
X185674000Y-114046000D01*
D27*
%TO.N,Net-(C15-Pad2)*%
X189603000Y-91623000D02*
X189738000Y-91488000D01*
X189073000Y-90323000D02*
X189738000Y-90988000D01*
X189223000Y-90973000D02*
X189738000Y-91488000D01*
X184785000Y-90099000D02*
X185674000Y-90988000D01*
X185849000Y-91313000D02*
X185674000Y-91488000D01*
D26*
X190092000Y-91313000D02*
X185849000Y-91313000D01*
D29*
X185674000Y-91488000D02*
X185674000Y-89662000D01*
X184811000Y-88799000D02*
X180204000Y-88799000D01*
X185674000Y-89662000D02*
X184811000Y-88799000D01*
X184135000Y-89449000D02*
X185674000Y-90988000D01*
X180204000Y-89449000D02*
X184135000Y-89449000D01*
X180204000Y-90099000D02*
X183317000Y-90099000D01*
X184706000Y-91488000D02*
X185674000Y-91488000D01*
X183317000Y-90099000D02*
X184706000Y-91488000D01*
D26*
X185674000Y-90988000D02*
X185674000Y-87884000D01*
X185674000Y-87884000D02*
X183515000Y-85725000D01*
X181610000Y-83820000D02*
X185674000Y-87884000D01*
X179705000Y-83820000D02*
X181610000Y-83820000D01*
%TO.N,Net-(C16-Pad1)*%
X201676000Y-108204000D02*
X201168000Y-107696000D01*
X202592000Y-108204000D02*
X201676000Y-108204000D01*
%TO.N,Net-(C17-Pad2)*%
X201549000Y-91313000D02*
X201168000Y-90932000D01*
X202592000Y-91313000D02*
X201549000Y-91313000D01*
D27*
%TO.N,Net-(R5-Pad2)*%
X173850500Y-92049000D02*
X173482000Y-92417500D01*
D29*
X175904000Y-92049000D02*
X173850500Y-92049000D01*
D27*
%TO.N,Net-(R6-Pad2)*%
X173973000Y-109220000D02*
X173443500Y-109220000D01*
D29*
X175374500Y-107289000D02*
X173443500Y-109220000D01*
X175904000Y-107289000D02*
X175374500Y-107289000D01*
%TD*%
M02*
