%TF.GenerationSoftware,KiCad,Pcbnew,(5.1.9)-1*%
%TF.CreationDate,2022-01-14T16:31:07-06:00*%
%TF.ProjectId,Power_12V_DualSupply,506f7765-725f-4313-9256-5f4475616c53,rev?*%
%TF.SameCoordinates,Original*%
%TF.FileFunction,Paste,Bot*%
%TF.FilePolarity,Positive*%
%FSLAX46Y46*%
G04 Gerber Fmt 4.6, Leading zero omitted, Abs format (unit mm)*
G04 Created by KiCad (PCBNEW (5.1.9)-1) date 2022-01-14 16:31:07*
%MOMM*%
%LPD*%
G01*
G04 APERTURE LIST*
%ADD10R,1.050000X13.700000*%
%ADD11R,2.500000X13.700000*%
%ADD12R,13.700000X1.050000*%
%ADD13R,13.700000X2.500000*%
%ADD14R,4.300000X1.950000*%
%ADD15R,2.400000X2.600000*%
G04 APERTURE END LIST*
D10*
%TO.C,C18*%
X200086000Y-108204000D03*
X185486000Y-108204000D03*
D11*
X184536000Y-108204000D03*
X201036000Y-108204000D03*
%TD*%
D10*
%TO.C,C10*%
X169098000Y-108204000D03*
X154498000Y-108204000D03*
D11*
X153548000Y-108204000D03*
X170048000Y-108204000D03*
%TD*%
D10*
%TO.C,C19*%
X185486000Y-91440000D03*
X200086000Y-91440000D03*
D11*
X201036000Y-91440000D03*
X184536000Y-91440000D03*
%TD*%
D10*
%TO.C,C11*%
X154498000Y-91440000D03*
X169098000Y-91440000D03*
D11*
X170048000Y-91440000D03*
X153548000Y-91440000D03*
%TD*%
D12*
%TO.C,C1*%
X109601000Y-105725000D03*
X109601000Y-91125000D03*
D13*
X109601000Y-90175000D03*
X109601000Y-106675000D03*
%TD*%
%TO.C,C8*%
G36*
G01*
X177710002Y-109797000D02*
X172809998Y-109797000D01*
G75*
G02*
X172560000Y-109547002I0J249998D01*
G01*
X172560000Y-108071998D01*
G75*
G02*
X172809998Y-107822000I249998J0D01*
G01*
X177710002Y-107822000D01*
G75*
G02*
X177960000Y-108071998I0J-249998D01*
G01*
X177960000Y-109547002D01*
G75*
G02*
X177710002Y-109797000I-249998J0D01*
G01*
G37*
G36*
G01*
X177710002Y-104522000D02*
X172809998Y-104522000D01*
G75*
G02*
X172560000Y-104272002I0J249998D01*
G01*
X172560000Y-102796998D01*
G75*
G02*
X172809998Y-102547000I249998J0D01*
G01*
X177710002Y-102547000D01*
G75*
G02*
X177960000Y-102796998I0J-249998D01*
G01*
X177960000Y-104272002D01*
G75*
G02*
X177710002Y-104522000I-249998J0D01*
G01*
G37*
%TD*%
%TO.C,R8*%
G36*
G01*
X182050001Y-103964000D02*
X179899999Y-103964000D01*
G75*
G02*
X179650000Y-103714001I0J249999D01*
G01*
X179650000Y-102813999D01*
G75*
G02*
X179899999Y-102564000I249999J0D01*
G01*
X182050001Y-102564000D01*
G75*
G02*
X182300000Y-102813999I0J-249999D01*
G01*
X182300000Y-103714001D01*
G75*
G02*
X182050001Y-103964000I-249999J0D01*
G01*
G37*
G36*
G01*
X182050001Y-108764000D02*
X179899999Y-108764000D01*
G75*
G02*
X179650000Y-108514001I0J249999D01*
G01*
X179650000Y-107613999D01*
G75*
G02*
X179899999Y-107364000I249999J0D01*
G01*
X182050001Y-107364000D01*
G75*
G02*
X182300000Y-107613999I0J-249999D01*
G01*
X182300000Y-108514001D01*
G75*
G02*
X182050001Y-108764000I-249999J0D01*
G01*
G37*
%TD*%
%TO.C,C16*%
G36*
G01*
X208952002Y-104522000D02*
X204051998Y-104522000D01*
G75*
G02*
X203802000Y-104272002I0J249998D01*
G01*
X203802000Y-102796998D01*
G75*
G02*
X204051998Y-102547000I249998J0D01*
G01*
X208952002Y-102547000D01*
G75*
G02*
X209202000Y-102796998I0J-249998D01*
G01*
X209202000Y-104272002D01*
G75*
G02*
X208952002Y-104522000I-249998J0D01*
G01*
G37*
G36*
G01*
X208952002Y-109797000D02*
X204051998Y-109797000D01*
G75*
G02*
X203802000Y-109547002I0J249998D01*
G01*
X203802000Y-108071998D01*
G75*
G02*
X204051998Y-107822000I249998J0D01*
G01*
X208952002Y-107822000D01*
G75*
G02*
X209202000Y-108071998I0J-249998D01*
G01*
X209202000Y-109547002D01*
G75*
G02*
X208952002Y-109797000I-249998J0D01*
G01*
G37*
%TD*%
%TO.C,C2*%
G36*
G01*
X124068000Y-101457999D02*
X124068000Y-102758001D01*
G75*
G02*
X123818001Y-103008000I-249999J0D01*
G01*
X122992999Y-103008000D01*
G75*
G02*
X122743000Y-102758001I0J249999D01*
G01*
X122743000Y-101457999D01*
G75*
G02*
X122992999Y-101208000I249999J0D01*
G01*
X123818001Y-101208000D01*
G75*
G02*
X124068000Y-101457999I0J-249999D01*
G01*
G37*
G36*
G01*
X127193000Y-101457999D02*
X127193000Y-102758001D01*
G75*
G02*
X126943001Y-103008000I-249999J0D01*
G01*
X126117999Y-103008000D01*
G75*
G02*
X125868000Y-102758001I0J249999D01*
G01*
X125868000Y-101457999D01*
G75*
G02*
X126117999Y-101208000I249999J0D01*
G01*
X126943001Y-101208000D01*
G75*
G02*
X127193000Y-101457999I0J-249999D01*
G01*
G37*
%TD*%
%TO.C,C3*%
G36*
G01*
X127193000Y-96377999D02*
X127193000Y-97678001D01*
G75*
G02*
X126943001Y-97928000I-249999J0D01*
G01*
X126117999Y-97928000D01*
G75*
G02*
X125868000Y-97678001I0J249999D01*
G01*
X125868000Y-96377999D01*
G75*
G02*
X126117999Y-96128000I249999J0D01*
G01*
X126943001Y-96128000D01*
G75*
G02*
X127193000Y-96377999I0J-249999D01*
G01*
G37*
G36*
G01*
X124068000Y-96377999D02*
X124068000Y-97678001D01*
G75*
G02*
X123818001Y-97928000I-249999J0D01*
G01*
X122992999Y-97928000D01*
G75*
G02*
X122743000Y-97678001I0J249999D01*
G01*
X122743000Y-96377999D01*
G75*
G02*
X122992999Y-96128000I249999J0D01*
G01*
X123818001Y-96128000D01*
G75*
G02*
X124068000Y-96377999I0J-249999D01*
G01*
G37*
%TD*%
D14*
%TO.C,C6*%
X136652000Y-108156000D03*
X136652000Y-102156000D03*
D15*
X136652000Y-101656000D03*
X136652000Y-108656000D03*
%TD*%
%TO.C,C7*%
X136652000Y-97480000D03*
X136652000Y-90480000D03*
D14*
X136652000Y-90980000D03*
X136652000Y-96980000D03*
%TD*%
%TO.C,C9*%
G36*
G01*
X177710002Y-92330000D02*
X172809998Y-92330000D01*
G75*
G02*
X172560000Y-92080002I0J249998D01*
G01*
X172560000Y-90604998D01*
G75*
G02*
X172809998Y-90355000I249998J0D01*
G01*
X177710002Y-90355000D01*
G75*
G02*
X177960000Y-90604998I0J-249998D01*
G01*
X177960000Y-92080002D01*
G75*
G02*
X177710002Y-92330000I-249998J0D01*
G01*
G37*
G36*
G01*
X177710002Y-97605000D02*
X172809998Y-97605000D01*
G75*
G02*
X172560000Y-97355002I0J249998D01*
G01*
X172560000Y-95879998D01*
G75*
G02*
X172809998Y-95630000I249998J0D01*
G01*
X177710002Y-95630000D01*
G75*
G02*
X177960000Y-95879998I0J-249998D01*
G01*
X177960000Y-97355002D01*
G75*
G02*
X177710002Y-97605000I-249998J0D01*
G01*
G37*
%TD*%
%TO.C,C17*%
G36*
G01*
X208952002Y-92330000D02*
X204051998Y-92330000D01*
G75*
G02*
X203802000Y-92080002I0J249998D01*
G01*
X203802000Y-90604998D01*
G75*
G02*
X204051998Y-90355000I249998J0D01*
G01*
X208952002Y-90355000D01*
G75*
G02*
X209202000Y-90604998I0J-249998D01*
G01*
X209202000Y-92080002D01*
G75*
G02*
X208952002Y-92330000I-249998J0D01*
G01*
G37*
G36*
G01*
X208952002Y-97605000D02*
X204051998Y-97605000D01*
G75*
G02*
X203802000Y-97355002I0J249998D01*
G01*
X203802000Y-95879998D01*
G75*
G02*
X204051998Y-95630000I249998J0D01*
G01*
X208952002Y-95630000D01*
G75*
G02*
X209202000Y-95879998I0J-249998D01*
G01*
X209202000Y-97355002D01*
G75*
G02*
X208952002Y-97605000I-249998J0D01*
G01*
G37*
%TD*%
%TO.C,R1*%
G36*
G01*
X147887001Y-97588000D02*
X145736999Y-97588000D01*
G75*
G02*
X145487000Y-97338001I0J249999D01*
G01*
X145487000Y-96437999D01*
G75*
G02*
X145736999Y-96188000I249999J0D01*
G01*
X147887001Y-96188000D01*
G75*
G02*
X148137000Y-96437999I0J-249999D01*
G01*
X148137000Y-97338001D01*
G75*
G02*
X147887001Y-97588000I-249999J0D01*
G01*
G37*
G36*
G01*
X147887001Y-92788000D02*
X145736999Y-92788000D01*
G75*
G02*
X145487000Y-92538001I0J249999D01*
G01*
X145487000Y-91637999D01*
G75*
G02*
X145736999Y-91388000I249999J0D01*
G01*
X147887001Y-91388000D01*
G75*
G02*
X148137000Y-91637999I0J-249999D01*
G01*
X148137000Y-92538001D01*
G75*
G02*
X147887001Y-92788000I-249999J0D01*
G01*
G37*
%TD*%
%TO.C,R2*%
G36*
G01*
X147887001Y-105488000D02*
X145736999Y-105488000D01*
G75*
G02*
X145487000Y-105238001I0J249999D01*
G01*
X145487000Y-104337999D01*
G75*
G02*
X145736999Y-104088000I249999J0D01*
G01*
X147887001Y-104088000D01*
G75*
G02*
X148137000Y-104337999I0J-249999D01*
G01*
X148137000Y-105238001D01*
G75*
G02*
X147887001Y-105488000I-249999J0D01*
G01*
G37*
G36*
G01*
X147887001Y-110288000D02*
X145736999Y-110288000D01*
G75*
G02*
X145487000Y-110038001I0J249999D01*
G01*
X145487000Y-109137999D01*
G75*
G02*
X145736999Y-108888000I249999J0D01*
G01*
X147887001Y-108888000D01*
G75*
G02*
X148137000Y-109137999I0J-249999D01*
G01*
X148137000Y-110038001D01*
G75*
G02*
X147887001Y-110288000I-249999J0D01*
G01*
G37*
%TD*%
%TO.C,R7*%
G36*
G01*
X182050001Y-91772000D02*
X179899999Y-91772000D01*
G75*
G02*
X179650000Y-91522001I0J249999D01*
G01*
X179650000Y-90621999D01*
G75*
G02*
X179899999Y-90372000I249999J0D01*
G01*
X182050001Y-90372000D01*
G75*
G02*
X182300000Y-90621999I0J-249999D01*
G01*
X182300000Y-91522001D01*
G75*
G02*
X182050001Y-91772000I-249999J0D01*
G01*
G37*
G36*
G01*
X182050001Y-96572000D02*
X179899999Y-96572000D01*
G75*
G02*
X179650000Y-96322001I0J249999D01*
G01*
X179650000Y-95421999D01*
G75*
G02*
X179899999Y-95172000I249999J0D01*
G01*
X182050001Y-95172000D01*
G75*
G02*
X182300000Y-95421999I0J-249999D01*
G01*
X182300000Y-96322001D01*
G75*
G02*
X182050001Y-96572000I-249999J0D01*
G01*
G37*
%TD*%
M02*
