%TF.GenerationSoftware,KiCad,Pcbnew,(5.1.9)-1*%
%TF.CreationDate,2022-01-14T16:31:07-06:00*%
%TF.ProjectId,Power_12V_DualSupply,506f7765-725f-4313-9256-5f4475616c53,rev?*%
%TF.SameCoordinates,Original*%
%TF.FileFunction,Legend,Top*%
%TF.FilePolarity,Positive*%
%FSLAX46Y46*%
G04 Gerber Fmt 4.6, Leading zero omitted, Abs format (unit mm)*
G04 Created by KiCad (PCBNEW (5.1.9)-1) date 2022-01-14 16:31:07*
%MOMM*%
%LPD*%
G01*
G04 APERTURE LIST*
%ADD10C,0.150000*%
%ADD11C,0.100000*%
%ADD12C,0.120000*%
G04 APERTURE END LIST*
D10*
X208359523Y-98560000D02*
X208264285Y-98512380D01*
X208121428Y-98512380D01*
X207978571Y-98560000D01*
X207883333Y-98655238D01*
X207835714Y-98750476D01*
X207788095Y-98940952D01*
X207788095Y-99083809D01*
X207835714Y-99274285D01*
X207883333Y-99369523D01*
X207978571Y-99464761D01*
X208121428Y-99512380D01*
X208216666Y-99512380D01*
X208359523Y-99464761D01*
X208407142Y-99417142D01*
X208407142Y-99083809D01*
X208216666Y-99083809D01*
X208835714Y-99512380D02*
X208835714Y-98512380D01*
X209407142Y-99512380D01*
X209407142Y-98512380D01*
X209883333Y-99512380D02*
X209883333Y-98512380D01*
X210121428Y-98512380D01*
X210264285Y-98560000D01*
X210359523Y-98655238D01*
X210407142Y-98750476D01*
X210454761Y-98940952D01*
X210454761Y-99083809D01*
X210407142Y-99274285D01*
X210359523Y-99369523D01*
X210264285Y-99464761D01*
X210121428Y-99512380D01*
X209883333Y-99512380D01*
X210835714Y-99226666D02*
X211311904Y-99226666D01*
X210740476Y-99512380D02*
X211073809Y-98512380D01*
X211407142Y-99512380D01*
X209867619Y-106132380D02*
X210200952Y-107132380D01*
X210534285Y-106132380D01*
X210867619Y-106751428D02*
X211629523Y-106751428D01*
X211248571Y-107132380D02*
X211248571Y-106370476D01*
X209867619Y-103592380D02*
X210200952Y-104592380D01*
X210534285Y-103592380D01*
X210867619Y-104211428D02*
X211629523Y-104211428D01*
X211248571Y-104592380D02*
X211248571Y-103830476D01*
X208359523Y-101100000D02*
X208264285Y-101052380D01*
X208121428Y-101052380D01*
X207978571Y-101100000D01*
X207883333Y-101195238D01*
X207835714Y-101290476D01*
X207788095Y-101480952D01*
X207788095Y-101623809D01*
X207835714Y-101814285D01*
X207883333Y-101909523D01*
X207978571Y-102004761D01*
X208121428Y-102052380D01*
X208216666Y-102052380D01*
X208359523Y-102004761D01*
X208407142Y-101957142D01*
X208407142Y-101623809D01*
X208216666Y-101623809D01*
X208835714Y-102052380D02*
X208835714Y-101052380D01*
X209407142Y-102052380D01*
X209407142Y-101052380D01*
X209883333Y-102052380D02*
X209883333Y-101052380D01*
X210121428Y-101052380D01*
X210264285Y-101100000D01*
X210359523Y-101195238D01*
X210407142Y-101290476D01*
X210454761Y-101480952D01*
X210454761Y-101623809D01*
X210407142Y-101814285D01*
X210359523Y-101909523D01*
X210264285Y-102004761D01*
X210121428Y-102052380D01*
X209883333Y-102052380D01*
X210835714Y-101766666D02*
X211311904Y-101766666D01*
X210740476Y-102052380D02*
X211073809Y-101052380D01*
X211407142Y-102052380D01*
X209867619Y-95972380D02*
X210200952Y-96972380D01*
X210534285Y-95972380D01*
X210867619Y-96591428D02*
X211629523Y-96591428D01*
X209867619Y-93432380D02*
X210200952Y-94432380D01*
X210534285Y-93432380D01*
X210867619Y-94051428D02*
X211629523Y-94051428D01*
D11*
X101283333Y-103206666D02*
X101983333Y-103206666D01*
X101983333Y-103473333D01*
X101950000Y-103540000D01*
X101916666Y-103573333D01*
X101850000Y-103606666D01*
X101750000Y-103606666D01*
X101683333Y-103573333D01*
X101650000Y-103540000D01*
X101616666Y-103473333D01*
X101616666Y-103206666D01*
X101983333Y-103840000D02*
X101283333Y-104006666D01*
X101783333Y-104140000D01*
X101283333Y-104273333D01*
X101983333Y-104440000D01*
X101283333Y-105106666D02*
X101616666Y-104873333D01*
X101283333Y-104706666D02*
X101983333Y-104706666D01*
X101983333Y-104973333D01*
X101950000Y-105040000D01*
X101916666Y-105073333D01*
X101850000Y-105106666D01*
X101750000Y-105106666D01*
X101683333Y-105073333D01*
X101650000Y-105040000D01*
X101616666Y-104973333D01*
X101616666Y-104706666D01*
X101283333Y-100666666D02*
X101983333Y-100666666D01*
X101983333Y-100933333D01*
X101950000Y-101000000D01*
X101916666Y-101033333D01*
X101850000Y-101066666D01*
X101750000Y-101066666D01*
X101683333Y-101033333D01*
X101650000Y-101000000D01*
X101616666Y-100933333D01*
X101616666Y-100666666D01*
X101983333Y-101300000D02*
X101283333Y-101466666D01*
X101783333Y-101600000D01*
X101283333Y-101733333D01*
X101983333Y-101900000D01*
X101283333Y-102566666D02*
X101616666Y-102333333D01*
X101283333Y-102166666D02*
X101983333Y-102166666D01*
X101983333Y-102433333D01*
X101950000Y-102500000D01*
X101916666Y-102533333D01*
X101850000Y-102566666D01*
X101750000Y-102566666D01*
X101683333Y-102533333D01*
X101650000Y-102500000D01*
X101616666Y-102433333D01*
X101616666Y-102166666D01*
X101950000Y-98526666D02*
X101983333Y-98460000D01*
X101983333Y-98360000D01*
X101950000Y-98260000D01*
X101883333Y-98193333D01*
X101816666Y-98160000D01*
X101683333Y-98126666D01*
X101583333Y-98126666D01*
X101450000Y-98160000D01*
X101383333Y-98193333D01*
X101316666Y-98260000D01*
X101283333Y-98360000D01*
X101283333Y-98426666D01*
X101316666Y-98526666D01*
X101350000Y-98560000D01*
X101583333Y-98560000D01*
X101583333Y-98426666D01*
X101283333Y-98860000D02*
X101983333Y-98860000D01*
X101283333Y-99260000D01*
X101983333Y-99260000D01*
X101283333Y-99593333D02*
X101983333Y-99593333D01*
X101983333Y-99760000D01*
X101950000Y-99860000D01*
X101883333Y-99926666D01*
X101816666Y-99960000D01*
X101683333Y-99993333D01*
X101583333Y-99993333D01*
X101450000Y-99960000D01*
X101383333Y-99926666D01*
X101316666Y-99860000D01*
X101283333Y-99760000D01*
X101283333Y-99593333D01*
X101950000Y-95986666D02*
X101983333Y-95920000D01*
X101983333Y-95820000D01*
X101950000Y-95720000D01*
X101883333Y-95653333D01*
X101816666Y-95620000D01*
X101683333Y-95586666D01*
X101583333Y-95586666D01*
X101450000Y-95620000D01*
X101383333Y-95653333D01*
X101316666Y-95720000D01*
X101283333Y-95820000D01*
X101283333Y-95886666D01*
X101316666Y-95986666D01*
X101350000Y-96020000D01*
X101583333Y-96020000D01*
X101583333Y-95886666D01*
X101283333Y-96320000D02*
X101983333Y-96320000D01*
X101283333Y-96720000D01*
X101983333Y-96720000D01*
X101283333Y-97053333D02*
X101983333Y-97053333D01*
X101983333Y-97220000D01*
X101950000Y-97320000D01*
X101883333Y-97386666D01*
X101816666Y-97420000D01*
X101683333Y-97453333D01*
X101583333Y-97453333D01*
X101450000Y-97420000D01*
X101383333Y-97386666D01*
X101316666Y-97320000D01*
X101283333Y-97220000D01*
X101283333Y-97053333D01*
D10*
X122777333Y-89860380D02*
X122444000Y-89384190D01*
X122205904Y-89860380D02*
X122205904Y-88860380D01*
X122586857Y-88860380D01*
X122682095Y-88908000D01*
X122729714Y-88955619D01*
X122777333Y-89050857D01*
X122777333Y-89193714D01*
X122729714Y-89288952D01*
X122682095Y-89336571D01*
X122586857Y-89384190D01*
X122205904Y-89384190D01*
X123205904Y-89765142D02*
X123253523Y-89812761D01*
X123205904Y-89860380D01*
X123158285Y-89812761D01*
X123205904Y-89765142D01*
X123205904Y-89860380D01*
X124253523Y-89765142D02*
X124205904Y-89812761D01*
X124063047Y-89860380D01*
X123967809Y-89860380D01*
X123824952Y-89812761D01*
X123729714Y-89717523D01*
X123682095Y-89622285D01*
X123634476Y-89431809D01*
X123634476Y-89288952D01*
X123682095Y-89098476D01*
X123729714Y-89003238D01*
X123824952Y-88908000D01*
X123967809Y-88860380D01*
X124063047Y-88860380D01*
X124205904Y-88908000D01*
X124253523Y-88955619D01*
X124682095Y-89765142D02*
X124729714Y-89812761D01*
X124682095Y-89860380D01*
X124634476Y-89812761D01*
X124682095Y-89765142D01*
X124682095Y-89860380D01*
X122110666Y-101560380D02*
X122444000Y-102560380D01*
X122777333Y-101560380D01*
X123682095Y-102465142D02*
X123634476Y-102512761D01*
X123491619Y-102560380D01*
X123396380Y-102560380D01*
X123253523Y-102512761D01*
X123158285Y-102417523D01*
X123110666Y-102322285D01*
X123063047Y-102131809D01*
X123063047Y-101988952D01*
X123110666Y-101798476D01*
X123158285Y-101703238D01*
X123253523Y-101608000D01*
X123396380Y-101560380D01*
X123491619Y-101560380D01*
X123634476Y-101608000D01*
X123682095Y-101655619D01*
X124682095Y-102465142D02*
X124634476Y-102512761D01*
X124491619Y-102560380D01*
X124396380Y-102560380D01*
X124253523Y-102512761D01*
X124158285Y-102417523D01*
X124110666Y-102322285D01*
X124063047Y-102131809D01*
X124063047Y-101988952D01*
X124110666Y-101798476D01*
X124158285Y-101703238D01*
X124253523Y-101608000D01*
X124396380Y-101560380D01*
X124491619Y-101560380D01*
X124634476Y-101608000D01*
X124682095Y-101655619D01*
X122682095Y-96528000D02*
X122586857Y-96480380D01*
X122444000Y-96480380D01*
X122301142Y-96528000D01*
X122205904Y-96623238D01*
X122158285Y-96718476D01*
X122110666Y-96908952D01*
X122110666Y-97051809D01*
X122158285Y-97242285D01*
X122205904Y-97337523D01*
X122301142Y-97432761D01*
X122444000Y-97480380D01*
X122539238Y-97480380D01*
X122682095Y-97432761D01*
X122729714Y-97385142D01*
X122729714Y-97051809D01*
X122539238Y-97051809D01*
X123158285Y-97480380D02*
X123158285Y-96480380D01*
X123729714Y-97480380D01*
X123729714Y-96480380D01*
X124205904Y-97480380D02*
X124205904Y-96480380D01*
X124444000Y-96480380D01*
X124586857Y-96528000D01*
X124682095Y-96623238D01*
X124729714Y-96718476D01*
X124777333Y-96908952D01*
X124777333Y-97051809D01*
X124729714Y-97242285D01*
X124682095Y-97337523D01*
X124586857Y-97432761D01*
X124444000Y-97480380D01*
X124205904Y-97480380D01*
X137731619Y-109180380D02*
X138064952Y-110180380D01*
X138398285Y-109180380D01*
X138731619Y-109799428D02*
X139493523Y-109799428D01*
X139112571Y-110180380D02*
X139112571Y-109418476D01*
X137390285Y-99925142D02*
X137342666Y-99972761D01*
X137199809Y-100020380D01*
X137104571Y-100020380D01*
X136961714Y-99972761D01*
X136866476Y-99877523D01*
X136818857Y-99782285D01*
X136771238Y-99591809D01*
X136771238Y-99448952D01*
X136818857Y-99258476D01*
X136866476Y-99163238D01*
X136961714Y-99068000D01*
X137104571Y-99020380D01*
X137199809Y-99020380D01*
X137342666Y-99068000D01*
X137390285Y-99115619D01*
X138009333Y-99020380D02*
X138199809Y-99020380D01*
X138295047Y-99068000D01*
X138390285Y-99163238D01*
X138437904Y-99353714D01*
X138437904Y-99687047D01*
X138390285Y-99877523D01*
X138295047Y-99972761D01*
X138199809Y-100020380D01*
X138009333Y-100020380D01*
X137914095Y-99972761D01*
X137818857Y-99877523D01*
X137771238Y-99687047D01*
X137771238Y-99353714D01*
X137818857Y-99163238D01*
X137914095Y-99068000D01*
X138009333Y-99020380D01*
X138866476Y-100020380D02*
X138866476Y-99020380D01*
X139199809Y-99734666D01*
X139533142Y-99020380D01*
X139533142Y-100020380D01*
X137731619Y-88860380D02*
X138064952Y-89860380D01*
X138398285Y-88860380D01*
X138731619Y-89479428D02*
X139493523Y-89479428D01*
D12*
%TO.C,C4*%
X154980000Y-105069000D02*
G75*
G03*
X154980000Y-105069000I-5120000J0D01*
G01*
X144780000Y-105069000D02*
X154940000Y-105069000D01*
X144780000Y-105029000D02*
X154940000Y-105029000D01*
X144780000Y-104989000D02*
X154940000Y-104989000D01*
X144781000Y-104949000D02*
X154939000Y-104949000D01*
X144782000Y-104909000D02*
X154938000Y-104909000D01*
X144783000Y-104869000D02*
X154937000Y-104869000D01*
X144785000Y-104829000D02*
X154935000Y-104829000D01*
X144787000Y-104789000D02*
X154933000Y-104789000D01*
X144790000Y-104749000D02*
X154930000Y-104749000D01*
X144792000Y-104709000D02*
X154928000Y-104709000D01*
X144795000Y-104669000D02*
X154925000Y-104669000D01*
X144798000Y-104629000D02*
X154922000Y-104629000D01*
X144802000Y-104589000D02*
X154918000Y-104589000D01*
X144806000Y-104549000D02*
X154914000Y-104549000D01*
X144810000Y-104509000D02*
X154910000Y-104509000D01*
X144815000Y-104469000D02*
X154905000Y-104469000D01*
X144820000Y-104429000D02*
X154900000Y-104429000D01*
X144825000Y-104389000D02*
X154895000Y-104389000D01*
X144830000Y-104348000D02*
X154890000Y-104348000D01*
X144836000Y-104308000D02*
X154884000Y-104308000D01*
X144842000Y-104268000D02*
X154878000Y-104268000D01*
X144849000Y-104228000D02*
X154871000Y-104228000D01*
X144856000Y-104188000D02*
X154864000Y-104188000D01*
X144863000Y-104148000D02*
X154857000Y-104148000D01*
X144870000Y-104108000D02*
X154850000Y-104108000D01*
X144878000Y-104068000D02*
X154842000Y-104068000D01*
X144886000Y-104028000D02*
X154834000Y-104028000D01*
X144895000Y-103988000D02*
X154825000Y-103988000D01*
X144904000Y-103948000D02*
X154816000Y-103948000D01*
X144913000Y-103908000D02*
X154807000Y-103908000D01*
X144922000Y-103868000D02*
X154798000Y-103868000D01*
X144932000Y-103828000D02*
X154788000Y-103828000D01*
X144942000Y-103788000D02*
X148619000Y-103788000D01*
X151101000Y-103788000D02*
X154778000Y-103788000D01*
X144953000Y-103748000D02*
X148619000Y-103748000D01*
X151101000Y-103748000D02*
X154767000Y-103748000D01*
X144963000Y-103708000D02*
X148619000Y-103708000D01*
X151101000Y-103708000D02*
X154757000Y-103708000D01*
X144975000Y-103668000D02*
X148619000Y-103668000D01*
X151101000Y-103668000D02*
X154745000Y-103668000D01*
X144986000Y-103628000D02*
X148619000Y-103628000D01*
X151101000Y-103628000D02*
X154734000Y-103628000D01*
X144998000Y-103588000D02*
X148619000Y-103588000D01*
X151101000Y-103588000D02*
X154722000Y-103588000D01*
X145010000Y-103548000D02*
X148619000Y-103548000D01*
X151101000Y-103548000D02*
X154710000Y-103548000D01*
X145023000Y-103508000D02*
X148619000Y-103508000D01*
X151101000Y-103508000D02*
X154697000Y-103508000D01*
X145036000Y-103468000D02*
X148619000Y-103468000D01*
X151101000Y-103468000D02*
X154684000Y-103468000D01*
X145049000Y-103428000D02*
X148619000Y-103428000D01*
X151101000Y-103428000D02*
X154671000Y-103428000D01*
X145063000Y-103388000D02*
X148619000Y-103388000D01*
X151101000Y-103388000D02*
X154657000Y-103388000D01*
X145077000Y-103348000D02*
X148619000Y-103348000D01*
X151101000Y-103348000D02*
X154643000Y-103348000D01*
X145092000Y-103308000D02*
X148619000Y-103308000D01*
X151101000Y-103308000D02*
X154628000Y-103308000D01*
X145106000Y-103268000D02*
X148619000Y-103268000D01*
X151101000Y-103268000D02*
X154614000Y-103268000D01*
X145122000Y-103228000D02*
X148619000Y-103228000D01*
X151101000Y-103228000D02*
X154598000Y-103228000D01*
X145137000Y-103188000D02*
X148619000Y-103188000D01*
X151101000Y-103188000D02*
X154583000Y-103188000D01*
X145153000Y-103148000D02*
X148619000Y-103148000D01*
X151101000Y-103148000D02*
X154567000Y-103148000D01*
X145170000Y-103108000D02*
X148619000Y-103108000D01*
X151101000Y-103108000D02*
X154550000Y-103108000D01*
X145186000Y-103068000D02*
X148619000Y-103068000D01*
X151101000Y-103068000D02*
X154534000Y-103068000D01*
X145203000Y-103028000D02*
X148619000Y-103028000D01*
X151101000Y-103028000D02*
X154517000Y-103028000D01*
X145221000Y-102988000D02*
X148619000Y-102988000D01*
X151101000Y-102988000D02*
X154499000Y-102988000D01*
X145239000Y-102948000D02*
X148619000Y-102948000D01*
X151101000Y-102948000D02*
X154481000Y-102948000D01*
X145257000Y-102908000D02*
X148619000Y-102908000D01*
X151101000Y-102908000D02*
X154463000Y-102908000D01*
X145276000Y-102868000D02*
X148619000Y-102868000D01*
X151101000Y-102868000D02*
X154444000Y-102868000D01*
X145296000Y-102828000D02*
X148619000Y-102828000D01*
X151101000Y-102828000D02*
X154424000Y-102828000D01*
X145315000Y-102788000D02*
X148619000Y-102788000D01*
X151101000Y-102788000D02*
X154405000Y-102788000D01*
X145335000Y-102748000D02*
X148619000Y-102748000D01*
X151101000Y-102748000D02*
X154385000Y-102748000D01*
X145356000Y-102708000D02*
X148619000Y-102708000D01*
X151101000Y-102708000D02*
X154364000Y-102708000D01*
X145377000Y-102668000D02*
X148619000Y-102668000D01*
X151101000Y-102668000D02*
X154343000Y-102668000D01*
X145398000Y-102628000D02*
X148619000Y-102628000D01*
X151101000Y-102628000D02*
X154322000Y-102628000D01*
X145420000Y-102588000D02*
X148619000Y-102588000D01*
X151101000Y-102588000D02*
X154300000Y-102588000D01*
X145443000Y-102548000D02*
X148619000Y-102548000D01*
X151101000Y-102548000D02*
X154277000Y-102548000D01*
X145465000Y-102508000D02*
X148619000Y-102508000D01*
X151101000Y-102508000D02*
X154255000Y-102508000D01*
X145489000Y-102468000D02*
X148619000Y-102468000D01*
X151101000Y-102468000D02*
X154231000Y-102468000D01*
X145513000Y-102428000D02*
X148619000Y-102428000D01*
X151101000Y-102428000D02*
X154207000Y-102428000D01*
X145537000Y-102388000D02*
X148619000Y-102388000D01*
X151101000Y-102388000D02*
X154183000Y-102388000D01*
X145562000Y-102348000D02*
X148619000Y-102348000D01*
X151101000Y-102348000D02*
X154158000Y-102348000D01*
X145587000Y-102308000D02*
X148619000Y-102308000D01*
X151101000Y-102308000D02*
X154133000Y-102308000D01*
X145613000Y-102268000D02*
X148619000Y-102268000D01*
X151101000Y-102268000D02*
X154107000Y-102268000D01*
X145639000Y-102228000D02*
X148619000Y-102228000D01*
X151101000Y-102228000D02*
X154081000Y-102228000D01*
X145666000Y-102188000D02*
X148619000Y-102188000D01*
X151101000Y-102188000D02*
X154054000Y-102188000D01*
X145694000Y-102148000D02*
X148619000Y-102148000D01*
X151101000Y-102148000D02*
X154026000Y-102148000D01*
X145722000Y-102108000D02*
X148619000Y-102108000D01*
X151101000Y-102108000D02*
X153998000Y-102108000D01*
X145750000Y-102068000D02*
X148619000Y-102068000D01*
X151101000Y-102068000D02*
X153970000Y-102068000D01*
X145780000Y-102028000D02*
X148619000Y-102028000D01*
X151101000Y-102028000D02*
X153940000Y-102028000D01*
X145810000Y-101988000D02*
X148619000Y-101988000D01*
X151101000Y-101988000D02*
X153910000Y-101988000D01*
X145840000Y-101948000D02*
X148619000Y-101948000D01*
X151101000Y-101948000D02*
X153880000Y-101948000D01*
X145871000Y-101908000D02*
X148619000Y-101908000D01*
X151101000Y-101908000D02*
X153849000Y-101908000D01*
X145903000Y-101868000D02*
X148619000Y-101868000D01*
X151101000Y-101868000D02*
X153817000Y-101868000D01*
X145935000Y-101828000D02*
X148619000Y-101828000D01*
X151101000Y-101828000D02*
X153785000Y-101828000D01*
X145968000Y-101788000D02*
X148619000Y-101788000D01*
X151101000Y-101788000D02*
X153752000Y-101788000D01*
X146002000Y-101748000D02*
X148619000Y-101748000D01*
X151101000Y-101748000D02*
X153718000Y-101748000D01*
X146036000Y-101708000D02*
X148619000Y-101708000D01*
X151101000Y-101708000D02*
X153684000Y-101708000D01*
X146071000Y-101668000D02*
X148619000Y-101668000D01*
X151101000Y-101668000D02*
X153649000Y-101668000D01*
X146107000Y-101628000D02*
X148619000Y-101628000D01*
X151101000Y-101628000D02*
X153613000Y-101628000D01*
X146144000Y-101588000D02*
X148619000Y-101588000D01*
X151101000Y-101588000D02*
X153576000Y-101588000D01*
X146181000Y-101548000D02*
X148619000Y-101548000D01*
X151101000Y-101548000D02*
X153539000Y-101548000D01*
X146220000Y-101508000D02*
X148619000Y-101508000D01*
X151101000Y-101508000D02*
X153500000Y-101508000D01*
X146259000Y-101468000D02*
X148619000Y-101468000D01*
X151101000Y-101468000D02*
X153461000Y-101468000D01*
X146299000Y-101428000D02*
X148619000Y-101428000D01*
X151101000Y-101428000D02*
X153421000Y-101428000D01*
X146340000Y-101388000D02*
X148619000Y-101388000D01*
X151101000Y-101388000D02*
X153380000Y-101388000D01*
X146382000Y-101348000D02*
X148619000Y-101348000D01*
X151101000Y-101348000D02*
X153338000Y-101348000D01*
X146424000Y-101308000D02*
X153296000Y-101308000D01*
X146468000Y-101268000D02*
X153252000Y-101268000D01*
X146513000Y-101228000D02*
X153207000Y-101228000D01*
X146559000Y-101188000D02*
X153161000Y-101188000D01*
X146606000Y-101148000D02*
X153114000Y-101148000D01*
X146654000Y-101108000D02*
X153066000Y-101108000D01*
X146704000Y-101068000D02*
X153016000Y-101068000D01*
X146754000Y-101028000D02*
X152966000Y-101028000D01*
X146806000Y-100988000D02*
X152914000Y-100988000D01*
X146860000Y-100948000D02*
X152860000Y-100948000D01*
X146915000Y-100908000D02*
X152805000Y-100908000D01*
X146971000Y-100868000D02*
X152749000Y-100868000D01*
X147030000Y-100828000D02*
X152690000Y-100828000D01*
X147090000Y-100788000D02*
X152630000Y-100788000D01*
X147151000Y-100748000D02*
X152569000Y-100748000D01*
X147215000Y-100708000D02*
X152505000Y-100708000D01*
X147281000Y-100668000D02*
X152439000Y-100668000D01*
X147350000Y-100628000D02*
X152370000Y-100628000D01*
X147421000Y-100588000D02*
X152299000Y-100588000D01*
X147495000Y-100548000D02*
X152225000Y-100548000D01*
X147571000Y-100508000D02*
X152149000Y-100508000D01*
X147651000Y-100468000D02*
X152069000Y-100468000D01*
X147735000Y-100428000D02*
X151985000Y-100428000D01*
X147823000Y-100388000D02*
X151897000Y-100388000D01*
X147916000Y-100348000D02*
X151804000Y-100348000D01*
X148014000Y-100308000D02*
X151706000Y-100308000D01*
X148118000Y-100268000D02*
X151602000Y-100268000D01*
X148230000Y-100228000D02*
X151490000Y-100228000D01*
X148350000Y-100188000D02*
X151370000Y-100188000D01*
X148482000Y-100148000D02*
X151238000Y-100148000D01*
X148630000Y-100108000D02*
X151090000Y-100108000D01*
X148798000Y-100068000D02*
X150922000Y-100068000D01*
X148998000Y-100028000D02*
X150722000Y-100028000D01*
X149261000Y-99988000D02*
X150459000Y-99988000D01*
X146985000Y-110548646D02*
X146985000Y-109548646D01*
X146485000Y-110048646D02*
X147485000Y-110048646D01*
%TO.C,C14*%
X183388000Y-101600000D02*
X184150000Y-101600000D01*
X183388000Y-109728000D02*
X183388000Y-101600000D01*
X184150000Y-109728000D02*
X183388000Y-109728000D01*
X187960000Y-109728000D02*
X187198000Y-109728000D01*
X187960000Y-101600000D02*
X187960000Y-109728000D01*
X187198000Y-101600000D02*
X187960000Y-101600000D01*
%TO.C,L4*%
X189992000Y-114804000D02*
X196342000Y-114804000D01*
X189992000Y-111004000D02*
X189992000Y-114804000D01*
X202692000Y-114804000D02*
X196342000Y-114804000D01*
X202692000Y-111004000D02*
X202692000Y-114804000D01*
X202692000Y-101604000D02*
X196342000Y-101604000D01*
X202692000Y-105404000D02*
X202692000Y-101604000D01*
X189992000Y-101604000D02*
X196342000Y-101604000D01*
X189992000Y-105404000D02*
X189992000Y-101604000D01*
%TO.C,U1*%
X143510000Y-112141000D02*
X118110000Y-112141000D01*
X118110000Y-112141000D02*
X118110000Y-86741000D01*
X118110000Y-86741000D02*
X143510000Y-86741000D01*
X143510000Y-86741000D02*
X143510000Y-112141000D01*
%TO.C,C5*%
X146485000Y-96840646D02*
X147485000Y-96840646D01*
X146985000Y-97340646D02*
X146985000Y-96340646D01*
X149261000Y-86780000D02*
X150459000Y-86780000D01*
X148998000Y-86820000D02*
X150722000Y-86820000D01*
X148798000Y-86860000D02*
X150922000Y-86860000D01*
X148630000Y-86900000D02*
X151090000Y-86900000D01*
X148482000Y-86940000D02*
X151238000Y-86940000D01*
X148350000Y-86980000D02*
X151370000Y-86980000D01*
X148230000Y-87020000D02*
X151490000Y-87020000D01*
X148118000Y-87060000D02*
X151602000Y-87060000D01*
X148014000Y-87100000D02*
X151706000Y-87100000D01*
X147916000Y-87140000D02*
X151804000Y-87140000D01*
X147823000Y-87180000D02*
X151897000Y-87180000D01*
X147735000Y-87220000D02*
X151985000Y-87220000D01*
X147651000Y-87260000D02*
X152069000Y-87260000D01*
X147571000Y-87300000D02*
X152149000Y-87300000D01*
X147495000Y-87340000D02*
X152225000Y-87340000D01*
X147421000Y-87380000D02*
X152299000Y-87380000D01*
X147350000Y-87420000D02*
X152370000Y-87420000D01*
X147281000Y-87460000D02*
X152439000Y-87460000D01*
X147215000Y-87500000D02*
X152505000Y-87500000D01*
X147151000Y-87540000D02*
X152569000Y-87540000D01*
X147090000Y-87580000D02*
X152630000Y-87580000D01*
X147030000Y-87620000D02*
X152690000Y-87620000D01*
X146971000Y-87660000D02*
X152749000Y-87660000D01*
X146915000Y-87700000D02*
X152805000Y-87700000D01*
X146860000Y-87740000D02*
X152860000Y-87740000D01*
X146806000Y-87780000D02*
X152914000Y-87780000D01*
X146754000Y-87820000D02*
X152966000Y-87820000D01*
X146704000Y-87860000D02*
X153016000Y-87860000D01*
X146654000Y-87900000D02*
X153066000Y-87900000D01*
X146606000Y-87940000D02*
X153114000Y-87940000D01*
X146559000Y-87980000D02*
X153161000Y-87980000D01*
X146513000Y-88020000D02*
X153207000Y-88020000D01*
X146468000Y-88060000D02*
X153252000Y-88060000D01*
X146424000Y-88100000D02*
X153296000Y-88100000D01*
X151101000Y-88140000D02*
X153338000Y-88140000D01*
X146382000Y-88140000D02*
X148619000Y-88140000D01*
X151101000Y-88180000D02*
X153380000Y-88180000D01*
X146340000Y-88180000D02*
X148619000Y-88180000D01*
X151101000Y-88220000D02*
X153421000Y-88220000D01*
X146299000Y-88220000D02*
X148619000Y-88220000D01*
X151101000Y-88260000D02*
X153461000Y-88260000D01*
X146259000Y-88260000D02*
X148619000Y-88260000D01*
X151101000Y-88300000D02*
X153500000Y-88300000D01*
X146220000Y-88300000D02*
X148619000Y-88300000D01*
X151101000Y-88340000D02*
X153539000Y-88340000D01*
X146181000Y-88340000D02*
X148619000Y-88340000D01*
X151101000Y-88380000D02*
X153576000Y-88380000D01*
X146144000Y-88380000D02*
X148619000Y-88380000D01*
X151101000Y-88420000D02*
X153613000Y-88420000D01*
X146107000Y-88420000D02*
X148619000Y-88420000D01*
X151101000Y-88460000D02*
X153649000Y-88460000D01*
X146071000Y-88460000D02*
X148619000Y-88460000D01*
X151101000Y-88500000D02*
X153684000Y-88500000D01*
X146036000Y-88500000D02*
X148619000Y-88500000D01*
X151101000Y-88540000D02*
X153718000Y-88540000D01*
X146002000Y-88540000D02*
X148619000Y-88540000D01*
X151101000Y-88580000D02*
X153752000Y-88580000D01*
X145968000Y-88580000D02*
X148619000Y-88580000D01*
X151101000Y-88620000D02*
X153785000Y-88620000D01*
X145935000Y-88620000D02*
X148619000Y-88620000D01*
X151101000Y-88660000D02*
X153817000Y-88660000D01*
X145903000Y-88660000D02*
X148619000Y-88660000D01*
X151101000Y-88700000D02*
X153849000Y-88700000D01*
X145871000Y-88700000D02*
X148619000Y-88700000D01*
X151101000Y-88740000D02*
X153880000Y-88740000D01*
X145840000Y-88740000D02*
X148619000Y-88740000D01*
X151101000Y-88780000D02*
X153910000Y-88780000D01*
X145810000Y-88780000D02*
X148619000Y-88780000D01*
X151101000Y-88820000D02*
X153940000Y-88820000D01*
X145780000Y-88820000D02*
X148619000Y-88820000D01*
X151101000Y-88860000D02*
X153970000Y-88860000D01*
X145750000Y-88860000D02*
X148619000Y-88860000D01*
X151101000Y-88900000D02*
X153998000Y-88900000D01*
X145722000Y-88900000D02*
X148619000Y-88900000D01*
X151101000Y-88940000D02*
X154026000Y-88940000D01*
X145694000Y-88940000D02*
X148619000Y-88940000D01*
X151101000Y-88980000D02*
X154054000Y-88980000D01*
X145666000Y-88980000D02*
X148619000Y-88980000D01*
X151101000Y-89020000D02*
X154081000Y-89020000D01*
X145639000Y-89020000D02*
X148619000Y-89020000D01*
X151101000Y-89060000D02*
X154107000Y-89060000D01*
X145613000Y-89060000D02*
X148619000Y-89060000D01*
X151101000Y-89100000D02*
X154133000Y-89100000D01*
X145587000Y-89100000D02*
X148619000Y-89100000D01*
X151101000Y-89140000D02*
X154158000Y-89140000D01*
X145562000Y-89140000D02*
X148619000Y-89140000D01*
X151101000Y-89180000D02*
X154183000Y-89180000D01*
X145537000Y-89180000D02*
X148619000Y-89180000D01*
X151101000Y-89220000D02*
X154207000Y-89220000D01*
X145513000Y-89220000D02*
X148619000Y-89220000D01*
X151101000Y-89260000D02*
X154231000Y-89260000D01*
X145489000Y-89260000D02*
X148619000Y-89260000D01*
X151101000Y-89300000D02*
X154255000Y-89300000D01*
X145465000Y-89300000D02*
X148619000Y-89300000D01*
X151101000Y-89340000D02*
X154277000Y-89340000D01*
X145443000Y-89340000D02*
X148619000Y-89340000D01*
X151101000Y-89380000D02*
X154300000Y-89380000D01*
X145420000Y-89380000D02*
X148619000Y-89380000D01*
X151101000Y-89420000D02*
X154322000Y-89420000D01*
X145398000Y-89420000D02*
X148619000Y-89420000D01*
X151101000Y-89460000D02*
X154343000Y-89460000D01*
X145377000Y-89460000D02*
X148619000Y-89460000D01*
X151101000Y-89500000D02*
X154364000Y-89500000D01*
X145356000Y-89500000D02*
X148619000Y-89500000D01*
X151101000Y-89540000D02*
X154385000Y-89540000D01*
X145335000Y-89540000D02*
X148619000Y-89540000D01*
X151101000Y-89580000D02*
X154405000Y-89580000D01*
X145315000Y-89580000D02*
X148619000Y-89580000D01*
X151101000Y-89620000D02*
X154424000Y-89620000D01*
X145296000Y-89620000D02*
X148619000Y-89620000D01*
X151101000Y-89660000D02*
X154444000Y-89660000D01*
X145276000Y-89660000D02*
X148619000Y-89660000D01*
X151101000Y-89700000D02*
X154463000Y-89700000D01*
X145257000Y-89700000D02*
X148619000Y-89700000D01*
X151101000Y-89740000D02*
X154481000Y-89740000D01*
X145239000Y-89740000D02*
X148619000Y-89740000D01*
X151101000Y-89780000D02*
X154499000Y-89780000D01*
X145221000Y-89780000D02*
X148619000Y-89780000D01*
X151101000Y-89820000D02*
X154517000Y-89820000D01*
X145203000Y-89820000D02*
X148619000Y-89820000D01*
X151101000Y-89860000D02*
X154534000Y-89860000D01*
X145186000Y-89860000D02*
X148619000Y-89860000D01*
X151101000Y-89900000D02*
X154550000Y-89900000D01*
X145170000Y-89900000D02*
X148619000Y-89900000D01*
X151101000Y-89940000D02*
X154567000Y-89940000D01*
X145153000Y-89940000D02*
X148619000Y-89940000D01*
X151101000Y-89980000D02*
X154583000Y-89980000D01*
X145137000Y-89980000D02*
X148619000Y-89980000D01*
X151101000Y-90020000D02*
X154598000Y-90020000D01*
X145122000Y-90020000D02*
X148619000Y-90020000D01*
X151101000Y-90060000D02*
X154614000Y-90060000D01*
X145106000Y-90060000D02*
X148619000Y-90060000D01*
X151101000Y-90100000D02*
X154628000Y-90100000D01*
X145092000Y-90100000D02*
X148619000Y-90100000D01*
X151101000Y-90140000D02*
X154643000Y-90140000D01*
X145077000Y-90140000D02*
X148619000Y-90140000D01*
X151101000Y-90180000D02*
X154657000Y-90180000D01*
X145063000Y-90180000D02*
X148619000Y-90180000D01*
X151101000Y-90220000D02*
X154671000Y-90220000D01*
X145049000Y-90220000D02*
X148619000Y-90220000D01*
X151101000Y-90260000D02*
X154684000Y-90260000D01*
X145036000Y-90260000D02*
X148619000Y-90260000D01*
X151101000Y-90300000D02*
X154697000Y-90300000D01*
X145023000Y-90300000D02*
X148619000Y-90300000D01*
X151101000Y-90340000D02*
X154710000Y-90340000D01*
X145010000Y-90340000D02*
X148619000Y-90340000D01*
X151101000Y-90380000D02*
X154722000Y-90380000D01*
X144998000Y-90380000D02*
X148619000Y-90380000D01*
X151101000Y-90420000D02*
X154734000Y-90420000D01*
X144986000Y-90420000D02*
X148619000Y-90420000D01*
X151101000Y-90460000D02*
X154745000Y-90460000D01*
X144975000Y-90460000D02*
X148619000Y-90460000D01*
X151101000Y-90500000D02*
X154757000Y-90500000D01*
X144963000Y-90500000D02*
X148619000Y-90500000D01*
X151101000Y-90540000D02*
X154767000Y-90540000D01*
X144953000Y-90540000D02*
X148619000Y-90540000D01*
X151101000Y-90580000D02*
X154778000Y-90580000D01*
X144942000Y-90580000D02*
X148619000Y-90580000D01*
X144932000Y-90620000D02*
X154788000Y-90620000D01*
X144922000Y-90660000D02*
X154798000Y-90660000D01*
X144913000Y-90700000D02*
X154807000Y-90700000D01*
X144904000Y-90740000D02*
X154816000Y-90740000D01*
X144895000Y-90780000D02*
X154825000Y-90780000D01*
X144886000Y-90820000D02*
X154834000Y-90820000D01*
X144878000Y-90860000D02*
X154842000Y-90860000D01*
X144870000Y-90900000D02*
X154850000Y-90900000D01*
X144863000Y-90940000D02*
X154857000Y-90940000D01*
X144856000Y-90980000D02*
X154864000Y-90980000D01*
X144849000Y-91020000D02*
X154871000Y-91020000D01*
X144842000Y-91060000D02*
X154878000Y-91060000D01*
X144836000Y-91100000D02*
X154884000Y-91100000D01*
X144830000Y-91140000D02*
X154890000Y-91140000D01*
X144825000Y-91181000D02*
X154895000Y-91181000D01*
X144820000Y-91221000D02*
X154900000Y-91221000D01*
X144815000Y-91261000D02*
X154905000Y-91261000D01*
X144810000Y-91301000D02*
X154910000Y-91301000D01*
X144806000Y-91341000D02*
X154914000Y-91341000D01*
X144802000Y-91381000D02*
X154918000Y-91381000D01*
X144798000Y-91421000D02*
X154922000Y-91421000D01*
X144795000Y-91461000D02*
X154925000Y-91461000D01*
X144792000Y-91501000D02*
X154928000Y-91501000D01*
X144790000Y-91541000D02*
X154930000Y-91541000D01*
X144787000Y-91581000D02*
X154933000Y-91581000D01*
X144785000Y-91621000D02*
X154935000Y-91621000D01*
X144783000Y-91661000D02*
X154937000Y-91661000D01*
X144782000Y-91701000D02*
X154938000Y-91701000D01*
X144781000Y-91741000D02*
X154939000Y-91741000D01*
X144780000Y-91781000D02*
X154940000Y-91781000D01*
X144780000Y-91821000D02*
X154940000Y-91821000D01*
X144780000Y-91861000D02*
X154940000Y-91861000D01*
X154980000Y-91861000D02*
G75*
G03*
X154980000Y-91861000I-5120000J0D01*
G01*
%TO.C,C12*%
X180797252Y-108310000D02*
X179374748Y-108310000D01*
X180797252Y-110130000D02*
X179374748Y-110130000D01*
%TO.C,C13*%
X179980000Y-96253752D02*
X179980000Y-94831248D01*
X178160000Y-96253752D02*
X178160000Y-94831248D01*
%TO.C,C15*%
X183388000Y-90424000D02*
X184150000Y-90424000D01*
X183388000Y-98552000D02*
X183388000Y-90424000D01*
X184150000Y-98552000D02*
X183388000Y-98552000D01*
X187960000Y-98552000D02*
X187198000Y-98552000D01*
X187960000Y-90424000D02*
X187960000Y-98552000D01*
X187198000Y-90424000D02*
X187960000Y-90424000D01*
%TO.C,L1*%
X106428000Y-107900000D02*
X103428000Y-107900000D01*
X103428000Y-107900000D02*
X103428000Y-95300000D01*
X103428000Y-95300000D02*
X106428000Y-95300000D01*
X113028000Y-95300000D02*
X116028000Y-95300000D01*
X116028000Y-95300000D02*
X116028000Y-107900000D01*
X116028000Y-107900000D02*
X113028000Y-107900000D01*
%TO.C,L2*%
X157480000Y-114804000D02*
X163830000Y-114804000D01*
X157480000Y-111004000D02*
X157480000Y-114804000D01*
X170180000Y-114804000D02*
X163830000Y-114804000D01*
X170180000Y-111004000D02*
X170180000Y-114804000D01*
X170180000Y-101604000D02*
X163830000Y-101604000D01*
X170180000Y-105404000D02*
X170180000Y-101604000D01*
X157480000Y-101604000D02*
X163830000Y-101604000D01*
X157480000Y-105404000D02*
X157480000Y-101604000D01*
%TO.C,L3*%
X170180000Y-84840000D02*
X163830000Y-84840000D01*
X170180000Y-88640000D02*
X170180000Y-84840000D01*
X157480000Y-84840000D02*
X163830000Y-84840000D01*
X157480000Y-88640000D02*
X157480000Y-84840000D01*
X157480000Y-98040000D02*
X163830000Y-98040000D01*
X157480000Y-94240000D02*
X157480000Y-98040000D01*
X170180000Y-98040000D02*
X163830000Y-98040000D01*
X170180000Y-94240000D02*
X170180000Y-98040000D01*
%TO.C,L5*%
X202692000Y-94113000D02*
X202692000Y-97913000D01*
X202692000Y-97913000D02*
X196342000Y-97913000D01*
X189992000Y-94113000D02*
X189992000Y-97913000D01*
X189992000Y-97913000D02*
X196342000Y-97913000D01*
X189992000Y-88513000D02*
X189992000Y-84713000D01*
X189992000Y-84713000D02*
X196342000Y-84713000D01*
X202692000Y-88513000D02*
X202692000Y-84713000D01*
X202692000Y-84713000D02*
X196342000Y-84713000D01*
%TO.C,R3*%
X175366000Y-94919748D02*
X175366000Y-96342252D01*
X177186000Y-94919748D02*
X177186000Y-96342252D01*
%TO.C,R4*%
X179374748Y-112374000D02*
X180797252Y-112374000D01*
X179374748Y-114194000D02*
X180797252Y-114194000D01*
%TO.C,R5*%
X172572000Y-94691252D02*
X172572000Y-93268748D01*
X174392000Y-94691252D02*
X174392000Y-93268748D01*
%TO.C,R6*%
X175717252Y-110130000D02*
X174294748Y-110130000D01*
X175717252Y-108310000D02*
X174294748Y-108310000D01*
%TO.C,U2*%
X178054000Y-107774000D02*
X179554000Y-107774000D01*
X178054000Y-107774000D02*
X176554000Y-107774000D01*
X178054000Y-103554000D02*
X179554000Y-103554000D01*
X178054000Y-103554000D02*
X175179000Y-103554000D01*
%TO.C,U3*%
X178054000Y-88314000D02*
X175179000Y-88314000D01*
X178054000Y-88314000D02*
X179554000Y-88314000D01*
X178054000Y-92534000D02*
X176554000Y-92534000D01*
X178054000Y-92534000D02*
X179554000Y-92534000D01*
%TO.C,J1*%
X100390000Y-95190000D02*
X97730000Y-95190000D01*
X100390000Y-102870000D02*
X100390000Y-95190000D01*
X97730000Y-102870000D02*
X97730000Y-95190000D01*
X100390000Y-102870000D02*
X97730000Y-102870000D01*
X100390000Y-104140000D02*
X100390000Y-105470000D01*
X100390000Y-105470000D02*
X99060000Y-105470000D01*
%TO.C,J2*%
X214690000Y-92650000D02*
X212030000Y-92650000D01*
X214690000Y-105410000D02*
X214690000Y-92650000D01*
X212030000Y-105410000D02*
X212030000Y-92650000D01*
X214690000Y-105410000D02*
X212030000Y-105410000D01*
X214690000Y-106680000D02*
X214690000Y-108010000D01*
X214690000Y-108010000D02*
X213360000Y-108010000D01*
%TO.C,U4*%
X172680000Y-114205000D02*
X182920000Y-114205000D01*
X172680000Y-118846000D02*
X182920000Y-118846000D01*
X172680000Y-114205000D02*
X172680000Y-118846000D01*
X182920000Y-114205000D02*
X182920000Y-118846000D01*
X172680000Y-115715000D02*
X182920000Y-115715000D01*
X175950000Y-114205000D02*
X175950000Y-115715000D01*
X179651000Y-114205000D02*
X179651000Y-115715000D01*
%TO.C,U5*%
X179016000Y-80550000D02*
X179016000Y-82060000D01*
X175315000Y-80550000D02*
X175315000Y-82060000D01*
X172045000Y-82060000D02*
X182285000Y-82060000D01*
X182285000Y-80550000D02*
X182285000Y-85191000D01*
X172045000Y-80550000D02*
X172045000Y-85191000D01*
X172045000Y-85191000D02*
X182285000Y-85191000D01*
X172045000Y-80550000D02*
X182285000Y-80550000D01*
%TO.C,C4*%
D10*
X145121333Y-110593142D02*
X145073714Y-110640761D01*
X144930857Y-110688380D01*
X144835619Y-110688380D01*
X144692761Y-110640761D01*
X144597523Y-110545523D01*
X144549904Y-110450285D01*
X144502285Y-110259809D01*
X144502285Y-110116952D01*
X144549904Y-109926476D01*
X144597523Y-109831238D01*
X144692761Y-109736000D01*
X144835619Y-109688380D01*
X144930857Y-109688380D01*
X145073714Y-109736000D01*
X145121333Y-109783619D01*
X145978476Y-110021714D02*
X145978476Y-110688380D01*
X145740380Y-109640761D02*
X145502285Y-110355047D01*
X146121333Y-110355047D01*
X147836190Y-98337714D02*
X147836190Y-99004380D01*
X147598095Y-97956761D02*
X147360000Y-98671047D01*
X147979047Y-98671047D01*
X148264761Y-98004380D02*
X148931428Y-98004380D01*
X148502857Y-99004380D01*
X149502857Y-98004380D02*
X149598095Y-98004380D01*
X149693333Y-98052000D01*
X149740952Y-98099619D01*
X149788571Y-98194857D01*
X149836190Y-98385333D01*
X149836190Y-98623428D01*
X149788571Y-98813904D01*
X149740952Y-98909142D01*
X149693333Y-98956761D01*
X149598095Y-99004380D01*
X149502857Y-99004380D01*
X149407619Y-98956761D01*
X149360000Y-98909142D01*
X149312380Y-98813904D01*
X149264761Y-98623428D01*
X149264761Y-98385333D01*
X149312380Y-98194857D01*
X149360000Y-98099619D01*
X149407619Y-98052000D01*
X149502857Y-98004380D01*
X151455238Y-98337714D02*
X151455238Y-99004380D01*
X151026666Y-98337714D02*
X151026666Y-98861523D01*
X151074285Y-98956761D01*
X151169523Y-99004380D01*
X151312380Y-99004380D01*
X151407619Y-98956761D01*
X151455238Y-98909142D01*
X152264761Y-98480571D02*
X151931428Y-98480571D01*
X151931428Y-99004380D02*
X151931428Y-98004380D01*
X152407619Y-98004380D01*
%TO.C,C14*%
X185031142Y-112117142D02*
X184983523Y-112164761D01*
X184840666Y-112212380D01*
X184745428Y-112212380D01*
X184602571Y-112164761D01*
X184507333Y-112069523D01*
X184459714Y-111974285D01*
X184412095Y-111783809D01*
X184412095Y-111640952D01*
X184459714Y-111450476D01*
X184507333Y-111355238D01*
X184602571Y-111260000D01*
X184745428Y-111212380D01*
X184840666Y-111212380D01*
X184983523Y-111260000D01*
X185031142Y-111307619D01*
X185983523Y-112212380D02*
X185412095Y-112212380D01*
X185697809Y-112212380D02*
X185697809Y-111212380D01*
X185602571Y-111355238D01*
X185507333Y-111450476D01*
X185412095Y-111498095D01*
X186840666Y-111545714D02*
X186840666Y-112212380D01*
X186602571Y-111164761D02*
X186364476Y-111879047D01*
X186983523Y-111879047D01*
X184729619Y-113736380D02*
X184158190Y-113736380D01*
X184443904Y-113736380D02*
X184443904Y-112736380D01*
X184348666Y-112879238D01*
X184253428Y-112974476D01*
X184158190Y-113022095D01*
X185348666Y-112736380D02*
X185443904Y-112736380D01*
X185539142Y-112784000D01*
X185586761Y-112831619D01*
X185634380Y-112926857D01*
X185682000Y-113117333D01*
X185682000Y-113355428D01*
X185634380Y-113545904D01*
X185586761Y-113641142D01*
X185539142Y-113688761D01*
X185443904Y-113736380D01*
X185348666Y-113736380D01*
X185253428Y-113688761D01*
X185205809Y-113641142D01*
X185158190Y-113545904D01*
X185110571Y-113355428D01*
X185110571Y-113117333D01*
X185158190Y-112926857D01*
X185205809Y-112831619D01*
X185253428Y-112784000D01*
X185348666Y-112736380D01*
X187301047Y-113069714D02*
X187301047Y-113736380D01*
X186872476Y-113069714D02*
X186872476Y-113593523D01*
X186920095Y-113688761D01*
X187015333Y-113736380D01*
X187158190Y-113736380D01*
X187253428Y-113688761D01*
X187301047Y-113641142D01*
X188110571Y-113212571D02*
X187777238Y-113212571D01*
X187777238Y-113736380D02*
X187777238Y-112736380D01*
X188253428Y-112736380D01*
%TO.C,L4*%
X203795333Y-114117380D02*
X203319142Y-114117380D01*
X203319142Y-113117380D01*
X204557238Y-113450714D02*
X204557238Y-114117380D01*
X204319142Y-113069761D02*
X204081047Y-113784047D01*
X204700095Y-113784047D01*
X203700285Y-112212380D02*
X203128857Y-112212380D01*
X203414571Y-112212380D02*
X203414571Y-111212380D01*
X203319333Y-111355238D01*
X203224095Y-111450476D01*
X203128857Y-111498095D01*
X204128857Y-112117142D02*
X204176476Y-112164761D01*
X204128857Y-112212380D01*
X204081238Y-112164761D01*
X204128857Y-112117142D01*
X204128857Y-112212380D01*
X204509809Y-111212380D02*
X205128857Y-111212380D01*
X204795523Y-111593333D01*
X204938380Y-111593333D01*
X205033619Y-111640952D01*
X205081238Y-111688571D01*
X205128857Y-111783809D01*
X205128857Y-112021904D01*
X205081238Y-112117142D01*
X205033619Y-112164761D01*
X204938380Y-112212380D01*
X204652666Y-112212380D01*
X204557428Y-112164761D01*
X204509809Y-112117142D01*
X206747904Y-111545714D02*
X206747904Y-112212380D01*
X206319333Y-111545714D02*
X206319333Y-112069523D01*
X206366952Y-112164761D01*
X206462190Y-112212380D01*
X206605047Y-112212380D01*
X206700285Y-112164761D01*
X206747904Y-112117142D01*
X207224095Y-112212380D02*
X207224095Y-111212380D01*
X207224095Y-111688571D02*
X207795523Y-111688571D01*
X207795523Y-112212380D02*
X207795523Y-111212380D01*
%TO.C,U1*%
X116078095Y-86828380D02*
X116078095Y-87637904D01*
X116125714Y-87733142D01*
X116173333Y-87780761D01*
X116268571Y-87828380D01*
X116459047Y-87828380D01*
X116554285Y-87780761D01*
X116601904Y-87733142D01*
X116649523Y-87637904D01*
X116649523Y-86828380D01*
X117649523Y-87828380D02*
X117078095Y-87828380D01*
X117363809Y-87828380D02*
X117363809Y-86828380D01*
X117268571Y-86971238D01*
X117173333Y-87066476D01*
X117078095Y-87114095D01*
X125952857Y-113863380D02*
X125952857Y-112863380D01*
X126190952Y-112863380D01*
X126333809Y-112911000D01*
X126429047Y-113006238D01*
X126476666Y-113101476D01*
X126524285Y-113291952D01*
X126524285Y-113434809D01*
X126476666Y-113625285D01*
X126429047Y-113720523D01*
X126333809Y-113815761D01*
X126190952Y-113863380D01*
X125952857Y-113863380D01*
X126952857Y-113863380D02*
X126952857Y-112863380D01*
X127524285Y-113863380D02*
X127095714Y-113291952D01*
X127524285Y-112863380D02*
X126952857Y-113434809D01*
X127952857Y-113863380D02*
X127952857Y-112863380D01*
X128286190Y-113577666D01*
X128619523Y-112863380D01*
X128619523Y-113863380D01*
X129000476Y-112863380D02*
X129238571Y-113863380D01*
X129429047Y-113149095D01*
X129619523Y-113863380D01*
X129857619Y-112863380D01*
X130190952Y-112958619D02*
X130238571Y-112911000D01*
X130333809Y-112863380D01*
X130571904Y-112863380D01*
X130667142Y-112911000D01*
X130714761Y-112958619D01*
X130762380Y-113053857D01*
X130762380Y-113149095D01*
X130714761Y-113291952D01*
X130143333Y-113863380D01*
X130762380Y-113863380D01*
X131381428Y-112863380D02*
X131476666Y-112863380D01*
X131571904Y-112911000D01*
X131619523Y-112958619D01*
X131667142Y-113053857D01*
X131714761Y-113244333D01*
X131714761Y-113482428D01*
X131667142Y-113672904D01*
X131619523Y-113768142D01*
X131571904Y-113815761D01*
X131476666Y-113863380D01*
X131381428Y-113863380D01*
X131286190Y-113815761D01*
X131238571Y-113768142D01*
X131190952Y-113672904D01*
X131143333Y-113482428D01*
X131143333Y-113244333D01*
X131190952Y-113053857D01*
X131238571Y-112958619D01*
X131286190Y-112911000D01*
X131381428Y-112863380D01*
X132476666Y-113339571D02*
X132143333Y-113339571D01*
X132143333Y-113863380D02*
X132143333Y-112863380D01*
X132619523Y-112863380D01*
X133000476Y-113482428D02*
X133762380Y-113482428D01*
X134762380Y-113863380D02*
X134190952Y-113863380D01*
X134476666Y-113863380D02*
X134476666Y-112863380D01*
X134381428Y-113006238D01*
X134286190Y-113101476D01*
X134190952Y-113149095D01*
X135667142Y-112863380D02*
X135190952Y-112863380D01*
X135143333Y-113339571D01*
X135190952Y-113291952D01*
X135286190Y-113244333D01*
X135524285Y-113244333D01*
X135619523Y-113291952D01*
X135667142Y-113339571D01*
X135714761Y-113434809D01*
X135714761Y-113672904D01*
X135667142Y-113768142D01*
X135619523Y-113815761D01*
X135524285Y-113863380D01*
X135286190Y-113863380D01*
X135190952Y-113815761D01*
X135143333Y-113768142D01*
%TO.C,C5*%
X145121333Y-87225142D02*
X145073714Y-87272761D01*
X144930857Y-87320380D01*
X144835619Y-87320380D01*
X144692761Y-87272761D01*
X144597523Y-87177523D01*
X144549904Y-87082285D01*
X144502285Y-86891809D01*
X144502285Y-86748952D01*
X144549904Y-86558476D01*
X144597523Y-86463238D01*
X144692761Y-86368000D01*
X144835619Y-86320380D01*
X144930857Y-86320380D01*
X145073714Y-86368000D01*
X145121333Y-86415619D01*
X146026095Y-86320380D02*
X145549904Y-86320380D01*
X145502285Y-86796571D01*
X145549904Y-86748952D01*
X145645142Y-86701333D01*
X145883238Y-86701333D01*
X145978476Y-86748952D01*
X146026095Y-86796571D01*
X146073714Y-86891809D01*
X146073714Y-87129904D01*
X146026095Y-87225142D01*
X145978476Y-87272761D01*
X145883238Y-87320380D01*
X145645142Y-87320380D01*
X145549904Y-87272761D01*
X145502285Y-87225142D01*
X147836190Y-98337714D02*
X147836190Y-99004380D01*
X147598095Y-97956761D02*
X147360000Y-98671047D01*
X147979047Y-98671047D01*
X148264761Y-98004380D02*
X148931428Y-98004380D01*
X148502857Y-99004380D01*
X149502857Y-98004380D02*
X149598095Y-98004380D01*
X149693333Y-98052000D01*
X149740952Y-98099619D01*
X149788571Y-98194857D01*
X149836190Y-98385333D01*
X149836190Y-98623428D01*
X149788571Y-98813904D01*
X149740952Y-98909142D01*
X149693333Y-98956761D01*
X149598095Y-99004380D01*
X149502857Y-99004380D01*
X149407619Y-98956761D01*
X149360000Y-98909142D01*
X149312380Y-98813904D01*
X149264761Y-98623428D01*
X149264761Y-98385333D01*
X149312380Y-98194857D01*
X149360000Y-98099619D01*
X149407619Y-98052000D01*
X149502857Y-98004380D01*
X151455238Y-98337714D02*
X151455238Y-99004380D01*
X151026666Y-98337714D02*
X151026666Y-98861523D01*
X151074285Y-98956761D01*
X151169523Y-99004380D01*
X151312380Y-99004380D01*
X151407619Y-98956761D01*
X151455238Y-98909142D01*
X152264761Y-98480571D02*
X151931428Y-98480571D01*
X151931428Y-99004380D02*
X151931428Y-98004380D01*
X152407619Y-98004380D01*
%TO.C,C12*%
X178300285Y-111037714D02*
X178300285Y-111704380D01*
X178062190Y-110656761D02*
X177824095Y-111371047D01*
X178443142Y-111371047D01*
X178824095Y-111609142D02*
X178871714Y-111656761D01*
X178824095Y-111704380D01*
X178776476Y-111656761D01*
X178824095Y-111609142D01*
X178824095Y-111704380D01*
X179205047Y-110704380D02*
X179871714Y-110704380D01*
X179443142Y-111704380D01*
X181443142Y-111037714D02*
X181443142Y-111704380D01*
X181014571Y-111037714D02*
X181014571Y-111561523D01*
X181062190Y-111656761D01*
X181157428Y-111704380D01*
X181300285Y-111704380D01*
X181395523Y-111656761D01*
X181443142Y-111609142D01*
X182252666Y-111180571D02*
X181919333Y-111180571D01*
X181919333Y-111704380D02*
X181919333Y-110704380D01*
X182395523Y-110704380D01*
%TO.C,C13*%
X177792285Y-98845714D02*
X177792285Y-99512380D01*
X177554190Y-98464761D02*
X177316095Y-99179047D01*
X177935142Y-99179047D01*
X178316095Y-99417142D02*
X178363714Y-99464761D01*
X178316095Y-99512380D01*
X178268476Y-99464761D01*
X178316095Y-99417142D01*
X178316095Y-99512380D01*
X178697047Y-98512380D02*
X179363714Y-98512380D01*
X178935142Y-99512380D01*
X180935142Y-98845714D02*
X180935142Y-99512380D01*
X180506571Y-98845714D02*
X180506571Y-99369523D01*
X180554190Y-99464761D01*
X180649428Y-99512380D01*
X180792285Y-99512380D01*
X180887523Y-99464761D01*
X180935142Y-99417142D01*
X181744666Y-98988571D02*
X181411333Y-98988571D01*
X181411333Y-99512380D02*
X181411333Y-98512380D01*
X181887523Y-98512380D01*
%TO.C,C15*%
X185031142Y-87225142D02*
X184983523Y-87272761D01*
X184840666Y-87320380D01*
X184745428Y-87320380D01*
X184602571Y-87272761D01*
X184507333Y-87177523D01*
X184459714Y-87082285D01*
X184412095Y-86891809D01*
X184412095Y-86748952D01*
X184459714Y-86558476D01*
X184507333Y-86463238D01*
X184602571Y-86368000D01*
X184745428Y-86320380D01*
X184840666Y-86320380D01*
X184983523Y-86368000D01*
X185031142Y-86415619D01*
X185983523Y-87320380D02*
X185412095Y-87320380D01*
X185697809Y-87320380D02*
X185697809Y-86320380D01*
X185602571Y-86463238D01*
X185507333Y-86558476D01*
X185412095Y-86606095D01*
X186888285Y-86320380D02*
X186412095Y-86320380D01*
X186364476Y-86796571D01*
X186412095Y-86748952D01*
X186507333Y-86701333D01*
X186745428Y-86701333D01*
X186840666Y-86748952D01*
X186888285Y-86796571D01*
X186935904Y-86891809D01*
X186935904Y-87129904D01*
X186888285Y-87225142D01*
X186840666Y-87272761D01*
X186745428Y-87320380D01*
X186507333Y-87320380D01*
X186412095Y-87272761D01*
X186364476Y-87225142D01*
X184221619Y-88844380D02*
X183650190Y-88844380D01*
X183935904Y-88844380D02*
X183935904Y-87844380D01*
X183840666Y-87987238D01*
X183745428Y-88082476D01*
X183650190Y-88130095D01*
X184840666Y-87844380D02*
X184935904Y-87844380D01*
X185031142Y-87892000D01*
X185078761Y-87939619D01*
X185126380Y-88034857D01*
X185174000Y-88225333D01*
X185174000Y-88463428D01*
X185126380Y-88653904D01*
X185078761Y-88749142D01*
X185031142Y-88796761D01*
X184935904Y-88844380D01*
X184840666Y-88844380D01*
X184745428Y-88796761D01*
X184697809Y-88749142D01*
X184650190Y-88653904D01*
X184602571Y-88463428D01*
X184602571Y-88225333D01*
X184650190Y-88034857D01*
X184697809Y-87939619D01*
X184745428Y-87892000D01*
X184840666Y-87844380D01*
X186793047Y-88177714D02*
X186793047Y-88844380D01*
X186364476Y-88177714D02*
X186364476Y-88701523D01*
X186412095Y-88796761D01*
X186507333Y-88844380D01*
X186650190Y-88844380D01*
X186745428Y-88796761D01*
X186793047Y-88749142D01*
X187602571Y-88320571D02*
X187269238Y-88320571D01*
X187269238Y-88844380D02*
X187269238Y-87844380D01*
X187745428Y-87844380D01*
%TO.C,L1*%
X104989333Y-94432380D02*
X104513142Y-94432380D01*
X104513142Y-93432380D01*
X105846476Y-94432380D02*
X105275047Y-94432380D01*
X105560761Y-94432380D02*
X105560761Y-93432380D01*
X105465523Y-93575238D01*
X105370285Y-93670476D01*
X105275047Y-93718095D01*
X104624380Y-92400380D02*
X104052952Y-92400380D01*
X104338666Y-92400380D02*
X104338666Y-91400380D01*
X104243428Y-91543238D01*
X104148190Y-91638476D01*
X104052952Y-91686095D01*
X105243428Y-91400380D02*
X105338666Y-91400380D01*
X105433904Y-91448000D01*
X105481523Y-91495619D01*
X105529142Y-91590857D01*
X105576761Y-91781333D01*
X105576761Y-92019428D01*
X105529142Y-92209904D01*
X105481523Y-92305142D01*
X105433904Y-92352761D01*
X105338666Y-92400380D01*
X105243428Y-92400380D01*
X105148190Y-92352761D01*
X105100571Y-92305142D01*
X105052952Y-92209904D01*
X105005333Y-92019428D01*
X105005333Y-91781333D01*
X105052952Y-91590857D01*
X105100571Y-91495619D01*
X105148190Y-91448000D01*
X105243428Y-91400380D01*
X107195809Y-91733714D02*
X107195809Y-92400380D01*
X106767238Y-91733714D02*
X106767238Y-92257523D01*
X106814857Y-92352761D01*
X106910095Y-92400380D01*
X107052952Y-92400380D01*
X107148190Y-92352761D01*
X107195809Y-92305142D01*
X107672000Y-92400380D02*
X107672000Y-91400380D01*
X107672000Y-91876571D02*
X108243428Y-91876571D01*
X108243428Y-92400380D02*
X108243428Y-91400380D01*
%TO.C,L2*%
X156043333Y-112212380D02*
X155567142Y-112212380D01*
X155567142Y-111212380D01*
X156329047Y-111307619D02*
X156376666Y-111260000D01*
X156471904Y-111212380D01*
X156710000Y-111212380D01*
X156805238Y-111260000D01*
X156852857Y-111307619D01*
X156900476Y-111402857D01*
X156900476Y-111498095D01*
X156852857Y-111640952D01*
X156281428Y-112212380D01*
X156900476Y-112212380D01*
X152900285Y-113736380D02*
X152328857Y-113736380D01*
X152614571Y-113736380D02*
X152614571Y-112736380D01*
X152519333Y-112879238D01*
X152424095Y-112974476D01*
X152328857Y-113022095D01*
X153328857Y-113641142D02*
X153376476Y-113688761D01*
X153328857Y-113736380D01*
X153281238Y-113688761D01*
X153328857Y-113641142D01*
X153328857Y-113736380D01*
X153709809Y-112736380D02*
X154328857Y-112736380D01*
X153995523Y-113117333D01*
X154138380Y-113117333D01*
X154233619Y-113164952D01*
X154281238Y-113212571D01*
X154328857Y-113307809D01*
X154328857Y-113545904D01*
X154281238Y-113641142D01*
X154233619Y-113688761D01*
X154138380Y-113736380D01*
X153852666Y-113736380D01*
X153757428Y-113688761D01*
X153709809Y-113641142D01*
X155947904Y-113069714D02*
X155947904Y-113736380D01*
X155519333Y-113069714D02*
X155519333Y-113593523D01*
X155566952Y-113688761D01*
X155662190Y-113736380D01*
X155805047Y-113736380D01*
X155900285Y-113688761D01*
X155947904Y-113641142D01*
X156424095Y-113736380D02*
X156424095Y-112736380D01*
X156424095Y-113212571D02*
X156995523Y-113212571D01*
X156995523Y-113736380D02*
X156995523Y-112736380D01*
%TO.C,L3*%
X156043333Y-87828380D02*
X155567142Y-87828380D01*
X155567142Y-86828380D01*
X156281428Y-86828380D02*
X156900476Y-86828380D01*
X156567142Y-87209333D01*
X156710000Y-87209333D01*
X156805238Y-87256952D01*
X156852857Y-87304571D01*
X156900476Y-87399809D01*
X156900476Y-87637904D01*
X156852857Y-87733142D01*
X156805238Y-87780761D01*
X156710000Y-87828380D01*
X156424285Y-87828380D01*
X156329047Y-87780761D01*
X156281428Y-87733142D01*
X152900285Y-86304380D02*
X152328857Y-86304380D01*
X152614571Y-86304380D02*
X152614571Y-85304380D01*
X152519333Y-85447238D01*
X152424095Y-85542476D01*
X152328857Y-85590095D01*
X153328857Y-86209142D02*
X153376476Y-86256761D01*
X153328857Y-86304380D01*
X153281238Y-86256761D01*
X153328857Y-86209142D01*
X153328857Y-86304380D01*
X153709809Y-85304380D02*
X154328857Y-85304380D01*
X153995523Y-85685333D01*
X154138380Y-85685333D01*
X154233619Y-85732952D01*
X154281238Y-85780571D01*
X154328857Y-85875809D01*
X154328857Y-86113904D01*
X154281238Y-86209142D01*
X154233619Y-86256761D01*
X154138380Y-86304380D01*
X153852666Y-86304380D01*
X153757428Y-86256761D01*
X153709809Y-86209142D01*
X155947904Y-85637714D02*
X155947904Y-86304380D01*
X155519333Y-85637714D02*
X155519333Y-86161523D01*
X155566952Y-86256761D01*
X155662190Y-86304380D01*
X155805047Y-86304380D01*
X155900285Y-86256761D01*
X155947904Y-86209142D01*
X156424095Y-86304380D02*
X156424095Y-85304380D01*
X156424095Y-85780571D02*
X156995523Y-85780571D01*
X156995523Y-86304380D02*
X156995523Y-85304380D01*
%TO.C,L5*%
X203795333Y-86304380D02*
X203319142Y-86304380D01*
X203319142Y-85304380D01*
X204604857Y-85304380D02*
X204128666Y-85304380D01*
X204081047Y-85780571D01*
X204128666Y-85732952D01*
X204223904Y-85685333D01*
X204462000Y-85685333D01*
X204557238Y-85732952D01*
X204604857Y-85780571D01*
X204652476Y-85875809D01*
X204652476Y-86113904D01*
X204604857Y-86209142D01*
X204557238Y-86256761D01*
X204462000Y-86304380D01*
X204223904Y-86304380D01*
X204128666Y-86256761D01*
X204081047Y-86209142D01*
X203700285Y-87828380D02*
X203128857Y-87828380D01*
X203414571Y-87828380D02*
X203414571Y-86828380D01*
X203319333Y-86971238D01*
X203224095Y-87066476D01*
X203128857Y-87114095D01*
X204128857Y-87733142D02*
X204176476Y-87780761D01*
X204128857Y-87828380D01*
X204081238Y-87780761D01*
X204128857Y-87733142D01*
X204128857Y-87828380D01*
X204509809Y-86828380D02*
X205128857Y-86828380D01*
X204795523Y-87209333D01*
X204938380Y-87209333D01*
X205033619Y-87256952D01*
X205081238Y-87304571D01*
X205128857Y-87399809D01*
X205128857Y-87637904D01*
X205081238Y-87733142D01*
X205033619Y-87780761D01*
X204938380Y-87828380D01*
X204652666Y-87828380D01*
X204557428Y-87780761D01*
X204509809Y-87733142D01*
X206747904Y-87161714D02*
X206747904Y-87828380D01*
X206319333Y-87161714D02*
X206319333Y-87685523D01*
X206366952Y-87780761D01*
X206462190Y-87828380D01*
X206605047Y-87828380D01*
X206700285Y-87780761D01*
X206747904Y-87733142D01*
X207224095Y-87828380D02*
X207224095Y-86828380D01*
X207224095Y-87304571D02*
X207795523Y-87304571D01*
X207795523Y-87828380D02*
X207795523Y-86828380D01*
%TO.C,R3*%
X173934571Y-99512380D02*
X173363142Y-99512380D01*
X173648857Y-99512380D02*
X173648857Y-98512380D01*
X173553619Y-98655238D01*
X173458380Y-98750476D01*
X173363142Y-98798095D01*
X174791714Y-98845714D02*
X174791714Y-99512380D01*
X174553619Y-98464761D02*
X174315523Y-99179047D01*
X174934571Y-99179047D01*
X175506000Y-98512380D02*
X175601238Y-98512380D01*
X175696476Y-98560000D01*
X175744095Y-98607619D01*
X175791714Y-98702857D01*
X175839333Y-98893333D01*
X175839333Y-99131428D01*
X175791714Y-99321904D01*
X175744095Y-99417142D01*
X175696476Y-99464761D01*
X175601238Y-99512380D01*
X175506000Y-99512380D01*
X175410761Y-99464761D01*
X175363142Y-99417142D01*
X175315523Y-99321904D01*
X175267904Y-99131428D01*
X175267904Y-98893333D01*
X175315523Y-98702857D01*
X175363142Y-98607619D01*
X175410761Y-98560000D01*
X175506000Y-98512380D01*
X176267904Y-99512380D02*
X176267904Y-98512380D01*
X176363142Y-99131428D02*
X176648857Y-99512380D01*
X176648857Y-98845714D02*
X176267904Y-99226666D01*
%TO.C,R4*%
X174188571Y-113482380D02*
X173617142Y-113482380D01*
X173902857Y-113482380D02*
X173902857Y-112482380D01*
X173807619Y-112625238D01*
X173712380Y-112720476D01*
X173617142Y-112768095D01*
X175045714Y-112815714D02*
X175045714Y-113482380D01*
X174807619Y-112434761D02*
X174569523Y-113149047D01*
X175188571Y-113149047D01*
X175760000Y-112482380D02*
X175855238Y-112482380D01*
X175950476Y-112530000D01*
X175998095Y-112577619D01*
X176045714Y-112672857D01*
X176093333Y-112863333D01*
X176093333Y-113101428D01*
X176045714Y-113291904D01*
X175998095Y-113387142D01*
X175950476Y-113434761D01*
X175855238Y-113482380D01*
X175760000Y-113482380D01*
X175664761Y-113434761D01*
X175617142Y-113387142D01*
X175569523Y-113291904D01*
X175521904Y-113101428D01*
X175521904Y-112863333D01*
X175569523Y-112672857D01*
X175617142Y-112577619D01*
X175664761Y-112530000D01*
X175760000Y-112482380D01*
X176521904Y-113482380D02*
X176521904Y-112482380D01*
X176617142Y-113101428D02*
X176902857Y-113482380D01*
X176902857Y-112815714D02*
X176521904Y-113196666D01*
%TO.C,R5*%
X172069285Y-90257380D02*
X172688333Y-90257380D01*
X172355000Y-90638333D01*
X172497857Y-90638333D01*
X172593095Y-90685952D01*
X172640714Y-90733571D01*
X172688333Y-90828809D01*
X172688333Y-91066904D01*
X172640714Y-91162142D01*
X172593095Y-91209761D01*
X172497857Y-91257380D01*
X172212142Y-91257380D01*
X172116904Y-91209761D01*
X172069285Y-91162142D01*
X173307380Y-90257380D02*
X173402619Y-90257380D01*
X173497857Y-90305000D01*
X173545476Y-90352619D01*
X173593095Y-90447857D01*
X173640714Y-90638333D01*
X173640714Y-90876428D01*
X173593095Y-91066904D01*
X173545476Y-91162142D01*
X173497857Y-91209761D01*
X173402619Y-91257380D01*
X173307380Y-91257380D01*
X173212142Y-91209761D01*
X173164523Y-91162142D01*
X173116904Y-91066904D01*
X173069285Y-90876428D01*
X173069285Y-90638333D01*
X173116904Y-90447857D01*
X173164523Y-90352619D01*
X173212142Y-90305000D01*
X173307380Y-90257380D01*
X174259761Y-90257380D02*
X174355000Y-90257380D01*
X174450238Y-90305000D01*
X174497857Y-90352619D01*
X174545476Y-90447857D01*
X174593095Y-90638333D01*
X174593095Y-90876428D01*
X174545476Y-91066904D01*
X174497857Y-91162142D01*
X174450238Y-91209761D01*
X174355000Y-91257380D01*
X174259761Y-91257380D01*
X174164523Y-91209761D01*
X174116904Y-91162142D01*
X174069285Y-91066904D01*
X174021666Y-90876428D01*
X174021666Y-90638333D01*
X174069285Y-90447857D01*
X174116904Y-90352619D01*
X174164523Y-90305000D01*
X174259761Y-90257380D01*
%TO.C,R6*%
X173720285Y-110704380D02*
X174339333Y-110704380D01*
X174006000Y-111085333D01*
X174148857Y-111085333D01*
X174244095Y-111132952D01*
X174291714Y-111180571D01*
X174339333Y-111275809D01*
X174339333Y-111513904D01*
X174291714Y-111609142D01*
X174244095Y-111656761D01*
X174148857Y-111704380D01*
X173863142Y-111704380D01*
X173767904Y-111656761D01*
X173720285Y-111609142D01*
X174958380Y-110704380D02*
X175053619Y-110704380D01*
X175148857Y-110752000D01*
X175196476Y-110799619D01*
X175244095Y-110894857D01*
X175291714Y-111085333D01*
X175291714Y-111323428D01*
X175244095Y-111513904D01*
X175196476Y-111609142D01*
X175148857Y-111656761D01*
X175053619Y-111704380D01*
X174958380Y-111704380D01*
X174863142Y-111656761D01*
X174815523Y-111609142D01*
X174767904Y-111513904D01*
X174720285Y-111323428D01*
X174720285Y-111085333D01*
X174767904Y-110894857D01*
X174815523Y-110799619D01*
X174863142Y-110752000D01*
X174958380Y-110704380D01*
X175910761Y-110704380D02*
X176006000Y-110704380D01*
X176101238Y-110752000D01*
X176148857Y-110799619D01*
X176196476Y-110894857D01*
X176244095Y-111085333D01*
X176244095Y-111323428D01*
X176196476Y-111513904D01*
X176148857Y-111609142D01*
X176101238Y-111656761D01*
X176006000Y-111704380D01*
X175910761Y-111704380D01*
X175815523Y-111656761D01*
X175767904Y-111609142D01*
X175720285Y-111513904D01*
X175672666Y-111323428D01*
X175672666Y-111085333D01*
X175720285Y-110894857D01*
X175767904Y-110799619D01*
X175815523Y-110752000D01*
X175910761Y-110704380D01*
%TO.C,U2*%
X174244095Y-102166380D02*
X174244095Y-102975904D01*
X174291714Y-103071142D01*
X174339333Y-103118761D01*
X174434571Y-103166380D01*
X174625047Y-103166380D01*
X174720285Y-103118761D01*
X174767904Y-103071142D01*
X174815523Y-102975904D01*
X174815523Y-102166380D01*
X175244095Y-102261619D02*
X175291714Y-102214000D01*
X175386952Y-102166380D01*
X175625047Y-102166380D01*
X175720285Y-102214000D01*
X175767904Y-102261619D01*
X175815523Y-102356857D01*
X175815523Y-102452095D01*
X175767904Y-102594952D01*
X175196476Y-103166380D01*
X175815523Y-103166380D01*
X175697047Y-103068380D02*
X175220857Y-103068380D01*
X175220857Y-102068380D01*
X175887523Y-102068380D02*
X176458952Y-102068380D01*
X176173238Y-103068380D02*
X176173238Y-102068380D01*
X176697047Y-102068380D02*
X177316095Y-102068380D01*
X176982761Y-102449333D01*
X177125619Y-102449333D01*
X177220857Y-102496952D01*
X177268476Y-102544571D01*
X177316095Y-102639809D01*
X177316095Y-102877904D01*
X177268476Y-102973142D01*
X177220857Y-103020761D01*
X177125619Y-103068380D01*
X176839904Y-103068380D01*
X176744666Y-103020761D01*
X176697047Y-102973142D01*
X177935142Y-102068380D02*
X178030380Y-102068380D01*
X178125619Y-102116000D01*
X178173238Y-102163619D01*
X178220857Y-102258857D01*
X178268476Y-102449333D01*
X178268476Y-102687428D01*
X178220857Y-102877904D01*
X178173238Y-102973142D01*
X178125619Y-103020761D01*
X178030380Y-103068380D01*
X177935142Y-103068380D01*
X177839904Y-103020761D01*
X177792285Y-102973142D01*
X177744666Y-102877904D01*
X177697047Y-102687428D01*
X177697047Y-102449333D01*
X177744666Y-102258857D01*
X177792285Y-102163619D01*
X177839904Y-102116000D01*
X177935142Y-102068380D01*
X179125619Y-102401714D02*
X179125619Y-103068380D01*
X178887523Y-102020761D02*
X178649428Y-102735047D01*
X179268476Y-102735047D01*
X180125619Y-102068380D02*
X179649428Y-102068380D01*
X179601809Y-102544571D01*
X179649428Y-102496952D01*
X179744666Y-102449333D01*
X179982761Y-102449333D01*
X180078000Y-102496952D01*
X180125619Y-102544571D01*
X180173238Y-102639809D01*
X180173238Y-102877904D01*
X180125619Y-102973142D01*
X180078000Y-103020761D01*
X179982761Y-103068380D01*
X179744666Y-103068380D01*
X179649428Y-103020761D01*
X179601809Y-102973142D01*
X180506571Y-103068380D02*
X181030380Y-102401714D01*
X180506571Y-102401714D02*
X181030380Y-103068380D01*
X181411333Y-103068380D02*
X181411333Y-102068380D01*
X181744666Y-102782666D01*
X182078000Y-102068380D01*
X182078000Y-103068380D01*
X182506571Y-103020761D02*
X182649428Y-103068380D01*
X182887523Y-103068380D01*
X182982761Y-103020761D01*
X183030380Y-102973142D01*
X183078000Y-102877904D01*
X183078000Y-102782666D01*
X183030380Y-102687428D01*
X182982761Y-102639809D01*
X182887523Y-102592190D01*
X182697047Y-102544571D01*
X182601809Y-102496952D01*
X182554190Y-102449333D01*
X182506571Y-102354095D01*
X182506571Y-102258857D01*
X182554190Y-102163619D01*
X182601809Y-102116000D01*
X182697047Y-102068380D01*
X182935142Y-102068380D01*
X183078000Y-102116000D01*
X183506571Y-102544571D02*
X183839904Y-102544571D01*
X183982761Y-103068380D02*
X183506571Y-103068380D01*
X183506571Y-102068380D01*
X183982761Y-102068380D01*
%TO.C,U3*%
X174244095Y-86828380D02*
X174244095Y-87637904D01*
X174291714Y-87733142D01*
X174339333Y-87780761D01*
X174434571Y-87828380D01*
X174625047Y-87828380D01*
X174720285Y-87780761D01*
X174767904Y-87733142D01*
X174815523Y-87637904D01*
X174815523Y-86828380D01*
X175196476Y-86828380D02*
X175815523Y-86828380D01*
X175482190Y-87209333D01*
X175625047Y-87209333D01*
X175720285Y-87256952D01*
X175767904Y-87304571D01*
X175815523Y-87399809D01*
X175815523Y-87637904D01*
X175767904Y-87733142D01*
X175720285Y-87780761D01*
X175625047Y-87828380D01*
X175339333Y-87828380D01*
X175244095Y-87780761D01*
X175196476Y-87733142D01*
X175697047Y-87828380D02*
X175220857Y-87828380D01*
X175220857Y-86828380D01*
X175887523Y-86828380D02*
X176458952Y-86828380D01*
X176173238Y-87828380D02*
X176173238Y-86828380D01*
X176697047Y-86828380D02*
X177316095Y-86828380D01*
X176982761Y-87209333D01*
X177125619Y-87209333D01*
X177220857Y-87256952D01*
X177268476Y-87304571D01*
X177316095Y-87399809D01*
X177316095Y-87637904D01*
X177268476Y-87733142D01*
X177220857Y-87780761D01*
X177125619Y-87828380D01*
X176839904Y-87828380D01*
X176744666Y-87780761D01*
X176697047Y-87733142D01*
X177935142Y-86828380D02*
X178030380Y-86828380D01*
X178125619Y-86876000D01*
X178173238Y-86923619D01*
X178220857Y-87018857D01*
X178268476Y-87209333D01*
X178268476Y-87447428D01*
X178220857Y-87637904D01*
X178173238Y-87733142D01*
X178125619Y-87780761D01*
X178030380Y-87828380D01*
X177935142Y-87828380D01*
X177839904Y-87780761D01*
X177792285Y-87733142D01*
X177744666Y-87637904D01*
X177697047Y-87447428D01*
X177697047Y-87209333D01*
X177744666Y-87018857D01*
X177792285Y-86923619D01*
X177839904Y-86876000D01*
X177935142Y-86828380D01*
X178744666Y-87828380D02*
X178935142Y-87828380D01*
X179030380Y-87780761D01*
X179078000Y-87733142D01*
X179173238Y-87590285D01*
X179220857Y-87399809D01*
X179220857Y-87018857D01*
X179173238Y-86923619D01*
X179125619Y-86876000D01*
X179030380Y-86828380D01*
X178839904Y-86828380D01*
X178744666Y-86876000D01*
X178697047Y-86923619D01*
X178649428Y-87018857D01*
X178649428Y-87256952D01*
X178697047Y-87352190D01*
X178744666Y-87399809D01*
X178839904Y-87447428D01*
X179030380Y-87447428D01*
X179125619Y-87399809D01*
X179173238Y-87352190D01*
X179220857Y-87256952D01*
X180078000Y-87161714D02*
X180078000Y-87828380D01*
X179839904Y-86780761D02*
X179601809Y-87495047D01*
X180220857Y-87495047D01*
X180506571Y-87828380D02*
X181030380Y-87161714D01*
X180506571Y-87161714D02*
X181030380Y-87828380D01*
X181411333Y-87828380D02*
X181411333Y-86828380D01*
X181744666Y-87542666D01*
X182078000Y-86828380D01*
X182078000Y-87828380D01*
X182506571Y-87780761D02*
X182649428Y-87828380D01*
X182887523Y-87828380D01*
X182982761Y-87780761D01*
X183030380Y-87733142D01*
X183078000Y-87637904D01*
X183078000Y-87542666D01*
X183030380Y-87447428D01*
X182982761Y-87399809D01*
X182887523Y-87352190D01*
X182697047Y-87304571D01*
X182601809Y-87256952D01*
X182554190Y-87209333D01*
X182506571Y-87114095D01*
X182506571Y-87018857D01*
X182554190Y-86923619D01*
X182601809Y-86876000D01*
X182697047Y-86828380D01*
X182935142Y-86828380D01*
X183078000Y-86876000D01*
X183506571Y-87304571D02*
X183839904Y-87304571D01*
X183982761Y-87828380D02*
X183506571Y-87828380D01*
X183506571Y-86828380D01*
X183982761Y-86828380D01*
%TO.C,J1*%
X98726666Y-105922380D02*
X98726666Y-106636666D01*
X98679047Y-106779523D01*
X98583809Y-106874761D01*
X98440952Y-106922380D01*
X98345714Y-106922380D01*
X99726666Y-106922380D02*
X99155238Y-106922380D01*
X99440952Y-106922380D02*
X99440952Y-105922380D01*
X99345714Y-106065238D01*
X99250476Y-106160476D01*
X99155238Y-106208095D01*
%TO.C,J2*%
X213026666Y-108462380D02*
X213026666Y-109176666D01*
X212979047Y-109319523D01*
X212883809Y-109414761D01*
X212740952Y-109462380D01*
X212645714Y-109462380D01*
X213455238Y-108557619D02*
X213502857Y-108510000D01*
X213598095Y-108462380D01*
X213836190Y-108462380D01*
X213931428Y-108510000D01*
X213979047Y-108557619D01*
X214026666Y-108652857D01*
X214026666Y-108748095D01*
X213979047Y-108890952D01*
X213407619Y-109462380D01*
X214026666Y-109462380D01*
%TO.C,U4*%
X173569523Y-115387380D02*
X173093333Y-115387380D01*
X173093333Y-114387380D01*
X173902857Y-115387380D02*
X173902857Y-114387380D01*
X174236190Y-115101666D01*
X174569523Y-114387380D01*
X174569523Y-115387380D01*
X174950476Y-114387380D02*
X175569523Y-114387380D01*
X175236190Y-114768333D01*
X175379047Y-114768333D01*
X175474285Y-114815952D01*
X175521904Y-114863571D01*
X175569523Y-114958809D01*
X175569523Y-115196904D01*
X175521904Y-115292142D01*
X175474285Y-115339761D01*
X175379047Y-115387380D01*
X175093333Y-115387380D01*
X174998095Y-115339761D01*
X174950476Y-115292142D01*
X176521904Y-115387380D02*
X175950476Y-115387380D01*
X176236190Y-115387380D02*
X176236190Y-114387380D01*
X176140952Y-114530238D01*
X176045714Y-114625476D01*
X175950476Y-114673095D01*
X176855238Y-114387380D02*
X177521904Y-114387380D01*
X177093333Y-115387380D01*
%TO.C,U5*%
X172934523Y-81732380D02*
X172458333Y-81732380D01*
X172458333Y-80732380D01*
X173267857Y-81732380D02*
X173267857Y-80732380D01*
X173601190Y-81446666D01*
X173934523Y-80732380D01*
X173934523Y-81732380D01*
X174315476Y-80732380D02*
X174934523Y-80732380D01*
X174601190Y-81113333D01*
X174744047Y-81113333D01*
X174839285Y-81160952D01*
X174886904Y-81208571D01*
X174934523Y-81303809D01*
X174934523Y-81541904D01*
X174886904Y-81637142D01*
X174839285Y-81684761D01*
X174744047Y-81732380D01*
X174458333Y-81732380D01*
X174363095Y-81684761D01*
X174315476Y-81637142D01*
X175267857Y-80732380D02*
X175886904Y-80732380D01*
X175553571Y-81113333D01*
X175696428Y-81113333D01*
X175791666Y-81160952D01*
X175839285Y-81208571D01*
X175886904Y-81303809D01*
X175886904Y-81541904D01*
X175839285Y-81637142D01*
X175791666Y-81684761D01*
X175696428Y-81732380D01*
X175410714Y-81732380D01*
X175315476Y-81684761D01*
X175267857Y-81637142D01*
X176220238Y-80732380D02*
X176886904Y-80732380D01*
X176458333Y-81732380D01*
%TD*%
M02*
