M48
; DRILL file {KiCad (5.1.9)-1} date 01/14/22 16:31:08
; FORMAT={-:-/ absolute / inch / decimal}
; #@! TF.CreationDate,2022-01-14T16:31:08-06:00
; #@! TF.GenerationSoftware,Kicad,Pcbnew,(5.1.9)-1
; #@! TF.FileFunction,Plated,1,2,PTH
FMAT,2
INCH
T1C0.0157
T2C0.0315
T3C0.0394
T4C0.0433
T5C0.0472
T6C0.1260
%
G90
G05
T1
X4.1125Y-4.0125
X4.1625Y-4.0625
X4.2125Y-4.1125
X4.25Y-4.15
X4.25Y-4.225
X4.32Y-4.22
X4.325Y-4.15
X4.4Y-4.15
X4.4Y-4.225
X5.685Y-3.915
X5.785Y-3.915
X5.9Y-3.9
X5.985Y-3.915
X6.085Y-3.915
X6.185Y-3.915
X6.285Y-3.915
X6.385Y-3.915
X6.485Y-3.915
X6.585Y-3.915
X6.685Y-3.915
X6.69Y-3.39
X6.69Y-3.43
X6.69Y-3.47
X6.69Y-3.51
X6.69Y-3.55
X6.69Y-3.59
X6.69Y-3.63
X6.69Y-3.67
X6.69Y-3.71
X6.69Y-3.75
X6.69Y-3.79
X6.69Y-3.83
X6.7Y-4.04
X6.7Y-4.08
X6.7Y-4.12
X6.7Y-4.16
X6.7Y-4.2
X6.7Y-4.24
X6.7Y-4.28
X6.7Y-4.32
X6.7Y-4.36
X6.7Y-4.4
X6.7Y-4.44
X6.7Y-4.48
X6.785Y-3.915
X6.91Y-3.92
X6.99Y-3.91
X7.11Y-3.91
X7.23Y-3.92
X7.3072Y-3.9228
X7.385Y-3.915
X7.485Y-3.915
X7.585Y-3.915
X7.685Y-3.915
X7.785Y-3.915
X7.885Y-3.915
X7.92Y-3.38
X7.92Y-3.42
X7.92Y-3.46
X7.92Y-3.5
X7.92Y-3.54
X7.92Y-3.58
X7.92Y-3.62
X7.92Y-3.66
X7.92Y-3.7
X7.92Y-3.74
X7.92Y-3.78
X7.92Y-3.82
X7.92Y-4.04
X7.92Y-4.08
X7.92Y-4.12
X7.92Y-4.16
X7.92Y-4.2
X7.92Y-4.24
X7.92Y-4.28
X7.92Y-4.32
X7.92Y-4.36
X7.92Y-4.4
X7.92Y-4.44
X7.92Y-4.48
X7.985Y-3.915
X8.085Y-3.915
T2
X6.125Y-3.25
X6.125Y-4.6
X6.625Y-3.25
X6.625Y-4.6
X6.725Y-3.25
X6.725Y-4.6
X7.225Y-3.25
X7.225Y-4.6
T3
X3.9Y-3.8
X3.9Y-3.9
X3.9Y-4.0
X3.9Y-4.1
X5.9Y-3.5181
X5.9Y-3.715
X5.9Y-4.0381
X5.9Y-4.235
X8.4Y-3.7
X8.4Y-3.8
X8.4Y-3.9
X8.4Y-4.0
X8.4Y-4.1
X8.4Y-4.2
T4
X6.875Y-3.3
X6.9Y-4.625
X6.975Y-3.3
X7.0Y-4.625
X7.075Y-3.3
X7.1Y-4.625
T5
X4.75Y-3.515
X4.75Y-3.815
X4.75Y-4.015
X5.55Y-3.515
X5.55Y-3.915
X5.55Y-4.315
T6
X4.3Y-3.325
X4.325Y-4.525
X8.275Y-3.325
X8.3Y-4.525
T0
M30
